<svg version="1.1" xmlns="http://www.w3.org/2000/svg" xmlns:xlink="http://www.w3.org/1999/xlink" width="288.5" height="231.82609" viewBox="0,0,288.5,231.82609"><defs><linearGradient x1="274.53999" y1="98.50001" x2="274.53999" y2="260.50001" gradientUnits="userSpaceOnUse" id="color-1"><stop offset="0" stop-color="#000000"/><stop offset="1" stop-color="#9a9a9a"/></linearGradient><linearGradient x1="274.53999" y1="98.50001" x2="274.53999" y2="260.50001" gradientUnits="userSpaceOnUse" id="color-2"><stop offset="0" stop-color="#000000"/><stop offset="1" stop-color="#989898"/></linearGradient></defs><g transform="translate(-70.5,-64.08697)"><g data-paper-data="{&quot;isPaintingLayer&quot;:true}" fill-rule="nonzero" stroke-linecap="butt" stroke-linejoin="miter" stroke-miterlimit="10" stroke-dasharray="" stroke-dashoffset="0" style="mix-blend-mode: normal"><path d="M121,295.91306v-231.82609h238v231.82609z" fill="#000000" stroke="none" stroke-width="0"/><path d="M70.5,111.00001c0,-1.38071 1.11929,-2.5 2.5,-2.5c1.38071,0 2.5,1.11929 2.5,2.5c0,1.38071 -1.11929,2.5 -2.5,2.5c-1.38071,0 -2.5,-1.11929 -2.5,-2.5z" fill="#ffffff" stroke="none" stroke-width="0.5"/><path d="M317,180.00001c0,44.18278 -34.47407,80 -77,80c-42.52592,0 -77,-35.81722 -77,-80c0,-44.18278 34.47408,-80 77,-80c42.52593,0 77,35.81722 77,80z" fill="#ffffff" stroke="#ffffff" stroke-width="3"/><path d="M290.49547,233.53296l0.04846,-0.01616c0.00362,-0.01457 0.00726,-0.02914 0.01089,-0.04373c-0.07351,0.02244 -0.14791,0.04303 -0.22296,0.06231c0.05421,-0.00108 0.10874,-0.00189 0.1636,-0.00241zM312.49651,190.90828c-0.00104,-1.19513 -0.03261,-2.40367 -0.09223,-3.61995c-0.12317,1.7451 -0.34853,3.48351 -0.74903,5.23525c0.11269,-0.01555 0.22778,-0.02357 0.34474,-0.02357c0.19603,0 0.3868,0.02257 0.56984,0.06524c-0.04234,-0.60316 -0.0729,-1.16355 -0.07333,-1.65697zM307.24579,190.09839c-0.90032,1.59713 -1.40625,4.19139 -2.87026,5.14301c-0.02278,0.78944 -0.01232,1.57673 0.09219,2.35816c0.01472,0.11012 0.0395,0.21818 0.07103,0.32485c0.51297,-2.81977 2.57191,-5.63718 2.98904,-8.29576c-0.09791,0.15422 -0.19227,0.31058 -0.28199,0.46974zM287.95671,185.30971c-0.96552,0.37835 -2.05946,0.10679 -3.10679,0.12831l-2.43473,1.62315c-0.40239,0.2768 -0.88986,0.43884 -1.41519,0.43884c-0.66323,0 -1.26615,-0.25827 -1.71366,-0.67972c-0.54977,0.21014 -1.09339,0.43946 -1.62619,0.68653c-2.96861,2.38417 -5.98675,4.6285 -8.96049,6.91914c-0.53702,0.57252 -1.06235,1.15623 -1.57946,1.74781c0.1938,-0.08866 0.3827,-0.1879 0.56547,-0.30038c0.80293,-0.49417 1.18709,-1.52244 2,-2c3.0818,-1.81049 7.15646,-2.02332 10.44696,-3.21809c1.19027,-0.43219 2.35397,-0.97795 3.40559,-1.68339c0.93796,-0.62921 1.45016,-1.87805 2.50507,-2.28159c0.76245,-0.29167 1.59036,-0.27119 2.42302,-0.22803c0.53816,-0.53881 1.02429,-1.11768 1.40706,-1.7766c0.23983,-0.41285 0.45552,-0.84897 0.66486,-1.2918c-0.83372,0.67707 -1.6056,1.5334 -2.58152,1.91583zM239.51873,181.30547c-0.13324,-0.90901 -0.26281,-1.7689 -0.3824,-2.60499c-0.50536,1.1404 -0.97157,2.28254 -1.28197,3.53755c0.46903,-0.07726 1.05107,-0.05658 1.77511,0.09214c-0.02489,-0.34356 -0.06099,-0.68525 -0.11075,-1.0247zM253.5,107.00001v0.76435c1.87966,-0.421 3.72501,-0.35346 5.10622,0.73565h1.39378v0.30485l0.72446,-0.19758c0.01746,0.01164 0.03487,0.02336 0.05225,0.03517c-0.16009,-0.34358 -0.35295,-0.66514 -0.61101,-0.94382c-1.94038,-2.09537 -5.05802,-3.23866 -7.7917,-2.78753c0.67834,0.44709 1.126,1.21572 1.126,2.0889zM287.23175,120.82451c3.79467,1.9213 7.60864,0.86093 10.75502,4.65802c0.80789,0.97497 0.81348,2.40159 1.32294,3.56078c1.24368,2.82978 2.17715,5.6455 2.99042,8.47626c0.78362,-0.06895 1.73179,0.01009 2.87953,0.27626c1.20461,0.27936 1.0693,1.92954 1.11635,3.41032c1.80142,1.71303 3.3886,3.68611 4.09674,6.06941c0.04537,0.1527 0.08161,0.30682 0.11023,0.46212l0.03651,-0.18254c0.20986,-1.16847 1.23165,-2.05513 2.46053,-2.05513c1.1246,0 2.07577,0.74256 2.38994,1.76412l0.98177,2.94531c2.21423,6.84893 1.0856,13.44827 -0.97933,19.934c0.02812,0.15306 0.05361,0.30662 0.0761,0.46077c0.19221,1.31784 -0.18908,2.67695 -0.00075,3.99535c0.14906,1.0435 0.82763,1.96009 1,3c0.89222,5.38251 1.02913,10.91126 1.03228,16.39905c0.00025,0.44572 0.00921,6.1809 -0.03228,6.40186c-0.86887,4.62741 -4.72593,7.68473 -7.53436,11.18452c-3.20033,3.98815 -5.17129,8.77373 -8,13c-1.48947,1.48947 -3.58636,2.32415 -4.94659,3.93251c-0.48624,0.57494 -0.39942,1.45211 -0.58646,2.18149c-0.21594,0.84206 -0.42729,1.68529 -0.63683,2.52898c0.45493,0.45274 0.73653,1.07951 0.73653,1.77205c0,0.82832 -0.40283,1.56254 -1.02328,2.01746l-0.80187,0.60141c-0.08265,0.32929 -0.16576,0.65846 -0.24949,0.98747c-1.10017,4.3229 -3.78213,11.31579 -8.19361,13.56916c-3.0512,1.55854 -5.13448,1.3153 -8.23174,1.3245c-1.27843,0.0038 -6.94872,0.1101 -7.53853,-0.52948c-0.55054,-0.597 -0.98652,-1.1664 -1.32226,-1.7127c-1.16064,0.88085 -2.08735,2.15841 -3.23576,3.01875c-0.94817,1.08317 -1.84388,2.13354 -2.58912,2.85006l-0.60441,0.00312l0.08065,0.24197l-2.94464,0.98154c-0.2642,0.09499 -0.54902,0.14675 -0.84593,0.14675c-1.36893,0 -2.48087,-1.10027 -2.49975,-2.46471l-0.73247,0.73248h-0.00001v0c-0.45241,0.45241 -1.07741,0.73224 -1.76776,0.73224c-0.78753,0 -1.49001,-0.36414 -1.94825,-0.93324c-0.32127,-0.01585 -0.66988,-0.03866 -1.05175,-0.06676c-1.06537,-0.0784 -2.37445,0.1769 -3.42891,-0.01013c-0.42724,0.22315 -0.85442,0.44191 -1.28169,0.65516l-2.87421,1.91613c-0.40239,0.27681 -0.88986,0.43883 -1.41519,0.43883c-0.63577,0 -1.21612,-0.23732 -1.65727,-0.62822c-0.23817,0.72135 -0.83702,1.62822 -2.34273,1.62822c-2.5,0 -2.5,-2.5 -2.5,-2.5v-2c0,-2.96435 -0.45239,-6.48352 0.03228,-9.40045c0.51246,-3.08423 2.10518,-6.41762 3.09601,-9.39012c0.6514,-1.88063 0.79315,-3.9161 0.89044,-5.90397c0.03474,-0.70988 0.93427,-1.84053 0.27824,-2.11395c-0.82359,-0.34324 -1.54874,1.58716 -2.37135,1.2416c-1.67706,-0.7045 -3.31519,-2.12283 -3.85874,-3.85874c-0.33602,-1.0731 -0.14428,-2.10079 0.2874,-3.07855c-1.31289,-0.07546 -2.35428,-1.16403 -2.35428,-2.49582c0,-0.48518 0.13821,-0.93808 0.37741,-1.32147l1.63426,-2.72378c0.53518,-1.98683 1.22282,-3.89117 2.49387,-5.46212c0.88812,-1.09767 2.12023,-1.84345 3.30495,-2.63891c0.10685,-1.35135 0.15387,-2.71087 0.17436,-4.06845c-0.57537,-0.65872 -0.94358,-1.51588 -0.97857,-2.60804c-0.02847,-0.88865 0.41241,-1.64128 0.9914,-2.36044c-0.00806,-2.23305 -0.0333,-4.46865 -0.01232,-6.70138c-0.28088,-1.83971 -0.15648,-3.74391 -0.012,-5.65025c-0.682,0.27955 -0.66232,1.5538 -1.375,1.78063c-0.10573,0.03365 -0.21199,0.06461 -0.31875,0.0931l0.01094,0.03282l-2.94464,0.98154c-0.2642,0.09499 -0.54902,0.14675 -0.84593,0.14675c-1.38071,0 -2.5,-1.11929 -2.5,-2.5c0,-0.29691 0.05176,-0.58173 0.14675,-0.84593l0.88592,-2.65777c0.03874,-5.15508 2.97104,-8.13372 4.01244,-12.96907c0.24757,-1.14948 -0.03698,-2.35142 -0.04511,-3.52723c-0.02822,-4.08427 0.33041,-7.70516 -0.96772,-11.59955c-0.01898,-1.99991 0.26511,-4.01765 0,-6c-0.23307,-1.74276 -2.22335,-2.7979 -2.84198,-4.44375c-0.40084,-1.06643 -0.22815,-2.25542 -0.1935,-3.40946c-0.47079,-1.26941 -0.37757,-2.93758 -0.05055,-4.54826c-0.01785,-3.99913 0.05375,-8.00439 0.05375,-11.99899c0,-0.47331 -0.0095,-6.14904 0.03228,-6.40045c0.20755,-1.24911 0.65407,-2.4578 1.14626,-3.65776c0.16776,-1.72222 0.42399,-3.44028 0.659,-5.15205c0.17373,-1.26546 -0.12126,-2.63871 0.38145,-3.81296c0.21104,-0.49294 0.57489,-0.88455 0.97657,-1.25279c-0.06976,-1.64352 -0.19556,-3.28517 -0.19556,-4.72399c0,0 0,-2.5 2.5,-2.5c1.52249,0 2.11779,0.92719 2.35056,1.65226c1.13433,-0.91713 2.5999,-1.30224 4.76748,-0.38833c0.78308,0.33017 1.16627,1.08704 1.44726,1.95296c3.35015,-2.74364 8.73357,-2.27515 12.2431,-0.53639c1.76704,0.87546 3.64524,1.71283 5.02591,3.12087c1.10208,1.12392 1.30551,2.87888 2.1675,4.19598c0.31316,-0.41577 0.75307,-0.73068 1.26232,-0.88729l2.94531,-0.98177l0.02074,0.06221c0.3759,-0.11473 0.76441,-0.1744 1.17029,-0.15822c2.11287,0.08424 3.58695,2.25741 5.23755,3.57909c3.59177,2.87604 7.31429,6.66156 10.28297,10.50869c0.09592,0.07845 0.19867,0.14769 0.31077,0.20445zM241.23224,252.23224c0.44102,-0.72867 1.41133,-1.17034 2.58453,-1.43346c0.00765,-0.00441 0.01531,-0.00883 0.02297,-0.01323c0.48871,-0.28065 1.07005,-0.35878 1.63286,-0.47379c0.01704,-0.20902 0.03308,-0.41518 0.04613,-0.61722c0.06032,-0.93345 0.16987,-1.90547 0.41037,-2.828c-1.48522,1.23195 -2.94619,2.67458 -4.16134,3.90123l-1.45489,0.80621c0.02368,0.57875 0.05649,1.15883 0.08803,1.7315c0.16839,-0.13363 0.33617,-0.26819 0.50394,-0.40277c0.08873,-0.23041 0.19658,-0.45434 0.32739,-0.67047zM275.5084,226.29802c-0.02647,-0.25553 -0.04886,-0.51068 -0.06385,-0.76505c-0.66258,0.31227 -1.21353,0.6492 -1.45779,0.98453c-0.06403,0.08791 -0.11834,0.18096 -0.165,0.27805c0.5127,-0.27214 1.10862,-0.36527 1.68663,-0.49753zM278.96301,215.55064c0.86907,-1.0991 1.7772,-2.34529 3.08028,-2.86033c0.61738,-0.24402 1.27701,-0.2696 1.9499,-0.23648c0.40139,-0.8743 0.37922,-1.94129 0.88018,-2.76815c1.06403,-1.75622 2.9742,-2.94164 3.88083,-4.78405c0.93083,-1.89156 1.0639,-4.11104 2,-6c0.53366,-1.07687 1.4583,-1.92715 2,-3c0.8195,-1.62304 1.15019,-3.13429 1.30324,-4.63562c-0.32117,0.15014 -0.67952,0.23399 -1.05745,0.23399h-2.38491c-0.58628,0.39944 -1.12888,0.85583 -1.65014,1.3402c-0.25195,0.9337 -0.38415,1.93408 -0.97819,2.67728c-0.8174,1.02266 -2.28974,1.32809 -3.219,2.25028c-1.70616,1.69316 -2.30827,4.29243 -4,6c-0.90314,0.9116 -2.18041,1.36441 -3.18279,2.16559c-0.822,0.65702 -1.36978,1.64939 -2.27064,2.19327c-1.09186,0.65919 -4.34302,1.06206 -5.32756,2.39086c-0.70609,0.95298 -0.35136,2.58937 -1.28814,3.31682c-2.29206,1.77991 -5.43539,2.15788 -8.29817,2.63342c-0.88029,0.14622 -1.82231,-0.33482 -2.676,-0.07499c-4.01112,1.22082 -5.77485,6.57027 -10,8c-0.40208,0.13606 -5.96229,0.10727 -6.72446,0.10727c0,0 -0.94107,0 -1.66845,-0.57739c-0.33995,0.47863 -0.65513,0.97087 -0.89843,1.50301c-0.52947,1.15806 2.80831,-1.45188 3.7699,-0.61714c3.8136,3.31052 2.43808,10.05567 1.16869,13.98209c-0.57796,1.73387 -1.4089,3.61286 -2.05715,5.47879c1.42992,-1.30268 2.94676,-2.55079 4.37111,-3.39599c1.81302,-1.07583 4.2046,-0.89502 6,-2c0.80292,-0.49417 1.19155,-1.51493 2,-2c0.90387,-0.54233 2.08854,-0.47053 3,-1c1.536,-0.89228 2.3432,-2.69586 3.72936,-3.80673c0.08893,-0.07128 5.97438,-4.00429 6.19822,-4.14677c0.78665,-0.50074 1.83283,-0.69716 2.39999,-1.43736c0.6411,-0.83671 0.31575,-2.19818 1,-3c2.1101,-2.47265 3.96179,-2.75152 6.67244,-3.60914c0.13718,-0.14557 0.2808,-0.2918 0.42987,-0.43872c0.69055,-1.68514 1.43662,-3.36442 1.84747,-3.88402zM294.08189,207.17422c0.15791,-0.72371 0.35362,-1.43709 0.60841,-2.13091c0.38687,-1.05347 1.60852,-1.68871 1.91697,-2.76775c0.02778,-0.09719 0.05322,-0.19615 0.07656,-0.29674c-0.2994,-0.09259 -0.55174,-0.24402 -0.71193,-0.51703c-0.18217,-0.31048 -0.32539,-0.62318 -0.43497,-0.93729c-0.09641,0.18929 -0.19349,0.3805 -0.29114,0.57389c-0.9502,1.8819 -1.04809,4.11896 -2,6c-0.3537,0.69892 -0.83088,1.31749 -1.34999,1.90937c0.78102,-0.5979 1.49122,-1.2056 2.18608,-1.83354zM278,248.50001c1.99323,0.00655 3.86685,0.23939 5.76826,-0.6755c0.85203,-0.40996 3.05829,-4.07239 3.15162,-4.21125c0.42939,-0.63889 0.79327,-1.26849 1.10788,-1.89642c-1.50349,0.37322 -3.13111,0.50295 -4.6273,0.75089c-0.25174,0.04172 -0.50268,0.08657 -0.75287,0.13431c-0.18791,0.22618 -0.3631,0.46239 -0.52096,0.7123c-0.72452,1.14695 -0.58213,2.89637 -1.66485,3.71377c-0.99897,0.75418 -2.55593,-0.04896 -3.73731,0.36462c-0.59899,0.2097 -1.07135,0.66123 -1.55763,1.08961c0.93887,-0.08772 1.88914,0.01456 2.83317,0.01766zM299.20419,175.17966c-0.45171,0.5886 -0.90453,1.08603 -1.35429,1.49966c0.08427,0.0368 0.16607,0.07487 0.24545,0.11415c0.46909,-0.1256 0.93697,-0.25743 1.40466,-0.39042v-0.40303c0,-0.55917 0.18358,-1.07546 0.49376,-1.49189c-0.21005,-0.03595 -0.41774,-0.07702 -0.62184,-0.12199c-0.04191,0.41232 -0.09658,0.70082 -0.16773,0.79353zM270.97483,185.64961c-0.60204,0.16214 -1.22116,0.28904 -1.78091,0.55002c-0.07332,0.1338 -0.15852,0.26017 -0.25419,0.37768l-2.82621,3.53276c1.35141,-1.49067 2.7823,-2.89015 4.34796,-4.08057c0.16858,-0.12817 0.33974,-0.25482 0.51335,-0.37989zM251.2741,206.38507c0.45894,-0.37192 0.90365,-0.74611 1.33671,-1.12375c-0.13235,-0.00648 -0.26468,-0.01231 -0.39698,-0.01732c-0.27275,0.22691 -0.54974,0.45443 -0.83017,0.6823c-0.0379,0.15255 -0.07344,0.3065 -0.10957,0.45878zM279.59807,127.40973c-1.70955,-0.49512 -3.44975,-0.781 -5.18289,-0.77833c-0.54684,0.94778 -1.26231,1.71181 -2.04351,2.44194c1.44306,-0.75941 2.88234,-1.67106 4.45905,-1.56759c0.59387,0.03897 1.24386,0.09828 1.89923,0.19948c0.2756,-0.05052 0.54962,-0.10367 0.82004,-0.16405c0.01291,-0.00289 0.02583,-0.00577 0.03874,-0.00868c0.00297,-0.04117 0.00608,-0.08209 0.00935,-0.12278zM255.04329,159.69031c1.26189,-0.53919 2.63033,-0.80864 3.94687,-1.20325c-0.20191,-0.27245 -0.34975,-0.58738 -0.42763,-0.92894c-1.00837,0.59448 -2.09535,0.91406 -3.20018,0.61966c-0.11094,0.50437 -0.2257,1.01523 -0.34604,1.52407c0.00899,-0.00385 0.01798,-0.0077 0.02698,-0.01154zM288.23224,158.23224v0c0.34937,-0.34937 0.80167,-0.59582 1.3075,-0.68995c0.21301,-1.62696 0.51895,-3.24018 0.8048,-4.85634c-0.08067,-0.06479 -0.16202,-0.12904 -0.24369,-0.19301c-0.29219,0.47751 -0.57681,0.95855 -0.79115,1.46378c-0.86703,2.04371 -1.32013,3.69205 -2.07349,5.27155zM247.39273,198.27555c0.04623,0.13935 0.08006,0.28073 0.10415,0.42371c0.39736,-0.39182 0.80533,-0.77743 1.22305,-1.15785c-0.13076,-0.03603 -0.25995,-0.07988 -0.38727,-0.13212c-0.40232,-0.16507 -0.74103,-0.40849 -1.03534,-0.70661l-0.06509,0.06509l-0.41882,-0.41882c-0.03039,0.18223 -0.05292,0.36755 -0.07299,0.55383c0.263,0.44029 0.49326,0.89334 0.65231,1.37277zM296.52465,152.58305c-0.25383,-1.28023 -0.52157,-2.55761 -0.75934,-3.84687c-0.13369,0.27047 -0.24868,0.5482 -0.33218,0.83821c-0.1193,0.41434 -0.08989,0.8467 -0.03767,1.28289c0.28548,0.24514 0.53867,0.51461 0.73118,0.8284c0.17226,0.28079 0.29634,0.58381 0.39802,0.89737zM253.1594,113.20674c-0.11093,0.41669 -0.24406,0.87019 -0.38976,1.34045c0.26307,-0.1958 0.52529,-0.39175 0.78644,-0.58803l0.06847,-0.02234l-0.01129,-0.01693l1.6633,-1.10887c-0.12725,-0.12113 -0.24174,-0.25554 -0.34127,-0.401c-0.10388,0.02175 -0.1995,0.0465 -0.26712,0.06788c-0.53263,0.16839 -1.0127,0.46894 -1.50877,0.72885zM249.49793,174.34447c-0.00197,-0.75611 -0.00252,-1.51222 -0.00235,-2.26834c-0.05229,0.66177 -0.45498,1.36592 -0.18588,1.96717c0.049,0.10949 0.11308,0.209 0.18823,0.30117zM286.0336,132.6234c-0.07368,-0.19278 -0.14764,-0.38523 -0.21587,-0.578c-0.45652,-0.06534 -0.92063,-0.09515 -1.38771,-0.09665c0.13577,0.41613 0.30927,0.70706 0.52669,0.74156c0.35566,0.05644 0.71607,-0.00045 1.07689,-0.06691zM280.76305,223.23636c0.32378,-0.08553 0.63723,-0.19361 0.92262,-0.36298c0.71691,-0.42547 1.07865,-1.28561 1.72936,-1.80673c0.58009,-0.46456 1.28085,-0.77174 1.91854,-1.15677c0.47503,-0.48281 0.97314,-0.96577 1.48593,-1.437c0.20157,-0.32253 0.37862,-0.66624 0.56318,-1.00233c-0.29895,0.04665 -0.62457,0.06202 -0.96004,0.06761c-1.60906,1.7863 -3.65805,3.49532 -5.45328,5.07823c-0.07368,0.20528 -0.14264,0.41192 -0.20631,0.61999zM274.49557,183.22114c-0.19212,0.19526 -0.38366,0.39189 -0.57792,0.58471c0.33581,-0.18277 0.67651,-0.35976 1.02134,-0.53063c-0.14961,-0.02892 -0.29781,-0.05017 -0.44341,-0.05408zM248.38936,208.40756c-0.04756,-0.00313 -0.09516,-0.00683 -0.14279,-0.0111c-0.15801,0.12144 -0.31619,0.24271 -0.47445,0.36377c0.20698,-0.11574 0.4129,-0.23304 0.61724,-0.35266zM258.11777,125.50641c0.11217,-0.03735 0.2236,-0.07633 0.33407,-0.11745c0.07753,-0.17515 0.15476,-0.35118 0.23197,-0.52786c-0.19277,0.21116 -0.38109,0.42661 -0.56604,0.64531zM240.32916,131.89497c-0.82484,1.26722 -1.41069,2.67768 -2.01946,4.06174c-0.14003,0.31835 -0.49904,1.25461 -0.78472,2.24157c0.00933,1.03158 0.01335,2.06308 -0.00698,3.09419c0.02063,0.02459 0.04174,0.04883 0.0633,0.07276c0.01997,-0.07632 0.04346,-0.15122 0.07029,-0.22451l1.0119,-2.97905l0.21034,0.07145l-0.00188,-0.52833c0.61862,-0.70414 1.21096,-1.40441 1.78336,-2.10424c0.43009,-1.70247 0.80699,-3.40595 0.84208,-5.28005c-0.41143,0.49005 -0.80222,1.01218 -1.16822,1.57447zM237.42562,127.43313c-0.08079,-0.02631 -0.16085,-0.05492 -0.24015,-0.08571c0.00933,0.24715 0.01973,0.49448 0.03089,0.7418c0.15344,-0.19945 0.3092,-0.39702 0.4672,-0.59279c-0.08612,-0.0145 -0.1721,-0.03535 -0.25794,-0.0633zM242.58375,105.64168c0.71819,-3.38509 -1.05461,1.20025 -1.6504,1.9433c-0.0657,0.08193 -0.14067,0.15618 -0.22177,0.22526c0.00108,1.01308 -0.03757,2.00572 -0.15103,2.94088c0.78265,-0.73068 1.66436,-1.27558 2.58198,-1.24309c-0.12519,-1.28441 -0.29811,-2.57257 -0.55879,-3.86635zM263.63698,142.56529c0.32713,-0.59651 0.68311,-1.16981 1.15467,-1.65283c1.24228,-1.27246 2.99786,-1.92384 4.39587,-3.02292c0.61539,-0.4838 1.29616,-1.10411 2.01281,-1.7732c-0.03536,-0.26694 -0.05557,-0.53609 -0.06081,-0.80591c-0.69836,0.32039 -1.39693,0.64032 -2.09513,0.96098c-0.6463,0.29683 -1.34197,0.51161 -2.04489,0.71229c-0.30023,0.97008 -0.58827,1.84939 -0.87288,2.33064c-0.46418,0.78487 -1.53922,1.10389 -1.95112,1.91741c-0.21776,0.43008 -0.39209,0.8765 -0.53852,1.33354zM280.02631,135.36028c-0.5617,0.6137 -1.18014,1.18445 -1.83585,1.72631c0.93543,0.20447 2.02266,0.24925 2.89735,0.39511l2.92588,0.01835c0.40896,0.0022 0.79467,0.10259 1.13477,0.27879c0.15485,-0.13583 0.31047,-0.26987 0.46717,-0.40156c-1.99467,-0.01252 -3.75529,0.05601 -5.30436,-2.31172c-0.10023,0.09894 -0.19569,0.19718 -0.28496,0.29471zM273.54717,140.38135c-1.73668,1.15588 -3.44217,2.32293 -4.84917,3.69418c1.78232,-1.10799 3.64034,-2.28639 5.51258,-3.21636c-0.23498,-0.14874 -0.45607,-0.3084 -0.66341,-0.47781zM279.90162,170.75422c0.82871,-0.41506 1.72421,-0.60875 2.58525,-0.86788c-0.21948,-1.96594 -0.00532,-3.59927 0.57725,-5.08078c-1.41116,2.00018 -2.41814,4.23235 -3.74084,6.24213c0.19227,-0.09882 0.38505,-0.19666 0.57833,-0.29347zM292.56688,144.42563c0.20054,-0.69648 -0.02247,-1.44446 -0.06332,-2.17524c-0.29104,0.32853 -0.58552,0.65434 -0.8836,0.97699c0.20121,0.61596 0.52203,1.20336 0.71618,1.8213c0.0906,-0.20236 0.16922,-0.40938 0.23074,-0.62306zM247.43312,184.42563c0.15473,0.73279 0.43931,1.43061 0.70181,2.13392c0.06871,-0.69878 0.2446,-1.4182 0.48869,-2.13579l-0.05565,-0.01113l0.02617,-0.13087c-0.56125,-0.51335 -1.06874,-1.13195 -1.49801,-1.73129c0.09106,0.61414 0.20246,1.23808 0.33698,1.87517zM254.5,183.00001h-0.13657l0.11784,0.30546c-0.00555,0.0216 -0.01103,0.04322 -0.01646,0.06486c1.36744,-0.97264 3.17222,-2.12419 4.62998,-2.99752c-0.69488,0.10842 -1.39236,0.16647 -2.09479,0.12719c-0.79126,-0.04424 -1.6739,0.09442 -2.5,0.09227zM260.90162,238.75422c2.77343,-1.3819 4.84854,-3.1458 7.54774,-4.41322c-0.02565,-0.47943 -0.03844,-0.95604 0.01972,-1.41709c-1.72328,0.98804 -3.50909,1.91168 -4.88412,3.00945c-0.78456,0.62636 -1.80622,1.85613 -2.76558,2.86057c0.02756,-0.0129 0.05497,-0.02614 0.08223,-0.03972zM264.46178,208.02812c-1.02285,0.73639 -1.69088,1.89068 -2.63907,2.71445c0.15736,-0.05515 0.31646,-0.10406 0.47833,-0.14286c0.98269,-0.23552 2.22647,0.21582 3.00034,-0.43401c0.70864,-0.59505 0.11253,-1.97816 0.71186,-2.68318c0.42196,-0.49637 0.92518,-0.89067 1.47693,-1.22466c-1.06586,0.52099 -2.08932,1.09418 -3.02839,1.77025zM244.31433,218.12664c-0.58316,0.37909 -0.93739,1.03648 -1.42127,1.53668c1.15282,0.148 2.30319,0.29436 3.38247,-0.05603c1.43098,-0.46457 2.57612,-1.42561 3.64871,-2.53751c-1.9697,0.15583 -3.93051,-0.03486 -5.60992,1.05686zM307,179.50001c-0.17407,0 -0.34399,-0.01779 -0.50803,-0.05165c0.00552,0.08438 0.01055,0.16874 0.01494,0.25308c0.05342,0.27015 0.05426,0.54309 0.01848,0.8178c-0.00239,0.19416 -0.01034,0.38814 -0.02545,0.58188c0.24167,-0.52355 0.45966,-1.05715 0.6438,-1.60518c-0.04757,0.00269 -0.09549,0.00406 -0.14373,0.00406zM302.11187,211.66692c-0.26745,1.14572 -0.3325,2.35923 -0.85452,3.40752c-0.42496,0.85336 -1.0986,1.55363 -1.73848,2.27466l-0.14715,0.44148c-0.21497,0.63155 -0.39461,1.20316 -0.56767,1.73521c2.7341,-3.17519 4.01632,-7.68496 5.82888,-11.30994c0.11727,-0.23453 0.2365,-0.46817 0.35717,-0.70116c-0.01893,0.02336 -0.03785,0.04678 -0.05674,0.07029c-1.03368,1.28643 -1.95729,2.66005 -2.82149,4.08194zM258.53823,206.97191c0.85539,-0.61184 1.45966,-1.52033 2.18768,-2.28235c-0.37796,0.21804 -0.76725,0.40151 -1.17413,0.53035c-0.75016,0.84544 -1.51902,1.67276 -2.31687,2.47204c0.45585,-0.20395 0.89826,-0.43031 1.30332,-0.72004zM263.102,202.97756c1.09713,-0.62938 2.25568,-1.17291 3.43228,-1.6906c-0.78258,0.18827 -1.54327,0.42321 -2.21994,0.83967c-0.41273,0.25402 -0.81398,0.54684 -1.21233,0.85093zM271.26941,199.19459c0.83213,-0.4039 1.64308,-0.83665 2.41626,-1.3212c0.39226,-0.24582 0.76615,-0.51843 1.1319,-0.80288c-0.90996,0.26833 -1.76488,0.6017 -2.50324,1.05612c-0.4233,0.26052 -0.73021,0.66949 -1.04492,1.06795zM257.48953,167.14617l-0.11782,1.64441c-0.62639,1.87542 -1.45091,4.1893 -1.87355,6.11349c-0.0764,0.34786 -0.36743,0.93648 -0.03639,1.06784c0.49851,0.19781 1.0049,-0.41523 1.53823,-0.47189c1.88358,-0.20012 3.73113,-0.65632 5.59954,-0.96772c0.9864,-0.1644 2.00829,0.12848 3,0c1.61156,-0.20878 2.69268,-1.82284 4.08613,-2.6589c0.90388,-0.54233 2.08853,-0.47053 3,-1c2.44972,-1.42306 2.92837,-3.7328 4.06854,-5.97176c1.50554,-2.95643 2.33959,-3.51396 4.47803,-5.66939c2.35163,-2.21611 2.18673,-4.25403 3.45806,-7.18894c0.10071,-0.23248 0.19358,-0.48059 0.28423,-0.73614c-0.83481,0.35812 -1.87272,0.34426 -2.6602,0.81947c-0.80722,0.48712 -1.19155,1.51493 -2,2c-0.90388,0.54233 -2.08074,0.48417 -3,1c-1.11784,0.62726 -2.96549,3.95987 -3.38097,4.45835c-0.77889,0.93447 -1.58886,1.89459 -2.61903,2.54165c-0.82596,0.5188 -2.03302,0.25357 -2.79684,0.86014c-1.03816,0.82443 -1.14482,2.63935 -2.33784,3.21742c-1.46449,0.70961 -3.26342,0.04528 -4.87419,0.27708c-1.27444,0.1834 -2.54325,0.45027 -3.81593,0.66489zM246.77039,178.9115c0.02303,-0.24099 0.02342,-0.47746 -0.01703,-0.7049c0.00343,0.23463 0.00905,0.46952 0.01703,0.7049z" fill="url(#color-1)" stroke="url(#color-2)" stroke-width="0.5"/><text transform="translate(166,90) scale(0.5,0.5)" font-size="40" xml:space="preserve" fill="#ffffff" fill-rule="nonzero" stroke="none" stroke-width="1" stroke-linecap="butt" stroke-linejoin="miter" stroke-miterlimit="10" stroke-dasharray="" stroke-dashoffset="0" font-family="Handwriting" font-weight="normal" text-anchor="start" style="mix-blend-mode: normal"><tspan x="0" dy="0">LIGHT SHADOW</tspan></text><text transform="translate(197,138.34375) scale(0.5,0.30769)" font-size="40" xml:space="preserve" fill="#000000" fill-rule="nonzero" stroke="none" stroke-width="1" stroke-linecap="butt" stroke-linejoin="miter" stroke-miterlimit="10" stroke-dasharray="" stroke-dashoffset="0" font-family="Handwriting" font-weight="normal" text-anchor="start" style="mix-blend-mode: normal"><tspan x="0" dy="0">A</tspan><tspan x="0" dy="46.15px">C</tspan><tspan x="0" dy="46.15px">O</tspan><tspan x="0" dy="46.15px">U</tspan><tspan x="0" dy="46.15px">S</tspan><tspan x="0" dy="46.15px">T</tspan><tspan x="0" dy="46.15px">I</tspan><tspan x="0" dy="46.15px">C</tspan></text></g></g></svg>