<svg version="1.1" xmlns="http://www.w3.org/2000/svg" xmlns:xlink="http://www.w3.org/1999/xlink" width="115.19816" height="105.51619" viewBox="0,0,115.19816,105.51619"><g transform="translate(-183.07868,-124.73381)"><g data-paper-data="{&quot;isPaintingLayer&quot;:true}" fill-rule="nonzero" stroke="none" stroke-linecap="butt" stroke-linejoin="miter" stroke-miterlimit="10" stroke-dasharray="" stroke-dashoffset="0" style="mix-blend-mode: normal"><path d="M295.75,177.75c0,28.99495 -24.96013,52.5 -55.75,52.5c-30.78987,0 -55.75,-23.50505 -55.75,-52.5c0,-28.99495 24.96013,-52.5 55.75,-52.5c30.78987,0 55.75,23.50505 55.75,52.5z" fill="#0052ff" stroke-width="0"/><path d="M276.40345,215.91953c-0.35023,0.258 -0.73064,0.51519 -1.12757,0.75993c0.06715,0.15336 0.10441,0.32278 0.10441,0.50091c0,0.49901 -0.2924,0.92971 -0.7152,1.13014l-1.17578,0.58789l-0.01787,-0.03574l-0.06279,0.07256c-0.73946,0.22337 -1.82844,1.13846 -2.84573,1.74976c-0.19693,0.28805 -0.51125,0.48949 -0.87405,0.53543l-1.3818,0.1974l-0.00928,-0.06492c-0.05584,0.02583 -0.11167,0.05165 -0.1675,0.07748l-0.16488,-0.09584l-0.0119,0.08328l-1.3818,-0.1974c-0.12433,-0.01574 -0.24296,-0.04975 -0.35313,-0.09924c-0.00043,0.0428 -0.00049,0.08573 -0.00018,0.12875c-5.96227,0.65242 -12.16443,-0.22214 -19.0881,-0.26955c-6.76247,-0.04631 -13.84564,0.36438 -19.97744,-2.7815c-0.2877,-0.1476 -0.61873,-0.22507 -0.97072,-0.26929c-1.22437,-0.84031 -2.64518,-1.41517 -4.17945,-1.64157c-1.08236,-1.48683 -1.97901,-3.55791 -2.36038,-5.65525c0.40504,-1.03187 0.64352,-2.1474 0.68235,-3.31349c0.44797,-1.0443 0.72322,-2.18024 0.78983,-3.37189c0.66846,-0.47654 1.63088,-0.59821 2.25096,-1.15852c0.00234,-0.00212 -0.35546,-0.8832 -0.62749,-1.62777c-0.11494,-0.26613 -0.20742,-0.54424 -0.27506,-0.83193c-0.01068,-0.04542 -0.02074,-0.09109 -0.03017,-0.13698c1.29352,-1.46662 2.16371,-3.3155 2.41941,-5.35546c0.71503,-0.40882 1.54072,-0.64618 2.42103,-0.65603c0.60319,-0.06329 1.21935,0.00084 1.82251,0.22057c0.58298,3.16884 2.6598,5.81473 5.47323,7.18044c1.50409,2.47436 3.18867,4.7725 4.65648,4.79867c11.40908,0.20334 22.72619,1.26107 34.1049,2c0.74381,0.0483 1.55826,-0.19035 2.37673,-0.4766c1.12343,0.4369 2.34535,0.6766 3.62327,0.6766c0.59141,0 1.17082,-0.05133 1.73403,-0.1498c-0.29171,0.14585 -0.5753,0.30553 -0.84989,0.4782c0.59767,0.02303 1.18679,0.13318 1.71115,0.28575l1.17265,0.39088c0.51078,0.15708 0.88206,0.63267 0.88206,1.19496c0,0.44076 -0.22814,0.82825 -0.57276,1.05082l-1.04904,0.69936c-0.94531,1.09767 -1.99924,2.20605 -3.04734,2.82591c-0.67919,0.40168 -1.42619,1.36969 -2.13489,1.02273c-0.3092,-0.15138 -0.56455,-0.30488 -0.77281,-0.45965z" fill="#ffea00" stroke-width="0.5"/><path d="M195.9303,192.38036c0.03313,-3.3576 -1.23017,-26.88301 4.00737,-32.99508c2.42258,-2.8271 6.23656,-4.12177 8.69291,-6.77547c3.52258,-3.80561 8.841,-7.3838 13.99972,-4.80444c2.57082,1.28541 7.95476,6.41426 7.13777,9.68219c-1.83016,7.32065 -10.84899,10.5336 -12.99591,18.17864c-0.74829,2.66459 -2.43108,6.26373 -2.44186,9.02194c-0.01264,3.23718 -0.02332,8.19515 -0.39756,13.38987c-1.49773,1.74834 -2.40244,4.0197 -2.40244,6.50237c0,0.82304 0.09943,1.62286 0.28693,2.3881c-2.01888,1.82964 -3.28693,4.47268 -3.28693,7.4119c0,1.06895 0.16773,2.09874 0.47829,3.06446c-1.30685,1.53155 -3.04573,2.2502 -4.77327,2.26538c-1.29322,-3.27606 -4.26653,-5.70534 -7.85798,-6.22591c-0.72147,-0.81888 -1.17914,-1.87578 -1.24008,-3.03776c-0.00463,-0.08813 -0.00696,-0.17688 -0.00696,-0.26617c-0.27443,-7.05919 0.74014,-11.73138 0.8,-17.8z" fill="#ffea00" stroke-width="0.5"/><path d="M192.36612,209.38389l-0.9086,-0.9172c-2.03771,-1.35847 -4.42337,-4.19692 -5.36237,-6.48833c-0.39542,-0.96495 -0.1897,-2.09768 -0.531,-3.08307c-0.60799,-1.8274 -1.53564,-3.80099 -2.0307,-5.60809c-1.00331,-3.66236 -0.03344,-8.99276 -0.03344,-12.78719c0,-2.78695 -0.38284,-5.94536 0.01614,-8.70023c0.36356,-2.5103 1.51607,-4.70613 1.48386,-7.29977c0,-1.33226 -0.38058,-3.75784 0.09515,-4.97835c0.52256,-1.34066 1.55764,-1.05769 1.95849,-2.38388c1.72893,-5.72003 6.87808,-11.58725 11.31248,-16.02165c0,0 0.88388,-0.88388 1.76777,0c0.88388,0.88388 0,1.76777 0,1.76777c-3.70386,3.70386 -6.17025,7.4531 -8.82057,11.77328c-0.45981,0.74953 -1.61981,0.99059 -1.90846,1.82119c-0.1515,0.43592 0.19726,0.94945 0.04151,1.38388c-0.3733,1.04125 -1.61342,1.59618 -2.04151,2.61612c-0.34278,0.81669 0.09515,3.10642 0.09515,4.02165c-0.02603,2.74217 -1.14446,5.05265 -1.51614,7.70023c-0.36843,2.6244 0.01614,5.64567 0.01614,8.29977c0,2.66666 0,5.33334 0,8c0,1.16252 -0.36669,3.10495 -0.03344,4.21281c0.53108,1.76554 1.37043,3.59889 1.9693,5.39191c1.06232,3.28591 1.96811,6.33625 5.10663,8.42861l0.91647,0.90925c0.00089,-7.29148 0.0694,-14.58451 0.08352,-21.87382c0.01096,-5.66171 -1.0317,-12.46158 1.03379,-17.74869c0.32404,-0.93578 0.15712,-1.9952 0.47737,-2.93229c0.58548,-1.71317 2.27021,-3.07485 3.07347,-4.68696c1.05013,-2.10757 2.96043,-4.90548 4.86416,-6.44419c1.09977,-0.8889 2.76104,-1.51397 3.96625,-2.4733c2.32669,-1.852 4.55295,-4.21419 7.3972,-5.21918c0,0 1.18586,-0.39529 1.58114,0.79057c0.39529,1.18586 -0.79057,1.58114 -0.79057,1.58114c-2.4972,0.7613 -4.57946,3.1546 -6.6028,4.78082c-1.23121,0.98956 -2.9081,1.63811 -4.03375,2.5267c-2.30364,1.8185 -3.64357,4.82227 -5.21867,7.19999c-0.59713,0.90141 -1.51266,1.63952 -1.8437,2.66886c-0.31758,0.98749 -0.20306,2.08086 -0.52263,3.06771c-2.00598,4.88046 -0.87105,11.62548 -0.88126,16.89364c-0.01668,8.61405 0.02106,17.23049 -0.01384,25.84524c1.11261,1.71527 2.65349,0.81143 4.60525,2.69729c0.49769,0.48089 1.63511,3.10854 2.09447,3.22903c0.97634,0.25609 1.91965,0.69278 2.85014,1.21651l0.48565,-1.45694c0.33345,-0.94372 1.12687,-1.66738 1.531,-2.58307c0.37713,-0.85452 -0.25801,-1.88786 -0.06344,-2.80141c0.67696,-3.17849 2.95553,-6.14475 3.48443,-9.42047c1.12347,-6.95811 1.14459,-13.69974 3.5,-20.5c-0.09207,-7.41432 3.27049,-13.60417 8.34998,-18.68365c1.89196,-1.89196 3.43249,-3.8988 5.9886,-4.80197c0,0 1.18586,-0.39529 1.58114,0.79057c0.39529,1.18586 -0.79057,1.58114 -0.79057,1.58114c-2.07826,0.63359 -3.48532,2.67194 -5.0114,4.19803c-1.6199,1.6199 -3.63677,3.32978 -4.82057,5.27328c-1.95543,3.21035 -2.79476,8.38787 -2.82945,12.04307c-0.82495,2.55169 -1.86682,5.18639 -2.31695,7.83202c-0.70929,4.16887 -0.46784,8.48775 -1.18305,12.66798c-0.57023,3.33289 -2.8266,6.35834 -3.51557,9.57953c-0.22305,1.04282 0.31177,2.20037 -0.06344,3.19859c-0.3317,0.8825 -1.19406,1.51513 -1.469,2.41693l-0.5,1.5c0,0 -0.07772,0.23316 -0.26763,0.45825c2.53592,1.65412 5.09,3.43362 8.08177,3.39647h0.5c0,0 1.25,0 1.25,1.25c0,1.25 -1.25,1.25 -1.25,1.25h-0.5c-3.95119,-0.03751 -6.78089,-2.46275 -10.04919,-4.1271c-0.92864,-0.4729 -1.45225,-1.60522 -2.42916,-1.96804c-0.46872,-0.17408 -1.05021,0.21837 -1.5,0c-1.90405,-0.92438 -1.64589,-3.83647 -3.5,-4.5c-0.38428,-0.13752 -0.82179,0.15968 -1.22188,0.07901c-2.57103,-0.51843 -3.2153,-2.07546 -3.98562,-4.33857c0,0 -0.25301,-0.75902 0.25305,-1.26498c-0.76661,0.43805 -1.45108,-0.24642 -1.45108,-0.24642z" fill="#000102" stroke-width="0.5"/><path d="M215.13389,145.88389c-0.88388,0.88388 -1.76777,0 -1.76777,0l-0.0114,-0.19803c-1.58807,-0.55006 -2.68355,-0.18259 -4.30495,-0.452c-3.01537,-0.50102 -5.70243,-2.52232 -8.79977,-2.48386c0,0 -1.25,0 -1.25,-1.25c0,-1.25 1.25,-1.25 1.25,-1.25c3.32141,0.03153 6.00165,1.98092 9.20023,2.51614c1.69044,0.28286 2.98114,-0.0061 4.69505,0.548l0.9886,0.80197c0,0 0.88388,0.88388 0,1.76777z" fill="#000000" stroke-width="0.5"/><path d="M271.24641,220.09648l0.5078,-0.49699c3.14889,-3.90001 9.55266,-5.33772 11.60497,-9.7693c-7.46464,-0.00341 -14.88967,-0.06369 -22.3175,-0.60298c-3.38473,-0.24574 -6.6577,0.22985 -10.01388,-0.43401c-4.09932,-1.2298 -8.51578,-1.12768 -12.43013,-3.082c-2.5109,-1.25362 -4.70282,-3.19779 -6.85797,-4.96262c-2.44841,-2.00498 -5.06638,-3.82699 -4.84976,-7.12327c0,0 0.15505,-1.24035 1.39539,-1.0853c1.24034,0.15505 1.08531,1.39539 1.08531,1.39539c-0.46014,1.85349 2.49207,3.68475 3.95024,4.87673c1.99515,1.63092 4.02022,3.47443 6.34203,4.63738c3.74158,1.87408 8.03896,1.73873 11.96988,2.918c3.18335,0.64506 6.36488,0.13945 9.58611,0.36599c7.62754,0.53642 15.24346,0.59686 22.91139,0.59686h0.4c0,0 0.97915,0 1.20425,0.86661c0.64126,0.47418 0.39765,1.32679 0.39765,1.32679c-1.76288,6.16544 -8.6956,6.92198 -12.42582,11.63746l-0.69221,0.70302c0,0 -0.18743,0.18743 -0.47597,0.30336c-0.36343,0.46276 -1.00791,0.46275 -1.00791,0.46275h-1.2c-7.49619,0 -14.99244,0.00934 -22.48861,-0.00314c-9.27904,-1.32557 -19.56589,-1.72704 -27.60476,-7.00679c0,0 -1.04006,-0.69338 -0.34669,-1.73344c0.69338,-1.04006 1.73344,-0.34669 1.73344,-0.34669c7.51062,5.10164 17.65676,5.34485 26.39523,6.59321c7.43709,-0.01367 14.87429,-0.00315 22.31139,-0.00315h0.88494c0.01943,-0.02214 0.03118,-0.03388 0.03118,-0.03388z" fill="#000000" stroke-width="0.5"/><path d="M282.41413,141.33125c0.71609,0.36833 1.33173,0.90446 1.79496,1.55645c0.90294,0.77394 1.12176,1.80936 0.92118,2.87588c0.00002,0.00559 0.00003,0.01119 0.00003,0.01678c0,0.28349 -0.0236,0.56148 -0.06892,0.8321c0.39295,0.12815 0.79837,0.22476 1.21827,0.28694c-0.35249,2.47987 0.24536,5.00317 1.57393,7.06692c-0.28158,2.96007 -0.81174,5.86723 -0.92327,9.02786c-0.08854,2.50911 -0.07986,4.63796 -0.04552,6.48966c-1.82466,1.81162 -2.95448,4.32213 -2.95448,7.09653c0,0.07971 0.00093,0.15921 0.00279,0.23848c0.01409,0.60177 0.08133,1.19039 0.19721,1.76135c0.19637,1.87443 -1.19064,3.89921 -1.0623,5.7592c0.03215,0.46589 0.16688,0.92133 0.3698,1.36187c-0.5405,0.72132 -1.16073,1.48745 -1.87196,2.31465c-2.16454,2.51744 -3.52806,4.18502 -7.03553,4.96446c-2.53666,0.5637 -6.45418,-0.40455 -9.15445,-0.4c-3.46487,0.00583 -3.79965,-0.01293 -6.50737,-2.35189c-0.00043,-0.00037 -0.00088,-0.00072 -0.00136,-0.00105c-0.63894,0.46446 -1.39213,0.7813 -2.20945,0.90042c-0.23746,0.0346 -0.48032,0.05253 -0.72737,0.05253c-1.91295,0 -3.57498,-1.07426 -4.41574,-2.65242c1.14402,-1.62603 1.81574,-3.60836 1.81574,-5.74758c0,-0.28622 -0.01203,-0.56964 -0.0356,-0.84976c0.09681,-0.06017 0.19583,-0.11712 0.2969,-0.1707c1.00944,-1.39959 1.90573,-2.81778 1.9387,-4.39092c0.19354,-9.2366 -2.3602,-20.10964 -5.13082,-28.91189c-0.77433,-2.46001 -2.54969,-4.674 -4.48412,-6.82108c0.00706,-0.02199 0.01207,-0.04059 0.01494,-0.05565c0.17086,-0.89612 -0.35728,-1.79736 -0.67729,-2.65165c-1.06892,-2.85359 -2.54904,-4.57801 -4.42533,-5.88354c-0.8645,-1.11121 -1.95837,-2.03514 -3.21052,-2.7007c-0.10626,-0.69341 -0.0025,-1.42405 0.441,-2.20017c3.71621,-6.50335 18.0614,0.25941 23.56563,1.80556c2.66136,0.74758 5.03122,1.51517 7.25157,2.40374c0.79829,1.82616 2.65589,3.73298 4.14463,5.12611c3.21303,-0.57181 7.73744,1.78066 9.39413,3.85153z" fill="#ffea00" stroke-width="0.5"/><path d="M285.1303,147.53036c1.25,0 1.25,1.25 1.25,1.25l-0.01256,0.62322c0.20153,1.4509 0.91074,2.52931 1.18703,3.92544c0.65925,3.3313 0.02553,7.45206 0.02553,10.85133c0,6.04251 -1.7661,12.44776 -3.23629,18.29903c-0.85936,3.42019 -2.74807,6.38394 -3.60103,9.80414c0,0 -0.30317,1.21268 -1.51585,0.90951c-1.21268,-0.30317 -0.90951,-1.51584 -0.90951,-1.51584c0.85796,-3.42391 2.7502,-6.38158 3.59897,-9.79586c1.40776,-5.66289 3.16371,-11.85936 3.16371,-17.70097c0,-3.20776 0.66091,-7.21612 0.02553,-10.34867c-0.28366,-1.39846 -0.99684,-2.59662 -1.21296,-4.07456l-0.01256,-0.97678c0,0 0,-1.25 1.25,-1.25z" fill="#000102" stroke-width="0.5"/><path d="M234.7303,128.03036h-0.6c-4.2921,-0.0103 -8.07829,1.38546 -12.2625,1.95358c-3.96771,1.73246 -8.71793,3.44054 -12.20661,6.01048c-1.10922,0.8171 -2.06906,1.88517 -3.25719,2.63887c-2.09328,1.32789 -3.41275,1.70521 -4.83363,3.84045c0,0 -0.69337,1.04006 -1.73344,0.34669c-1.04006,-0.69338 -0.34669,-1.73344 -0.34669,-1.73344c1.61026,-2.41128 3.2306,-3.06763 5.56637,-4.55954c5.31462,-3.39458 10.22601,-6.45247 16.13619,-8.95066c4.3992,-0.65556 8.42251,-2.03688 12.9375,-2.04642h0.6c0,0 0.08765,0 0.21653,0.02321c0.28873,-0.94478 1.33851,-0.81355 1.33851,-0.81355c4.55713,0.57693 9.31562,0.12649 13.84518,0.80649c4.10346,0.61603 8.33905,1.97168 12.27813,3.27901c6.08124,3.05919 11.9685,6.55373 17.62429,10.32102c2.57428,1.71472 4.58275,3.24302 6.01539,6.07481c4.40419,8.85701 11.5539,16.41127 11.52882,26.8704c0.99994,6.99958 1.49647,14.02274 -2.56572,20.11602l-0.5631,1.13161c0,0 -0.55902,1.11803 -1.67705,0.55901c-1.11804,-0.55901 -0.55901,-1.67705 -0.55901,-1.67705l0.63689,-1.26839c3.77443,-5.66165 3.16453,-12.1723 2.23429,-18.68398c-0.02119,-10.03272 -6.98632,-17.41338 -11.27118,-25.9296c-1.20827,-2.45167 -2.97823,-3.65305 -5.18462,-5.1252c-5.50252,-3.6714 -11.23571,-7.13417 -17.1757,-10.07897c-3.75655,-1.25967 -7.81354,-2.50155 -11.72187,-3.12099c-4.47761,-0.70967 -9.23605,-0.23522 -13.75482,-0.79351c0,0 -0.0198,-0.00248 -0.05409,-0.0093c-0.24794,0.81896 -1.19086,0.81896 -1.19086,0.81896z" fill="#000102" stroke-width="0.5"/><path d="M235.21226,126.22135c0.55901,-1.11804 1.67705,-0.55902 1.67705,-0.55902l0.81707,0.53717c7.57876,9.47344 14.73661,20.13284 16.67357,32.34185c0.53163,6.90747 1.55952,14.22667 0.79426,21.16218c-0.37151,3.36694 -1.59238,6.67266 -2.65806,9.87211c0,0 -0.39529,1.18586 -1.58114,0.79057c-1.18586,-0.39529 -0.79057,-1.58114 -0.79057,-1.58114c3.33787,-10.00566 2.54954,-19.58593 1.75271,-29.95097c-1.87572,-11.72519 -8.8659,-21.97657 -16.14294,-31.07287l0.01707,0.13716c0,0 -1.11803,-0.55901 -0.55902,-1.67705z" fill="#000102" stroke-width="0.5"/><path d="M218.75,227.5c-1.25,0 -1.25,-1.25 -1.25,-1.25v-0.5c0.05132,-5.40624 0.76619,-11.52372 2.51614,-16.70023c0,-2.5739 1.16406,-4.46016 1.49322,-6.9525c0.98023,-7.42208 7.72781,-16.27975 15.8772,-17.04681c-0.54936,-1.69262 -0.8839,-3.57056 -1.79966,-5.05801c-1.0869,-0.10371 -1.0869,-1.24246 -1.0869,-1.24246v-0.5c0.0297,-2.39173 -1.21007,-3.94177 -1.94321,-6.14625c-1.81858,-5.46831 -2.63775,-11.31063 -4.42969,-16.80456c-1.10778,-1.66166 -1.69091,-4.41523 -3.53427,-5.48588c-2.42258,-1.40706 -5.56394,-1.25165 -8.08691,-2.08875c-0.77361,-0.25668 -1.30438,-1.0513 -2.0896,-1.26991c-0.76001,-0.2116 -1.5845,0.13295 -2.36657,0.02921c-1.51695,-0.20122 -4.19866,-1.33169 -5.45693,-2.17055c-0.53561,-0.35707 -0.73682,-1.1385 -1.32119,-1.40846c-1.07957,-0.49873 -4.30138,0.09515 -5.52165,0.09515c0,0 -1.25,0 -1.25,-1.25c0,-1.25 1.25,-1.25 1.25,-1.25c1.68472,0 4.94222,-0.52811 6.47835,0.09515c2.10414,0.85371 3.60609,3.11553 6.22188,3.42099c0.87194,0.10182 1.78713,-0.20408 2.63343,0.02921c0.821,0.22631 1.39034,1.03209 2.19787,1.30256c2.69702,0.9033 6.05301,0.76362 8.62563,2.33877c2.36698,1.44925 3.03654,4.37033 4.46573,6.51412c1.88958,5.58047 2.69107,11.53288 4.55089,17.09835c0.78181,2.33956 1.89669,3.99703 2.05712,6.43972c0.17158,0.13111 0.26909,0.26112 0.26909,0.26112c1.99864,2.6983 1.62923,4.45132 2.65485,7.27165c0.7261,1.99668 5.01796,2.29 6.69463,2.7782c1.07764,0.31378 1.95541,1.1272 3.01275,1.50379c1.85957,0.66232 4.75644,-0.29333 6.76094,-0.04755c2.25331,0.27629 4.5657,0.84316 6.72192,1.54249c3.68951,0.94049 7.85693,0.45142 11.6549,0.45142c5.12138,0 10.61159,0.5639 15.6329,-0.44902l1.47629,-0.48832c0,0 1.18734,-0.39082 1.57815,0.79652c0.39081,1.18733 -0.79652,1.57815 -0.79652,1.57815l-1.6208,0.5311c-5.26286,1.04484 -10.9069,0.53157 -16.27001,0.53157c-4.07682,0 -8.37768,0.42721 -12.3451,-0.54858c-2.01396,-0.65687 -4.17264,-1.19278 -6.27808,-1.45751c-2.2591,-0.28405 -5.06404,0.64317 -7.23906,-0.04755c-1.06143,-0.33707 -1.91472,-1.19634 -2.98725,-1.49621c-1.70316,-0.47619 -4.20616,-0.81063 -5.76639,-1.6124c-0.67825,-0.34854 -1.19347,-0.8201 -1.60155,-1.37425c-0.16405,0.0365 -0.28258,0.0365 -0.28258,0.0365c-2.0995,-0.06876 -4.04257,1.10582 -5.80662,2.29006c-6.36989,4.27624 -9.95952,12.07889 -9.95952,19.66017c-1.64854,5.01208 -2.54879,11.07057 -2.48386,16.29977v0.5c0,0 0,1.25 -1.25,1.25z" fill="#000102" stroke-width="0.5"/></g></g></svg>