<svg version="1.1" xmlns="http://www.w3.org/2000/svg" xmlns:xlink="http://www.w3.org/1999/xlink" width="43.16923" height="40.9635" viewBox="0,0,43.16923,40.9635"><g transform="translate(-218.41539,-159.51825)"><g data-paper-data="{&quot;isPaintingLayer&quot;:true}" fill-rule="nonzero" stroke="#000000" stroke-linecap="butt" stroke-linejoin="miter" stroke-miterlimit="10" stroke-dasharray="" stroke-dashoffset="0" style="mix-blend-mode: normal"><path d="M261.58461,180c0,6.27525 -2.97405,11.89136 -7.65762,15.64843c-1.13272,0.32502 -2.1147,1.0065 -2.81677,1.91525c-3.24559,1.85259 -7.04678,2.91807 -11.11023,2.91807c-4.15707,0 -8.03966,-1.11514 -11.33368,-3.04737c-0.75405,-1.56066 -2.22835,-2.70819 -3.99136,-3.01106c-3.86936,-3.70167 -6.25958,-8.79763 -6.25958,-14.42332c0,-5.12669 1.985,-9.81345 5.26549,-13.406c1.16877,-0.49336 2.13007,-1.38167 2.71669,-2.4977c3.71229,-2.86245 8.44623,-4.57805 13.60244,-4.57805c6.26972,0 11.91508,2.53659 15.85852,6.58726c0.37043,1.55717 1.40728,2.85606 2.79253,3.57865c1.86492,3.02947 2.93356,6.55424 2.93356,10.31584z" fill="#62d100" stroke-width="0"/><path d="M227.35092,167.7925c0.25363,0.42135 0.50253,2.51012 0.63678,2.95342c0.91515,3.02194 1.35661,5.88614 1.35661,9.11747c0,2.59706 0.1409,5.22785 -0.28204,7.75966c-0.1427,0.85424 -0.00269,2.08365 -0.3164,2.88421c-0.49914,1.27376 -2.19903,2.72625 -2.13379,4.11017c0,0 0,0.2511 -0.15225,0.44881c-0.37775,-0.21685 -0.78386,-0.38987 -1.21141,-0.51211c0.08546,-1.74745 1.60303,-3.03594 2.23532,-4.56967c0.27202,-0.65985 0.10693,-1.83989 0.23005,-2.58025c0.40833,-2.45549 0.2644,-5.0188 0.2644,-7.54083c0,-3.09658 -0.41279,-5.8265 -1.29745,-8.71983c-0.20978,-0.68609 -0.47095,-1.36124 -0.60015,-2.06695c-0.03859,-0.21079 0.17566,-0.45547 0.06587,-0.6395c-0.12538,-0.21018 -0.45447,-0.19397 -0.65049,-0.34051c-0.56299,-0.42091 -1.08412,-1.03746 -1.55779,-1.61917c0.44519,-0.21582 0.85667,-0.49029 1.2244,-0.81337c0.78004,0.70205 1.81179,1.50286 2.18835,2.12844z" fill="#ffffff" stroke-width="0.5"/><path d="M256.01814,167.92746c-0.43319,1.36917 -1.23466,2.75742 -1.88,4.03934c-0.27925,0.55471 -0.86555,0.94502 -1.05274,1.53717c-0.37452,1.18472 -0.56895,2.77485 -1.15224,3.96372c-0.10193,0.20776 -0.41576,0.25984 -0.50978,0.4713c-0.33474,0.75285 0.05199,2.73218 0.05199,3.56373c0,5.21172 0,10.42345 0,15.63517c-0.25943,0.273 -0.49095,0.57279 -0.68996,0.89479c-0.67616,-0.00459 -0.67616,-0.68303 -0.67616,-0.68303c0,-5.28231 0,-10.56462 0,-15.84693c0,-1.11526 -0.34397,-3.02499 0.05199,-4.08652c0.09929,-0.26618 0.45393,-0.36856 0.58311,-0.62159c0.55686,-1.09073 0.6569,-2.60149 1.03354,-3.68652c0.19827,-0.57119 0.85888,-1.18902 1.13304,-1.7415c0.66596,-1.34202 1.45119,-2.73802 1.94512,-4.15735l0.64449,-0.67034c0,0 0.17353,-0.17353 0.41658,-0.20855c0.12133,0.42774 0.29345,0.83412 0.50942,1.21222z" fill="#ffffff" stroke-width="0.5"/></g></g></svg>