<svg version="1.1" xmlns="http://www.w3.org/2000/svg" xmlns:xlink="http://www.w3.org/1999/xlink" width="106.25" height="42.29691" viewBox="0,0,106.25,42.29691"><g transform="translate(-164.125,-168.70309)"><g data-paper-data="{&quot;isPaintingLayer&quot;:true}" fill-rule="nonzero" stroke-linejoin="miter" stroke-miterlimit="10" stroke-dasharray="" stroke-dashoffset="0" style="mix-blend-mode: normal"><path d="M177.25,187.875c0.04742,0.0843 0.08534,0.18584 0.11603,0.29957c0.32594,0.66399 0.50897,1.41084 0.50897,2.20043c0,0.09816 -0.00283,0.19565 -0.00841,0.29241c0.04734,-0.00775 0.10162,-0.03333 0.16402,-0.07935c1.09925,-0.81061 1.98245,-2.01322 3.26992,-2.46912c2.66033,-0.94205 10.48935,4.45947 14.13585,4.50606c9.78895,0.12506 19.07312,-0.11538 28.68861,-0.5c5.78447,-0.23138 11.33446,-2.16755 17.25,-2c6.06024,0.17164 12.45379,-0.29068 18.5,0c2.4003,0.1154 5.57168,2.75592 5,5.5c-3.09725,14.86679 -27.30359,10.78681 -37.74555,10.75c-3.94363,-0.0139 -7.36422,0.23371 -11.00445,0.25c-10.19913,0.04565 -21.55983,3.75161 -30.58114,-1.00658c-5.18163,-2.733 -14.25064,-5.07809 -16.65587,-10.88484c-0.51889,-1.2527 -2.06888,-5.89807 -0.32207,-6.89625c0.86976,-1.47371 2.47396,-2.46233 4.30908,-2.46233c1.62714,0 3.07275,0.77725 3.98581,1.98072c0.14902,0.15393 0.28022,0.32556 0.38919,0.51928z" fill="#753714" stroke="none" stroke-width="0.5" stroke-linecap="butt"/><path d="M227.42838,210c-12.30946,0 -24.61891,0 -36.92837,0c-4.57111,-0.0434 -6.6862,-1.58408 -10.86737,-3.15528c-5.47878,-2.05882 -9.759,-2.54362 -13.25926,-8.03038c-4.09092,-6.41264 -0.46528,-16.21278 4.35886,-21.0821c2.31241,-2.33406 6.11521,-5.07514 9.36731,-5.69996c0.87632,-0.16836 1.82996,0.35872 2.676,0.07499c1.01576,-0.34063 1.66259,-1.38457 2.62608,-1.85306c3.34572,-1.62682 6.52846,-1.25421 10.09838,-1.25421c13.66666,0 27.33334,0 41,0c3.61202,0 7.83145,-0.56073 11.40045,0.03228c2.07968,0.34555 3.9224,1.64217 6,2c1.16937,0.2014 2.45016,-0.27158 3.55625,0.15802c0.87885,0.34134 1.12462,1.64985 2,2c0.92847,0.37139 2.08382,-0.40077 3,0c1.15742,0.50629 1.87403,1.69463 2.81106,2.54193c5.13218,5.33795 5.913,16.57459 -0.18279,21.70112c-0.91981,0.77355 -2.05968,1.25152 -3,2c-1.25009,0.99505 -3.31613,3.80641 -4.62826,4.37634c-0.98854,0.42938 -2.20891,-0.25517 -3.23225,0.08303c-1.01724,0.33618 -1.66861,1.37239 -2.62608,1.85306c-4.01187,2.01407 -8.44762,2.53703 -12.69792,3.22193c-3.41588,0.55044 -5.78319,1.99794 -9.40045,2.03228c0,0 -1.35721,0 -2.07163,-1zM233.69665,205.28657c1.37164,-0.43663 2.71695,-0.96511 4.4029,-1.25429c3.79808,-0.65143 7.68111,-0.97477 11.30208,-2.77807c1.19324,-0.59426 2.11033,-1.72231 3.37392,-2.14694c0.87492,-0.29402 1.8959,0.38602 2.76775,0.08303c1.55847,-0.54161 2.08573,-2.59005 3.37174,-3.62366c1.4307,-1.1499 3.61361,-1.64436 4.40947,-3.29839c1.8306,-3.80451 1.44597,-10.13736 -1.59226,-13.00049c-0.39632,-0.48603 -0.59668,-1.25191 -1.18894,-1.45807c-0.94443,-0.32873 -2.07153,0.37139 -3,0c-0.87538,-0.35015 -1.12905,-1.63898 -2,-2c-0.75407,-0.31257 -1.63781,0.2876 -2.44375,0.15802c-2.08145,-0.33467 -3.92073,-1.65207 -6,-2c-2.16971,-0.36307 -4.39967,0.03228 -6.59955,0.03228c-8.16674,0 -16.33347,0 -24.50021,0c-2.19037,-0.6001 -4.4511,-0.67386 -6.17193,0c-4.77595,0 -9.55191,0 -14.32785,0c-2.62723,0 -5.46612,-0.5093 -7.90162,0.74579c-1.18494,0.61064 -2.1087,1.72722 -3.37392,2.14694c-1.05192,0.34895 -2.22578,-0.07398 -3.324,0.07499c-2.03213,0.27567 -5.26709,2.95004 -6.63269,4.30004c-5.33381,5.2729 -6.59715,14.80349 0.54657,19.10561c1.93917,1.16781 4.43299,0.98844 6.55303,1.78191c3.81345,1.42725 5.12032,2.89454 9.13263,2.84472c13,0 26,0 39,0h3c0,0 0.58992,0 1.19664,0.28656z" fill="#753714" stroke="none" stroke-width="0.5" stroke-linecap="butt"/><path d="" fill="#ff77e7" stroke="none" stroke-width="0.5" stroke-linecap="butt"/><path d="M218.26777,184.13911c0.16619,-0.26863 0.31186,-0.5453 0.43341,-0.82486c-0.08659,0.32027 -0.22726,0.60917 -0.43341,0.82486z" fill="#ff77e7" stroke="none" stroke-width="0.5" stroke-linecap="butt"/><path d="M206.41315,189.18881c-0.1098,-0.09921 -0.16958,-0.16754 -0.16958,-0.16754c-1.58945,-1.84174 -2.94683,-3.02286 -3.55168,-5.57188c-2.54726,-10.73495 12.65512,-13.50862 19.48913,-9.20612c3.32987,2.09639 5.58371,6.17907 3.98754,10.12654c-0.44825,1.10856 -1.44221,1.91565 -2.27579,2.77296c-0.7631,0.78483 -1.55471,1.5752 -2.49574,2.13443c-2.4754,1.47107 -5.73602,2.5115 -8.52568,3.08563c-0.91545,0.00405 -1.83089,0.00811 -2.74634,0.01217l-1.74029,-0.29855c0,0 -2.41531,-0.48306 -1.97157,-2.88764zM212.37138,184.12769c1.76664,0.02889 7.26315,0.2186 5.91682,-3.11424c-0.73995,-1.83175 -6.57476,-1.65749 -6.71072,0.34671c-0.06527,0.96211 0.39225,1.86062 0.79391,2.76753z" fill="#753714" stroke="none" stroke-width="0.5" stroke-linecap="butt"/><path d="M224.69653,200.94619c-2.32119,-0.92847 -1.39272,-3.24966 -1.39272,-3.24966l0.95266,-1.98244c0.21525,-0.24198 0.43156,-0.48306 0.64893,-0.7232c-3.08013,0.56823 -6.1539,1.2049 -9.24078,1.61728c-6.05158,0.59885 -12.16096,0.54272 -17.91807,-1.64258c-1.98034,-0.7517 -3.97459,-1.74362 -6.00373,-2.64482c0.08569,0.25239 0.13217,0.52289 0.13217,0.80424c0,0.24931 -0.0365,0.49009 -0.10443,0.71731l0.59417,-0.24097c-0.05115,0.55511 -0.09731,1.22097 -0.16789,1.93524l0.17816,0.08842c0,0 0,0.67544 -0.35109,1.32415c-0.51128,3.3726 -1.89481,6.91826 -6.81754,4.98436c-1.40019,-0.55006 -0.54002,-2.95994 -0.82838,-4.43641c-0.24124,-1.23521 -1.14888,-4.92649 -0.9185,-5.76654c0.17577,-0.64092 0.59114,-1.1634 1.05615,-1.66135c-2.49629,-0.27057 -5.1355,0.28898 -7.63698,0.04362c-4.10823,-0.40297 -7.76014,-2.16784 -11.14041,-4.40771c0,0 -1.03838,-0.69226 -1.15874,-1.83221c-0.45451,-0.6956 -0.45451,-1.49792 -0.45451,-1.49792l1,-3.75c14.7476,-11.01063 34.29338,-9.75 51.75,-9.75c8,0 16,0 24,0c3.50941,0 7.67612,-0.55241 11.10088,0.32328c1.90437,0.48694 3.71542,1.71176 5.61149,2.28036c1.27495,0.38234 4.68996,0.67686 5.62056,1.28134c1.51115,0.98158 2.13079,2.36595 2.74789,3.80727c1.42723,0.67147 2.5683,2.52069 3.70144,3.78732l-0.06781,0.57753l0.237,-0.0474l0.48988,2.44938c0.03842,0.17418 0.05867,0.35518 0.05867,0.54091c0,0.97285 -0.55568,1.81591 -1.36696,2.2291c0.92432,1.77629 1.4628,3.64583 0.37015,5.26664c-0.85762,1.27217 -2.93952,0.88808 -4.4343,1.23385c-2.86578,0.6629 -5.65861,0.52042 -8.56889,0.52042c-7.89467,0 -15.69638,0.14187 -23.5438,0.74148c-0.10416,0.00796 -0.2083,0.01628 -0.31242,0.02495c-0.22968,0.60501 -0.62601,1.00134 -0.62601,1.00134c-1.34154,1.34049 -2.63981,2.72523 -3.89924,4.14315l-0.04734,0.51756c0,0 -0.92847,2.32119 -3.24966,1.39272zM206.2382,186.97407l-0.1132,0.15094l1.97979,1.48485c0.42123,0.32311 0.9483,0.51515 1.52021,0.51515c0.27095,0 0.53184,-0.0431 0.77617,-0.12283c0.73399,0.62283 1.72383,0.62283 1.72383,0.62283c1.63484,-0.00091 5.80231,0.08176 7.05929,-0.38461c4.007,-1.48673 5.757,-6.21464 3.98426,-10.11019c-1.84493,-4.05417 -9.35826,-6.83501 -13.50026,-5.0649c-1.18712,0.50733 -1.96687,1.67818 -2.86891,2.60174c-1.69037,1.73068 -3.55173,3.80646 -3.14695,6.57729c0.20215,1.38376 1.43762,2.39915 2.15643,3.59871z" fill="#ff77e7" stroke="none" stroke-width="0.5" stroke-linecap="butt"/><path d="M172.875,181.625l6,-3.25" fill="none" stroke="#ff0000" stroke-width="2.5" stroke-linecap="round"/><path d="M250.375,187.875l-4,-5.25" fill="none" stroke="#10ff00" stroke-width="2.5" stroke-linecap="round"/><path d="M233.125,187.625l3,-6.75" fill="none" stroke="#002dff" stroke-width="2.5" stroke-linecap="round"/><path d="M240.625,174.625l5.75,0.25" fill="none" stroke="#fff500" stroke-width="2.5" stroke-linecap="round"/><path d="M195.875,184.125v-6.5" fill="none" stroke="#00ff6b" stroke-width="2.5" stroke-linecap="round"/><path d="M185.375,182.875l0.5,-5" fill="none" stroke="#bc00ff" stroke-width="2.5" stroke-linecap="round"/><path d="M260.375,181.875l-3.75,-3.25" fill="none" stroke="#bc00ff" stroke-width="2.5" stroke-linecap="round"/><path d="M197.625,172.625h6.25" fill="none" stroke="#ff00af" stroke-width="2.5" stroke-linecap="round"/><path d="M224.875,173.625l2.75,6.5" fill="none" stroke="#1b00ff" stroke-width="2.5" stroke-linecap="round"/></g></g></svg>