<svg version="1.1" xmlns="http://www.w3.org/2000/svg" xmlns:xlink="http://www.w3.org/1999/xlink" width="112.09827" height="77.85788" viewBox="0,0,112.09827,77.85788"><g transform="translate(-173.23189,-135.74328)"><g data-paper-data="{&quot;isPaintingLayer&quot;:true}" fill-rule="nonzero" stroke="none" stroke-width="0.5" stroke-linecap="butt" stroke-linejoin="miter" stroke-miterlimit="10" stroke-dasharray="" stroke-dashoffset="0" style="mix-blend-mode: normal"><path d="M198.75,154.83333v1c0,0 0,0.56999 -0.3849,0.94017c0.33807,0.87113 -0.50506,1.43322 -0.50506,1.43322l-0.94338,0.6266c-2.53901,1.89302 -5.44422,3.13744 -8.12065,4.74667c-3.18453,1.91474 -5.46356,3.83666 -9.29602,3.83666c-1.67821,0 -4.63464,0.32753 -5.94432,-0.76433c-0.55659,-0.46402 -0.20379,-1.43489 -0.30568,-2.15234c0.05101,-8.09446 9.89797,-10.21818 16.14965,-12.50569c0.94968,-0.34749 1.65448,-1.17915 2.56313,-1.62298c1.59133,-0.77728 3.99751,-0.86609 5.69377,-1.10876c0,0 1.23744,-0.17678 1.41421,1.06066c0.07333,0.5133 -0.09668,0.8441 -0.32077,1.05547c0,1.15155 0,2.30309 0,3.45464z" fill="#f3f300"/><path d="M203.52851,169.68994c-1.52395,-0.43521 -5.48746,-1.49545 -6.30473,-2.20979c-5.45221,-4.76555 -3.97501,-13.99152 -1.91371,-19.95164c3.38941,-3.38941 4.70341,-9.44759 9.75488,-11.49306c0.82675,-0.33477 6.06301,-0.29552 7.43506,-0.28545c2.22775,0.01634 4.40849,0.65163 6.60068,1.04842c1.26009,0.22808 2.65906,-0.27136 3.83438,0.23703c3.20737,1.38736 5.43388,5.52759 7.46497,8.08709c0.68823,0.86727 1.74823,1.44036 2.28991,2.40597c2.23839,3.99024 1.8478,9.2885 1.64045,14.02498c3.64863,-0.17302 7.37219,-0.31895 10.7703,0.24494c2.07974,0.34512 3.92086,1.65123 6,2c1.92561,0.32302 3.92461,-0.2964 5.8575,-0.02033c2.44939,0.34984 4.70224,1.6116 7.1425,2.02033c1.14663,0.19205 2.38701,-0.26681 3.48601,0.11248c2.96707,1.02403 3.96338,2.90406 6.56088,4.22041c1.15521,0.58543 2.62577,0.56911 3.62866,1.38853c0.43159,0.35264 4.6983,6.50941 5.09246,7.33258c2.04884,4.27884 1.38132,9.05827 1.38132,13.64757c0,0.48308 0,0.96616 0,1.44924c2.48647,2.6176 -0.09835,5.20241 -0.09835,5.20241c-4.21686,4.16901 -8.74105,7.18908 -14.00408,9.71703c-1.99188,0.95674 -3.15123,3.29958 -5.21251,4.09587c-3.2119,1.24078 -9.01199,0.28545 -12.43506,0.28545c-3.99767,0 -8.0032,0.07953 -12,0c-1.69608,-0.03375 -3.44778,0.27704 -5.08669,-0.1609c-1.16111,-0.31027 -1.86293,-1.61076 -3,-2c-0.79363,-0.27167 -1.68802,0.2588 -2.51399,0.11248c-2.9138,-0.51615 -5.48209,-2.05679 -8.07637,-3.34748c-2.25825,-1.13546 -4.72194,-1.83091 -6.97052,-2.98542c-4.18596,-2.14924 -8.81306,-6.32791 -12.00408,-9.71703c-0.9764,-1.03701 -2.27831,-1.89637 -2.8129,-3.21659c-0.33477,-0.82675 -0.29552,-6.06301 -0.28545,-7.43506c0.02644,-3.60368 0.63758,-7.78905 2.56006,-10.97149c0.1475,-0.24418 1.28439,-1.41459 2.39496,-2.5356z" fill="#ffff00"/><path d="M261.6014,208.14534c-0.03624,0.02937 -0.07321,0.0576 -0.1109,0.08464c-0.16538,0.11862 -0.35038,0.20534 -0.55,0.26502c-1.51508,0.72363 -2.25608,0.48223 -2.4875,-0.17964c-0.83629,-0.25116 -1.63148,-0.61885 -2.17376,-0.89775c-0.0384,-0.00061 -0.07594,-0.00093 -0.11257,-0.00093c-3.01881,0 -8.25577,0.87558 -11.79457,0.00117c-0.40184,-0.00073 -0.80365,-0.00117 -1.20543,-0.00117c0,0 -1.33333,0 -1.33333,0c-0.43699,0 -0.82161,-0.22424 -1.04506,-0.56392c-1.56367,0.12347 -3.57257,0.19013 -4.77434,-0.11211c-0.78788,-0.19815 -1.94089,-0.18056 -2.25247,-0.93085c-0.32998,-0.79458 0.21019,-1.66862 0.50835,-2.52056c-0.33159,-0.14536 -0.68649,-0.45651 -0.68649,-1.12256c0,-1.25 1.25,-1.25 1.25,-1.25c8.13333,0 17.48553,-1.25478 25.45651,0.33942c0.40339,-0.00203 0.80677,-0.00406 1.21016,-0.00608h1.33333c0.32345,0 0.61821,0.12285 0.84015,0.32444c0.0692,-0.07614 0.13591,-0.14684 0.1998,-0.21104l0.95132,-1.26842c0.22746,-0.31022 0.59457,-0.51164 1.00873,-0.51164c0.69036,0 1.25,0.55964 1.25,1.25c0,0.28595 -0.09602,0.54948 -0.25758,0.7601l-0.99242,1.32323l-0.1974,-0.14805l0.14172,0.21705c-0.19841,0.19925 -0.41274,0.43533 -0.63932,0.69336c-0.96608,1.85541 -2.22062,3.70331 -3.50407,4.44733c-0.01099,0.00637 -0.02194,0.0127 -0.03287,0.01899z" fill-opacity="0.56452" fill="#000000"/><path d="M233.25,199.5c0,-1.25 1.25,-1.25 1.25,-1.25h0.33333c3.063,0.0632 6.42639,1.21948 9.48606,2.00937c5.00269,-0.03969 10.09322,0.26648 15.02788,-0.33333c0.83794,-0.10185 1.71602,0.23937 2.5322,0.02407c3.92324,-1.03488 5.90933,-3.04703 5.06764,-7.17587c-0.22692,-0.90769 -0.17116,-1.90476 -0.58014,-2.74626c-1.52324,-3.13414 -5.86324,-4.12004 -8.67866,-5.37312c-5.08173,-2.26177 -9.87314,-4.81829 -15.43346,-5.92912c0,0 -1.22573,-0.24515 -0.98058,-1.47087c0.24515,-1.22573 1.47087,-0.98058 1.47087,-0.98058c4.11126,0.82313 7.31572,2.65462 11.16053,4.04338c4.72459,1.70654 12.22599,3.74569 14.72735,8.65437c0.50545,0.9919 0.48318,2.17372 0.75319,3.25374c1.06443,5.40909 -1.65448,8.89039 -6.93236,10.15746c-5.64187,1.35446 -12.62541,0.39405 -18.43992,0.35741c-2.84577,-0.69293 -6.37114,-2.08044 -9.1806,-1.99063h-0.33333c0,0 -1.25,0 -1.25,-1.25z" fill="#f3f300"/><path d="M208.5,150.66667c-2.5,0 -2.5,-2.5 -2.5,-2.5c0,-0.88889 0,-4.44444 0,-5.33333c0,0 0,-2.5 2.5,-2.5c2.5,0 2.5,2.5 2.5,2.5c0,0.88889 0,1.77778 0,2.66667v2.66667c0,0 0,2.5 -2.5,2.5z" fill="#000000"/></g></g></svg>