<svg version="1.1" xmlns="http://www.w3.org/2000/svg" xmlns:xlink="http://www.w3.org/1999/xlink" width="46.08393" height="65.3647" viewBox="0,0,46.08393,65.3647"><g transform="translate(-272.36732,-83.52197)"><g data-paper-data="{&quot;isPaintingLayer&quot;:true}" fill-rule="nonzero" stroke="none" stroke-width="0.5" stroke-linecap="butt" stroke-linejoin="miter" stroke-miterlimit="10" stroke-dasharray="" stroke-dashoffset="0" style="mix-blend-mode: normal"><g><path d="M283.875,114.375c0.1309,-1.40298 -0.31279,-3.14528 0.64637,-4.17751c0.98979,-1.06519 2.79132,-0.85231 4.2291,-1.06938c2.51433,-0.37961 5.57289,-0.06481 8.12453,-0.0031c1.10984,0.02684 2.31456,-0.31338 3.32752,0.14093c1.48568,0.66632 2.87008,1.7284 3.80806,3.05934c1.50711,2.1385 0.86442,6.33388 0.86442,8.79973v2.29121c2.15408,0.75492 4.01316,1.97693 5.30069,3.77887c1.79023,2.50548 1.93631,6.49394 1.94931,9.42992c0,3.83669 0.13486,9.15728 -3.96472,11.39431c-1.90801,1.04115 -5.37769,0.85305 -7.53528,0.85569c-6.41665,0.00786 -12.83335,0 -19.25,0l-1.74029,-0.29855c0,0 -2.36688,-0.47337 -1.98411,-2.81554c-0.7756,-0.74021 -0.7756,-1.88591 -0.7756,-1.88591c0,-7.28399 1.72738,-13.3296 7.76619,-17.48324c-0.72381,-3.9639 -1.14476,-7.95945 -0.76619,-12.01676z" fill="#171717"/><path d="M302.62769,114.00593c-2.01941,0.22541 -3.9604,0.67973 -6.04649,0.86055c-4.28788,0.37166 -9.03047,0.21618 -13.33074,0.00541c-1.50298,-0.07366 -5.9577,-0.55341 -6.83474,-1.42251c-1.69515,-1.67981 -1.46966,-5.30341 -1.76617,-7.47486c-0.74886,-5.48423 -2.25206,-11.05992 -2.27455,-16.59952c0.16476,-1.33078 -0.34985,-2.95042 0.49427,-3.99233c1.88843,-2.33093 6.70779,-1.75039 9.00573,-1.75767c7.34535,-0.02327 14.73217,-0.22037 22.07343,0.00108c2.65244,0.08001 9.60655,-0.45355 11.86293,1.20274c3.95756,2.90503 2.38455,7.46211 2.05147,11.29252c-0.47512,5.46388 0.5126,15.45264 -5.92649,17.86834c-1.26822,0.47579 -2.70756,0.09021 -4.06134,0.13532c-0.91667,0 -1.83333,0 -2.75,0h-1.75c0,0 -0.32848,0 -0.74731,-0.11907z" fill="#000000"/></g></g></g></svg>