<svg version="1.1" xmlns="http://www.w3.org/2000/svg" xmlns:xlink="http://www.w3.org/1999/xlink" width="83.5" height="49.95183" viewBox="0,0,83.5,49.95183"><g transform="translate(-198.1656,-155.40039)"><g data-paper-data="{&quot;isPaintingLayer&quot;:true}" fill-rule="nonzero" stroke-linecap="butt" stroke-linejoin="miter" stroke-miterlimit="10" stroke-dasharray="" stroke-dashoffset="0" style="mix-blend-mode: normal"><path d="M198.4156,176.65039v-20.25h83v20.25z" fill-opacity="0.24194" fill="#000000" stroke="none" stroke-width="0"/><path d="M199.4156,202.56706v-45.91667h81v45.91667z" fill="#541f00" stroke="#391500" stroke-width="2.5"/><path d="M249.58227,160.31706c0,-0.10299 0.00849,-0.19749 0.02406,-0.28421c-6.46302,-2.33944 -14.9658,-0.96579 -21.77406,-0.96579c-4.54878,0 -8.3911,0.93146 -12.76362,1.72745c-5.81448,1.05849 -9.63658,1.9804 -12.86658,7.32801c-1.79413,4.52733 -1.9041,10.85415 1.76407,14.56066c1.01355,1.02415 2.16396,1.07807 3.45294,1.43012c2.80985,0.76742 5.27895,1.90216 8.15833,2.47804c3.40482,0.69969 7.27314,0.21765 10.75485,0.22573c5.79555,0.01344 11.66627,0.25 17.5,0.25c9.24765,0 20.10105,0.41454 27.11612,-6.63388c1.56295,-1.55643 3.39006,-2.62313 5.37367,-3.50725c0.98617,-0.43954 1.36605,0.01753 2.12633,-0.74275c0.74771,-0.74771 0.63606,-1.92454 0.63388,-2.86612c-0.00182,-0.78519 0.31245,-1.60981 0.06415,-2.35472c-1.08377,-3.25132 -7.39659,-5.02291 -10.20943,-5.95943c-3.07786,-1.06608 -6.78581,-0.86871 -9.80546,-2.01995c-2.58977,-0.98735 -4.2065,-1.4159 -7.04925,-1.4159h-1.25c0,0 -1.25,0 -1.25,-1.25zM251.85095,159.06706h0.23132c3.07319,0 5.1592,0.39936 7.95075,1.5841c1.11744,0.47424 2.66446,0.15969 3.85057,0.45276c1.96356,0.48516 3.93894,0.9114 5.84397,1.52729c3.716,1.24004 10.38259,3.31664 11.79057,7.54057c0.08288,0.24863 0.06483,2.82395 0.06415,3.14528c-0.00355,1.67705 -0.0741,3.34187 -1.36612,4.63388c-2.02847,2.02847 -5.34483,2.08458 -7.5,4.25c-7.58407,7.55239 -18.89144,7.36612 -28.88388,7.36612c-5.43531,0 -10.98513,0.29685 -16.37317,-0.25608c-4.09328,-0.42006 -8.31087,0.52567 -12.37197,-0.26819c-3.7739,-0.75478 -10.09548,-1.81736 -12.88874,-4.59184c-4.47538,-4.44529 -4.43909,-11.97523 -2.23593,-17.43934c3.62172,-6.07143 8.02965,-7.47297 14.63342,-8.67199c4.51739,-0.82021 8.53328,-1.77255 13.23638,-1.77255c7.35708,0 16.34257,-1.40926 23.21424,1.3394c0,0 0.84664,0.33866 0.80444,1.1606z" fill="#000000" stroke="none" stroke-width="0.5"/><path d="M250.86667,161.53078l1.25195,0.00195c2.84275,0 4.4675,0.43982 7.05727,1.42717c3.01965,1.15124 6.73148,0.96377 9.80933,2.02985c2.81284,0.93652 9.12736,2.71884 10.21114,5.97016c0.2483,0.7449 -0.06591,1.57254 -0.06409,2.35773c0.00218,0.94158 0.11365,2.12214 -0.63407,2.86985c-0.76028,0.76028 -1.14029,0.30447 -2.12645,0.74401c-1.98362,0.88412 -3.81185,1.95717 -5.3748,3.51359c-7.01506,7.04843 -17.90436,6.67034 -27.15201,6.67034c-5.83373,0 -11.75226,-0.24936 -17.54781,-0.2628c-3.48171,-0.00807 -7.35853,0.4628 -10.76335,-0.23689c-2.87938,-0.57588 -5.35212,-1.71876 -8.16197,-2.48618c-1.28898,-0.35204 -2.44035,-0.40913 -3.45391,-1.43328c-3.66817,-3.70652 -3.55956,-10.05264 -1.76543,-14.57997c3.22999,-5.34761 7.05667,-6.28502 12.87115,-7.34351c4.37252,-0.79599 8.22663,-1.74308 12.77542,-1.74308c6.80826,0 15.374,-1.3765 21.83702,0.96294c-0.01557,0.08672 -0.02368,0.18151 -0.02368,0.2845c0,1.25 1.2543,1.25364 1.2543,1.25364z" data-paper-data="{&quot;noHover&quot;:false,&quot;origItem&quot;:[&quot;Path&quot;,{&quot;applyMatrix&quot;:true,&quot;segments&quot;:[[[251.625,142.125],[0,1.25],[0,-0.10299]],[[251.64906,141.84079],[-0.01557,0.08672],[-6.46302,-2.33944]],[[229.875,140.875],[6.80826,0],[-4.54878,0]],[[217.11138,142.60245],[4.37252,-0.79599],[-5.81448,1.05849]],[[204.24481,149.93045],[3.22999,-5.34761],[-1.79413,4.52733]],[[206.00888,164.49112],[-3.66817,-3.70652],[1.01355,1.02415]],[[209.46182,165.92123],[-1.28898,-0.35204],[2.80985,0.76742]],[[217.62015,168.39927],[-2.87938,-0.57588],[3.40482,0.69969]],[[228.375,168.625],[-3.48171,-0.00807],[5.79555,0.01344]],[[245.875,168.875],[-5.83373,0],[9.24765,0]],[[272.99112,162.24112],[-7.01506,7.04843],[1.56295,-1.55643]],[[278.36479,158.73387],[-1.98362,0.88412],[0.98617,-0.43954]],[[280.49112,157.99112],[-0.76028,0.76028],[0.74771,-0.74771]],[[281.125,155.125],[0.00218,0.94158],[-0.00182,-0.78519]],[[281.18915,152.77028],[0.2483,0.7449],[-1.08377,-3.25132]],[[270.97972,146.81085],[2.81284,0.93652],[-3.07786,-1.06608]],[[261.17425,144.7909],[3.01965,1.15124],[-2.58977,-0.98735]],[[254.125,143.375],[2.84275,0],[0,0]],[252.875,143.375]],&quot;closed&quot;:true}]}" fill="#000000" stroke="none" stroke-width="0.5"/><path d="M203.31322,171.66321c1.27989,-3.18075 6.58607,-6.62279 9.30229,-3.04964c1.77942,2.34079 1.58766,7.98392 -1.27303,9.34463c-2.74265,1.30456 -5.35862,-0.44834 -7.43846,-2.05396c-1.04591,-1.78684 -1.26381,-3.12374 -0.5908,-4.24102zM209.93665,175.80028c0.05794,-0.0208 0.11357,-0.0443 0.16697,-0.07037c-0.0556,0.0254 -0.11129,0.04885 -0.16697,0.07037z" fill="#ffffff" stroke="none" stroke-width="0.5"/><path d="M219.92091,184.93034c-0.0843,0.03918 -0.17905,0.07279 -0.28547,0.09939c-1.21268,0.30317 -1.51585,-0.90951 -1.51585,-0.90951l0.28399,-0.75319c-1.0219,-0.64524 -0.39318,-1.6931 -0.39318,-1.6931c0.69382,-1.12119 1.02283,-2.0666 2.42658,-2.54273c2.83392,-0.96124 6.03119,0.99858 4.84993,4.26952c-0.64454,1.78475 -3.71947,3.57261 -5.36601,1.52962z" fill="#ffffff" stroke="none" stroke-width="0.5"/><path d="M245.30312,186.51881c-0.6156,-0.00831 -1.32346,-0.31919 -2.10473,-1.06786c-2.49782,-2.39359 1.29986,-6.86087 4.08467,-4.91897c2.33748,1.62997 1.22565,4.03638 -0.46779,5.28207c-0.3778,0.40654 -0.84542,0.67367 -1.38903,0.70236c-0.033,0.00935 -0.06595,0.01815 -0.09882,0.02638z" fill="#ffffff" stroke="none" stroke-width="0.5"/><path d="M253.46625,164.11296c0.86602,0.22538 0.86602,1.2041 0.86602,1.2041c0,0.10706 -0.00024,0.22206 -0.0013,0.34358c0.53312,1.92602 -0.12429,4.45481 -1.52777,4.83865c-0.51977,0.29729 -1.21606,0.34457 -2.14877,-0.00773c-3.82477,-1.44466 -2.09285,-9.01841 2.23685,-6.79254c0.21412,0.11008 0.40547,0.24999 0.57496,0.41394z" fill="#ffffff" stroke="none" stroke-width="0.5"/><path d="M226.83072,165.93863c-0.37406,-0.1252 -0.73174,-0.27019 -0.95944,-0.5722c-2.65659,-3.52368 2.198,-5.84831 4.96099,-5.54937c0.7175,0.07763 1.63662,-0.15692 2.13388,0.36612c0.52494,0.55215 0.24002,1.5047 0.36003,2.25706c-0.10673,0.54597 -0.52415,2.90666 -0.80682,3.20408c-1.04661,1.10121 -4.64503,2.21561 -5.68865,0.29432z" fill="#ffffff" stroke="none" stroke-width="0.5"/><path d="M268.96615,170.18318c0.44233,0.44233 0.44194,0.88467 0.33116,1.21622c1.13056,0.94776 2.11441,1.98744 2.03496,3.66766c-0.08507,1.79902 -2.52962,4.42764 -4.62741,3.08114c-0.07887,-0.05062 -0.15867,-0.12358 -0.23807,-0.21561c-1.17904,-0.31351 -1.34676,-2.03871 -1.15111,-3.68915c-0.01879,-0.66627 0.07553,-1.28428 0.33432,-1.72875c0.13354,-0.49397 0.28262,-0.909 0.41822,-1.17851l1.13017,-1.153c0,0 0.88388,-0.88388 1.76777,0z" fill="#ffffff" stroke="none" stroke-width="0.5"/><path d="M219.58227,163.56706c0.47256,0.43463 1.2752,0.67784 1.41768,1.30387c0.59234,2.60283 -2.72252,4.48175 -4.71016,2.91281c-0.54593,-0.43094 -0.4555,-1.31435 -0.68324,-1.97153l-0.02427,-0.49515c0,0 0,-0.67907 0.50052,-1.03618c0.01915,-0.67362 0.57123,-1.21382 1.24948,-1.21382c0.32125,0 0.61418,0.12118 0.8356,0.32032c0.12429,-0.04366 0.25758,-0.06823 0.39633,-0.07019c0.54173,-0.10738 1.01807,0.24987 1.01807,0.24987zM218.38373,165.80138c0.05259,0.01424 0.09847,0.01865 0.12609,0.01362c-0.04263,-0.00243 -0.0847,-0.00701 -0.12609,-0.01362z" fill="#ffffff" stroke="none" stroke-width="0.5"/><path d="M229.83227,180.31706c0.17797,0 0.33059,0.02533 0.46149,0.06879l0.05825,-0.29124c0.10494,-0.58424 0.61583,-1.02756 1.23027,-1.02756c0.69036,0 1.25,0.55964 1.25,1.25v1.25h-0.20953l0.14539,0.39529c-0.01298,0.0173 -0.02589,0.03475 -0.03874,0.05236c0.7204,0.35886 1.13424,0.9126 -0.65189,1.66877c-0.00012,0.04456 0.00143,0.0891 0.00477,0.13359c0,0 0,1.25 -1.25,1.25c-1.25,0 -1.25,-1.25 -1.25,-1.25c0.00547,-0.14028 0.01531,-0.28202 0.03001,-0.42414c-0.1757,-0.12649 -0.35187,-0.24449 -0.53001,-0.32586l-0.5,-1.5c0,0 0,-1.25 1.25,-1.25z" fill="#ffffff" stroke="none" stroke-width="0.5"/><path d="M260.20031,180.00805c0.55901,1.11803 -0.55902,1.67705 -0.55902,1.67705l-0.62169,0.10284c-0.07636,0.17954 -0.21268,0.36065 -0.43733,0.52912c-1,0.75 -1.75,-0.25 -1.75,-0.25l-0.74243,-0.9899c-0.16156,-0.21062 -0.25757,-0.47414 -0.25757,-0.7601c0,-0.69036 0.55964,-1.25 1.25,-1.25c0.28596,0 0.54948,0.09602 0.7601,0.25758l0.9899,0.74242l-0.30901,-0.61803c0,0 1.11804,-0.55901 1.67705,0.55902z" fill="#ffffff" stroke="none" stroke-width="0.5"/><path d="M257.69043,169.82707c0.02332,-0.05104 0.04665,-0.10209 0.06997,-0.15313c0,0 0.64312,-1.07187 1.71499,-0.42874c0.5505,0.3303 0.64863,0.7737 0.61384,1.12689c0.15308,0.75726 -0.56359,1.23504 -0.56359,1.23504l-0.10751,0.07144c-0.20527,0.30342 -0.41054,0.60685 -0.61581,0.91027l-0.52648,-0.0539l0.05157,0.25785l-1.22469,0.24494c-0.08709,0.01921 -0.17759,0.02934 -0.27046,0.02934c-0.69036,0 -1.25,-0.55964 -1.25,-1.25c0,-0.4633 0.25206,-0.86774 0.62653,-1.08365l1.23035,-0.73821z" fill="#ffffff" stroke="none" stroke-width="0.5"/><path d="M217.86969,176.52865c-0.15642,-0.08157 -0.23463,-0.23799 -0.23463,-0.23799c-0.43722,-0.91961 0.10896,-5.36266 1.98957,-3.87922c1.32718,1.04689 1.04028,4.36576 -0.79235,4.40562h-0.5c0,0 -0.34646,0 -0.46258,-0.28841zM218.51552,175.81706h0.31676c1.07062,0.03718 0.34979,-1.79072 0.20765,-2.59438c-0.05597,-0.31648 -0.36455,0.53161 -0.51043,0.81798c-0.29718,0.58338 -0.31279,1.20189 -0.01397,1.7764z" fill="#ffffff" stroke="none" stroke-width="0.5"/><path d="M239.08227,167.56706c0,1.24264 -0.7835,2.25 -1.75,2.25c-0.9665,0 -1.75,-1.00736 -1.75,-2.25c0,-1.24264 0.7835,-2.25 1.75,-2.25c0.9665,0 1.75,1.00736 1.75,2.25z" fill="none" stroke="#ffffff" stroke-width="0.5"/><path d="M251.33227,176.56706c0,0.69036 -0.55964,1.25 -1.25,1.25c-0.69036,0 -1.25,-0.55964 -1.25,-1.25c0,-0.69036 0.55964,-1.25 1.25,-1.25c0.69036,0 1.25,0.55964 1.25,1.25z" fill="none" stroke="#ffffff" stroke-width="0.5"/><path d="M239.08227,177.81706c0,0.69036 -0.44772,1.25 -1,1.25c-0.55228,0 -1,-0.55964 -1,-1.25c0,-0.69036 0.44772,-1.25 1,-1.25c0.55228,0 1,0.55964 1,1.25z" fill="none" stroke="#ffffff" stroke-width="0.5"/><path d="M229.33227,172.81706c0,0 0.45067,0 0.49629,0.42786c0.37441,0.42639 0.57585,1.02612 0.50371,1.82214c-0.12138,1.33938 -1.44919,1.35217 -1.88734,0.37561l-0.04734,0.09956c-0.03481,0.86664 -0.47835,1.79648 -1.0794,2.21567c-0.92208,0.64308 -1.56328,0.13944 -1.74397,-0.61136c-0.02381,0.14107 -0.11816,0.42053 -0.49196,0.42053c-0.5,0 -0.5,-0.5 -0.5,-0.5c0.01478,-0.6793 0.37408,-1.68628 0.92732,-2.41651c-0.23372,-0.02306 -0.43368,-0.08986 -0.57376,-0.22994l0.14645,0.14645c0,0 0,0.5 -0.5,0.5c-0.5,0 -0.5,-0.5 -0.5,-0.5l0.0471,-0.27449c-0.17362,-0.30609 0.09935,-0.57906 0.09935,-0.57906c1.26895,-1.24831 3.69613,-1.71359 5.08139,-0.89414c0.00737,-0.00081 0.01476,-0.00158 0.02216,-0.0023zM227.99983,173.56689c0.01222,0.00309 0.02438,0.00624 0.03648,0.00946c0.00227,-0.00312 0.00454,-0.00623 0.00683,-0.00933c-0.01449,-0.00003 -0.02892,-0.00007 -0.04331,-0.00013z" fill="#ffffff" stroke="none" stroke-width="0.5"/><path d="M237.72872,170.96351c0.80809,-0.80809 5.12353,-1.85786 4.8279,0.26167c-0.03324,0.23832 -0.21352,0.39206 -0.43341,0.52532c1.12351,1.01994 -0.03239,2.4025 -0.86665,2.08245c-0.22981,0.39036 -0.64788,0.18133 -0.64788,0.18133c-0.08527,-0.04652 -0.35179,-0.2379 -0.63708,-0.46161c-1.89738,0.82668 -4.14262,-0.68941 -2.24287,-2.58915zM240.59577,172.68467c-0.00113,-0.00852 -0.00223,-0.01709 -0.0033,-0.02571c-0.00373,0.00202 -0.00746,0.00405 -0.0112,0.00607c0.00485,0.00649 0.00968,0.01304 0.0145,0.01964z" fill="#ffffff" stroke="none" stroke-width="0.5"/><text transform="translate(222.45727,200.1717) scale(0.31397,0.31397)" font-size="40" xml:space="preserve" fill="#000000" fill-rule="nonzero" stroke="none" stroke-width="1" stroke-linecap="butt" stroke-linejoin="miter" stroke-miterlimit="10" stroke-dasharray="" stroke-dashoffset="0" font-family="Handwriting" font-weight="normal" text-anchor="start" style="mix-blend-mode: normal"><tspan x="0" dy="0">Pizza</tspan></text></g></g></svg>