<svg version="1.1" xmlns="http://www.w3.org/2000/svg" xmlns:xlink="http://www.w3.org/1999/xlink" width="83.28343" height="73.00087" viewBox="0,0,83.28343,73.00087"><g transform="translate(-198.35829,-144.99355)"><g data-paper-data="{&quot;isPaintingLayer&quot;:true}" fill-rule="nonzero" stroke-linecap="butt" stroke-linejoin="miter" stroke-miterlimit="10" stroke-dasharray="" stroke-dashoffset="0" style="mix-blend-mode: normal"><path d="M272.14171,181.49442c0,17.94925 -14.32689,32.5 -32,32.5c-17.67311,0 -32,-14.55075 -32,-32.5c0,-17.94925 14.32689,-32.5 32,-32.5c17.67311,0 32,14.55075 32,32.5z" fill="#311200" stroke="#3a1400" stroke-width="8"/><path d="M246.72142,208.63595c-1.04564,1.03844 -2.30329,2.00486 -3.90976,3.22519c-1.13182,0.85978 -1.92942,2.24373 -3.25653,2.75269c-1.21929,0.46761 -7.34809,0.39356 -8.91341,0.3806c-3.76911,-0.03119 -6.07217,0.3125 -9.53554,-2.46447c-0.82238,-0.65939 -0.37703,-2.14969 -1,-3c-0.21001,-0.28665 -0.70166,0.29721 -1.0456,0.20788c-2.15485,-0.55964 -4.26456,-1.29871 -6.33228,-2.12402c-5.97601,-2.38526 -10.97769,-3.59035 -10.02202,-11.42031c0.10559,-0.86507 0.40535,-1.67872 0.77679,-2.47338c-0.09833,-0.02207 -0.19564,-0.0571 -0.29178,-0.10707c-1.64331,-0.85412 -2.36093,-2.90752 -3.12215,-4.59587c-2.36355,-5.24229 -1.66771,-12.39542 -1.42743,-18.02277c0.07008,-1.64121 -0.27081,-3.40538 0.3806,-4.91341c1.07941,-2.49887 5.75599,-6.04703 8.17048,-6.87205c0.24908,-0.08511 6.06052,-0.32954 7.80486,-0.21211c-0.34385,-2.2305 1.1037,-4.81008 2.72051,-6.05864c1.42185,-1.09801 3.55267,-0.54606 5.31264,-0.90633c2.24647,-0.45986 4.54845,-0.59419 6.81,-0.97289c1.03962,-0.17408 1.94669,-1.04075 3,-1c1.39648,0.05403 2.85613,0.09872 4.25014,0.34635c2.09274,-2.67463 7.26018,-5.4684 8.55077,-5.41091c2.67133,0.11899 5.02343,2.13548 6.97353,3.96503c1.07887,1.01218 1.05228,2.76653 1.64587,4.12156c0.84582,1.93081 2.24133,4.06957 1.89582,6.10263c0.46736,-0.1692 0.98707,-0.16575 1.48478,-0.18921c0.99889,-0.04709 2,0 3,0c2.53818,0 8.03943,-0.21866 9.53553,1.46446c0.77196,0.86845 1.97057,8.89462 1.3999,11.33644c-0.1137,0.48649 -0.91505,0.57511 -1.06919,1.05032c-0.07914,0.244 0.51287,-0.16388 0.76241,-0.10449c1.02544,0.24407 2.10789,0.43852 3,1c1.12264,0.70657 1.96892,1.77976 2.90688,2.71772c3.55394,3.55394 4.38063,6.59984 4.46447,11.53554c-0.31459,1.97451 0.31062,4.36659 -0.94379,5.92355c-0.19693,0.24443 -3.33947,2.10278 -6.16434,2.98382c0.0134,0.09883 0.02774,0.19622 0.04357,0.29171c0.36669,2.21225 0.6472,9.89271 -0.31603,11.71433c-1.03701,1.96112 -2.74487,3.66897 -4.70599,4.70598c-3.12587,1.65291 -10.15957,0.27023 -13.11017,-1.12783c-0.85111,-0.40328 -1.35994,-1.40455 -2.25217,-1.70611c-0.74423,-0.25154 -1.5837,0.31393 -2.35199,0.14997c-1.8205,-0.38851 -3.54892,-1.22445 -5.11938,-2.29391z" fill="#00d002" stroke="none" stroke-width="0.5"/><g stroke="none" stroke-width="0.5"><path d="M229.77554,170.10727c5.67715,-1.77245 8.38522,2.58657 8.22446,7.39273c-0.04999,1.49472 0.41703,3.25908 -0.47189,4.46177c-0.5197,0.70314 -4.58379,2.04252 -6.52229,2.67548c-0.02988,5.02721 -0.64817,13.16247 -7.96759,8.89086c-1.59523,-0.93097 -1.98856,-3.83346 -2.28871,-6.45743c-1.035,0.57998 -2.08028,1.14443 -3.15114,1.67511c-1.35046,0.66924 -7.64745,2.53455 -8.56015,1.78232c-3.34716,-2.75868 -0.05501,-8.72254 2.28213,-10.23229c0.19896,-0.12852 1.00683,-0.20328 2.01927,-0.24617c0.26572,-0.94411 0.43532,-1.94329 0.94425,-2.74802c-1.29788,-1.29638 -2.49867,-2.38509 -3.15559,-5.01105c-0.40319,-1.61171 -1.6618,-3.45112 -0.86436,-4.9086c1.42446,-2.60351 9.71713,-3.2983 12.19278,-2.19167c1.99432,0.89148 3.57137,3.27801 4.68136,6.05373c0.64036,-0.40858 1.48476,-0.77688 2.63747,-1.13676zM225.96178,189.4719c0.0235,0.45745 0.07492,-0.91432 0.0705,-1.37235c-0.00374,-0.38816 -0.0096,-0.77629 -0.01538,-1.16442c-0.0026,0.00002 -0.0052,0.00004 -0.00781,0.00006c-0.0285,0.8959 -0.08158,1.86977 -0.04731,2.53671zM213.67174,184.70797c0.0736,-0.02378 0.14727,-0.04628 0.22046,-0.06761c-0.07215,0.01074 -0.14308,0.0312 -0.21256,0.06383c-0.00265,0.00125 -0.00528,0.0025 -0.0079,0.00378z" fill="#d151cd"/><path d="M217.74926,184.0651c-0.07701,0.01185 -0.15994,0.01824 -0.24926,0.01824c-1.25,0 -1.25,-1.25 -1.25,-1.25c0,-1.433 -0.33181,-3.54623 0.60828,-4.78216c1.63873,-2.15444 6.05737,-3.23662 8.19227,-1.10172c1.1829,1.1829 1.03279,2.12071 1.03279,3.55055c0,1.40671 0.15507,2.53891 -1.13451,3.64172c-0.82833,0.70836 -6.23048,1.20825 -6.99937,0.24216c-0.07924,-0.09956 -0.14537,-0.2063 -0.2002,-0.31878z" fill="#ffde00"/><path d="M212.91461,177.64149l-0.25363,-1.04114c-1.47702,-3.0104 -4.75272,-7.16148 -0.94314,-10.40873c0.24286,-0.20702 2.6491,-0.78016 3.14566,-0.9043c3.79585,-0.92426 8.43884,-0.46721 11.70073,1.8653c0.08976,0.06419 2.22384,2.18855 2.28316,2.28316c0.16732,0.26686 -0.09653,0.76886 0.17494,0.92858c0.22721,0.13369 0.40023,-0.38446 0.65829,-0.43833c0.85671,-0.17886 3.88432,-0.25311 4.63108,0.08579c2.90006,1.3161 4.11424,6.72022 4.07154,9.44204c-0.56159,1.17788 -0.77873,2.57025 -1.63004,3.5592c-3.12947,3.6354 -6.83445,2.3564 -10.54038,1.37017c-1.84679,-0.49147 -4.11623,0.45574 -6,0c-2.33623,-0.5652 -4.9148,-3.54669 -7.02259,-4.81136c0,0 -1.07187,-0.64312 -0.42875,-1.71499c0.0488,-0.08132 0.10007,-0.15278 0.15314,-0.21539z" fill-opacity="0.3629" fill="#000000"/></g></g></g></svg>