<svg version="1.1" xmlns="http://www.w3.org/2000/svg" xmlns:xlink="http://www.w3.org/1999/xlink" width="105.00988" height="95.12997" viewBox="0,0,105.00988,95.12997"><g transform="translate(-191.5,-132.37003)"><g data-paper-data="{&quot;isPaintingLayer&quot;:true}" fill-rule="nonzero" stroke-linecap="butt" stroke-linejoin="miter" stroke-miterlimit="10" stroke-dasharray="" stroke-dashoffset="0" style="mix-blend-mode: normal"><path d="M272,180c0,17.94925 -14.32689,32.5 -32,32.5c-17.67311,0 -32,-14.55075 -32,-32.5c0,-17.94925 14.32689,-32.5 32,-32.5c17.67311,0 32,14.55075 32,32.5z" fill="#311200" stroke="#3a1400" stroke-width="8"/><path d="M235.75326,190.12866c-1.28713,1.9307 -1.74923,4.2994 -2.69205,6.41962c-1.52419,3.42762 -4.06676,8.01278 -4.62577,11.75263c-0.32986,2.20679 -0.51394,4.45385 -1.13484,6.59703c-0.30799,1.06311 -0.57176,2.13867 -0.83806,3.21298c-0.48875,1.97168 0.2296,4.74901 -1.427,5.92462c-5.46091,3.87534 -9.77622,1.24678 -12.78879,-2.90688c-1.51593,-2.09013 -2.23611,-4.60528 -2.56456,-7.23901c-1.90833,-2.02259 -0.9256,-4.97078 -0.9256,-4.97078l0.69385,-2.08157c0.0214,-1.15102 0.04956,-2.27227 0.04956,-3.33729c0.0337,-4.14809 -0.322,-5.93988 1.42743,-10.02277c1.01634,-2.37197 3.09381,-4.13211 4.70586,-6.14718c2.15601,-2.69501 4.52082,-7.06997 7.9533,-8.44945c1.26089,-0.50673 2.69893,-0.18085 4.07165,-0.16201l2.01139,-1.34092c0.55878,-0.3844 1.19961,-0.65812 1.89085,-0.78954c0.5676,-4.08813 4.93953,-4.08813 4.93953,-4.08813c4.70828,0.07383 9.15475,-1.34292 14,-1c1.7928,0.12688 3.8259,-0.3459 5.35929,0.59162c3.88605,2.37597 5.28181,7.96175 6.44131,12.01044c1.34562,4.69857 3.35602,9.79332 4.13484,14.59703c0.24559,1.51484 0.31574,3.12118 0.30761,4.75338c0.31678,1.09758 0.56607,2.23442 0.7195,3.43661c0.59974,4.69925 0.03746,9.85746 0.03746,14.61092v1c0,0 0,5 -5,5c-5,0 -5,-5 -5,-5v-1c0,-1.83166 0.09906,-3.73127 0.17489,-5.63793c-1.17489,-1.45811 -1.17489,-3.36207 -1.17489,-3.36207v-1c0,-2.02609 0.22087,-4.29438 0.29282,-6.51253c-0.78215,-2.25394 -1.96689,-4.31835 -2.91222,-6.57406c-0.30549,-0.72893 -0.24389,-1.59731 -0.63385,-2.28476c-1.20682,-2.12745 -3.55804,-3.35834 -5.28228,-5.09312c-1.45362,-1.46249 -3.05927,-3.31496 -5.26537,-3.6001c-1.41708,-0.18316 -2.85332,-0.02043 -4.28514,0.04235c-0.82138,0.91843 -1.9736,1.62023 -2.6607,2.65087z" fill="#00d002" stroke="none" stroke-width="0.5"/><path d="M196.5,190.5c-5,0 -5,-5 -5,-5v-3c0.06367,-3.74811 0.69742,-7.12184 2.25658,-10.58114c0.84354,-1.87154 1.16506,-4.26022 2.81987,-5.47507c1.4999,-1.10113 6.63051,-0.94379 8.92355,-0.94379c0,0 1.94601,0 3.40996,1.21404c0.17031,0.04676 0.3383,0.10168 0.50346,0.16656c1.11739,0.43895 1.72731,1.68407 2.71524,2.36614c0.87104,0.60137 3.89534,0.26376 4.17226,0.31782c0.40727,0.07951 0.78817,0.17834 1.14804,0.29124c-0.03486,-0.87219 0.05105,-1.7364 0.05105,-2.3558c0,-6.33333 0,-12.66667 0,-19c0,-2.68787 -0.80592,-8.66955 0.3806,-10.91342c1.03701,-1.96112 2.67376,-3.81634 4.70598,-4.70598c2.11425,-0.92555 4.60715,-0.29206 6.91342,-0.3806c5.71796,-0.21953 11.93226,0.08189 15.97353,4.96503c1.01855,1.23073 1.22915,2.95059 1.76988,4.45383c1.95732,5.44133 2.27335,13.44509 -0.25184,18.7779c-0.917,1.93656 -3.09842,3.19744 -3.70612,5.25216c-0.11778,0.39824 -0.05436,0.82012 0.02263,1.24369c1.74513,-0.16508 3.12573,-0.27307 5.26836,-1.74883c2.25648,-1.55417 4.37577,-3.38266 6.87527,-4.50499c1.39535,-0.62654 3.02867,-0.75635 4.29583,-1.61301c1.60177,-1.08287 2.53585,-2.97602 4.1238,-4.07905c2.15497,-1.4969 4.93125,-1.85138 7.22261,-3.12978c2.63841,-1.47203 7.23302,-5.04085 10.76049,-4.60439c6.33638,0.784 9.9938,6.03268 13.13713,10.79066c0.48129,1.46528 1.35306,2.85622 1.44386,4.39585c0.45875,7.77823 -1.04393,8.17285 -8.9899,10.71069c-2.87552,0.91841 -5.326,-0.39967 -8.14463,0.02566c-1.04229,0.15728 -1.95859,0.83699 -3,1c-3.81544,0.59724 -7.08916,-0.18333 -10.71399,0.64078c1.41711,0.1381 2.85017,0.28956 4.32548,0.44082c4.18819,0.42939 8.38884,-1.00759 12.21625,1.72971c1.98168,1.41727 3.86017,3.18171 4.99074,5.33984c1.20172,2.29394 0.43918,12.92591 -1.08386,14.44895c-1.57864,1.57864 -4.32887,1.12557 -6.53553,1.46447c-6.38558,0.9807 -13.8961,-0.92176 -18.42853,-5.53905l-2.04323,-0.68108c-2.04312,-0.62835 -3.52824,-2.53068 -3.52824,-4.77988c0,-1.12219 0.36969,-2.15804 0.99393,-2.99239c-0.32864,-0.005 -0.65982,-0.00761 -0.99393,-0.00761c0,0 -5,0 -5,-5c0,-5 5,-5 5,-5c0.68788,0 1.36593,0.00968 2.03675,0.02771c-0.83519,-0.61549 -1.47205,-1.48454 -1.79699,-2.49356c-2.05021,1.46356 -4.016,3.10282 -6.32634,4.08525c-1.32454,0.56323 -2.69721,1.05417 -4.11251,1.31604c-0.27133,0.0502 -3.30348,-0.28199 -4.17226,0.31782c-0.3266,0.22549 -0.61057,0.51604 -0.8852,0.81869c1.39296,0.22384 4.25654,1.14416 4.25654,4.92806c0,0.35179 -0.02475,0.67884 -0.07077,0.98287c2.80968,0.42246 3.81419,3.43599 3.81419,3.43599c0.39431,1.51004 1.74979,2.58938 2.50984,3.95248c0.34286,0.6149 -0.21554,1.5953 0.28228,2.09312c0.49782,0.49782 1.48943,-0.07994 2.09312,0.28228c2.18221,1.30933 5.63373,5.03137 7.23806,7.08331c2.14149,2.73897 3.17986,5.29475 3.67951,8.0482c0.45378,1.11197 0.45378,2.12174 0.45378,2.12174v8c0,2.76142 -2.23858,5 -5,5c-2.76142,0 -5,-2.23858 -5,-5v-8c0,0 0,-0.15897 0.02835,-0.42021c-0.39865,-2.02663 -2.72587,-4.96103 -4.77167,-6.84968c0.25593,2.37896 0.14179,4.70999 -0.63728,6.18331c-2.358,4.45929 -7.45169,7.34264 -12.54295,4.14279c-1.95936,-1.23146 -2.33488,-4.04233 -3.01189,-6.2553c-0.58508,-1.91251 0.33181,-4.02772 0,-6c-0.59661,-3.54624 -2.24577,-7.24505 -2.96747,-10.82033c0,0 -0.25499,-1.27493 0.14523,-2.65456c-1.26472,1.2202 -2.58027,1.99265 -3.76014,1.64709c-1.14073,-0.3341 -2.039,-1.04822 -2.78779,-1.97311c-1.5648,0 -3.1296,0 -4.6944,0c-3.48166,0 -7.36472,0.47331 -10.80091,-0.06456c-1.04141,-0.16301 -1.95469,-0.86417 -3,-1c-1.50404,-0.19543 -3.01997,-0.18334 -4.53965,-0.11484c-0.49335,1.42938 -1.70138,3.1794 -4.65944,3.1794z" fill="#00d002" stroke="none" stroke-width="0.5"/></g></g></svg>