<svg version="1.1" xmlns="http://www.w3.org/2000/svg" xmlns:xlink="http://www.w3.org/1999/xlink" width="82.87513" height="73" viewBox="0,0,82.87513,73"><g transform="translate(-193.12487,-143.5)"><g data-paper-data="{&quot;isPaintingLayer&quot;:true}" fill-rule="nonzero" stroke-linecap="butt" stroke-linejoin="miter" stroke-miterlimit="10" stroke-dasharray="" stroke-dashoffset="0" style="mix-blend-mode: normal"><path d="M272,180c0,17.94925 -14.32689,32.5 -32,32.5c-17.67311,0 -32,-14.55075 -32,-32.5c0,-17.94925 14.32689,-32.5 32,-32.5c17.67311,0 32,14.55075 32,32.5z" fill="#311200" stroke="#3a1400" stroke-width="8"/><path d="M250.5,180.5v4c0,5.36386 2.00308,16.96026 -8.14876,15.86624c-2.15811,-0.23257 -5.45167,-7.43458 -5.78667,-10.06533c-0.06463,-0.50755 0.75981,-0.98598 0.52706,-1.44162c-0.20919,-0.40952 -0.91009,-0.13269 -1.36513,-0.19904c0,0 -1.22164,-0.81443 -1.8996,-2.22262c-0.79943,0.20063 -1.76133,0.18802 -2.90805,-0.19422c-1.21037,-0.40346 -2.00894,-1.01281 -2.52706,-1.69671c-7.13308,0.18904 -14.83046,0.79129 -21.47294,-1.30329l-3,-1c0,0 -4.74342,-1.58114 -3.16228,-6.32456c1.58114,-4.74342 6.32456,-3.16228 6.32456,-3.16228l3,1c5.72113,2.08245 13.75203,0.93073 20.05513,0.76282c1.07099,-1.46594 2.06224,-2.46476 2.4283,-4.82032c0.66607,-4.2861 1.40245,-8.91377 3.68218,-12.82774c0.7855,-1.34859 2.11553,-2.44244 2.50984,-3.95248l0.96354,-2.89062c0.62835,-2.04312 2.53068,-3.52824 4.77988,-3.52824c2.2492,0 4.15153,1.48512 4.77988,3.52824l0.96354,2.89062l-0.20625,0.06875c0.14058,0.23201 0.27371,0.46893 0.39827,0.71148c0.98819,1.92431 -0.68783,7.59338 -1.13484,9.19885c-1.16561,4.18642 -2.71578,8.33643 -2.80448,12.67486c4.00387,0.61555 4.00387,4.92721 4.00387,4.92721z" fill="#240d00" stroke="none" stroke-width="0.5"/><path d="M216.44564,168.88511c0.01016,0.0358 0.02017,0.07166 0.03002,0.10758c0.19106,0.69649 0.07875,1.39954 -0.13043,2.10712c-0.03742,0.66516 -0.08501,1.34754 -0.15008,2.03179c0.81055,0.88868 1.30484,2.07082 1.30484,3.3684c0,0.59382 -0.10352,1.16346 -0.29349,1.69186l-0.96309,2.88928l-0.50175,-0.16725l0.10933,1.04961c-0.14367,0.10967 -0.28734,0.21935 -0.43101,0.32902c-0.16339,0.96997 -0.66043,2.59666 -2.17243,3.51743c-0.06815,0.0771 -0.13877,0.15234 -0.21202,0.22559c-0.17634,0.17634 -0.36455,0.34358 -0.56349,0.50181c-0.42454,0.55435 -0.96252,1.01725 -1.57924,1.35401l-1.57537,1.83793c-0.91717,1.08312 -2.287,1.77072 -3.81744,1.77072c-2.21775,0 -4.09827,-1.44388 -4.75278,-3.44288c-1.48954,-0.44498 -2.81275,-1.12342 -3.78276,-2.02159c-1.32665,-1.2284 -1.55205,-3.2695 -2.20788,-4.9544c-1.14463,-2.94064 -2.27998,-8.2389 -1.19202,-11.38205c0.81432,-2.35261 1.19082,-5.72832 3.52939,-6.58212c2.97892,-1.08759 6.50265,0.12922 9.40605,1.52112v-0.13809c0,-2.76142 2.23858,-5 5,-5c2.76142,0 5,2.23858 5,5l0,4h-0.03922c-0.00502,0.12665 -0.01004,0.25507 -0.01514,0.38511z" fill="#00d002" stroke="none" stroke-width="0.5"/><path d="M236.53854,155.61322c-0.84703,-0.54307 -1.62085,-1.41873 -1.9141,-2.83064c-0.29676,-0.91686 -0.3784,-2.03981 0.18422,-3.2258c0.44078,-1.23646 1.29256,-1.97277 2.15072,-2.41125c1.21048,-0.79413 2.38128,-0.86358 3.36665,-0.64553h1.17397c3.98292,0 8.02229,-0.19131 12,0c1.64082,0.07892 3.59994,-0.60595 4.91342,0.3806c2.3267,1.74758 5.37828,4.21939 5.06225,7.11209c-0.32821,3.00422 -3.9272,4.75154 -6.52675,6.29277c-1.27711,0.75718 -2.96484,0.1718 -4.44892,0.21454c-2.90952,0.0838 -8.32998,0.66798 -10.91342,-0.3806c-0.94195,-0.38232 -3.58916,-3.03584 -5.04804,-4.50618z" fill="#00d002" stroke="none" stroke-width="0.5"/></g></g></svg>