<svg version="1.1" xmlns="http://www.w3.org/2000/svg" xmlns:xlink="http://www.w3.org/1999/xlink" width="99.60152" height="147.87423" viewBox="0,0,99.60152,147.87423"><g transform="translate(-163.64848,-153.87577)"><g data-paper-data="{&quot;isPaintingLayer&quot;:true}" fill-rule="nonzero" stroke-linecap="butt" stroke-linejoin="miter" stroke-miterlimit="10" stroke-dasharray="" stroke-dashoffset="0" style="mix-blend-mode: normal"><path d="M260.5,296.5c0,2.8995 -2.23857,5.25 -5,5.25c-2.76143,0 -5,-2.3505 -5,-5.25c0,-2.8995 2.23857,-5.25 5,-5.25c2.76143,0 5,2.3505 5,5.25z" fill="#000000" stroke="#0029f3" stroke-width="0"/><path d="M246.47127,284.85462c-0.62277,-4.98795 -4.53663,-10.23923 -7.04433,-14.62672c-0.42388,-0.74162 -1.03885,-1.36059 -1.47962,-2.09229c-0.24464,-0.40611 -0.14527,-1.08726 -0.56665,-1.30455c-0.72097,-0.37179 -1.69117,0.11529 -2.42203,-0.23666c-1.3431,-0.64678 -2.25313,-2.01043 -3.59455,-2.66068c-0.96755,-0.46902 -2.23539,-0.07836 -3.16621,-0.6166c-1.31853,-0.76244 -2.15639,-1.4461 -2.7928,-2.13968c0.02344,0.3845 0.07091,0.76271 0.20714,1.11725c0.33818,0.88007 1.29197,1.43313 1.62459,2.31532c0.98326,2.60777 1.44194,5.38995 1.9526,8.12975c0.52483,2.81585 -0.06214,6.90212 1.02168,9.65096c0.41656,1.05649 1.55875,1.78191 1.80244,2.89111c0.21458,0.9767 -0.71211,1.97394 -0.51805,2.95493c0.14636,0.73984 1.20023,1.02678 1.44674,1.73953c0.05986,0.17308 0.11524,0.34773 0.16642,0.52372c-0.20288,0 -0.40577,0 -0.60865,0c-2.69484,0 -5.38969,0 -8.08453,0c-0.10702,-0.19957 -0.19137,-0.40866 -0.2406,-0.63277c-0.21458,-0.9767 0.71211,-1.97394 0.51805,-2.95493c-0.14636,-0.73984 -1.18183,-1.03341 -1.44674,-1.73953c-1.30044,-3.46632 -0.76414,-7.52713 -1.43456,-11.08468c-0.42413,-2.25065 -0.70168,-4.56461 -1.53972,-6.69603c-0.34499,-0.87743 -1.28642,-1.43525 -1.62459,-2.31532c-0.3781,-0.98395 -0.11102,-2.13542 -0.46693,-3.12761c-0.88734,-2.4737 -4.05719,-4.37644 -5.44601,-6.35574c-0.16961,-0.24173 -0.32746,-0.49078 -0.47684,-0.74512c-2.0836,11.88489 -4.16721,23.76976 -6.25081,35.65465c-2.40875,0.02774 -5.0584,0.24631 -7.67362,0.33787c2.14612,-12.24148 4.39874,-25.09046 6.55933,-37.4145c-0.08451,0.09219 -0.1712,0.18571 -0.26021,0.28068c-0.64475,0.68789 -1.66474,0.94223 -2.31532,1.62459c-1.02866,1.07892 -1.63206,2.51558 -2.66068,3.59455c-0.59067,0.61958 -1.57251,0.784 -2.13156,1.43226c-0.68841,0.79825 -0.81277,1.98561 -1.50303,2.78225c-0.61739,0.71254 -1.69243,0.91685 -2.31532,1.62459c-2.24729,2.55341 -3.41617,6.56102 -5.66672,9.15905c-1.28757,1.48636 -3.4435,2.16236 -4.48896,3.82792c-0.79477,1.26617 -1.00523,2.86389 -1.89647,4.06412c-0.58982,0.79431 -1.75938,0.98767 -2.40892,1.73394c-0.61259,0.70383 -0.71679,1.74342 -1.27103,2.49407c-0.27376,0.37078 -0.55271,0.73971 -0.83582,1.10719c-0.79155,-0.25069 -1.594,-0.45534 -2.41655,-0.57657c-1.39246,-0.20522 -2.81903,-0.18982 -4.22183,-0.07492c-0.14653,0.012 0.02901,0.4955 -0.10216,0.42908c-0.62088,-0.31441 -1.13988,-0.8292 -1.69192,-1.26832c1.09725,-1.32897 2.18594,-2.65731 3.20115,-4.02551c0.7005,-0.94408 0.96703,-2.18039 1.73501,-3.07044c0.5856,-0.67869 1.68968,-0.79379 2.22172,-1.51524c0.74447,-1.00951 0.75331,-2.43061 1.45494,-3.47035c1.28807,-1.9088 3.60945,-2.9003 5.11768,-4.64039c2.23439,-2.5779 3.42638,-6.54026 5.66673,-9.15905c0.61289,-0.71642 1.69793,-0.91205 2.31532,-1.62459c0.69026,-0.79665 0.81108,-1.98706 1.50303,-2.78225c0.67608,-0.77695 1.78835,-1.07154 2.49907,-1.81692c1.0287,-1.07889 1.63202,-2.51563 2.66068,-3.59455c0.65058,-0.68237 1.65738,-0.94931 2.31532,-1.62459c1.54423,-1.58494 2.45815,-3.56366 3.48219,-5.47411c0,0 1.03845,-1.92229 2.99734,-2.03965c-0.46123,-0.90831 -1.23308,-3.13717 1.15412,-4.8122c3.06971,-2.15392 5.22363,0.91578 5.22363,0.91578c1.22661,1.83152 3.29051,2.93883 4.83448,4.5121c0.92972,0.94736 1.28815,2.36881 2.24456,3.28922c0.67233,0.64702 1.7452,0.71438 2.49406,1.27103c0.21371,0.15885 5.63535,5.30303 5.85714,5.56365c1.37928,1.62068 1.97362,4.14237 3.89407,5.05938c0.83489,0.39866 1.91154,0.01511 2.74366,0.41949c1.34078,0.65157 2.25514,2.00631 3.59455,2.66068c1.0717,0.52358 2.49629,0.13648 3.48783,0.79943c3.03371,2.02835 5.03666,7.3974 6.7163,10.32238c2.28093,3.97209 4.78615,7.38841 5.55593,11.94834c1.19305,2.67226 3.30555,4.7197 4.47361,7.33765c0.05757,0.12903 0.11249,0.25906 0.16509,0.38995c-2.95067,0 -5.90134,0 -8.85201,0c-1.02767,-1.80502 -2.10336,-3.60736 -2.99184,-5.64538z" fill="#000000" stroke="none" stroke-width="0.5"/><path d="M176.97509,245.41573c-0.59067,-0.18906 -1.17033,-0.40402 -1.6776,-0.7891c-1.09769,-0.83328 -1.80465,-2.22141 -2.81445,-3.19327c-2.09136,-2.01279 -5.0531,-3.74596 -6.48973,-6.61902c-1.01495,-2.02977 -0.82192,-4.59824 -1.15403,-6.91388c-0.56323,-3.92713 -1.80151,-8.87673 -0.83075,-12.97483c0.37072,-1.56501 1.2824,-2.88769 1.82725,-4.38233c2.29886,-6.30627 5.89739,-12.05971 11.63346,-14.415c1.84884,-0.69756 3.37357,-2.31489 5.22,-3.02102c0.93187,-0.35638 1.97101,0.07331 2.94212,-0.08854c3.77462,-0.62909 7.38114,-2.28851 11.10499,-2.98645c3.92285,-0.73524 8.4136,-0.03228 12.39186,-0.03228c9.66809,0 19.35641,-0.21618 29.02052,0.10727c2.76955,2.03235 5.10806,4.11978 7.62464,6.45937c1.91278,1.77826 3.41989,2.04501 4.76869,4.61902c1.74227,3.3249 0.67463,4.58844 1.86604,8.27232c0.39732,1.22854 1.50107,2.06677 1.80818,3.32976c0.34379,1.41384 -0.08413,2.94898 0.07304,4.40679c0.25619,2.37644 1.37553,4.54162 1.70938,6.90501c0.41276,2.92198 0.02778,6.43216 0.02778,9.40045c0,3.39898 0.53291,7.2623 -1.18181,10.31433c-2.62873,4.67888 -7.01337,2.62805 -10.95111,4.15339c-2.68553,0.02963 -5.40464,0.15 -8.08927,0.03228c-0.58821,-0.02579 -1.22101,-0.46975 -1.75829,-0.1903c-0.74051,0.38517 -0.96477,1.65866 -1.72104,2c-0.95181,0.4296 -2.05471,-0.04837 -3.06022,0.15802c-0.89324,0.18335 -1.68606,0.83216 -2.58156,1c-2.5206,0.47242 -5.53015,0.03228 -8.08926,0.03228c-4.87627,0 -9.75254,0 -14.62882,0c-3.44045,0 -6.88627,0.06377 -10.32622,0c-1.06863,-0.01981 -2.18633,0.26865 -3.20497,-0.10727c-1.09329,-0.40347 -1.93554,-1.4313 -2.90332,-2.14694c-2.43046,-0.91701 -4.23136,-1.78285 -6.79949,-1.74579h-1.72104c0,0 -1.58719,0 -2.03496,-1.58427zM180.76676,242.00044c3.24502,0.04289 5.5918,1.04244 8.65416,2.25377c0.75326,0.61768 1.39132,1.4936 2.25979,1.85306c1.42581,0.59014 3.02615,-0.10727 4.53969,-0.10727c2.58156,0 5.16312,0 7.74467,0c4.87627,0 9.75254,0 14.62882,0c2.30701,0 5.12994,0.4882 7.40006,0.03228c0.89381,-0.17951 1.68515,-0.83888 2.58156,-1c0.69418,-0.12477 1.454,0.47059 2.10289,0.15802c0.74947,-0.36102 0.95958,-1.67462 1.72104,-2c2.82711,-1.20803 7.7743,-0.20176 10.80489,-0.15802c0.86052,-0.33334 1.68606,-0.83216 2.58156,-1c1.54221,-0.28905 3.18149,0.65301 4.68444,0.15802c0.72787,-0.23971 1.24994,-2.81821 1.28131,-3.09076c0.42605,-3.70227 -0.04635,-7.8568 -0.02778,-11.59955c0.0178,-3.58659 -1.31959,-6.10417 -1.70492,-9.69454c-0.12759,-1.18886 0.35735,-2.4416 0.07304,-3.59321c-0.27355,-1.10804 -1.31969,-1.7848 -1.66732,-2.86443c-0.77844,-2.41758 -0.42126,-5.30528 -1.54262,-7.53349c-0.57379,-1.14015 -3.34647,-2.92543 -3.83649,-3.38098c-2.03841,-1.89506 -4.00243,-3.74454 -6.14366,-5.54063c-9.22705,0.50547 -18.53599,0.10727 -27.7737,0.10727c-3.71982,0 -8.05119,-0.76561 -11.70266,-0.03228c-3.77044,0.75723 -7.43205,2.37916 -11.26848,3.01355c-0.73338,0.12127 -1.51942,-0.36482 -2.221,-0.08854c-1.80377,0.71032 -3.30328,2.26582 -5.10622,2.97898c-4.52866,1.60441 -7.23917,6.82286 -9.01898,11.585c-0.46569,1.24603 -1.27948,2.31629 -1.61483,3.61767c-0.87362,3.39021 0.42568,7.78569 0.89029,11.02517c0.31931,2.22636 -0.49203,3.14238 0.567,5.08612c1.25863,2.3101 3.85029,3.7165 5.55752,5.38098c1.38603,1.35131 2.74893,2.94853 4.47951,3.56164c0,0 0.63299,0.2452 1.07642,0.87215z" fill="#111111" stroke="none" stroke-width="0.5"/><path d="M179.61044,241.55261c-1.76397,-0.62495 -3.15573,-2.25897 -4.5685,-3.63638c-1.74017,-1.69662 -4.38398,-3.13769 -5.6669,-5.49241c-1.07946,-1.98128 -0.25336,-2.92032 -0.57883,-5.18968c-0.47357,-3.30204 -1.79817,-7.79406 -0.9077,-11.24974c0.34182,-1.32651 1.17177,-2.42148 1.64644,-3.69157c1.81414,-4.85411 4.58163,-10.18901 9.19765,-11.82441c1.83772,-0.72693 3.36959,-2.31869 5.20816,-3.04273c0.71511,-0.28162 1.51743,0.2122 2.26496,0.08858c3.91045,-0.64664 7.65501,-2.31199 11.49819,-3.08384c3.72191,-0.7475 8.15694,0.02627 11.94853,0.02627c9.41592,0 18.93999,0.42459 28.34504,-0.09064c2.18253,1.83078 4.18937,3.72466 6.2671,5.65631c0.49947,0.46435 3.32763,2.28919 3.91249,3.45137c1.14299,2.27124 0.78101,5.22296 1.57446,7.68723c0.35433,1.10048 1.42115,1.79372 1.69998,2.92315c0.2898,1.17385 -0.20418,2.45464 -0.07412,3.66646c0.39276,3.65971 1.75556,6.23612 1.73743,9.89198c-0.01892,3.81503 0.46014,8.06074 0.02587,11.83451c-0.03197,0.27781 -0.56523,2.9092 -1.30715,3.15355c-1.53194,0.50454 -3.20373,-0.45362 -4.77569,-0.15899c-0.91277,0.17108 -1.75531,0.6818 -2.63243,1.02158c-3.08905,-0.04458 -8.13647,-1.06253 -11.01812,0.16884c-0.77615,0.33166 -0.99277,1.67367 -1.7567,2.04166c-0.66141,0.31861 -1.4375,-0.28652 -2.14506,-0.15934c-0.9137,0.16423 -1.72344,0.83928 -2.63451,1.02226c-2.31392,0.46473 -5.20108,-0.02664 -7.55259,-0.02664c-4.97034,0 -9.96829,0.0018 -14.93863,0.0018c-2.63136,0 -5.27446,-0.00595 -7.90582,-0.00595c-1.54275,0 -3.1787,0.70691 -4.63202,0.10537c-0.88523,-0.3664 -1.53868,-1.26251 -2.30648,-1.89212c-3.12144,-1.23472 -5.51947,-2.26227 -8.82709,-2.30599c-0.45198,-0.63905 -1.09797,-0.89049 -1.09797,-0.89049z" data-paper-data="{&quot;noHover&quot;:false,&quot;origItem&quot;:[&quot;Path&quot;,{&quot;applyMatrix&quot;:true,&quot;segments&quot;:[[[361.53352,484.00087],[-0.88686,-1.25389],[6.49004,0.08578]],[[378.84184,488.50842],[-6.12472,-2.42266],[1.50653,1.23537]],[[383.36143,492.21454],[-1.73695,-0.71892],[2.85162,1.18028]],[[392.44082,492],[-3.02709,0],[5.16311,0]],[[407.93016,492],[-5.16311,0],[9.75254,0]],[[437.18779,492],[-9.75254,0],[4.61402,0]],[[451.98792,492.06456],[-4.54025,0.91184],[1.78763,-0.35902]],[[457.15103,490.06456],[-1.79281,0.32224],[1.38835,-0.24954]],[[461.35681,490.3806],[-1.29778,0.62514],[1.49894,-0.72204]],[[464.79888,486.3806],[-1.52292,0.65075],[5.65422,-2.41607]],[[486.40866,486.06456],[-6.06118,-0.08747],[1.72104,-0.66667]],[[491.57177,484.06456],[-1.79099,0.33568],[3.08442,-0.5781]],[[500.94066,484.3806],[-3.0059,0.98997],[1.45574,-0.47943]],[[503.50327,478.19909],[-0.06273,0.54509],[0.85211,-7.40454]],[[503.44771,455],[-0.03713,7.48549],[0.03559,-7.17319]],[[500.03787,435.61092],[0.77065,7.18073],[-0.25518,-2.37772]],[[500.18395,428.4245],[0.56863,2.30322],[-0.54711,-2.21607]],[[496.84931,422.69565],[0.69526,2.15926],[-1.55687,-4.83516]],[[493.76408,407.62866],[2.24271,4.45642],[-1.14758,-2.28031]],[[486.0911,400.86671],[0.98003,0.9111],[-4.07682,-3.79011]],[[473.80378,389.78546],[4.28245,3.59218],[-18.4541,1.01094]],[[418.25638,390],[18.47543,0],[-7.43964,0]],[[394.85106,389.93544],[7.30293,-1.46667],[-7.54088,1.51446]],[[372.31409,395.96254],[7.67287,-1.26877],[-1.46676,0.24254]],[[367.87209,395.78546],[1.40316,-0.55256],[-3.60754,1.42064]],[[357.65965,401.74342],[3.60588,-1.42632],[-9.05732,3.20883]],[[339.62168,424.91342],[3.55962,-9.52428],[-0.93138,2.49205]],[[336.39202,432.14876],[0.6707,-2.60276],[-1.74723,6.78041]],[[338.1726,454.19909],[-0.92921,-6.47895],[0.63861,4.45273]],[[339.30661,464.37134],[-2.11806,-3.88748],[2.51727,4.62021]],[[350.42166,475.13329],[-3.41447,-3.32895],[2.77207,2.70263]],[[359.38068,482.25658],[-3.46116,-1.22622],[0,0]]],&quot;closed&quot;:true}]}" fill="#000000" stroke="none" stroke-width="0.5"/><path d="M235,249.5c-1.82103,0.7004 -3.58677,1.57214 -5.43664,2.1832l-0.06336,0.3168c-0.33334,0 -0.66666,0 -1,0c-2.51601,0.6621 -6.38719,0 -9,0v0c-2.66666,0 -5.33334,0 -8,0c-2.85085,0 -6.18273,0.40447 -9.03398,0.02177c-2.66304,0.0993 -5.44161,0.44123 -7.45114,-1.09284c-2.90632,0.25739 -5.9522,0.80715 -8.47158,-0.11923c-0.87234,-0.32076 -1.13211,-1.57849 -1.96378,-1.98309c-0.15609,-0.03679 -0.31328,-0.07447 -0.47168,-0.11306c-0.51712,-0.01824 -1.07954,0.23725 -1.60783,0.28645c0,0 -2.5,0 -2.5,-2.5c0,-2.25029 2.02552,-2.47506 2.43016,-2.49751c-0.2508,-0.34994 -0.42282,-0.82265 -0.42993,-1.46119c-0.62679,-0.5153 -0.87194,-1.25073 -0.87194,-1.25073c-2.08258,-6.24775 -2.29304,-12.00417 -3.10883,-18.47923c-0.17204,-1.36553 -0.81066,-2.64274 -1.00073,-4.00588c-0.54691,-3.92233 -0.01873,-8.34046 -0.01873,-12.30546c0,-9.66314 0.06864,-18.61162 3.12829,-27.79057c2.56745,-7.68697 5.3991,-16.80438 12.99548,-21.29654c7.16299,-4.23586 14.38052,-3.41289 22.37623,-3.41289c4.35159,0 9.05278,-0.70747 13.09838,1.25421c5.22289,2.53253 7.90112,6.71096 11.83498,10.66082c5.85604,8.82952 5.56664,19.30291 5.56664,29.58497c0,4.56565 0.71843,9.88238 -0.03228,14.40045c-0.34555,2.07968 -1.71434,3.91126 -2,6c-0.18067,1.32103 0.18856,2.68007 0,4c-0.14907,1.0435 -0.82335,1.96081 -1,3c-0.18573,1.09261 0.27053,2.27095 -0.07499,3.324c-0.37469,1.14195 -1.65296,1.84934 -2,3c-0.70183,2.32699 0.10727,6.78423 0.10727,9.27554c-0.03575,1.24149 0.32722,2.56094 -0.10727,3.72446c-1.43381,3.83954 -4.60816,5.52419 -8.15057,6.24925zM204.26777,246.26777l-0.8422,0.84221c0.60559,0.07548 1.23908,0.10871 1.8867,0.11553c0.64097,-0.02345 1.28914,-0.05409 1.93778,-0.0852c-0.97495,-0.31532 -1.94885,-0.63415 -2.9273,-0.93195c-0.03444,0.03886 -0.05498,0.0594 -0.05498,0.0594z" fill="#424242" stroke="none" stroke-width="0.5"/><path d="M263.25,292.5c0,3.75 -3.75,3.75 -3.75,3.75c-2,0 -7,0 -9,0c0,0 -3.75,0 -3.75,-3.75c0,-3.75 3.75,-3.75 3.75,-3.75c2,0 4,0 6,0h3c0,0 3.75,0 3.75,3.75z" fill="#111111" stroke="none" stroke-width="0.5"/><path d="M175.5,293.5c0,2.89949 -2.23858,5.25 -5,5.25c-2.76142,0 -5,-2.35051 -5,-5.25c0,-2.89949 2.23858,-5.25 5,-5.25c2.76142,0 5,2.35051 5,5.25z" fill="#000000" stroke="#0029f3" stroke-width="0"/><path d="M163.75,286.5c0,-3.75 3.75,-3.75 3.75,-3.75h2c2.42782,0.03265 4.87272,0.45433 7.18585,1.19244c0,0 3.55756,1.18585 2.37171,4.74342c-1.18585,3.55756 -4.74342,2.37171 -4.74342,2.37171c-1.53364,-0.54363 -3.18734,-0.84039 -4.81415,-0.80756h-2c0,0 -3.75,0 -3.75,-3.75z" fill="#111111" stroke="none" stroke-width="0.5"/><path d="M208,296c0,2.8995 -2.23857,5.25 -5,5.25c-2.76143,0 -5,-2.3505 -5,-5.25c0,-2.8995 2.23857,-5.25 5,-5.25c2.76143,0 5,2.3505 5,5.25z" fill="#000000" stroke="#0029f3" stroke-width="0"/><path d="M211.25,290.5c0,3.75 -3.75,3.75 -3.75,3.75c-2,0 -5,0 -7,0c0,0 -3.75,0 -3.75,-3.75c0,-3.75 3.75,-3.75 3.75,-3.75c2,0 4,0 6,0h1c0,0 3.75,0 3.75,3.75z" fill="#111111" stroke="none" stroke-width="0.5"/><path d="M233.25,296c0,2.8995 -2.23857,5.25 -5,5.25c-2.76143,0 -5,-2.3505 -5,-5.25c0,-2.8995 2.23857,-5.25 5,-5.25c2.76143,0 5,2.3505 5,5.25z" fill="#000000" stroke="#0029f3" stroke-width="0"/><path d="M236.25,291.5c0,3.75 -3.75,3.75 -3.75,3.75l0.18585,-0.19244c-3.58836,1.19612 -6.37396,2.14118 -10.18585,2.19244c0,0 -3.75,0 -3.75,-3.75c0,-3.75 3.75,-3.75 3.75,-3.75c2.95084,0.05955 5.01056,-0.87303 7.81415,-1.80756l2.18585,-0.19244c0,0 3.75,0 3.75,3.75z" fill="#111111" stroke="none" stroke-width="0.5"/><path d="M208.63032,242.25c2.36204,-1.57469 10.00854,7.34944 0.95431,7.77336c-1.22815,0.0575 -4.94486,0.14766 -5.83463,-0.74211c-3.02778,-3.02778 -1.84581,-6.10105 1.875,-7.03125z" fill="#424242" stroke="none" stroke-width="0.5"/></g></g></svg>