<svg version="1.1" xmlns="http://www.w3.org/2000/svg" xmlns:xlink="http://www.w3.org/1999/xlink" width="79.42266" height="48.74584" viewBox="0,0,79.42266,48.74584"><g transform="translate(-200.28867,-155.62708)"><g data-paper-data="{&quot;isPaintingLayer&quot;:true}" fill-rule="evenodd" stroke="none" stroke-width="1" stroke-linecap="butt" stroke-linejoin="miter" stroke-miterlimit="10" stroke-dasharray="" stroke-dashoffset="0" style="mix-blend-mode: normal"><path d="M206.14809,204.37086c-9.34726,0 -3.6889,-38.9068 20.15054,-38.32955c24.28293,0.58858 33.09924,38.32955 33.09924,38.32955z" fill="#efab00"/><path d="M277.00609,188.75422c0,0 -48.51646,12.91886 -57.22473,14.202c-11.66144,1.7184 -15.5263,-2.03121 -16.93394,-8.10323c-2.32858,-10.04388 5.78699,-10.37522 8.27404,-15.86277c2.48602,-5.48859 -3.36271,-14.41705 8.27404,-14.87804c9.73313,-0.38587 9.88131,-7.8645 14.66607,-8.41398c7.42101,-0.852 9.04166,6.19344 14.5323,8.15673c5.18606,1.85422 7.91492,-2.89041 13.71941,-0.55771c4.97307,1.99931 5.19738,12.6256 11.74788,14.83482c10.67568,3.60143 2.94494,10.62217 2.94494,10.62217" fill="#59c059"/><path d="M213.96587,185.67633c-1.05882,-0.32104 -1.66386,-1.45189 -1.34179,-2.51071l0.64517,-2.12793c0.32104,-1.05882 1.45086,-1.66283 2.51071,-1.34179l5.66557,1.71737c1.05985,0.32207 1.66386,1.45189 1.34179,2.51174l-0.64517,2.1269c-0.32104,1.05985 -1.45086,1.66283 -2.51071,1.34179l-5.66557,-1.71737" fill="#e8511c"/><path d="M210.16955,184.17402c1.17304,0.2984 2.85028,1.57434 4.21882,1.9139c-3.5397,9.16822 -4.17766,17.95572 -8.56112,18.26441h-0.02058c-3.36477,-0.27782 -6.99707,-3.42651 -4.89795,-6.6678c1.24507,-1.92419 -0.68942,-4.31143 -0.16464,-6.52374c0.75116,-3.18984 4.01303,-3.87926 5.14491,-4.19824c1.23478,-0.33956 2.54158,-3.231 4.28056,-2.78854" fill="#c18500"/><path d="M218.98771,180.67507c-1.03927,1.88304 -1.89333,3.81752 -2.61361,5.73142l-0.96724,-0.2984l-0.92608,-0.2768c0.75116,-1.91493 1.63608,-3.83913 2.70622,-5.70056z" fill="#c6431a"/><path d="M216.3741,186.40691c-3.40593,8.97272 -4.09534,17.49268 -8.32446,17.93514c-0.49391,0 -0.74087,0 -1.56405,0.03087h-0.2058c-0.15435,0 -0.2984,-0.01029 -0.45275,-0.02058c4.38346,-0.30869 5.02143,-9.09619 8.56112,-18.26441c0.37043,0.09261 0.71,0.11319 1.01869,0.02058z" fill="#a06b00"/><path d="M218.23707,173.90438c-0.99811,0.47848 -2.20716,0.05248 -2.68461,-0.94666l-0.18522,-0.38484c-0.47745,-0.99914 -0.05145,-2.20614 0.94666,-2.68461l2.76281,-1.32224c0.99914,-0.47848 2.20716,-0.05248 2.68461,0.94563l0.18522,0.38587c0.47745,0.99811 0.05145,2.20716 -0.94666,2.68461l-2.76281,1.32224" fill="#e8511c"/><path d="M246.27629,165.4158c-0.75116,0.01029 -1.52289,0.05145 -2.31521,0.11319c-13.80893,1.05985 -20.85745,7.6762 -24.97337,15.1466l-1.80072,-0.54536c4.15708,-7.25432 11.19531,-13.56197 24.66468,-14.60124c1.54347,-0.12348 3.01491,-0.15435 4.42462,-0.11319" fill="#4ba04b"/><path d="M270.10863,180.9494c-0.55359,-0.95901 -0.22226,-2.19687 0.73778,-2.75047l0.97959,-0.56594c0.95901,-0.55359 2.19687,-0.22123 2.75047,0.73675l2.09192,3.62407c0.55359,0.95901 0.22226,2.19585 -0.73778,2.75047l-0.97959,0.56491c-0.95901,0.55359 -2.19687,0.22226 -2.75047,-0.73675l-2.09192,-3.62304" fill="#e8511c"/><path d="M246.37682,167.0632c-1.04442,0.36838 -2.19996,-0.18316 -2.56834,-1.22757l-0.37661,-1.06705c-0.3694,-1.04442 0.18213,-2.19996 1.22655,-2.56937l3.94511,-1.39427c1.04442,-0.36838 2.19996,0.18419 2.56834,1.22757l0.37764,1.06705c0.3694,1.04442 -0.18316,2.20099 -1.22757,2.56937l-3.94511,1.39427" fill="#e8511c"/><path d="M207.69135,204.37086c9.26083,0 2.28743,-36.23557 36.27158,-38.84404c27.05397,-2.07648 33.75058,20.87597 35.1572,32.92945c0.36735,3.1456 -2.05796,5.91458 -5.22311,5.91458z" fill="#ffbf00"/><path d="M232.37301,164.49126c-0.2984,0 -0.59475,-0.12965 -0.79849,-0.37969c-0.35911,-0.4404 -0.29223,-1.08866 0.14817,-1.44675l5.40215,-4.39992c0.44143,-0.35706 1.08969,-0.29223 1.44778,0.14817c0.35911,0.4404 0.29223,1.08866 -0.14817,1.44778l-5.40215,4.39889c-0.19139,0.15538 -0.42085,0.23152 -0.64929,0.23152" fill="#ffbf00"/><path d="M267.4518,167.71187c-0.0638,0 -0.12759,-0.00514 -0.19242,-0.01852l-6.84581,-1.29549c-0.55874,-0.10496 -0.92505,-0.64414 -0.8201,-1.20185c0.10599,-0.55874 0.64517,-0.93123 1.20185,-0.8201l6.84684,1.29652c0.55874,0.10496 0.92505,0.64414 0.81907,1.20185c-0.09261,0.49391 -0.52478,0.83759 -1.00943,0.83759" fill="#ffbf00"/><path d="M208.97326,188.83561c-0.22843,0 -0.45893,-0.07512 -0.65032,-0.23255l-5.39906,-4.40404c-0.4404,-0.35809 -0.50626,-1.00634 -0.14612,-1.44675c0.35911,-0.43937 1.00634,-0.50729 1.44778,-0.14714l5.39906,4.40507c0.4404,0.35809 0.50626,1.00634 0.14612,1.44675c-0.20271,0.24901 -0.49906,0.37867 -0.79746,0.37867" fill="#ffbf00"/><path d="M267.02775,185.89643c-1.67827,0 -1.68136,-2.60847 0,-2.60847c1.6793,0 1.68136,2.60847 0,2.60847" fill="#efab00"/><path d="M253.66911,188.22965c-1.67827,0 -1.68136,-2.60847 0,-2.60847c1.6793,0 1.68136,2.60847 0,2.60847" fill="#efab00"/><path d="M252.05423,198.96964c-1.67827,0 -1.68136,-2.60847 0,-2.60847c1.6793,0 1.68238,2.60847 0,2.60847" fill="#efab00"/><path d="M229.96036,200.27397c-1.67827,0 -1.68136,-2.60847 0,-2.60847c1.67827,0 1.68136,2.60847 0,2.60847" fill="#efab00"/><path d="M232.54536,177.5942c-1.67827,0 -1.68136,-2.60847 0,-2.60847c1.67827,0 1.68136,2.60847 0,2.60847" fill="#efab00"/><path d="M246.37374,171.68363c-1.67827,0 -1.68136,-2.6095 0,-2.6095c1.67827,0 1.68136,2.6095 0,2.6095" fill="#efab00"/><path d="M239.59491,189.80934c-1.67827,0 -1.68136,-2.60847 0,-2.60847c1.67827,0 1.68136,2.60847 0,2.60847" fill="#efab00"/><path d="M225.15553,190.83832c-1.67827,0 -1.68136,-2.60847 0,-2.60847c1.67827,0 1.68136,2.60847 0,2.60847" fill="#efab00"/><path d="M269.5751,196.49072c-1.67827,0 -1.68136,-2.60847 0,-2.60847c1.67827,0 1.68136,2.60847 0,2.60847" fill="#efab00"/><path d="M259.39786,176.28986c-1.6793,0 -1.68238,-2.60847 0,-2.60847c1.67827,0 1.68136,2.60847 0,2.60847" fill="#efab00"/><path d="M214.48088,185.83109l0.92608,0.27782c-0.30869,0.09158 -0.64826,0.07203 -1.01869,-0.02058c0.03087,-0.08232 0.06174,-0.16464 0.09261,-0.25725" fill="#4ba04b"/></g></g></svg>