<svg version="1.1" xmlns="http://www.w3.org/2000/svg" xmlns:xlink="http://www.w3.org/1999/xlink" width="124.72133" height="150.7902" viewBox="0,0,124.72133,150.7902"><g transform="translate(-177.63933,-104.6049)"><g data-paper-data="{&quot;isPaintingLayer&quot;:true}" fill-rule="nonzero" stroke-width="5" stroke-linejoin="miter" stroke-miterlimit="10" stroke-dasharray="" stroke-dashoffset="0" style="mix-blend-mode: normal"><path d="M192.03614,244.88008c0,-10.27806 0,-66.36932 0,-91.55549c0,-7.49466 5.42318,-12.25274 10.76769,-12.25274c11.87283,0 58.78358,0 80.41382,0c6.7446,0 11.03124,5.3852 11.03124,13.706c0,1.52156 0,78.98417 0,88.64896c0,5.94573 -3.8775,11.96829 -10.0624,11.96829c-21.29936,0 -69.96342,0 -81.86707,0c-5.13731,0 -10.28327,-5.19742 -10.28327,-10.51503z" fill="#ced198" stroke="none" stroke-linecap="butt"/><path d="M192.52734,237.69186v-9.69639h101.20611v9.69639z" fill="#989a71" stroke="none" stroke-linecap="butt"/><path d="M197.07253,232.33006c0,-1.23774 0,-4.03158 0,-4.03158h97.26695v6.96928c0,0 -79.81776,0 -91.81273,0c-2.92357,0 -5.45422,-1.88114 -5.45422,-2.9377z" fill="#a8aa7c" stroke="none" stroke-linecap="butt"/><path d="M273.25916,127.95977c2.65332,12.77979 -14.88892,19.18274 -37.20618,23.81622c-22.31728,4.63348 -39.20162,5.37811 -41.85496,-7.40168c-2.65332,-12.77979 9.92916,-34.24452 32.24644,-38.87801c22.31728,-4.63348 44.16139,9.68369 46.81472,22.4635z" fill="#cacd96" stroke="none" stroke-linecap="butt"/><path d="M238.65095,207.57969c0,-5.71717 0,-18.56382 0,-28.58081c0,-7.59532 5.87728,-13.56378 10.65725,-13.56378c9.8278,0 45.05111,0 45.05111,0v55.22395c0,0 -30.94544,0 -41.17575,0c-6.07771,0 -14.53262,-7.47943 -14.53262,-13.07936z" fill="#ffd797" stroke="none" stroke-linecap="butt"/><path d="M245.98703,205.36292c0,-4.96429 0,-16.1192 0,-24.81708c0,-6.59511 5.10331,-11.7776 9.25383,-11.7776c8.5336,0 39.11845,0 39.11845,0v47.95165c0,0 -26.87031,0 -35.75342,0c-5.27735,0 -12.61885,-6.49448 -12.61885,-11.35697z" fill="#ffdca3" stroke="none" stroke-linecap="butt"/><path d="M245.14335,152.98804c-22.31728,4.63348 -39.20162,5.37811 -41.85496,-7.40168c-2.65332,-12.77979 9.92916,-34.24452 32.24644,-38.87801c22.31728,-4.63348 38.70717,15.13791 41.3605,27.91772c0,0 -9.43472,13.7285 -31.75199,18.36198z" fill="#ced198" stroke="none" stroke-linecap="butt"/><path d="M302.36067,165.41075c0,1.66554 -8.34283,0.21992 -8.34283,0.21992c0,0 8.29536,4.56555 7.12995,5.58107c-4.86948,4.24323 -18.09258,0.77725 -18.09258,0.77725c0,0 8.30037,6.67845 5.99909,8.13495c-0.34037,4.77978 -19.13774,-3.26858 -19.13774,-3.26858c0,0 4.42648,9.09865 2.32485,10.49578c-3.93043,2.61288 -14.98053,-9.05917 -14.98053,-9.05917c0,0 0.77698,8.95356 -2.55592,12.17233c-4.17777,4.03471 -6.9788,-10.20595 -7.94704,-10.20595c-1.05523,0 -5.14834,13.32284 -6.21653,13.30425c-24.25772,-0.4221 -48.17418,-18.75847 -48.17418,-18.75847c0,0 23.61479,-12.72652 48.63348,-12.72652c15.27904,0 32.16687,-8.7864 45.12332,-9.67276c8.25911,-0.56501 16.23667,9.68335 16.23667,13.0059z" fill="#ffbe66" stroke="none" stroke-linecap="butt"/><path d="M201.58694,181.4528l-8.7108,-7.67542l100.26477,-23.68459l5.37766,8.58446c0,0 -44.57482,7.28463 -62.14129,18.24361c-12.48848,7.79105 -34.79034,4.53194 -34.79034,4.53194z" fill="#ffb751" stroke="none" stroke-linecap="butt"/><path d="M184.77675,176.50195c0,0 -4.92614,-8.03507 -6.00246,-11.75729c-1.26935,-4.38977 -1.13048,-12.9105 -1.13048,-12.9105l115.69925,-24.02127c0,0 2.71954,6.72356 3.32786,11.35388c0.56885,4.32986 0.21156,15.58713 0.21156,15.58713z" fill="#cacd96" stroke="none" stroke-linecap="butt"/><path d="M190.53398,174.68388c0,0 -4.92614,-7.78504 -6.00246,-11.39144c-1.26935,-4.25317 -1.13048,-12.50877 -1.13048,-12.50877l109.63901,-21.75874c0,0 3.93158,7.12037 4.53991,11.6066c0.56885,4.19513 -1.90952,12.07197 -1.90952,12.07197z" fill="#ced198" stroke="none" stroke-linecap="butt"/><path d="M193.20175,156.7838l0.31382,-15.25079l81.24824,-12.99865l6.78536,12.46278z" fill="#989a71" stroke="none" stroke-linecap="butt"/><path d="M196.23187,156.17777c0,0 2.31655,-6.36783 3.15768,-8.67995c0.55973,-1.53861 6.5634,-4.89851 7.93662,-5.17894c10.96876,-2.23998 70.46775,-14.39055 70.46775,-14.39055l6.78536,12.46278z" fill="#a8aa7c" stroke="none" stroke-linecap="butt"/><path d="M215.6605,225.29255c0,-6.10824 4.95171,-11.05995 11.05995,-11.05995c6.10824,0 11.05995,4.95171 11.05995,11.05995c0,6.10824 -4.95171,11.05995 -11.05995,11.05995c-6.10824,0 -11.05995,-4.95171 -11.05995,-11.05995z" fill="#ffd797" stroke="none" stroke-linecap="butt"/><path d="M218.69063,226.6561c0,-5.18782 4.20556,-9.39338 9.39338,-9.39338c5.18782,0 9.39338,4.20556 9.39338,9.39338c0,5.18782 -4.20556,9.39338 -9.39338,9.39338c-5.18782,0 -9.39338,-4.20556 -9.39338,-9.39338z" fill="#ffdca3" stroke="none" stroke-linecap="butt"/><path d="M280.15001,226.63774c0,-0.83674 0.67832,-1.51506 1.51506,-1.51506c0.83674,0 1.51506,0.67832 1.51506,1.51506c0,0.83674 -0.67832,1.51506 -1.51506,1.51506c-0.83674,0 -1.51506,-0.67832 -1.51506,-1.51506z" fill="#888964" stroke="none" stroke-linecap="butt"/><path d="M280.45302,233.00099c0,-0.83674 0.67832,-1.51506 1.51506,-1.51506c0.83674,0 1.51506,0.67832 1.51506,1.51506c0,0.83674 -0.67832,1.51506 -1.51506,1.51506c-0.83674,0 -1.51506,-0.67832 -1.51506,-1.51506z" fill="#888964" stroke="none" stroke-linecap="butt"/><path d="M280.45302,240.27329c0,-0.83674 0.67832,-1.51506 1.51506,-1.51506c0.83674,0 1.51506,0.67832 1.51506,1.51506c0,0.83674 -0.67832,1.51506 -1.51506,1.51506c-0.83674,0 -1.51506,-0.67832 -1.51506,-1.51506z" fill="#888964" stroke="none" stroke-linecap="butt"/><path d="M267.56745,188.6283v14.8476" fill="none" stroke="#000000" stroke-linecap="round"/><path d="M279.99096,188.6283v14.8476" fill="none" stroke="#000000" stroke-linecap="round"/></g></g></svg>