<svg version="1.1" xmlns="http://www.w3.org/2000/svg" xmlns:xlink="http://www.w3.org/1999/xlink" width="133.214" height="154.97575" viewBox="0,0,133.214,154.97575"><g transform="translate(-191.9527,-100.28213)"><g data-paper-data="{&quot;isPaintingLayer&quot;:true}" fill-rule="nonzero" stroke-linejoin="miter" stroke-miterlimit="10" stroke-dasharray="" stroke-dashoffset="0" style="mix-blend-mode: normal"><path d="M309.46545,132.47456c3.4325,-1.20469 8.17629,-0.51504 11.6997,-0.12745l0.41819,-0.01376c0,0 1.53399,0 2.06875,1.26661c0.05911,0.03395 0.1189,0.07099 0.17933,0.11128c1.87212,1.24808 0.62403,3.12019 0.62403,3.12019c-1.00896,1.49113 -1.29527,3.42998 -2.44294,4.81719c-3.59692,4.34766 -13.47425,3.18981 -18.41403,2.49546l-1.86657,-0.26666c-0.40391,0.03654 -0.86305,-0.05331 -1.35028,-0.385c-0.36899,-0.20865 -0.75484,-0.54631 -0.94171,-1.0849c-0.2221,-0.52505 -0.16187,-1.03422 -0.02773,-1.43633c0.14067,-0.57746 0.42488,-0.95325 0.75266,-1.19655c2.48802,-2.93095 5.62268,-6.00924 9.3006,-7.30007z" fill="#004d26" stroke="none" stroke-width="0.5" stroke-linecap="butt"/><path d="M202.81943,242.75282c0,-10.27806 0,-66.36932 0,-91.55549c0,-7.49466 5.37013,-12.25274 10.66234,-12.25274c11.75667,0 58.20847,0 79.62709,0c6.67861,0 10.92332,5.3852 10.92332,13.706c0,1.52156 0,78.98417 0,88.64896c0,5.94573 -3.83956,11.96829 -9.96395,11.96829c-21.09098,0 -69.27893,0 -81.06612,0c-5.08705,0 -10.18266,-5.19742 -10.18266,-10.51503z" fill="#00994d" stroke="none" stroke-width="5" stroke-linecap="butt"/><path d="M248.43424,197.45243c0,-5.71717 0,-18.56382 0,-28.58081c0,-7.59532 5.87728,-13.56378 10.65725,-13.56378c9.8278,0 45.05111,0 45.05111,0v55.22395c0,0 -30.94544,0 -41.17575,0c-6.07771,0 -14.53262,-7.47943 -14.53262,-13.07936z" fill="#ffd797" stroke="none" stroke-width="5" stroke-linecap="butt"/><path d="M203.51075,194.26827c0,-7.63237 0,-24.78254 0,-38.15513c0,-10.13968 10.61673,-18.10753 19.25131,-18.10753c17.75297,0 81.38053,0 81.38053,0v73.72349c0,0 -55.89997,0 -74.38005,0c-10.97879,0 -26.25177,-9.98497 -26.25177,-17.46082z" fill="#ffdca3" stroke="none" stroke-width="5" stroke-linecap="butt"/><path d="M289.9333,224.51048c0,-0.83674 0.67832,-1.51506 1.51506,-1.51506c0.83674,0 1.51506,0.67832 1.51506,1.51506c0,0.83674 -0.67832,1.51506 -1.51506,1.51506c-0.83674,0 -1.51506,-0.67832 -1.51506,-1.51506z" fill="#00994d" stroke="none" stroke-width="5" stroke-linecap="butt"/><path d="M290.23631,230.87373c0,-0.83674 0.67832,-1.51506 1.51506,-1.51506c0.83674,0 1.51506,0.67832 1.51506,1.51506c0,0.83674 -0.67832,1.51506 -1.51506,1.51506c-0.83674,0 -1.51506,-0.67832 -1.51506,-1.51506z" fill="#00994d" stroke="none" stroke-width="5" stroke-linecap="butt"/><path d="M290.23631,238.14603c0,-0.83674 0.67832,-1.51506 1.51506,-1.51506c0.83674,0 1.51506,0.67832 1.51506,1.51506c0,0.83674 -0.67832,1.51506 -1.51506,1.51506c-0.83674,0 -1.51506,-0.67832 -1.51506,-1.51506z" fill="#ff0000" stroke="none" stroke-width="5" stroke-linecap="butt"/><path d="M277.35074,186.50104v14.8476" fill="none" stroke="#000000" stroke-width="5" stroke-linecap="round"/><path d="M289.77425,186.50104v14.8476" fill="none" stroke="#000000" stroke-width="5" stroke-linecap="round"/><g fill="#4d2500" stroke="none" stroke-width="0.5" stroke-linecap="butt"><path d="M318.74636,152.18496c3.58861,1.9574 1.63118,5.54604 1.63118,5.54604l-2.84803,4.82734c0.6541,4.1322 2.2034,14.36894 -2.15771,17.02496c-2.19326,1.33575 -4.95724,-1.34871 -7.40557,-2.12352c-6.25888,-1.98071 -11.67114,-5.16725 -17.72691,-7.51954c-1.3648,-0.53016 -3.05085,-0.99973 -4.19134,-1.90883c1.9923,4.20005 0.68389,14.40718 -2.17046,16.58056c-2.05201,1.56247 -5.1304,1.02804 -7.6978,0.78227c-5.69684,-0.54536 -14.34822,-7.18167 -18.34451,-10.85126c-2.0268,-1.86109 -3.41634,-6.49117 -6.71819,-5.49969c-2.11304,0.63449 -3.7162,2.38267 -5.51008,3.66699c-4.04529,2.89628 -7.86576,5.27241 -11.46287,8.80997c-1.70444,1.67621 -6.70458,8.78072 -7.35906,8.83548c-5.03606,0.4215 -7.16795,-6.30153 -8.58874,-9.53565c-0.54884,-1.29098 -1.90112,-4.18405 -2.58804,-6.50757c-0.76505,0.36633 -1.58314,0.66211 -2.34185,0.99861c-3.94612,1.75023 -15.86605,6.58511 -19.65054,2.54144c-1.62895,-1.74049 0.7177,-4.71799 0.89704,-7.09508c0.09513,-1.26078 -0.15804,-2.53065 -0.07559,-3.79233c0.41829,-6.39904 3.1352,-12.82342 6.92398,-18.65239c-1.18155,-0.22707 -2.59577,-0.97564 -3.03727,-3.18327c-0.80166,-4.00834 3.20668,-4.81 3.20668,-4.81l0.86657,0.35967c4.64949,-3.9803 8.02337,-8.60055 12.30553,-12.86758c7.32081,-7.29491 16.80736,-14.62532 26.22464,-18.79576c3.926,-1.73863 10.26101,-4.39168 14.00361,0.57627c0.50522,0.67063 0.92173,1.27852 1.25934,1.82934c9.03714,-2.83117 18.09476,-3.30162 27.80307,-2.2231c5.27704,0.6172 11.2145,1.90506 16.06398,4.20763c2.42765,1.15266 5.42259,4.18647 7.83558,5.55822c0.5209,0.29612 1.12106,0.5625 1.75983,0.82541c-1.05308,1.96917 -1.68715,4.46998 -2.36598,6.50816c-0.26691,0.80139 -1.09324,2.75567 -0.95055,3.5938c0.13929,0.81816 0.354,1.86423 1.09628,2.23544c0.82246,0.41131 1.83514,-0.15557 2.7405,-0.31666c0.61868,-0.11008 1.57135,-0.27482 2.59688,-0.50641c0.19251,0.44236 0.63349,0.75165 1.14671,0.75165c0.27004,0 0.52007,-0.08563 0.72444,-0.23121l1.25248,-0.8671l0.56804,-0.15148c-1.51661,3.41887 -5.5998,2.54119 -8.72259,4.08607c-1.54433,0.76399 -2.74115,2.18725 -4.06786,3.3251c0.73646,0.26078 1.42625,0.57361 1.93091,0.85333c1.91382,1.06071 4.00095,1.99498 5.49068,3.59764c2.14084,2.30309 3.48048,5.72137 4.42317,9.13458c0.85452,-0.30811 1.93641,-0.32336 3.23038,0.38244zM220.73353,133.53552c2.61692,3.1403 -0.52338,5.75717 -0.52338,5.75717c-6.89566,5.64273 -11.77829,13.09747 -15.84767,21.01594c-1.5152,2.94838 -0.90839,6.1794 -1.14834,9.12453c3.15667,-1.23884 7.13966,-2.06778 9.86749,-3.39146c2.33236,-1.13178 4.70965,-4.16838 7.10212,-3.16989c1.88004,0.7846 4.37239,12.05909 5.52694,14.72787c0.0805,0.19429 0.1742,0.38574 0.27411,0.57586c0.96093,-1.24336 2.20649,-2.26208 2.30913,-2.3661c3.85437,-3.90572 8.11922,-6.58564 12.5185,-9.72111c3.42908,-2.44396 3.99691,-4.29696 8.66077,-5.05348c8.15366,-1.32261 9.00821,2.9503 13.99298,7.58108c1.84048,1.70979 5.88145,4.17606 8.00273,5.45047c2.04854,1.23068 4.25183,2.18392 6.35464,3.31942c0.37767,0.20391 0.78434,1.1392 1.0227,0.78227c0.31449,-0.47091 -0.4064,-1.07325 -0.45142,-1.63773c-0.11675,-1.46398 -0.02551,-2.93719 -0.03063,-4.40582c-0.01405,-4.01513 0.75693,-8.01092 1.57209,-11.94247c2.67292,0.12911 5.3768,-0.03826 8.01876,0.38733c6.57447,1.05913 12.54226,5.50513 18.75241,7.70176c1.01047,0.35743 2.11937,0.55347 3.12958,0.92171c0.04517,-0.76144 0.18166,-1.53746 0.14523,-2.2926c-0.09109,-1.88729 -0.29633,-3.76727 -0.45229,-5.65037c-0.43101,-0.73621 -0.56465,-1.40446 -0.56465,-1.40446c-0.62739,-3.20828 -1.51134,-9.03453 -3.92131,-11.67742c-2.44769,-2.68429 -12.56349,-3.8052 -13.39727,-6.93178c-1.3231,-4.96151 8.80508,-11.82307 12.39075,-13.6338c0.34204,-0.17271 0.83553,-0.36288 1.38017,-0.53392c-2.53867,-1.29049 -5.4951,-3.77843 -5.7206,-3.94067c-4.85223,-3.49112 -10.67378,-5.18734 -16.60652,-5.80398c-9.84754,-1.09438 -19.06681,-0.7508 -28.34261,3.17955l-2.90545,2.42121c-0.71189,0.60181 -1.63234,0.96463 -2.63753,0.96463c-2.25759,0 -4.08774,-1.83013 -4.08774,-4.08773c0,-0.19377 0.0135,-0.38441 0.03958,-0.57097l0.42335,-3.38685c-0.45071,0.22172 -0.87261,0.41983 -1.17827,0.57264c-3.48965,1.74432 -7.56189,3.39529 -10.54073,5.95921c-4.23845,3.6481 -9.25918,7.12357 -13.21638,11.05605c0.02962,0.03391 0.05919,0.06858 0.08866,0.10396z"/><path d="M310.95914,124.11355c0.04745,0.14693 0.12137,0.28196 0.21613,0.39949c-0.24415,0.68201 -0.47578,1.43685 -0.77099,2.32165l-0.43024,1.18315c-0.02809,0.07194 -0.0497,0.14713 -0.06412,0.22483c-0.05516,0.10662 -0.10603,0.21293 -0.15246,0.31741l0.00173,0.04681l-0.01727,-0.00628l-0.09873,0.2715l-0.09801,0.0554c-0.32686,0.17674 -0.56604,0.49488 -0.63558,0.87242c-0.10729,0.0481 -0.20335,0.09133 -0.28663,0.12866c-0.43367,0.19439 0.35335,-0.88335 0.49602,-1.33667c0.15956,-0.50698 0.3704,-0.99658 0.5386,-1.50075c0.30005,-0.89936 0.8094,-1.92641 1.30154,-2.97761z"/><path d=""/><path d="M220.56843,133.40258c3.95716,-3.9325 8.99897,-7.43916 13.2374,-11.08725c2.97884,-2.56392 7.07623,-4.23071 10.56588,-5.97503c0.30566,-0.1528 0.78506,-0.19786 1.23575,-0.41959l-0.41949,3.38534c-0.02608,0.18658 -0.10242,0.22629 -0.10242,0.42007c0,2.25759 1.83702,4.08521 4.09461,4.08521c1.00517,0 1.93466,-0.36513 2.64654,-0.96694l2.91557,-2.42256c9.2758,-3.93032 18.55519,-4.25339 28.40271,-3.15904c5.93274,0.61664 11.77139,2.33421 16.62362,5.82533c0.22546,0.16223 3.18609,2.65887 5.72474,3.94935c-0.54462,0.17102 -1.03817,0.36116 -1.3802,0.53388c-3.5857,1.81073 -13.70886,8.68993 -12.38571,13.65142c0.8338,3.12661 10.95063,4.26279 13.39834,6.94706c2.40994,2.64287 3.2916,8.48664 3.919,11.69496c0,0 0.13323,0.67 0.56419,1.40621c0.15597,1.8831 0.35886,3.77039 0.44996,5.6577c0.03643,0.75512 -0.10121,1.53406 -0.14637,2.29547c-1.01021,-0.36821 -2.26986,-0.62758 -3.28034,-0.985c-6.21012,-2.19663 -12.02757,-6.57839 -18.60205,-7.6375c-2.642,-0.4256 -5.34966,-0.25048 -8.02258,-0.37961c-0.81518,3.93155 -1.6038,7.949 -1.58975,11.96413c0.00513,1.46863 -0.09114,2.9458 0.02563,4.40981c0.045,0.56447 0.76485,1.16758 0.45035,1.6385c-0.23836,0.35692 -0.64574,-0.57787 -1.0234,-0.7818c-2.10281,-1.1355 -4.31353,-2.08408 -6.36207,-3.31478c-2.12128,-1.27441 -6.17684,-3.73439 -8.01735,-5.44418c-4.98478,-4.63076 -5.90125,-8.90874 -14.05487,-7.58613c-4.66386,0.75651 -5.24677,2.59963 -8.67584,5.04359c-4.3993,3.13549 -8.66928,5.81072 -12.52369,9.71644c-0.10264,0.10401 -1.34818,1.12274 -2.30909,2.36611c-0.09989,-0.19011 -0.19443,-0.38239 -0.27492,-0.57664c-1.15458,-2.66878 -3.66379,-13.96818 -5.54381,-14.75277c-2.39249,-0.99845 -4.61983,1.9728 -6.95218,3.10461c-2.72781,1.32367 -6.86115,2.21694 -10.01782,3.4558c0.23993,-2.94514 -0.37074,-6.18764 1.14447,-9.13604c4.06938,-7.91845 8.9513,-15.41036 15.84696,-21.05304c0,0 3.14375,-2.62869 0.52686,-5.76899c-0.02947,-0.03538 -0.05899,-0.07017 -0.08859,-0.10408z" data-paper-data="{&quot;noHover&quot;:false,&quot;origItem&quot;:[&quot;Path&quot;,{&quot;applyMatrix&quot;:true,&quot;segments&quot;:[[[425.50777,338.13241],[-0.03606,-0.04328],[3.20092,3.84111]],[[424.86759,345.17444],[0,0],[-8.43459,6.90201]],[[405.48318,370.88051],[4.97755,-9.68563],[-1.85335,3.60637]],[[404.07859,382.04136],[0.29349,-3.6024],[3.86115,-1.51532]],[[416.14821,377.89302],[-3.33659,1.61909],[2.8529,-1.38438]],[[424.83532,374.01569],[-2.92643,-1.22129],[2.2996,0.9597]],[[431.59573,392.0304],[-1.41224,-3.26439],[0.09847,0.23763]],[[431.93102,392.73477],[-0.12219,-0.23256],[1.17537,-1.52085]],[[434.75547,389.84064],[-0.12554,0.12722],[4.71456,-4.77737]],[[450.06775,377.95007],[-5.38109,3.83522],[4.19433,-2.98938]],[[460.66134,371.76878],[-5.70469,0.92536],[9.97329,-1.61778]],[[477.77714,381.04173],[-6.09724,-5.6642],[2.25123,2.09134]],[[487.56584,387.70856],[-2.5947,-1.55881],[2.50571,1.50535]],[[495.33866,391.76878],[-2.5721,-1.38888],[0.46194,0.24944]],[[496.58961,392.72564],[-0.29156,0.43657],[0.38467,-0.576]],[[496.03746,390.72242],[0.05507,0.69045],[-0.14283,-1.79072]],[[496,385.33333],[0.00628,1.79639],[-0.01716,-4.91121]],[[497.92294,370.72564],[-0.99709,4.80896],[3.26944,0.15792]],[[507.73127,371.1994],[-3.23159,-0.52059],[8.04173,1.29548]],[[530.66866,380.61999],[-7.59605,-2.68685],[1.23598,0.43719]],[[534.49666,381.74739],[-1.23565,-0.45041],[0.05526,-0.93135]],[[534.67432,378.94317],[0.04457,0.92363],[-0.1114,-2.30848]],[[534.12109,372.03179],[0.19079,2.30338],[-0.52718,-0.90052]],[[533.43043,370.31391],[0,0],[-0.7674,-3.9243]],[[528.63399,356.03043],[2.94779,3.2327],[-2.99396,-3.28333]],[[512.24685,347.55165],[1.01986,3.82438],[-1.61839,-6.06879]],[[527.40287,330.87517],[-4.38591,2.21482],[0.41836,-0.21126]],[[529.09106,330.22211],[-0.66616,0.20919],[-3.10521,-1.57849]],[[522.09381,325.402],[0.2758,0.19844],[-5.93511,-4.27024]],[[501.78118,318.30275],[7.25675,0.75425],[-12.0452,-1.33859]],[[467.11332,322.19188],[11.34587,-4.80747],[0,0]],[[463.55947,325.15343],[0,0],[-0.87077,0.73612]],[[460.33333,326.33333],[1.22951,0],[-2.76142,0]],[[455.33333,321.33333],[0,2.76142],[0,-0.23702]],[[455.38172,320.63492],[-0.0319,0.22823],[0,0]],[[455.89956,316.49223],[0,0],[-0.55129,0.2712]],[[454.45832,317.19264],[0.37387,-0.18688],[-4.26845,2.13361]],[[441.56521,324.48177],[3.64362,-3.13612],[-5.18434,4.46224]],[[425.39934,338.00525],[4.8403,-4.81013],[0.03622,0.0415]]],&quot;closed&quot;:true}]}"/></g><path d="M228.10625,137.98198c0,1.48665 -0.88405,2.08925 -1.60073,2.3335c-0.34613,0.58431 -0.76184,1.13691 -1.27123,1.6463c-1.94522,1.94522 -5.60857,1.5257 -7.05242,3.46616c-1.30798,1.75786 -3.04999,5.01704 -3.82479,7.08759c-0.39101,1.04493 -0.33457,2.25752 -0.8851,3.22792c-0.54355,0.9581 -1.65517,1.48104 -2.29505,2.37768c-0.93012,1.30334 -1.71694,4.55294 -3.23714,5.42361c-5.91328,3.38673 -7.4444,2.51509 -6.97793,-4.46791c0.21412,-3.20531 2.9147,-7.58889 4.71434,-10.30437c3.46568,-4.61446 5.86322,-10.20221 10.67648,-13.52211l1.70049,-0.87183c0,0 2.23607,-1.11803 3.3541,1.11803v0.00001c0.14224,0.28447 0.23019,0.55085 0.27536,0.79913c0.45607,-0.17913 0.91524,-0.35005 1.37725,-0.51226c0.38836,-1.38821 0.55623,-2.91611 0.84482,-4.07049c0,0 0.60634,-2.42536 3.0317,-1.81902c2.42536,0.60634 1.81902,3.0317 1.81902,3.0317c-0.31923,1.27693 -0.55675,2.59844 -0.88745,3.88108c0.14728,0.31233 0.23828,0.6983 0.23828,1.17527zM209.43006,152.1574c-0.42736,0.6604 -0.83199,1.33807 -1.19654,2.03527c0.34512,-0.26543 0.67407,-0.54264 0.88746,-0.9127c0.19579,-0.33952 0.26371,-0.72625 0.30908,-1.12257z" fill="#4d2500" stroke="none" stroke-width="0.5" stroke-linecap="butt"/><path d="M240.39861,164.77746c1.14603,-2.6466 2.34413,-6.07975 3.74006,-6.93972c1.14333,-0.70436 2.6428,0.50153 3.98017,0.62308c0.42911,0.039 4.02513,-0.093 5.2018,-0.06133c0.72496,-0.09671 1.4697,-0.16852 2.10308,-0.3805l0.50017,0.40516l0.09484,-0.28453l2.44857,0.81619c1.02156,0.31417 1.76412,1.26534 1.76412,2.38994c0,0.58368 -0.20003,1.12065 -0.53527,1.54608c1.05837,0.45502 2.02549,1.01974 2.72034,1.3546l0.15412,0.22896l0.06024,-0.0753l2.06802,1.65441c0.5823,0.45772 0.9563,1.16848 0.9563,1.9666c0,0.49837 -0.14583,0.96267 -0.39714,1.35258c0.85025,0.05388 1.84934,-0.2385 2.42279,0.34465l0.04565,0.00652c0.0287,-0.01024 0.05741,-0.02048 0.08611,-0.03072l0.08124,0.05463l0.25206,0.03601l0.00959,-0.05755l2.46272,0.41045c1.20503,0.179 2.12954,1.21791 2.12954,2.47274c0,0.83658 -0.41091,1.57718 -1.04192,2.03099c1.91914,0.91573 3.92607,1.43116 5.25264,0.29398c1.15712,-4.21829 -0.03619,-8.39013 0.81084,-12.54422c0.31467,-1.54322 0.27952,-3.61066 1.61918,-4.43882c1.31077,-0.81031 3.07315,0.29784 4.58335,0.60448c3.94155,0.80031 7.82735,2.53789 11.62913,3.73795c1.21408,0.38324 2.51557,0.4409 3.72889,0.82654c0.21095,0.06705 0.42074,0.13989 0.62845,0.21884c-0.37726,-0.7049 -0.61225,-1.50451 -0.79725,-2.05573c-1.04703,-3.11965 -0.44575,-6.37321 -0.84346,-9.5064l-0.18029,-0.3155l-1.70274,-0.72975c-0.89118,-0.3582 -1.52836,-1.21488 -1.56636,-2.22488c-1.11796,-0.71013 -2.20139,-1.46958 -3.22464,-2.30686c-1.08234,-0.88562 -2.60045,-1.50559 -3.12132,-2.80346c-0.66606,-1.65966 -1.22705,-3.93062 -0.15596,-5.36271c0.97991,-1.31019 3.21868,-0.58938 4.82802,-0.88406c0,0 2.5,0 2.5,2.5c0,1.40358 -0.78802,2.01915 -1.47921,2.28911c0.22777,0.13467 0.41852,0.25654 0.52995,0.33928c1.60822,1.19413 3.28754,2.29707 5.01497,3.31589l1.934,0.42978c0.57088,-0.06851 1.14429,-0.10569 1.71954,-0.10412l0.1886,0.12268l0.0162,-0.09718l2.46272,0.41045c1.20503,0.179 2.12954,1.21791 2.12954,2.47274c0,1.35355 -1.07568,2.45586 -2.41882,2.49871c-0.43184,0.74886 -1.24067,1.25292 -2.16723,1.25292c-0.01636,0 -0.03269,-0.00016 -0.04898,-0.00047c0.12373,2.3219 -0.33983,5.09665 0.34038,7.15761c0.51416,1.55784 3.38046,5.31803 2.95926,6.4213c-0.67859,1.7775 -2.92125,2.74119 -4.78847,3.10652c-1.43729,0.28122 -2.76862,-0.96258 -4.18053,-1.35167c-2.65861,-0.73265 -5.25717,-1.66801 -7.88882,-2.49225c-2.23093,-0.69874 -5.13,-0.72369 -7.2598,-1.90202c0.00434,1.4451 0.00357,4.59822 0.00318,4.91822c-0.00422,3.47439 -0.51354,6.07941 -1.70094,9.35691c-1.10307,0.866 -2.00022,2.09476 -3.30922,2.59799c-4.14795,1.59464 -9.73959,-2.13318 -13.08027,-4.04632l-0.1157,-0.1664l-0.04074,0.05093l-2.06802,-1.65441c-0.22139,-0.17403 -0.41267,-0.38463 -0.56474,-0.62271c-3.074,-1.00533 -6.18511,-2.89129 -7.11076,-5.03609c-0.12977,-0.3007 -0.2713,-0.62044 -0.40946,-0.9511c-1.49881,-1.17783 -3.0819,-2.8233 -3.83936,-4.53827c-1.07005,0.01067 -2.16706,0.22445 -3.20363,-0.0326c-0.47406,-0.11756 -0.6764,-1.38649 -1.02635,-1.04576c-0.49698,0.48389 0.15592,1.41418 -0.03649,2.0806c-0.27731,0.96048 -0.86212,1.80499 -1.33904,2.68361c-2.0149,3.71202 -5.24576,7.75267 -9.16164,9.66189c-1.56825,0.76462 -3.37022,2.75045 -4.88383,1.88269c-0.73746,-0.42279 -1.30709,-0.83708 -1.73584,-1.24197c-0.3393,0.55994 -0.95856,1.07092 -2.08881,1.07092c-2.21922,0 -2.46847,-1.96998 -2.49646,-2.41248c-2.32487,-3.39505 -3.37474,-6.89327 -4.73804,-10.6267l-0.78788,-0.13085c-0.9216,1.14875 -1.56966,2.58564 -2.76479,3.44625c-0.95153,0.68519 -2.28514,0.55564 -3.37904,0.97789c-1.98687,0.76694 -3.92435,1.7022 -5.9881,2.2283c0,0 -2.42536,0.60634 -3.0317,-1.81902c-0.60634,-2.42536 1.81902,-3.0317 1.81902,-3.0317c3.5838,-0.87476 7.3268,-1.79472 9.34461,-4.80172l3.35708,-1.58759c0,0 0.49963,-0.16654 1.11669,-0.11743c0.22363,-0.20886 0.51531,-0.39685 0.89306,-0.54795c2.32119,-0.92848 3.24967,1.39272 3.24967,1.39272c1.68813,4.23784 2.46196,8.23824 5.12636,11.93677c0.85993,-1.15472 2.25656,-2.14868 2.97166,-2.94146c1.07546,-1.19228 1.68089,-2.8701 3.02469,-3.74893c1.09119,-0.71362 2.56043,-0.49393 3.84065,-0.7409l1.15336,-0.92049c0,0 0.25498,-0.15299 0.64183,-0.2655z" fill="#4d2500" stroke="none" stroke-width="0.5" stroke-linecap="butt"/><path d="M284.75001,212.75001v16l-16,3.5l35,1v13.5l-11,6l-81,-1l-7.5,-6.5l-0.5,-13.5l18.5,0.5l43.5,0.5v-21" fill="none" stroke="#002dff" stroke-width="5" stroke-linecap="round"/><path d="M265.66668,250.08335c0,1.25 -1.25,1.25 -1.25,1.25h-0.8344c-6.34984,-0.00539 -12.7188,-0.08461 -19.06304,-0.34611c-2.97957,-0.12282 -6.15258,-0.22492 -9.16007,-0.81399c-7.35084,0.06347 -14.70229,0.0421 -22.00818,-0.34163c0,0 -1.24827,-0.0657 -1.18257,-1.31397c0.0657,-1.24827 1.31397,-1.18258 1.31397,-1.18258c5.17619,0.273 10.37421,0.35918 15.57844,0.36245c0.22624,-0.32109 0.5999,-0.53084 1.02254,-0.53084h2.5v0.13397c0.61919,0.07076 1.23815,0.13459 1.85698,0.19211c0.72036,0.00558 1.44242,0.07006 2.17108,0.16308c5.85612,-0.0592 11.71055,-0.15978 17.54107,-0.15392c0.55066,0.06149 1.10132,0.12297 1.65198,0.18446l0.07313,0.05335l0.00894,-0.03573l1.30797,0.32699c0.41803,0.09486 0.75647,0.39923 0.89912,0.79688c1.83356,0.0051 3.66479,0.00393 5.4908,0.00548h0.83227c0,0 1.25,0 1.25,1.25z" fill="#0038ff" stroke="none" stroke-width="0.5" stroke-linecap="butt"/><path d="M253.82142,241.8289c0.01504,-0.12119 0.04936,-0.25208 0.10808,-0.39299c0.48077,-1.15384 1.63462,-0.67307 1.63462,-0.67307c2.29383,0.9686 4.78383,1.3627 7.32886,1.49774c1.69398,-0.0753 3.40841,-0.09389 5.19037,-0.09389c1.46821,0 2.74396,-0.32946 3.78998,0.00848c0.23773,-0.00364 0.47445,-0.00624 0.71002,-0.00754v-0.00094h1.83807c4.96355,-0.62021 9.97065,-0.99591 14.95521,-1.3731c-0.01376,-0.07428 -0.02096,-0.15087 -0.02096,-0.22913c0,-0.38557 0.17457,-0.73037 0.44898,-0.95967l1.90134,-1.60973l0.02564,0.03028l0.09208,-0.1186c1.17344,-0.59618 2.67501,-1.66452 4.15424,-2.48215c0.20116,-0.22859 0.48449,-0.38311 0.80381,-0.41738c0.50791,-0.24442 1.00538,-0.44252 1.47765,-0.56385c0.18656,-0.45567 0.63443,-0.77668 1.15727,-0.77668c0.40404,0 0.76331,0.1917 0.99181,0.4891l0.28088,-1.31076c0.11127,-0.57637 0.61845,-1.01167 1.22731,-1.01167c0.69036,0 1.25,0.55964 1.25,1.25c0,0.05286 -0.00328,0.10496 -0.00965,0.15609l-0.16466,1.48195c-0.05149,0.45783 -0.12914,0.91148 -0.22498,1.36196h0.06596v0.61684c0.09155,-0.05253 0.18348,-0.10367 0.2759,-0.15313c0.16357,-0.27663 0.34136,-0.56992 0.53556,-0.88558l0.8344,-1.49798c0.21013,-0.39475 0.62575,-0.66349 1.10414,-0.66349c0.41835,0 0.78871,0.20552 1.0156,0.5211c-0.03237,0.32747 -0.04894,0.65958 -0.04894,0.99556c0,0.20761 0.00633,0.41375 0.0188,0.61822l-0.66495,1.59588l-0.04322,-0.01801c-0.02172,0.07808 -0.04565,0.15569 -0.07202,0.23279c-0.14497,0.42387 -0.427,0.8131 -0.8034,1.16969c0.40683,1.01997 -0.40558,1.88438 -1.1479,2.55142h1.41269c0.69036,0 1.25,0.55964 1.25,1.25c0,0.49901 -0.2924,0.92971 -0.71521,1.13014l-0.48967,0.24483c0.48043,0.08582 0.966,0.18747 1.45981,0.30781c-0.00328,0.10533 -0.00493,0.21108 -0.00493,0.31721c0,0.26406 0.01023,0.52574 0.03033,0.78465l-1.84431,0.95143c-1.2595,0.18534 -2.51399,0.34962 -3.76531,0.49494c-0.10516,0.12196 -0.21048,0.24257 -0.3163,0.36206l1.23379,0.30438c-0.26747,0.32762 -0.70967,0.79103 -1.25752,1.29109c0.7947,0.29275 1.57378,0.63841 2.33415,1.04559l-3.12543,1.3988c-1.188,0.13147 -2.38056,0.23641 -3.57662,0.31949c-0.50108,0.1396 -0.9779,0.182 -1.40289,0.08761c-7.11019,0.39576 -14.32828,0.08642 -21.42843,0.04723c-2.88198,0.75066 -5.68572,1.19052 -8.64422,0.05132l0.01115,-0.00765c-0.19137,-0.01297 -0.38228,-0.02834 -0.57269,-0.04642c-0.55656,-0.00057 -1.10978,-0.00128 -1.65902,-0.0012l-0.12478,-0.25996c-0.19583,-0.04 -0.391,-0.08402 -0.58546,-0.13243c-1.24189,-0.02792 -2.4827,-0.06422 -3.72305,-0.10544c-1.38169,0.0029 -2.76336,0.00804 -4.14502,0.01685c-0.68928,0.04148 -1.37927,0.07534 -2.06983,0.10279l-0.03524,0.04485c-0.4459,0 -0.89188,0.00058 -1.33794,0.00161c-2.3935,0.06745 -4.79252,0.06761 -7.19073,0.05063c-1.25978,0.04784 -2.50417,0.07712 -3.72854,0.00003c-3.87993,0.00385 -7.75897,-0.03207 -11.63008,-0.18676c-4.6636,-0.18636 -9.40091,-0.26541 -13.68047,-1.83898c-2.10549,-0.45143 -4.12635,-1.10705 -6.01132,-2.0463l3.57908,-1.1469c0.08945,0 0.17889,0 0.26834,0c0.15444,-1 1.23166,-1 1.23166,-1c5.67525,0 11.37168,-0.14971 17.04065,0.11967l1.16483,0.45226c1.11093,-0.03618 2.26426,0.01479 3.40691,0.09272c1.42446,0.00364 2.84781,0.01224 4.27034,0.03042l1.78394,-0.69507c2.44724,0 4.89449,0 7.34172,0c-0.8179,-0.1526 -1.59927,-0.2787 -2.31184,-0.34084l-0.02721,-0.01255l-0.00122,0.00909l-2.46079,-0.3281c-0.62064,-0.07317 -1.10208,-0.60103 -1.10208,-1.24134c0,-0.68979 0.55873,-1.24907 1.2483,-1.24999c0.00007,0 0.00015,0 0.00021,0l2.14452,-0.00293l0.00038,0.27765l0.16433,0.02191c2.48281,-0.37946 4.91842,-0.32294 7.57506,-0.30401z" fill="#002fff" stroke="none" stroke-width="0.5" stroke-linecap="butt"/><path d="M225.44379,223.16529c0,-6.10824 4.95171,-11.05995 11.05995,-11.05995c6.10824,0 11.05995,4.95171 11.05995,11.05995c0,6.10824 -4.95171,11.05995 -11.05995,11.05995c-6.10824,0 -11.05995,-4.95171 -11.05995,-11.05995z" fill="#ffffff" stroke="#000000" stroke-width="0" stroke-linecap="butt"/><path d="M234.45001,219.86668c0,-1.25 1.25,-1.25 1.25,-1.25c0.93333,0 2.46667,0 3.4,0c0,0 1.25,0 1.25,1.25c0,1.25 -1.25,1.25 -1.25,1.25c-0.93333,0 -1.86666,0 -2.8,0h-0.6c0,0 -1.25,0 -1.25,-1.25z" fill="#e6e6e6" stroke="none" stroke-width="0.5" stroke-linecap="butt"/><path d="M237.28335,224.61668c0,-1.5 1.25,-1.5 1.25,-1.5c0.93333,0 2.46667,0 3.4,0c0,0 1.25,0 1.25,1.5c0,1.5 -1.25,1.5 -1.25,1.5c-0.93333,0 -1.86667,0 -2.8,0h-0.6c0,0 -1.25,0 -1.25,-1.5z" fill="#e6e6e6" stroke="none" stroke-width="0.5" stroke-linecap="butt"/><path d="M234.95001,228.36668c0,-1.25 1.25,-1.25 1.25,-1.25c0.93333,0 2.46667,0 3.4,0c0,0 1.25,0 1.25,1.25c0,1.25 -1.25,1.25 -1.25,1.25c-0.93333,0 -1.86666,0 -2.8,0h-0.6c0,0 -1.25,0 -1.25,-1.25z" fill="#e6e6e6" stroke="none" stroke-width="0.5" stroke-linecap="butt"/><path d="M292.66668,238.08335c0,-0.69036 0.55964,-1.25 1.25,-1.25c0.69036,0 1.25,0.55964 1.25,1.25c0,0.69036 -0.55964,1.25 -1.25,1.25c-0.69036,0 -1.25,-0.55964 -1.25,-1.25z" fill="#002fff" stroke="none" stroke-width="0.5" stroke-linecap="butt"/><path d="M291.70114,234.27504c0.92027,-0.21651 1.84146,-0.42928 2.76387,-0.63726c1.60202,-0.43257 3.31586,-0.92088 4.90164,-1.05145c0.85692,-0.17339 1.71532,-0.34108 2.57543,-0.50223l0.02377,0.0049l-0.00127,-0.00848l1.97809,-0.29671c0.06744,-0.01126 0.1367,-0.01712 0.20734,-0.01712c0.69036,0 1.25,0.55964 1.25,1.25c0,0.01493 -0.00026,0.02981 -0.00078,0.04461l0.64049,0.04298c-0.58678,0.9308 -0.9533,2.0445 -1.76035,2.79241c-1.81694,1.6838 -5.66521,2.01242 -8.53103,2.54378c-0.40431,0.81093 -1.36949,0.59645 -1.36949,0.59645l-0.10146,-0.27077c-0.05918,0.01627 -0.11741,0.03285 -0.17467,0.04974l0.09588,-0.26l-0.00696,-0.01857c-1.05344,0.36805 -2.10473,0.74387 -3.15444,1.12786c0.44831,0.18991 0.76281,0.63398 0.76281,1.1515c0,0.5723 -0.3846,1.05476 -0.90943,1.20304l-1.27296,0.39168l-0.00193,-0.00627l-0.01457,0.01122c-0.6946,0.18882 -1.42098,0.2348 -2.15111,0.18767v0.36266h-1.7v0c-0.11389,0 -0.22422,-0.01523 -0.32906,-0.04377c-1.01443,0.50775 -2.02886,1.01549 -3.0433,1.52324l-1.33761,-0.15648c-3.72397,0.33726 -7.42351,1.0767 -10.97628,2.26853c-0.81916,0.2748 -2.97186,1.19723 -3.82564,1.70202c-0.43032,0.25443 -1.50447,0.65482 -1.13002,0.98601c0.98559,0.8717 2.07385,1.64425 2.93679,2.63752l-3.55073,0.7047c-2.05996,-0.23471 -4.16411,-0.26424 -6.2164,-0.4654c-1.37753,0.0161 -2.60154,-0.26409 -4.52775,-0.25638l-0.94786,-0.8463c-0.6039,-0.08573 -1.20925,-0.17142 -1.81623,-0.26451c-9.55058,-1.0704 -19.39052,-0.1104 -28.99255,-0.59047c-0.48744,-0.02437 -1.06441,-0.02966 -1.69975,-0.02994c-1.92712,0.58161 -3.86906,1.0988 -5.93557,1.12654c-0.81976,0.011 -1.7329,0.24431 -2.45532,-0.14329c-0.42779,-0.22952 -0.01077,-1.12621 -0.41419,-1.39629c-0.2627,-0.17588 -0.57932,-0.19307 -0.90854,-0.17322l-0.00388,0.0017c-0.15991,0.0743 -0.33816,0.11578 -0.5261,0.11578c-0.13861,0 -0.27196,-0.02256 -0.39656,-0.06421c-0.00568,-0.00032 -0.01136,-0.00066 -0.01703,-0.00103l-0.01531,-0.01027c-0.19083,-0.06971 -0.35991,-0.18459 -0.49429,-0.33171l-0.11751,-0.07886c-0.22112,0.35206 -0.61288,0.58609 -1.05931,0.58609c-0.5623,0 -1.03788,-0.37128 -1.19497,-0.88206l-0.39089,-1.17266l0.00896,-0.00299l-0.01727,-0.02287c-0.31651,-1.10736 -1.70489,-4.13245 -0.80188,-5.60563c-0.27728,-0.22927 -0.45396,-0.5759 -0.45396,-0.9638c0,-0.40827 0.19573,-0.77083 0.49848,-0.99895l0.37965,-0.29204c-0.014,-0.40833 0.00177,-0.83686 0.04335,-1.28008c-0.23325,-0.22474 -0.43044,-0.46981 -0.57512,-0.74203c-0.41911,-0.78857 -0.41867,-1.53974 -0.22673,-2.26381l-0.0172,-0.00107l0.09943,-1.59087c0.03573,-0.65834 0.58088,-1.18116 1.24814,-1.18116c0.61444,0 1.12533,0.44333 1.23027,1.02756l0.07449,0.37245c0.0633,0.00024 0.12549,0.00518 0.18624,0.01449c-0.02626,-0.10783 -0.041,-0.2288 -0.041,-0.3645c0,-1.25 1.25,-1.25 1.25,-1.25h3.4c0.69036,0 1.25,0.55964 1.25,1.25c0,0.18956 -0.04219,0.36926 -0.1177,0.53023c3.49189,-0.42012 7.1156,-0.21354 10.63556,0.13922c0.19955,-0.42509 0.63147,-0.71945 1.13215,-0.71945c0.02679,0 0.05338,0.00084 0.07976,0.0025l1.78958,0.09942l-0.00007,0.00119l0.00313,-0.00101c2.19384,0.13271 6.97408,-0.15324 9.74362,0.88916c0.56285,0.03057 1.16061,0.07063 1.8113,0.10874h0.04831c2.08937,-0.1192 4.15231,-0.17844 6.15949,-0.19503c-0.1174,-0.19046 -0.18513,-0.41481 -0.18513,-0.65497c0,-0.69036 0.55964,-1.25 1.25,-1.25h2.2c7.30404,0.00147 14.61469,0.7659 21.92509,0.90766c3.83931,0.07445 8.12781,-0.13873 11.98365,0.6927c0.08341,0.00002 0.16682,0.00005 0.25023,0.00008l0.54103,-0.02848v-0.07195h1.4c0.54458,0 1.00782,0.34825 1.17918,0.83419c1.99878,-0.24939 3.99085,-0.5227 5.97196,-0.82583zM267.14496,244.85138l-0.01265,-0.0801c-0.314,0.01833 -0.62809,0.03605 -0.94226,0.0532c-3.73814,1.02047 -7.91331,1.24416 -12.06764,1.21886c0.42851,0.24023 0.84985,0.49392 1.26322,0.76232l-2.9688,1.05208c-5.02891,-0.21151 -10.02229,-0.40044 -14.94536,-1.5225c0,0 -0.2686,-0.06139 -0.52476,-0.25264c-0.53594,0.63286 -1.00594,1.35532 -1.7321,1.72971c-0.08492,0.04378 -0.17165,0.08507 -0.26006,0.124c5.47141,-0.10542 10.94868,-0.25533 16.35955,0.34117c2.32618,0.35888 4.61464,0.62459 6.90805,1.14912c1.46269,0.02702 2.94758,0.21674 4.45803,0.41492c-0.42566,-1.68582 1.03749,-2.8873 2.18171,-3.66842c0.72616,-0.49572 1.51057,-0.93715 2.33855,-1.33051zM218.66752,246.50853l-0.12451,0.07885c0.06241,-0.02318 0.12478,-0.04603 0.18711,-0.06856c-0.02087,-0.00341 -0.04174,-0.00684 -0.06261,-0.0103zM218.50678,246.61033l-0.00319,-0.00504l-0.0035,-0.00191c0.00062,-0.00023 0.00124,-0.00046 0.00186,-0.00069l-0.08701,-0.13739c-0.0295,-0.00521 -0.059,-0.01047 -0.08848,-0.01579c-0.34287,0.25766 -0.69923,0.50037 -1.06576,0.71568c0.94983,0.0949 1.90178,0.20766 2.85236,0.31648l-1.60346,-0.87312zM209.29142,247.19471l0.08329,0.03123l0.29667,-0.40263c-0.14334,0.10552 -0.26827,0.23114 -0.37996,0.3714z" fill="#002fff" stroke="none" stroke-width="0.5" stroke-linecap="butt"/><path d="" fill="#002fff" stroke="none" stroke-width="0.5" stroke-linecap="butt"/><path d="M263.2,227.51668c0,-1.24264 1.00736,-2.25 2.25,-2.25c1.24264,0 2.25,1.00736 2.25,2.25c0,1.24264 -1.00736,2.25 -2.25,2.25c-1.24264,0 -2.25,-1.00736 -2.25,-2.25z" fill="#fff100" stroke="none" stroke-width="0.5" stroke-linecap="butt"/><path d="M282.40001,226.91668c0,-1.24264 1.00736,-2.25 2.25,-2.25c1.24264,0 2.25,1.00736 2.25,2.25c0,1.24264 -1.00736,2.25 -2.25,2.25c-1.24264,0 -2.25,-1.00736 -2.25,-2.25z" fill="#fff100" stroke="none" stroke-width="0.5" stroke-linecap="butt"/><path d="M312.26981,118.95321l0.03576,0.40792c0,0 0,0.11728 -0.0568,0.23824c0.00326,0.07125 0.00639,0.14248 0.00941,0.21373c0.00387,0.00962 0.00774,0.01928 0.01163,0.02899l0.03576,0.40792c0,0 0,0.06838 -0.02529,0.15457c0.0107,0.33298 0.01832,0.66584 0.02213,0.99832l0.08862,0.24455c0,0 0.09623,0.2887 -0.08668,0.49072c-0.02112,3.1881 -0.44271,6.32509 -1.90447,9.19082c3.55425,-0.94424 7.29238,-1.324 10.85015,-1.32898h1.66667c0,0 2.25,0 2.25,2.25c0,2.25 -2.25,2.25 -2.25,2.25h-1.66667c-6.01841,-0.00938 -13.1981,1.14974 -17.89292,5.14516c0,0 -1.46219,1.21849 -2.81758,0.06924c-2.42881,1.05569 -5.0559,1.83389 -7.67757,2.38134c-3.73931,5.21436 -9.31569,9.14429 -15.54276,10.36796l-1.73583,0.03629c0,0 -1.94074,0 -2.21735,-1.80243c-17.33344,-3.05465 -34.47823,4.71335 -51.78265,4.80243c-2.83821,0 -6.22728,0.41929 -8.98535,-0.42988c-5.41654,-1.66766 -10.92126,-5.68459 -15.35951,-9.01628c-3.0152,-2.26343 -4.85895,-3.29729 -5.23281,-7.31101c-0.30877,-3.31493 0.77053,-6.23455 2.22701,-9.15593c3.12265,-6.26336 7.49475,-12.32964 12.42634,-17.26123c1.2467,-1.24528 3.2906,-3.40089 4.73534,-4.3192c5.78588,-3.67764 13.9993,-3.00648 20.52231,-3.00648c4.64228,0 9.63477,-0.53984 14.23704,0.01252c7.10908,0.85323 14.10762,1.90723 21.19342,2.76315c5.66265,-2.43987 11.46671,-4.48998 17.6905,-6.04183c6.8069,-1.69725 14.62009,-2.42474 21.02805,0.75254c2.92457,0.93082 4.06041,0.75621 5.6279,4.31632c0.23366,0.53069 0.09491,5.5437 0.13696,6.33521c0.09834,1.85085 0.27025,3.75818 0.37797,5.67457c0.02179,0.04626 0.04226,0.09314 0.06129,0.1407z" fill="#00994d" stroke="#00994d" stroke-width="0" stroke-linecap="butt"/><path d="M312.25001,120.58335c0,4.60237 -0.67158,8.33333 -1.5,8.33333c-0.82842,0 -1.5,-3.73095 -1.5,-8.33333c0,-4.60237 0.67158,-8.33334 1.5,-8.33334c0.82842,0 1.5,3.73096 1.5,8.33334z" fill="#ffffff" stroke="none" stroke-width="0" stroke-linecap="butt"/><path d="M310.7,115.9l-0.3,8.3h1.4" fill="none" stroke="#00994d" stroke-width="0.5" stroke-linecap="round"/></g></g></svg>