<svg version="1.1" xmlns="http://www.w3.org/2000/svg" xmlns:xlink="http://www.w3.org/1999/xlink" width="161.82075" height="146.53567" viewBox="0,0,161.82075,146.53567"><g transform="translate(-159.08963,-106.73217)"><g data-paper-data="{&quot;isPaintingLayer&quot;:true}" fill-rule="nonzero" stroke-linejoin="miter" stroke-miterlimit="10" stroke-dasharray="" stroke-dashoffset="0" style="mix-blend-mode: normal"><path d="M167.01992,202.27914c-5.61357,-3.88411 -8.15345,-9.28599 -7.91496,-16.28922c0.1339,-3.93182 -0.43507,-4.47419 3.67544,-6.67221c0.97889,-0.52344 2.17562,-0.44469 3.27063,-0.62676c3.67132,-0.61045 9.15368,-1.20978 12.80814,-0.40147c4.35979,0.96432 7.73288,4.86032 12.06277,6.10249c2.03151,-0.02147 4.74737,0.44015 6.69044,-0.30914c7.54694,-2.91027 15.57298,-5.65007 23.89501,-4.97382c2.92784,0.23792 5.29557,1.76114 8.09523,2.21848c2.85298,0.46605 4.4615,-1.06301 6.60342,2.5528c1.17655,1.98616 0.33349,7.87234 -0.17564,10.12144c-0.84889,3.74998 -1.37675,6.05119 -3.74363,9.11896c-2.5991,2.10048 -5.14363,4.5486 -8.29771,5.81929c-7.31969,2.9489 -16.05592,1.93603 -23.75712,1.93603c-4.47902,0 -9.47789,0.61005 -13.91269,-0.01873c-5.3783,-0.76255 -10.31991,-3.24608 -15.40917,-4.93793l-2.33262,-0.9284c0,0 -1.95972,-0.78389 -1.55754,-2.7118z" fill="#000dff" stroke="none" stroke-width="0.5" stroke-linecap="butt"/><path d="M201.81943,242.75282c0,-10.27806 0,-66.36932 0,-91.55549c0,-7.49466 5.42318,-12.25274 10.76769,-12.25274c11.87283,0 58.78358,0 80.41382,0c6.7446,0 11.03124,5.3852 11.03124,13.706c0,1.52156 0,78.98417 0,88.64896c0,5.94573 -3.8775,11.96829 -10.0624,11.96829c-21.29936,0 -69.96342,0 -81.86707,0c-5.13731,0 -10.28327,-5.19742 -10.28327,-10.51503z" fill="#000dff" stroke="none" stroke-width="5" stroke-linecap="butt"/><path d="M202.31063,235.5646v-9.69639h101.20611v9.69639z" fill="#000dff" stroke="none" stroke-width="5" stroke-linecap="butt"/><path d="M206.85582,230.2028c0,-1.23774 0,-4.03158 0,-4.03158h97.26695v6.96928c0,0 -79.81776,0 -91.81273,0c-2.92357,0 -5.45422,-1.88114 -5.45422,-2.9377z" fill="#000dff" stroke="none" stroke-width="5" stroke-linecap="butt"/><path d="M248.43424,205.45243c0,-5.71717 0,-18.56382 0,-28.58081c0,-7.59532 5.87728,-13.56378 10.65725,-13.56378c9.8278,0 45.05111,0 45.05111,0v55.22395c0,0 -30.94544,0 -41.17575,0c-6.07771,0 -14.53262,-7.47943 -14.53262,-13.07936z" fill="#ffd797" stroke="none" stroke-width="5" stroke-linecap="butt"/><path d="M203.51075,194.26827c0,-7.63237 0,-24.78254 0,-38.15513c0,-10.13968 10.61673,-18.10753 19.25131,-18.10753c17.75297,0 81.38053,0 81.38053,0v73.72349c0,0 -55.89997,0 -74.38005,0c-10.97879,0 -26.25177,-9.98497 -26.25177,-17.46082z" fill="#ffdca3" stroke="none" stroke-width="5" stroke-linecap="butt"/><path d="M225.44379,223.16529c0,-6.10824 4.95171,-11.05995 11.05995,-11.05995c6.10824,0 11.05995,4.95171 11.05995,11.05995c0,6.10824 -4.95171,11.05995 -11.05995,11.05995c-6.10824,0 -11.05995,-4.95171 -11.05995,-11.05995z" fill="#ffd797" stroke="none" stroke-width="5" stroke-linecap="butt"/><path d="M228.47392,224.52884c0,-5.18782 4.20556,-9.39338 9.39338,-9.39338c5.18782,0 9.39338,4.20556 9.39338,9.39338c0,5.18782 -4.20556,9.39338 -9.39338,9.39338c-5.18782,0 -9.39338,-4.20556 -9.39338,-9.39338z" fill="#ffdca3" stroke="none" stroke-width="5" stroke-linecap="butt"/><path d="M289.9333,224.51048c0,-0.83674 0.67832,-1.51506 1.51506,-1.51506c0.83674,0 1.51506,0.67832 1.51506,1.51506c0,0.83674 -0.67832,1.51506 -1.51506,1.51506c-0.83674,0 -1.51506,-0.67832 -1.51506,-1.51506z" fill="#000dff" stroke="none" stroke-width="5" stroke-linecap="butt"/><path d="M290.23631,230.87373c0,-0.83674 0.67832,-1.51506 1.51506,-1.51506c0.83674,0 1.51506,0.67832 1.51506,1.51506c0,0.83674 -0.67832,1.51506 -1.51506,1.51506c-0.83674,0 -1.51506,-0.67832 -1.51506,-1.51506z" fill="#000dff" stroke="none" stroke-width="5" stroke-linecap="butt"/><path d="M290.23631,238.14603c0,-0.83674 0.67832,-1.51506 1.51506,-1.51506c0.83674,0 1.51506,0.67832 1.51506,1.51506c0,0.83674 -0.67832,1.51506 -1.51506,1.51506c-0.83674,0 -1.51506,-0.67832 -1.51506,-1.51506z" fill="#000dff" stroke="none" stroke-width="5" stroke-linecap="butt"/><path d="M277.35074,201.34864v-14.8476" fill="none" stroke="#000000" stroke-width="5" stroke-linecap="round"/><path d="M289.77425,186.50104v14.8476" fill="none" stroke="#000000" stroke-width="5" stroke-linecap="round"/><g fill="#000000" stroke="none" stroke-width="0.5" stroke-linecap="butt"><path d="M318.74636,152.18496c3.58861,1.9574 1.63118,5.54604 1.63118,5.54604l-2.84803,4.82734c0.6541,4.1322 2.2034,14.36894 -2.15771,17.02496c-2.19326,1.33575 -4.95724,-1.34871 -7.40557,-2.12352c-6.25888,-1.98071 -11.67114,-5.16725 -17.72691,-7.51954c-1.3648,-0.53016 -3.05085,-0.99973 -4.19134,-1.90883c1.9923,4.20005 0.68389,14.40718 -2.17046,16.58056c-2.05201,1.56247 -5.1304,1.02804 -7.6978,0.78227c-5.69684,-0.54536 -14.34822,-7.18167 -18.34451,-10.85126c-2.0268,-1.86109 -3.41634,-6.49117 -6.71819,-5.49969c-2.11304,0.63449 -3.7162,2.38267 -5.51008,3.66699c-4.04529,2.89628 -7.86576,5.27241 -11.46287,8.80997c-1.70444,1.67621 -6.70458,8.78072 -7.35906,8.83548c-5.03606,0.4215 -7.16795,-6.30153 -8.58874,-9.53565c-0.54884,-1.29098 -1.90112,-4.18405 -2.58804,-6.50757c-0.76505,0.36633 -1.58314,0.66211 -2.34185,0.99861c-3.94612,1.75023 -15.86605,6.58511 -19.65054,2.54144c-1.62895,-1.74049 0.7177,-4.71799 0.89704,-7.09508c0.09513,-1.26078 -0.15804,-2.53065 -0.07559,-3.79233c0.41829,-6.39904 3.1352,-12.82342 6.92398,-18.65239c-1.18155,-0.22707 -2.59577,-0.97564 -3.03727,-3.18327c-0.80166,-4.00834 3.20668,-4.81 3.20668,-4.81l0.86657,0.35967c4.64949,-3.9803 8.02337,-8.60055 12.30553,-12.86758c7.32081,-7.29491 16.80736,-14.62532 26.22464,-18.79576c3.926,-1.73863 10.26101,-4.39168 14.00361,0.57627c0.50522,0.67063 0.92173,1.27852 1.25934,1.82934c9.03714,-2.83117 18.09476,-3.30162 27.80307,-2.2231c5.27704,0.6172 11.2145,1.90506 16.06398,4.20763c2.42765,1.15266 5.42259,4.18647 7.83558,5.55822c3.07786,1.74968 8.92262,2.46108 9.15164,7.55259c0.37927,8.43151 -5.2665,6.3769 -9.30559,8.37508c-1.54433,0.76399 -2.74115,2.18725 -4.06786,3.3251c0.73646,0.26078 1.42625,0.57361 1.93091,0.85333c1.91382,1.06071 4.00095,1.99498 5.49068,3.59764c2.14084,2.30309 3.48048,5.72137 4.42317,9.13458c0.85452,-0.30811 1.93641,-0.32336 3.23038,0.38244zM220.73353,133.53552c2.61692,3.1403 -0.52338,5.75717 -0.52338,5.75717c-6.89566,5.64273 -11.77829,13.09747 -15.84767,21.01594c-1.5152,2.94838 -0.90839,6.1794 -1.14834,9.12453c3.15667,-1.23884 7.13966,-2.06778 9.86749,-3.39146c2.33236,-1.13178 4.70965,-4.16838 7.10212,-3.16989c1.88004,0.7846 4.37239,12.05909 5.52694,14.72787c0.0805,0.19429 0.1742,0.38574 0.27411,0.57586c0.96093,-1.24336 2.20649,-2.26208 2.30913,-2.3661c3.85437,-3.90572 8.11922,-6.58564 12.5185,-9.72111c3.42908,-2.44396 3.99691,-4.29696 8.66077,-5.05348c8.15366,-1.32261 9.00821,2.9503 13.99298,7.58108c1.84048,1.70979 5.88145,4.17606 8.00273,5.45047c2.04854,1.23068 4.25183,2.18392 6.35464,3.31942c0.37767,0.20391 0.78434,1.1392 1.0227,0.78227c0.31449,-0.47091 -0.4064,-1.07325 -0.45142,-1.63773c-0.11675,-1.46398 -0.02551,-2.93719 -0.03063,-4.40582c-0.01405,-4.01513 0.75693,-8.01092 1.57209,-11.94247c2.67292,0.12911 5.3768,-0.03826 8.01876,0.38733c6.57447,1.05913 12.54226,5.50513 18.75241,7.70176c1.01047,0.35743 2.11937,0.55347 3.12958,0.92171c0.04517,-0.76144 0.18166,-1.53746 0.14523,-2.2926c-0.09109,-1.88729 -0.29633,-3.76727 -0.45229,-5.65037c-0.43101,-0.73621 -0.56465,-1.40446 -0.56465,-1.40446c-0.62739,-3.20828 -1.51134,-9.03453 -3.92131,-11.67742c-2.44769,-2.68429 -12.56349,-3.8052 -13.39727,-6.93178c-1.3231,-4.96151 8.80508,-11.82307 12.39075,-13.6338c0.34204,-0.17271 0.83553,-0.36288 1.38017,-0.53392c-2.53867,-1.29049 -5.4951,-3.77843 -5.7206,-3.94067c-4.85223,-3.49112 -10.67378,-5.18734 -16.60652,-5.80398c-9.84754,-1.09438 -19.06681,-0.7508 -28.34261,3.17955l-2.90545,2.42121c-0.71189,0.60181 -1.63234,0.96463 -2.63753,0.96463c-2.25759,0 -4.08774,-1.83013 -4.08774,-4.08773c0,-0.19377 0.0135,-0.38441 0.03958,-0.57097l0.42335,-3.38685c-0.45071,0.22172 -0.87261,0.41983 -1.17827,0.57264c-3.48965,1.74432 -7.56189,3.39529 -10.54073,5.95921c-4.23845,3.6481 -9.25918,7.12357 -13.21638,11.05605c0.02962,0.03391 0.05919,0.06858 0.08866,0.10396z"/><path d="M220.56843,133.4026c3.95716,-3.9325 8.99897,-7.43916 13.2374,-11.08725c2.97884,-2.56392 7.07623,-4.23071 10.56588,-5.97503c0.30566,-0.1528 0.78506,-0.19786 1.23575,-0.41959l-0.41949,3.38534c-0.02608,0.18658 -0.10242,0.22629 -0.10242,0.42007c0,2.25759 1.83702,4.08521 4.09461,4.08521c1.00517,0 1.93466,-0.36513 2.64654,-0.96694l2.91557,-2.42256c9.2758,-3.93032 18.55519,-4.25339 28.40271,-3.15904c5.93274,0.61664 11.77139,2.33421 16.62362,5.82533c0.22546,0.16223 3.18609,2.65887 5.72474,3.94935c-0.54462,0.17102 -1.03817,0.36116 -1.3802,0.53388c-3.5857,1.81073 -13.70886,8.68993 -12.38571,13.65142c0.8338,3.12661 10.95063,4.26279 13.39834,6.94706c2.40994,2.64287 3.2916,8.48664 3.919,11.69496c0,0 0.13323,0.67 0.56419,1.40621c0.15597,1.8831 0.35886,3.77039 0.44996,5.6577c0.03643,0.75512 -0.10121,1.53406 -0.14637,2.29547c-1.01021,-0.36821 -2.26986,-0.62758 -3.28034,-0.985c-6.21012,-2.19663 -12.02757,-6.57839 -18.60205,-7.6375c-2.642,-0.4256 -5.34966,-0.25048 -8.02258,-0.37961c-0.81518,3.93155 -1.6038,7.949 -1.58975,11.96413c0.00513,1.46863 -0.09114,2.9458 0.02563,4.40981c0.045,0.56447 0.76485,1.16758 0.45035,1.6385c-0.23836,0.35692 -0.64574,-0.57787 -1.0234,-0.7818c-2.10281,-1.1355 -4.31353,-2.08408 -6.36207,-3.31478c-2.12128,-1.27441 -6.17684,-3.73439 -8.01735,-5.44418c-4.98478,-4.63076 -5.90125,-8.90874 -14.05487,-7.58613c-4.66386,0.75651 -5.24677,2.59963 -8.67584,5.04359c-4.3993,3.13549 -8.66928,5.81072 -12.52369,9.71644c-0.10264,0.10401 -1.34818,1.12274 -2.30909,2.36611c-0.09989,-0.19011 -0.19443,-0.38239 -0.27492,-0.57664c-1.15458,-2.66878 -3.66379,-13.96818 -5.54381,-14.75277c-2.39249,-0.99845 -4.61983,1.9728 -6.95218,3.10461c-2.72781,1.32367 -6.86115,2.21694 -10.01782,3.4558c0.23993,-2.94514 -0.37074,-6.18764 1.14447,-9.13604c4.06938,-7.91845 8.9513,-15.41036 15.84696,-21.05304c0,0 3.14375,-2.62869 0.52686,-5.76899c-0.02947,-0.03538 -0.05899,-0.07017 -0.08859,-0.10408z" data-paper-data="{&quot;noHover&quot;:false,&quot;origItem&quot;:[&quot;Path&quot;,{&quot;applyMatrix&quot;:true,&quot;segments&quot;:[[[425.50777,338.13241],[-0.03606,-0.04328],[3.20092,3.84111]],[[424.86759,345.17444],[0,0],[-8.43459,6.90201]],[[405.48318,370.88051],[4.97755,-9.68563],[-1.85335,3.60637]],[[404.07859,382.04136],[0.29349,-3.6024],[3.86115,-1.51532]],[[416.14821,377.89302],[-3.33659,1.61909],[2.8529,-1.38438]],[[424.83532,374.01569],[-2.92643,-1.22129],[2.2996,0.9597]],[[431.59573,392.0304],[-1.41224,-3.26439],[0.09847,0.23763]],[[431.93102,392.73477],[-0.12219,-0.23256],[1.17537,-1.52085]],[[434.75547,389.84064],[-0.12554,0.12722],[4.71456,-4.77737]],[[450.06775,377.95007],[-5.38109,3.83522],[4.19433,-2.98938]],[[460.66134,371.76878],[-5.70469,0.92536],[9.97329,-1.61778]],[[477.77714,381.04173],[-6.09724,-5.6642],[2.25123,2.09134]],[[487.56584,387.70856],[-2.5947,-1.55881],[2.50571,1.50535]],[[495.33866,391.76878],[-2.5721,-1.38888],[0.46194,0.24944]],[[496.58961,392.72564],[-0.29156,0.43657],[0.38467,-0.576]],[[496.03746,390.72242],[0.05507,0.69045],[-0.14283,-1.79072]],[[496,385.33333],[0.00628,1.79639],[-0.01716,-4.91121]],[[497.92294,370.72564],[-0.99709,4.80896],[3.26944,0.15792]],[[507.73127,371.1994],[-3.23159,-0.52059],[8.04173,1.29548]],[[530.66866,380.61999],[-7.59605,-2.68685],[1.23598,0.43719]],[[534.49666,381.74739],[-1.23565,-0.45041],[0.05526,-0.93135]],[[534.67432,378.94317],[0.04457,0.92363],[-0.1114,-2.30848]],[[534.12109,372.03179],[0.19079,2.30338],[-0.52718,-0.90052]],[[533.43043,370.31391],[0,0],[-0.7674,-3.9243]],[[528.63399,356.03043],[2.94779,3.2327],[-2.99396,-3.28333]],[[512.24685,347.55165],[1.01986,3.82438],[-1.61839,-6.06879]],[[527.40287,330.87517],[-4.38591,2.21482],[0.41836,-0.21126]],[[529.09106,330.22211],[-0.66616,0.20919],[-3.10521,-1.57849]],[[522.09381,325.402],[0.2758,0.19844],[-5.93511,-4.27024]],[[501.78118,318.30275],[7.25675,0.75425],[-12.0452,-1.33859]],[[467.11332,322.19188],[11.34587,-4.80747],[0,0]],[[463.55947,325.15343],[0,0],[-0.87077,0.73612]],[[460.33333,326.33333],[1.22951,0],[-2.76142,0]],[[455.33333,321.33333],[0,2.76142],[0,-0.23702]],[[455.38172,320.63492],[-0.0319,0.22823],[0,0]],[[455.89956,316.49223],[0,0],[-0.55129,0.2712]],[[454.45832,317.19264],[0.37387,-0.18688],[-4.26845,2.13361]],[[441.56521,324.48177],[3.64362,-3.13612],[-5.18434,4.46224]],[[425.39934,338.00525],[4.8403,-4.81013],[0.03622,0.0415]]],&quot;closed&quot;:true}]}"/></g><path d="M281.82039,234.27298c-2.42536,0.60634 -3.03169,-1.81902 -3.03169,-1.81902l-0.7718,-3.16442c-0.01753,-2.96547 -0.01873,-5.93056 -0.01873,-8.89607c0,0 0,-2.5 2.5,-2.5c2.5,0 2.5,2.5 2.5,2.5c0,2.76187 0.00149,5.52335 -0.01873,8.28516l0.65997,2.56266c0,0 0.60634,2.42535 -1.81902,3.03169z" fill="#ff0000" stroke="none" stroke-width="0.5" stroke-linecap="butt"/><path d="M289.80466,233.63174c-2.5,0 -2.5,-2.5 -2.5,-2.5v-0.71588c0.01574,-3.26322 0.73942,-6.09192 0.71588,-9.3065c0,0 0,-2.5 2.5,-2.5c2.5,0 2.5,2.5 2.5,2.5c-0.01917,3.24296 -0.73446,6.05853 -0.71588,9.3065v0.71588c0,0 0,2.5 -2.5,2.5z" fill="#ff0000" stroke="none" stroke-width="0.5" stroke-linecap="butt"/><path d="M228.10625,137.98198c0,1.48665 -0.88405,2.08925 -1.60073,2.3335c-0.34613,0.58431 -0.76184,1.13691 -1.27123,1.6463c-1.94522,1.94522 -5.60857,1.5257 -7.05242,3.46616c-1.30798,1.75786 -3.04999,5.01704 -3.82479,7.08759c-0.39101,1.04493 -0.33457,2.25752 -0.8851,3.22792c-0.54355,0.9581 -1.65517,1.48104 -2.29505,2.37768c-0.93012,1.30334 -1.71694,4.55294 -3.23714,5.42361c-5.91328,3.38673 -7.4444,2.51509 -6.97793,-4.46791c0.21412,-3.20531 2.9147,-7.58889 4.71434,-10.30437c3.46568,-4.61446 5.86322,-10.20221 10.67648,-13.52211l1.70049,-0.87183c0,0 2.23607,-1.11803 3.3541,1.11803v0.00001c0.14224,0.28447 0.23019,0.55085 0.27536,0.79913c0.45607,-0.17913 0.91524,-0.35005 1.37725,-0.51226c0.38836,-1.38821 0.55623,-2.91611 0.84482,-4.07049c0,0 0.60634,-2.42536 3.0317,-1.81902c2.42536,0.60634 1.81902,3.0317 1.81902,3.0317c-0.31923,1.27693 -0.55675,2.59844 -0.88745,3.88108c0.14728,0.31233 0.23828,0.6983 0.23828,1.17527zM209.43006,152.1574c-0.42736,0.6604 -0.83199,1.33807 -1.19654,2.03527c0.34512,-0.26543 0.67407,-0.54264 0.88746,-0.9127c0.19579,-0.33952 0.26371,-0.72625 0.30908,-1.12257z" fill="#000000" stroke="none" stroke-width="0.5" stroke-linecap="butt"/><path d="M240.39861,164.77746c1.14603,-2.6466 2.34413,-6.07975 3.74006,-6.93972c1.14333,-0.70436 2.6428,0.50153 3.98017,0.62308c0.42911,0.039 4.02513,-0.093 5.2018,-0.06133c0.72496,-0.09671 1.4697,-0.16852 2.10308,-0.3805l0.50017,0.40516l0.09484,-0.28453l2.44857,0.81619c1.02156,0.31417 1.76412,1.26534 1.76412,2.38994c0,0.58368 -0.20003,1.12065 -0.53527,1.54608c1.05837,0.45502 2.02549,1.01974 2.72034,1.3546l0.15412,0.22896l0.06024,-0.0753l2.06802,1.65441c0.5823,0.45772 0.9563,1.16848 0.9563,1.9666c0,0.49837 -0.14583,0.96267 -0.39714,1.35258c0.85025,0.05388 1.84934,-0.2385 2.42279,0.34465l0.04565,0.00652c0.0287,-0.01024 0.05741,-0.02048 0.08611,-0.03072l0.08124,0.05463l0.25206,0.03601l0.00959,-0.05755l2.46272,0.41045c1.20503,0.179 2.12954,1.21791 2.12954,2.47274c0,0.83658 -0.41091,1.57718 -1.04192,2.03099c1.91914,0.91573 3.92607,1.43116 5.25264,0.29398c1.15712,-4.21829 -0.03619,-8.39013 0.81084,-12.54422c0.31467,-1.54322 0.27952,-3.61066 1.61918,-4.43882c1.31077,-0.81031 3.07315,0.29784 4.58335,0.60448c3.94155,0.80031 7.82735,2.53789 11.62913,3.73795c1.21408,0.38324 2.51557,0.4409 3.72889,0.82654c0.21095,0.06705 0.42074,0.13989 0.62845,0.21884c-0.37726,-0.7049 -0.61225,-1.50451 -0.79725,-2.05573c-1.04703,-3.11965 -0.44575,-6.37321 -0.84346,-9.5064l-0.18029,-0.3155l-1.70274,-0.72975c-0.89118,-0.3582 -1.52836,-1.21488 -1.56636,-2.22488c-1.11796,-0.71013 -2.20139,-1.46958 -3.22464,-2.30686c-1.08234,-0.88562 -2.60045,-1.50559 -3.12132,-2.80346c-0.66606,-1.65966 -1.22705,-3.93062 -0.15596,-5.36271c0.97991,-1.31019 3.21868,-0.58938 4.82802,-0.88406c0,0 2.5,0 2.5,2.5c0,1.40358 -0.78802,2.01915 -1.47921,2.28911c0.22777,0.13467 0.41852,0.25654 0.52995,0.33928c1.60822,1.19413 3.28754,2.29707 5.01497,3.31589l1.934,0.42978c0.57088,-0.06851 1.14429,-0.10569 1.71954,-0.10412l0.1886,0.12268l0.0162,-0.09718l2.46272,0.41045c1.20503,0.179 2.12954,1.21791 2.12954,2.47274c0,1.35355 -1.07568,2.45586 -2.41882,2.49871c-0.43184,0.74886 -1.24067,1.25292 -2.16723,1.25292c-0.01636,0 -0.03269,-0.00016 -0.04898,-0.00047c0.12373,2.3219 -0.33983,5.09665 0.34038,7.15761c0.51416,1.55784 3.38046,5.31803 2.95926,6.4213c-0.67859,1.7775 -2.92125,2.74119 -4.78847,3.10652c-1.43729,0.28122 -2.76862,-0.96258 -4.18053,-1.35167c-2.65861,-0.73265 -5.25717,-1.66801 -7.88882,-2.49225c-2.23093,-0.69874 -5.13,-0.72369 -7.2598,-1.90202c0.00434,1.4451 0.00357,4.59822 0.00318,4.91822c-0.00422,3.47439 -0.51354,6.07941 -1.70094,9.35691c-1.10307,0.866 -2.00022,2.09476 -3.30922,2.59799c-4.14795,1.59464 -9.73959,-2.13318 -13.08027,-4.04632l-0.1157,-0.1664l-0.04074,0.05093l-2.06802,-1.65441c-0.22139,-0.17403 -0.41267,-0.38463 -0.56474,-0.62271c-3.074,-1.00533 -6.18511,-2.89129 -7.11076,-5.03609c-0.12977,-0.3007 -0.2713,-0.62044 -0.40946,-0.9511c-1.49881,-1.17783 -3.0819,-2.8233 -3.83936,-4.53827c-1.07005,0.01067 -2.16706,0.22445 -3.20363,-0.0326c-0.47406,-0.11756 -0.6764,-1.38649 -1.02635,-1.04576c-0.49698,0.48389 0.15592,1.41418 -0.03649,2.0806c-0.27731,0.96048 -0.86212,1.80499 -1.33904,2.68361c-2.0149,3.71202 -5.24576,7.75267 -9.16164,9.66189c-1.56825,0.76462 -3.37022,2.75045 -4.88383,1.88269c-0.73746,-0.42279 -1.30709,-0.83708 -1.73584,-1.24197c-0.3393,0.55994 -0.95856,1.07092 -2.08881,1.07092c-2.21922,0 -2.46847,-1.96998 -2.49646,-2.41248c-2.32487,-3.39505 -3.37474,-6.89327 -4.73804,-10.6267l-0.78788,-0.13085c-0.9216,1.14875 -1.56966,2.58564 -2.76479,3.44625c-0.95153,0.68519 -2.28514,0.55564 -3.37904,0.97789c-1.98687,0.76694 -3.92435,1.7022 -5.9881,2.2283c0,0 -2.42536,0.60634 -3.0317,-1.81902c-0.60634,-2.42536 1.81902,-3.0317 1.81902,-3.0317c3.5838,-0.87476 7.3268,-1.79472 9.34461,-4.80172l3.35708,-1.58759c0,0 0.49963,-0.16654 1.11669,-0.11743c0.22363,-0.20886 0.51531,-0.39685 0.89306,-0.54795c2.32119,-0.92848 3.24967,1.39272 3.24967,1.39272c1.68813,4.23784 2.46196,8.23824 5.12636,11.93677c0.85993,-1.15472 2.25656,-2.14868 2.97166,-2.94146c1.07546,-1.19228 1.68089,-2.8701 3.02469,-3.74893c1.09119,-0.71362 2.56043,-0.49393 3.84065,-0.7409l1.15336,-0.92049c0,0 0.25498,-0.15299 0.64183,-0.2655z" fill="#000000" stroke="none" stroke-width="0.5" stroke-linecap="butt"/></g></g></svg>