<svg version="1.1" xmlns="http://www.w3.org/2000/svg" xmlns:xlink="http://www.w3.org/1999/xlink" width="128" height="166.87289" viewBox="0,0,128,166.87289"><g transform="translate(-176,-96.56356)"><g data-paper-data="{&quot;isPaintingLayer&quot;:true}" fill-rule="nonzero" stroke="#000000" stroke-width="2" stroke-linecap="butt" stroke-linejoin="miter" stroke-miterlimit="10" stroke-dasharray="" stroke-dashoffset="0" style="mix-blend-mode: normal"><path d="M194.20482,254.43103c0,0 -17.20482,7.98594 -17.20482,-10.6265c0,-15.59984 17.20482,-93.61446 17.20482,-93.61446h87.03615c0,0 15.18072,87.43934 15.18072,102.21687c0,18.9304 -15.18072,2.02409 -15.18072,2.02409z" fill="#000b0d"/><path d="M232.66266,97.56356c17.3271,0 31.37349,13.0269 31.37349,29.09639c0,16.06949 -14.04639,29.09638 -31.37349,29.09638c-17.3271,0 -31.3735,-13.02689 -31.3735,-29.09638c0,-16.06948 14.0464,-29.09639 31.3735,-29.09639z" fill="#000b0d"/><path d="M204.83133,253.925c0,0 -16.19277,14.01111 -16.19277,-1.51807c0,-11.72523 16.19277,-83.49398 16.19277,-83.49398h67.80723c0,0 21.75904,76.67321 21.75904,87.03615c0,15.69607 -21.75904,-2.0241 -21.75904,-2.0241z" fill="#ffffff"/><path d="M238.73494,104.14187c16.4887,0 29.85543,12.12068 29.85543,27.07229c0,14.95161 -13.36673,27.07229 -29.85543,27.07229c-16.4887,0 -29.85542,-12.12068 -29.85542,-27.07229c0,-14.95161 13.36673,-27.07229 29.85542,-27.07229z" fill="#ffffff"/><path d="M201.03615,103.63585c4.61124,0 8.34939,3.85143 8.34939,8.60241c0,4.75098 -3.73815,8.60241 -8.34939,8.60241c-4.61124,0 -8.3494,-3.85143 -8.3494,-8.60241c0,-4.75098 3.73815,-8.60241 8.3494,-8.60241z" fill="#000b0d"/><path d="M242.53012,119.82861c3.2139,0 5.81927,5.09749 5.81927,11.38555c0,6.28806 -2.60538,11.38554 -5.81927,11.38554c-3.2139,0 -5.81928,-5.09748 -5.81928,-11.38554c0,-6.28806 2.60539,-11.38555 5.81928,-11.38555z" fill="#000b0d"/><path d="M258.7229,121.34669c3.21389,0 5.81928,5.09748 5.81928,11.38554c0,6.28806 -2.60538,11.38555 -5.81928,11.38555c-3.21389,0 -5.81928,-5.0975 -5.81928,-11.38555c0,-6.28806 2.60539,-11.38554 5.81928,-11.38554z" fill="#000b0d"/><path d="M220.77108,190.67199c5.17019,0 9.36145,4.41781 9.36145,9.86747c0,5.44966 -4.19126,9.86746 -9.36145,9.86746c-5.17019,0 -9.36145,-4.41781 -9.36145,-9.86746c0,-5.44966 4.19126,-9.86747 9.36145,-9.86747z" fill="#000b0d"/><path d="M293.63856,192.69609c5.17019,0 9.36145,4.41781 9.36145,9.86747c0,5.44966 -4.19126,9.86747 -9.36145,9.86747c-5.17019,0 -9.36145,-4.41781 -9.36145,-9.86747c0,-5.44966 4.19126,-9.86747 9.36145,-9.86747z" fill="#000b0d"/></g></g></svg>