<svg version="1.1" xmlns="http://www.w3.org/2000/svg" xmlns:xlink="http://www.w3.org/1999/xlink" width="143.89284" height="148.63248" viewBox="0,0,143.89284,148.63248"><g transform="translate(-169.52659,-96.88532)"><g data-paper-data="{&quot;isPaintingLayer&quot;:true}" fill-rule="nonzero" stroke-linejoin="miter" stroke-miterlimit="10" stroke-dasharray="" stroke-dashoffset="0" style="mix-blend-mode: normal"><path d="M195.63149,235.00278c0,-10.27806 0,-66.36932 0,-91.55549c0,-7.49466 5.42318,-12.25274 10.76769,-12.25274c11.87283,0 58.78358,0 80.41382,0c6.7446,0 11.03124,5.3852 11.03124,13.706c0,1.52156 0,78.98417 0,88.64896c0,5.94573 -3.8775,11.96829 -10.0624,11.96829c-21.29936,0 -69.96342,0 -81.86707,0c-5.13731,0 -10.28327,-5.19742 -10.28327,-10.51503z" fill="#9a3dff" stroke="none" stroke-width="5" stroke-linecap="butt"/><path d="M196.12269,227.81456v-9.69639h101.20611v9.69639z" fill="#9a3dff" stroke="none" stroke-width="5" stroke-linecap="butt"/><path d="M200.66788,222.45276c0,-1.23774 0,-4.03158 0,-4.03158h97.26695v6.96928c0,0 -79.81776,0 -91.81273,0c-2.92357,0 -5.45422,-1.88114 -5.45422,-2.9377z" fill="#9a3dff" stroke="none" stroke-width="5" stroke-linecap="butt"/><path d="M242.2463,190.55518c0,-5.71717 0,-18.56382 0,-28.58081c0,-7.59532 5.87728,-13.56378 10.65725,-13.56378c9.8278,0 45.05111,0 45.05111,0v55.22395c0,0 -30.94544,0 -41.17575,0c-6.07771,0 -14.53262,-7.47943 -14.53262,-13.07936z" fill="#ffd797" stroke="none" stroke-width="5" stroke-linecap="butt"/><path d="M197.32281,186.51823c0,-7.63237 0,-24.78254 0,-38.15513c0,-10.13968 10.61673,-18.10753 19.25131,-18.10753c17.75297,0 81.38053,0 81.38053,0v73.72349c0,0 -55.89997,0 -74.38005,0c-10.97879,0 -26.25177,-9.98497 -26.25177,-17.46082z" fill="#ffdca3" stroke="none" stroke-width="5" stroke-linecap="butt"/><path d="M219.25585,215.41525c0,-6.10824 4.95171,-11.05995 11.05995,-11.05995c6.10824,0 11.05995,4.95171 11.05995,11.05995c0,6.10824 -4.95171,11.05995 -11.05995,11.05995c-6.10824,0 -11.05995,-4.95171 -11.05995,-11.05995z" fill="#ffd797" stroke="none" stroke-width="5" stroke-linecap="butt"/><path d="M222.28598,216.7788c0,-5.18782 4.20556,-9.39338 9.39338,-9.39338c5.18782,0 9.39338,4.20556 9.39338,9.39338c0,5.18782 -4.20556,9.39338 -9.39338,9.39338c-5.18782,0 -9.39338,-4.20556 -9.39338,-9.39338z" fill="#ffdca3" stroke="none" stroke-width="5" stroke-linecap="butt"/><path d="M284.04837,223.12369c0,-0.83674 0.67832,-1.51506 1.51506,-1.51506c0.83674,0 1.51506,0.67832 1.51506,1.51506c0,0.83674 -0.67832,1.51506 -1.51506,1.51506c-0.83674,0 -1.51506,-0.67832 -1.51506,-1.51506z" fill="#9a3dff" stroke="none" stroke-width="5" stroke-linecap="butt"/><path d="M284.04837,230.39599c0,-0.83674 0.67832,-1.51506 1.51506,-1.51506c0.83674,0 1.51506,0.67832 1.51506,1.51506c0,0.83674 -0.67832,1.51506 -1.51506,1.51506c-0.83674,0 -1.51506,-0.67832 -1.51506,-1.51506z" fill="#9a3dff" stroke="none" stroke-width="5" stroke-linecap="butt"/><path d="M271.1628,178.751v14.8476" fill="none" stroke="#000000" stroke-width="5" stroke-linecap="round"/><path d="M283.58631,178.751v14.8476" fill="none" stroke="#000000" stroke-width="5" stroke-linecap="round"/><path d="M247.64838,160.35429l-2.5913,-0.03313c-0.8529,-0.15587 -4.83553,-0.74874 -6.35639,-2.22569c-0.31905,0.41908 -0.69382,0.81341 -0.99645,1.23377c-1.94711,2.70458 -4.74011,6.77844 -8.76238,6.52431c-1.57149,-0.0993 -1.87927,-2.54722 -2.57831,-3.95817c-0.00342,-0.00691 -0.24505,-0.77273 -0.55064,-1.76604c-0.34149,1.25955 -0.59245,2.54656 -0.82774,3.96096c-0.60877,5.75551 -1.15513,12.42137 0.61124,18.08779c0.10399,0.33358 0.23091,0.63139 0.37448,0.90429c-1.3025,-0.13608 -2.7312,-0.04235 -4.40733,0.39727c-5.60857,1.471 -13.62866,1.32418 -16.10817,6.56555c-0.52976,1.11984 -0.9389,2.22262 -1.238,3.30567c-1.74982,-3.43178 -3.00035,-7.05665 -3.30203,-10.38036c-0.2783,-3.06612 0.2102,-5.97784 0.48891,-8.97935c0.3746,-4.03433 -0.52689,-8.23643 0.0097,-12.25586c0.38161,-2.85855 1.16763,-5.85859 1.73717,-8.71017c2.57902,-11.10165 9.34839,-22.90654 19.41296,-28.85749c3.08961,-1.82682 6.75778,-3.02583 10.08447,-4.30544c3.09197,-1.18931 6.01141,-2.86248 9.34636,-3.31106c5.23519,-0.70422 11.06797,-0.02492 16.34048,-0.0084c10.28111,1.83482 21.56453,2.52568 30.93729,7.61646c11.04303,5.99798 15.83135,19.31623 19.45071,30.44917c0.03384,3.56497 0.28372,7.28066 0.02159,10.83361c-0.02414,0.32722 -0.05249,0.65434 -0.08441,0.9814c-6.25216,-2.24873 -13.37157,-1.18293 -19.20795,2.23441c-1.07408,0.24029 -2.08293,0.65337 -2.99583,1.20854c-0.01772,-0.1025 -0.03723,-0.20364 -0.05865,-0.30332c-0.3616,-1.68265 -0.84968,-2.7133 -1.17339,-3.73033c-1.00857,2.52553 -2.03112,4.88413 -5.5116,5.7143c-1.28703,0.30696 -4.63516,-2.84368 -5.67096,-3.76112c-3.0005,-2.65762 -5.82691,-7.65901 -5.15977,-11.86078c-1.34828,1.21166 -2.67615,2.45187 -4.26162,3.30403c-0.04103,0.02204 -0.08215,0.04389 -0.12336,0.06556l0.00799,0.01257l-4.07712,2.59454c-0.38389,0.25295 -0.84362,0.40015 -1.33773,0.40015c-1.34455,0 -2.43452,-1.08998 -2.43452,-2.43452c0,-0.15128 0.0138,-0.29933 0.0402,-0.44299c-0.84101,1.10053 -1.84376,1.89168 -3.05857,2.11573c-1.22364,0.22566 -2.9204,-0.66528 -4.37521,-1.73971c-0.70682,0.55387 -1.6141,0.55387 -1.6141,0.55387z" fill="#000000" stroke="#000000" stroke-width="3.5" stroke-linecap="butt"/><path d="M225.07262,131.58198c0.60136,1.07646 1.48356,2.12408 1.27321,3.28382c-0.25152,1.38669 -1.82218,2.15967 -2.85565,3.11786c-1.72183,1.59641 -4.23986,3.08264 -5.66048,4.98685c-1.23184,1.65117 -1.38469,5.11362 -1.91954,7.04005c-0.78625,2.83194 -2.04162,5.90194 -2.53558,8.79722c-0.35758,2.09586 0.02006,4.2523 0.01396,6.37842c-1.0111,5.05548 -0.43957,10.15184 -0.97602,15.27766c-0.60104,5.74304 -1.87327,11.26845 -2.60101,16.91559c-0.71412,5.54151 -0.38541,10.8145 -2.02647,16.28874c-0.6464,2.15624 -1.58554,5.30263 -3.448,6.78937c-0.09146,0.07301 -0.18491,0.1428 -0.28012,0.20969l0.02781,0.03339l-1.93533,1.61279c-0.42397,0.35843 -0.97218,0.5745 -1.57083,0.5745c-0.9201,0 -1.72097,-0.51041 -2.13492,-1.26355c-1.64551,1.23437 -5.0587,0.61115 -6.95396,0.61434c-4.28475,0.00717 -7.97784,-0.53725 -11.95315,-2.12677c-1.44234,-0.57672 -3.09352,-0.76171 -4.3471,-1.67902c-0.0502,-0.03672 -0.09977,-0.07416 -0.14872,-0.11227l-0.01524,0.02667l-2.23119,-1.27497c-0.7554,-0.41329 -1.26769,-1.21542 -1.26769,-2.1372c0,-1.34455 1.08997,-2.43452 2.43452,-2.43452h2.59683c6.81742,0 14.11059,-0.94858 17.75074,-7.64288c2.85106,-3.89347 2.47419,-7.62479 1.6063,-12.18831c-0.42436,-2.23134 -0.25808,-4.5451 -0.64267,-6.78365c-0.6296,-3.66476 -2.64598,-8.65138 -4.31395,-12.01508c-2.22833,-4.49373 -5.71855,-7.73314 -7.30338,-12.71982c-2.19306,-6.90048 -2.06661,-13.58811 -2.06101,-20.70109c0.7409,-5.86648 3.22587,-13.5462 8.60976,-16.84766c7.62929,-4.67834 17.63943,-4.22964 25.61633,-0.81969c1.28564,0.54959 4.47444,1.85539 5.42156,2.60145c1.91307,1.50693 2.53742,3.29068 3.5874,5.36416c0,0 0.17365,0.34731 0.24356,0.83389z" fill="#000000" stroke="#000000" stroke-width="4" stroke-linecap="butt"/><path d="M309.27965,149.74247v0.72608c0.242,0.034 0.49245,0.07111 0.75159,0.11145c1.85204,0.28825 2.39114,2.92756 3.0518,4.657c1.12726,2.95088 -0.85151,7.18046 -1.92483,9.80105l-0.40636,0.54188c0.21218,2.81239 0.15852,5.63575 -0.41774,8.47044c-0.23537,1.15784 -3.12007,7.34068 -3.29451,7.7336c-2.91017,6.55518 -6.02931,11.36956 -11.13725,16.30095c-0.78357,0.75648 -1.15168,1.9405 -2.0842,2.50969c-1.88792,1.15235 -4.2874,1.16973 -6.35801,1.96056c-1.33742,-0.02733 -2.73241,0.30155 -4.01227,-0.08198c-1.75336,-0.52542 -2.63701,-2.75212 -4.39828,-3.25118c-1.68464,-0.47735 -3.50419,0.12644 -5.25707,0.12644c-4.6208,0 -8.98782,0.08758 -13.57839,-0.57103c-2.33344,-0.33478 -4.4185,-1.66769 -6.71655,-2.1886c-1.06188,-0.2407 -2.19828,0.2059 -3.26882,0.00586c-1.93924,-0.36237 -3.55324,-1.8342 -5.49785,-2.16745c-7.42962,-1.27321 -15.6097,-0.49741 -23.168,-0.49741c-4.40903,-0.01765 -6.21311,-0.40062 -9.46476,-3.43099l-1.01809,-1.72409c0,0 -0.60627,-1.19507 -0.03302,-2.26515c-0.60394,-1.74733 -1.34185,-3.4547 -1.79547,-5.24468c-1.6347,-6.45044 -1.73416,-13.00984 -1.73416,-19.60147c0,-3.17086 -0.47339,-6.90946 0.01873,-10.05457c1.22807,-7.8485 4.92345,-15.44114 8.49199,-22.47535c0.95567,-1.85316 1.29587,-3.96485 2.15294,-5.86428c0.40289,-0.89287 1.26905,-1.51558 1.75221,-2.36889c1.4793,-2.61259 1.96494,-5.79199 3.20684,-8.49222c1.71245,-3.72333 3.34014,-7.4257 4.89816,-11.26461l1.07794,-2.65602c0.35452,-0.9358 1.26971,-1.60217 2.34282,-1.60217c1.38071,0 2.5,1.10316 2.5,2.46397c0,0.1042 -0.00656,0.20688 -0.0193,0.30768l-0.54577,4.84118l-0.02287,-0.00251c0.00295,0.03613 0.00581,0.07227 0.00857,0.10842c0.18025,2.36006 -0.76846,5.01108 -0.53236,7.50712c0.07205,0.76166 0.34073,1.49386 0.45831,2.25c0.07045,0.45303 -0.28297,1.11809 0.10478,1.37108c0.39309,0.25647 0.87851,-0.37515 1.34735,-0.42364c3.18836,-0.32974 5.02674,-0.24208 8.19394,-1.01107c5.58971,-1.35717 11.92275,-0.61452 17.64598,-0.61452c1.56968,0 3.21816,0.61566 4.70729,0.12644c1.38943,-0.45647 2.2701,-1.82631 3.44891,-2.68293c0.92912,-1.10002 1.72912,-2.41549 1.98886,-3.82378v-2.53486c0,-1.36081 1.11929,-2.46397 2.5,-2.46397c1.38071,0 2.5,1.10316 2.5,2.46397v2.50219c0.25074,0.74006 0.42809,1.57014 0.53762,2.67364c0.15037,1.51485 -0.90964,3.18243 -0.25176,4.55949c0.79523,1.66455 4.99674,2.05638 6.36242,2.59676c1.97211,0.78034 3.8103,1.85606 5.70727,2.80017c2.99284,1.4895 5.2267,3.77573 7.98106,5.58124c4.53822,2.97484 9.25936,5.58513 11.38276,10.90974c1.12412,2.81882 0.71798,6.07131 0.71798,9.01643c0,0.78208 0.02837,1.56497 0.07929,2.34868c0.61874,0.44853 1.02029,1.17115 1.02029,1.98622zM287.53716,173.88093c-8.06352,0 -16.12705,0 -24.19056,0c0,0 -0.96446,0 -1.6953,-0.59042c0.16932,1.99146 0.55018,3.92275 1.25789,5.75204c-1.83092,1.7863 -2.96515,4.26494 -2.96515,7.00468c0,5.31529 4.26912,9.64785 9.61227,9.84861c0.12863,0.00483 0.2579,0.00727 0.38773,0.00727c0.24819,0 0.49426,-0.00891 0.73792,-0.02642c0.77745,-0.01719 1.48433,-0.03125 2.01101,0.02642c6.2683,0.68644 14.17465,1.08078 18.01665,-4.7912c1.09057,-1.66678 3.59596,-2.91619 4.12247,-4.99189c1.44063,-5.67945 1.70541,-9.2698 1.60364,-13.80868c-2.29386,2.28318 -5.895,1.56958 -8.89856,1.56958zM268.75253,149.3296c-0.17659,0.25316 -0.35677,0.50349 -0.5415,0.75051c0.07966,-0.04384 0.15951,-0.08788 0.23947,-0.13209c0.01898,-0.02647 0.03847,-0.05256 0.05846,-0.07825l0.46635,-0.61284c-0.07435,0.02364 -0.1486,0.0479 -0.22278,0.07267zM282.28846,168.74854c0.01408,0.06719 0.02539,0.13538 0.03379,0.20445c0.13043,0 0.26087,0 0.39131,0l-0.12486,-0.24612z" fill="#9a3dff" stroke="none" stroke-width="0.5" stroke-linecap="butt"/><path d="M276.00456,199.24019c-2.47487,-0.35355 -2.12132,-2.82843 -2.12132,-2.82843l0.14673,-0.84942c0,-6.94039 -0.42438,-14.30206 0.90782,-21.11278c0,0 0.49029,-2.45145 2.94174,-1.96116c2.45145,0.49029 1.96116,2.94174 1.96116,2.94174c-1.32222,6.4399 -0.81072,13.55502 -0.81072,20.1322l-0.19698,1.55653c0,0 -0.35355,2.47487 -2.82843,2.12132z" fill="#9a3dff" stroke="none" stroke-width="0.5" stroke-linecap="butt"/><path d="M291.13756,195.14082c-2.5,0 -2.5,-2.5 -2.5,-2.5c0,-0.71557 0,-2.55548 0,-3.60251l-0.24752,-0.86631l0.05592,-0.01598c-0.04509,-0.10686 -0.08783,-0.21484 -0.12795,-0.32407c-0.33611,-0.91511 -0.02001,-1.94968 -0.02416,-2.92456c-0.00943,-2.21454 -0.01134,-4.36384 0.14828,-6.53849c-0.08657,-0.52428 -0.1198,-1.03083 0.13077,-1.44299c0.02013,-0.18496 0.04165,-0.37024 0.06465,-0.5559v-2.46128c0,-0.13402 0.01055,-0.26557 0.03085,-0.39388c-0.62426,-0.42069 -1.32605,-0.75786 -2.1447,-0.97593c-1.02155,-0.27212 -2.16461,-0.01837 -3.1441,-0.41611c-3.23097,-1.31201 -3.35384,-4.44048 -6.41166,-5.28597c-2.86886,-0.79324 -7.17626,-0.91592 -9.5214,-2.97446c-3.89332,-3.41752 -3.22496,-4.55189 -1.38193,-8.63936c0.43725,-0.96973 1.08959,-1.83115 1.71898,-2.68872c0.29858,-0.40683 0.63347,-0.78766 0.98852,-1.14774c-0.83085,0.34263 -1.96893,0.50376 -2.1189,0.54426c0,0 -2.42536,0.60634 -3.0317,-1.81902c-0.60634,-2.42536 1.81902,-3.0317 1.81902,-3.0317c1.07185,-0.2527 2.11558,-0.81101 3.21554,-0.75811c1.5589,0.07497 3.52584,-0.05212 4.54339,1.13127c3.24692,3.7761 -0.91745,7.31478 -2.70212,10.08297c-0.31386,0.48682 -0.9359,0.88376 -0.93764,1.46298c-0.0013,0.43067 0.54825,0.698 0.93054,0.89632c2.50101,1.29745 5.42577,1.26832 8.00771,2.18116c1.20457,0.42587 2.45851,0.87096 3.44185,1.68668c1.24402,1.03197 1.44621,3.14455 3.2074,3.6823c0.86477,0.26404 1.83341,0.00976 2.69893,0.2713c2.20847,0.66735 3.88333,1.75107 5.31213,3.10191c0.23627,-1.13511 1.24229,-1.98796 2.44752,-1.98796c1.38071,0 2.5,1.11929 2.5,2.5c0,0.05728 0,2.69238 0,2.74966c0,0.05131 0,0.10261 0,0.15392c0.11035,0.45874 0.07991,0.92714 0,1.39876c0,1.31555 0,2.6311 0,3.94664c0,0.76548 0.46071,1.71013 0.15086,2.35512l-0.15349,2.91628c-0.0581,1.27451 -1.07051,2.30022 -2.33944,2.37931c-0.1591,0.56898 -0.32479,1.13869 -0.4966,1.71017l-0.36516,0.29359l0.12603,0.09452l-1.39039,1.85386v1.45805c0,0 0,2.5 -2.5,2.5z" fill="#9a3dff" stroke="none" stroke-width="0.5" stroke-linecap="butt"/><path d="M211.96065,159.28463c-2.38945,0.73521 -3.12466,-1.65423 -3.12466,-1.65423l-0.66968,-2.17875c-0.28642,-0.85927 -0.57285,-1.71854 -0.85927,-2.57781c0,0 -0.79057,-2.37171 1.58114,-3.16228c2.37171,-0.79057 3.16228,1.58114 3.16228,1.58114c0.28642,0.85927 0.57285,1.71854 0.85927,2.57781l0.70516,2.28946c0,0 0.73521,2.38945 -1.65423,3.12466z" fill="#9a3dff" stroke="none" stroke-width="0.5" stroke-linecap="butt"/><path d="M266.63232,191.44089c-0.33432,1.4215 -0.43958,3.24981 -1.65776,4.05508c-3.04239,2.01115 -6.91357,0.04685 -8.29237,-2.77967c-0.21602,-0.44284 0.08297,-5.73449 0.17855,-6.54606c0.5565,-4.72522 1.35867,-9.0221 1.35867,-13.80819c0,0 0,-2.5 2.5,-2.5c0.58229,0 1.02896,0.13563 1.37159,0.3437c0.44832,-0.426 1.05452,-0.68741 1.72178,-0.68741c1.38071,0 2.5,1.11929 2.5,2.5v2.57781c0,5.2276 1.52042,11.73865 0.31954,16.84474z" fill="#9a3dff" stroke="none" stroke-width="0.5" stroke-linecap="butt"/></g></g></svg>