<svg version="1.1" xmlns="http://www.w3.org/2000/svg" xmlns:xlink="http://www.w3.org/1999/xlink" width="293.09062" height="249.24756" viewBox="0,0,293.09062,249.24756"><g transform="translate(-22.16481,-87.94811)"><g data-paper-data="{&quot;isPaintingLayer&quot;:true}" fill-rule="nonzero" stroke="none" stroke-width="0.5" stroke-linecap="butt" stroke-linejoin="miter" stroke-miterlimit="10" stroke-dasharray="" stroke-dashoffset="0" style="mix-blend-mode: normal"><path d="M283,256.3125c-0.23803,0.13389 -0.53164,0.25548 -0.87303,0.36588c-0.86724,0.36052 -1.81672,0.56297 -2.81249,0.57135c-5.0984,0.66896 -13.26117,0.46775 -16.77876,0.50027c-1.81998,0.01682 -1.65565,3.24475 -2.37467,4.91677c-1.18233,2.74939 -1.89705,6.89891 -4.66104,8.14573c-1.1745,0.52981 -2.47098,0.78172 -3.75,0.9375c-3.75071,0.45682 -7.91654,0.43145 -11.45898,2.11475c-1.4192,0.67437 -3.43544,1.94027 -4.96028,1.43198c-2.39016,-0.79672 -5.1622,-1.93916 -6.28894,-4.19263c-5.4256,-10.85121 11.38488,-12.4795 17.34656,-14.3541c1.58031,-0.49692 1.3036,-3.04669 2.00806,-4.54604c0.73456,-1.5634 1.87333,-3.76676 3.11321,-5.11421c4.50091,-4.8914 10.89909,-4.27382 17.19935,-4.33975c3.51743,-0.03681 7.03366,-0.76848 10.54102,-0.5c0.22265,0.01704 0.46062,0.02526 0.7055,0.03275c3.81129,0.35558 6.7945,3.56303 6.7945,7.46725c0,2.44072 -1.16587,4.60913 -2.97108,5.97871c-0.2309,0.22353 -0.48835,0.42033 -0.77892,0.58379z" fill="#6e3d04"/><path d="M113.75,236.75c1.08459,-1.89803 1.45707,-4.51301 2.97108,-5.97871c0.2309,-0.22353 0.48834,-0.42033 0.77892,-0.58379c4.06386,-2.28596 9.04359,-0.2452 13.06345,0.76129c3.7292,0.93372 8.9854,1.51314 12.43655,3.23871c1.59232,0.79617 4.6726,2.40121 6,3.5c0.59902,0.49586 0.63171,1.53077 1.29102,1.94308c2.89026,1.8075 10.40892,9.32904 9.00571,13.53868c-0.79672,2.39016 -1.93916,5.16221 -4.19263,6.28894c-10.66709,5.33354 -10.53091,-10.15627 -18.27222,-11.51973c-4.45145,-0.78403 -8.49823,-2.23328 -12.89532,-3.38727c-1.52708,-0.40077 -5.77491,-0.08082 -6.49306,-1.33759z" fill="#6e3d04"/><path d="M117.86271,217.2942c0.81274,-3.97144 0.80142,-7.47423 0.80142,-11.50398c0,-4.39581 0.49638,-7.32171 -1.99292,-11.03354c-0.71789,-1.07046 -2.02107,-3.38169 -3.22253,-4.13565c-2.72814,-1.71201 -6.08783,-2.44899 -8.54836,-4.90951c-0.22687,-0.22687 -4.02738,-5.83324 -4.21401,-6.24955c-0.20722,-0.46227 0.30942,-1.16538 -0.0535,-1.51884c-0.33683,-0.32804 -0.93815,0.06413 -1.40723,0.0962c-3.63541,0.04719 -7.2713,0.0281 -10.90699,0.0281c-1.64587,0 -3.40601,-0.80445 -4.93386,-0.19243c-2.61608,1.04794 -5.44651,4.58863 -7.55084,6.33642c-1.99661,1.65832 -4.21605,3.02836 -6.33127,4.53246c-9.11267,6.4799 -20.70986,10.30541 -31.89021,10.30541c-1.60513,-0.23594 -3.5083,0.25321 -4.8154,-0.70784c-1.34481,-0.98878 -1.57203,-2.94896 -2.23914,-4.47903c-1.80684,-4.14414 -2.50064,-9.0147 -3.57745,-13.39002c-0.64689,-2.62846 -0.38448,-5.41487 -0.91854,-8.06856c-0.30962,-1.53847 -1.42342,-2.83594 -1.74849,-4.37122c-0.75034,-3.54375 -0.06766,-8.462 -0.06766,-12.07433c0,-3.82424 -0.45335,-8.04134 0.0281,-11.82336c0.78558,-6.17112 3.73437,-11.20261 7.18997,-16.18138c3.0918,-2.1312 5.54452,-5.33578 9.00277,-6.89749c1.09506,-0.49452 2.39214,-0.40201 3.49698,-0.87424c1.048,-0.44794 1.7692,-1.57636 2.87568,-1.84957c13.85367,-3.42075 27.82882,1.09641 41.20581,3.32591c2.92016,0.48669 5.41674,0.90148 8.31597,1.84962c1.59651,0.52211 3.55027,0.42165 4.795,1.54953c3.77339,3.41917 3.15202,7.36018 3.15202,11.6676c0,2.03991 0,4.07981 0,6.11972c0,0.87425 0.1107,1.75552 0,2.62273c-0.04059,0.318 -0.63796,0.59823 -0.44372,0.85326c0.29329,0.38506 0.97323,0.16309 1.39657,0.39777c0.60398,0.3348 0.96968,1.07516 1.6293,1.27958c0.68126,0.21113 1.43353,-0.23166 2.13672,-0.11248c0.84708,0.14356 6.45998,2.12216 6.92101,2.46991c0.96761,0.72987 1.29393,2.068 2.12392,2.95124c0.95713,1.01854 4.0063,1.95877 4.87004,2.29423l2.59245,3.52276c0,0 0.50409,0.75614 0.64374,1.7721c1.11157,0.39281 2.17568,0.83051 3.12911,1.31056c0.76407,0.38471 1.25124,1.25476 2.06186,1.52808c0.67585,0.22787 1.43352,-0.23166 2.13672,-0.11248c2.69898,0.45741 5.19061,2.17303 7.8682,2.62273c2.78374,0.46752 6.19243,-0.04842 9.01601,-0.04842c0,0 0.80412,0 1.66764,0.37237c2.78924,-0.62025 5.62874,-0.37237 8.82329,-0.37237c4.17231,0 7.92111,0.20352 11.96586,0.92266c1.80719,0.32131 3.73199,-0.418 5.50636,0.0519c1.25982,0.33363 2.23839,1.41022 3.49697,1.74849c1.69295,0.455 3.50511,-0.10031 5.25814,-0.10031c4.44231,0 9.32004,-0.55489 13.71435,0.04842c6.96087,0.95568 13.22911,3.44855 20.38118,3.44855c8.15786,0 16.75858,-0.85822 24.84836,0.01825c6.78121,0.73469 12.84092,2.92666 19.46455,4.4014c0.85335,0.19 1.76961,-0.19099 2.62273,0c1.994,0.44641 3.8894,1.25459 5.83064,1.89251c3.43961,1.13029 8.14377,2.7806 10.9126,5.11749c1.76786,1.49208 5.64587,7.41532 6.3528,9.5928c0.38217,1.17715 0.10727,2.47295 0.16091,3.70943c0,4.44427 -0.25289,8.35219 -0.90234,12.69761c-0.27835,1.86242 0.40985,3.8285 -0.07222,5.64885c-0.33363,1.25982 -1.43005,2.23324 -1.74849,3.49698c-0.2636,1.04613 0.21189,2.16918 0.0519,3.23608c-0.54113,3.6084 -2.89659,6.91611 -3.49698,10.49094c-0.88067,5.2437 -0.08793,10.22222 1.25997,15.12143c-0.97663,0.22633 -2.06034,0.12432 -3.03449,0.41062c-2.24545,0.65994 -4.27886,1.63653 -6.51447,2.38302c-3.29732,1.10785 -6.53758,2.46898 -9.95443,3.16141c-3.34584,1.15573 -6.92884,0.18522 -10.20236,1.42833c-1.77545,1.19942 -6.96312,3.05689 -7.01754,5.45239c0,0 0,0.10396 0.06704,0.1778c-2.02349,0.825 -4.59172,1.30055 -6.46043,1.92345c-2.96627,0.98876 -5.42026,1.50143 -8.45337,1.89251c-2.14531,0.27661 -2.4752,1.75466 -4.75946,2.51025c-0.98447,0.32564 -2.08177,-0.03085 -3.10874,0.11248c-1.65559,0.23107 -2.83874,1.81816 -4.41108,2.3857c-3.94733,1.4248 -7.48987,0.70703 -11.32532,1.98552c-2.10853,0.0155 -4.17317,0.608 -6.2622,0.89457c-4.45546,0.61119 -8.83127,-0.22792 -13.15579,-0.87425c-5.32207,-0.79541 -10.0202,0.46864 -15.1773,-2.10171c-3.3578,-1.67356 -5.81507,-4.21134 -8.59809,-6.58836c-1.01484,-0.8668 -2.38143,-1.33841 -3.22543,-2.3723c-0.48749,-0.59717 -0.03002,-1.67436 -0.54575,-2.24731c-0.36267,-0.4029 -1.12443,0.0655 -1.61865,-0.15721c-0.9912,-0.44666 -1.75012,-1.30903 -2.72097,-1.79834c-0.82598,-0.41629 -1.81229,-0.58094 -2.72185,-0.85007c-0.26398,0.79349 -0.53169,1.58573 -0.80321,2.37664c-1.42522,-1.57094 -2.8629,-3.87355 -4.47209,-5.05563c-0.29506,-0.21675 -1.24418,0.12922 -1.47582,-0.09372c-0.23182,-0.22312 -0.19714,-0.96687 -0.53981,-1.33005c-0.64194,-0.65399 -0.80077,-1.33835 -1.20366,-2.03328c-0.36093,-0.62256 -1.35303,-0.67077 -1.75308,-1.01522c-1.29749,-1.11717 -0.87485,-4.2876 -3.55277,-4.32151c-1.07666,-1.78278 -2.21165,-2.40608 -3.56229,-3.42544c-1.19652,-0.90303 -3.5802,0.62497 -4.85308,-0.54683c-2.56886,-2.16339 -7.13662,-0.39431 -9.74716,-2.75274c-0.6392,-0.57418 -1.45882,-0.81339 -2.12456,-1.33318c-1.53125,-1.19556 -2.39435,-3.01124 -3.63871,-4.464c-0.02289,-0.20469 -0.02289,-0.32992 -0.02289,-0.32992l0.02809,-3.08092c0.29142,-1.16566 0.58283,-2.33131 0.87425,-3.49697c-0.01139,-0.87712 -0.09,-1.91402 -0.15381,-2.98965c-3.08815,-0.96177 -2.42419,-4.28155 -2.42419,-4.28155z" fill="#6d3a00"/><path d="M58.52376,108.15695l0.03336,0.10594c0.04702,-0.02276 0.09414,-0.04553 0.14138,-0.06832c-0.058,-0.01335 -0.11624,-0.0259 -0.17475,-0.03762zM57.8294,108.61797c0.16707,-0.08217 0.33576,-0.16469 0.50597,-0.24748c-0.0964,-0.00605 -0.21733,-0.01561 -0.35869,-0.03075c-0.0496,0.09221 -0.09868,0.18497 -0.14728,0.27823zM36.15176,124.986c-1.90093,0.09116 -3.73587,-0.72844 -5.60382,-1.09265c0,0 -7.27607,-1.81901 -5.45705,-9.09508c1.81902,-7.27607 9.09508,-5.45705 9.09508,-5.45705c0.3531,0.16658 0.71301,0.31961 1.06415,0.49007c0.79077,-0.65344 1.64571,-1.24401 2.56414,-1.69985c1.40326,-0.69649 3.26032,-0.49023 4.45133,-1.50795c1.37803,-1.17753 1.87588,-4.29447 2.6914,-5.72642c0.72109,-1.26614 1.87154,-2.24847 2.62273,-3.49698c0.81745,-1.35862 0.81566,-3.30548 2.0608,-4.28717c3.12584,-2.46446 7.3233,-3.35039 11.24938,-4.00641c6.03754,-1.00883 13.00655,-2.00227 19.01337,0c2.49969,0 5.06658,0.49913 7.33924,1.54004c0.6033,0.27632 0.87341,1.09207 1.50098,1.30767c0.5252,0.18042 1.1017,-0.30839 1.65072,-0.22497c1.8251,0.27729 3.6723,0.46174 5.46241,0.91273c2.34441,0.59064 4.3758,2.30263 6.77701,2.58425c1.33091,0.15609 2.71765,-0.21687 4.01875,0.10379c1.26538,0.31186 2.24659,1.38111 3.49698,1.74849c0.67274,0.19765 1.41271,-0.23777 2.10095,-0.10379c1.47181,0.28654 2.89816,0.79429 4.29149,1.3483c4.58697,1.82384 8.86119,4.12052 13.13375,6.56199c4.56484,2.60849 11.44331,5.2993 13.90167,10.14321c0.87425,0.29142 1.91602,0.2828 2.62273,0.87424c1.24265,1.03996 1.93183,2.60625 2.99611,3.82812c3.05685,3.5095 5.48056,7.12408 8.19068,10.91406c1.47777,2.06659 2.79629,4.7338 5.03166,5.95961l3.4222,4.63477c0,0 2.78684,5.57368 -1.80056,9.10023c3.46777,0.65998 6.08934,3.70761 6.08934,7.36754c0,1.56045 -0.47656,3.0096 -1.29208,4.20985c0.26385,0.78876 0.41783,1.70944 0.41783,2.78411c0,7.5 -7.5,7.5 -7.5,7.5l-3.5675,-0.22394c-3.00556,-0.78381 -5.77224,-2.29641 -8.64658,-3.47367c-1.45744,-0.59693 -3.16983,0.36064 -4.72368,0.10378c-1.62484,-0.26859 -4.38599,-1.45026 -6.14101,-1.95074c-6.42299,-1.83164 -12.65477,-2.86662 -18.80725,-5.77115c-3.92726,-1.85402 -6.75306,-5.3667 -9.75223,-8.36587c-4.2047,-4.20469 -9.40561,-8.72709 -11.49158,-14.49509c-0.40831,-1.12903 -0.03445,-2.40937 -0.22496,-3.59475c-0.27102,-1.6863 -1.26241,-3.38058 -2.21637,-4.73777c-0.5227,-0.74364 -1.03401,-3.26937 -1.2963,-2.39907c-0.31979,1.06108 -6.0549,0.32181 -7.44331,0.32181c-7.12533,0 -13.85196,1.71197 -20.98186,1.74848c0,0 -5.39133,0.00001 -7.03194,-4.57101c-5.62255,1.63373 -11.6657,1.07403 -17.44689,1.07403c0,0 -2.14208,-0.00001 -4.13667,-1.14478c-0.55402,0.14333 -1.1182,0.23734 -1.69522,0.26501zM119.27889,140.43547c0.41199,0.43059 0.8319,0.86145 1.26226,1.29422c0.12015,-0.31106 0.23889,-0.62186 0.35617,-0.93258c-0.54141,-0.12283 -1.08387,-0.24159 -1.61843,-0.36164z" fill="#000000"/><path d="M301.63423,230.7751c-7.5,0 -7.5,-7.5 -7.5,-7.5v-2.62274c0.02319,-0.54982 0.42194,-2.73533 -0.42604,-3.43914c-0.92539,-0.76807 -2.23839,-1.11298 -2.94201,-2.08827c-1.47403,-2.04314 -2.64192,-4.34288 -3.42527,-6.73735c-0.58775,-1.79656 0.76383,-3.89182 0.12117,-5.66948c-0.35723,-0.98812 -1.49932,-1.60199 -1.74849,-2.62273c-0.44539,-1.82459 -0.03282,-3.76455 -0.26562,-5.62823c-0.32908,-2.63448 -0.89664,-5.25559 -0.93044,-7.91033c0,0 0,-7.5 7.5,-7.5c7.5,0 7.5,7.5 7.5,7.5c-0.0445,2.04364 0.63067,4.04206 0.81806,6.07758c0.09551,1.03745 -0.52634,2.10553 -0.26562,3.11422c0.26295,1.01728 1.494,1.60331 1.74849,2.62273c0.45854,1.83679 0.2869,3.77752 0.32181,5.67036c0.00715,0.38772 -0.44644,0.93357 -0.12892,1.15619c5.60048,3.92671 6.98683,8.8543 7.12288,15.45445v2.62274c0,0 0,7.5 -7.5,7.5z" fill="#000000"/><g data-paper-data="{&quot;index&quot;:null}"><path d="M109.95947,254.33593c1.51578,-1.6023 2.89429,-3.77532 4.54763,-5.15006c0.27551,-0.22909 1.15249,0.20845 1.51335,-0.12557c0.35401,-0.32769 0.15372,-0.95381 0.55535,-1.34527c0.66676,-0.68395 0.89037,-1.38666 1.28339,-2.14026c0.28551,-0.54744 1.3323,-0.56568 1.66055,-0.89561c1.29272,-1.29931 0.86159,-4.04766 3.44977,-4.24602c0.48677,-0.63878 0.67284,-1.19613 0.97731,-1.83517c0.39814,-0.83563 2.20472,-1.16058 2.66858,-1.64824c0.68207,-0.71708 3.72928,0.41581 4.85896,-0.55196c0.5488,-0.51874 1.94152,-0.48985 2.72463,-0.67751c2.55298,-0.61178 5.02554,-0.27105 7.02657,-2.07883c0.62431,-0.56761 1.44066,-0.79758 2.09708,-1.31009c1.41401,-1.10402 2.26375,-2.71825 3.35635,-4.10563c4.98392,5.07895 9.49171,10.3162 14.00973,15.77352c0.87025,1.05118 2.12974,1.77882 2.85335,2.93585c0.76897,1.22956 0.69121,2.88965 1.52984,4.07278c0.7362,1.03861 2.37474,1.24262 3.01701,2.3418c0.55791,0.95481 -0.05097,2.25123 0.28282,3.30551c0.59825,1.88955 2.66108,3.04715 3.37243,4.89709c0.49049,1.27556 0.10778,2.81301 0.71598,4.03682c0.50104,1.00817 1.85065,1.37302 2.44711,2.32785c2.12258,3.39787 3.16974,7.4348 4.67,11.0382c0.78949,1.89623 2.31246,3.39565 3.43623,5.11498c2.13763,6.41289 6.69694,11.16011 9.49142,17.25023c0.77706,1.69348 2.75484,3.35897 2.20124,5.13808c-1.52002,4.8849 -7.24754,5.96856 -11.25276,7.29566c-3.10872,1.03006 -5.47821,3.03733 -8.41123,4.24309c-4.83154,1.98624 -11.2065,1.41584 -16.37923,1.19482c-1.3547,-0.05788 -2.85564,0.34178 -4.05779,-0.28545c-4.26322,-2.22436 -4.10665,-3.17048 -5.04207,-6.43379c-3.2832,-1.96495 -4.38688,-4.82156 -6.84675,-7.68742c-2.42935,-2.8303 -5.54558,-5.0801 -7.93528,-7.94774c-0.59468,-0.71361 -0.84483,-1.69015 -1.50011,-2.34854c-0.85499,-0.85906 -2.20059,-1.17233 -2.95123,-2.12392c-0.6987,-0.88575 -0.65196,-2.18139 -1.21577,-3.15856c-2.37781,-4.12116 -5.71834,-7.94313 -7.86536,-12.23402c-0.64775,-1.29454 -0.79899,-2.82149 -1.56031,-4.05268c-0.77052,-1.24606 -2.30657,-1.93909 -2.95663,-3.25202c-0.43982,-0.88832 0.16482,-2.02305 -0.12455,-2.97111c-0.55629,-1.82258 -2.42654,-2.97909 -3.27657,-4.68458c-1.40681,-2.8226 -1.6544,-5.01639 -3.37104,-7.67623z" fill="#6d3a00"/><path d="M203.75543,325.05866c0,7.5 -7.5,7.5 -7.5,7.5l-0.89959,-0.20063c-3.0096,1.70511 -6.69122,3.07178 -10.13847,3.60076c-2.03677,0.31255 -4.16484,0.22262 -6.11971,0.87425c-3.42606,0.08677 -8.87203,0.89406 -12.11719,-0.22497c-2.9553,-1.01907 -6.34059,-3.81102 -8.37539,-6.24611c-1.65298,-1.97816 -4.49024,-3.62821 -4.6188,-6.20288c-0.18446,-3.69435 1.44859,-7.56524 3.78829,-10.4302c1.58236,-1.9376 4.90412,-1.06107 7.25908,-1.90505c2.77034,-0.99284 6.15714,-2.4835 9.03854,-2.91076c3.54045,-0.52498 7.25979,0.43263 10.77593,-0.04065c3.60343,-0.48503 6.8378,-0.93044 10.53306,-0.93044c0,0 7.5,0 7.5,7.5c0,1.84026 -0.45154,3.22898 -1.13303,4.27695c1.14238,1.11082 2.00728,2.79283 2.00728,5.33974z" fill="#000000"/></g><g data-paper-data="{&quot;index&quot;:null}"><path d="M234.09167,256.93629c0.68954,-2.06863 1.37127,-4.13621 1.95924,-6.21703c0.97718,0.22627 2.05301,0.11874 3.02606,0.41038c2.23711,0.67051 4.26604,1.63254 6.49796,2.3778c3.30589,1.10732 6.55662,2.47822 9.98151,3.16963c3.31479,1.14951 6.88723,0.16048 10.1028,1.38931c1.45849,0.99985 6.79576,3.03642 6.74894,5.00094c-0.27103,-0.12289 -0.52964,-0.25332 -0.7724,-0.39266c-0.11764,0.83878 -0.42175,1.65142 -0.62421,2.4767c-0.24989,1.01864 -0.67853,2.00279 -0.79037,3.04566c-0.16044,1.49601 0.18024,3.02256 -0.02033,4.51372c-0.04398,0.32699 -1.6928,5.23152 -1.8925,5.83063c-1.28208,3.8067 -2.7648,8.22484 -4.5601,11.8269c-1.1465,2.30032 -4.29456,4.89411 -5.02506,7.30732c-0.23163,0.76517 0.28296,1.6297 0.06059,2.39761c-1.34553,4.64648 -4.44353,8.42692 -6.30484,12.81291c-1.72904,4.07434 -3.34339,9.21452 -9.3107,8.38623c-1.82385,-0.25316 -3.01655,-2.12762 -4.63669,-3.00264c-2.89655,-1.56437 -6.55673,-1.98036 -9.52386,-3.44997c-1.42852,-0.70754 -2.69093,-1.77191 -4.19858,-2.28983c-5.23478,0 -10.50342,-1.62105 -12.6051,-6.98611c-0.45143,-1.15238 -0.16091,-2.47179 -0.16091,-3.70943c0,-1.23764 -0.20445,-2.52695 0.16091,-3.70943c0.36835,-1.19214 1.42018,-2.06299 1.9689,-3.18361c1.47002,-3.00211 2.60495,-5.94833 4.83987,-8.59809c0.6619,-0.78476 1.75502,-1.19878 2.25952,-2.09289c0.53149,-0.94194 0.27631,-2.17481 0.70807,-3.16643c1.26763,-2.91137 3.90464,-5.16871 5.30621,-7.99869c2.55281,-5.15452 4.98794,-10.69753 6.80508,-16.14893z" fill="#6d3a00"/><path d="M256.51443,328.93592c0,7.5 -7.5,7.5 -7.5,7.5h-0.87424c-6.521,0 -13.04075,0.03755 -19.5605,-0.09684c-3.18191,-0.975 -6.47875,-1.80592 -9.63798,-2.82499c-1.51626,-0.48909 -3.21059,-0.71795 -4.46881,-1.69526c-2.18777,-1.69934 -4.30857,-3.68641 -5.60885,-6.13249c-0.86404,-1.62544 -0.52634,-3.65258 -0.5709,-5.49286c-0.12318,-5.08783 0.61192,-9.28306 6.37836,-12.17456c2.38008,-1.19345 5.32143,0.20175 7.98038,0.33984c1.35388,0.07031 2.76484,-0.12459 4.05709,0.28531c1.37817,0.43715 2.44785,1.5496 3.74448,2.18932c2.68014,1.32229 5.90963,1.36199 8.51605,2.98021c1.05039,0.65214 1.6017,1.92553 2.62273,2.62274c0.56194,0.38373 1.36541,0.21415 1.97488,0.51676c2.12395,1.05457 4.05323,2.47458 6.17868,3.52614c0,0 0.97887,0.48944 2.0018,1.46832c2.14364,0.74052 4.76682,2.55285 4.76682,6.98837z" fill="#000000"/></g><g data-paper-data="{&quot;index&quot;:null}"><path d="M124.09169,251.43629c0.68954,-2.06863 1.37127,-4.13621 1.95925,-6.21703c0.97718,0.22627 2.053,0.11874 3.02605,0.41038c2.23712,0.67051 4.26605,1.63254 6.49797,2.3778c3.30589,1.10732 6.55662,2.47822 9.9815,3.16963c3.31478,1.14951 6.88723,0.16048 10.1028,1.38931c1.45849,0.99985 6.79576,3.03642 6.74894,5.00094c-0.27103,-0.12289 -0.52964,-0.25332 -0.7724,-0.39266c-0.11764,0.83878 -0.42175,1.65142 -0.62421,2.4767c-0.24989,1.01864 -0.67853,2.00279 -0.79037,3.04566c-0.16044,1.49601 0.18024,3.02256 -0.02033,4.51372c-0.04398,0.32699 -1.6928,5.23152 -1.8925,5.83063c-1.28208,3.8067 -2.7648,8.22484 -4.5601,11.8269c-1.1465,2.30032 -4.29455,4.89411 -5.02505,7.30732c-0.23162,0.76517 0.28296,1.6297 0.06059,2.39761c-1.34553,4.64648 -4.44354,8.42692 -6.30484,12.81291c-1.72905,4.07434 -3.34338,9.21452 -9.3107,8.38623c-1.82386,-0.25316 -3.01655,-2.12762 -4.6367,-3.00264c-2.89654,-1.56437 -6.55672,-1.98036 -9.52385,-3.44997c-1.42852,-0.70754 -2.69093,-1.77191 -4.19858,-2.28983c-5.23478,0 -10.50341,-1.62105 -12.6051,-6.98611c-0.45142,-1.15238 -0.1609,-2.47179 -0.1609,-3.70943c0,-1.23764 -0.20446,-2.52695 0.1609,-3.70943c0.36835,-1.19214 1.42018,-2.06299 1.9689,-3.18361c1.47002,-3.00211 2.60494,-5.94833 4.83987,-8.59809c0.6619,-0.78476 1.75502,-1.19878 2.25952,-2.09289c0.53149,-0.94194 0.27631,-2.17481 0.70807,-3.16643c1.26763,-2.91137 3.90464,-5.16871 5.30621,-7.99869c2.5528,-5.15452 4.98793,-10.69753 6.80507,-16.14893z" fill="#6d3a00"/><path d="M146.51445,323.43592c0,7.5 -7.5,7.5 -7.5,7.5h-0.87425c-6.521,0 -13.04074,0.03755 -19.5605,-0.09684c-3.18192,-0.975 -6.47876,-1.80592 -9.63799,-2.82499c-1.51626,-0.48909 -3.21059,-0.71795 -4.46881,-1.69526c-2.18777,-1.69934 -4.30857,-3.68641 -5.60885,-6.13249c-0.86404,-1.62544 -0.52634,-3.65258 -0.5709,-5.49286c-0.12317,-5.08783 0.61191,-9.28306 6.37836,-12.17456c2.38008,-1.19345 5.32143,0.20175 7.98038,0.33984c1.35388,0.07031 2.76484,-0.12459 4.05709,0.28531c1.37817,0.43715 2.44785,1.5496 3.74448,2.18932c2.68014,1.32229 5.90963,1.36199 8.51605,2.98021c1.05039,0.65214 1.6017,1.92553 2.62273,2.62274c0.56195,0.38373 1.36542,0.21415 1.97489,0.51676c2.12396,1.05457 4.05323,2.47458 6.17868,3.52614c0,0 0.97888,0.48944 2.00181,1.46832c2.14364,0.74052 4.76682,2.55285 4.76682,6.98837z" fill="#000000"/></g><g data-paper-data="{&quot;index&quot;:null}"><path d="M221.45946,254.33593c1.51579,-1.6023 2.8943,-3.77532 4.54764,-5.15006c0.27551,-0.22909 1.15248,0.20845 1.51334,-0.12557c0.35402,-0.32769 0.15373,-0.95381 0.55536,-1.34527c0.66676,-0.68395 0.89036,-1.38666 1.28339,-2.14026c0.28551,-0.54744 1.3323,-0.56568 1.66055,-0.89561c1.29271,-1.29931 0.8616,-4.04766 3.44977,-4.24602c0.48678,-0.63878 0.67284,-1.19613 0.97731,-1.83517c0.39814,-0.83563 2.20472,-1.16058 2.66858,-1.64824c0.68207,-0.71708 3.72928,0.41581 4.85896,-0.55196c0.54881,-0.51874 1.94152,-0.48985 2.72463,-0.67751c2.55299,-0.61178 5.02555,-0.27105 7.02658,-2.07883c0.6243,-0.56761 1.44065,-0.79758 2.09707,-1.31009c1.41401,-1.10402 2.26375,-2.71825 3.35635,-4.10563c4.98393,5.07895 9.49172,10.3162 14.00973,15.77352c0.87025,1.05118 2.12975,1.77882 2.85335,2.93585c0.76896,1.22956 0.69119,2.88965 1.52983,4.07278c0.7362,1.03861 2.37474,1.24262 3.01701,2.3418c0.55792,0.95481 -0.05098,2.25123 0.28282,3.30551c0.59824,1.88955 2.66108,3.04715 3.37243,4.89709c0.49048,1.27556 0.10777,2.81301 0.71597,4.03682c0.50103,1.00817 1.85064,1.37302 2.4471,2.32785c2.12258,3.39787 3.16974,7.4348 4.67,11.0382c0.78949,1.89623 2.31246,3.39565 3.43623,5.11498c2.13763,6.41289 6.69693,11.16011 9.49142,17.25023c0.77707,1.69348 2.75484,3.35897 2.20124,5.13808c-1.52002,4.8849 -7.24754,5.96856 -11.25275,7.29566c-3.10872,1.03006 -5.47821,3.03733 -8.41123,4.24309c-4.83153,1.98624 -11.2065,1.41584 -16.37923,1.19482c-1.3547,-0.05788 -2.85564,0.34178 -4.05779,-0.28545c-4.26322,-2.22436 -4.10664,-3.17048 -5.04207,-6.43379c-3.2832,-1.96495 -4.38687,-4.82156 -6.84675,-7.68742c-2.42935,-2.8303 -5.54558,-5.0801 -7.93528,-7.94774c-0.59468,-0.71361 -0.84483,-1.69015 -1.50011,-2.34854c-0.85499,-0.85906 -2.20058,-1.17233 -2.95123,-2.12392c-0.6987,-0.88575 -0.65196,-2.18139 -1.21577,-3.15856c-2.37781,-4.12116 -5.71834,-7.94313 -7.86536,-12.23402c-0.64775,-1.29454 -0.79899,-2.82149 -1.56031,-4.05268c-0.77051,-1.24606 -2.30656,-1.93909 -2.95662,-3.25202c-0.43982,-0.88832 0.16481,-2.02305 -0.12455,-2.97111c-0.55629,-1.82258 -2.42654,-2.97909 -3.27657,-4.68458c-1.40681,-2.8226 -1.6544,-5.01639 -3.37104,-7.67623z" fill="#6d3a00"/><path d="M315.25543,325.05866c0,7.5 -7.5,7.5 -7.5,7.5l-0.89959,-0.20063c-3.0096,1.70511 -6.69121,3.07178 -10.13847,3.60076c-2.03678,0.31255 -4.16484,0.22262 -6.11971,0.87425c-3.42605,0.08677 -8.87203,0.89406 -12.11719,-0.22497c-2.9553,-1.01907 -6.34059,-3.81102 -8.37539,-6.24611c-1.65298,-1.97816 -4.49024,-3.62821 -4.6188,-6.20288c-0.18446,-3.69435 1.44858,-7.56524 3.78829,-10.4302c1.58236,-1.9376 4.90412,-1.06107 7.25908,-1.90505c2.77034,-0.99284 6.15714,-2.4835 9.03854,-2.91076c3.54045,-0.52498 7.25979,0.43263 10.77593,-0.04065c3.60343,-0.48503 6.8378,-0.93044 10.53306,-0.93044c0,0 7.5,0 7.5,7.5c0,1.84026 -0.45154,3.22898 -1.13304,4.27695c1.14238,1.11082 2.00728,2.79283 2.00728,5.33974z" fill="#000000"/></g><path d="M23.76064,189.5418c-0.7471,-0.42691 -1.51311,-5.77629 -1.51064,-6.28115c0.01546,-3.17018 -0.19919,-6.34669 0,-9.51064c0.08096,-1.28592 -0.13457,-3.03529 0.9375,-3.75c2.00297,-1.33531 4.05314,-2.60239 6.14324,-3.79673c1.30872,-0.74784 9.69377,3.84652 11.08201,5.35909c1.04475,1.13833 2.83083,1.24713 4.19136,1.97943c4.48942,2.41643 8.91787,5.23066 13.35983,7.80843c1.21792,0.70679 4.11664,2.44353 4.54647,4.01957c0.47319,1.73503 0.65536,3.5748 0.53163,5.36894c-0.16636,2.41224 -3.39267,4.42074 -5.01387,5.83969c-5.3145,4.65153 -19.2671,7.25599 -25.52817,3.73407c-0.29119,-0.16379 -0.55043,-0.36298 -0.78561,-0.58887c-1.41422,-1.07544 -2.43497,-2.6416 -2.80842,-4.44467c-1.12074,-1.53316 -3.10792,-2.70924 -4.36417,-4.17487z" fill="#6e4415"/><path d="M45.51777,188.98223c1.76777,1.76777 0,3.53553 0,3.53553l-1.26777,1.23223c-2.11411,1.54725 -4.20186,3.31031 -4,6c0,0 0,2.5 -2.5,2.5c-2.5,0 -2.5,-2.5 -2.5,-2.5c0.17846,-4.57732 2.41563,-7.26208 6,-10l0.73223,-0.76777c0,0 1.76777,-1.76777 3.53553,0z" fill="#030201"/><path d="M45.61159,141.03238c1.13841,0.77077 1.13841,2.4416 1.13841,2.4416c0,4.0919 0.35129,11.02263 -2.90126,14.02625c-2.89554,2.67393 -8.51433,1.56388 -10.62685,-1.64879c-1.44145,-2.19213 -2.82192,-9.08873 -1.78159,-11.764c0.32564,-0.83739 0.83695,-1.68256 1.47873,-2.48111l0.50978,-1.43903c0,0 0.87849,-2.47985 3.06272,-1.65035c2.76951,-1.63744 5.98335,-2.0852 8.0774,0.19758c0.56196,0.61261 0.83664,1.43961 1.04266,2.31785z" fill="#030201"/><path d="M34.5,144.25c0,-2.07107 1.67893,-3.75 3.75,-3.75c2.07107,0 3.75,1.67893 3.75,3.75c0,2.07107 -1.67893,3.75 -3.75,3.75c-2.07107,0 -3.75,-1.67893 -3.75,-3.75z" fill="#ffffff"/><path d="M37,152.25c0,-2.07107 1.67893,-3.75 3.75,-3.75c2.07107,0 3.75,1.67893 3.75,3.75c0,2.07107 -1.67893,3.75 -3.75,3.75c-2.07107,0 -3.75,-1.67893 -3.75,-3.75z" fill="#ffffff"/></g></g></svg>