<svg version="1.1" xmlns="http://www.w3.org/2000/svg" xmlns:xlink="http://www.w3.org/1999/xlink" width="232.62387" height="113.62409" viewBox="0,0,232.62387,113.62409"><g transform="translate(-76.37613,-92.87591)"><g data-paper-data="{&quot;isPaintingLayer&quot;:true}" fill-rule="nonzero" stroke-linecap="butt" stroke-linejoin="miter" stroke-miterlimit="10" stroke-dasharray="" stroke-dashoffset="0" style="mix-blend-mode: normal"><path d="M161.30454,159.0446c1.38322,3.95169 -2.56847,5.92754 -2.56847,5.92754l-0.70053,0.0634c-2.79898,2.76971 -6.16308,4.90421 -9.30366,7.27957c-1.15505,0.87362 -1.9678,2.28173 -3.31846,2.8043c-1.18334,0.45783 -6.14832,0.3806 -7.91342,0.3806c-3.09384,0 -6.76244,0.44911 -9.80091,-0.06456c-4.50179,-0.76105 -8.91389,-3.20492 -12.93382,-5.24601c-1.57625,-0.44614 -3.2617,-0.60948 -4.72876,-1.33843c-0.67419,-0.33499 -0.86653,-1.25578 -1.44992,-1.7316c-1.12282,-0.91578 -2.18264,1.9461 -3.45793,2.63386c-1.49992,0.8089 -3.15748,1.34406 -4.82774,1.68218c-4.18871,0.84794 -8.36239,-0.36477 -12.41183,-0.9729c-1.26649,-0.1902 -2.65701,0.31834 -3.838,-0.17708c-4.57744,-1.92021 -6.82672,-4.07448 -7.48652,-8.98455c-0.74186,-5.52073 0.5292,-14.12845 7.02202,-16.42031c3.06102,-1.08049 6.51237,0.1503 9.71433,0.68396c0.98639,0.1644 2.0158,-0.17708 3,0c0.55029,0.09901 1.11122,0.2672 1.6075,0.53603c0.03621,-0.26631 0.09311,-0.53642 0.10001,-0.79735c1.37743,-1.73721 2.19227,-4.13853 4.13229,-5.21162c1.86292,-1.03044 4.23461,-0.45732 6.35929,-0.59163c4.27802,-0.27043 9.87846,-0.86227 13.62866,1.74675c0.66655,0.46372 0.18275,1.8358 0.86403,2.27759c0.43277,0.28064 -0.12608,-1.24132 0.31055,-1.51591c1.30558,-0.82106 2.87902,-1.16472 4.39585,-1.44386c4.04514,-0.74441 10.58932,-0.66508 14.60182,0c5.17766,0.8582 10.26728,3.59565 13.2553,8.01189c0.7455,1.10184 0.87371,2.56576 1.69218,3.61454c0.47747,0.61182 1.35007,0.76584 2.02511,1.14876c0,0 3.35444,2.2363 2.03103,5.70485z" fill="#868686" stroke="none" stroke-width="0.5"/><path d="M284.5,185.5c0,11.59798 -9.62588,21 -21.5,21c-11.87412,0 -21.5,-9.40202 -21.5,-21c0,-11.59798 9.62588,-21 21.5,-21c11.87412,0 21.5,9.40202 21.5,21z" fill="#000000" stroke="#000000" stroke-width="0"/><path d="M207.5,185.5c0,11.59798 -9.62588,21 -21.5,21c-11.87412,0 -21.5,-9.40202 -21.5,-21c0,-11.59798 9.62588,-21 21.5,-21c11.87412,0 21.5,9.40202 21.5,21z" fill="#000000" stroke="#000000" stroke-width="0"/><path d="M150,138.5c0,-2.5 2.5,-2.5 2.5,-2.5h2c7.16517,0 13.82328,-1 21,-1c2,0 4.00722,-0.1698 6,0c0.85747,0.07306 1.76575,0.8512 2.53822,0.47189c0.52803,-0.25928 -0.04034,-1.18885 0.09007,-1.76246c0.71715,-3.15439 0.87241,-5.28285 0.90399,-8.60989c1.37693,-4.13078 0.38435,-7.68969 0.98645,-11.905c0.34762,-2.43369 1.6747,-4.66007 2.01355,-7.095c0.4474,-3.215 -0.04817,-8.75455 2.69995,-11.36731c2.67917,-2.54721 7.4891,-1.73223 10.76777,-1.73223c9,0 18,0 27,0c13.66624,0 27.33391,-0.05961 41,0c4.25315,0.01855 11.273,0.98702 13.3097,5.54329c0.53886,1.20547 0.15419,2.63677 0.1903,3.95671c0.08189,2.99378 0,6.00498 0,9c0,8 0,16 0,24c0,2.86653 -0.01393,5.73307 -0.03228,8.59954c-0.00293,0.45744 -0.41507,1.16771 -0.00594,1.37235c0.566,0.2831 1.21358,-0.51213 1.84368,-0.45316c1.36839,0.12805 2.64016,0.80068 4,1c5.61036,0.82235 12.01316,-0.01873 17.69454,-0.01873c0,0 2.5,0 2.5,2.5c0,1.08233 -0.46857,1.69608 -1,2.04412c0,6.18443 0,13.96495 0,19.95588c0,3.4703 -0.45756,6.07491 -1.03228,9.40046c-0.31409,1.81746 0.62667,4.93745 -0.15802,6.55625c-0.68945,1.42232 -1.93067,2.66354 -3.35299,3.35299c-1.18819,0.57596 -2.63677,0.15419 -3.95671,0.1903c-4.47526,0.12242 -13.1812,1.49557 -16.76777,-1.73223c-0.91951,-0.82753 -0.71012,-2.40014 -1.35886,-3.45344c-0.49443,-0.80276 -1.51493,-1.19155 -2,-2c-1.38318,-2.30531 -1.58795,-4.62207 -4.1877,-6.1877c-3.64984,-2.19803 -8.657,-1.62663 -12.68567,-1.62663c-3.71357,0 -9.59323,-1.2903 -11.87337,2.81433c-1.17626,2.11746 -2.11418,5.71653 -2.65891,8.08613c-0.33031,1.43687 0.37824,3.36172 -0.69995,4.36731c-1.64164,1.5311 -8.48217,0.73223 -10.76777,0.73223c-7.66667,0 -15.33333,0 -23,0c-0.19924,0 -7.36456,0.03839 -7.72446,-0.10727c-1.70341,-0.6894 -2.98648,-2.14206 -4.47973,-3.21309c-0.2922,-4.12857 0.49938,-7.42848 -2.56358,-10.41188c-2.51041,-2.4452 -4.69178,-4.72982 -7.61898,-6.68764c-2.93628,-1.96389 -4.12641,-2.58013 -7.61325,-2.58013c-0.78654,0 -3.61535,-0.2929 -4.48252,0.48677c-1.50611,1.35413 -2.31996,3.34648 -3.74972,4.781c-1.86158,1.86778 -4.16408,3.36198 -5.64114,5.54656c-2.71592,4.01687 -1.4523,10.5059 -5.8123,13.8123c-1.15016,0.87222 -2.87622,0.24892 -4.31433,0.37337c-1.24149,-0.03576 -2.53929,0.26413 -3.72446,-0.10727c-1.14686,-0.35939 -1.85982,-1.61994 -3,-2c-0.94868,-0.31623 -2.08119,0.3947 -3,0c-1.68843,-0.7253 -3.48261,-1.66951 -4.47973,-3.21309c-0.75786,-1.17321 -0.23832,-2.78413 -0.29581,-4.17964c-0.09606,-2.33136 -0.01018,-4.66669 0,-7c0.00943,-2.16103 0.67013,-4.26996 1.03228,-6.40046c0.18573,-1.09261 -0.27053,-2.27096 0.07499,-3.324c0.37469,-1.14195 1.61399,-1.86183 2,-3c0.28661,-0.84507 -0.223,-1.79601 -0.07499,-2.676c0.63061,-3.74925 2.50213,-6.98051 2.97989,-10.84589c0.38023,-3.07633 -0.00844,-6.62094 -0.01214,-9.70952c-0.53144,-0.34804 -1.00003,-0.96179 -1.00003,-2.04414z" fill="#ff0000" stroke="none" stroke-width="0.5"/><path d="M245.5,140.5v-46h36v46z" fill="#00b5ff" stroke="#000000" stroke-width="0"/></g></g></svg>