<svg version="1.1" xmlns="http://www.w3.org/2000/svg" xmlns:xlink="http://www.w3.org/1999/xlink" width="231.17928" height="166.35757" viewBox="0,0,231.17928,166.35757"><g transform="translate(-108.53649,-83.27917)"><g data-paper-data="{&quot;isPaintingLayer&quot;:true}" fill-rule="nonzero" stroke="none" stroke-linecap="butt" stroke-linejoin="miter" stroke-miterlimit="10" stroke-dasharray="" stroke-dashoffset="0" style="mix-blend-mode: normal"><path d="M157.80176,247.872c-2.5,0 -2.5,-2.5 -2.5,-2.5c0,-0.18809 0,-0.39955 0,-0.62942l-0.81919,0.6507c0,0 -2.08013,1.38675 -3.46688,-0.69338c-1.38675,-2.08013 0.69338,-3.46687 0.69338,-3.46687l0.23479,0.03878c0.34286,-0.44769 0.67281,-0.83883 0.99774,-1.18474l-1.02226,0.13778c0,0 -2.5,0 -2.5,-2.5c0,-2.5 2.5,-2.5 2.5,-2.5l2.93666,0.15918c0.46149,0.18335 0.98971,0.35167 1.55643,0.48954c0.34491,-0.21422 0.79693,-0.3546 1.38933,-0.3546c0.88286,0 1.45395,0.31178 1.82336,0.71513c1.23296,-0.03626 2.4199,-0.30479 3.33298,-0.93c2.4847,-1.70137 4.10501,-4.10282 6.85623,-5.64217c3.57155,-1.99832 6.92398,-3.30836 9.619,-6.5054c0,0 1.62698,-1.89814 3.52512,-0.27116c1.89814,1.62698 0.27116,3.52512 0.27116,3.52512c-3.1536,3.631 -6.84462,5.33919 -10.96949,7.61242c-2.65714,1.46436 -4.1817,3.98066 -6.67336,5.53445c-1.25014,0.77958 -2.66016,1.24506 -4.1261,1.46574c-0.2448,0.15031 -0.42811,0.21906 -0.42811,0.21906c-0.25473,0.09553 -0.49793,0.18012 -0.73078,0.25776c0,0.60441 0,1.20882 0,1.81323v2.05885c0,0 0,2.5 -2.5,2.5z" fill="#fff700" stroke-width="0.5"/><path d="M234.48924,181.12067c-0.04781,0.1733 -0.11602,0.35481 -0.208,0.54457c-1.09045,2.24965 -3.3401,1.1592 -3.3401,1.1592l-1.8996,-0.93553c-1.54397,-0.96124 -4.12924,-2.85842 -5.99477,-3.1094c-0.89582,-0.12052 -1.81003,0.39398 -2.70092,0.24121c-2.92623,-0.50179 -5.8544,-2.8173 -8.68984,-3.717c-2.3681,-0.75141 -4.53772,-0.43494 -6.60029,-2.35368c-2.56595,-2.38703 -1.95449,-4.17186 -2.11846,-7.10483c-0.39662,-7.09459 -0.7173,-13.90532 -0.2551,-21.0612c0.67722,-14.47786 2.70932,-28.72268 3.84111,-43.15235c0.43892,-5.59597 1.00545,-14.5023 6.98097,-17.49313c2.89399,-1.44848 7.62504,-0.58692 10.75346,-0.76307c2.20347,1.04823 4.49346,2.37132 5.85136,4.39869c0.30742,0.45899 0.60181,0.94512 0.8128,1.4588c0.92625,-1.01275 2.04837,-2.02947 3.36183,-2.07443c1.62939,-0.05578 3.12461,1.17034 4.33794,2.25931c0.74951,0.67268 2.23447,4.79289 2.48948,5.81858c0.12548,0.5047 0.27799,1.01786 0.37601,1.53379c0.89207,-0.69652 1.8958,-1.28927 2.95911,-1.20825c1.92532,0.14671 4.9287,3.37621 5.97098,5.02668c4.03389,6.38779 2.20845,12.29914 1.42429,19.23793c-0.43146,1.96399 -0.34355,4.01982 -0.78912,5.98066c-0.243,1.06933 -0.93107,1.9947 -1.2422,3.04622c-1.50122,5.07365 -1.9073,10.66188 -3.11188,15.76526c-0.93169,3.94722 -2.50959,7.80537 -3.62004,11.76836c-2.21497,7.90477 -4.46328,15.8011 -7.49612,23.43211c0,0 -0.33031,0.83106 -1.09288,1.30152z" fill="#b4b4b4" stroke-width="0.5"/><path d="M257.36181,169.78282c0,0.41989 -0.10352,0.81561 -0.28643,1.16302l-0.95634,1.91269c-0.00669,4.62448 -2.37328,8.68481 -3.54406,13.1435c-2.10588,8.01981 -3.17606,16.93762 -8.35324,23.80111c-2.08809,2.76821 -4.82252,4.55168 -7.49473,6.69061c-7.55284,0.92853 -13.65881,6.64623 -21.17113,7.81628c-3.96517,0.61758 -7.94091,-0.76194 -11.82341,-1.15637c-5.27538,-0.53594 -10.91858,0.01217 -16.22445,0.01217c0,0 -0.4027,0 -0.88486,-0.16162c-3.19204,1.49932 -6.27171,2.56354 -9.69362,3.82055c-7.46717,2.74301 -14.50909,7.32169 -22.31902,9.20112c-4.49002,1.0805 -9.12998,1.63241 -13.65709,2.67688c-6.8048,1.23849 -13.85855,2.10658 -20.79919,2.11035c-1.45296,0.00079 -6.31733,0.14304 -7.06195,-0.73223c-2.35212,-2.76483 -0.44973,-6.36592 1.49934,-8.26974c1.29538,-1.26532 2.72222,-1.96143 4.22227,-2.46821c-1.51403,-0.00026 -3.02805,-0.00054 -4.54208,-0.00054h-3.23533c-1.38071,0 -2.5,-1.11929 -2.5,-2.5c0,-0.60723 0.21649,-1.16389 0.5765,-1.59702l2.6357,-3.22141l0.01607,0.01315c0.04144,-0.05791 0.08349,-0.11544 0.12617,-0.17258c2.44739,-3.27683 7.02606,-5.75716 10.29278,-8.19876c0.16123,-0.12051 1.74088,-1.53332 3.25706,-2.44227c-0.2997,-0.0883 -0.5726,-0.17593 -0.78676,-0.24623c-0.94197,-0.30922 -1.79684,-0.86569 -2.75459,-1.12191c-2.53401,-0.6779 -9.32256,0.22095 -10.53651,-2.67169c-0.73718,-1.75658 1.24975,-3.68127 2.44221,-5.16689c0.61589,-0.7673 5.74059,-3.01133 6.54387,-3.35625c3.60187,-1.5466 7.25269,-2.96055 10.89216,-4.41593c10.28301,-4.57206 19.63915,-11.15021 29.42817,-16.62661c7.23275,-4.04632 15.17172,-7.07485 22.65605,-10.60557c1.67874,-0.79194 2.97163,-2.2251 4.44916,-3.3486c3.70366,-2.81621 8.30237,-4.63701 12.43918,-6.70542c19.19274,-9.58993 38.76825,-18.20925 58.31955,-27.09901c8.35079,-3.78637 15.65451,-9.46679 24.27465,-12.71213l1.59655,-0.10822c0.27119,-0.05096 0.45774,-0.05096 0.45774,-0.05096c0.0951,0 0.19011,0.00021 0.28505,0.00062l0.00907,-0.00062c0,0 0.01184,0 0.03389,0.00082c8.81913,0.04392 16.93608,1.86764 24.5255,6.555c3.06338,1.89199 6.28073,3.56548 7.99714,6.93864c0.72926,1.4332 1.04283,5.31603 1.11776,6.83366c0.34443,6.97629 -0.53186,12.19033 -3.75443,18.40666c-2.26848,2.02955 -5.15498,4.83235 -8.01908,6.049c-2.91372,1.23773 -6.53538,0.80837 -9.61361,1.08865c-8.38472,0.76346 -16.91823,-0.50089 -25.27629,0.29239c-2.87435,0.27281 -5.06607,1.44924 -7.70863,2.24259c-3.00939,0.90348 -5.02148,1.42347 -7.67678,2.78607c0.36212,0.43373 0.58003,0.99205 0.58003,1.60126z" fill="#b1b1b1" stroke-width="0.5"/><path d="M200.56849,200.1459c-0.89592,0.01284 -1.62097,-0.51068 -1.62097,-0.51068c-6.65742,-4.8072 -12.79566,-10.25963 -18.9103,-15.73709c-3.06553,-2.74608 -6.469,-5.15262 -9.37527,-7.98143c-3.75754,-3.65739 -7.10202,-8.15267 -11.09379,-11.62562c-0.8273,-0.71978 -1.90477,-1.13065 -2.68416,-1.90205c-1.42918,-1.41452 -2.45941,-3.19575 -3.87838,-4.62052c-4.3889,-5.43132 -9.10414,-9.43667 -9.13322,-16.99149c-0.00751,-1.95201 0.79084,-6.28936 2.33594,-7.44738c0.85333,-0.63954 2.01835,-0.67879 3.14495,-0.57052c-0.19448,-0.48782 -0.34151,-1.00258 -0.5068,-1.49567c-0.33591,-1.00211 -1.29677,-5.27505 -1.02595,-6.24506c0.4384,-1.5703 1.04089,-3.40769 2.44517,-4.23596c1.132,-0.66766 2.62464,-0.41291 3.94993,-0.05627c-0.09799,-0.5466 -0.11083,-1.11479 -0.0981,-1.66706c0.05623,-2.43945 1.27698,-4.78559 2.57241,-6.85343c2.73331,-1.53201 6.26092,-4.8002 9.48,-5.13311c6.64675,-0.6874 11.90905,6.52038 15.2854,11.00455c8.70619,11.5628 18.07245,22.48606 26.42112,34.33371c4.23396,5.78739 7.62218,11.70421 11.09884,17.90126c1.43728,2.56191 2.91183,3.73887 2.02986,7.13065c-0.70894,2.72638 -2.70893,3.62496 -4.30267,5.53088c-1.90825,2.28205 -3.13416,5.80809 -5.33274,7.80329c-0.66935,0.60744 -1.71684,0.66459 -2.40768,1.24748c-1.43867,1.21384 -2.60007,4.20284 -3.38597,5.84301l-1.09967,1.80954c0,0 -1.31169,2.12825 -3.43995,0.81656c-0.17951,-0.11065 -0.33455,-0.22709 -0.46798,-0.34758z" data-paper-data="{&quot;index&quot;:null}" fill="#b4b4b4" stroke-width="0.5"/><g stroke-width="5"><path d="M303.53711,109.95996c1.66557,8.02227 -9.34624,12.0416 -23.35547,14.95018c-14.00925,2.90858 -24.60807,3.37601 -26.27366,-4.64626c-1.66557,-8.02227 6.23284,-21.49635 20.24209,-24.40493c14.00925,-2.90858 27.72147,6.07875 29.38705,14.10104z" fill="#b09d77"/><path d="M285.88795,125.67098c-14.00925,2.90858 -24.60807,3.37601 -26.27366,-4.64626c-1.66557,-8.02227 6.23284,-21.49635 20.24209,-24.40493c14.00925,-2.90858 24.29769,9.50254 25.96327,17.52482c0,0 -5.92247,8.61781 -19.93171,11.52638z" fill="#b09256"/><path d="M247.99396,140.43139c0,0 -3.09229,-5.04386 -3.76793,-7.38042c-0.79681,-2.75559 -0.70964,-8.10432 -0.70964,-8.10432l72.62801,-15.0789c0,0 1.70714,4.22059 2.089,7.12718c0.35708,2.71799 0.1328,9.78452 0.1328,9.78452z" fill="#b09d77"/><path d="M251.60795,139.29013c0,0 -3.09229,-4.88691 -3.76793,-7.15076c-0.79681,-2.66985 -0.70964,-7.85214 -0.70964,-7.85214l68.82381,-13.65864c0,0 2.46797,4.46968 2.84984,7.28582c0.35708,2.63341 -1.19866,7.57795 -1.19866,7.57795z" fill="#b09256"/><path d="M253.2826,128.05369l0.19699,-9.57339l51.00204,-8.15966l4.25938,7.82327z" fill="#9f8e6c"/><path d="M255.1847,127.67327c0,0 1.45417,-3.99728 1.98217,-5.44867c0.35136,-0.96583 4.12005,-3.07495 4.98206,-3.25098c6.88543,-1.4061 44.23479,-9.03339 44.23479,-9.03339l4.25938,7.82327z" fill="#b09d77"/></g><path d="M304.86244,143.1648c-2.5,0 -2.5,-2.5 -2.5,-2.5l0.01241,-1.13112c0.18731,-1.87287 0.3833,-3.74492 0.59113,-5.61562c0,0 0.27608,-2.48471 2.76079,-2.20863c2.48471,0.27608 2.20863,2.76079 2.20863,2.76079c-0.20586,1.8525 -0.39992,3.70633 -0.58536,5.56099l0.01241,0.6336c0,0 0,2.5 -2.5,2.5z" fill="#000000" stroke-width="0.5"/><path d="M322.4882,144.09974c2.12038,1.23401 4.22218,2.49896 6.2076,3.96221c3.22178,2.37445 5.56774,5.64922 8.57963,8.24673l0.10894,0.25929l0.06668,-0.05001l1.74958,2.33277c0.32311,0.42124 0.51515,0.94829 0.51515,1.5202c0,1.38071 -1.11929,2.5 -2.5,2.5h-2.94121v-0.06066c-0.15695,0.01075 -0.31451,0.01618 -0.47277,0.01555c-1.64058,-0.00655 -4.70067,-2.13918 -6.18898,-2.84417c-3.98492,-1.8876 -7.41675,-3.99279 -11.14479,-6.32112c-1.22694,-0.76628 -5.28533,-2.66463 -5.85093,-3.84254c-1.70383,-3.54836 0.05914,-6.5914 2.86496,-7.87458c0.04234,-0.08225 0.08985,-0.16581 0.14287,-0.25064c1.325,-2.12 3.44499,-0.795 3.44499,-0.795c0.29612,0.18551 0.59355,0.36875 0.89202,0.5502c0.11294,0.02395 0.22573,0.05075 0.33828,0.08045c1.25762,0.33193 2.73742,1.33839 4.18798,2.57131z" fill="#fff700" stroke-width="0.5"/><path d="M150.74284,249.63673c-2.5,0 -2.5,-2.5 -2.5,-2.5c0,-0.18808 0,-0.39955 0,-0.62943l-0.81919,0.6507c0,0 -2.08013,1.38675 -3.46688,-0.69338c-1.38675,-2.08013 0.69338,-3.46688 0.69338,-3.46688l0.23478,0.03879c0.34287,-0.44769 0.67281,-0.83884 0.99774,-1.18474l-1.02226,0.13778c0,0 -2.5,0 -2.5,-2.5c0,-2.5 2.5,-2.5 2.5,-2.5l2.93666,0.15918c0.46149,0.18335 0.98971,0.35167 1.55643,0.48954c0.34491,-0.21422 0.79694,-0.3546 1.38934,-0.3546c0.88286,0 1.45395,0.31178 1.82335,0.71513c1.23295,-0.03626 2.41991,-0.30478 3.33299,-0.93c2.4847,-1.70137 4.105,-4.10283 6.85622,-5.64217c3.57155,-1.99832 6.92398,-3.30835 9.619,-6.5054c0,0 1.62698,-1.89814 3.52512,-0.27116c1.89814,1.62698 0.27116,3.52512 0.27116,3.52512c-3.1536,3.631 -6.84461,5.33919 -10.96949,7.61242c-2.65715,1.46436 -4.1817,3.98066 -6.67336,5.53444c-1.25014,0.77958 -2.66016,1.24506 -4.12611,1.46575c-0.24479,0.15031 -0.42811,0.21906 -0.42811,0.21906c-0.25473,0.09552 -0.49792,0.18012 -0.73078,0.25777c0,0.60441 0,1.20882 0,1.81323v2.05885c0,0 0,2.5 -2.5,2.5z" fill="#fff700" stroke-width="0.5"/></g></g></svg>