<svg version="1.1" xmlns="http://www.w3.org/2000/svg" xmlns:xlink="http://www.w3.org/1999/xlink" width="231.17929" height="157.28239" viewBox="0,0,231.17929,157.28239"><g transform="translate(-108.53648,-95.29939)"><g data-paper-data="{&quot;isPaintingLayer&quot;:true}" fill-rule="nonzero" stroke="none" stroke-linecap="butt" stroke-linejoin="miter" stroke-miterlimit="10" stroke-dasharray="" stroke-dashoffset="0" style="mix-blend-mode: normal"><path d="M157.80176,247.872c-2.5,0 -2.5,-2.5 -2.5,-2.5c0,-0.18809 0,-0.39955 0,-0.62942l-0.81919,0.6507c0,0 -2.08013,1.38675 -3.46688,-0.69338c-1.38675,-2.08013 0.69338,-3.46687 0.69338,-3.46687l0.23479,0.03878c0.34286,-0.44769 0.67281,-0.83883 0.99774,-1.18474l-1.02226,0.13778c0,0 -2.5,0 -2.5,-2.5c0,-2.5 2.5,-2.5 2.5,-2.5l2.93666,0.15918c0.46149,0.18335 0.98971,0.35167 1.55643,0.48954c0.34491,-0.21422 0.79693,-0.3546 1.38933,-0.3546c0.88286,0 1.45395,0.31178 1.82336,0.71513c1.23296,-0.03626 2.4199,-0.30479 3.33298,-0.93c2.4847,-1.70137 4.10501,-4.10282 6.85623,-5.64217c3.57155,-1.99832 6.92398,-3.30836 9.619,-6.5054c0,0 1.62698,-1.89814 3.52512,-0.27116c1.89814,1.62698 0.27116,3.52512 0.27116,3.52512c-3.1536,3.631 -6.84462,5.33919 -10.96949,7.61242c-2.65714,1.46436 -4.1817,3.98066 -6.67336,5.53445c-1.25014,0.77958 -2.66016,1.24506 -4.1261,1.46574c-0.2448,0.15031 -0.42811,0.21906 -0.42811,0.21906c-0.25473,0.09553 -0.49793,0.18012 -0.73078,0.25776c0,0.60441 0,1.20882 0,1.81323v2.05885c0,0 0,2.5 -2.5,2.5z" fill="#fff700" stroke-width="0.5"/><path d="M187.42659,165.81424c-0.08681,-0.15743 -0.16474,-0.33498 -0.23143,-0.53503c-0.79057,-2.37171 1.58114,-3.16228 1.58114,-3.16228l2.01297,-0.657c1.77638,-0.39024 4.9517,-0.83778 6.46222,-1.96095c0.72535,-0.53934 1.02039,-1.54604 1.76473,-2.05885c2.44487,-1.6844 6.15776,-2.07199 8.81554,-3.40818c2.21972,-1.11596 3.55161,-2.85765 6.36786,-2.92472c3.50358,-0.08344 4.31238,1.62107 6.478,3.60583c5.23845,4.80096 10.2243,9.45178 14.89085,14.89637c9.62601,10.83545 18.11953,22.45029 27.38652,33.5687c3.59383,4.31183 9.40815,11.08217 7.21985,17.3959c-1.05981,3.05779 -5.04773,5.7451 -7.16388,8.05593c-2.30917,0.78854 -4.87222,1.44078 -7.25996,0.93799c-0.54057,-0.11383 -1.09078,-0.25619 -1.60052,-0.47651c0.0443,1.37173 -0.04882,2.88308 -0.95753,3.83253c-1.12728,1.17782 -3.05375,1.34443 -4.68268,1.41234c-1.00623,0.04196 -4.94647,-1.87004 -5.84529,-2.42609c-0.44227,-0.27361 -0.9098,-0.5344 -1.34026,-0.83522c-0.15208,1.12152 -0.45655,2.24674 -1.27419,2.93132c-1.4805,1.23955 -5.88551,1.02548 -7.78414,0.57204c-7.34822,-1.75495 -10.1699,-7.2608 -14.4544,-12.77485c-1.06275,-1.70704 -2.56138,-3.1171 -3.61183,-4.83174c-0.57285,-0.93507 -0.7266,-2.07792 -1.23825,-3.04783c-2.46873,-4.67985 -6.08066,-8.9632 -8.78247,-13.45717c-2.08972,-3.47587 -3.65471,-7.33927 -5.62749,-10.95127c-3.935,-7.20467 -7.84024,-14.42658 -10.99867,-22.00647c0,0 -0.34396,-0.82551 -0.1267,-1.69478z" fill="#b4b4b4" stroke-width="0.5"/><path d="M257.36181,169.78282c0,0.41989 -0.10352,0.81561 -0.28643,1.16302l-0.95634,1.91269c-0.00669,4.62448 -2.37328,8.68481 -3.54406,13.1435c-2.10588,8.01981 -3.17606,16.93762 -8.35324,23.80111c-2.08809,2.76821 -4.82252,4.55168 -7.49473,6.69061c-7.55284,0.92853 -13.65881,6.64623 -21.17113,7.81628c-3.96517,0.61758 -7.94091,-0.76194 -11.82341,-1.15637c-5.27538,-0.53594 -10.91858,0.01217 -16.22445,0.01217c0,0 -0.4027,0 -0.88486,-0.16162c-3.19204,1.49932 -6.27171,2.56354 -9.69362,3.82055c-7.46717,2.74301 -14.50909,7.32169 -22.31902,9.20112c-4.49002,1.0805 -9.12998,1.63241 -13.65709,2.67688c-6.8048,1.23849 -13.85855,2.10658 -20.79919,2.11035c-1.45296,0.00079 -6.31733,0.14304 -7.06195,-0.73223c-2.35212,-2.76483 -0.44973,-6.36592 1.49934,-8.26974c1.29538,-1.26532 2.72222,-1.96143 4.22227,-2.46821c-1.51403,-0.00026 -3.02805,-0.00054 -4.54208,-0.00054h-3.23533c-1.38071,0 -2.5,-1.11929 -2.5,-2.5c0,-0.60723 0.21649,-1.16389 0.5765,-1.59702l2.6357,-3.22141l0.01607,0.01315c0.04144,-0.05791 0.08349,-0.11544 0.12617,-0.17258c2.44739,-3.27683 7.02606,-5.75716 10.29278,-8.19876c0.16123,-0.12051 1.74088,-1.53332 3.25706,-2.44227c-0.2997,-0.0883 -0.5726,-0.17593 -0.78676,-0.24623c-0.94197,-0.30922 -1.79684,-0.86569 -2.75459,-1.12191c-2.53401,-0.6779 -9.32256,0.22095 -10.53651,-2.67169c-0.73718,-1.75658 1.24975,-3.68127 2.44221,-5.16689c0.61589,-0.7673 5.74059,-3.01133 6.54387,-3.35625c3.60187,-1.5466 7.25269,-2.96055 10.89216,-4.41593c10.28301,-4.57206 19.63915,-11.15021 29.42817,-16.62661c7.23275,-4.04632 15.17172,-7.07485 22.65605,-10.60557c1.67874,-0.79194 2.97163,-2.2251 4.44916,-3.3486c3.70366,-2.81621 8.30237,-4.63701 12.43918,-6.70542c19.19274,-9.58993 38.76825,-18.20925 58.31955,-27.09901c8.35079,-3.78637 15.65451,-9.46679 24.27465,-12.71213l1.59655,-0.10822c0.27119,-0.05096 0.45774,-0.05096 0.45774,-0.05096c0.0951,0 0.19011,0.00021 0.28505,0.00062l0.00907,-0.00062c0,0 0.01184,0 0.03389,0.00082c8.81913,0.04392 16.93608,1.86764 24.5255,6.555c3.06338,1.89199 6.28073,3.56548 7.99714,6.93864c0.72926,1.4332 1.04283,5.31603 1.11776,6.83366c0.34443,6.97629 -0.53186,12.19033 -3.75443,18.40666c-2.26848,2.02955 -5.15498,4.83235 -8.01908,6.049c-2.91372,1.23773 -6.53538,0.80837 -9.61361,1.08865c-8.38472,0.76346 -16.91823,-0.50089 -25.27629,0.29239c-2.87435,0.27281 -5.06607,1.44924 -7.70863,2.24259c-3.00939,0.90348 -5.02148,1.42347 -7.67678,2.78607c0.36212,0.43373 0.58003,0.99205 0.58003,1.60126z" fill="#b1b1b1" stroke-width="0.5"/><path d="M163.60277,183.46152c-0.08681,-0.15743 -0.16474,-0.33498 -0.23143,-0.53503c-0.79057,-2.37171 1.58114,-3.16228 1.58114,-3.16228l2.01297,-0.657c1.77638,-0.39024 4.9517,-0.83778 6.46222,-1.96095c0.72535,-0.53934 1.02039,-1.54604 1.76473,-2.05885c2.44487,-1.6844 6.15776,-2.07199 8.81554,-3.40818c2.21972,-1.11596 3.55161,-2.85765 6.36786,-2.92472c3.50358,-0.08344 4.31238,1.62107 6.478,3.60583c5.23845,4.80096 10.2243,9.45178 14.89085,14.89637c9.62601,10.83545 18.11953,22.45029 27.38652,33.5687c3.59383,4.31183 9.40815,11.08217 7.21985,17.3959c-1.05981,3.05779 -5.04773,5.7451 -7.16388,8.05593c-2.30918,0.78854 -4.87222,1.44078 -7.25996,0.93799c-0.54057,-0.11383 -1.09078,-0.25619 -1.60052,-0.47651c0.0443,1.37173 -0.04882,2.88308 -0.95753,3.83253c-1.12729,1.17782 -3.05375,1.34443 -4.68268,1.41234c-1.00623,0.04196 -4.94647,-1.87004 -5.84529,-2.42609c-0.44227,-0.27361 -0.9098,-0.5344 -1.34026,-0.83522c-0.15208,1.12152 -0.45655,2.24674 -1.27419,2.93132c-1.4805,1.23955 -5.88551,1.02548 -7.78414,0.57204c-7.34822,-1.75495 -10.1699,-7.2608 -14.4544,-12.77485c-1.06275,-1.70704 -2.56138,-3.1171 -3.61183,-4.83174c-0.57285,-0.93507 -0.7266,-2.07792 -1.23825,-3.04783c-2.46873,-4.67985 -6.08066,-8.9632 -8.78247,-13.45717c-2.08972,-3.47587 -3.65471,-7.33927 -5.62749,-10.95127c-3.935,-7.20467 -7.84024,-14.42658 -10.99867,-22.00647c0,0 -0.34396,-0.82551 -0.1267,-1.69478z" fill="#b4b4b4" stroke-width="0.5"/><g stroke-width="5"><path d="M303.5371,109.95996c1.66557,8.02227 -9.34624,12.0416 -23.35547,14.95018c-14.00925,2.90858 -24.60807,3.37601 -26.27366,-4.64626c-1.66557,-8.02227 6.23284,-21.49635 20.24209,-24.40493c14.00925,-2.90858 27.72147,6.07875 29.38705,14.10104z" fill="#b09d77"/><path d="M285.88794,125.67098c-14.00925,2.90858 -24.60807,3.37601 -26.27366,-4.64626c-1.66557,-8.02227 6.23284,-21.49635 20.24209,-24.40493c14.00925,-2.90858 24.29769,9.50254 25.96327,17.52482c0,0 -5.92247,8.61781 -19.93171,11.52638z" fill="#b09256"/><path d="M247.99395,140.43139c0,0 -3.09229,-5.04386 -3.76793,-7.38042c-0.79681,-2.75559 -0.70964,-8.10432 -0.70964,-8.10432l72.62801,-15.0789c0,0 1.70714,4.22059 2.089,7.12718c0.35708,2.71799 0.1328,9.78452 0.1328,9.78452z" fill="#b09d77"/><path d="M251.60794,139.29013c0,0 -3.09229,-4.88691 -3.76793,-7.15076c-0.79681,-2.66985 -0.70964,-7.85214 -0.70964,-7.85214l68.82381,-13.65864c0,0 2.46797,4.46968 2.84984,7.28582c0.35708,2.63341 -1.19866,7.57795 -1.19866,7.57795z" fill="#b09256"/><path d="M253.28259,128.05369l0.19699,-9.57339l51.00204,-8.15966l4.25938,7.82327z" fill="#9f8e6c"/><path d="M255.18469,127.67327c0,0 1.45417,-3.99728 1.98217,-5.44867c0.35136,-0.96583 4.12005,-3.07495 4.98206,-3.25098c6.88543,-1.4061 44.23479,-9.03339 44.23479,-9.03339l4.25938,7.82327z" fill="#b09d77"/></g><path d="M304.86243,143.1648c-2.5,0 -2.5,-2.5 -2.5,-2.5l0.01241,-1.13112c0.18731,-1.87287 0.3833,-3.74492 0.59113,-5.61562c0,0 0.27608,-2.48471 2.76079,-2.20863c2.48471,0.27608 2.20863,2.76079 2.20863,2.76079c-0.20586,1.8525 -0.39992,3.70633 -0.58536,5.56099l0.01241,0.6336c0,0 0,2.5 -2.5,2.5z" fill="#000000" stroke-width="0.5"/><path d="M322.48819,144.09974c2.12038,1.23401 4.22218,2.49896 6.2076,3.96221c3.22178,2.37445 5.56774,5.64922 8.57963,8.24673l0.10894,0.25929l0.06668,-0.05001l1.74958,2.33277c0.32311,0.42124 0.51515,0.94829 0.51515,1.5202c0,1.38071 -1.11929,2.5 -2.5,2.5h-2.94121v-0.06066c-0.15695,0.01075 -0.31451,0.01618 -0.47277,0.01555c-1.64058,-0.00655 -4.70067,-2.13918 -6.18898,-2.84417c-3.98492,-1.8876 -7.41675,-3.99279 -11.14479,-6.32112c-1.22694,-0.76628 -5.28533,-2.66463 -5.85093,-3.84254c-1.70383,-3.54836 0.05914,-6.5914 2.86496,-7.87458c0.04234,-0.08225 0.08985,-0.16581 0.14287,-0.25064c1.325,-2.12 3.44499,-0.795 3.44499,-0.795c0.29612,0.18551 0.59355,0.36875 0.89202,0.5502c0.11294,0.02395 0.22573,0.05075 0.33828,0.08045c1.25762,0.33193 2.73742,1.33839 4.18798,2.57131z" fill="#fff700" stroke-width="0.5"/><path d="M150.74284,249.63673c-2.5,0 -2.5,-2.5 -2.5,-2.5c0,-0.18808 0,-0.39955 0,-0.62943l-0.81919,0.6507c0,0 -2.08013,1.38675 -3.46688,-0.69338c-1.38675,-2.08013 0.69338,-3.46688 0.69338,-3.46688l0.23478,0.03879c0.34287,-0.44769 0.67281,-0.83884 0.99774,-1.18474l-1.02226,0.13778c0,0 -2.5,0 -2.5,-2.5c0,-2.5 2.5,-2.5 2.5,-2.5l2.93666,0.15918c0.46149,0.18335 0.98971,0.35167 1.55643,0.48954c0.34491,-0.21422 0.79694,-0.3546 1.38934,-0.3546c0.88286,0 1.45395,0.31178 1.82335,0.71513c1.23295,-0.03626 2.41991,-0.30478 3.33299,-0.93c2.4847,-1.70137 4.105,-4.10283 6.85622,-5.64217c3.57155,-1.99832 6.92398,-3.30835 9.619,-6.5054c0,0 1.62698,-1.89814 3.52512,-0.27116c1.89814,1.62698 0.27116,3.52512 0.27116,3.52512c-3.1536,3.631 -6.84461,5.33919 -10.96949,7.61242c-2.65715,1.46436 -4.1817,3.98066 -6.67336,5.53444c-1.25014,0.77958 -2.66016,1.24506 -4.12611,1.46575c-0.24479,0.15031 -0.42811,0.21906 -0.42811,0.21906c-0.25473,0.09552 -0.49792,0.18012 -0.73078,0.25777c0,0.60441 0,1.20882 0,1.81323v2.05885c0,0 0,2.5 -2.5,2.5z" fill="#fff700" stroke-width="0.5"/></g></g></svg>