<svg version="1.1" xmlns="http://www.w3.org/2000/svg" xmlns:xlink="http://www.w3.org/1999/xlink" width="159.71339" height="206.24382" viewBox="0,0,159.71339,206.24382"><g transform="translate(-160.14331,-76.87809)"><g data-paper-data="{&quot;isPaintingLayer&quot;:true}" fill-rule="nonzero" stroke-linecap="butt" stroke-linejoin="miter" stroke-miterlimit="10" stroke-dasharray="" stroke-dashoffset="0" style="mix-blend-mode: normal"><g stroke="none" stroke-width="0.5"><path d="M250.01473,181.92692c-0.03633,1.62878 -0.29476,3.51234 -0.03202,5.07109c0.50497,2.99575 2.35204,3.98024 -0.63668,7.12168c-0.53513,0.56248 -1.56392,0.1415 -2.29308,0.40812c-1.14112,0.41727 -2.10649,1.31521 -3.29826,1.55174c-0.97305,0.19312 -1.99448,0.17556 -2.93561,0.48927c-1.80379,0 -2.62131,0.66319 -4.40341,0.97854c-0.97686,0.17286 -1.95566,0.33489 -2.93561,0.48927c-0.36494,0.05749 -0.75525,-0.20251 -1.10515,-0.08394c-0.41926,0.14209 -0.65408,0.61461 -1.04928,0.81406c-0.24982,0.12609 -3.48075,1.19058 -3.71678,1.22694c-0.6181,0.09522 -1.26574,-0.15051 -1.87613,-0.01436c-0.8572,0.19121 -1.59072,0.78038 -2.44634,0.97854c-1.13848,0.26366 -2.34787,-0.14323 -3.50581,0.01436c-1.53307,0.20864 -2.88459,1.17281 -4.40341,1.4678c-1.12068,0.21766 -2.30042,-0.19723 -3.42487,0c-1.2044,0.21125 -2.31912,0.83229 -3.53121,0.9937c-1.30336,0.17357 -2.63853,0.17036 -3.91414,0.48927c-2.82849,-0.02318 -4.9075,0.98318 -7.86484,1.47206c-0.31828,0.05262 -0.65874,-0.21267 -0.96226,-0.10336c-0.55324,0.19925 -0.89733,0.83592 -1.4678,0.97853c-0.7911,0.19777 -1.65524,-0.19777 -2.44634,0c-0.57047,0.14262 -0.90354,0.81307 -1.4678,0.97854c-1.08947,0.31947 -2.28212,-0.0714 -3.40459,0.0991c-3.1468,0.478 -6.86536,1.00763 -10.08621,0.4741c-1.0176,-0.16857 -1.91246,-0.84781 -2.93561,-0.97853c-1.47963,-0.18905 -2.86878,0.43196 -4.20605,-0.73767c-0.09459,-0.08273 -0.18652,-0.16799 -0.27608,-0.25547l-0.04669,0.07005l-1.43169,-0.95446c-0.77148,-0.49824 -1.28216,-1.36565 -1.28216,-2.35234c0,-1.25875 0.83114,-2.32339 1.97457,-2.67504l1.08017,-0.36005c1.6146,-1.24489 2.06858,-1.75364 4.1546,-2.52493c1.18763,-0.43912 2.53727,-0.23361 3.75281,-0.58822c1.42444,-0.41556 3.58249,-1.49266 4.77961,-2.4c0.19803,-0.15009 -0.46851,-1.52548 -0.5644,-1.70558c-0.05678,-0.10664 -0.02908,0.30684 -0.14743,0.3311c-0.4793,0.09825 -0.97854,0 -1.4678,0c-0.97854,0 -1.95707,0 -2.93561,0c-0.97854,0 -1.95707,0 -2.93561,0c-2.11529,0 -4.24614,0.06776 -6.36048,0c-0.76023,-0.02436 -1.55909,0.12635 -2.27869,-0.12007c-0.89961,-0.30806 -1.71491,-0.86704 -2.43097,-1.49271c-1.03394,-0.90343 -2.20785,-1.79676 -2.76825,-3.05022c-1.14174,-2.55379 0.835,-5.72424 2.56365,-7.45289c2.3723,-2.3723 5.71438,-3.29106 8.86944,-3.71906c1.71979,-0.23329 4.52547,0.57156 6.1658,0.03872c0.69368,-0.22533 1.25101,-0.79569 1.95707,-0.97854c0.68153,-0.17649 1.40714,-0.0499 2.1107,-0.07486c5.87121,0 11.74242,0 17.61364,0c2.95917,0 6.09717,-0.30696 9.03762,0.00954c3.40603,0.36661 6.5969,0.47973 10.04382,0.47973c10.6008,0 21.2016,0 31.8024,0c0,0 2.79823,0 2.79823,2.79823c0,2.79823 -2.79823,2.79823 -2.79823,2.79823c-0.21025,0 -0.4205,0 -0.63076,0z" fill="#a6a6a6"/><path d="M217.51265,182.01585v-0.08893c-1.74708,0 -3.49415,0 -5.24123,0c0.83601,0.07238 1.67223,0.16844 2.51014,0.29571c0.52296,0.07944 1.74262,-0.14923 2.73108,-0.20678zM223.02028,179.93249c0.08884,0.38344 0.08884,0.664 0.08884,0.664v1.4678c0,1.40994 0.11319,3.98148 -0.81958,4.91425c-0.83499,0.83499 -2.28169,0.62533 -3.44645,0.81958c-2.22569,0.37119 -4.54668,-0.18278 -6.70237,-0.51023c-1.88683,-0.28661 -4.11048,0.02096 -6.01858,0.02096c-4.50855,0 -8.8278,0.22771 -13.2318,-0.81958c-1.13253,-4.76245 -1.63819,-6.73987 3.35415,-9.94582c0.97953,-0.62903 4.74388,-0.213 5.96352,-0.213c6.0343,0 12.0686,0 18.1029,0c0,0 2.79823,0 2.79823,2.79823c0,0.29868 -0.03188,0.56548 -0.08884,0.8038zM198.38904,181.7124c0.02966,0 0.05932,0 0.08898,0c-0.02922,-0.01291 -0.05867,-0.01529 -0.08898,0z" fill="#00afb8"/></g><path d="M266.95035,271.36934c0,6.49077 -5.38709,11.75257 -12.0324,11.75257c-6.64531,0 -12.0324,-5.26181 -12.0324,-11.75257c0,-6.49077 5.38709,-11.75257 12.0324,-11.75257c6.64531,0 12.0324,5.26181 12.0324,11.75257z" fill="#000000" stroke="#000000" stroke-width="0"/><path d="M301.44016,271.36934c0,6.49077 -5.38709,11.75257 -12.0324,11.75257c-6.64531,0 -12.0324,-5.26181 -12.0324,-11.75257c0,-6.49077 5.38709,-11.75257 12.0324,-11.75257c6.64531,0 12.0324,5.26181 12.0324,11.75257z" fill="#000000" stroke="#000000" stroke-width="0"/><path d="M236.15957,221.3741c-1.03329,-0.81395 -1.03328,-2.25421 -1.03328,-2.25421c0,-9.62227 0,-19.24453 0,-28.86679c0,-3.32474 -0.02012,-6.51014 0.5254,-9.74431c0.09219,-0.54659 -0.11125,-1.12884 0.03872,-1.66248c0.19734,-0.70215 0.77478,-1.25675 0.97853,-1.95707c0.11861,-0.40767 -0.11216,-0.85495 -0.03872,-1.27313c0.04636,-0.26397 1.09124,-3.44011 1.22694,-3.71678c0.79443,-1.6198 1.91298,-3.225 2.19793,-5.09003c0.29569,-1.93535 0.16848,-3.93469 0.48927,-5.87121c0.22697,-1.37018 1.23816,-3.31449 1.76198,-4.46603c1.40423,-0.64878 2.62308,-1.71841 4.10337,-2.16732c0.48081,-0.14581 2.98884,-0.12007 3.74649,-0.12007c2.93561,0 5.87121,0 8.80682,0c7.01284,0 14.02567,0 21.03851,0c5.05577,0 10.11153,0 15.1673,0c1.38042,0 4.66506,-0.38273 5.72378,0.3311c1.07817,0.72695 1.79813,1.94031 2.33633,3.12405c0.14581,0.32071 0.12007,3.09183 0.12007,3.74649c0,3.26178 0,6.52357 0,9.78535c0,2.41013 0.4694,4.45132 0.48927,6.84975c0.08779,10.59931 0,21.20267 0,31.8024c0,2.39026 0.27407,4.96677 0,7.33901c-0.12045,1.04259 0.13191,2.28801 -0.52819,3.10396c-0.00038,0.00048 -0.00077,0.00095 -0.00115,0.00142c0.00387,0.27418 0.01261,0.54567 0.04007,0.80876c0.2423,2.32167 -0.31569,4.75259 -0.01362,7.06329c0.1078,0.82458 0.50093,1.61482 0.48927,2.44634c-0.01868,1.33221 0.25331,2.91451 -0.57903,3.95487c-1.43293,1.79104 -4.17559,1.55461 -6.11972,1.56543c-4.56619,0.02542 -9.13322,0 -13.69949,0c-2.55746,0 -4.82767,-0.07537 -7.29798,-0.5254c-1.08197,-0.19711 -2.24292,0.22553 -3.29826,-0.08393c-0.56427,-0.16546 -0.9226,-0.75825 -1.4678,-0.97854c-0.20639,-0.08339 -0.43455,0.10985 -0.65692,0.12007c-1.36872,0.06287 -2.75979,0.01947 -4.13715,0.00452c0.22524,1.08149 0.43303,2.09712 0.50673,2.45456c2.07832,8.29897 1.04671,17.49633 1.04671,26.05582c0,2.77252 0,5.54503 0,8.31755c0,0.34588 0.00923,3.27742 -0.03613,3.38383c-0.5687,1.33426 -1.56216,2.44423 -2.34324,3.66635c-1.61435,-0.76831 -3.57838,-1.04121 -4.84306,-2.30494c-0.72073,-0.72018 0.56765,-2.43336 -0.24591,-3.04673c-0.7471,-0.56326 -1.40249,-1.24848 -2.18295,-1.76453c-0.4302,-0.28445 -1.04353,-0.19605 -1.4678,-0.48927c-0.45346,-0.31339 -0.61954,-0.94173 -1.06752,-1.26289c-0.12204,-0.0875 -0.24744,0.19912 -0.39697,0.213c-0.85081,0.07896 -1.7243,0.09118 -2.53999,0.34567c-2.08446,0.65034 -3.62923,2.96863 -3.99399,5.13261c-0.2037,1.20849 0.03613,2.72636 0.03613,3.95518c0,0 0,2.79823 -2.79823,2.79823c-0.51309,0 -0.93209,-0.09408 -1.27427,-0.24774c-0.61622,0.24774 -1.17207,0.24774 -1.17207,0.24774l-1.86341,-0.1436c-1.75969,-0.6119 -3.38381,-0.94972 -4.51786,-2.80207c-0.48868,-0.79821 -0.25851,-1.85507 -0.3311,-2.78817c-0.13752,-1.76762 0,-3.60959 0,-5.38195c0,-3.13699 -0.35198,-6.52714 0.02097,-9.63798c0.36997,-3.08601 1.06723,-6.20187 1.4678,-9.29609c0.26854,-2.07434 -0.02096,-4.41653 -0.02096,-6.50785c0,-3.16573 -0.4033,-6.64491 0,-9.78535c0.06755,-0.52602 0.07146,-1.08773 0.09012,-1.64558c-0.57939,-0.79994 -0.57939,-1.77929 -0.57939,-1.77929c0,-2.34752 0.42398,-5.07913 0.03613,-7.38006c-0.16498,-0.97877 -0.61186,-1.88996 -0.95939,-2.83399c-0.34437,-0.15296 -0.69884,-0.38622 -0.97906,-0.74197z" fill="#bbbbbb" stroke="none" stroke-width="0.5"/><g stroke="none" stroke-width="0.5"><path d="M250.01472,162.32402c-0.03633,1.62878 -0.29476,3.51234 -0.03202,5.07109c0.50497,2.99575 2.35204,3.98024 -0.63668,7.12168c-0.53513,0.56248 -1.56392,0.1415 -2.29307,0.40812c-1.14112,0.41727 -2.10649,1.31521 -3.29826,1.55174c-0.97305,0.19312 -1.99448,0.17556 -2.93561,0.48927c-1.80379,0 -2.62131,0.66319 -4.40341,0.97854c-0.97686,0.17286 -1.95566,0.33489 -2.93561,0.48927c-0.36494,0.05749 -0.75525,-0.20251 -1.10515,-0.08393c-0.41926,0.14209 -0.65408,0.61461 -1.04928,0.81406c-0.24982,0.12609 -3.48075,1.19058 -3.71679,1.22694c-0.6181,0.09521 -1.26574,-0.15051 -1.87613,-0.01436c-0.8572,0.19121 -1.59072,0.78038 -2.44634,0.97854c-1.13848,0.26366 -2.34787,-0.14323 -3.50581,0.01436c-1.53307,0.20864 -2.88459,1.17281 -4.40341,1.4678c-1.12068,0.21766 -2.30041,-0.19723 -3.42487,0c-1.2044,0.21125 -2.31912,0.83229 -3.5312,0.9937c-1.30336,0.17357 -2.63853,0.17037 -3.91414,0.48927c-2.82849,-0.02318 -4.9075,0.98318 -7.86485,1.47206c-0.31828,0.05261 -0.65874,-0.21267 -0.96225,-0.10336c-0.55324,0.19925 -0.89733,0.83592 -1.4678,0.97854c-0.7911,0.19777 -1.65524,-0.19777 -2.44634,0c-0.57047,0.14262 -0.90354,0.81307 -1.4678,0.97854c-1.08947,0.31947 -2.28212,-0.0714 -3.40459,0.0991c-3.1468,0.478 -6.86535,1.00764 -10.08621,0.4741c-1.0176,-0.16857 -1.91246,-0.84781 -2.93561,-0.97854c-1.47964,-0.18905 -2.86878,0.43196 -4.20605,-0.73767c-0.09459,-0.08273 -0.18651,-0.16798 -0.27608,-0.25547l-0.0467,0.07004l-1.43169,-0.95446c-0.77148,-0.49824 -1.28216,-1.36565 -1.28216,-2.35234c0,-1.25875 0.83114,-2.32339 1.97457,-2.67504l1.08017,-0.36006c1.6146,-1.24489 2.06859,-1.75364 4.15461,-2.52493c1.18763,-0.43912 2.53727,-0.23361 3.75281,-0.58822c1.42444,-0.41556 3.58249,-1.49266 4.77961,-2.40001c0.19803,-0.15009 -0.46851,-1.52548 -0.5644,-1.70557c-0.05678,-0.10664 -0.02908,0.30684 -0.14744,0.3311c-0.4793,0.09825 -0.97854,0 -1.4678,0c-0.97854,0 -1.95707,0 -2.93561,0c-0.97854,0 -1.95707,0 -2.93561,0c-2.11529,0 -4.24614,0.06776 -6.36048,0c-0.76023,-0.02436 -1.55909,0.12635 -2.27869,-0.12007c-0.89961,-0.30806 -1.71491,-0.86704 -2.43097,-1.49271c-1.03394,-0.90343 -2.20785,-1.79676 -2.76825,-3.05022c-1.14174,-2.55379 0.835,-5.72425 2.56365,-7.45289c2.3723,-2.3723 5.71437,-3.29106 8.86944,-3.71906c1.71979,-0.2333 4.52548,0.57156 6.1658,0.03872c0.69368,-0.22533 1.251,-0.79569 1.95707,-0.97854c0.68153,-0.17649 1.40714,-0.0499 2.1107,-0.07486c5.87121,0 11.74242,0 17.61364,0c2.95917,0 6.09717,-0.30696 9.03762,0.00953c3.40603,0.36661 6.5969,0.47973 10.04382,0.47973c10.6008,0 21.2016,0 31.8024,0c0,0 2.79823,0 2.79823,2.79823c0,2.79823 -2.79823,2.79823 -2.79823,2.79823c-0.21025,0 -0.42051,0 -0.63076,0z" fill="#a6a6a6"/><path d="M217.51265,162.41295v-0.08893c-1.74708,0 -3.49415,0 -5.24123,0c0.83601,0.07239 1.67223,0.16844 2.51014,0.29571c0.52297,0.07944 1.74262,-0.14923 2.73108,-0.20678zM223.02028,160.32959c0.08884,0.38344 0.08884,0.664 0.08884,0.664v1.4678c0,1.40994 0.11319,3.98148 -0.81958,4.91425c-0.83499,0.83499 -2.28169,0.62533 -3.44645,0.81958c-2.22569,0.37119 -4.54668,-0.18279 -6.70238,-0.51023c-1.88682,-0.28661 -4.11048,0.02097 -6.01858,0.02097c-4.50855,0 -8.8278,0.22771 -13.23181,-0.81958c-1.13253,-4.76245 -1.63819,-6.73987 3.35415,-9.94582c0.97953,-0.62903 4.74388,-0.213 5.96351,-0.213c6.0343,0 12.0686,0 18.1029,0c0,0 2.79823,0 2.79823,2.79823c0,0.29868 -0.03188,0.56548 -0.08884,0.8038zM198.38904,162.1095c0.02966,0 0.05932,0 0.08898,0c-0.02922,-0.0129 -0.05867,-0.01529 -0.08898,0z" fill="#00afb8"/></g><path d="M281.17361,281.36104c-0.61622,0.24774 -1.17207,0.24774 -1.17207,0.24774l-1.86341,-0.1436c-1.75969,-0.6119 -3.38381,-0.94972 -4.51786,-2.80207c-0.48868,-0.79821 -0.25851,-1.85507 -0.3311,-2.78817c-0.13752,-1.76762 0,-3.60959 0,-5.38195c0,-3.13699 -0.35198,-6.52714 0.02097,-9.63798c0.36997,-3.08601 1.06723,-6.20187 1.4678,-9.29609c0.26854,-2.07434 -0.02096,-4.41653 -0.02096,-6.50785c0,-3.16573 -0.4033,-6.64491 0,-9.78535c0.19107,-1.48786 -0.127,-3.26127 0.81958,-4.42499c0.96782,-1.18982 4.82459,-0.81959 6.38206,-0.81959c5.05577,0 10.11153,0 15.1673,0c1.39034,0 4.02878,-0.11319 4.91425,0.81959c0.07802,0.08219 1.06041,4.89392 1.24068,5.76816c2.07832,8.29897 1.04671,17.49633 1.04671,26.05582c0,2.77252 0,5.54503 0,8.31755c0,0.34588 0.00923,3.27742 -0.03613,3.38383c-0.5687,1.33426 -1.56216,2.44423 -2.34324,3.66635c-1.61435,-0.76831 -3.57838,-1.04121 -4.84306,-2.30494c-0.72073,-0.72018 0.56765,-2.43336 -0.24591,-3.04673c-0.7471,-0.56326 -1.40249,-1.24848 -2.18295,-1.76453c-0.4302,-0.28445 -1.04353,-0.19605 -1.4678,-0.48927c-0.45346,-0.31339 -0.61954,-0.94173 -1.06752,-1.26289c-0.12204,-0.0875 -0.24744,0.19912 -0.39697,0.213c-0.85081,0.07896 -1.7243,0.09118 -2.53999,0.34567c-2.08446,0.65034 -3.62923,2.96863 -3.99399,5.13261c-0.2037,1.20849 0.03613,2.72636 0.03613,3.95518c0,0 0,2.79823 -2.79823,2.79823c-0.51309,0 -0.93209,-0.09408 -1.27427,-0.24774z" fill="#bbbbbb" stroke="none" stroke-width="0.5"/><path d="M251.43484,158.96933c-0.03488,0.29103 -0.10416,0.60165 -0.21456,0.93283c-1.18585,3.55756 -4.74342,2.37171 -4.74342,2.37171c-2.1565,-0.78574 -4.35223,-2.06589 -6.39758,-3.59517c-0.63302,-0.23524 -1.33183,-0.66089 -1.78817,-1.43107c-1.49101,-1.27388 -2.85955,-2.65177 -4.01936,-4.02207c-2.11095,-2.49406 -2.05593,-4.06947 -4.70297,-6.45517c-1.87753,-1.69216 -5.17658,-1.41268 -6.80433,-3.34632c-0.73129,-0.86872 0.09095,-2.36745 -0.42239,-3.38033c-0.47332,-0.93393 -1.80017,-1.19411 -2.34813,-2.0863c-1.17924,-1.92008 -0.9011,-4.41575 -1.38588,-6.61627c-0.09421,-0.42765 -2.16388,-6.13988 -2.52161,-7.42043c-1.18421,-4.23913 -1.84633,-8.91227 -1.89804,-13.28788c0.14671,-5.09585 2.51895,-9.43897 4.75254,-13.88699c0.46807,-0.93213 0.46985,-2.08184 1.05299,-2.94666c0.36432,-0.54031 5.04596,-5.19128 5.78376,-5.92563c12.63121,-12.57215 32.33946,-13.52718 48.24857,-7.07936c2.55456,0.42066 5.14448,0.64865 7.73199,0.73554c1.64584,0.05527 3.39521,-0.30615 4.93204,0.28545c1.15383,0.44416 1.49352,2.11925 2.62273,2.62273c0.84623,0.37731 1.86537,-0.41319 2.77107,-0.21779c1.65346,0.35674 3.10963,1.35298 4.73062,1.83629c1.47347,0.43933 3.06984,0.40983 4.51968,0.92176c4.28876,1.51433 9.17034,5.56151 11.58962,9.44373c2.05354,3.29532 1.02812,6.06487 1.42153,9.53039c0.49429,4.35418 1.90532,8.56517 2.58709,12.82228c0.84102,5.25146 0.03601,10.59897 1.74849,15.7364c-0.03749,1.72812 0.33624,3.51509 -0.11248,5.18435c-1.43473,5.33718 -6.88215,8.82118 -11.12566,11.65019c-1.02249,0.68166 -5.4637,3.69036 -6.2389,3.96588c-0.82376,0.29278 -1.79335,-0.27646 -2.62273,0c-0.99679,0.33226 -1.62338,1.42401 -2.62273,1.74849c-0.98624,0.32023 -2.08685,-0.06345 -3.10874,0.11248c-0.90817,0.15635 -1.71247,0.73058 -2.62273,0.87424c-2.01496,0.31801 -4.10227,-0.30187 -6.11971,0c-0.91139,0.13637 -1.70793,0.76311 -2.62273,0.87424c-7.25049,0.88086 -15.13824,0.04842 -22.45679,0.04842c-2.53102,0 -5.06204,0 -7.59306,0z" fill="#bbbbbb" stroke="none" stroke-width="0.5"/><path d="M307.28198,152.85752c-2.51507,0.05298 -5.36067,0.3425 -7.76527,-0.05632c-3.84505,-0.63773 -7.3356,-2.92118 -11.22268,-3.47665c-3.17819,-0.45417 -6.56318,0.41847 -9.75918,-0.02033c-0.91297,-0.12534 -1.71543,-0.71293 -2.62273,-0.87424c-3.37087,-0.59933 -7.08717,0.56454 -10.49093,0c-2.91441,-0.48338 -6.12506,-1.99398 -8.91508,-2.95563c-5.76749,-3.84499 -13.05075,-4.3198 -16.58327,-11.3378c-2.11762,-4.20706 -1.2782,-9.32533 -1.25556,-13.88699c0.0109,-2.19674 -0.5476,-4.35938 -0.84615,-6.53577c-0.59566,-4.34225 -0.0281,-9.18476 -0.0281,-13.57185c0,-2.44277 -0.67688,-8.17754 0.70784,-10.06086c0.9596,-1.30512 5.92799,-2.69907 7.68694,-3.2574c1.7958,-0.02698 3.61002,0.23375 5.38796,-0.02033c2.05315,-0.2934 3.93011,-1.39517 5.97721,-1.72816c2.55037,-0.41485 5.3478,0.44812 7.8682,0c7.34486,-1.30588 14.91261,-0.92267 22.45679,-0.92267c6.49801,0 12.74369,-0.63647 18.88687,1.64409c0.58283,0.87424 0.92802,1.96636 1.74849,2.62273c0.7196,0.57568 1.91819,0.28023 2.62273,0.87424c0.68855,0.58052 4.48956,6.23777 4.80985,7.13893c0.29278,0.82376 -0.27646,1.79335 0,2.62273c0.33226,0.99679 1.42401,1.62338 1.74849,2.62273c0.79563,2.45042 0.56135,5.80192 0.98673,8.35421c1.80146,10.80877 1.04034,22.49136 0.87424,33.54841c-0.97848,2.81958 -2.74605,5.39967 -4.8211,7.54482l-2.92007,1.96864c0,0 -2.51321,1.67547 -4.53223,-0.23653z" fill="#000000" stroke="none" stroke-width="0.5"/><path d="M298.3689,109.75862c0,4.34549 -2.93559,7.8682 -6.55683,7.8682c-3.62124,0 -6.55683,-3.52271 -6.55683,-7.8682c0,-4.34549 2.93559,-7.8682 6.55683,-7.8682c3.62124,0 6.55683,3.52271 6.55683,7.8682z" fill="#00afb8" stroke="#000000" stroke-width="0"/><path d="M313.23106,110.63287c0,3.37982 -1.95706,6.11971 -4.37122,6.11971c-2.41416,0 -4.37122,-2.73989 -4.37122,-6.11971c0,-3.37982 1.95706,-6.11971 4.37122,-6.11971c2.41416,0 4.37122,2.73989 4.37122,6.11971z" fill="#00afb8" stroke="none" stroke-width="0"/><path d="M315.23257,135.98595c0,3.75 -3.75,3.75 -3.75,3.75h-1.74849c-2.69089,0 -5.81871,0.36984 -8.46888,-0.04842c-3.30195,-0.52113 -6.50318,-1.78118 -9.89025,-1.70007c0,0 -3.75,0 -3.75,-3.75c0,-3.75 3.75,-3.75 3.75,-3.75c3.88374,0.05834 7.33537,1.12907 11.09162,1.79691c2.21148,0.39319 5.01724,-0.04842 7.26752,-0.04842h1.74849c0,0 3.75,0 3.75,3.75z" fill="#00afb8" stroke="none" stroke-width="0.5"/></g></g></svg>