<svg version="1.1" xmlns="http://www.w3.org/2000/svg" xmlns:xlink="http://www.w3.org/1999/xlink" width="105.6683" height="206.24382" viewBox="0,0,105.6683,206.24382"><g transform="translate(-214.18839,-76.87809)"><g data-paper-data="{&quot;isPaintingLayer&quot;:true}" fill-rule="nonzero" stroke-linecap="butt" stroke-linejoin="miter" stroke-miterlimit="10" stroke-dasharray="" stroke-dashoffset="0" style="mix-blend-mode: normal"><g data-paper-data="{&quot;index&quot;:null}" stroke="none" stroke-width="0.5"><path d="M304.50815,158.22391c-0.02711,-0.20851 -0.05423,-0.417 -0.08134,-0.6255c0,0 -0.36088,-2.77486 2.41398,-3.13574c2.77486,-0.36088 3.13574,2.41398 3.13574,2.41398c1.36717,10.51227 2.73433,21.02454 4.10149,31.53681c0.44454,3.41814 0.96824,6.56777 1.77105,9.89807c0.69308,2.87508 0.79339,6.02646 1.17503,8.96092c0.7572,5.82219 1.51439,11.64436 2.27159,17.46654c0.06599,0.70091 0.2851,1.40413 0.19797,2.10273c-0.09026,0.72375 -0.58398,1.34998 -0.71797,2.06692c-0.31684,1.69535 0.84314,4.3738 0.83359,6.10931c-0.01752,3.18391 -0.49759,6.61657 -2.54413,9.27501c-1.49127,1.93715 -4.38031,4.30627 -7.06002,3.50342c-1.31527,-0.39407 -2.35253,-1.44296 -3.38176,-2.35175c-0.7128,-0.62939 -1.37225,-1.36579 -1.79377,-2.21815c-0.33717,-0.68181 -0.29075,-1.49343 -0.41295,-2.24417c-0.33988,-2.08794 -0.54749,-4.20974 -0.82029,-6.30737c-0.1262,-0.97037 -0.2524,-1.94073 -0.3786,-2.9111c-0.1262,-0.97037 -0.2524,-1.94072 -0.3786,-2.91109c-0.0631,-0.48517 -0.22492,-0.96758 -0.1893,-1.45555c0.0088,-0.12049 0.42239,-0.14634 0.30932,-0.1889c-0.19097,-0.07186 -1.64083,-0.55545 -1.76412,-0.33972c-0.74538,1.30414 -1.53516,3.58308 -1.76354,5.04922c-0.19488,1.25112 0.18297,2.56298 -0.09931,3.79733c-0.49582,2.16807 -0.94178,2.68388 -1.96803,4.44554l-0.21774,1.11758c-0.20125,1.17924 -1.14981,2.14074 -2.39805,2.30308c-0.97845,0.12725 -1.90447,-0.26729 -2.49805,-0.96807l-1.13113,-1.29664l0.06345,-0.05533c-0.0983,-0.07753 -0.1947,-0.15769 -0.28894,-0.24083c-1.33233,-1.17525 -0.89566,-2.6329 -1.27396,-4.07579c-0.26158,-0.99775 -1.05056,-1.79753 -1.34896,-2.78489c-0.94446,-3.12515 -0.89883,-6.88095 -0.83066,-10.06312c0.02432,-1.13509 -0.5171,-2.26737 -0.34081,-3.38894c0.09132,-0.58089 0.71321,-0.99764 0.78107,-1.58174c0.09409,-0.81 -0.40959,-1.61591 -0.3155,-2.42591c0.06784,-0.5841 0.65482,-1.00743 0.78106,-1.58175c0.06925,-0.31509 -0.23774,-0.61848 -0.2266,-0.94089c0.10339,-2.99569 0.83323,-5.18713 0.44546,-7.98901c0.15173,-1.30608 -0.02364,-2.62969 -0.01961,-3.94455c0.00374,-1.22278 0.47584,-2.40829 0.52999,-3.62987c0.05057,-1.14049 -0.51301,-2.25688 -0.4417,-3.39627c0.09665,-1.54418 0.87847,-3.00876 0.88765,-4.55593c0.00693,-1.1686 -0.55253,-2.31541 -0.4379,-3.47839c0.08616,-0.87403 0.57581,-1.67741 0.65487,-2.55211c0.05629,-0.62285 -0.27091,-1.23339 -0.2562,-1.85861c0.00561,-0.23875 0.64453,-3.57998 0.73735,-3.84398c0.14682,-0.41762 0.5851,-0.71142 0.67194,-1.14551c0.07245,-0.36227 -0.23571,-0.71579 -0.22576,-1.08509c0.02671,-0.99167 0.06115,-1.9832 0.10658,-2.9742c0.08288,-1.80788 0.6351,-2.70411 0.40247,-4.49283c0.18971,-0.97373 0.04057,-1.98436 0.10658,-2.9742c0.08085,-1.21232 0.8468,-2.28544 1.11341,-3.47084c0.17035,-0.75745 -0.3798,-1.72336 0.10897,-2.32656c2.72976,-3.36891 3.94424,-1.66423 6.9801,-1.54983c1.57962,0.05952 3.41412,-0.43967 5.02461,-0.68576z" fill="#a6a6a6"/><path d="M308.6117,190.46602c0.07041,0.98763 0.00095,2.2266 0.14717,2.73494c0.23427,0.8145 0.43737,1.63134 0.61696,2.45104c-0.22532,-1.73249 -0.45063,-3.46497 -0.67595,-5.19746l-0.08819,0.01147zM309.96736,184.73567c0.22899,-0.08722 0.48945,-0.15324 0.78563,-0.19177c2.77486,-0.36088 3.13574,2.41398 3.13574,2.41398c0.77823,5.9839 1.55646,11.96782 2.33469,17.95172c0.15729,1.20945 1.05534,4.88871 0.55788,5.94118c-2.53533,5.36411 -4.56144,5.1177 -9.43018,4.60883c-1.60652,-4.23216 -1.93775,-8.54469 -2.51921,-13.01559c-0.24608,-1.89217 -0.22786,-4.13691 -0.75542,-5.97102c-0.60273,-2.09545 -1.45141,-4.32561 -1.37036,-6.58059c0.04241,-1.18008 -0.35207,-2.58766 0.36826,-3.52337c0.80469,-1.04528 3.36935,-1.26468 4.76751,-1.44652l1.45554,-0.1893c0,0 0.27822,-0.03618 0.66992,0.00247zM311.36747,209.30254c0.00383,0.02941 0.00765,0.05883 0.01148,0.08824c0.01126,-0.03203 0.00509,-0.06093 -0.01148,-0.08824z" fill="#00afb8"/></g><path d="M266.95034,271.36934c0,6.49077 -5.38709,11.75257 -12.0324,11.75257c-6.64531,0 -12.0324,-5.26181 -12.0324,-11.75257c0,-6.49077 5.38709,-11.75257 12.0324,-11.75257c6.64531,0 12.0324,5.26181 12.0324,11.75257z" fill="#000000" stroke="#000000" stroke-width="0"/><path d="M301.44015,271.36934c0,6.49077 -5.38709,11.75257 -12.0324,11.75257c-6.64531,0 -12.0324,-5.26181 -12.0324,-11.75257c0,-6.49077 5.38709,-11.75257 12.0324,-11.75257c6.64531,0 12.0324,5.26181 12.0324,11.75257z" fill="#000000" stroke="#000000" stroke-width="0"/><path d="M236.15956,221.3741c-1.03329,-0.81395 -1.03328,-2.25421 -1.03328,-2.25421c0,-9.62227 0,-19.24453 0,-28.86679c0,-3.32474 -0.02012,-6.51014 0.5254,-9.74431c0.09219,-0.54659 -0.11125,-1.12884 0.03872,-1.66248c0.19734,-0.70215 0.77478,-1.25675 0.97853,-1.95707c0.11861,-0.40767 -0.11216,-0.85495 -0.03872,-1.27313c0.04636,-0.26397 1.09124,-3.44011 1.22694,-3.71678c0.79443,-1.6198 1.91298,-3.225 2.19793,-5.09003c0.29569,-1.93535 0.16848,-3.93469 0.48927,-5.87121c0.22697,-1.37018 1.23816,-3.31449 1.76198,-4.46603c1.40423,-0.64878 2.62308,-1.71841 4.10337,-2.16732c0.48081,-0.14581 2.98884,-0.12007 3.74649,-0.12007c2.93561,0 5.87121,0 8.80682,0c7.01284,0 14.02567,0 21.03851,0c5.05577,0 10.11153,0 15.1673,0c1.38042,0 4.66506,-0.38273 5.72378,0.3311c1.07817,0.72695 1.79813,1.94031 2.33633,3.12405c0.14581,0.32071 0.12007,3.09183 0.12007,3.74649c0,3.26178 0,6.52357 0,9.78535c0,2.41013 0.4694,4.45132 0.48927,6.84975c0.08779,10.59931 0,21.20267 0,31.8024c0,2.39026 0.27407,4.96677 0,7.33901c-0.12045,1.04259 0.13191,2.28801 -0.52819,3.10396c-0.00038,0.00048 -0.00077,0.00095 -0.00115,0.00142c0.00387,0.27418 0.01261,0.54567 0.04007,0.80876c0.2423,2.32167 -0.31569,4.75259 -0.01362,7.06329c0.1078,0.82458 0.50093,1.61482 0.48927,2.44634c-0.01868,1.33221 0.25331,2.91451 -0.57903,3.95487c-1.43293,1.79104 -4.17559,1.55461 -6.11972,1.56543c-4.56619,0.02542 -9.13322,0 -13.69949,0c-2.55746,0 -4.82767,-0.07537 -7.29798,-0.5254c-1.08197,-0.19711 -2.24292,0.22553 -3.29826,-0.08393c-0.56427,-0.16546 -0.9226,-0.75825 -1.4678,-0.97854c-0.20639,-0.08339 -0.43455,0.10985 -0.65692,0.12007c-1.36872,0.06287 -2.75979,0.01947 -4.13715,0.00452c0.22524,1.08149 0.43303,2.09712 0.50673,2.45456c2.07832,8.29897 1.04671,17.49633 1.04671,26.05582c0,2.77252 0,5.54503 0,8.31755c0,0.34588 0.00923,3.27742 -0.03613,3.38383c-0.5687,1.33426 -1.56216,2.44423 -2.34324,3.66635c-1.61435,-0.76831 -3.57838,-1.04121 -4.84306,-2.30494c-0.72073,-0.72018 0.56765,-2.43336 -0.24591,-3.04673c-0.7471,-0.56326 -1.40249,-1.24848 -2.18295,-1.76453c-0.4302,-0.28445 -1.04353,-0.19605 -1.4678,-0.48927c-0.45346,-0.31339 -0.61954,-0.94173 -1.06752,-1.26289c-0.12204,-0.0875 -0.24744,0.19912 -0.39697,0.213c-0.85081,0.07896 -1.7243,0.09118 -2.53999,0.34567c-2.08446,0.65034 -3.62923,2.96863 -3.99399,5.13261c-0.2037,1.20849 0.03613,2.72636 0.03613,3.95518c0,0 0,2.79823 -2.79823,2.79823c-0.51309,0 -0.93209,-0.09408 -1.27427,-0.24774c-0.61622,0.24774 -1.17207,0.24774 -1.17207,0.24774l-1.86341,-0.1436c-1.75969,-0.6119 -3.38381,-0.94972 -4.51786,-2.80207c-0.48868,-0.79821 -0.25851,-1.85507 -0.3311,-2.78817c-0.13752,-1.76762 0,-3.60959 0,-5.38195c0,-3.13699 -0.35198,-6.52714 0.02097,-9.63798c0.36997,-3.08601 1.06723,-6.20187 1.4678,-9.29609c0.26854,-2.07434 -0.02096,-4.41653 -0.02096,-6.50785c0,-3.16573 -0.4033,-6.64491 0,-9.78535c0.06755,-0.52602 0.07146,-1.08773 0.09012,-1.64558c-0.57939,-0.79994 -0.57939,-1.77929 -0.57939,-1.77929c0,-2.34752 0.42398,-5.07913 0.03613,-7.38006c-0.16498,-0.97877 -0.61186,-1.88996 -0.95939,-2.83399c-0.34437,-0.15296 -0.69884,-0.38622 -0.97906,-0.74197z" fill="#bbbbbb" stroke="none" stroke-width="0.5"/><path d="M281.1736,281.36104c-0.61622,0.24774 -1.17207,0.24774 -1.17207,0.24774l-1.86341,-0.1436c-1.75969,-0.6119 -3.38381,-0.94972 -4.51786,-2.80207c-0.48868,-0.79821 -0.25851,-1.85507 -0.3311,-2.78817c-0.13752,-1.76762 0,-3.60959 0,-5.38195c0,-3.13699 -0.35198,-6.52714 0.02097,-9.63798c0.36997,-3.08601 1.06723,-6.20187 1.4678,-9.29609c0.26854,-2.07434 -0.02096,-4.41653 -0.02096,-6.50785c0,-3.16573 -0.4033,-6.64491 0,-9.78535c0.19107,-1.48786 -0.127,-3.26127 0.81958,-4.42499c0.96782,-1.18982 4.82459,-0.81959 6.38206,-0.81959c5.05577,0 10.11153,0 15.1673,0c1.39034,0 4.02878,-0.11319 4.91425,0.81959c0.07802,0.08219 1.06041,4.89392 1.24068,5.76816c2.07832,8.29897 1.04671,17.49633 1.04671,26.05582c0,2.77252 0,5.54503 0,8.31755c0,0.34588 0.00923,3.27742 -0.03613,3.38383c-0.5687,1.33426 -1.56216,2.44423 -2.34324,3.66635c-1.61435,-0.76831 -3.57838,-1.04121 -4.84306,-2.30494c-0.72073,-0.72018 0.56765,-2.43336 -0.24591,-3.04673c-0.7471,-0.56326 -1.40249,-1.24848 -2.18295,-1.76453c-0.4302,-0.28445 -1.04353,-0.19605 -1.4678,-0.48927c-0.45346,-0.31339 -0.61954,-0.94173 -1.06752,-1.26289c-0.12204,-0.0875 -0.24744,0.19912 -0.39697,0.213c-0.85081,0.07896 -1.7243,0.09118 -2.53999,0.34567c-2.08446,0.65034 -3.62923,2.96863 -3.99399,5.13261c-0.2037,1.20849 0.03613,2.72636 0.03613,3.95518c0,0 0,2.79823 -2.79823,2.79823c-0.51309,0 -0.93209,-0.09408 -1.27427,-0.24774z" fill="#bbbbbb" stroke="none" stroke-width="0.5"/><path d="M251.43483,158.96933c-0.03488,0.29103 -0.10416,0.60165 -0.21456,0.93283c-1.18585,3.55756 -4.74342,2.37171 -4.74342,2.37171c-2.1565,-0.78574 -4.35223,-2.06589 -6.39758,-3.59517c-0.63302,-0.23524 -1.33183,-0.66089 -1.78817,-1.43107c-1.49101,-1.27388 -2.85955,-2.65177 -4.01936,-4.02207c-2.11095,-2.49406 -2.05593,-4.06947 -4.70297,-6.45517c-1.87753,-1.69216 -5.17658,-1.41268 -6.80433,-3.34632c-0.73129,-0.86872 0.09095,-2.36745 -0.42239,-3.38033c-0.47332,-0.93393 -1.80017,-1.19411 -2.34813,-2.0863c-1.17924,-1.92008 -0.9011,-4.41575 -1.38588,-6.61627c-0.09421,-0.42765 -2.16388,-6.13988 -2.52161,-7.42043c-1.18421,-4.23913 -1.84633,-8.91227 -1.89804,-13.28788c0.14671,-5.09585 2.51895,-9.43897 4.75254,-13.88699c0.46807,-0.93213 0.46985,-2.08184 1.05299,-2.94666c0.36432,-0.54031 5.04596,-5.19128 5.78376,-5.92563c12.63121,-12.57215 32.33946,-13.52718 48.24857,-7.07936c2.55456,0.42066 5.14448,0.64865 7.73199,0.73554c1.64584,0.05527 3.39521,-0.30615 4.93204,0.28545c1.15383,0.44416 1.49352,2.11925 2.62273,2.62273c0.84623,0.37731 1.86537,-0.41319 2.77107,-0.21779c1.65346,0.35674 3.10963,1.35298 4.73062,1.83629c1.47347,0.43933 3.06984,0.40983 4.51968,0.92176c4.28876,1.51433 9.17034,5.56151 11.58962,9.44373c2.05354,3.29532 1.02812,6.06487 1.42153,9.53039c0.49429,4.35418 1.90532,8.56517 2.58709,12.82228c0.84102,5.25146 0.03601,10.59897 1.74849,15.7364c-0.03749,1.72812 0.33624,3.51509 -0.11248,5.18435c-1.43473,5.33718 -6.88215,8.82118 -11.12566,11.65019c-1.02249,0.68166 -5.4637,3.69036 -6.2389,3.96588c-0.82376,0.29278 -1.79335,-0.27646 -2.62273,0c-0.99679,0.33226 -1.62338,1.42401 -2.62273,1.74849c-0.98624,0.32023 -2.08685,-0.06345 -3.10874,0.11248c-0.90817,0.15635 -1.71247,0.73058 -2.62273,0.87424c-2.01496,0.31801 -4.10227,-0.30187 -6.11971,0c-0.91139,0.13637 -1.70793,0.76311 -2.62273,0.87424c-7.25049,0.88086 -15.13824,0.04842 -22.45679,0.04842c-2.53102,0 -5.06204,0 -7.59306,0z" fill="#bbbbbb" stroke="none" stroke-width="0.5"/><g stroke="none" stroke-width="0.5"><path d="M243.11287,161.31461c1.60822,0.26053 3.43816,0.77617 5.01826,0.73083c3.03676,-0.08714 4.26649,-1.78086 6.9659,1.61241c0.48334,0.60756 -0.07545,1.56849 0.0881,2.32743c0.25597,1.18775 1.01224,2.2677 1.08221,3.48069c0.05713,0.99039 -0.10109,1.99964 0.07988,2.97503c-0.24867,1.78656 0.29547,2.68771 0.36213,4.49627c0.03654,0.99137 0.06209,1.98316 0.07989,2.97503c0.00663,0.36938 -0.3047,0.72012 -0.23549,1.08302c0.08294,0.43484 0.51857,0.73256 0.66163,1.15149c0.09044,0.26482 0.69935,3.61165 0.70282,3.85045c0.00909,0.62533 -0.32357,1.2329 -0.27287,1.85623c0.07121,0.87537 0.55363,1.68311 0.63193,2.55788c0.10419,1.16396 -0.46554,2.30571 -0.46909,3.47432c-0.00471,1.54719 0.76393,3.01873 0.84671,4.56372c0.06108,1.13998 -0.51248,2.25125 -0.47216,3.39217c0.04319,1.22203 0.50462,2.41172 0.49739,3.63448c-0.00777,1.31484 -0.19501,2.63682 -0.05502,3.94422c-0.4129,2.79828 0.29723,4.99618 0.37374,7.99269c0.00823,0.3225 -0.30145,0.62314 -0.23503,0.93882c0.12108,0.57542 0.70423,1.004 0.76684,1.58868c0.08682,0.81081 -0.42408,1.61218 -0.33726,2.42299c0.06261,0.58469 0.68074,1.007 0.76684,1.58868c0.16622,1.12311 -0.38533,2.25048 -0.37121,3.38574c0.03961,3.18265 0.05154,6.93871 -0.92094,10.05526c-0.30725,0.98465 -1.10337,1.77731 -1.3739,2.77267c-0.39123,1.43945 0.03233,2.90094 -1.31048,4.06419c-0.09498,0.08228 -0.19208,0.16157 -0.29109,0.23822l0.06293,0.05591l-1.14272,1.28644c-0.59984,0.69543 -1.52937,1.08165 -2.50664,0.94562c-1.24673,-0.17353 -2.18663,-1.14351 -2.37728,-2.3245l-0.20771,-1.1195c-1.01041,-1.7708 -1.45172,-2.2906 -1.92806,-4.46304c-0.2712,-1.23683 0.11842,-2.54525 -0.06523,-3.79807c-0.21522,-1.46813 -0.98451,-3.75406 -1.71816,-5.06484c-0.12135,-0.21683 -1.57551,0.25373 -1.7671,0.32388c-0.11345,0.04154 0.2999,0.0711 0.30761,0.19168c0.03124,0.48827 -0.1349,0.9692 -0.20235,1.45379c-0.13491,0.9692 -0.26981,1.93838 -0.40472,2.90757c-0.13491,0.9692 -0.2698,1.93839 -0.40471,2.90758c-0.29162,2.09509 -0.51827,4.21493 -0.87687,6.29975c-0.12894,0.74961 -0.0898,1.56162 -0.43307,2.24038c-0.42914,0.84855 -1.09518,1.579 -1.8136,2.20197c-1.03734,0.89952 -2.08398,1.93906 -3.40273,2.32131c-2.68681,0.77876 -5.55447,-1.61619 -7.02829,-3.56665c-2.02259,-2.6767 -2.47183,-6.11352 -2.46078,-9.29747c0.00602,-1.73553 1.18999,-4.40347 0.88838,-6.10158c-0.12754,-0.71812 -0.61562,-1.34875 -0.69939,-2.07329c-0.08085,-0.69935 0.14457,-1.40058 0.21685,-2.10086c0.80942,-5.81515 1.61884,-11.6303 2.42826,-17.44546c0.40796,-2.93091 0.53655,-6.08127 1.25539,-8.95001c0.83267,-3.32297 1.38462,-6.46777 1.85982,-9.88178c1.46146,-10.49957 2.92291,-20.99915 4.38436,-31.49873c0,0 0.38577,-2.77151 3.15728,-2.38574c2.77151,0.38577 2.38574,3.15728 2.38574,3.15728c-0.02899,0.20824 -0.05797,0.4165 -0.08696,0.62474z" fill="#a6a6a6"/><path d="M238.72013,193.51859l-0.08808,-0.01226c-0.24086,1.7304 -0.48172,3.46079 -0.72257,5.19119c0.18696,-0.81805 0.39737,-1.63304 0.63894,-2.44541c0.15078,-0.50702 0.09244,-1.74656 0.17171,-2.73351zM237.41596,187.77634c0.39202,-0.03513 0.66991,0.00355 0.66991,0.00355l1.45378,0.20236c1.39648,0.19438 3.95907,0.43679 4.75433,1.48925c0.71191,0.94213 0.30479,2.34611 0.33661,3.52653c0.0608,2.25561 -0.80786,4.47806 -1.42936,6.56804c-0.54399,1.82929 -0.54591,4.07412 -0.80897,5.964c-0.62156,4.4655 -0.99149,8.7749 -2.63593,12.99247c-4.87311,0.46515 -6.90136,0.69337 -9.38844,-4.69328c-0.48799,-1.05689 0.44304,-4.72795 0.61118,-5.93593c0.83191,-5.97668 1.66381,-11.95336 2.49571,-17.93004c0,0 0.38577,-2.77151 3.15728,-2.38574c0.29583,0.04118 0.55569,0.10953 0.78388,0.1988zM235.78314,212.41776c0.00409,-0.02937 0.00818,-0.05875 0.01227,-0.08813c-0.01681,0.02716 -0.02323,0.056 -0.01227,0.08813z" fill="#00afb8"/></g><path d="M307.28197,152.85752c-2.51507,0.05298 -5.36067,0.3425 -7.76527,-0.05632c-3.84505,-0.63773 -7.3356,-2.92118 -11.22268,-3.47665c-3.17819,-0.45417 -6.56318,0.41847 -9.75918,-0.02033c-0.91297,-0.12534 -1.71543,-0.71293 -2.62273,-0.87424c-3.37087,-0.59933 -7.08717,0.56454 -10.49093,0c-2.91441,-0.48338 -6.12506,-1.99398 -8.91508,-2.95563c-5.76749,-3.84499 -13.05075,-4.3198 -16.58327,-11.3378c-2.11762,-4.20706 -1.2782,-9.32533 -1.25556,-13.88699c0.0109,-2.19674 -0.5476,-4.35938 -0.84615,-6.53577c-0.59566,-4.34225 -0.0281,-9.18476 -0.0281,-13.57185c0,-2.44277 -0.67688,-8.17754 0.70784,-10.06086c0.9596,-1.30512 5.92799,-2.69907 7.68694,-3.2574c1.7958,-0.02698 3.61002,0.23375 5.38796,-0.02033c2.05315,-0.2934 3.93011,-1.39517 5.97721,-1.72816c2.55037,-0.41485 5.3478,0.44812 7.8682,0c7.34486,-1.30588 14.91261,-0.92267 22.45679,-0.92267c6.49801,0 12.74369,-0.63647 18.88687,1.64409c0.58283,0.87424 0.92802,1.96636 1.74849,2.62273c0.7196,0.57568 1.91819,0.28023 2.62273,0.87424c0.68855,0.58052 4.48956,6.23777 4.80985,7.13893c0.29278,0.82376 -0.27646,1.79335 0,2.62273c0.33226,0.99679 1.42401,1.62338 1.74849,2.62273c0.79563,2.45042 0.56135,5.80192 0.98673,8.35421c1.80146,10.80877 1.04034,22.49136 0.87424,33.54841c-0.97848,2.81958 -2.74605,5.39967 -4.8211,7.54482l-2.92007,1.96864c0,0 -2.51321,1.67547 -4.53223,-0.23653z" fill="#000000" stroke="none" stroke-width="0.5"/><path d="M298.36889,109.75862c0,4.34549 -2.93559,7.8682 -6.55683,7.8682c-3.62124,0 -6.55683,-3.52271 -6.55683,-7.8682c0,-4.34549 2.93559,-7.8682 6.55683,-7.8682c3.62124,0 6.55683,3.52271 6.55683,7.8682z" fill="#00afb8" stroke="#000000" stroke-width="0"/><path d="M313.23105,110.63287c0,3.37982 -1.95706,6.11971 -4.37122,6.11971c-2.41416,0 -4.37122,-2.73989 -4.37122,-6.11971c0,-3.37982 1.95706,-6.11971 4.37122,-6.11971c2.41416,0 4.37122,2.73989 4.37122,6.11971z" fill="#00afb8" stroke="none" stroke-width="0"/><path d="M315.23256,135.98595c0,3.75 -3.75,3.75 -3.75,3.75h-1.74849c-2.69089,0 -5.81871,0.36984 -8.46888,-0.04842c-3.30195,-0.52113 -6.50318,-1.78118 -9.89025,-1.70007c0,0 -3.75,0 -3.75,-3.75c0,-3.75 3.75,-3.75 3.75,-3.75c3.88374,0.05834 7.33537,1.12907 11.09162,1.79691c2.21148,0.39319 5.01724,-0.04842 7.26752,-0.04842h1.74849c0,0 3.75,0 3.75,3.75z" fill="#00afb8" stroke="none" stroke-width="0.5"/></g></g></svg>