<svg version="1.1" xmlns="http://www.w3.org/2000/svg" xmlns:xlink="http://www.w3.org/1999/xlink" width="122.06969" height="115.49165" viewBox="0,0,122.06969,115.49165"><g transform="translate(-173.97375,-120.12533)"><g data-paper-data="{&quot;isPaintingLayer&quot;:true}" fill="#00ff4e" fill-rule="nonzero" stroke="none" stroke-linecap="butt" stroke-linejoin="miter" stroke-miterlimit="10" stroke-dasharray="" stroke-dashoffset="0" style="mix-blend-mode: normal"><path d="M277.06509,180c0,19.62459 -16.5946,35.53347 -37.06509,35.53347c-20.47048,0 -37.06509,-15.90888 -37.06509,-35.53347c0,-19.62459 16.5946,-35.53347 37.06509,-35.53347c20.47048,0 37.06509,15.90888 37.06509,35.53347z" stroke-width="0"/><path d="M184.22834,134.63607c0.22021,0.1468 0.40156,0.30138 0.54982,0.46043c0.33856,-0.17121 0.72134,-0.26766 1.12666,-0.26766c1.38071,0 2.5,1.11929 2.5,2.5c0,0.18573 -0.02025,0.36673 -0.05867,0.54091l-0.60252,3.01261l-0.056,-0.0112c0.00144,0.07765 0.00176,0.15541 0.00091,0.23328c-0.00715,0.64772 -0.25074,1.25147 -0.55054,1.84254c0.56595,0.21732 1.29792,-0.12245 1.83652,0.17076c0.76096,0.41426 1.08891,1.40248 1.83794,1.83794c1.47162,0.85555 3.26431,1.01733 4.78746,1.77737c2.45819,1.22661 4.53108,3.24525 7.10108,4.17988c5.63826,2.05045 10.66038,4.30269 14.99126,8.54134c0,0 1.76777,1.76777 0,3.53553c-1.76777,1.76777 -3.53553,0 -3.53553,0c-3.72346,-3.83443 -8.3041,-5.50895 -13.19046,-7.38745c-3.5463,-1.36333 -6.21731,-4.15662 -9.80234,-5.51381c-0.91076,-0.34479 -1.96639,-0.30407 -2.81497,-0.78186c-0.75497,-0.42508 -1.09253,-1.39632 -1.83794,-1.83794c-0.38217,-0.22642 -0.85455,-0.299 -1.32329,-0.36832c-1.39317,2.92753 -3.57778,6.36478 -6.85846,5.44991c-1.66984,-0.46566 -1.98424,-2.96835 -2.27288,-4.67771c-0.65323,-3.86848 1.43453,-7.90102 3.55991,-10.81849l1.14517,-1.72469c0,0 1.38675,-2.08013 3.46688,-0.69338z" stroke-width="0.5"/><path d="M241.70503,122.62533c0,2.5 -2.5,2.5 -2.5,2.5h-1.28321c0.24142,1.80008 0.10479,3.81072 0.10733,4.85175c0.02203,9.00601 1.20187,17.96667 1.22529,26.95643c0,0 0,2.5 -2.5,2.5c-2.5,0 -2.5,-2.5 -2.5,-2.5c0.01907,-6.3968 -0.64465,-13.00277 -1.21313,-19.35833c-0.01507,-0.16847 -0.01301,-7.28111 -0.01217,-7.5981c0.00299,-1.12349 -0.07524,-2.25086 0.01873,-3.37042c0.02376,-0.28303 0.61131,-0.74569 0.33009,-0.78553c-0.72673,-0.10296 -1.40584,0.46921 -2.13735,0.52949c-0.7766,0.06399 -1.55607,0.05822 -2.33606,0.03973c-0.87436,0.09469 -1.68119,0.10464 -2.35889,-0.03973c-1.06981,0 -3.8821,0 -3.8821,0c-1.38071,0 -2.5,-1.11929 -2.5,-2.5c0,-1.38071 1.11929,-2.5 2.5,-2.5l4.28852,0c0.13924,0 0.33419,-0.00141 0.57342,-0.0033c2.85666,-0.96632 5.85873,-1.2096 9.22892,-1.22199h2.45058c0,0 2.5,0 2.5,2.5z" stroke-width="0.5"/><path d="M282.63273,140.3219c-1.76777,1.76777 -3.53553,0 -3.53553,0l-0.34488,-0.38041c-0.61322,-0.46178 -1.5413,-1.12834 -2.20507,-1.81862c-0.4834,0.74582 -1.18661,1.38392 -1.75805,2.06927c-1.97346,2.36685 -3.49184,4.99642 -5.51381,7.35175c-2.73956,3.19122 -6.41488,5.42975 -9.21551,8.60634c-2.59392,2.94214 -4.01517,6.38962 -5.75321,9.86571c0,0 -1.11803,2.23607 -3.3541,1.11803c-2.23607,-1.11803 -1.11803,-3.3541 -1.11803,-3.3541c1.95448,-3.90897 3.59877,-7.62757 6.49971,-10.96425c3.36226,-3.8673 7.96642,-6.46267 10.81583,-10.7553c1.6656,-2.50921 3.71552,-4.53541 5.33109,-7.03121c0.79331,-1.22553 0.75267,-3.61578 2.20266,-3.78544c0.78619,-0.09199 5.72097,3.69174 7.0685,4.69781l0.88041,0.84488c0,0 1.76777,1.76777 0,3.53553z" stroke-width="0.5"/><path d="M293.11789,200.4808c-2.5,0 -2.5,-2.5 -2.5,-2.5c0,-1.4242 0,-3.46104 0,-4.88524c-1.97703,0.0792 -4.1679,0.03349 -4.85175,0.03349c-3.36934,0 -7.50001,0.50555 -10.81544,-0.03228c-2.32064,-0.37646 -4.60044,-1.21618 -6.9513,-1.19301c0,0 -2.5,0 -2.5,-2.5c0,-2.5 2.5,-2.5 2.5,-2.5c2.61777,0.02073 5.17208,0.81476 7.75221,1.25757c3.02503,0.51917 6.94719,-0.03228 10.01453,-0.03228c1.22529,0 2.4587,-0.14076 3.67588,0c0.39816,0.04604 0.83913,0.60554 1.17588,0.68177c0,-0.415 0,-0.83 0,-1.245c0,-1.63372 -0.62155,-3.3903 0,-4.90117v-3.67588c0,-1.38071 1.11929,-2.5 2.5,-2.5c1.38071,0 2.5,1.11929 2.5,2.5v3.67588c0.95751,4.24256 0,10.30173 0,14.70351v0.61265c0,0 0,2.5 -2.5,2.5z" stroke-width="0.5"/><path d="M270.05185,228.50584c-1.11803,-2.23607 1.11803,-3.3541 1.11803,-3.3541l2.25429,-1.11585c0.16429,-0.12358 0.3276,-0.2587 0.49028,-0.40216c-2.63371,-0.58875 -4.47157,-5.01762 -6.29163,-6.57946c-1.43923,-1.23503 -3.33104,-1.84493 -4.83036,-3.00628c-5.725,-4.43453 -11.91008,-8.35898 -18.13457,-12.08552c0,0 -2.14373,-1.28624 -0.85749,-3.42997c1.28624,-2.14373 3.42997,-0.85749 3.42997,-0.85749c6.38225,3.83714 12.76428,7.8424 18.6242,12.42033c1.5419,1.20457 3.48584,1.84745 4.97198,3.12018c1.26498,1.08332 3.36061,5.52374 5.25802,5.436l1.38779,-2.31298c0.43183,-0.74893 1.24069,-1.25305 2.16731,-1.25305c1.18975,0 2.18539,0.83109 2.43804,1.9444l0.59996,2.39985l-0.12849,0.03212c0.08867,0.27429 0.15369,0.55592 0.1882,0.84701c0.38608,3.25657 -4.62705,6.4407 -6.68456,7.9803l-2.64688,1.33473c0,0 -2.23607,1.11803 -3.3541,-1.11803z" stroke-width="0.5"/><path d="M245.99355,232.90162c0,2.5 -2.5,2.5 -2.5,2.5c-4.69695,0 -10.00655,0 -14.70351,0c-2.04215,0 -4.14262,0.48455 -6.12646,0c0,0 -3.67588,0 -3.67588,0c-1.38071,0 -2.5,-1.11929 -2.5,-2.5c0,-1.22888 0.88665,-2.25067 2.05512,-2.46053l3.01782,-0.60356l0.02087,0.10436l0.22307,-0.14074c3.9567,0.05506 6.78025,-1.62182 10.93031,-1.82637c0.70796,-0.03489 1.65657,0.79084 2.11199,0.24768c0.45906,-0.54749 -0.51037,-1.35019 -0.59245,-2.05994c-0.1173,-1.01432 0,-2.04215 0,-3.06323c0,-6.53489 0,-13.06978 0,-19.60467c0,0 0,-2.5 2.5,-2.5c2.5,0 2.5,2.5 2.5,2.5c0,6.53489 0,13.06978 0,19.60467c0,1.33813 0.07196,5.31972 -0.25459,7.30234c1.29368,0 2.58737,0 3.88105,0h0.61265c0,0 2.5,0 2.5,2.5z" stroke-width="0.5"/><path d="M182.39041,206.80003c-2.08013,1.38675 -3.46688,-0.69338 -3.46688,-0.69338l-1.59662,-2.7344c-0.12179,-0.79129 -0.01064,-1.65615 -0.36538,-2.37388c-1.27707,-2.58381 -6.65991,-4.75808 1.19108,-7.93589c2.00939,-0.81333 4.96131,5.04803 6.6447,4.30571c0.70976,-0.31298 1.04976,-1.1774 1.72063,-1.56682c1.8701,-1.08551 3.87521,-1.95424 5.92729,-2.63586c1.97642,-0.65649 4.15158,-0.56418 6.12646,-1.22529c3.94021,-1.31902 7.19426,-3.91179 11.23263,-4.96184c0,0 2.42536,-0.60634 3.0317,1.81902c0.60634,2.42536 -1.81902,3.0317 -1.81902,3.0317c-3.85275,0.9117 -7.04316,3.58511 -10.82263,4.8405c-1.97642,0.65649 -4.15158,0.56418 -6.12646,1.22529c-1.76404,0.59053 -3.46009,1.38775 -5.10034,2.26531c-1.12165,0.6001 -1.92878,1.8825 -3.18053,2.10906c-0.49726,0.09 -2.12633,-0.13035 -3.7012,-0.63885c0.04096,0.25629 0.0866,0.51089 0.14397,0.76126l0.85397,0.94148c0,0 1.38675,2.08013 -0.69338,3.46688z" stroke-width="0.5"/></g></g></svg>