<svg version="1.1" xmlns="http://www.w3.org/2000/svg" xmlns:xlink="http://www.w3.org/1999/xlink" width="147.06748" height="131.0356" viewBox="0,0,147.06748,131.0356"><g transform="translate(-167.26705,-114.35402)"><g data-paper-data="{&quot;isPaintingLayer&quot;:true}" fill-rule="nonzero" stroke-linecap="butt" stroke-linejoin="miter" stroke-miterlimit="10" stroke-dasharray="" stroke-dashoffset="0" style="mix-blend-mode: normal"><path d="M199.50101,234.8746c0,-10.27806 0,-66.36932 0,-91.55549c0,-7.49466 5.42318,-12.25274 10.76769,-12.25274c11.87283,0 58.78358,0 80.41382,0c6.7446,0 11.03124,5.3852 11.03124,13.706c0,1.52156 0,78.98417 0,88.64896c0,5.94573 -3.8775,11.96829 -10.0624,11.96829c-21.29936,0 -69.96342,0 -81.86707,0c-5.13731,0 -10.28327,-5.19742 -10.28327,-10.51503z" fill="#020025" stroke="none" stroke-width="5"/><path d="M199.99221,227.68638v-9.69639h101.20611v9.69639z" fill="#020025" stroke="none" stroke-width="5"/><path d="M204.5374,222.32458c0,-1.23774 0,-4.03158 0,-4.03158h97.26695v6.96928c0,0 -79.81776,0 -91.81273,0c-2.92357,0 -5.45422,-1.88114 -5.45422,-2.9377z" fill="#020025" stroke="none" stroke-width="5"/><path d="M246.11582,197.57421c0,-5.71717 0,-18.56382 0,-28.58081c0,-7.59532 5.87728,-13.56378 10.65725,-13.56378c9.8278,0 45.05111,0 45.05111,0v55.22395c0,0 -30.94544,0 -41.17575,0c-6.07771,0 -14.53262,-7.47943 -14.53262,-13.07936z" fill="#ffd797" stroke="none" stroke-width="5"/><path d="M201.19233,186.39005c0,-7.63237 0,-24.78254 0,-38.15513c0,-10.13968 10.61673,-18.10753 19.25131,-18.10753c17.75297,0 81.38053,0 81.38053,0v73.72349c0,0 -55.89997,0 -74.38005,0c-10.97879,0 -26.25177,-9.98497 -26.25177,-17.46082z" fill="#ffdca3" stroke="none" stroke-width="5"/><path d="M223.12537,215.28707c0,-6.10824 4.95171,-11.05995 11.05995,-11.05995c6.10824,0 11.05995,4.95171 11.05995,11.05995c0,6.10824 -4.95171,11.05995 -11.05995,11.05995c-6.10824,0 -11.05995,-4.95171 -11.05995,-11.05995z" fill="#ffd797" stroke="none" stroke-width="5"/><path d="M226.1555,216.65062c0,-5.18782 4.20556,-9.39338 9.39338,-9.39338c5.18782,0 9.39338,4.20556 9.39338,9.39338c0,5.18782 -4.20556,9.39338 -9.39338,9.39338c-5.18782,0 -9.39338,-4.20556 -9.39338,-9.39338z" fill="#ffdca3" stroke="none" stroke-width="5"/><path d="M287.91789,222.99551c0,-0.83674 0.67832,-1.51506 1.51506,-1.51506c0.83674,0 1.51506,0.67832 1.51506,1.51506c0,0.83674 -0.67832,1.51506 -1.51506,1.51506c-0.83674,0 -1.51506,-0.67832 -1.51506,-1.51506z" fill="#020025" stroke="none" stroke-width="5"/><path d="M287.91789,230.26781c0,-0.83674 0.67832,-1.51506 1.51506,-1.51506c0.83674,0 1.51506,0.67832 1.51506,1.51506c0,0.83674 -0.67832,1.51506 -1.51506,1.51506c-0.83674,0 -1.51506,-0.67832 -1.51506,-1.51506z" fill="#020025" stroke="none" stroke-width="5"/><path d="M247.84243,160.2261l-2.74688,-0.03313c-0.90411,-0.15587 -5.12587,-0.74874 -6.73804,-2.22569c-0.3382,0.41908 -0.73548,0.81341 -1.05628,1.23377c-2.06402,2.70458 -5.02471,6.77844 -9.28849,6.52431c-1.66584,-0.0993 -1.99211,-2.54722 -2.73312,-3.95817c-0.00362,-0.00691 -0.25976,-0.77273 -0.5837,-1.76604c-0.362,1.25955 -0.62803,2.54656 -0.87744,3.96096c-0.64532,5.75551 -1.22448,12.42137 0.64794,18.08779c0.11023,0.33358 0.24478,0.63139 0.39696,0.90429c-1.38071,-0.13608 -2.89518,-0.04235 -4.67195,0.39727c-5.94532,1.471 -14.44695,1.32418 -17.07533,6.56555c-0.56157,1.11984 -0.99527,2.22262 -1.31233,3.30567c-1.85488,-3.43178 -3.18049,-7.05665 -3.50029,-10.38036c-0.29501,-3.06612 0.22282,-5.97784 0.51826,-8.97935c0.39709,-4.03433 -0.55853,-8.23643 0.01028,-12.25586c0.40453,-2.85855 1.23774,-5.85859 1.84148,-8.71017c2.73387,-11.10165 9.90968,-22.90654 20.57855,-28.85749c3.27511,-1.82682 7.16353,-3.02583 10.68996,-4.30544c3.27762,-1.18931 6.37235,-2.86248 9.90754,-3.31106c5.54952,-0.70422 11.73251,-0.02492 17.32159,-0.0084c10.8984,1.83482 22.8593,2.52568 32.79482,7.61646c11.70607,5.99798 16.7819,19.31623 20.61857,30.44917c0.03587,3.56497 0.30075,7.28066 0.02288,10.83361c-0.02559,0.32722 -0.05564,0.65434 -0.08948,0.9814c-6.62755,-2.24873 -14.17442,-1.18293 -20.36123,2.23441c-1.13857,0.24029 -2.208,0.65337 -3.17571,1.20854c-0.01878,-0.1025 -0.03947,-0.20364 -0.06217,-0.30332c-0.38331,-1.68265 -0.90069,-2.7133 -1.24384,-3.73033c-1.06912,2.52553 -2.15307,4.88413 -5.84253,5.7143c-1.36431,0.30696 -4.91347,-2.84368 -6.01146,-3.76112c-3.18066,-2.65762 -6.17677,-7.65901 -5.46957,-11.86078c-1.42924,1.21166 -2.83683,2.45187 -4.5175,3.30403c-0.0435,0.02204 -0.08708,0.04389 -0.13076,0.06556l0.00847,0.01257l-4.32191,2.59454c-0.40694,0.25295 -0.89427,0.40015 -1.41805,0.40015c-1.42528,0 -2.58069,-1.08998 -2.58069,-2.43452c0,-0.15128 0.01463,-0.29933 0.04261,-0.44299c-0.8915,1.10053 -1.95446,1.89168 -3.24221,2.11573c-1.29711,0.22566 -3.09575,-0.66528 -4.63791,-1.73971c-0.74926,0.55387 -1.71101,0.55387 -1.71101,0.55387z" fill="#000000" stroke="#000000" stroke-width="3.5"/><path d="M220.93613,126.36618l0.5302,0.56453c4.43753,2.95836 4.75083,6.82174 3.748,11.84654c-1.84676,4.60781 -4.68836,6.8474 -8.3335,9.97971c-1.37482,1.18141 -2.92948,2.93249 -4.75451,3.47288c-0.22485,0.06658 -0.45353,0.12673 -0.68561,0.18097c-0.34978,0.23302 -0.75769,0.23301 -0.75769,0.23301c-0.16232,0 -0.3247,0 -0.48714,0c-12.21907,0 -24.7799,0 -36.98976,0c-1.71451,-0.00542 -4.80896,0.19942 -5.78671,-1.74124c-0.1924,-0.38187 -0.14791,-4.05538 -0.14791,-4.55372c0,-5.83869 0.75923,-13.52163 5.50248,-17.543c1.32888,-1.12664 4.7728,-2.67254 7.31411,-2.65219c-0.65706,-3.63483 2.65541,-10.05108 5.61245,-11.22947c3.4183,-1.36219 7.58737,2.05363 10.11658,3.67839c1.02679,0.65961 2.32042,0.7865 3.40414,1.3477c0.40282,0.2086 0.62751,0.79461 1.07989,0.82813c0.27287,0.02022 -0.41188,-0.52624 -0.28627,-0.76933c0.45613,-0.88275 1.16632,-1.62181 1.87939,-2.31379c1.84812,-1.79345 3.21035,-1.58284 5.48838,-1.02715c4.05384,1.06008 8.76737,5.06439 11.16754,8.41851c0.1249,0.17454 0.46503,0.61093 0.82956,1.10016c0.80808,-0.56897 1.55639,0.17934 1.55639,0.17934z" fill="#000000" stroke="none" stroke-width="0.5"/><g stroke="none" stroke-width="0.5"><path d="M266.46347,181.43147c0,-1.25 1.25,-1.25 1.25,-1.25l0.7779,0.03732c2.82411,-0.6889 5.5168,-0.32502 8.08101,0.70502c0.08557,-1.12259 0.34965,-2.22164 0.8086,-3.24123c1.06815,-2.37293 3.7312,-3.2769 5.90092,-4.31442c7.31308,-0.14147 16.96486,-1.20906 19.14094,7.70108c0.53413,2.18702 0.16212,5.01988 0.07193,7.40815c0.63635,0.58838 0.21009,1.44089 0.21009,1.44089l-0.26571,0.46487c-0.26792,0.70783 -0.21053,1.65351 -0.80376,2.12351c-1.08995,0.86354 -5.13611,0.26474 -6.53495,0.26474c-3.86003,0 -8.32205,0.59192 -12.0097,-0.81586c-3.4497,-1.31695 -5.75239,-4.67175 -6.37777,-8.25331c-0.117,-0.03553 -0.18928,-0.07166 -0.18928,-0.07166c-2.24285,-1.19312 -4.88887,-1.63967 -7.42597,-0.98642l-1.38423,0.03732c0,0 -1.25,0 -1.25,-1.25zM300.03534,189.73058c-0.05887,-0.20829 -0.05887,-0.3713 -0.05887,-0.3713c0,-2.25575 0.61062,-5.40865 0.05363,-7.56557c-1.93018,-7.47461 -10.02782,-5.81436 -16.17382,-5.99241c-1.32887,0.70691 -3.58072,1.35197 -4.18901,2.89268c-1.54673,3.91762 0.06735,9.37362 4.38017,10.95188c3.36609,1.23181 7.54371,0.62556 11.053,0.62556c1.36855,0 5.04106,0.67293 4.91336,-0.49459z" fill="#000000"/><path d="M300.05581,189.80391c0.1277,1.16752 -3.55664,0.50735 -4.92519,0.50735c-3.50929,0 -7.74973,0.60427 -11.11583,-0.62754c-4.31282,-1.57826 -5.94001,-7.09232 -4.39328,-11.00994c0.60829,-1.54071 2.87474,-2.2047 4.20361,-2.91161c6.14601,0.17806 14.3244,-1.44941 16.25457,6.02521c0.55698,2.15693 -0.06049,5.34208 -0.06049,7.59783c0,0 -0.00061,0.164 0.05825,0.37229z" data-paper-data="{&quot;noHover&quot;:false,&quot;origItem&quot;:[&quot;Path&quot;,{&quot;applyMatrix&quot;:true,&quot;segments&quot;:[[[284.54008,198.73945],[0,0],[-0.05887,-0.20829]],[[284.48121,198.36815],[0,0],[0,-2.25575]],[[284.53484,190.80257],[0.55698,2.15693],[-1.93018,-7.47461]],[[268.36102,184.81016],[6.14601,0.17806],[-1.32887,0.70691]],[[264.172,187.70284],[0.60829,-1.54071],[-1.54673,3.91762]],[[268.55217,198.65472],[-4.31282,-1.57826],[3.36609,1.23181]],[[279.60517,199.28028],[-3.50929,0],[1.36855,0]],[[284.51853,198.78569],[0.1277,1.16752],[0,0]]],&quot;closed&quot;:true}]}" fill="#080000"/><path d="M276.36977,182.68147l-1.38423,-0.03732c-2.5371,-0.65325 -5.18313,-0.20669 -7.42597,0.98642c0,0 -0.07228,0.03614 -0.18928,0.07166c-0.62538,3.58156 -2.92807,6.93636 -6.37777,8.25331c-3.68765,1.40778 -8.14967,0.81586 -12.0097,0.81586c-1.39884,0 -5.44499,0.59879 -6.53495,-0.26474c-0.59323,-0.47 -0.53584,-1.41567 -0.80376,-2.12351l-0.26571,-0.46487c0,0 -0.42626,-0.85251 0.21009,-1.44089c-0.09019,-2.38827 -0.4622,-5.22114 0.07193,-7.40815c2.17609,-8.91013 11.82786,-7.84254 19.14094,-7.70108c2.16972,1.03752 4.83277,1.94149 5.90092,4.31442c0.45896,1.01959 0.72303,2.11864 0.8086,3.24123c2.56421,-1.03005 5.2569,-1.39392 8.08101,-0.70502l0.7779,-0.03732c0,0 1.25,0 1.25,1.25c0,1.25 -1.25,1.25 -1.25,1.25zM244.06945,189.77682c-0.1277,1.16752 3.5448,0.49459 4.91336,0.49459c3.50929,0 7.68691,0.60625 11.053,-0.62556c4.31282,-1.57826 5.9269,-7.03426 4.38017,-10.95187c-0.60829,-1.54071 -2.86015,-2.18577 -4.18901,-2.89268c-6.14601,0.17806 -14.24365,-1.4822 -16.17382,5.99241c-0.55698,2.15693 0.05363,5.30982 0.05363,7.56557c0,0 0,0.16301 -0.05887,0.3713z" data-paper-data="{&quot;index&quot;:null}" fill="#000000"/><path d="M244.00578,189.7575c0.05887,-0.20829 0.05825,-0.37229 0.05825,-0.37229c0,-2.25575 -0.61747,-5.4409 -0.06049,-7.59783c1.93018,-7.47461 10.10857,-5.84715 16.25457,-6.02521c1.32887,0.70691 3.59531,1.3709 4.20361,2.91161c1.54673,3.91762 -0.08046,9.43168 -4.39328,11.00994c-3.36609,1.23181 -7.60654,0.62754 -11.11583,0.62754c-1.36855,0 -5.05289,0.66016 -4.92519,-0.50735z" data-paper-data="{&quot;noHover&quot;:false,&quot;origItem&quot;:[&quot;Path&quot;,{&quot;applyMatrix&quot;:true,&quot;segments&quot;:[[[228.57419,198.78569],[0,0],[-0.1277,1.16752]],[[233.48755,199.28028],[-1.36855,0],[3.50929,0]],[[244.54055,198.65472],[-3.36609,1.23181],[4.31282,-1.57826]],[[248.92072,187.70284],[1.54673,3.91762],[-0.60829,-1.54071]],[[244.73171,184.81016],[1.32887,0.70691],[-6.14601,0.17806]],[[228.55788,190.80257],[1.93018,-7.47461],[-0.55698,2.15693]],[[228.61152,198.36815],[0,-2.25575],[0,0]],[[228.55265,198.73945],[0.05887,-0.20829],[0,0]]],&quot;closed&quot;:true}]}" fill="#080000"/><path d="M284.48094,175.1326c-0.17911,-0.87037 0.69126,-1.30555 0.69126,-1.30555l1.71325,-0.81924c1.51955,-0.02939 4.2406,-0.46712 5.49533,0.69303c1.07236,0.99153 1.06123,3.60687 1.39355,4.84591c0.899,3.35197 4.91283,8.63692 2.78857,12.48341c-0.53617,0.97086 -2.43267,1.69521 -3.47185,1.73188c-0.23417,0.00826 -0.48232,-0.22846 -0.7045,-0.3482v0.3176c-0.2931,-0.02584 -0.58983,-0.03903 -0.88965,-0.03903c-0.65677,0 -1.29875,0.06331 -1.92017,0.18417l-0.20096,-0.30144l0.07223,-0.04815l-0.17531,-0.13953c-0.50695,-1.94824 -1.39599,-3.25699 -2.17384,-5.0723c-0.40227,-0.93881 -0.08489,-2.06882 -0.41252,-3.03621c-0.80732,-2.38374 -1.99967,-5.02832 -3.15421,-7.33342c0,0 -0.55902,-1.11803 0.55902,-1.67705c0.13852,-0.06926 0.26845,-0.11277 0.38981,-0.13586z" fill-opacity="0.54839" fill="#ffffff"/><path d="M249.16617,175.13261c-0.17912,-0.87037 0.69126,-1.30556 0.69126,-1.30556l1.71324,-0.81923c1.51954,-0.02939 4.2406,-0.46712 5.49533,0.69303c1.07236,0.99153 1.06123,3.60686 1.39355,4.84591c0.899,3.35197 4.91283,8.63692 2.78857,12.48341c-0.53616,0.97086 -2.43268,1.69521 -3.47185,1.73188c-0.23417,0.00826 -0.48231,-0.22846 -0.7045,-0.3482v0.3176c-0.2931,-0.02584 -0.58983,-0.03903 -0.88965,-0.03903c-0.65677,0 -1.29875,0.06331 -1.92017,0.18417l-0.20096,-0.30144l0.07223,-0.04815l-0.17531,-0.13953c-0.50694,-1.94824 -1.39599,-3.25699 -2.17383,-5.0723c-0.40227,-0.93882 -0.08489,-2.06882 -0.41252,-3.03621c-0.80732,-2.38374 -1.99966,-5.02832 -3.15421,-7.33342c0,0 -0.55902,-1.11803 0.55901,-1.67705c0.13851,-0.06926 0.26846,-0.11277 0.38981,-0.13586z" fill-opacity="0.54839" fill="#ffffff"/></g></g></g></svg>