<svg version="1.1" xmlns="http://www.w3.org/2000/svg" xmlns:xlink="http://www.w3.org/1999/xlink" width="126.24509" height="121.83444" viewBox="0,0,126.24509,121.83444"><g transform="translate(-187.5676,-116.10253)"><g data-paper-data="{&quot;isPaintingLayer&quot;:true}" fill-rule="nonzero" stroke="none" stroke-linecap="butt" stroke-linejoin="miter" stroke-miterlimit="10" stroke-dasharray="" stroke-dashoffset="0" style="mix-blend-mode: normal"><path d="M187.5676,227.42196c0,-10.27806 0,-66.36932 0,-91.55549c0,-7.49466 5.31706,-12.25274 10.557,-12.25274c11.64051,0 57.63336,0 78.84036,0c6.61263,0 10.81539,5.3852 10.81539,13.706c0,1.52156 0,78.98417 0,88.64896c0,5.94573 -3.80163,11.96829 -9.86551,11.96829c-20.88259,0 -68.59444,0 -80.26517,0c-5.03679,0 -10.08206,-5.19742 -10.08206,-10.51503z" fill="#00c30d" stroke-width="5"/><g fill="#000000" stroke-width="0.5"><path d="M195.8154,177.26679c0.88458,-6.55973 1.47171,-13.50916 1.4659,-20.12881c-0.00661,-7.53205 -0.55468,-15.49044 2.95012,-22.33294c2.61374,-5.10285 7.066,-8.46204 11.3021,-12.00801c3.36772,-2.81906 6.42791,-4.38631 10.53397,-5.69525c14.64579,-2.19851 30.41902,-0.22234 45.06215,0.73705c7.1613,0.4692 13.77996,0.84152 20.76643,2.93329c1.11367,0.52628 2.37859,0.78986 3.34102,1.57884c4.21025,3.45144 4.89261,11.19315 5.21827,16.34081c0.38013,6.0087 1.54172,11.76492 1.13465,17.84703c-0.63137,9.4333 -2.42784,19.09437 -4.61656,28.2828c-0.22977,0.96362 -1.27655,5.54945 -1.67911,6.44761c-4.10161,9.15121 -13.85073,10.46185 -22.07578,11.89943c-1.25736,0.21976 -2.40795,0.90816 -3.65824,1.16852c-6.41962,1.33683 -13.31958,0.8471 -19.82562,0.8471c-6.48787,0 -12.95674,0.1657 -19.42425,-0.39966c-1.98112,-0.01264 -3.92938,-0.53488 -5.89274,-0.81283c-5.69336,-0.80602 -10.7073,-0.19663 -16.21225,-2.57284c-3.55279,-1.53356 -7.15942,-3.75311 -10.52943,-6.0163c0.52581,-0.40197 0.90056,-0.73679 1.03723,-0.94976c1.0083,-1.57116 0.88137,-3.67346 1.31373,-5.51237c0.3081,-1.31042 -0.67954,-2.76461 -0.77074,-4.1256c-0.05646,-0.84255 -0.08939,-1.85683 -0.13438,-2.94935c0.12557,-1.53347 0.33914,-3.06014 0.69354,-4.57876zM200.24608,193.15184c1.9699,1.19801 3.98082,2.29431 5.97034,3.15433c4.9804,2.1529 9.65563,1.47723 14.84334,2.19454c1.82386,0.25219 3.62947,0.79007 5.46906,0.77629c6.39529,0.55905 12.79021,0.3949 19.20587,0.3949c6.13356,0 12.75339,0.53728 18.8045,-0.74203c1.33451,-0.28214 2.57348,-0.98033 3.91629,-1.21517c6.18316,-1.08132 14.98659,-1.5507 18.06925,-8.75921c0.73501,-1.71876 0.91537,-3.64325 1.3507,-5.47083c2.11985,-8.89046 3.84058,-18.21769 4.47288,-27.33662c0.40443,-5.83255 -0.76974,-11.34966 -1.13771,-17.11374c-0.2946,-4.61467 -0.47896,-11.18216 -5.07488,-13.06831c-6.53641,-1.96165 -12.69169,-2.18999 -19.3786,-2.62866c-10.08332,-0.66148 -19.97315,-1.18491 -30.11188,-1.18491c-4.46482,0 -9.02574,-0.32836 -13.44802,0.33283c-3.2987,1.02034 -5.7047,2.36407 -8.40237,4.63407c-3.57968,3.01218 -7.71666,5.89092 -9.90659,10.23975c-3.02068,5.99854 -2.34659,13.18313 -2.35205,19.77891c-0.00577,6.96804 -0.616,14.28916 -1.56391,21.18847c-1.12594,4.61607 -0.70845,9.41535 -0.70845,14.16959v0.39728c0,0 0,0.0986 -0.01778,0.25851z"/><path d="M200.22003,192.92374l-0.00017,-0.39755c0,-4.75424 -0.42285,-9.56473 0.70309,-14.1808c0.94791,-6.89932 1.55512,-14.2439 1.56089,-21.21194c0.00546,-6.59578 -0.66245,-13.80212 2.35823,-19.80066c2.18994,-4.34883 6.33637,-7.2407 9.91605,-10.25288c2.69767,-2.27 5.11237,-3.62094 8.41107,-4.64128c4.42228,-0.66119 8.99794,-0.33954 13.46276,-0.33954c10.13873,0 20.0679,0.52889 30.15121,1.19036c6.6869,0.43867 12.85645,0.67951 19.39285,2.64116c4.59592,1.88615 4.78763,8.46578 5.08223,13.08045c0.36797,5.76408 1.54678,11.299 1.14235,17.13155c-0.63231,9.11893 -2.35865,18.47691 -4.4785,27.36738c-0.43534,1.82759 -0.61859,3.75725 -1.35361,5.47601c-3.08266,7.20851 -11.9018,7.69399 -18.08496,8.77532c-1.34281,0.23483 -2.58622,0.93566 -3.92073,1.2178c-6.05111,1.2793 -12.69537,0.7479 -18.82894,0.7479c-6.41565,0 -12.83477,0.15752 -19.23006,-0.40154c-1.83959,0.01378 -3.65047,-0.52754 -5.47433,-0.77972c-5.18771,-0.71731 -9.87288,-0.05121 -14.85328,-2.20411c-1.98952,-0.86002 -4.00394,-1.96122 -5.97385,-3.15923c0.01778,-0.15991 0.01768,-0.25867 0.01768,-0.25867z" data-paper-data="{&quot;noHover&quot;:false,&quot;origItem&quot;:[&quot;Path&quot;,{&quot;applyMatrix&quot;:true,&quot;segments&quot;:[[[200.24608,193.15184],[0.01778,-0.15991],[1.9699,1.19801]],[[206.21642,196.30616],[-1.98952,-0.86002],[4.9804,2.1529]],[[221.05976,198.5007],[-5.18771,-0.71731],[1.82386,0.25219]],[[226.52882,199.277],[-1.83959,0.01378],[6.39529,0.55905]],[[245.73469,199.6719],[-6.41565,0],[6.13356,0]],[[264.53919,198.92987],[-6.05111,1.2793],[1.33451,-0.28214]],[[268.45547,197.7147],[-1.34281,0.23483],[6.18316,-1.08132]],[[286.52473,188.95549],[-3.08266,7.20851],[0.73501,-1.71876]],[[287.87543,183.48466],[-0.43534,1.82759],[2.11985,-8.89046]],[[292.34831,156.14804],[-0.63231,9.11893],[0.40443,-5.83255]],[[291.2106,139.03429],[0.36797,5.76408],[-0.2946,-4.61467]],[[286.13572,125.96599],[4.59592,1.88615],[-6.53641,-1.96165]],[[266.75712,123.33733],[6.6869,0.43867],[-10.08332,-0.66148]],[[236.64525,122.15242],[10.13873,0],[-4.46482,0]],[[223.19723,122.48525],[4.42228,-0.66119],[-3.2987,1.02034]],[[214.79486,127.11932],[2.69767,-2.27],[-3.57968,3.01218]],[[204.88827,137.35907],[2.18994,-4.34883],[-3.02068,5.99854]],[[202.53622,157.13798],[0.00546,-6.59578],[-0.00577,6.96804]],[[200.97231,178.32646],[0.94791,-6.89932],[-1.12594,4.61607]],[[200.26386,192.49604],[0,-4.75424],[0,0]],[200.26386,192.89332]],&quot;closed&quot;:true}]}"/></g><path d="M290.53481,194.38176l-0.11899,0c-3.51929,-0.02964 -5.40603,-0.72253 -8.39786,-2.46393c-1.08132,-0.62939 -2.6342,-0.70949 -3.31601,-1.75855c-0.84789,-1.3046 -1.00111,-3.05158 -0.81413,-4.59622c0.13377,-1.10503 1.18106,-1.88846 1.71721,-2.86393c1.67731,-3.05167 3.21003,-7.24893 7.03383,-8.39463c1.16515,-0.34911 2.37988,0.50633 3.57764,0.71804c2.52423,0.44616 4.92178,0.68451 7.39281,1.41061c3.61071,-0.02995 6.94514,0.75592 10.45709,1.44238c1.23873,0.24213 2.7779,-0.02186 3.68965,0.85094c1.22415,1.17186 2.03531,2.95501 2.05627,4.64952c0.03445,2.78569 -2.36423,4.01223 -3.80576,5.76649c-1.74519,2.1238 -3.27651,4.3717 -5.04497,6.48639c-1.6546,1.97853 -1.86418,4.04796 -5.15132,4.48866c-3.14438,0.42156 -6.47473,-2.84958 -9.27546,-5.73576z" fill="#000e2b" stroke-width="0.5"/><path d="M294.01107,136.13978c1.65563,-1.2805 3.21748,0.28134 3.21748,0.28134l1.39342,1.46208c0.58467,0.94147 1.44905,1.75896 1.75402,2.82442c0.78969,2.75884 -0.12883,3.81646 -0.66841,6.29082c-0.70741,3.24394 -0.79977,6.81889 -1.03238,10.10612c-0.06514,0.92055 -1.01933,6.57083 -1.0863,6.63551c-0.90123,0.87052 -5.28406,0.73407 -6.81273,0.73223c-4.57731,-0.00551 -8.6793,-1.32601 -13.11234,-2.21262c-3.79376,-0.75875 -7.623,-1.15133 -11.35788,-2.20782c-2.03921,-0.59093 -4.88948,-1.21551 -6.43656,-2.7498c-2.87392,-2.85018 -2.21714,-3.89366 -1.84091,-7.19293c0.59061,-5.17921 2.78308,-11.79295 7.74766,-14.46459c3.18561,-1.7143 6.09759,-1.39706 9.50477,-1.39706c6.2511,0 11.82869,-0.00184 17.90337,1.51606c0,0 0.39528,0.09882 0.82679,0.37624z" fill="#0097d2" stroke-width="0.5"/></g></g></svg>