<svg version="1.1" xmlns="http://www.w3.org/2000/svg" xmlns:xlink="http://www.w3.org/1999/xlink" width="137.20837" height="161.08702" viewBox="0,0,137.20837,161.08702"><g transform="translate(-184.88435,-92.18082)"><g data-paper-data="{&quot;isPaintingLayer&quot;:true}" fill-rule="nonzero" stroke-linejoin="miter" stroke-miterlimit="10" stroke-dasharray="" stroke-dashoffset="0" style="mix-blend-mode: normal"><path d="M200.31993,242.75283c0,-10.27806 0,-66.36932 0,-91.55549c0,-7.49466 5.42318,-12.25274 10.76769,-12.25274c11.87283,0 58.78358,0 80.41382,0c6.7446,0 11.03124,5.3852 11.03124,13.706c0,1.52156 0,78.98417 0,88.64896c0,5.94573 -3.8775,11.96829 -10.0624,11.96829c-21.29936,0 -69.96342,0 -81.86707,0c-5.13731,0 -10.28327,-5.19742 -10.28327,-10.51503z" fill="#b1ff99" stroke="none" stroke-width="5" stroke-linecap="butt"/><path d="M201.19853,198.52453c0,-5.71717 0,-18.56382 0,-28.58081c0,-7.59532 5.87728,-13.56378 10.65725,-13.56378c9.8278,0 45.05111,0 45.05111,0v55.22395c0,0 -30.94544,0 -41.17575,0c-6.07771,0 -14.53262,-7.47943 -14.53262,-13.07936z" fill="#ffd797" stroke="none" stroke-width="5" stroke-linecap="butt"/><path d="M201.46643,238.28202v-7.55771h102.65895v7.55771z" fill="#608b53" stroke="none" stroke-width="0" stroke-linecap="butt"/><path d="M202.01125,194.26828c0,-7.63237 0,-24.78254 0,-38.15513c0,-10.13968 10.61673,-18.10753 19.25131,-18.10753c17.75297,0 81.38053,0 81.38053,0v73.72349c0,0 -55.89997,0 -74.38005,0c-10.97879,0 -26.25177,-9.98497 -26.25177,-17.46082z" fill="#ffdca3" stroke="none" stroke-width="5" stroke-linecap="butt"/><path d="M277.35074,201.34865v-14.8476" fill="none" stroke="#000000" stroke-width="5" stroke-linecap="round"/><path d="M289.77425,201.34865v-14.8476" fill="none" stroke="#000000" stroke-width="5" stroke-linecap="round"/><path d="M314.38887,130.63795c0,0 -0.12032,3.38682 -0.40457,4.75835c-0.23991,1.15754 -1.45404,3.46528 -1.45404,3.46528c0,0 -5.06452,-2.44567 -10.29615,-2.92254c-1.33509,-0.12169 6.69049,0.7868 11.68539,3.78066c5.30975,3.18258 6.95317,9.32693 6.95317,9.32693c0,0 -2.01767,-2.05698 -4.32711,-2.94243c-2.73501,-1.04862 -6.9169,0.54375 -10.73616,-0.7983c-0.3388,-0.11904 1.117,0.93515 5.14178,0.82316c1.05157,-0.02927 1.38273,0.12803 1.81265,0.53826c0.55301,0.52772 1.11613,1.47399 1.96746,2.98024c1.01466,1.7952 0.28642,6.69832 1.31936,8.75376c1.70349,3.38971 5.44311,3.43227 5.44311,3.43227c0,0 -1.21458,1.18633 -2.94907,1.65918c-1.73913,0.47412 -3.9991,0.23407 -4.66878,-0.28366c-0.34353,-0.26558 -1.75111,3.67167 -2.28139,7.95686c-0.60897,4.92127 -0.32232,10.3014 -0.32232,10.3014c0,0 -2.37183,-3.25932 -4.07585,-5.65029c-0.8782,-1.23222 0.84231,-3.18367 -0.0929,-6.39668c-0.84803,-2.91353 -4.35853,-7.11416 -5.04576,-8.10009c-0.55782,-0.80025 5.63736,8.36427 5.24259,8.90637c-0.08549,0.11739 0.14581,2.77507 -0.44927,5.8971c-0.51273,2.68997 -1.85014,5.69452 -2.05528,8.06984c-0.32513,3.7648 0.7839,4.51887 0.67105,4.43191c-1.36919,-1.05536 -4.86283,-5.2662 -6.21205,-11.93813c-0.77155,-3.81537 0.10388,-11.90324 0.08845,-11.90119c-0.2716,0.03616 -1.02246,4.44286 -3.53181,10.26533c-1.55201,3.60111 -5.29519,7.52688 -5.45007,11.94709c-0.09026,2.57579 1.00327,-18.22508 0.65736,-16.23973c-0.22533,1.29325 -6.40323,-12.13144 -6.58182,-10.77224c-0.08282,0.63034 2.05978,3.25277 1.97791,3.8843c-0.52666,4.06277 0.14099,9.50521 -0.5994,12.82931c-1.42972,6.41889 -6.77199,8.83591 -6.77199,8.83591c0,0 1.05524,-5.29882 -0.85097,-10.6238c-1.7606,-4.91823 -5.87492,-7.11701 -6.62878,-6.38805c-0.23802,0.23016 0.09597,-1.34883 1.30061,-3.297c1.76534,-2.85497 4.72848,-6.90595 4.97265,-10.53501c0.20515,-3.04948 -0.67886,-5.49186 -1.65655,-7.20977c-1.06522,-1.87173 -2.24165,-2.88348 -2.24165,-2.88348c0,0 4.08679,4.86686 3.80323,10.01726c-0.2625,4.76805 -5.09652,10.27983 -5.77738,11.95692c-1.18361,2.91552 -0.49193,5.18546 -0.82767,6.3991c-1.25985,4.55409 6.54925,8.18115 6.54925,8.18115c0,0 -6.7193,0.24512 -10.05348,-4.0923c-0.21099,-0.27447 -1.02907,-1.91151 -1.49674,-4.28625c-0.58458,-2.96848 -0.81923,-6.95789 -0.90863,-9.36428c-0.23369,-6.29041 1.23726,-8.6892 0.93626,-8.06652c-2.66667,5.51657 0.99321,20.49176 -0.86646,24.33186c-2.14322,4.42564 -2.39151,3.86836 -2.91414,3.86836c-0.00309,0 1.03679,-2.40391 -0.46177,-7.42034c-0.88637,-2.96717 -3.60324,-5.32351 -4.80551,-9.109c-0.61254,-1.92865 -0.31164,-5.44222 -0.24609,-7.09781c0.15392,-3.88689 -4.1893,14.07569 -4.1893,14.07569c0,0 -2.46185,-25.59296 -2.319,-16.98579c0.11683,7.03951 -2.05519,10.05363 -1.48606,15.5874c0.6748,6.56114 4.69223,10.18447 4.69223,10.18447c0,0 -9.04886,-5.1111 -11.37977,-11.7143c-2.64938,-7.50537 0.67974,-16.01286 -0.07043,-15.20584c-0.37233,0.40053 -1.20726,8.76388 -1.56715,9.16306c-1.96256,2.17664 -6.11662,8.40564 -6.74352,13.89491c-0.79126,6.92841 2.23078,13.09501 2.23078,13.09501c0,0 -8.23042,-7.15667 -8.83898,-12.71206c-0.96605,-8.81877 5.37411,-17.48802 5.05858,-17.24201c-0.43189,0.33675 -3.44196,5.79461 -4.80266,10.98681c-1.35005,5.15147 -1.05087,10.03776 -1.45513,10.32375c-0.55666,0.39381 -3.87633,-15.31538 -3.87031,-23.74052c0.00694,-9.69868 3.35473,-12.29612 2.76946,-11.74671c-6.29297,5.9072 0.20178,35.65005 -5.14587,39.22941c-0.13887,0.09296 -4.33007,-2.76484 -6.26645,-9.00157c-0.95871,-3.08784 -0.21549,-9.30237 -0.41917,-11.86691c-0.69535,-8.75453 3.85096,-12.11641 3.62423,-11.95338c-7.66049,5.5081 -0.26746,24.10058 -6.59091,27.63672c-1.47242,0.82339 -3.57528,0.16165 -4.88762,0.81094c-0.43906,0.21723 2.8865,-2.92605 4.38951,-8.91139c0.94469,-3.76201 -0.17664,-10.03906 0.8037,-13.20557c0.31076,-1.00373 0.53033,-2.19862 0.85579,-2.89685c0.98463,-2.11228 1.98383,-2.42614 1.73532,-2.28878c-0.69192,0.38247 -2.05322,1.48742 -2.66719,4.81558c-0.63474,3.44063 -0.32052,7.94337 -0.66124,11.57897c-0.30017,3.20299 -1.26595,5.75914 -1.62785,5.95474c-4.7152,2.54829 -8.37555,-2.40151 -8.37555,-2.40151c0,0 3.23956,0.96178 5.21849,-1.52108c0.47758,-0.5992 1.75932,-4.02045 2.21153,-8.58985c0.50438,-5.09652 0.17686,-11.4213 0.66502,-12.73727c0.74552,-2.00975 3.57109,-2.88176 2.96417,-2.6756c-4.38155,1.48836 -8.63609,10.38854 -8.63609,10.38854c0,0 -0.76477,-6.87926 -0.21244,-9.23992c0.4818,-2.0591 3.34391,-4.14334 3.34391,-4.14334c0,0 1.9214,0.30607 4.20034,-0.82794c2.73721,-1.36206 5.15299,-3.50568 5.15299,-3.50568c0,0 -2.93691,2.21232 -5.01138,3.343c-1.70415,0.92883 -3.76312,0.95396 -4.54785,1.0263c-5.41428,0.49914 -7.68763,-3.39235 -7.68763,-3.39235c0,0 4.32746,0.68135 7.97789,-1.81805c3.47617,-2.38009 6.2838,-7.22563 6.2838,-7.92895c0,-1.68528 9.04024,-16.42012 19.97321,-20.81364c3.55489,-1.42858 9.12255,-3.25668 12.77021,-2.73817c6.07222,0.86314 9.62395,4.96237 10.26123,4.2601c0.33567,-0.36991 -9.4474,13.70195 -9.07041,13.35637c0.5581,-0.51159 11.30009,-15.42555 11.9416,-15.87848c2.1388,-1.51015 4.71737,-2.67655 7.57724,-3.38085c2.00026,-0.4926 4.13812,-0.75915 6.35935,-0.75915c4.52463,0 8.70333,-0.21144 12.07772,1.6583c1.37549,0.76216 6.74591,4.5549 11.1476,10.00597c3.0189,3.73861 4.74483,9.2341 7.75841,11.16481c8.50806,5.45086 12.00495,0.00347 12.00495,0.00347z" fill="#ffaf66" stroke="none" stroke-width="0" stroke-linecap="butt"/><path d="M260.03872,240.80126v-15.11543h24.56257v15.11543z" fill="#4b1b00" stroke="none" stroke-width="0" stroke-linecap="butt"/><path d="M233.36928,212.96809v-82.97373h88.72344v82.97373z" fill-opacity="0.62903" fill="#000000" stroke="none" stroke-width="0" stroke-linecap="butt"/><path d="M193.9691,159.99868c0,0 -5.07475,-11.27912 -6.05319,-17.00998c-0.99967,-5.85523 -3.03156,-17.75629 -3.03156,-17.75629l120.44027,-20.56297c0,0 2.56176,15.00462 3.63552,21.29378c0.85409,5.00253 -0.21906,14.1023 -0.21906,14.1023z" fill="#b1ff99" stroke="none" stroke-width="0" stroke-linecap="butt"/><path d="M205.35309,142.70274l-1.76455,-10.49564c0,0 21.56902,-37.05628 35.73629,-39.82333c14.05984,-2.74606 47.68789,23.28352 47.68789,23.28352l3.02417,10.49564z" fill="#b1ff99" stroke="none" stroke-width="0" stroke-linecap="butt"/><path d="M200.59674,216.16871v-64.87038h34.63952v64.87038z" fill="#b1ff99" stroke="none" stroke-width="0" stroke-linecap="butt"/><path d="M205.35309,142.70274l-2.17311,-11.12634l84.6838,-16.53981l2.17311,11.12634z" fill="#273922" stroke="none" stroke-width="0" stroke-linecap="butt"/></g></g></svg>