<svg version="1.1" xmlns="http://www.w3.org/2000/svg" xmlns:xlink="http://www.w3.org/1999/xlink" width="181.86072" height="131.03559" viewBox="0,0,181.86072,131.03559"><g transform="translate(-128.61272,-114.48223)"><g data-paper-data="{&quot;isPaintingLayer&quot;:true}" fill-rule="nonzero" stroke-linejoin="miter" stroke-miterlimit="10" stroke-dasharray="" stroke-dashoffset="0" style="mix-blend-mode: normal"><g stroke="none" stroke-width="0.5" stroke-linecap="butt"><g><path d="M169.00745,152.70379c-1.90672,1.61691 -3.52363,-0.28982 -3.52363,-0.28982l-1.30074,-1.53984c-0.68523,-0.72263 -1.37045,-1.44527 -2.05567,-2.1679c0,0 -1.56898,-1.65464 -0.12982,-3.30187c-0.31621,-0.25084 -0.65175,-0.51973 -1.01469,-0.80731c0,0 -0.04111,-0.03257 -0.10669,-0.09423c-0.49039,-0.3405 -0.76442,-0.75969 -0.76442,-0.75969c-2.38317,-3.76123 -6.2851,-6.57445 -8.96111,-10.29388l-0.79246,-1.20793c0,0 -1.36792,-2.09256 0.72463,-3.46048c2.09256,-1.36792 3.46048,0.72464 3.46048,0.72464l0.66967,1.02873c2.66143,3.71958 6.27418,6.44501 8.84171,10.11892c0.0219,0.01593 0.03339,0.02503 0.03339,0.02503c2.06342,1.63498 2.50563,2.80364 5.11487,2.59555l0.69203,-0.34745c0,0 2.37875,-0.76913 3.14788,1.60961c0.76914,2.37874 -1.60961,3.14788 -1.60961,3.14788l-2.20693,0.5899c-0.25568,-0.009 -0.49964,-0.02178 -0.73312,-0.03844l0.80405,0.94495c0,0 1.61691,1.90672 -0.28982,3.52363z" fill="#6e4415"/><path d="M149.21971,127.60184c-0.00241,0.13973 -0.00801,0.2777 -0.01682,0.41296c0.08787,-0.08003 0.13546,-0.16977 0.09892,-0.28327c-0.01733,-0.05384 -0.04548,-0.09624 -0.08211,-0.12968zM145.50318,134.48789c-1.35963,-0.80779 -1.37315,-2.95604 -1.68766,-4.52776c-0.19927,-0.99584 0.31343,-2.0229 0.24975,-3.03648c-0.16196,-2.57774 -2.75057,-5.91497 1.1421,-8.14627c1.42274,-0.81552 3.08795,1.13585 4.5345,1.90837c2.97906,1.59095 6.22673,4.67368 5.81877,8.45143c-0.24126,2.23413 -4.17676,5.05413 -5.55497,6.80663c0,0 -1.5526,1.95945 -3.51205,0.40685c-0.7646,-0.60584 -0.99444,-1.27363 -0.99043,-1.86277z" fill="#6e6e6e"/></g><g data-paper-data="{&quot;index&quot;:null}"><path d="M180.04875,135.61127l-1.10375,-0.56672c0.06959,0.22349 0.13781,0.45806 0.20503,0.70491l-0.06972,2.28335c0,0 -0.20493,2.49159 -2.69652,2.28666c-2.49159,-0.20493 -2.28666,-2.69652 -2.28666,-2.69652l0.18003,-0.75314c-0.39395,-2.58771 -1.63276,-2.75103 -3.69618,-4.38601c0,0 -0.01148,-0.0091 -0.032,-0.02678c-4.1636,-1.65959 -7.64281,-4.55356 -11.87234,-6.29413l-1.15458,-0.41674c0,0 -2.34988,-0.85329 -1.49659,-3.20316c0.85329,-2.34987 3.20316,-1.49658 3.20316,-1.49658l1.35711,0.49531c4.23271,1.75479 7.86349,4.91022 12.06996,6.37037c0,0 0.47074,0.17094 0.91433,0.57049c0.07502,0.04975 0.11612,0.08232 0.11612,0.08232c0.36294,0.28758 0.70142,0.55276 1.01791,0.80325c1.27458,-1.77765 3.2441,-0.6285 3.2441,-0.6285c0.86015,0.50187 1.7203,1.00373 2.58046,1.5056l1.79644,0.91425c0,0 2.22589,1.13817 1.08772,3.36405c-1.13817,2.22589 -3.36405,1.08772 -3.36405,1.08772z" fill="#6e4415"/><path d="M154.59677,121.04904c0.11886,0.00962 0.19533,-0.05723 0.25316,-0.16107c-0.12966,0.0395 -0.2627,0.07649 -0.39817,0.11078c0.04093,0.02801 0.08864,0.04572 0.14502,0.05028zM162.34561,116.34469c1.95945,1.5526 0.40685,3.51205 0.40685,3.51205c-1.391,1.74237 -3.23656,6.21836 -5.35637,6.964c-3.58443,1.26083 -7.328,-1.19605 -9.5579,-3.73248c-1.08277,-1.23162 -3.36317,-2.4066 -2.89452,-3.97811c1.28225,-4.2997 5.12292,-2.54261 7.66941,-2.97427c1.00129,-0.16973 1.88394,-0.90367 2.89896,-0.93734c1.602,-0.05315 3.69645,-0.53113 4.79368,0.60781c0.57263,-0.13859 1.27527,-0.06751 2.03987,0.53833z" fill="#6e6e6e"/></g><g data-paper-data="{&quot;index&quot;:null}"><path d="M163.78041,156.1427l-1.10375,-0.56672c0.06959,0.22349 0.13781,0.45806 0.20503,0.70491l-0.06972,2.28335c0,0 -0.20493,2.49159 -2.69652,2.28666c-2.49159,-0.20493 -2.28666,-2.69652 -2.28666,-2.69652l0.18003,-0.75314c-0.39395,-2.58771 -1.63276,-2.75103 -3.69618,-4.38601c0,0 -0.01148,-0.0091 -0.032,-0.02678c-4.1636,-1.65959 -7.64281,-4.55356 -11.87234,-6.29413l-1.15458,-0.41674c0,0 -2.34988,-0.85329 -1.49659,-3.20316c0.85329,-2.34987 3.20316,-1.49658 3.20316,-1.49658l1.35711,0.49531c4.23271,1.75479 7.86349,4.91022 12.06996,6.37037c0,0 0.47074,0.17094 0.91433,0.57049c0.07502,0.04975 0.11612,0.08232 0.11612,0.08232c0.36294,0.28758 0.70142,0.55276 1.01791,0.80325c1.27458,-1.77765 3.2441,-0.6285 3.2441,-0.6285c0.86015,0.50187 1.7203,1.00373 2.58046,1.5056l1.79644,0.91425c0,0 2.22589,1.13817 1.08772,3.36405c-1.13817,2.22589 -3.36405,1.08772 -3.36405,1.08772z" fill="#6e4415"/><path d="M138.32843,141.58047c0.11886,0.00962 0.19533,-0.05723 0.25316,-0.16107c-0.12966,0.0395 -0.2627,0.07649 -0.39817,0.11078c0.04093,0.02801 0.08864,0.04572 0.14502,0.05028zM146.07727,136.87611c1.95945,1.5526 0.40685,3.51205 0.40685,3.51205c-1.391,1.74237 -3.23656,6.21836 -5.35637,6.964c-3.58443,1.26083 -7.328,-1.19605 -9.5579,-3.73248c-1.08277,-1.23162 -3.36317,-2.4066 -2.89452,-3.97811c1.28225,-4.2997 5.12292,-2.54261 7.66941,-2.97427c1.00129,-0.16973 1.88394,-0.90367 2.89896,-0.93734c1.602,-0.05315 3.69645,-0.53113 4.79368,0.60781c0.57263,-0.13859 1.27527,-0.06751 2.03987,0.53833z" fill="#6e6e6e"/></g><path d="M153.29788,151.75281c-0.029,-0.0219 -0.05817,-0.04448 -0.08752,-0.06773c-1.95945,-1.5526 -0.7775,-3.04427 -0.7775,-3.04427l0.99876,-1.26048c1.6462,-2.07758 3.28898,-4.15766 4.95315,-6.22095c5.24791,-3.49392 8.55513,-8.79209 12.89864,-13.15643c1.86148,-1.87041 3.52122,-4.39056 7.39853,-3.0996c1.10668,0.36847 1.79658,1.63095 2.72306,2.41594c2.13979,1.81302 4.1919,3.3612 6.19977,5.33898c7.66899,7.55405 14.61131,15.60951 22.14887,23.32164c1.61217,1.86873 3.57256,3.48737 5.16266,5.37037c1.935,2.29142 3.6157,4.72948 5.71305,7.03185c3.04421,3.34179 5.62929,4.57156 5.9956,9.17389c0.15183,1.90765 -3.53612,4.2172 -4.86585,5.17205c-2.37921,1.70845 -5.17578,3.27777 -7.3127,5.17963c-2.20861,1.96567 -3.78156,4.82449 -5.61132,7.13373c-0.47777,0.60297 -3.90963,5.3451 -5.17184,5.34805c-2.17773,0.00509 -6.19412,-4.61351 -7.98145,-6.03164c-5.93238,-6.0345 -11.88335,-12.10767 -18.24944,-17.741c-3.37075,-2.98276 -7.03865,-5.69049 -10.41877,-8.66799c-2.27849,-2.00708 -4.03724,-4.48452 -6.20434,-6.56381c-0.75063,-0.72022 -1.73699,-1.20143 -2.44196,-1.95938c-1.63148,-1.75411 -2.84751,-3.77546 -4.40897,-5.57891c0,0 -0.94954,-1.0988 -0.66043,-2.09391z" fill="#ffffff"/></g><g stroke="none" stroke-width="0.5" stroke-linecap="butt"><path d="M142.55466,146.16832c-0.15986,-1.19434 0.33299,-1.89006 0.88649,-2.29037c0.21714,-1.51109 1.86438,-1.94474 1.86438,-1.94474c3.31167,-0.86242 8.04575,-2.14082 11.46735,-1.09809c1.70396,0.51928 3.0781,1.79637 4.65659,2.6219c1.9595,1.0248 6.36933,2.76553 7.93601,3.77044c2.30112,1.476 4.10842,3.62275 6.33601,5.20754c0.4789,0.34071 0.96067,0.67691 1.44478,1.00937c0.90698,-0.728 2.20097,-0.72996 3.1095,-0.01269l2.34492,1.79128l-0.0334,0.04372l0.17041,0.06886c1.56088,1.58136 3.10393,3.14163 4.6011,4.71327c1.66931,1.07747 3.32646,2.17417 4.95224,3.3205c4.96022,3.49743 10.21317,7.48919 12.24791,13.42338c0.75563,3.95974 2.34434,7.64408 2.93902,11.63732c0.73942,4.96511 0.48579,10.02091 -0.11537,14.97467c-0.41166,3.39229 -3.012,12.27146 -9.09579,6.81408c-3.24424,-2.9102 -0.10065,-5.48689 0.63452,-7.84815c1.99187,-6.39765 -0.5343,-13.69558 -2.48861,-19.73588c-1.29011,-4.0048 -3.1901,-7.47006 -5.46526,-10.65832c-2.13544,-0.80279 -4.46016,-0.99296 -6.65387,-2.55207c-2.61323,-1.85727 -4.55028,-4.68668 -6.03574,-7.44027c-0.29467,-0.54622 -0.70604,-1.05951 -1.0469,-1.59383c-0.58136,-0.19449 -1.1548,-0.40739 -1.70507,-0.67319c-3.34265,-1.61463 -6.57603,-3.64927 -9.72737,-5.57984c-4.4095,-2.70134 -10.09034,-7.59474 -15.44078,-7.00684c-0.81392,0.26821 -1.62784,0.53643 -2.44176,0.80464l-2.53176,0.37957c0,0 -2.4779,0.33167 -2.80957,-2.14623z" fill="#4d300f"/><path d="M198.31199,208.5061c-0.35666,0.35041 -0.70708,-0.00624 -0.70708,-0.00624c-0.66463,-0.67648 -2.00033,-2.03599 -2.66495,-2.71247c-1.7569,-1.78823 -2.73618,-3.39357 -4.08369,-5.37394c-2.37708,-3.49346 -6.44666,-6.54989 -9.418,-9.5742c-4.80887,-4.89461 -9.33721,-9.92464 -14.04155,-14.93819c-0.96858,-1.03887 -1.36956,-2.27519 -2.18628,-3.39514c-3.15819,-4.33073 -7.95397,-8.08822 -11.71823,-11.9196c-4.15139,-4.2254 -8.01085,-8.75654 -12.1157,-12.93457c0,0 -0.35042,-0.35666 0.00625,-0.70708c0.35666,-0.35041 0.70708,0.00625 0.70708,0.00625c4.10599,4.17919 7.9641,8.70895 12.1157,12.93457c3.80259,3.87038 8.61554,7.65846 11.81249,12.03067c0.79429,1.08629 1.16495,2.30278 2.10796,3.30066c4.69853,5.00779 9.22252,10.03286 14.02563,14.9216c3.00955,3.06321 7.13912,6.16367 9.53277,9.71444c1.31616,1.9524 2.23681,3.47071 3.96891,5.23369c0.66463,0.67648 1.32925,1.35295 1.99388,2.02943l0.67108,0.68304c0,0 0.35042,0.35666 -0.00625,0.70708z" fill="#000000"/></g><path d="M195.63152,235.0028c0,-10.27806 0,-66.36932 0,-91.55549c0,-7.49466 5.42318,-12.25274 10.76769,-12.25274c11.87283,0 58.78358,0 80.41382,0c6.7446,0 11.03124,5.3852 11.03124,13.706c0,1.52156 0,78.98417 0,88.64896c0,5.94573 -3.8775,11.96829 -10.0624,11.96829c-21.29936,0 -69.96342,0 -81.86707,0c-5.13731,0 -10.28327,-5.19742 -10.28327,-10.51503z" fill="#006c3c" stroke="none" stroke-width="5" stroke-linecap="butt"/><path d="M196.12272,227.81458v-9.69639h101.20611v9.69639z" fill="#006c3c" stroke="none" stroke-width="5" stroke-linecap="butt"/><path d="M200.66791,222.45278c0,-1.23774 0,-4.03158 0,-4.03158h97.26695v6.96928c0,0 -79.81776,0 -91.81273,0c-2.92357,0 -5.45422,-1.88114 -5.45422,-2.9377z" fill="#006c3c" stroke="none" stroke-width="5" stroke-linecap="butt"/><path d="M242.24633,197.70241c0,-5.71717 0,-18.56382 0,-28.58081c0,-7.59532 5.87728,-13.56378 10.65725,-13.56378c9.8278,0 45.05111,0 45.05111,0v55.22395c0,0 -30.94544,0 -41.17575,0c-6.07771,0 -14.53262,-7.47943 -14.53262,-13.07936z" fill="#ffd797" stroke="none" stroke-width="5" stroke-linecap="butt"/><path d="M197.32284,186.51825c0,-7.63237 0,-24.78254 0,-38.15513c0,-10.13968 10.61673,-18.10753 19.25131,-18.10753c17.75297,0 81.38053,0 81.38053,0v73.72349c0,0 -55.89997,0 -74.38005,0c-10.97879,0 -26.25177,-9.98497 -26.25177,-17.46082z" fill="#ffdca3" stroke="none" stroke-width="5" stroke-linecap="butt"/><path d="M219.25588,215.41527c0,-6.10824 4.95171,-11.05995 11.05995,-11.05995c6.10824,0 11.05995,4.95171 11.05995,11.05995c0,6.10824 -4.95171,11.05995 -11.05995,11.05995c-6.10824,0 -11.05995,-4.95171 -11.05995,-11.05995z" fill="#ffd797" stroke="none" stroke-width="5" stroke-linecap="butt"/><path d="M222.28601,216.77882c0,-5.18782 4.20556,-9.39338 9.39338,-9.39338c5.18782,0 9.39338,4.20556 9.39338,9.39338c0,5.18782 -4.20556,9.39338 -9.39338,9.39338c-5.18782,0 -9.39338,-4.20556 -9.39338,-9.39338z" fill="#ffdca3" stroke="none" stroke-width="5" stroke-linecap="butt"/><path d="M284.0484,223.12371c0,-0.83674 0.67832,-1.51506 1.51506,-1.51506c0.83674,0 1.51506,0.67832 1.51506,1.51506c0,0.83674 -0.67832,1.51506 -1.51506,1.51506c-0.83674,0 -1.51506,-0.67832 -1.51506,-1.51506z" fill="#009c56" stroke="none" stroke-width="5" stroke-linecap="butt"/><path d="M284.0484,230.39601c0,-0.83674 0.67832,-1.51506 1.51506,-1.51506c0.83674,0 1.51506,0.67832 1.51506,1.51506c0,0.83674 -0.67832,1.51506 -1.51506,1.51506c-0.83674,0 -1.51506,-0.67832 -1.51506,-1.51506z" fill="#009c56" stroke="none" stroke-width="5" stroke-linecap="butt"/><path d="M271.16283,178.75102v14.8476" fill="none" stroke="#000000" stroke-width="5" stroke-linecap="round"/><path d="M283.58634,193.59862v-14.8476" fill="none" stroke="#000000" stroke-width="5" stroke-linecap="round"/><path d="M247.64841,160.35431l-2.5913,-0.03313c-0.8529,-0.15587 -4.83553,-0.74874 -6.35639,-2.22569c-0.31905,0.41908 -0.69382,0.81341 -0.99645,1.23377c-1.94711,2.70458 -4.74011,6.77844 -8.76238,6.52431c-1.57149,-0.0993 -1.87927,-2.54722 -2.57831,-3.95817c-0.00342,-0.00691 -0.24505,-0.77273 -0.55064,-1.76604c-0.34149,1.25955 -0.59245,2.54656 -0.82774,3.96096c-0.60877,5.75551 -1.15513,12.42137 0.61124,18.08779c0.10399,0.33358 0.23091,0.63139 0.37448,0.90429c-1.3025,-0.13608 -2.7312,-0.04235 -4.40733,0.39727c-5.60857,1.471 -13.62866,1.32418 -16.10817,6.56555c-0.52976,1.11984 -0.9389,2.22262 -1.238,3.30567c-1.74982,-3.43178 -3.00035,-7.05665 -3.30203,-10.38036c-0.2783,-3.06612 0.2102,-5.97784 0.48891,-8.97935c0.3746,-4.03433 -0.52689,-8.23643 0.0097,-12.25586c0.38161,-2.85855 1.16763,-5.85859 1.73717,-8.71017c2.57902,-11.10165 9.34839,-22.90654 19.41296,-28.85749c3.08961,-1.82682 6.75778,-3.02583 10.08447,-4.30544c3.09197,-1.18931 6.01141,-2.86248 9.34636,-3.31106c5.23519,-0.70422 11.06797,-0.02492 16.34048,-0.0084c10.28111,1.83482 21.56453,2.52568 30.93729,7.61646c11.04303,5.99798 15.83135,19.31623 19.45071,30.44917c0.03384,3.56497 0.28372,7.28066 0.02159,10.83361c-0.02414,0.32722 -0.05249,0.65434 -0.08441,0.9814c-6.25216,-2.24873 -13.37157,-1.18293 -19.20795,2.23441c-1.07408,0.24029 -2.08293,0.65337 -2.99583,1.20854c-0.01772,-0.1025 -0.03723,-0.20364 -0.05865,-0.30332c-0.3616,-1.68265 -0.84968,-2.7133 -1.17339,-3.73033c-1.00857,2.52553 -2.03112,4.88413 -5.5116,5.7143c-1.28703,0.30696 -4.63516,-2.84368 -5.67096,-3.76112c-3.0005,-2.65762 -5.82691,-7.65901 -5.15977,-11.86078c-1.34828,1.21166 -2.67615,2.45187 -4.26162,3.30403c-0.04103,0.02204 -0.08215,0.04389 -0.12336,0.06556l0.00799,0.01257l-4.07712,2.59454c-0.38389,0.25295 -0.84362,0.40015 -1.33773,0.40015c-1.34455,0 -2.43452,-1.08998 -2.43452,-2.43452c0,-0.15128 0.0138,-0.29933 0.0402,-0.44299c-0.84101,1.10053 -1.84376,1.89168 -3.05857,2.11573c-1.22364,0.22566 -2.9204,-0.66528 -4.37521,-1.73971c-0.70682,0.55387 -1.6141,0.55387 -1.6141,0.55387z" fill="#000000" stroke="#000000" stroke-width="3.5" stroke-linecap="butt"/><path d="M225.07265,131.582c0.60136,1.07646 1.48356,2.12408 1.27321,3.28382c-0.25152,1.38669 -1.82218,2.15967 -2.85565,3.11786c-1.72183,1.59641 -4.23986,3.08264 -5.66048,4.98685c-1.23184,1.65117 -1.38469,5.11362 -1.91954,7.04005c-0.78625,2.83194 -2.04162,5.90194 -2.53558,8.79722c-0.35758,2.09586 0.02006,4.2523 0.01396,6.37842c-1.0111,5.05548 -0.43957,10.15184 -0.97602,15.27766c-0.60104,5.74304 -1.87327,11.26845 -2.60101,16.91559c-0.71412,5.54151 -0.38541,10.8145 -2.02647,16.28874c-0.6464,2.15624 -1.58554,5.30263 -3.448,6.78937c-0.09146,0.07301 -0.18491,0.1428 -0.28012,0.20969l0.02781,0.03339l-1.93533,1.61279c-0.42397,0.35843 -0.97218,0.5745 -1.57083,0.5745c-0.9201,0 -1.72097,-0.51041 -2.13492,-1.26355c-1.64551,1.23437 -5.0587,0.61115 -6.95396,0.61434c-4.28475,0.00717 -7.97784,-0.53725 -11.95315,-2.12677c-1.44234,-0.57672 -3.09352,-0.76171 -4.3471,-1.67902c-0.0502,-0.03672 -0.09977,-0.07416 -0.14872,-0.11227l-0.01524,0.02667l-2.23119,-1.27497c-0.7554,-0.41329 -1.26769,-1.21542 -1.26769,-2.1372c0,-1.34455 1.08997,-2.43452 2.43452,-2.43452h2.59683c6.81742,0 14.11059,-0.94858 17.75074,-7.64288c2.85106,-3.89347 2.47419,-7.62479 1.6063,-12.18831c-0.42436,-2.23134 -0.25808,-4.5451 -0.64267,-6.78365c-0.6296,-3.66476 -2.64598,-8.65138 -4.31395,-12.01508c-2.22833,-4.49373 -5.71855,-7.73314 -7.30338,-12.71982c-2.19306,-6.90048 -2.06661,-13.58811 -2.06101,-20.70109c0.7409,-5.86648 3.22587,-13.5462 8.60976,-16.84766c7.62929,-4.67834 17.63943,-4.22964 25.61633,-0.81969c1.28564,0.54959 4.47444,1.85539 5.42156,2.60145c1.91307,1.50693 2.53742,3.29068 3.5874,5.36416c0,0 0.17365,0.34731 0.24356,0.83389z" fill="#000000" stroke="#000000" stroke-width="4" stroke-linecap="butt"/></g></g></svg>