<svg version="1.1" xmlns="http://www.w3.org/2000/svg" xmlns:xlink="http://www.w3.org/1999/xlink" width="128.36456" height="146.26731" viewBox="0,0,128.36456,146.26731"><g transform="translate(-170.15851,-151.75001)"><g data-paper-data="{&quot;isPaintingLayer&quot;:true}" fill-rule="nonzero" stroke-linejoin="miter" stroke-miterlimit="10" stroke-dasharray="" stroke-dashoffset="0" style="mix-blend-mode: normal"><path d="M244.37388,176.25105v14.8476" fill="none" stroke="#000000" stroke-width="5" stroke-linecap="round"/><path d="M256.04739,177.25104v14.8476" fill="none" stroke="#000000" stroke-width="5" stroke-linecap="round"/><path d="M209.9146,260.03978l0.77832,0.37039c4.32167,1.31484 8.83783,3.15413 12.55411,5.8311c0.36482,-0.11626 0.96097,-0.1619 1.40056,0.51911c0.31126,0.4822 0.2582,0.88592 0.10975,1.18157c0.01167,0.24551 -0.06299,0.52608 -0.30249,0.82477c-0.40126,0.50043 -0.85339,0.53816 -1.19854,0.45629c-1.88832,1.55189 -3.92272,3.07478 -5.6045,4.82131c-3.20234,3.32563 -5.2674,7.66592 -8.10741,11.24116c4.839,1.51203 5.60322,8.81932 0.03181,10.01744c-2.11615,0.45507 -3.20707,-0.98258 -4.67022,-2.15577c-3.51997,-2.8224 -6.37956,-5.63873 -9.24438,-9.10132c-0.55314,-1.19233 -1.67374,-3.34345 -1.50893,-4.7551c0.25585,-2.19145 2.38189,-4.87687 3.70911,-6.53212c3.30329,-4.11971 6.96406,-7.88598 10.24271,-11.97495c0,0 0.06119,-0.07632 0.17069,-0.16913c0.52987,-1.08477 1.6394,-0.57475 1.6394,-0.57475z" fill="#000000" stroke="none" stroke-width="0.5" stroke-linecap="butt"/><path d="M262.09776,262.78225l0.75612,0.41383c4.24036,1.55723 8.64523,3.64908 12.20411,6.532c0.37082,-0.09543 0.96859,-0.10728 1.36895,0.59752c0.28348,0.49904 0.20766,0.8991 0.04272,1.18588c-0.00224,0.24578 -0.09266,0.52167 -0.34867,0.80633c-0.42892,0.47692 -0.88247,0.48902 -1.22244,0.38775c-1.97309,1.44258 -4.09039,2.84793 -5.86829,4.49652c-3.38537,3.13913 -5.69266,7.35564 -8.73038,10.76448c4.7457,1.78337 5.0953,9.12219 -0.53497,10.00319c-2.13851,0.33462 -3.14635,-1.16245 -4.54078,-2.41653c-3.35466,-3.01702 -6.05034,-5.99062 -8.71468,-9.60973c-0.4848,-1.22171 -1.48191,-3.43279 -1.2375,-4.83285c0.37942,-2.17346 2.65398,-4.73431 4.07272,-6.31182c3.53107,-3.92623 7.39905,-7.47936 10.90378,-11.3763c0,0 0.06541,-0.07273 0.17999,-0.1592c0.5904,-1.05306 1.66929,-0.48108 1.66929,-0.48108z" fill="#000000" stroke="none" stroke-width="0.5" stroke-linecap="butt"/><path d="M186.84257,250.11092c0,-3.08578 0,-19.92605 0,-27.48769c0,-2.25012 5.31706,-3.67864 10.557,-3.67864c11.64051,0 57.63336,0 78.84036,0c6.61263,0 10.81539,1.6168 10.81539,4.11495c0,0.45682 0,23.7134 0,26.61506c0,1.78509 -3.80163,3.59323 -9.86551,3.59323c-20.88259,0 -68.59444,0 -80.26517,0c-5.03679,0 -10.08206,-1.56042 -10.08206,-3.15693z" fill="#ff0000" stroke="none" stroke-width="5" stroke-linecap="butt"/><path d="M189.87896,230.2028c0,-1.23774 0,-4.03158 0,-4.03158h97.26695v6.96928c0,0 -79.81776,0 -91.81273,0c-2.92357,0 -5.45422,-1.88114 -5.45422,-2.9377z" fill="#ff0000" stroke="none" stroke-width="5" stroke-linecap="butt"/><path d="M204.46693,235.91531c0,-6.10824 4.95171,-11.05995 11.05995,-11.05995c6.10824,0 11.05995,4.95171 11.05995,11.05995c0,6.10824 -4.95171,11.05995 -11.05995,11.05995c-6.10824,0 -11.05995,-4.95171 -11.05995,-11.05995z" fill="#ffffff" stroke="none" stroke-width="5" stroke-linecap="butt"/><path d="M273.25945,230.87373c0,-0.83674 0.67832,-1.51506 1.51506,-1.51506c0.83674,0 1.51506,0.67832 1.51506,1.51506c0,0.83674 -0.67832,1.51506 -1.51506,1.51506c-0.83674,0 -1.51506,-0.67832 -1.51506,-1.51506z" fill="#ff0000" stroke="none" stroke-width="5" stroke-linecap="butt"/><path d="M273.25945,238.14603c0,-0.83674 0.67832,-1.51506 1.51506,-1.51506c0.83674,0 1.51506,0.67832 1.51506,1.51506c0,0.83674 -0.67832,1.51506 -1.51506,1.51506c-0.83674,0 -1.51506,-0.67832 -1.51506,-1.51506z" fill="#ff0000" stroke="none" stroke-width="5" stroke-linecap="butt"/><path d="M226.71538,274.72177c-1.17032,0.54692 -3.15234,1.93977 -4.6365,1.94599c-0.09635,0.00041 -0.19206,-0.00278 -0.28719,-0.00905v0.03348h-1.5c-0.69036,0 -1.25,-0.40886 -1.25,-0.91322c0,-0.30257 0.20142,-0.57078 0.51164,-0.73696l0.88338,-0.48403c1.0793,-1.03773 0.67807,-2.69957 0.37546,-3.91105c-0.32468,-1.29986 -0.69707,-2.57223 -1.06224,-3.83974c-2.35349,1.96888 -4.969,3.79372 -7.81577,5.0064c-4.10787,1.74989 -9.62614,2.2967 -14.26923,2.73648c-7.34567,0.53053 -14.2621,1.10606 -21.71185,0.67867c-1.94468,-0.11156 -6.99113,-0.43202 -5.53428,-2.95594c0.55051,-0.95373 4.08438,-1.67291 5.13473,-2.71507c2.712,-2.47551 4.76805,-5.42775 6.88607,-8.09062c1.71382,-2.1547 1.30366,-4.83115 2.15177,-7.12975c0.52178,-1.41416 1.53414,-2.73471 2.69887,-3.951c-0.00743,-0.66198 -0.0267,-1.99641 0.36757,-2.28446c0.43658,-0.31895 2.62923,-0.26747 3.38388,-0.26747c3.08334,0 6.16666,0 9.25,0c10.66666,0 21.33334,0 32,0c11.22124,0 22.44269,-0.01505 33.66389,0.00217c5.39465,-0.55065 10.36353,-1.09803 15.83611,-1.09803c1.66672,0 4.59282,-0.27121 5.80626,0.79017c0.76407,0.66832 -0.72111,2.6965 -0.81052,3.48597c-0.2917,2.57577 -1.21244,5.0926 -0.50182,7.68839c0.00508,3.0924 1.31878,6.50404 2.79868,9.38311c0.6592,1.28243 1.24715,3.09237 2.44266,4.20846c1.55739,1.45393 4.50598,2.27615 5.91233,3.76196c0.48251,0.50977 1.33529,1.13255 1.01275,1.7058c-0.32802,0.58299 -1.57466,0.51837 -2.38545,0.73387c-1.67105,0.44414 -3.43924,0.57043 -5.18627,0.75064c-8.52052,0.00837 -16.42281,-0.3863 -24.8124,-1.47361c-3.93685,-0.51022 -8.44844,-0.6035 -12.18056,-1.67814c-4.01395,-0.83855 -8.25095,-1.67408 -11.79314,-3.39388c-3.11366,-1.51174 -5.64781,-3.3672 -8.42691,-5.12736c-1.27831,2.95202 -3.83205,5.68985 -6.95191,7.14784z" fill="#ff0000" stroke="none" stroke-width="0.5" stroke-linecap="butt"/><path d="M274.03954,238.00378c0.18005,0.00225 0.3053,0.03356 0.3053,0.03356l0.69683,0.21268h1.25c0.69036,0 1.25,0.55964 1.25,1.25c0,0.53655 -0.33806,0.99415 -0.8128,1.17141l-1.21327,0.48531c-1.68457,0.712 -2.12828,0.95475 -3.23577,2.35881c-1.69453,2.25996 -3.0037,5.43274 -0.00728,7.47042c1.13952,0.77491 4.7147,2.38233 3.60686,4.62993c-0.58339,1.18359 -2.91198,0.54811 -3.8329,0.35985c-1.38914,-0.28397 -3.00179,-0.88815 -4.19297,-1.68217c-0.52146,-0.3476 -1.81732,-2.13914 -2.49749,-2.29521c-0.59398,-0.1363 -0.6768,1.01519 -1.05404,1.49381c-1.895,0.80882 -8.7922,2.62775 -9.5087,-0.92775c-0.14923,-0.74054 0.93191,-1.19017 1.42934,-1.75871c1.65689,-1.89375 2.31633,-3.3228 2.07509,-5.93251c-0.05509,-0.59593 0.07592,-1.38816 -0.40068,-1.75013c-1.63215,-1.23961 -7.40597,-1.21447 -7.09604,-4.27577c0.08686,-0.85799 1.29012,-1.14472 1.93518,-1.71708c3.28787,-1.29497 5.97807,-3.52749 8.80545,-5.63019c0.89367,-0.66461 2.20764,-1.85065 3.4924,-1.39893c1.02773,0.36135 1.00114,2.00096 1.83017,2.70772c2.20856,1.88282 4.97506,2.98752 7.06131,5.05732c0,0 0.04983,0.04983 0.11399,0.13765z" fill="#000000" stroke="none" stroke-width="0.5" stroke-linecap="butt"/><path d="M258.54168,236.25001l9,-0.25l-3,10z" fill="#ffffff" stroke="#ffffff" stroke-width="1.5" stroke-linecap="round"/><path d="M262.79168,238.00001c0,-0.69036 0.55964,-1.25 1.25,-1.25c0.69036,0 1.25,0.55964 1.25,1.25c0,0.69036 -0.55964,1.25 -1.25,1.25c-0.69036,0 -1.25,-0.55964 -1.25,-1.25z" fill="#000000" stroke="none" stroke-width="0.5" stroke-linecap="butt"/><path d="M263.04168,243.00001c0,-0.69036 0.55964,-1.25 1.25,-1.25c0.69036,0 1.25,0.55964 1.25,1.25c0,0.69036 -0.55964,1.25 -1.25,1.25c-0.69036,0 -1.25,-0.55964 -1.25,-1.25z" fill="#000000" stroke="none" stroke-width="0.5" stroke-linecap="butt"/><path d="M291.79168,164.25l-0.78576,1.6606c-0.88601,0.35073 -1.80517,0.62869 -2.73888,0.81893c-10.35974,1.67309 -22.24642,2.33675 -32.80639,1.01785c-2.16735,-0.01586 -4.00042,-0.65005 -6.09234,-1.00945c-3.40009,-0.58415 -7.10106,0.2158 -10.40324,0.75c-5.54859,0.8976 -11.33208,-0.68841 -16.7781,1.19794c-2.67405,0.89031 -5.34385,2.02348 -8.05846,2.76791c-2.78644,0.76413 -6.65347,1.53716 -9.08026,3.38146c-1.1853,0.03866 -1.78069,0.65762 -2.07975,1.26969c-1.59721,1.03967 -3.10588,2.10244 -4.78016,2.96785c-0.72493,-3.08881 -1.18833,-5.8158 -1.18833,-9.40611v-1c0,0 0,-0.11537 -0.02479,-0.29655c1.44154,-1.62089 3.09778,-3.16682 4.99749,-4.81443c3.97444,-3.447 7.2977,-6.57669 12.74528,-7.51304c5.9317,-2.24019 11.71192,-2.46165 17.94653,-3.03615c9.33766,-0.86044 18.49102,-1.25649 27.87719,-1.25649c10.88081,0 21.219,4.52201 30.19338,10.45994c0,0 0.58595,0.39063 0.58503,1.02529c0.47159,0.36212 0.47159,1.01477 0.47159,1.01477z" fill="#ff4848" stroke="none" stroke-width="0.5" stroke-linecap="butt"/><path d="M200.04691,195.36767l-0.68845,0.65256c0,0 0.35355,2.47487 2.82842,2.12132c0.59418,-0.08489 1.02533,-0.29204 1.33748,-0.55786c0.66824,0.31643 1.41129,0.54551 1.89668,0.83632c4.4401,2.66026 8.0103,5.07813 13.19148,6.12188c3.94774,1.31989 8.25525,1.45971 12.33189,1.96749c8.35132,1.04023 16.31686,1.49063 24.84727,1.49063c9.16038,0 18.66785,-0.73875 27.7055,0.76701c0,0 0.28418,0.04736 0.55693,0.23303c1.23757,0.00825 1.23757,1.24996 1.23757,1.24996l-0.25,1c-0.60487,0.79187 -1.3411,1.49095 -2.13759,2.08971c-0.86982,0.34793 -1.57435,1.06223 -2.46712,1.34615c-2.86743,0.91189 -7.377,0.06414 -10.39529,0.06414c-5.10628,0 -10.14779,0.25 -15.25,0.25c-4.16569,0 -8.05058,0.45406 -12.17232,0.74758c-7.48452,0.53299 -15.11106,-0.26422 -22.57767,-0.24758c-8.11298,0 -16.51017,0.63696 -24.58861,-0.00314c-3.71995,-0.29476 -6.11245,-2.22901 -6.16139,-5.99686c0,-3.40722 0.44734,-6.50688 0.75609,-9.87317c0.10879,-1.18617 0.18352,-2.36713 0.23785,-3.54453c0.73882,-1.00857 1.52838,-1.74819 2.46183,-2.37636c1.48995,0.57761 3.25335,0.61397 5.06184,0.39985c0.79661,0.33077 1.55492,0.75206 2.2376,1.26188z" fill="#ff4848" stroke="none" stroke-width="0.5" stroke-linecap="butt"/><path d="" fill="#ff4848" stroke="none" stroke-width="0.5" stroke-linecap="butt"/><path d="" fill="#ff4848" stroke="none" stroke-width="0.5" stroke-linecap="butt"/><path d="M217.83333,175.91667h-0.33333c-4.70289,0 -9.23219,1.06323 -13.75485,1.97573c-1.48213,0.29904 -5.00071,1.51764 -6.34774,0.4262c-1.21101,-0.98123 -0.81407,-3.6424 -0.81407,-4.98526c0.01599,-2.53647 1.99253,-9.38616 5.29797,-9.24908c0.89982,0.03732 1.63873,0.76411 2.38796,1.26382c0.17262,0.11513 0.32917,0.2532 0.47385,0.40406c0.29266,-1.25603 2.42607,-2.85238 2.84279,-2.9774c2.18559,-0.65573 5.27877,1.52036 7.35893,3.33419c2.07389,-2.53934 6.45184,-3.02994 8.79989,-1.35579c0.46305,0.33015 0.07255,-1.14037 0.2024,-1.69405c0.1388,-0.59186 0.14136,-1.26831 0.51153,-1.75053c1.80221,-2.34775 5.35983,-1.57315 7.9444,-1.53601c3.23961,1.25605 5.91483,2.87371 8.97696,4.32912c0.30645,0.14566 2.61954,-2.03834 2.6878,-2.08983c1.99611,-1.50565 3.08501,-1.90858 5.58492,-1.5858c2.23533,0.28861 4.88396,1.70287 6.54476,3.20332c0.22056,0.19926 0.05694,0.76366 0.34866,0.82075c0.25569,0.05004 -0.21088,-0.53394 -0.10946,-0.77393c0.51351,-1.21509 1.06108,-2.85178 2.3347,-3.19536c1.50824,-0.40688 2.60759,0.98654 3.45951,1.83846c1.02724,0.50351 1.93876,0.85363 2.75478,1.73641c0.16235,0.17563 -0.05338,0.64664 0.18099,0.69431c0.2105,0.04281 -0.00504,-0.4565 0.11612,-0.63388c0.2659,-0.38925 0.66192,-0.67148 1,-1c1.2531,-1.21766 1.20019,-1.49159 3.06448,-1.69008c1.20413,-0.12821 2.48941,0.52547 3.36995,1.35675c0.69764,0.65862 1.3342,2.69852 2.03123,2.03925c0.76256,-0.72124 1.07248,-2.08185 2.08455,-2.36002c0.69336,-0.19056 4.90356,1.15573 5.31893,1.76871c0.45817,0.67614 0.17649,1.62396 0.26474,2.43594c0,0 0,0.46344 -0.28218,0.82594c0.54962,2.04028 0.1338,3.92146 -0.42181,6.14389l-0.66213,0.91405c0,0 -0.88388,0.88388 -1.76777,0c-0.10062,-0.10062 -0.17833,-0.20124 -0.23704,-0.30055c-6.33801,0 -13.80619,0 -20.04574,0c-3.7026,0 -7.6544,0.38768 -11.28984,-0.33942c-3.63637,0.01828 -7.40915,-0.80676 -11.05743,-0.33661c-6.136,0.79074 -11.67034,1.94106 -17.92923,2.00645c-0.36928,0.33625 -0.89017,0.33625 -0.89017,0.33625z" fill="#ffffff" stroke="none" stroke-width="0.5" stroke-linecap="butt"/><path d="M201.16691,195.53501c0.5725,0.14925 1.13807,0.42205 1.55003,0.81574c0.17788,0.12267 0.35613,0.2556 0.53568,0.39925h0.58071c0.69036,0 1.25,0.55964 1.25,1.25c0,0.31826 -0.11894,0.60874 -0.3148,0.82942c-0.02888,0.22755 -0.13786,0.47434 -0.38465,0.72113c-0.88388,0.88388 -1.76777,0 -1.76777,0l-0.30055,-0.30055h-0.1489v-0.14986c-0.05212,-0.04882 -0.10637,-0.09507 -0.16241,-0.13905c-0.03132,0.00196 -0.06234,0.00335 -0.09312,0.00414l-0.06831,0.09809c-0.01592,-0.03183 -0.03274,-0.06458 -0.05044,-0.09798c-0.83212,-0.02051 -1.51573,-0.49372 -2.92696,-1.55174l-1.23357,-0.61678c-0.42281,-0.20043 -0.7152,-0.63114 -0.7152,-1.13014c0,-0.69036 0.55964,-1.25 1.25,-1.25c0.11436,0 0.22513,0.01536 0.33036,0.04412l1.30614,0.32653l-0.06668,0.26671l0.32253,0.16126l-0.01087,0.02173c0.38653,0.06694 0.75709,0.16508 1.11876,0.29797z" fill="#ff4848" stroke="none" stroke-width="0.5" stroke-linecap="butt"/><path d="M205.58333,199c0,-0.44444 0,-0.88889 0,-1.33333c0,0 0,-0.52131 0.33666,-0.89061c-0.00219,-0.03536 -0.00332,-0.07181 -0.00332,-0.10939c0,-1.25 1.25,-1.25 1.25,-1.25h1.33333c5.41832,0 10.80142,1.33821 16.15273,2.00937c3.76427,0.47211 7.79539,-0.20347 11.48377,0.69462c9.17419,2.29355 18.74885,1.91259 28.18289,1.97204c2.31929,0.60121 4.06161,3.42164 6.317,3.66476c1.93434,0.20851 4.72607,-1.13142 6.26025,1.25204c0.60916,0.94638 0.07006,2.65687 -0.18397,3.627c-1.49278,5.70082 -9.51735,4.94683 -14.21268,4.94683c-1.70671,-0.01076 -2.85517,-0.79333 -4.41797,-1.00287c-1.10673,-0.14839 -2.65527,1.0692 -3.62817,1.30276c-1.92747,0.46273 -5.55286,0.30362 -7.38754,-0.37754c-0.92472,-0.34331 -1.55053,-1.2847 -2.48042,-1.61376c-0.55362,-0.19591 -2.87799,1.467 -3.3469,1.62374c-2.92721,0.97845 -5.86758,1.12152 -8.58832,-0.26519c-1.42733,-2.78566 -1.79147,-0.32924 -4.45428,-0.33417c-2.23857,-0.00415 -2.88849,-1.23082 -4.6105,-2.02438c-0.4718,-0.21742 -0.82858,0.63082 -1.20202,0.99195c-1.43611,1.38879 -1.50715,1.80205 -3.83774,1.33268c-0.67482,-0.1359 -1.30813,-0.49531 -1.84708,-0.92354c-0.48532,-0.38563 -0.6753,-1.75378 -1.19873,-1.42171c-0.9369,0.59438 -2.30615,1.07614 -3.28287,0.54977c-0.75248,-0.40552 -1.41606,-1.40152 -1.69656,-2.38661c-2.81989,1.04541 -8.83411,0.07664 -7.84242,-3.51283c0.65777,-2.38085 3.34212,-2.69628 3.55901,-5.38324z" fill="#ffffff" stroke="none" stroke-width="0.5" stroke-linecap="butt"/></g></g></svg>