<svg version="1.1" xmlns="http://www.w3.org/2000/svg" xmlns:xlink="http://www.w3.org/1999/xlink" width="133.722" height="139.04361" viewBox="0,0,133.722,139.04361"><g transform="translate(-168.1932,-114.22421)"><g data-paper-data="{&quot;isPaintingLayer&quot;:true}" fill-rule="nonzero" stroke-linejoin="miter" stroke-miterlimit="10" stroke-dasharray="" stroke-dashoffset="0" style="mix-blend-mode: normal"><path d="M186.84255,242.75281c0,-10.27806 0,-66.36932 0,-91.55549c0,-7.49466 5.31706,-12.25274 10.557,-12.25274c11.64051,0 57.63336,0 78.84036,0c6.61263,0 10.81539,5.3852 10.81539,13.706c0,1.52156 0,78.98417 0,88.64896c0,5.94573 -3.80163,11.96829 -9.86551,11.96829c-20.88259,0 -68.59444,0 -80.26517,0c-5.03679,0 -10.08206,-5.19742 -10.08206,-10.51503z" fill="#ffae00" stroke="none" stroke-width="5" stroke-linecap="butt"/><path d="M186.66709,235.56459v-9.69639h99.87278v9.69639z" fill="#ffae00" stroke="none" stroke-width="5" stroke-linecap="butt"/><path d="M189.87894,230.20279c0,-1.23774 0,-4.03158 0,-4.03158h97.26695v6.96928c0,0 -79.81776,0 -91.81273,0c-2.92357,0 -5.45422,-1.88114 -5.45422,-2.9377z" fill="#ffae00" stroke="none" stroke-width="5" stroke-linecap="butt"/><path d="M231.45736,205.45242c0,-5.71717 0,-18.56382 0,-28.58081c0,-7.59532 5.87728,-13.56378 10.65725,-13.56378c9.8278,0 45.05111,0 45.05111,0v55.22395c0,0 -30.94544,0 -41.17575,0c-6.07771,0 -14.53262,-7.47943 -14.53262,-13.07936z" fill="#ffd797" stroke="none" stroke-width="5" stroke-linecap="butt"/><path d="M186.53387,194.26826c0,-7.63237 0,-24.78254 0,-38.15513c0,-10.13968 10.61673,-18.10753 19.25131,-18.10753c17.75297,0 81.38053,0 81.38053,0v73.72349c0,0 -55.89997,0 -74.38005,0c-10.97879,0 -26.25177,-9.98497 -26.25177,-17.46082z" fill="#ffdca3" stroke="none" stroke-width="5" stroke-linecap="butt"/><path d="M208.46691,223.16528c0,-6.10824 4.95171,-11.05995 11.05995,-11.05995c6.10824,0 11.05995,4.95171 11.05995,11.05995c0,6.10824 -4.95171,11.05995 -11.05995,11.05995c-6.10824,0 -11.05995,-4.95171 -11.05995,-11.05995z" fill="#ffd797" stroke="none" stroke-width="5" stroke-linecap="butt"/><path d="M211.49704,224.52883c0,-5.18782 4.20556,-9.39338 9.39338,-9.39338c5.18782,0 9.39338,4.20556 9.39338,9.39338c0,5.18782 -4.20556,9.39338 -9.39338,9.39338c-5.18782,0 -9.39338,-4.20556 -9.39338,-9.39338z" fill="#ffdca3" stroke="none" stroke-width="5" stroke-linecap="butt"/><path d="M273.25943,230.87372c0,-0.83674 0.67832,-1.51506 1.51506,-1.51506c0.83674,0 1.51506,0.67832 1.51506,1.51506c0,0.83674 -0.67832,1.51506 -1.51506,1.51506c-0.83674,0 -1.51506,-0.67832 -1.51506,-1.51506z" fill="#ffae00" stroke="none" stroke-width="5" stroke-linecap="butt"/><path d="M273.25943,238.14602c0,-0.83674 0.67832,-1.51506 1.51506,-1.51506c0.83674,0 1.51506,0.67832 1.51506,1.51506c0,0.83674 -0.67832,1.51506 -1.51506,1.51506c-0.83674,0 -1.51506,-0.67832 -1.51506,-1.51506z" fill="#ffae00" stroke="none" stroke-width="5" stroke-linecap="butt"/><path d="M260.37386,201.34863v-14.8476" fill="none" stroke="#000000" stroke-width="5" stroke-linecap="round"/><path d="M272.79737,201.34863v-14.8476" fill="none" stroke="#000000" stroke-width="5" stroke-linecap="round"/><path d="M298.84582,140.43614c-3.10352,11.89916 -16.13503,13.08839 -16.67977,14.06593c-0.68693,1.23274 14.13219,0.83405 17.72283,8.8254c1.06701,9.54844 -30.5907,9.35883 -43.90461,7.92929c-3.89099,-0.41778 -12.34824,12.35007 -33.18133,10.4924c4.28682,-5.2394 5.29542,-8.95954 2.45652,-9.48774c-3.08586,-0.57414 -13.38309,1.89941 -20.61343,5.61483c-7.83003,4.02361 -11.29213,11.52518 -21.73105,11.96192c-2.69854,-3.94235 -0.40496,-19.98683 2.24349,-29.85526c0.63668,-2.37229 -15.03074,0.37383 -14.96507,-1.90947c0.28959,-10.06718 15.40161,-7.00313 16.67119,-9.61471c-0.45884,-3.45083 -11.0181,-9.87027 -4.8301,-18.88517c1.38976,-3.2737 13.20339,12.54565 14.66524,11.20923c4.45228,-4.07026 10.58884,-8.5422 16.39256,-11.96436c14.53985,-8.57343 46.36561,-12.02738 47.43338,-7.06692c0.50076,2.3263 -18.71715,6.90969 -12.31103,6.9471c9.10246,-0.83051 22.58569,3.1967 33.97652,1.38241c20.50896,-8.12876 16.65467,10.3551 16.65467,10.3551z" data-paper-data="{&quot;index&quot;:null}" fill="#b27400" stroke="#7f4c00" stroke-width="4" stroke-linecap="butt"/><path d="M194.0408,151.40466c0,0 -5.30045,-30.34675 1.29332,-32.98528c7.87544,-3.15143 27.70363,23.93729 27.70363,23.93729z" fill="#ff8c00" stroke="#a75c00" stroke-width="3.5" stroke-linecap="butt"/><path d="M199.18865,147.67785c0,0 -2.7834,-19.94682 0.05916,-21.4471c3.37758,-1.36337 17.19808,16.58418 17.19808,16.58418z" fill="#ffe44c" stroke="none" stroke-width="0" stroke-linecap="butt"/><path d="M192.36949,154.44421c6.02331,-6.10318 25.54279,-10.75773 33.13251,-11.01568" fill="none" stroke="#724500" stroke-width="4" stroke-linecap="round"/><path d="M250.88429,140.1666c0,0 19.82818,-27.08871 27.70363,-23.93729c6.59377,2.63853 1.29334,32.9853 1.29334,32.9853z" fill="#ff8c00" stroke="#a75c00" stroke-width="3.5" stroke-linecap="butt"/><path d="M257.47614,140.62491c0,0 13.82052,-17.94756 17.19809,-16.58418c2.84255,1.50028 0.05915,21.44711 0.05915,21.44711z" fill="#ffe44c" stroke="none" stroke-width="0" stroke-linecap="butt"/><path d="M248.42003,141.23846c7.58974,0.25794 27.10921,4.91249 33.13251,11.01568" fill="none" stroke="#724500" stroke-width="4" stroke-linecap="round"/><path d="M273.42535,250.21217l-29.76056,-0.0973c0,0 0.55714,-1.80725 0.6878,-2.07867c3.76569,-7.82218 2.35855,-19.10681 2.35855,-19.10681l23.76751,0.18832c0,0 -1.55437,11.04241 2.40702,19.20556z" data-paper-data="{&quot;index&quot;:null}" fill="#ffbf34" stroke="#996317" stroke-width="4.5" stroke-linecap="butt"/><path d="M253.05011,245.3199c0,0 2.27193,-4.77076 2.46288,-8.83487c0.08654,-1.84205 -1.93011,-5.77505 -2.08927,-8.8981c-0.20342,-3.99178 2.69037,-7.69454 2.69037,-7.69454" fill="none" stroke="#ffffff" stroke-width="4.5" stroke-linecap="round"/><path d="M265.64364,235.677l-0.63303,-15.62596" fill="none" stroke="#ffffff" stroke-width="4.5" stroke-linecap="round"/></g></g></svg>