<svg version="1.1" xmlns="http://www.w3.org/2000/svg" xmlns:xlink="http://www.w3.org/1999/xlink" width="100.21275" height="114.32325" viewBox="0,0,100.21275,114.32325"><g transform="translate(-187.5676,-123.61371)"><g data-paper-data="{&quot;isPaintingLayer&quot;:true}" fill-rule="nonzero" stroke="none" stroke-linecap="butt" stroke-linejoin="miter" stroke-miterlimit="10" stroke-dasharray="" stroke-dashoffset="0" style="mix-blend-mode: normal"><path d="M187.5676,227.42195c0,-10.27806 0,-66.36932 0,-91.55549c0,-7.49466 5.31706,-12.25274 10.557,-12.25274c11.64051,0 57.63336,0 78.84036,0c6.61263,0 10.81539,5.3852 10.81539,13.706c0,1.52156 0,78.98417 0,88.64896c0,5.94573 -3.80163,11.96829 -9.86551,11.96829c-20.88259,0 -68.59444,0 -80.26517,0c-5.03679,0 -10.08206,-5.19742 -10.08206,-10.51503z" fill="#00c30d" stroke-width="5"/><g stroke-width="0"><g fill-opacity="0.59677" fill="#000000"><path d="M241.053,171.08358v-15.89449h14.17617v15.89449z"/><path d="M246.93092,171.08358v-9.30409h8.29824v9.30409z"/></g><g data-paper-data="{&quot;index&quot;:null}" fill-opacity="0.59677" fill="#000000"><path d="M272.84198,171.08358v-15.89449h14.17617v15.89449z"/><path d="M272.84198,171.08358v-9.30409h8.29825v9.30409z"/></g><path d="M255.00914,178.83699v-8.91642h18.22051v8.91642z" fill-opacity="0.66935" fill="#000000"/><path d="M251.13243,195.89449v-17.0575h25.58625v17.0575z" fill-opacity="0.66935" fill="#000000"/><path d="M255.00914,187.75341v-8.91642h18.22052v8.91642z" fill-opacity="0.66935" fill="#000000"/><path d="M251.5201,195.89449v-8.14108h24.81091v8.14108z" fill-opacity="0.66935" fill="#000000"/><path d="M251.13243,204.81091v-8.91642h9.69176v8.91642z" fill-opacity="0.66935" fill="#000000"/><path d="M267.02692,204.81091v-8.91642h9.69176v8.91642z" fill-opacity="0.66935" fill="#000000"/></g></g></g></svg>