<svg version="1.1" xmlns="http://www.w3.org/2000/svg" xmlns:xlink="http://www.w3.org/1999/xlink" width="162.78839" height="142.28561" viewBox="0,0,162.78839,142.28561"><g transform="translate(-159.08963,-110.98224)"><g data-paper-data="{&quot;isPaintingLayer&quot;:true}" fill-rule="nonzero" stroke-linejoin="miter" stroke-miterlimit="10" stroke-dasharray="" stroke-dashoffset="0" style="mix-blend-mode: normal"><path d="M286.11526,226.22891c0,-6.10824 4.95171,-11.05995 11.05995,-11.05995c6.10824,0 11.05995,4.95171 11.05995,11.05995c0,6.10824 -4.95171,11.05995 -11.05995,11.05995c-6.10824,0 -11.05995,-4.95171 -11.05995,-11.05995z" fill="#ffd797" stroke="none" stroke-width="5" stroke-linecap="butt"/><path d="M167.01992,202.27915c-5.61357,-3.88411 -8.15345,-9.28599 -7.91496,-16.28922c0.1339,-3.93182 -0.43507,-4.47419 3.67544,-6.67221c0.97889,-0.52344 2.17562,-0.44469 3.27063,-0.62676c3.67132,-0.61045 9.15368,-1.20978 12.80814,-0.40147c4.35979,0.96432 7.73288,4.86032 12.06277,6.10249c2.03151,-0.02147 4.74737,0.44015 6.69044,-0.30914c7.54694,-2.91027 15.57298,-5.65007 23.89501,-4.97382c2.92784,0.23792 5.29557,1.76114 8.09523,2.21848c2.85298,0.46605 4.4615,-1.06301 6.60342,2.5528c1.17655,1.98616 0.33349,7.87234 -0.17564,10.12144c-0.84889,3.74998 -1.37675,6.05119 -3.74363,9.11896c-2.5991,2.10048 -5.14363,4.5486 -8.29771,5.81929c-7.31969,2.9489 -16.05592,1.93603 -23.75712,1.93603c-4.47902,0 -9.47789,0.61005 -13.91269,-0.01873c-5.3783,-0.76255 -10.31991,-3.24608 -15.40917,-4.93793l-2.33262,-0.9284c0,0 -1.95972,-0.78389 -1.55754,-2.7118z" fill="#000000" stroke="none" stroke-width="0.5" stroke-linecap="butt"/><path d="M201.81943,242.75283c0,-10.27806 0,-66.36932 0,-91.55549c0,-7.49466 5.42318,-12.25274 10.76769,-12.25274c11.87283,0 58.78358,0 80.41382,0c6.7446,0 11.03124,5.3852 11.03124,13.706c0,1.52156 0,78.98417 0,88.64896c0,5.94573 -3.8775,11.96829 -10.0624,11.96829c-21.29936,0 -69.96342,0 -81.86707,0c-5.13731,0 -10.28327,-5.19742 -10.28327,-10.51503z" fill="#000000" stroke="none" stroke-width="5" stroke-linecap="butt"/><path d="M202.31063,235.56461v-9.69639h101.20611v9.69639z" fill="#000000" stroke="none" stroke-width="5" stroke-linecap="butt"/><path d="M201.19853,198.52453c0,-5.71717 0,-18.56382 0,-28.58081c0,-7.59532 5.87728,-13.56378 10.65725,-13.56378c9.8278,0 45.05111,0 45.05111,0v55.22395c0,0 -30.94544,0 -41.17575,0c-6.07771,0 -14.53262,-7.47943 -14.53262,-13.07936z" fill="#ffd797" stroke="none" stroke-width="5" stroke-linecap="butt"/><path d="M203.51075,194.26828c0,-7.63237 0,-24.78254 0,-38.15513c0,-10.13968 10.61673,-18.10753 19.25131,-18.10753c17.75297,0 81.38053,0 81.38053,0v73.72349c0,0 -55.89997,0 -74.38005,0c-10.97879,0 -26.25177,-9.98497 -26.25177,-17.46082z" fill="#ffdca3" stroke="none" stroke-width="5" stroke-linecap="butt"/><path d="M238.51449,226.554c0,-6.10824 4.95171,-11.05995 11.05995,-11.05995c6.10824,0 11.05995,4.95171 11.05995,11.05995c0,6.10824 -4.95171,11.05995 -11.05995,11.05995c-6.10824,0 -11.05995,-4.95171 -11.05995,-11.05995z" fill="#ffd797" stroke="none" stroke-width="5" stroke-linecap="butt"/><path d="M289.9333,224.51049c0,-0.83674 0.67832,-1.51506 1.51506,-1.51506c0.83674,0 1.51506,0.67832 1.51506,1.51506c0,0.83674 -0.67832,1.51506 -1.51506,1.51506c-0.83674,0 -1.51506,-0.67832 -1.51506,-1.51506z" fill="#000dff" stroke="none" stroke-width="5" stroke-linecap="butt"/><path d="M277.35074,201.34865v-14.8476" fill="none" stroke="#000000" stroke-width="5" stroke-linecap="round"/><path d="M289.77425,186.50105v14.8476" fill="#0090ff" stroke="#000000" stroke-width="5" stroke-linecap="round"/><path d="M281.82039,234.27299c-2.42536,0.60634 -3.03169,-1.81902 -3.03169,-1.81902l-0.7718,-3.16442c-0.01753,-2.96547 -0.01873,-5.93056 -0.01873,-8.89607c0,0 0,-2.5 2.5,-2.5c2.5,0 2.5,2.5 2.5,2.5c0,2.76187 0.00149,5.52335 -0.01873,8.28516l0.65997,2.56266c0,0 0.60634,2.42535 -1.81902,3.03169z" fill="#000000" stroke="#ffffff" stroke-width="0.5" stroke-linecap="butt"/><path d="M289.80466,233.63175c-2.5,0 -2.5,-2.5 -2.5,-2.5v-0.71588c0.01574,-3.26322 0.73942,-6.09192 0.71588,-9.3065c0,0 0,-2.5 2.5,-2.5c2.5,0 2.5,2.5 2.5,2.5c-0.01917,3.24296 -0.73446,6.05853 -0.71588,9.3065v0.71588c0,0 0,2.5 -2.5,2.5z" fill="#000000" stroke="#ffffff" stroke-width="0.5" stroke-linecap="butt"/><path d="M292.3146,160.84585c4.14213,0 7.5,3.35787 7.5,7.5c0,4.14213 -3.35787,7.5 -7.5,7.5c-1.64202,0 -3.16077,-0.52768 -4.39597,-1.42271c-1.34306,2.02443 -3.64278,3.3591 -6.25422,3.3591c-2.2285,0 -4.22998,-0.97194 -5.60368,-2.51504c-1.26401,0.97017 -2.84587,1.54684 -4.56241,1.54684c-2.58354,0 -4.86198,-1.30631 -6.21084,-3.29445c-1.31739,1.14736 -3.03928,1.84215 -4.92345,1.84215c-2.45387,0 -4.6325,-1.17847 -6.00079,-3.00033c-1.34176,1.2602 -3.14748,2.03213 -5.1335,2.03213c-2.70266,0 -5.07144,-1.42955 -6.39143,-3.57374c-1.35077,1.31294 -3.19445,2.12145 -5.22697,2.12145c-2.3288,0 -4.40971,-1.06141 -5.78534,-2.72685c-1.36068,1.38427 -3.25457,2.24275 -5.34896,2.24275c-4.14213,0 -7.5,-3.35787 -7.5,-7.5c0,-4.14213 3.35787,-7.5 7.5,-7.5c2.3288,0 4.40971,1.06141 5.78534,2.72684c1.36068,-1.38427 3.25457,-2.24274 5.34896,-2.24274c2.70266,0 5.07144,1.42954 6.39142,3.57374c1.35077,-1.31294 3.19446,-2.12144 5.22697,-2.12144c2.45388,0 4.6325,1.17848 6.0008,3.00034c1.34175,-1.2602 3.14747,-2.03214 5.13349,-2.03214c2.58354,0 4.86198,1.30631 6.21084,3.29445c1.31739,-1.14736 3.03928,-1.84215 4.92345,-1.84215c2.2285,0 4.22999,0.97193 5.60369,2.51503c1.26401,-0.97017 2.84586,-1.54683 4.5624,-1.54683c1.64202,0 3.16078,0.52768 4.39598,1.42271c1.34306,-2.02443 3.64277,-3.3591 6.25421,-3.3591z" fill="#800000" stroke="none" stroke-width="0.5" stroke-linecap="butt"/><path d="M222.30411,170.10663c-0.67677,5.78958 -5.71012,11.86989 -13.36689,10.76056c-6.76794,-0.98056 -13.06252,-3.4207 -13.51466,-10.02303c-0.05315,-0.77617 -0.78265,-2.21438 -0.61466,-2.96109c0.06042,-0.26857 0.14183,-0.53215 0.23863,-0.79205c-0.59153,-1.25523 -0.91757,-2.62902 -0.91757,-4.06887c0,-1.81245 0.51661,-3.52023 1.42909,-5.01862c-0.40332,-7.20128 2.58281,-15.83649 4.20477,-21.46385c0.79783,-2.76805 5.03995,-6.77965 9.01383,-7.54517c2.54674,-3.3421 5.88981,-6.22689 9.33226,-7.89315c4.48142,-2.16916 12.42206,-2.68008 17.7211,-3.42595c1.4905,-0.2098 3.82502,-0.45347 6.40659,-0.5c3.31587,-1.98305 7.57295,-3.16734 11.27536,-4.0821c12.30376,-3.03991 36.45273,-4.51472 42.48569,7.91318h3.22881c1.71008,-0.3767 3.58104,0.73941 5.34597,0.82004c14.89363,0.6805 23.73226,19.53923 11.63112,28.38448c-0.95419,0.69746 -2.00332,1.37908 -3.12842,2.03052c1.5091,1.22444 2.76582,2.75192 3.67608,4.65802c0.81489,1.70639 1.59991,4.07981 1.23134,6.06003c-1.82169,9.7874 -8.86932,11.09538 -19.9179,10.14645c-4.87042,-0.4183 -9.82644,-0.67332 -14.31111,-1.67577c-0.61549,0.47992 -1.36982,0.94855 -2.31006,1.42411c-5.36478,2.71342 -10.88938,0.6174 -16.35845,0.09487c-4.05258,-0.3872 -7.99833,-1.45448 -12.037,-2.08367c-2.86428,-0.44623 -6.1983,-0.80232 -9.1232,-0.83347c-5.31156,-0.05655 -14.27417,-0.49426 -21.36824,-2.82253c-0.05909,1.03766 -0.1493,2.01453 -0.25247,2.89707z" fill="#800000" stroke="none" stroke-width="0.5" stroke-linecap="butt"/><path d="M285.28656,125.27868c-2.82817,0.49888 -5.54868,1.2129 -8.6047,1.24875c0,0 -6.45111,0 -6.45111,-5.59549c0,-5.59549 6.45111,-5.59549 6.45111,-5.59549c2.45984,0.04858 4.86987,-0.6413 7.26751,-1.12054c3.66619,-0.7328 7.07043,-0.39497 10.64335,-1.44063l2.13896,-0.74211c0.7773,-0.28795 1.63305,-0.44734 2.53171,-0.44734c3.56285,0 6.45111,2.50519 6.45111,5.59549c0,2.07394 -1.30084,3.88435 -3.23342,4.85086l-1.87335,0.97493c-1.05483,1.49043 -3.04503,2.3076 -4.47005,3.54838l-5.04208,1.63888c0,0 -4.17738,0 -5.80905,-2.91569z" fill="#800000" stroke="none" stroke-width="0.5" stroke-linecap="butt"/><path d="M235.08712,123.84909c0,2.71297 -1.51652,4.11056 -3.07899,4.83053c1.65258,0.59997 5.04606,2.36914 3.8473,6.52821c-1.56462,5.42842 -7.82312,4.07132 -7.82312,4.07132c-3.36517,-0.74016 -6.99958,-1.5112 -10.08693,-2.9767c-1.99209,-0.9456 -3.57835,-2.44406 -5.52975,-3.45147c-0.66169,-0.3416 -1.60321,-0.25234 -2.15758,-0.71587c-2.32724,-1.94594 -6.40455,-3.57353 -6.32449,-6.37647c0.08805,-3.08276 3.74054,-5.49649 6.71197,-7.1896c1.80244,-1.02702 4.30455,-0.24267 6.45949,-0.31543c3.51398,-0.11865 7.05289,0 10.57008,0h0.96092c0,0 6.45111,0 6.45111,5.59549z" fill="#800000" stroke="none" stroke-width="0.5" stroke-linecap="butt"/></g></g></svg>