<svg version="1.1" xmlns="http://www.w3.org/2000/svg" xmlns:xlink="http://www.w3.org/1999/xlink" width="136.18289" height="129.74784" viewBox="0,0,136.18289,129.74784"><g transform="translate(-159.49697,-118.29545)"><g data-paper-data="{&quot;isPaintingLayer&quot;:true}" fill-rule="nonzero" stroke-linejoin="miter" stroke-miterlimit="10" stroke-dasharray="" stroke-dashoffset="0" style="mix-blend-mode: normal"><path d="M159.78905,211.41205l1.65712,-8.76629l24.50364,4.63199l-1.65712,8.76629z" fill="#e3e3e3" stroke="#bababa" stroke-width="0.5" stroke-linecap="butt"/><path d="M190.05202,212.51123c-1.17645,6.2235 -3.89086,10.93582 -6.06283,10.52524c-2.17197,-0.41057 -2.97898,-5.78856 -1.80254,-12.01206c1.17645,-6.2235 3.89086,-10.93581 6.06282,-10.52524c2.17197,0.41057 2.97899,5.78855 1.80254,12.01205z" fill="#999999" stroke="none" stroke-width="0" stroke-linecap="butt"/><path d="M199.52241,210.47175c6.38088,0.40038 12.37036,0.25084 18.75221,1.45722c12.36946,2.33824 24.8552,4.69366 37.22466,7.03189c9.00592,1.70241 18.00871,3.81523 26.94896,5.52542c1.38608,0.26515 7.56606,0.67368 7.24211,2.08458c-0.90842,4.60511 -4.57437,7.62256 -9.62658,7.30774c-7.74305,-0.48251 -15.98021,-3.02507 -23.61333,-4.46798c-7.00464,-1.32411 -13.96241,-2.06211 -21.03633,-2.67046c-6.89951,-0.59335 -14.04075,-2.70615 -20.85575,-3.99441c-6.1918,-1.17045 -12.28424,-2.51208 -18.42004,-3.90552c-2.1972,-0.49899 -4.22126,-1.22095 -6.43511,-1.6369c-0.76064,-0.14292 -1.74917,0.07315 -2.26696,-0.50206c-0.38845,-0.43152 0.09138,-1.82354 0.14664,-2.09494c0.41543,-2.04011 0.77811,-4.1005 1.16228,-6.147c3.53064,0.73856 7.23367,1.79005 10.77723,2.0124z" data-paper-data="{&quot;noHover&quot;:false,&quot;origItem&quot;:[&quot;Path&quot;,{&quot;applyMatrix&quot;:true,&quot;segments&quot;:[[[250.0835,179.09279],[2.92848,0.05677],[0.00214,1.69084]],[[250.08333,184.16667],[0.02376,-1.69046],[-0.00316,0.22488]],[[250.28216,185.85828],[-0.37503,-0.28572],[0.49992,0.38086]],[[252.16667,185.91667],[-0.62847,0.00069],[1.82916,-0.00202]],[[257.54797,186.25092],[-1.8284,-0.06674],[5.1059,0.18637]],[[272.83333,186.58333],[-5.11695,0],[5.63197,0]],[[290.04481,186.58929],[-5.59459,0.56721],[5.73601,-0.58155]],[[307.16667,185.58333],[-5.78869,0],[6.30807,0]],[[326.6806,185.5927],[-6.25093,0.78288],[4.07862,-0.51082]],[[333.25937,178.3194],[-0.03024,3.81142],[0.04568,-1.17461]],[[327.16667,177.75],[1.14594,0.0025],[-7.39134,-0.01612]],[[304.83333,177.41667],[7.44256,0],[-10.22222,0]],[[274.16667,177.41667],[10.22222,0],[-5.27401,0]],[[258.98606,179.07397],[5.15167,-0.64296],[-2.86093,0.35706]]],&quot;closed&quot;:true}]}" fill="#999999" stroke="none" stroke-width="0.5" stroke-linecap="butt"/><path d="M279.75394,222.94025c2.08621,0.39436 8.09054,0.52869 9.50563,2.41798c0.0827,0.11041 0.15755,0.2251 0.22586,0.34334l0.05181,-0.03534l0.98132,1.4388c0.22198,0.32547 0.3198,0.73561 0.24085,1.15329c-0.07092,0.37517 -0.27238,0.6926 -0.54851,0.9142c0.16692,0.2633 0.25837,0.62068 0.16728,1.10256c-0.28592,1.51257 -1.7985,1.22664 -1.7985,1.22664l-0.40335,-0.07624c-9.58973,-1.81278 -19.29654,-2.86272 -28.79049,-4.60681c-4.4535,-0.84186 -8.9068,-0.88556 -13.38893,-1.28527c-8.62575,-0.76925 -17.44487,-3.29003 -25.96497,-4.90061c-10.61199,-2.00602 -21.22458,-4.46777 -31.78856,-6.42684c0,0 -1.51257,-0.28593 -1.22664,-1.7985c0.17091,-0.90415 0.78014,-1.16567 1.24259,-1.22977c-0.34699,-0.22132 -1.10018,-0.85431 -0.59434,-1.952c0.47324,-1.02699 1.35327,-0.95194 1.78707,-0.83974c0.00425,-0.03669 0.00985,-0.0735 0.01682,-0.11037c0.15791,-0.83537 0.96312,-1.38456 1.7985,-1.22665l2.42011,0.45748c7.63833,1.4439 15.64011,3.67676 23.39647,3.5948c4.43189,0.81861 8.86098,1.65297 13.28914,2.49237c1.4433,0.12626 2.99862,0.53538 3.85264,0.73137c0.5168,0.09821 1.0336,0.19645 1.5504,0.29471c1.91329,0.34095 3.9597,0.67546 5.95759,1.13207c1.24503,0.23625 2.49012,0.47221 3.73529,0.70759c0.25543,0.04828 0.53845,0.08923 0.84111,0.12685c0.77852,-0.50855 2.16235,-0.28815 3.3449,-0.17108c2.0451,0.20247 2.13941,0.39972 3.86928,1.18484l1.8898,0.76408c0.28443,0.10854 0.52319,0.29669 0.69482,0.53304c7.7959,1.43509 15.79707,2.55975 23.645,4.04326z" fill="#000000" stroke="none" stroke-width="0.5" stroke-linecap="butt"/><path d="M187.94217,204.74927c0.51615,0.09757 0.82288,0.33798 1.00301,0.61238c3.53363,0.71854 7.27847,1.83318 10.83436,2.05477c6.49933,0.405 12.62109,0.28524 19.12238,1.5142c12.36946,2.33824 24.73892,4.67647 37.10839,7.0147c8.99885,1.70108 18.00929,3.84424 26.94834,5.51188c2.26183,0.42196 7.94451,0.54509 9.37994,2.64973c0.50348,0.7382 0.24188,1.77067 0.36281,2.656c-0.95196,5.21579 -3.65865,8.41791 -9.02449,9.92641c-2.78297,0.78238 -5.98486,-0.14375 -8.69566,-0.65618c-6.38641,-1.20724 -12.77282,-2.41448 -19.15922,-3.62172c-6.9105,-1.30631 -13.67559,-2.03237 -20.65088,-2.65785c-7.00979,-0.62859 -14.19872,-2.67657 -21.12312,-3.98551c-7.75968,-1.46683 -15.43538,-2.94804 -22.98622,-5.18831c-1.76151,-0.52263 -4.59803,-0.24491 -5.90324,-1.87064c-2.07371,-2.58292 0.12942,-8.20649 0.68014,-11.11983l0.30498,-1.6134c0,0 0.28593,-1.51257 1.7985,-1.22665z" fill="#4d4d4d" stroke="none" stroke-width="0.25" stroke-linecap="butt"/><path d="M160.83605,207.65256l4.22957,-3.51593l3.47175,3.47071l-3.35804,3.8683z" fill="none" stroke="#b9b9b9" stroke-width="1.5" stroke-linecap="round"/><path d="M169.25206,206.80429l3.09401,-1.47905l2.82555,3.91144l-4.19532,3.33477l-2.32627,-4.56756" fill="none" stroke="#b9b9b9" stroke-width="1.5" stroke-linecap="round"/><path d="M185.34982,237.52827c0,-10.27806 0,-66.36932 0,-91.55549c0,-7.49466 5.31706,-12.25274 10.557,-12.25274c11.64051,0 57.63336,0 78.84036,0c6.61263,0 10.81539,5.3852 10.81539,13.706c0,1.52156 0,78.98417 0,88.64896c0,5.94573 -3.80163,11.96829 -9.86551,11.96829c-20.88259,0 -68.59444,0 -80.26517,0c-5.03679,0 -10.08206,-5.19742 -10.08206,-10.51503z" fill="#009cff" stroke="none" stroke-width="5" stroke-linecap="butt"/><path d="M185.17436,230.34005v-9.69639h99.87278v9.69639z" fill="#009cff" stroke="none" stroke-width="5" stroke-linecap="butt"/><path d="M188.38621,224.97825c0,-1.23774 0,-4.03158 0,-4.03158h97.26695v6.96928c0,0 -79.81776,0 -91.81273,0c-2.92357,0 -5.45422,-1.88114 -5.45422,-2.9377z" fill="#009cff" stroke="none" stroke-width="5" stroke-linecap="butt"/><path d="M229.96463,200.22788c0,-5.71717 0,-18.56382 0,-28.58081c0,-7.59532 5.87728,-13.56378 10.65725,-13.56378c9.8278,0 45.05111,0 45.05111,0v55.22395c0,0 -30.94544,0 -41.17575,0c-6.07771,0 -14.53262,-7.47943 -14.53262,-13.07936z" fill="#f9f9f9" stroke="none" stroke-width="5" stroke-linecap="butt"/><path d="M185.04114,194.45485c0,-8.36642 0,-27.16603 0,-41.82474c0,-11.11487 10.61673,-19.84904 19.25131,-19.84904c17.75297,0 81.38053,0 81.38053,0v80.81393c0,0 -55.89997,0 -74.38005,0c-10.97879,0 -26.25177,-10.94529 -26.25177,-19.14013z" fill="#ffffff" stroke="none" stroke-width="5" stroke-linecap="butt"/><path d="M206.97418,217.94074c0,-6.10824 4.95171,-11.05995 11.05995,-11.05995c6.10824,0 11.05995,4.95171 11.05995,11.05995c0,6.10824 -4.95171,11.05995 -11.05995,11.05995c-6.10824,0 -11.05995,-4.95171 -11.05995,-11.05995z" fill="#e3e3e3" stroke="none" stroke-width="5" stroke-linecap="butt"/><path d="M210.00431,219.30429c0,-5.18782 4.20556,-9.39338 9.39338,-9.39338c5.18782,0 9.39338,4.20556 9.39338,9.39338c0,5.18782 -4.20556,9.39338 -9.39338,9.39338c-5.18782,0 -9.39338,-4.20556 -9.39338,-9.39338z" fill="#ffffff" stroke="none" stroke-width="5" stroke-linecap="butt"/><path d="M271.7667,225.64918c0,-0.83674 0.67832,-1.51506 1.51506,-1.51506c0.83674,0 1.51506,0.67832 1.51506,1.51506c0,0.83674 -0.67832,1.51506 -1.51506,1.51506c-0.83674,0 -1.51506,-0.67832 -1.51506,-1.51506z" fill="#009cff" stroke="none" stroke-width="5" stroke-linecap="butt"/><path d="M273.25943,238.14602c0,-0.83674 0.67832,-1.51506 1.51506,-1.51506c0.83674,0 1.51506,0.67832 1.51506,1.51506c0,0.83674 -0.67832,1.51506 -1.51506,1.51506c-0.83674,0 -1.51506,-0.67832 -1.51506,-1.51506z" fill="#009cff" stroke="none" stroke-width="5" stroke-linecap="butt"/><path d="M259.25431,190.23283v14.8476" fill="none" stroke="#000000" stroke-width="5" stroke-linecap="round"/><path d="M270.93146,205.45361v-14.8476" fill="none" stroke="#000000" stroke-width="5" stroke-linecap="round"/><path d="M214.82166,161.43488c-1.06442,0.43788 -2.1272,0.55215 -3.09698,1.27812c-0.80987,0.60627 -1.22821,1.88409 -2.00037,2.57072c-2.76388,2.45774 -6.7252,4.69646 -9.72438,6.62902c-1.83598,1.18304 -2.39728,0.54423 -4.44621,0.73427c-2.15671,0.20004 -4.91544,1.19251 -7.08582,0.56993c-2.7643,-0.79295 -5.35606,-5.06744 -6.56092,-8.15147c-1.26166,-3.22941 -0.84523,-6.30609 -0.84523,-9.83127c0,-7.91874 -1.27049,-18.42397 3.37544,-24.77463c1.36468,-1.86542 2.44554,-1.31364 4.32515,-2.19696c3.43872,-1.61603 5.71158,-1.43901 9.38814,-1.77983c7.20549,-0.66795 14.21849,-1.49023 21.48119,-1.49023c13.18572,0 26.43797,0.00782 39.6237,0.00782c7.38125,0 15.8338,-1.33742 22.99792,1.03945c1.06008,1.49858 1.70872,3.43442 2.64133,5.07395c1.87185,3.29074 5.23297,6.67973 5.88407,10.98336c0.34672,2.29181 0.05366,4.68376 -0.0457,7.01712c-0.31576,7.41575 -2.63482,21.0511 -8.59442,24.2971c-4.08702,2.22606 -8.69295,1.69008 -12.99491,1.70475c-2.43014,-0.46228 -5.13796,-0.93746 -7.41797,-2.2083c-3.54459,-1.9757 -6.07116,-5.67174 -9.83571,-7.45517c-0.977,-0.46285 -6.70774,-2.39489 -6.87293,-2.2537c-1.4433,1.2336 -1.25042,4.25965 -1.68732,6.45436c-0.65484,3.28949 -1.52538,7.74414 -1.85164,11.10874c-0.06189,0.63826 0.45985,1.37228 0.19566,1.91312c-0.19475,0.39868 -0.71786,-0.09749 -1.07711,-0.11317c-0.7548,-0.03294 -1.51529,-0.02589 -2.2705,-0.03083c-4.47791,-0.02928 -8.9846,-0.00672 -13.46257,-0.00672c-2.80938,0.82968 -1.72917,-1.87702 -2.00871,-4.55038c-0.50986,-4.876 -0.83959,-9.8461 -2.4949,-14.33894l0.26408,-0.00159c0,0 -0.00325,-3.31022 -2.50325,-3.31022c-0.958,0 -1.45281,0.44784 -1.81728,1.04544c-0.72658,-0.2187 -1.48184,0.06615 -1.48184,0.06615z" data-paper-data="{&quot;noHover&quot;:false,&quot;origItem&quot;:[&quot;Path&quot;,{&quot;applyMatrix&quot;:true,&quot;segments&quot;:[[[437.73565,311.60455],[-1.45316,-0.33147],[0.72893,-0.90572]],[[441.56236,309.96462],[-1.91599,0],[5,0]],[446.56236,314.96462],[[446.03449,314.96764],[0,0],[3.31062,6.80943]],[[450.9922,336.66197],[-1.01972,-7.39015],[0.55908,4.05179]],[[454.99687,343.5509],[-5.61877,1.25747],[8.95594,0]],[[481.86589,343.5509],[-8.95582,-0.04437],[1.51041,0.00748]],[[486.39691,343.59923],[-1.5096,-0.04992],[0.71851,0.02376]],[[488.54669,343.7718],[-0.38949,0.60424],[0.52838,-0.8197]],[[488.15457,340.87248],[-0.12378,0.96735],[0.65251,-5.09944]],[[491.83173,324.04715],[-1.30969,4.9856],[0.87381,-3.32633]],[[495.18019,314.28806],[-2.88659,1.86966],[0.33038,-0.21399]],[[508.91714,317.71713],[-1.95401,-0.7015],[7.52908,2.70299]],[[528.5888,329.01588],[-7.08918,-2.99441],[4.56002,1.92611]],[[543.42199,332.36805],[-4.86029,-0.70064],[8.60393,-0.02222]],[[569.40652,329.79746],[-8.17404,3.37386],[11.9192,-4.91969]],[[586.59071,293.00945],[-0.63153,11.23943],[0.19871,-3.53648]],[[586.68316,282.38368],[0.69345,3.47351],[-1.30219,-6.52266]],[[574.91937,265.75428],[3.74369,4.9875],[-1.86521,-2.48491]],[[569.64001,258.07232],[2.12016,2.27128],[-14.32823,-3.60242]],[[523.66214,256.52388],[14.76249,0],[-26.37145,0]],[[444.5478,256.52388],[26.37145,0],[-14.52539,0]],[[401.61327,258.75039],[14.41098,-1.01236],[-7.35311,0.51655]],[[382.84179,261.43784],[6.87744,-2.44928],[-3.75922,1.33878]],[[374.19353,264.76212],[2.72935,-2.82726],[-9.29186,9.62517]],[[367.44802,302.27648],[0,-12.00177],[0,5.34282]],[[369.13725,317.16328],[-2.52332,-4.89455],[2.40973,4.67422]],[[382.25583,329.50378],[-5.5286,-1.20181],[4.34076,0.9436]],[[396.42621,328.63624],[-4.31343,0.30318],[4.09785,-0.28803]],[[405.13106,327.5927],[-3.67197,1.79304],[5.99836,-2.92902]],[[424.57834,317.54154],[-5.52776,3.72499],[1.54431,-1.04066]],[[428.57766,313.64072],[-1.61974,0.91887],[1.93955,-1.10029]],[[434.96422,311.64973],[-2.12885,0.66366],[0,0]]],&quot;closed&quot;:true}]}" fill="#c8c8c8" stroke="none" stroke-width="0.5" stroke-linecap="butt"/><path d="M180.96309,165.08176c0,-3.29899 2.5,-3.29899 2.5,-3.29899h0.37318c1.68244,0 3.36488,0.00257 5.04731,0.0083c4.19978,-0.80617 8.5279,-1.41768 12.61924,-2.86016c4.02669,-1.41969 8.48891,-3.04021 12.71961,-1.93914c1.5834,-0.27738 3.42008,-0.46883 4.42436,0.06356c3.75028,1.98811 4.38842,5.54582 4.67711,9.3304c2.26714,4.43482 4.35292,8.7261 9.39906,8.69311c1.8545,-0.01212 3.80289,1.24899 4.44814,-1.04039c1.15904,-5.58834 0.36498,-8.12895 5.22751,-9.63603c1.32058,-1.59941 2.99785,-2.67124 4.90483,-3.08022c6.93613,-1.48757 12.29577,6.21795 18.51043,8.44396c4.38962,0.31352 9.48407,0.23709 13.62806,-0.96662c1.4463,-0.42011 2.93191,-0.96257 4.1622,-2.05034c0.66654,-0.58932 0.76387,-2.00178 1.46229,-2.52285c0.06697,-0.04997 0.13434,-0.09878 0.20209,-0.14652l-0.03479,-0.05509l2.22648,-2.44838c0.43538,-0.48569 0.99831,-0.7785 1.61307,-0.7785c1.38071,0 2.5,1.47701 2.5,3.29899c0,0.55409 -0.10352,1.07627 -0.28642,1.53471l-1.09705,2.89532l-0.0583,-0.03846l-0.0155,0.21896c-1.28375,2.52803 -2.73025,5.9474 -4.93737,7.30138c-0.52374,0.32129 -5.00463,0.24623 -6.00402,0.24283c-4.23014,0.79744 -9.62182,1.36858 -13.92054,0.12252c-1.34172,-0.10914 -2.66401,-0.32285 -3.94439,-0.67922c-3.42044,-0.95202 -6.81588,-3.31358 -10.27443,-3.89893c-1.98962,-0.33674 -4.05822,-0.71165 -6.08808,-0.89242c-0.50755,2.59677 0.28423,6.24471 -0.54401,8.59733c-2.45996,6.98753 -7.37347,5.13061 -12.05338,5.13061c-0.79787,0 -5.83226,0.02159 -6.1721,-0.08825c-3.70584,-1.19772 -6.04672,-5.63125 -7.0573,-10.19917c-0.27558,-1.24565 -0.15564,-3.29422 -0.19043,-5.30789c-1.26929,-2.49188 -2.75533,-4.61863 -5.04766,-5.38712c-0.3212,0.1102 -0.64123,0.2092 -0.95755,0.26648c-0.00779,0.00141 -0.01558,0.00283 -0.02336,0.00426c0.02836,3.25668 -2.95154,5.34637 -4.5078,6.83169c-5.02659,4.79746 -8.3259,6.00085 -14.48144,6.00085h-2.61227c-1.38071,0 -2.5,-1.47701 -2.5,-3.29899c0,-0.09326 0.00293,-0.1856 0.00868,-0.2769c-1.02668,0.08495 -2.06155,0.12875 -3.10639,0.12875c0,0 -2.5,0 -2.5,-3.29899c0,-0.66794 0.10249,-1.20064 0.26595,-1.62549h-0.00504c0,0 -2.5,0 -2.5,-3.29899z" fill="#9c9c9c" stroke="none" stroke-width="0.5" stroke-linecap="butt"/><path d="M252.25587,170.11815c-2.68561,-0.1247 -5.3155,-0.20294 -7.80895,-0.06478c-1.84164,0.10204 -3.65688,0.35363 -5.46038,0.5886c-0.26934,0.0858 -0.53818,0.17287 -0.8044,0.26548c-0.04152,0.28481 -0.13106,0.55404 -0.26014,0.79921l-0.80971,1.61942c0.66158,0.44979 1.09613,1.2086 1.09613,2.06891c0,1.38071 -1.11929,2.5 -2.5,2.5c-0.07984,0 -0.15881,-0.00374 -0.23674,-0.01106l-4.43311,-0.36943c-2.32964,0.2823 -4.6122,-0.02923 -6.42743,-1.84447c-0.91189,-0.91189 -1.41984,-2.19561 -1.7849,-3.43247c-0.23986,-0.81267 -0.06159,-1.92583 -0.33391,-2.69647c-0.06777,-0.03757 -0.13438,-0.07476 -0.19976,-0.11153c-0.74089,-0.41663 -1.55718,-0.76781 -2.32032,-1.17988c-0.03438,-0.01159 -0.06873,-0.02328 -0.10307,-0.03508c-0.92978,-0.14128 -1.89286,-0.20206 -2.77456,-0.49583c-4.49922,-1.49911 -8.46692,-3.30932 -12.69313,-4.291c-2.54311,0.58713 -5.21268,1.12766 -7.50387,0.65952h-4.10499v0c-1.18,0 -2.16906,-0.81752 -2.43168,-1.91707c-2.41372,0.678 -4.85605,1.16442 -7.64421,1.17071c0,0 -2.5,0 -2.5,-2.5c0,-2.5 2.5,-2.5 2.5,-2.5c4.58203,0.01183 8.06685,-1.56576 12.31591,-2.87173c3.90493,-1.2002 7.97514,-1.75797 11.96727,-2.32864c1.9635,-0.28068 3.94192,-1.04474 5.90312,-0.74841c1.40239,0.2119 2.70612,0.88553 4.10499,1.11954c2.15278,0.36014 4.70899,0.32195 6.28728,1.82966c2.17918,2.08171 1.30165,3.25338 2.36726,5.56979c0.35867,0.77967 0.82192,1.50425 1.28781,2.22775c1.66363,-0.67069 3.30651,-1.54296 5.05266,-1.78835c3.068,-0.43115 6.43191,-0.95701 9.55174,-1.1406c0.38455,-0.02263 0.76253,-0.02987 1.13484,-0.02367c4.45834,-1.62225 9.22008,-2.58123 13.8905,-1.82117c2.6784,0.43588 4.30877,1.95242 6.13693,3.35839c3.89854,0.10157 8.12174,0.44327 11.80312,-0.65657c3.20733,-0.95822 6.60829,-5.68261 10.4754,-4.18642c0.23402,0.09054 0.45717,0.19963 0.67163,0.32354l0.04595,-0.09189l2.19064,1.09532c0.03105,0.01472 0.06174,0.03006 0.09207,0.046l0.78988,-0.19747c0.21047,-0.05753 0.43201,-0.08824 0.66073,-0.08824c1.38071,0 2.5,1.11929 2.5,2.5c0,0.52532 -0.16203,1.0128 -0.43883,1.41519l-1.47376,2.21064l-0.07183,-0.04789l-0.07494,0.24611c-2.46587,2.48676 -4.14419,4.14607 -7.32987,5.6995c-0.33246,0.00698 -0.66669,0.01504 -1.00242,0.02367c-1.06469,0.73209 -2.16879,1.4112 -3.3828,1.8184c-1.09083,0.36589 -2.32357,-0.20281 -3.45158,0.02384c-0.81811,0.16438 -1.41963,0.96202 -2.23909,1.11954c-4.3867,0.84323 -11.58899,0.53486 -15.87385,-0.7932c-1.44837,-0.44891 -3.07622,-1.15856 -4.35162,-2.06542zM210.19143,157.37959c0.51626,-0.04507 1.03478,-0.08163 1.55711,-0.10819c-0.70581,-0.08601 -1.14294,-0.02088 -1.55711,0.10819z" fill="#9c9c9c" stroke="none" stroke-width="0.5" stroke-linecap="butt"/><path d="M285.30014,128.51814c2.88052,1.34544 5.04267,3.85808 2.18227,7.59473c-0.89978,1.17542 -2.90781,0.57806 -4.38003,0.73223c-3.51031,0.3676 -7.29187,0 -10.82224,0c-18.7961,0 -37.79359,-0.75825 -56.54626,0.36689c-4.06924,0.24415 -8.26086,1.29566 -12.31497,1.8659c-1.82558,-0.01159 -3.61599,0.50747 -5.42818,0.72849c-2.98051,0.36351 -6.28976,0.02416 -9.30309,0.02416c-0.38002,0 -5.90645,0.02088 -6.17209,-0.06688c-3.50887,-1.15917 -5.91832,-3.11258 -3.79133,-7.47926c0.53038,-1.08887 1.83991,-1.76937 3.36116,-2.20526c2.412,-2.80296 5.68902,-4.84432 9.45823,-5.64661c4.52891,-0.964 9.58288,0.41939 14.09252,0.70014c7.59034,0.47254 15.37481,-0.00483 22.98187,-0.00483c12.43936,0 24.87872,0 37.31808,0c3.85527,0 7.71353,-0.04177 11.56861,0c1.18675,0.01286 2.44763,-0.34732 3.55983,0.06688c2.3023,0.85742 3.91857,1.89155 4.23565,3.32342zM184.81648,134.84481c-0.04864,0.00184 -0.09728,0.00368 -0.14591,0.00551c-0.00223,0.00388 -0.00446,0.00776 -0.00669,0.01165c0.05201,-0.00208 0.10402,-0.00413 0.15602,-0.00615c-0.00115,-0.00366 -0.00229,-0.00733 -0.00342,-0.01101z" fill="#dedede" stroke="none" stroke-width="0.5" stroke-linecap="butt"/><path d="M216.32799,167.7245c-0.0537,0.02523 -0.08454,0.03686 -0.08454,0.03686c-1.42443,0.46012 -2.53952,1.94075 -3.7634,3.00686c-2.90199,2.52793 -7.26358,5.30598 -10.42812,7.1568c-1.88133,1.10031 -4.04421,1.08492 -6.09664,1.28127c-2.68739,0.2571 -5.90206,1.2585 -8.5884,0.41249c-4.165,-1.31167 -8.04751,-6.66992 -9.86067,-11.55567c-1.65712,-4.46526 -1.39447,-8.05954 -1.39447,-12.83031c0,-9.78331 -1.04445,-21.79998 4.83722,-29.41735c4.41303,-5.71532 11.27452,-5.34369 16.89096,-5.88242c7.31718,-0.70188 14.44503,-1.48565 21.82171,-1.48565c14.05648,0 28.11296,0 42.16944,0c7.54564,0 15.66331,-0.95706 22.91231,1.93303c1.56646,2.00171 2.76995,4.44754 4.07758,6.75021c2.43641,4.29039 5.86553,8.09273 6.80625,13.65034c0.07152,0.42252 0.05106,8.64315 0.04622,8.74746c-0.47555,10.27009 -3.7138,25.34876 -11.55966,29.8966c-4.80851,2.78724 -10.27107,2.25868 -15.36948,2.24351c-5.77536,-1.08089 -9.49714,-3.18724 -14.25248,-7.42402c-1.7592,-1.56736 -4.33381,-1.83069 -6.1985,-3.01002c-0.02086,1.12804 -0.26446,2.25963 -0.43269,3.37102c-0.37697,2.49043 -1.02161,4.89755 -1.48886,7.36119c-0.31486,1.6602 -0.04863,3.74122 -0.94242,4.9813c-1.79767,2.49417 -4.85169,2.10262 -7.10866,2.11554c-4.47797,0.02563 -8.95649,0 -13.43451,0c-1.27473,-0.13785 -2.77491,0.55152 -3.82419,-0.41355c-5.03872,-4.63438 -2.80994,-14.27253 -4.73399,-20.92548zM216.25556,161.38744c0.36446,-0.59759 0.95536,-1.08202 1.91335,-1.08202c2.5,0 2.5,3.29899 2.5,3.29899l-0.26394,0.00199c1.65531,4.49284 1.969,9.43786 2.47886,14.31386c0.27954,2.67336 -0.80705,5.37497 2.00233,4.5453c4.47797,0 8.9566,-0.02928 13.43451,0c0.7552,0.00494 1.51071,-0.00105 2.26551,0.03189c0.35925,0.01568 0.88014,0.51254 1.07489,0.11386c0.26419,-0.54084 -0.25795,-1.27471 -0.19606,-1.91296c0.32626,-3.3646 1.18374,-7.81182 1.83858,-11.10131c0.4369,-2.1947 0.23093,-5.20543 1.67423,-6.43902c0.16519,-0.14119 5.89147,1.79964 6.86848,2.26249c3.76454,1.78343 6.29124,5.47918 9.83583,7.45489c2.28001,1.27084 4.98645,1.74947 7.4166,2.21175c4.30196,-0.01466 8.90524,0.53 12.99226,-1.69607c5.9596,-3.246 8.27633,-16.85689 8.59209,-24.27263c0.09935,-2.33336 0.39295,-4.71904 0.04623,-7.01086c-0.6511,-4.30363 -4.01005,-7.6813 -5.8819,-10.97204c-0.9326,-1.63954 -1.5796,-3.56995 -2.63968,-5.06854c-7.16411,-2.37687 -15.60769,-1.02166 -22.98893,-1.02166c-13.18573,0 -26.37145,0 -39.55717,0c-7.2627,0 -14.26177,0.80109 -21.46726,1.46905c-3.67656,0.34082 -5.94702,0.15714 -9.38574,1.77317c-1.87961,0.88332 -2.95945,0.32793 -4.32413,2.19335c-4.64593,6.35066 -3.37276,16.83314 -3.37276,24.75188c0,3.52518 -0.41705,6.59286 0.84462,9.82227c1.20487,3.08404 3.79499,7.34928 6.55929,8.14223c2.17038,0.62258 4.92848,-0.37236 7.08519,-0.5724c2.04892,-0.19004 2.51644,0.49452 4.35242,-0.68853c2.99918,-1.93256 6.95976,-4.17399 9.72364,-6.63173c0.77215,-0.68662 1.18979,-1.96748 1.99966,-2.57375c0.96977,-0.72597 2.12886,-0.87577 3.19328,-1.31365c0,0 0.65913,-0.24851 1.38572,-0.02981z" fill="#000000" stroke="none" stroke-width="0.5" stroke-linecap="butt"/></g></g></svg>