<svg version="1.1" xmlns="http://www.w3.org/2000/svg" xmlns:xlink="http://www.w3.org/1999/xlink" width="103.23216" height="118.58783" viewBox="0,0,103.23216,118.58783"><g transform="translate(-201.125,-134.78717)"><g data-paper-data="{&quot;isPaintingLayer&quot;:true}" fill-rule="nonzero" stroke-linejoin="miter" stroke-miterlimit="10" stroke-dasharray="" stroke-dashoffset="0" style="mix-blend-mode: normal"><path d="M202.31062,235.56459v-9.69639h101.20611v9.69639z" fill="#000dff" stroke="none" stroke-width="5" stroke-linecap="butt"/><path d="M206.85581,230.20279c0,-1.23774 0,-4.03158 0,-4.03158h97.26695v6.96928c0,0 -79.81776,0 -91.81273,0c-2.92357,0 -5.45422,-1.88114 -5.45422,-2.9377z" fill="#000dff" stroke="none" stroke-width="5" stroke-linecap="butt"/><path d="M202.67767,242.75281c0,-10.27806 0,-66.36932 0,-91.55549c0,-7.49466 5.37765,-12.25274 10.67728,-12.25274c11.77314,0 58.28999,0 79.73861,0c6.68797,0 10.93861,5.3852 10.93861,13.706c0,1.52156 0,78.98417 0,88.64896c0,5.94573 -3.84494,11.96829 -9.97791,11.96829c-21.12052,0 -69.37596,0 -81.17966,0c-5.09418,0 -10.19692,-5.19742 -10.19692,-10.51503z" fill="#ffad66" stroke="none" stroke-width="5" stroke-linecap="butt"/><path d="M201.57969,193.66975c0,-7.98777 0,-25.93655 0,-39.93185c0,-10.61184 10.84309,-18.95073 19.66177,-18.95073c13.51323,0 53.05119,0 72.31586,0c0.00189,0.00073 0.00378,0.00143 0.00566,0.00211c-0.01388,0.03109 -0.02159,0.06554 -0.02159,0.10179c0,0.11246 0.07426,0.20758 0.17641,0.23899l0.46887,0.15629l0.01706,-0.05118c0.37127,0.18533 0.76335,0.33544 1.16487,0.45897c0.07785,0.08705 0.17556,0.1553 0.28318,0.20947l-0.03886,0.07773l0.26217,0.13108c0.03474,0.01829 0.07431,0.02864 0.1163,0.02864c0.11879,0 0.21823,-0.08285 0.24369,-0.19392c-0.17407,3.93837 1.44691,9.26472 3.31069,12.11366c0.67347,1.02945 1.73015,3.15869 3.30622,2.63333c0.7308,-0.2436 1.1215,-0.97115 1.50517,-1.70327v62.95278c0,0 -57.09184,0 -75.96595,0c-11.21287,0 -26.8115,-10.44993 -26.8115,-18.2739z" fill="#4d2000" stroke="none" stroke-width="5" stroke-linecap="butt"/><path d="M304.35715,135.65015c-0.00824,-0.01119 -0.01655,-0.02247 -0.02491,-0.03383c0.00869,0.01012 0.01699,0.01987 0.02491,0.02925z" fill="#ffdca3" stroke="none" stroke-width="5" stroke-linecap="butt"/><path d="M262.8779,134.94487c5.6267,0.00924 18.27005,0.03002 28.12852,0.04621c1.37451,0.00226 2.69457,0.20315 3.93368,0.55925c0.14126,0.05163 0.28427,0.09943 0.4285,0.14381c0.07785,0.08705 0.17556,0.1553 0.28318,0.20947l-0.03886,0.07773l0.26217,0.13108c0.03474,0.01829 0.07431,0.02864 0.1163,0.02864c0.10503,0 0.19493,-0.06477 0.23194,-0.15654c4.81396,1.88093 8.12097,6.09556 8.11526,9.68572c-0.01564,9.82779 -0.07169,45.05105 -0.07169,45.05105l-54.35003,-0.08929c0,0 0.04924,-30.9454 0.06552,-41.1757c0.00967,-6.0777 7.38419,-14.52051 12.89551,-14.51145z" fill="#4d2000" stroke="none" stroke-width="5" stroke-linecap="butt"/><path d="M277.35073,169.25103v14.8476" fill="none" stroke="#000000" stroke-width="5" stroke-linecap="round"/><path d="M289.77424,169.50103v14.8476" fill="none" stroke="#000000" stroke-width="5" stroke-linecap="round"/><path d="" fill="#ffdca3" stroke="none" stroke-width="5" stroke-linecap="butt"/><path d="" fill="#ffdca3" stroke="none" stroke-width="5" stroke-linecap="butt"/><path d="" fill="#ffdca3" stroke="none" stroke-width="5" stroke-linecap="butt"/><path d="" fill="#ffdca3" stroke="none" stroke-width="5" stroke-linecap="butt"/><path d="" fill="#ffdca3" stroke="none" stroke-width="5" stroke-linecap="butt"/><path d="" fill="#ffdca3" stroke="none" stroke-width="5" stroke-linecap="butt"/><path d="" fill="#ffdca3" stroke="none" stroke-width="5" stroke-linecap="butt"/><g stroke="none" stroke-width="0" stroke-linecap="butt"><path d="M263.875,198.125v-8h36.25v8z" fill="#000000"/><path d="M273.875,205.125v-7.5h26.25v7.5z" fill="#000000"/><path d="M282.625,204.875v-6.5h17.5v6.5z" fill="#ff0000"/></g><path d="M294.875,212.125v-7.5h5v7.5z" fill="#00ceff" stroke="none" stroke-width="0" stroke-linecap="butt"/><path d="M208.875,204.875l-0.5,46" fill="none" stroke="#99683d" stroke-width="2.5" stroke-linecap="round"/><path d="M202.625,223.375l99.75,-0.75" fill="none" stroke="#99683d" stroke-width="2.5" stroke-linecap="round"/><path d="M219.625,209.875l-0.5,42.25" fill="none" stroke="#99683d" stroke-width="2.5" stroke-linecap="round"/><path d="M236.125,211.375l-1,40.75" fill="none" stroke="#99683d" stroke-width="2.5" stroke-linecap="round"/><path d="M250.125,212.125l-0.75,39.75" fill="none" stroke="#99683d" stroke-width="2.5" stroke-linecap="round"/><path d="M263.375,212.375l0.25,39.25" fill="none" stroke="#99683d" stroke-width="2.5" stroke-linecap="round"/><path d="M276.875,212.125l-0.75,40" fill="none" stroke="#99683d" stroke-width="2.5" stroke-linecap="round"/><path d="M290.625,212.375l0.5,39.25" fill="none" stroke="#99683d" stroke-width="2.5" stroke-linecap="round"/><path d="M202.375,235.375l99.75,-0.5" fill="none" stroke="#99683d" stroke-width="2.5" stroke-linecap="round"/><path d="M203.125,243.375l99.5,-1.25" fill="none" stroke="#99683d" stroke-width="2.5" stroke-linecap="round"/><path d="M220.125,167.875v-6h5.5v6z" fill="#ffea00" stroke="none" stroke-width="0" stroke-linecap="butt"/><path d="M282.375,155.375v-6h5.5v6z" fill="#ffea00" stroke="none" stroke-width="0" stroke-linecap="butt"/><path d="M225.625,201.875v-6h5.5v6z" fill="#ffea00" stroke="none" stroke-width="0" stroke-linecap="butt"/><path d="M249.125,171.125v-6h5.5v6z" fill="#11ff00" stroke="none" stroke-width="0" stroke-linecap="butt"/><path d="M230.625,151.625v-6h5.5v6z" fill="#11ff00" stroke="none" stroke-width="0" stroke-linecap="butt"/><path d="M248.875,199.375v-6h5.5v6z" fill="#11ff00" stroke="none" stroke-width="0" stroke-linecap="butt"/><path d="M207.625,185.125v-6h5.5v6z" fill="#ff9999" stroke="none" stroke-width="0" stroke-linecap="butt"/><path d="M259.625,158.625v-6h5.5v6z" fill="#ff9999" stroke="none" stroke-width="0" stroke-linecap="butt"/><path d="M220.375,236.125v-15h17.25v15z" fill="#4d2000" stroke="none" stroke-width="0" stroke-linecap="butt"/></g></g></svg>