<svg version="1.1" xmlns="http://www.w3.org/2000/svg" xmlns:xlink="http://www.w3.org/1999/xlink" width="153.54521" height="131.73463" viewBox="0,0,153.54521,131.73463"><g transform="translate(-154.5,-113.84871)"><g data-paper-data="{&quot;isPaintingLayer&quot;:true}" fill-rule="nonzero" stroke-linejoin="miter" stroke-miterlimit="10" stroke-dasharray="" stroke-dashoffset="0" style="mix-blend-mode: normal"><path d="M195.63149,235.00278c0,-10.27806 0,-66.36932 0,-91.55549c0,-7.49466 5.42318,-12.25274 10.76769,-12.25274c11.87283,0 58.78358,0 80.41382,0c6.7446,0 11.03124,5.3852 11.03124,13.706c0,1.52156 0,78.98417 0,88.64896c0,5.94573 -3.8775,11.96829 -10.0624,11.96829c-21.29936,0 -69.96342,0 -81.86707,0c-5.13731,0 -10.28327,-5.19742 -10.28327,-10.51503z" fill="#0015ff" stroke="none" stroke-width="5" stroke-linecap="butt"/><path d="M242.2463,197.70239c0,-5.71717 0,-18.56382 0,-28.58081c0,-7.59532 5.87728,-13.56378 10.65725,-13.56378c9.8278,0 45.05111,0 45.05111,0v55.22395c0,0 -30.94544,0 -41.17575,0c-6.07771,0 -14.53262,-7.47943 -14.53262,-13.07936z" fill="#ffea00" stroke="none" stroke-width="5" stroke-linecap="butt"/><path d="M195.32281,186.51823c0,-7.63237 0,-24.78254 0,-38.15513c0,-10.13968 10.8629,-18.10753 19.69769,-18.10753c18.1646,0 83.26749,0 83.26749,0v73.72349c0,0 -57.19612,0 -76.10469,0c-11.23335,0 -26.86047,-9.98497 -26.86047,-17.46082z" fill="#ffffff" stroke="none" stroke-width="5" stroke-linecap="butt"/><path d="M221.16667,161l-8,27.66666l17.33334,3l13,-30z" fill="#000000" stroke="#000000" stroke-width="2.5" stroke-linecap="round"/><path d="M196.12269,227.81456v-9.69639h101.20611v9.69639z" fill="#0015ff" stroke="none" stroke-width="5" stroke-linecap="butt"/><path d="M219.25585,215.41525c0,-6.10824 4.95171,-11.05995 11.05995,-11.05995c6.10824,0 11.05995,4.95171 11.05995,11.05995c0,6.10824 -4.95171,11.05995 -11.05995,11.05995c-6.10824,0 -11.05995,-4.95171 -11.05995,-11.05995z" fill="#ff0000" stroke="none" stroke-width="5" stroke-linecap="butt"/><path d="M222.28598,216.7788c0,-5.18782 4.20556,-9.39338 9.39338,-9.39338c5.18782,0 9.39338,4.20556 9.39338,9.39338c0,5.18782 -4.20556,9.39338 -9.39338,9.39338c-5.18782,0 -9.39338,-4.20556 -9.39338,-9.39338z" fill="#ff0000" stroke="none" stroke-width="5" stroke-linecap="butt"/><path d="M284.04837,223.12369c0,-0.83674 0.67832,-1.51506 1.51506,-1.51506c0.83674,0 1.51506,0.67832 1.51506,1.51506c0,0.83674 -0.67832,1.51506 -1.51506,1.51506c-0.83674,0 -1.51506,-0.67832 -1.51506,-1.51506z" fill="#e53cff" stroke="none" stroke-width="5" stroke-linecap="butt"/><path d="M284.04837,230.39599c0,-0.83674 0.67832,-1.51506 1.51506,-1.51506c0.83674,0 1.51506,0.67832 1.51506,1.51506c0,0.83674 -0.67832,1.51506 -1.51506,1.51506c-0.83674,0 -1.51506,-0.67832 -1.51506,-1.51506z" fill="#e53cff" stroke="none" stroke-width="5" stroke-linecap="butt"/><path d="M307.66667,150.16667l-0.14932,3.51773c-0.74986,0.97224 -1.49972,1.94447 -2.24958,2.91671c-2.4408,2.034 -2.60925,3.34705 -4.4299,5.72617c-1.63812,2.1406 -4.85018,4.21509 -7.22348,5.41061c-12.91393,6.50525 -28.71755,2.26211 -42.44773,2.26211c-5.33122,0 -10.89381,0.32655 -16.15246,-0.71432c-3.18024,-0.62948 -6.02843,-1.44965 -9.31913,-1.62284c-6.15026,-0.3237 -12.27002,-0.48736 -18.34754,-1.71049c-4.87375,-0.98087 -9.11594,-3.08199 -14.12361,-3.6343c0,0 -0.33649,-0.03739 -0.74805,-0.20848c-2.99809,2.49322 -5.52487,5.35223 -7.42706,8.88208c-0.72654,1.34822 -2.19369,6.04141 -3.10631,6.21825c-1.87377,0.36309 -3.31302,-1.89614 -4.96953,-2.84422c-0.98437,-5.7536 -1.21962,-12.09486 -0.50544,-18.36304c-3.7321,0.96843 -6.97469,2.7073 -9.27589,5.96348c-1.46161,2.06816 -2.44111,5.30815 -4.18769,7.10755l-1.30926,2.2912c-0.42441,0.77572 -1.24811,1.30178 -2.19468,1.30178c-1.38071,0 -2.5,-1.11929 -2.5,-2.5c0,-0.11851 0.00824,-0.23509 0.02419,-0.3492l0.32845,-2.62754l0.06119,0.00764l-0.03799,-0.15661c0.93434,-3.76241 1.8871,-7.56864 2.30093,-11.43213c0.86254,-8.05265 -0.60076,-19.08318 7.51691,-24.24037c1.83317,-1.16462 3.88232,-2.01068 5.96972,-2.61034c1.34874,-0.38746 4.90504,-0.58931 6.30873,-0.40604c3.19978,0.41779 3.73046,1.06991 6.57531,2.62921c0,0 0.08202,0.04556 0.20544,0.13492c1.78202,-2.12311 3.82246,-4.03061 6.14033,-5.65974c3.53008,-2.48113 8.39346,-3.55349 12.55832,-4.39556c13.49328,-3.35395 27.50106,-5.36019 41.30213,-6.71541c6.20508,-0.60931 13.69772,-0.666 19.88513,0.00656c1.77022,0.19242 3.52002,0.66544 5.30067,0.66287c9.7138,2.11319 19.62679,4.23494 27.84697,10.1174c2.27222,1.62602 5.65646,3.97812 7.05574,6.46925c1.97019,3.50753 1.95937,10.80921 1.31967,14.72043c-0.13446,0.82214 -0.14126,1.75534 -0.30483,2.60036c0.30966,0.6231 0.30966,1.2443 0.30966,1.2443zM230.57163,150.66667c2.08723,0 4.17448,0 6.26171,0c10.38632,0 20.83899,0.2815 31.19508,-0.3295c6.36993,-0.37582 12.78824,-1.594 19.07113,-2.63821c3.81713,-0.6344 7.63804,-0.53256 11.45435,-1.01662c1.16275,-0.1153 2.32187,-0.41571 3.48824,-0.3459c0.43126,0.02581 0.75286,0.82099 1.1367,0.6227c0.31838,-0.16447 -0.45484,-0.59333 -0.50733,-0.94781c-0.12261,-0.82808 -0.00405,-1.67422 -0.00483,-2.51132c-0.00241,-2.58667 0.71488,-7.07327 -0.6755,-9.43492c-0.80904,-1.3742 -2.22304,-2.29418 -3.44044,-3.3242c-7.75399,-6.56048 -18.04293,-8.56554 -27.65686,-10.75581c-7.92678,-0.01117 -16.11417,-1.48284 -24.14753,-0.6639c-13.59516,1.38591 -27.40511,3.27434 -40.69787,6.61793c-3.42824,0.67752 -7.8972,1.50574 -10.77501,3.60445c-12.21188,8.90577 -13.96164,23.98965 -13.96039,38.07528c0.5264,-0.93442 1.00136,-1.6803 1.10878,-1.84186c2.58756,-3.89187 5.8064,-6.98605 9.64635,-9.65967c3.21701,-2.23988 6.4106,-2.60872 10.06617,-3.68426c8.76936,-2.58012 17.26664,-2.76637 26.36563,-2.76637c0,0 1.35721,0 2.07163,1z" fill="#ff0000" stroke="none" stroke-width="0.5" stroke-linecap="butt"/><path d="M228.45455,149.6875c-9.099,0 -17.59959,0.17645 -26.36895,2.75657c-3.65556,1.07554 -6.75194,1.42101 -9.96894,3.66089c-3.83994,2.67362 -7.06043,5.76257 -9.64799,9.65445c-0.10742,0.16156 -0.67566,0.94349 -1.20206,1.8779c-0.00125,-14.08563 1.74698,-29.20209 13.95887,-38.10786c2.87782,-2.09871 7.34968,-2.93449 10.77792,-3.61201c13.29276,-3.34359 27.15692,-5.25953 40.75207,-6.64544c8.03336,-0.81893 16.25035,0.67027 24.17713,0.68144c9.61393,2.19027 19.91292,4.21603 27.66691,10.77651c1.2174,1.03001 2.63201,1.95324 3.44105,3.32745c1.39038,2.36165 0.67368,6.85605 0.67609,9.44272c0.00078,0.83711 -0.11782,1.68533 0.00479,2.51341c0.05248,0.35449 0.82566,0.7841 0.50728,0.94857c-0.38384,0.19828 -0.80529,-0.60235 -1.23654,-0.62816c-1.16636,-0.06981 -2.22564,0.23606 -3.38839,0.35136c-3.8163,0.48406 -7.63736,0.38409 -11.45449,1.01849c-6.28289,1.04422 -12.70272,2.27066 -19.07265,2.64648c-10.35609,0.61101 -20.88686,0.3565 -31.27319,0.3565c-2.08723,0 -4.18702,-0.01361 -6.27425,-0.01361c-0.71442,-1 -2.07467,-1.00566 -2.07467,-1.00566z" data-paper-data="{&quot;noHover&quot;:false,&quot;origItem&quot;:[&quot;Path&quot;,{&quot;applyMatrix&quot;:true,&quot;segments&quot;:[[[461.14325,301.33333],[-1.42884,-2],[4.17447,0]],[[473.66667,301.33333],[-4.17447,0],[20.77265,0]],[[536.05683,300.67432],[-20.71217,1.22201],[12.73986,-0.75165]],[[574.19909,295.3979],[-12.56577,2.08843],[7.63426,-1.26881]],[[597.10778,293.36467],[-7.63261,0.96811],[2.3255,-0.2306]],[[604.08426,292.67287],[-2.33273,-0.13961],[0.86251,0.05162]],[[606.35765,293.91828],[-0.76768,0.39656],[0.63676,-0.32893]],[[605.343,292.02265],[0.10497,0.70897],[-0.24521,-1.65616]],[[605.33333,287],[0.00156,1.67422],[-0.00483,-5.17334]],[[603.98233,268.13016],[2.78077,4.7233],[-1.61808,-2.74841]],[[597.10146,261.48177],[2.4348,2.06003],[-15.50799,-13.12096]],[[541.78775,239.97014],[19.22786,4.38054],[-15.85357,-0.02234]],[[493.49269,238.64233],[16.06672,-1.63787],[-27.19032,2.77183]],[[412.09694,251.87819],[26.58552,-6.68719],[-6.85647,1.35504]],[[390.54691,259.08708],[5.75564,-4.19742],[-24.42376,17.81154]],[[362.62614,335.23764],[-0.00251,-28.17126],[1.05279,-1.86883]],[[364.8437,331.55392],[-0.21484,0.32313],[5.17511,-7.78375]],[[384.1364,312.23458],[-7.67989,5.34723],[6.43401,-4.47977]],[[404.26873,304.86607],[-7.31113,2.15108],[17.53872,-5.16024]],[[457,299.33333],[-18.198,0],[0,0]]],&quot;closed&quot;:true}]}" fill="#ff0000" stroke="none" stroke-width="0.5" stroke-linecap="butt"/><path d="M166.16667,170.5c0,3.4978 -2.61167,6.33334 -5.83333,6.33334c-3.22166,0 -5.83334,-2.83553 -5.83334,-6.33334c0,-3.4978 2.61167,-6.33333 5.83334,-6.33333c3.22166,0 5.83333,2.83552 5.83333,6.33333z" fill="#ffea00" stroke="none" stroke-width="0" stroke-linecap="butt"/><path d="M187.5,174.5c0,3.4978 -2.61167,6.33334 -5.83333,6.33334c-3.22166,0 -5.83334,-2.83553 -5.83334,-6.33334c0,-3.4978 2.61168,-6.33333 5.83334,-6.33333c3.22166,0 5.83333,2.83552 5.83333,6.33333z" fill="#ffea00" stroke="none" stroke-width="0" stroke-linecap="butt"/><path d="M170.60194,134.8132c0.12222,0.31886 0.24802,0.63552 0.3792,0.94888c2.04596,0.87489 2.73628,2.7948 3.14468,4.87169c0.10189,0.09613 0.20634,0.19069 0.31348,0.2836c0.88415,0.76685 2.32914,0.96704 2.88965,1.99448c0.5629,1.03183 0.24241,4.98534 0.3329,6.43281c0.29053,4.6473 2.14385,10.82847 -6.1161,6.72532c-1.77124,-0.87986 -1.74609,-3.55918 -2.81757,-5.22153c-2.35591,-3.65511 -3.32894,-8.1102 -6.14873,-11.41465c0,0 -1.60046,-1.92056 0.3201,-3.52102c0.48189,-0.40158 0.94363,-0.58148 1.36499,-0.62566c-0.16925,-0.33703 -0.26453,-0.71761 -0.26453,-1.12045c0,-1.38071 1.11929,-2.5 2.5,-2.5c0.69036,0 1.31536,0.27983 1.76776,0.73224l2,2l-0.17457,0.17457z" fill="#0015ff" stroke="none" stroke-width="0.5" stroke-linecap="butt"/><path d="M191.93337,163.39996c-1.26671,-0.6444 -1.26671,-2.23329 -1.26671,-2.23329c0.06699,-5.37833 -2.57703,-10.44478 -4.48641,-15.40124c-1.23246,-3.19928 -4.13663,-4.06248 -3.83893,-8.13177c0.24653,-3.36994 4.65053,-7.04787 6.9048,-9.40079c0.94016,-0.9813 1.61681,-2.54192 2.94779,-2.81638c5.08564,-1.0487 8.59643,5.41911 11.21549,8.46975c3.34448,4.06029 6.2115,10.1919 7.51802,15.34904c0.65465,2.58407 0.69311,5.41393 1.33333,8c0.98168,3.96538 4.44327,7.1714 -1.03369,10.19536c-3.9823,2.19873 -7.69277,-2.1122 -11.22972,-2.81503c-1.57943,-0.31385 -3.22036,0.05105 -4.83067,0.05105h-1c0,0 -1.5889,0 -2.23329,-1.26671z" fill="#0015ff" stroke="none" stroke-width="0.5" stroke-linecap="butt"/><path d="M231.01701,170.29396c-0.15921,0.02557 -0.33121,0.03938 -0.51701,0.03938c-2.5,0 -2.5,-2.5 -2.5,-2.5c0.03976,-0.74569 0.35658,-1.52903 0.11926,-2.23706c-0.27246,-0.81286 -1.19244,-1.27157 -1.55561,-2.04816c-1.14561,-2.44976 -1.72167,-5.10744 -2.96639,-7.59675c-3.25468,-6.50905 -6.66019,-12.89888 -10.26788,-19.21102c-2.25377,-3.94328 -4.24638,-8.0137 -7.20626,-11.46689l-0.06279,-0.2365l-0.06428,0.03673l-1.31155,-2.29521c-0.22304,-0.37408 -0.35117,-0.8113 -0.35117,-1.27846c0,-1.38071 1.11929,-2.5 2.5,-2.5c0.11851,0 0.23509,0.00825 0.3492,0.0242l2.62754,0.32844c2.41825,-0.14114 4.62074,0.66805 7.09187,0.05328c3.97064,-0.98782 4.93926,-3.71343 9.49647,-1.41475c2.37738,1.19916 4.18494,4.55674 5.94764,6.48965c5.22303,5.7274 7.11137,13.39961 8.91469,20.75446c0.61187,2.49551 2.02754,5.02639 2.92926,7.43039c1.25084,3.87678 4.32076,6.8287 4.76749,11.04195c0.15532,1.46489 0.80908,3.17842 0.01516,4.41927c-0.84759,1.32475 -2.72442,1.61181 -4.20794,2.13385c-3.3639,1.18374 -7.76031,0.73926 -11.26472,0.73926h-0.66666c0,0 -1.07614,0 -1.81633,-0.70604z" fill="#0015ff" stroke="none" stroke-width="0.5" stroke-linecap="butt"/><path d="M260.66667,168.16667c0,-0.76923 0.23668,-1.30176 0.5644,-1.67045c-1.61944,-5.12214 -2.18536,-10.71169 -4.89218,-15.40606c-5.1878,-8.99707 -9.57754,-18.4092 -14.74344,-27.47577c-0.6592,-1.53285 -2.70371,-5.82187 -2.03803,-7.14889c0.76358,-1.52219 2.87011,-1.92052 4.49653,-2.42538c1.09713,-0.34056 2.29732,-0.03257 3.44606,-0.04012c4.34464,-0.02851 8.93331,-1.03367 12.23396,2.54259c1.68788,1.82882 2.92606,5.47659 4.24509,7.67449c5.02698,8.37646 9.09683,17.42923 12.18511,26.71225c2.1985,4.94663 3.69966,10.03868 4.12975,15.4618c0.11938,1.50526 1.19456,3.32941 0.26839,4.52199c-1.03881,1.33762 -3.1921,1.2725 -4.87966,1.41567c-0.32378,0.02747 -5.03434,-1.25558 -5.64169,-1.3713c-2.17872,-0.41509 -2.91121,-0.29484 -5.20429,-0.29083c-0.32378,0.06128 -0.61529,0.05384 -0.87584,0h-0.79415c0,0 -2.5,0 -2.5,-2.5z" fill="#0015ff" stroke="none" stroke-width="0.5" stroke-linecap="butt"/><path d="M294.73291,167.00612c-2.13668,-0.00156 -2.38428,-2.23004 -2.38428,-2.23004c-0.92446,-8.41306 0.05305,-17.36623 -4.36068,-25.05003c-3.35724,-5.84458 -8.41875,-10.47033 -12.12277,-16.01784c-0.8395,-1.25732 -2.36436,-2.46545 -2.19678,-3.96796c0.19212,-1.72248 2.06969,-2.78059 3.10454,-4.17088c4.22296,-0.18467 9.05708,0.68774 12.40324,3.74247c2.95058,2.6936 3.61314,6.67997 5.50253,9.96212c3.3195,5.76647 6.10494,11.17894 7.2846,17.79937c0.34915,1.9595 0.54723,3.94729 0.97848,5.89037c0.40435,1.8219 1.97121,4.64794 1.70142,6.54461c-0.28428,1.99851 -2.47292,4.27707 -3.70878,5.75946c-0.72244,0.60648 -1.44487,1.21297 -2.1673,1.81946l-2.26713,0.57944c0,0 -1.02939,0 -1.76709,-0.66054z" fill="#0015ff" stroke="none" stroke-width="0.5" stroke-linecap="butt"/><path d="M235.9601,204.47437c0.69828,1.60345 -3.0457,4.78026 -8.36241,7.09561c-5.31671,2.31535 -10.19283,2.89245 -10.89111,1.28899c-0.69828,-1.60345 3.04571,-4.78027 8.36242,-7.09562c5.31671,-2.31535 10.19282,-2.89244 10.8911,-1.28899z" fill="#ffea00" stroke="none" stroke-width="0" stroke-linecap="butt"/><path d="M267.5,211.66667l-1,32.66667h24l3,-1.66667l2.33333,-2.66666l1.66667,-6.66666l-0.33333,-21.33334z" fill="#ff0000" stroke="#ff0000" stroke-width="2.5" stroke-linecap="round"/><path d="M292.16667,220.16667c0,3.4978 -2.61167,6.33334 -5.83333,6.33334c-3.22166,0 -5.83333,-2.83553 -5.83333,-6.33334c0,-3.4978 2.61167,-6.33333 5.83333,-6.33333c3.22166,0 5.83333,2.83552 5.83333,6.33333z" fill="#ffea00" stroke="none" stroke-width="0" stroke-linecap="butt"/><path d="M292.5,232.83333c0,3.4978 -2.61167,6.33334 -5.83333,6.33334c-3.22166,0 -5.83334,-2.83553 -5.83334,-6.33334c0,-3.4978 2.61168,-6.33333 5.83334,-6.33333c3.22166,0 5.83333,2.83552 5.83333,6.33333z" fill="#ffea00" stroke="none" stroke-width="0" stroke-linecap="butt"/><path d="M267.5,209.33334l-1,-2.33334l-1,2.33334" fill="none" stroke="#0015ff" stroke-width="2.5" stroke-linecap="round"/><path d="M274.5,195.33333c0,1.10457 -1.71624,2 -3.83333,2c-2.11709,0 -3.83333,-0.89543 -3.83333,-2c0,-1.10457 1.71624,-2 3.83333,-2c2.11709,0 3.83333,0.89543 3.83333,2z" fill="#c900ff" stroke="none" stroke-width="0" stroke-linecap="butt"/><path d="M287.25,195.58334c0,1.10457 -1.71624,2 -3.83333,2c-2.11709,0 -3.83333,-0.89543 -3.83333,-2c0,-1.10457 1.71624,-2 3.83333,-2c2.11709,0 3.83333,0.89543 3.83333,2z" fill="#c900ff" stroke="none" stroke-width="0" stroke-linecap="butt"/><path d="M271.1628,178.751v14.8476" fill="none" stroke="#000000" stroke-width="5" stroke-linecap="round"/><path d="M283.58631,178.751v14.8476" fill="none" stroke="#000000" stroke-width="5" stroke-linecap="round"/></g></g></svg>