<svg version="1.1" xmlns="http://www.w3.org/2000/svg" xmlns:xlink="http://www.w3.org/1999/xlink" width="140.94681" height="167.233" viewBox="0,0,140.94681,167.233"><g transform="translate(-169.33158,-92.68845)"><g data-paper-data="{&quot;isPaintingLayer&quot;:true}" fill-rule="nonzero" stroke-linejoin="miter" stroke-miterlimit="10" stroke-dasharray="" stroke-dashoffset="0" style="mix-blend-mode: normal"><path d="M195.43647,249.40643c0,-10.27806 0,-66.36932 0,-91.55549c0,-7.49466 5.42318,-12.25274 10.76769,-12.25274c11.87283,0 58.78358,0 80.41382,0c6.7446,0 11.03124,5.3852 11.03124,13.706c0,1.52156 0,78.98417 0,88.64896c0,5.94573 -3.8775,11.96829 -10.0624,11.96829c-21.29936,0 -69.96342,0 -81.86707,0c-5.13731,0 -10.28327,-5.19742 -10.28327,-10.51503z" fill="#ee80ff" stroke="none" stroke-width="5" stroke-linecap="butt"/><path d="M242.05128,212.10604c0,-5.71717 0,-18.56382 0,-28.58081c0,-7.59532 5.87728,-13.56378 10.65725,-13.56378c9.8278,0 45.05111,0 45.05111,0v55.22395c0,0 -30.94544,0 -41.17575,0c-6.07771,0 -14.53262,-7.47943 -14.53262,-13.07936z" fill="#ffd797" stroke="none" stroke-width="5" stroke-linecap="butt"/><path d="M197.12779,200.92188c0,-7.63237 0,-24.78254 0,-38.15513c0,-10.13968 10.61673,-18.10753 19.25131,-18.10753c17.75297,0 81.38053,0 81.38053,0v73.72349c0,0 -55.89997,0 -74.38005,0c-10.97879,0 -26.25177,-9.98497 -26.25177,-17.46082z" fill="#ffdca3" stroke="none" stroke-width="5" stroke-linecap="butt"/><path d="M219.06083,229.8189c0,-6.10824 4.95171,-11.05995 11.05995,-11.05995c6.10824,0 11.05995,4.95171 11.05995,11.05995c0,6.10824 -4.95171,11.05995 -11.05995,11.05995c-6.10824,0 -11.05995,-4.95171 -11.05995,-11.05995z" fill="#ffd797" stroke="none" stroke-width="5" stroke-linecap="butt"/><path d="M222.09096,231.18245c0,-5.18782 4.20556,-9.39338 9.39338,-9.39338c5.18782,0 9.39338,4.20556 9.39338,9.39338c0,5.18782 -4.20556,9.39338 -9.39338,9.39338c-5.18782,0 -9.39338,-4.20556 -9.39338,-9.39338z" fill="#ffdca3" stroke="none" stroke-width="5" stroke-linecap="butt"/><path d="M270.96778,193.15465v14.8476" fill="none" stroke="#000000" stroke-width="5" stroke-linecap="round"/><path d="M283.39129,193.15465v14.8476" fill="none" stroke="#000000" stroke-width="5" stroke-linecap="round"/><path d="M247.45336,174.75794l-2.5913,-0.03313c-0.8529,-0.15587 -4.83553,-0.74874 -6.35639,-2.22569c-0.31905,0.41908 -0.69382,0.81341 -0.99645,1.23377c-1.94711,2.70458 -4.74011,6.77844 -8.76238,6.52431c-1.57149,-0.0993 -1.87927,-2.54722 -2.57831,-3.95817c-0.00342,-0.00691 -0.24505,-0.77273 -0.55064,-1.76604c-0.34149,1.25955 -0.59245,2.54656 -0.82774,3.96096c-0.60877,5.75551 -1.15513,12.42137 0.61124,18.08779c0.10399,0.33358 0.23091,0.63139 0.37448,0.90429c-1.3025,-0.13608 -2.7312,-0.04235 -4.40733,0.39727c-5.60857,1.471 -13.62866,1.32418 -16.10817,6.56555c-0.52976,1.11984 -0.9389,2.22262 -1.238,3.30567c-1.74982,-3.43178 -3.00035,-7.05665 -3.30203,-10.38036c-0.2783,-3.06612 0.2102,-5.97784 0.48891,-8.97935c0.3746,-4.03433 -0.52689,-8.23643 0.0097,-12.25586c0.38161,-2.85855 1.16763,-5.85859 1.73717,-8.71017c2.57902,-11.10165 9.34839,-22.90654 19.41296,-28.85749c3.08961,-1.82682 6.75778,-3.02583 10.08447,-4.30544c3.09197,-1.18931 6.01141,-2.86248 9.34636,-3.31106c5.23519,-0.70422 11.06797,-0.02492 16.34048,-0.0084c10.28111,1.83482 21.56453,2.52568 30.93729,7.61646c11.04303,5.99798 15.83135,19.31623 19.45071,30.44917c0.03384,3.56497 0.28372,7.28066 0.02159,10.83361c-0.02414,0.32722 -0.05249,0.65434 -0.08441,0.9814c-6.25216,-2.24873 -13.37157,-1.18293 -19.20795,2.23441c-1.07408,0.24029 -2.08293,0.65337 -2.99583,1.20854c-0.01772,-0.1025 -0.03723,-0.20364 -0.05865,-0.30332c-0.3616,-1.68265 -0.84968,-2.7133 -1.17339,-3.73033c-1.00857,2.52553 -2.03112,4.88413 -5.5116,5.7143c-1.28703,0.30696 -4.63516,-2.84368 -5.67096,-3.76112c-3.0005,-2.65762 -5.82691,-7.65901 -5.15977,-11.86078c-1.34828,1.21166 -2.67615,2.45187 -4.26162,3.30403c-0.04103,0.02204 -0.08215,0.04389 -0.12336,0.06556l0.00799,0.01257l-4.07712,2.59454c-0.38389,0.25295 -0.84362,0.40015 -1.33773,0.40015c-1.34455,0 -2.43452,-1.08998 -2.43452,-2.43452c0,-0.15128 0.0138,-0.29933 0.0402,-0.44299c-0.84101,1.10053 -1.84376,1.89168 -3.05857,2.11573c-1.22364,0.22566 -2.9204,-0.66528 -4.37521,-1.73971c-0.70682,0.55387 -1.6141,0.55387 -1.6141,0.55387z" fill="#fff100" stroke="#fff100" stroke-width="3.5" stroke-linecap="butt"/><path d="M224.8776,145.98563c0.60136,1.07646 1.48356,2.12408 1.27321,3.28382c-0.25152,1.38669 -1.82218,2.15967 -2.85565,3.11786c-1.72183,1.59641 -4.23986,3.08264 -5.66048,4.98685c-1.23184,1.65117 -1.38469,5.11362 -1.91954,7.04005c-0.78625,2.83194 -2.04162,5.90194 -2.53558,8.79722c-0.35758,2.09586 0.02006,4.2523 0.01396,6.37842c-1.0111,5.05548 -0.43957,10.15184 -0.97602,15.27766c-0.60104,5.74304 -1.87327,11.26845 -2.60101,16.91559c-0.71412,5.54151 -0.38541,10.8145 -2.02647,16.28874c-0.6464,2.15624 -1.58554,5.30263 -3.448,6.78937c-0.09146,0.07301 -0.18491,0.1428 -0.28012,0.20969l0.02781,0.03339l-1.93533,1.61279c-0.42397,0.35843 -0.97218,0.5745 -1.57083,0.5745c-0.9201,0 -1.72097,-0.51041 -2.13492,-1.26355c-1.64551,1.23437 -5.0587,0.61115 -6.95396,0.61434c-4.28475,0.00717 -7.97784,-0.53725 -11.95315,-2.12677c-1.44234,-0.57672 -3.09352,-0.76171 -4.3471,-1.67902c-0.0502,-0.03672 -0.09977,-0.07416 -0.14872,-0.11227l-0.01524,0.02667l-2.23119,-1.27497c-0.7554,-0.41329 -1.26769,-1.21542 -1.26769,-2.1372c0,-1.34455 1.08997,-2.43452 2.43452,-2.43452h2.59683c6.81742,0 14.11059,-0.94858 17.75074,-7.64288c2.85106,-3.89347 2.47419,-7.62479 1.6063,-12.18831c-0.42436,-2.23134 -0.25808,-4.5451 -0.64267,-6.78365c-0.6296,-3.66476 -2.64598,-8.65138 -4.31395,-12.01508c-2.22833,-4.49373 -5.71855,-7.73314 -7.30338,-12.71982c-2.19306,-6.90048 -2.06661,-13.58811 -2.06101,-20.70109c0.7409,-5.86648 3.22587,-13.5462 8.60976,-16.84766c7.62929,-4.67834 17.63943,-4.22964 25.61633,-0.81969c1.28564,0.54959 4.47444,1.85539 5.42156,2.60145c1.91307,1.50693 2.53742,3.29068 3.5874,5.36416c0,0 0.17365,0.34731 0.24356,0.83389z" fill="#fff100" stroke="#fff100" stroke-width="4" stroke-linecap="butt"/><path d="M279.80868,236.42534c0,3.9473 -2.70762,7.14721 -6.04764,7.14721c-3.34002,0 -6.04764,-3.19992 -6.04764,-7.14721c0,-3.9473 2.70762,-7.14721 6.04764,-7.14721c3.34002,0 6.04764,3.19992 6.04764,7.14721z" fill="#00ebff" stroke="#ffea00" stroke-width="2" stroke-linecap="butt"/><path d="M235.27606,131.96611l-14.29442,-21.44163l15.94378,7.14721l6.04764,-13.74464l9.89614,14.29442l12.09528,-18.14292l-4.94807,34.63648z" fill="#faff00" stroke="#faff00" stroke-width="3.5" stroke-linecap="round"/><path d="M231.42756,123.71932c0,3.03638 -1.35381,5.49785 -3.02382,5.49785c-1.67001,0 -3.02382,-2.46147 -3.02382,-5.49785c0,-3.03638 1.35381,-5.49785 3.02382,-5.49785c1.67001,0 3.02382,2.46147 3.02382,5.49785z" fill="#00ebff" stroke="#ffea00" stroke-width="2" stroke-linecap="butt"/><path d="M264.96448,122.89465c0,2.88456 -0.86152,5.22296 -1.92425,5.22296c-1.06273,0 -1.92425,-2.3384 -1.92425,-5.22296c0,-2.88456 0.86152,-5.22296 1.92425,-5.22296c1.06273,0 1.92425,2.3384 1.92425,5.22296z" fill="#00ebff" stroke="#ffea00" stroke-width="2" stroke-linecap="butt"/><path d="M251.21984,123.16954c0,3.64366 -2.70762,6.59743 -6.04764,6.59743c-3.34002,0 -6.04764,-2.95377 -6.04764,-6.59743c0,-3.64366 2.70762,-6.59743 6.04764,-6.59743c3.34002,0 6.04764,2.95377 6.04764,6.59743z" fill="#ff0000" stroke="#ffea00" stroke-width="2" stroke-linecap="butt"/></g></g></svg>