<svg version="1.1" xmlns="http://www.w3.org/2000/svg" xmlns:xlink="http://www.w3.org/1999/xlink" width="143.40933" height="141.49931" viewBox="0,0,143.40933,141.49931"><g transform="translate(-167.3606,-113.38447)"><g data-paper-data="{&quot;isPaintingLayer&quot;:true}" fill-rule="nonzero" stroke-linejoin="miter" stroke-miterlimit="10" stroke-dasharray="" stroke-dashoffset="0" style="mix-blend-mode: normal"><path d="M186.84255,242.75281c0,-10.27806 0,-66.36932 0,-91.55549c0,-7.49466 5.31706,-12.25274 10.557,-12.25274c11.64051,0 57.63336,0 78.84036,0c6.61263,0 10.81539,5.3852 10.81539,13.706c0,1.52156 0,78.98417 0,88.64896c0,5.94573 -3.80163,11.96829 -9.86551,11.96829c-20.88259,0 -68.59444,0 -80.26517,0c-5.03679,0 -10.08206,-5.19742 -10.08206,-10.51503z" fill="#ffdca3" stroke="none" stroke-width="5" stroke-linecap="butt"/><path d="M186.66709,235.56459v-9.69639h99.87278v9.69639z" fill="#ffdca3" stroke="none" stroke-width="5" stroke-linecap="butt"/><path d="M189.87894,230.20279c0,-1.23774 0,-4.03158 0,-4.03158h97.26695v6.96928c0,0 -79.81776,0 -91.81273,0c-2.92357,0 -5.45422,-1.88114 -5.45422,-2.9377z" fill="#ffdca3" stroke="none" stroke-width="5" stroke-linecap="butt"/><path d="M186.53387,194.26826c0,-7.63237 0,-24.78254 0,-38.15513c0,-10.13968 10.61673,-18.10753 19.25131,-18.10753c17.75297,0 81.38053,0 81.38053,0v73.72349c0,0 -55.89997,0 -74.38005,0c-10.97879,0 -26.25177,-9.98497 -26.25177,-17.46082z" fill="#ffdca3" stroke="none" stroke-width="5" stroke-linecap="butt"/><path d="M273.25943,230.87372c0,-0.83674 0.67832,-1.51506 1.51506,-1.51506c0.83674,0 1.51506,0.67832 1.51506,1.51506c0,0.83674 -0.67832,1.51506 -1.51506,1.51506c-0.83674,0 -1.51506,-0.67832 -1.51506,-1.51506z" fill="#ffdca3" stroke="none" stroke-width="5" stroke-linecap="butt"/><path d="M273.25943,238.14602c0,-0.83674 0.67832,-1.51506 1.51506,-1.51506c0.83674,0 1.51506,0.67832 1.51506,1.51506c0,0.83674 -0.67832,1.51506 -1.51506,1.51506c-0.83674,0 -1.51506,-0.67832 -1.51506,-1.51506z" fill="#ffdca3" stroke="none" stroke-width="5" stroke-linecap="butt"/><path d="M260.37386,201.34863v-14.8476" fill="none" stroke="#000000" stroke-width="5" stroke-linecap="round"/><path d="M272.79737,186.50103v14.8476" fill="none" stroke="#000000" stroke-width="5" stroke-linecap="round"/><path d="M186.01526,232.68175c0.662,-0.39885 1.38528,-0.39885 1.38528,-0.39885c17.83236,0 35.69609,0.29115 53.54727,0.29115c11.45395,0 22.90793,-0.00786 34.36188,0c2.62207,0.0018 5.53834,-0.00246 8.10865,0.61189c1.46114,0.34923 3.2853,0.23743 4.29865,1.36323c1.00576,1.11737 0.86812,2.93132 0.92919,4.44472c0.08603,2.13213 -1.00725,5.98751 -1.46142,8.13579c-0.26876,1.27128 -0.26595,2.7299 -1.0602,3.74904c-0.81244,1.04248 -2.27078,1.32131 -3.40617,1.98197c-1.88242,0.43616 -3.67762,1.25136 -5.58309,1.56753c-6.06186,1.00584 -13.13876,0.03228 -19.29289,0.03228c-11.16761,0 -22.33522,0 -33.50284,0c-6.58603,0 -13.17206,0 -19.75808,0c-5.48448,0 -10.50697,-0.22551 -14.25106,-5.03751c-2.75455,-3.54021 -3.9597,-8.94801 -5.74947,-13.04245l-0.21192,-1.30649c0,0 0,-1.9133 1.64623,-2.39229z" fill="#ffffff" stroke="none" stroke-width="0.5" stroke-linecap="butt"/><path d="M185.26223,189.15125c0.66983,-1.9109 2.18909,-1.9109 2.18909,-1.9109c9.89896,0 19.79791,0 29.69687,0c6.71728,0 13.69116,-1.15753 20.17186,1.79382c3.37054,9.39167 5.58348,20.18279 6.19482,31.05705c0.30484,5.42243 0.5942,11.53605 -2.4632,15.29607c-2.48017,3.05014 -6.25019,2.06246 -9.121,3.05083c-8.26699,2.84619 -16.22475,4.78451 -24.68144,4.78451c-4.43326,0 -8.44791,0.60004 -12.82548,1.38459c-1.66839,0.29901 -5.44046,1.25558 -6.83103,-0.108c-2.74717,-2.69386 -3.48869,-11.18315 -3.51484,-15.64486c-0.06881,-11.74158 0,-23.48937 0,-35.23158v-0.93951c0,0 0,-2.45128 1.18435,-3.53203z" fill="#0032ff" stroke="none" stroke-width="0.5" stroke-linecap="butt"/><path d="M186.6982,243.28512c0,-3.89408 2.5,-3.89408 2.5,-3.89408h1.74687c6.12003,0 12.24063,-0.03736 18.36054,0.02325c6.91589,-2.46039 14.28815,-3.93796 21.38818,-4.55227c3.35226,-0.29004 7.53076,1.8058 10.19354,-2.3037c1.35569,-2.09225 0.83437,-7.58897 0.83741,-10.1341c0.01169,-9.78092 -2.77259,-19.88871 -5.29265,-28.72242c-2.84501,-9.1994 -8.40078,-5.47603 -13.77049,-4.59358c-11.29043,1.85545 -22.66984,1.38375 -34.0457,1.38375c0,0 -2.5,0 -2.5,-3.89408c0,-3.89408 2.5,-3.89408 2.5,-3.89408c8.02086,0 16.5456,1.2188 24.54119,0.01327c2.9576,-0.44593 6.01438,-0.86894 8.95893,-1.35051c3.64657,-0.59638 7.41847,-2.44035 11.1545,-1.33346c4.14957,1.22942 5.88025,4.86991 7.68334,10.34482c2.83547,9.93557 5.75949,21.05601 5.77089,32.0463c0.00496,4.78604 0.34264,11.48084 -2.07405,15.26178c-4.31915,6.75739 -8.43671,4.49842 -13.68041,4.95227c-7.0317,0.60859 -14.25147,2.19626 -21.1191,4.51769c-6.30189,0.05065 -12.60415,0.02325 -18.90612,0.02325h-1.74687c0,0 -2.5,0 -2.5,-3.89408z" fill="#ffe700" stroke="none" stroke-width="0.5" stroke-linecap="butt"/><g stroke="none" stroke-width="5" stroke-linecap="butt"><path d="M198.85909,225.20329c0,-6.10824 4.95171,-11.05995 11.05995,-11.05995c6.10824,0 11.05995,4.95171 11.05995,11.05995c0,6.10824 -4.95171,11.05995 -11.05995,11.05995c-6.10824,0 -11.05995,-4.95171 -11.05995,-11.05995z" fill="#ffd797"/><path d="M201.30693,225.11112c0,-5.18782 4.20556,-9.39338 9.39338,-9.39338c5.18782,0 9.39338,4.20556 9.39338,9.39338c0,5.18782 -4.20556,9.39338 -9.39338,9.39338c-5.18782,0 -9.39338,-4.20556 -9.39338,-9.39338z" fill="#ffdca3"/></g><path d="M182.78137,169.78592c-1.22905,-0.92023 -2.41902,-1.89399 -3.57938,-2.89892c-3.23396,-4.46572 -7.70383,-9.50523 -9.00838,-14.99562c-2.5694,-10.81366 0.87531,-24.64139 11.48136,-29.97996c3.13259,-1.57679 7.29321,-1.64969 10.66092,-2.37138c4.04757,-0.86738 8.1122,-1.87466 12.15643,-2.80516c8.28827,-0.98098 16.74663,-2.55812 25.07127,-2.94617c16.59898,-0.77375 33.07314,-0.5708 49.52304,1.79659c5.55662,1.50756 11.59159,2.91547 16.53703,5.85791c5.89903,3.5098 11.26728,9.86862 13.03182,16.62141c2.28392,8.74042 -1.49233,19.2405 -4.27824,27.42125c-2.26519,3.07963 -4.60187,6.74292 -7.74017,9.01992c-2.82131,2.047 -5.3892,1.49985 -8.5323,2.16841c-3.31594,0.70532 -6.08818,1.21346 -9.52478,1.21494c-12.62825,0.00546 -25.22667,-0.29115 -37.84895,-0.29115c-18.82249,0 -37.18245,-2.51232 -55.85761,-4.37959c0,0 -2.48759,-0.24876 -2.23883,-2.73635c0.0261,-0.26103 0.07686,-0.49193 0.1468,-0.69614z" fill="#ffffff" stroke="none" stroke-width="0.5" stroke-linecap="butt"/><path d="M267.51642,140.61913c0,11.99135 -10.36286,21.71226 -23.14609,21.71226c-12.78323,0 -23.14609,-9.72091 -23.14609,-21.71226c0,-11.99135 10.36286,-21.71226 23.14609,-21.71226c12.78323,0 23.14609,9.72091 23.14609,21.71226z" fill="#ff0000" stroke="none" stroke-width="0" stroke-linecap="butt"/><path d="M174.22663,128.67717c1.08183,-0.29586 2.09217,0.3777 2.09217,0.3777c1.63189,1.09117 3.82938,2.39532 5.14269,3.91588c2.62732,3.04194 3.04202,5.90774 3.78384,9.61543c0.64194,3.20843 1.49753,5.88521 1.50338,9.22017c0.00178,1.01693 0.06893,6.03077 -0.27708,6.67572c-0.62953,1.17343 -1.94117,1.86189 -3.0965,2.52403c-1.10321,0.63227 -6.11973,2.29484 -7.48596,1.98439c-4.71853,-1.07219 -7.1688,-9.08739 -8.08164,-13.10351c-0.71734,-6.45969 -0.89157,-13.6539 1.97699,-19.57887l1.72275,-1.54438c0,0 1.43763,-0.95842 2.71935,-0.08655z" fill="#ff0000" stroke="none" stroke-width="0.5" stroke-linecap="butt"/><path d="M308.05776,135.9083c0.16438,-0.00638 0.34049,0.00106 0.52916,0.02464c2.48069,0.31009 2.17061,2.79078 2.17061,2.79078l-0.27184,2.01908c0,1.89001 -0.00145,3.78002 -0.00383,5.67002c-0.56583,4.99563 -2.21467,9.68555 -3.58064,14.50408c-0.6924,2.44247 -0.6736,5.51543 -3.87109,6.62686c-6.53937,2.27304 -8.67947,-6.8158 -8.89657,-10.9658c-0.4411,-8.43177 3.38499,-16.9563 10.4891,-21.4489c0,0 2.10946,-1.31841 3.43509,0.77924z" fill="#ff0000" stroke="none" stroke-width="0.5" stroke-linecap="butt"/></g></g></svg>