<svg xmlns="http://www.w3.org/2000/svg" viewBox="0 0 800 600" width="1600" height="1200">
  <defs>
    <style>
      .bg { fill: #1a1d21; }
      .shop { stroke-width: 1; rx: 3; ry: 3; }
      .shop-text { font-family: 'Segoe UI', Arial, sans-serif; font-size: 5px; fill: white; text-anchor: middle; font-weight: bold; letter-spacing: 0.5px; text-shadow: 0 1px 2px rgba(0,0,0,0.5); }
      .shop-icon { font-size: 10px; text-anchor: middle; }
      .entree { opacity: 0.8; }
      .entree-text { font-family: 'Segoe UI', Arial, sans-serif; font-size: 3.5px; fill: #2e7d32; text-anchor: middle; font-weight: bold; }
      .fontaine-text { font-family: 'Segoe UI', Arial, sans-serif; font-size: 4px; fill: #4fc3f7; text-anchor: middle; font-weight: bold; letter-spacing: 1px; }
      .title { font-family: 'Arial Black', sans-serif; font-size: 14px; fill: #e74c3c; text-anchor: middle; font-weight: bold; }
      .subtitle { font-family: 'Segoe UI', Arial, sans-serif; font-size: 6px; fill: #95a5a6; text-anchor: middle; }
      .legend-title { font-family: 'Segoe UI', Arial, sans-serif; font-size: 5px; fill: #ecf0f1; font-weight: bold; }
      .legend-text { font-family: 'Segoe UI', Arial, sans-serif; font-size: 3.5px; fill: #bdc3c7; }
      /* Objet styles ameliores */
      .obj { opacity: 0.8; }
      .obj-comptoir { fill: #5d4037; stroke: #3e2723; stroke-width: 0.4; }
      .obj-etagere { fill: #8d6e63; stroke: #6d4c41; stroke-width: 0.2; }
      .obj-table { fill: #a1887f; stroke: #795548; stroke-width: 0.3; }
      .obj-vitrine { fill: rgba(179,229,252,0.4); stroke: #78909c; stroke-width: 0.3; }
      .obj-machine { fill: #37474f; stroke: #212121; stroke-width: 0.3; }
      .obj-ecran { fill: #0d47a1; stroke: #1a1a2e; stroke-width: 0.3; }
      .obj-portant { fill: #bdbdbd; stroke: #9e9e9e; stroke-width: 0.2; }
      .obj-cabine { fill: #546e7a; stroke: #37474f; stroke-width: 0.3; opacity: 0.6; }
      .obj-lavabo { fill: #eceff1; stroke: #90a4ae; stroke-width: 0.3; }
      .obj-canape { fill: #5c6bc0; stroke: #3949ab; stroke-width: 0.3; rx: 1; }
      .obj-rayon { fill: #efebe9; stroke: #bcaaa4; stroke-width: 0.3; }
      .obj-piste { fill: #ffcc80; stroke: #ff9800; stroke-width: 0.3; }
      .obj-miroir { fill: #b3e5fc; stroke: #78909c; stroke-width: 0.2; }
      .obj-plante { fill: #66bb6a; stroke: #2e7d32; stroke-width: 0.3; }
      .obj-caisse { fill: #455a64; stroke: #263238; stroke-width: 0.3; }
    </style>
    <!-- Gradients boutiques -->
    <linearGradient id="g-mode" x1="0" y1="0" x2="1" y2="1"><stop offset="0%" stop-color="#f06292"/><stop offset="33%" stop-color="#e91e63"/><stop offset="66%" stop-color="#c2185b"/><stop offset="100%" stop-color="#ad1457"/></linearGradient>
    <linearGradient id="g-pharma" x1="0" y1="0" x2="1" y2="1"><stop offset="0%" stop-color="#66bb6a"/><stop offset="33%" stop-color="#4caf50"/><stop offset="66%" stop-color="#388e3c"/><stop offset="100%" stop-color="#2e7d32"/></linearGradient>
    <linearGradient id="g-resto" x1="0" y1="0" x2="1" y2="1"><stop offset="0%" stop-color="#ffb74d"/><stop offset="33%" stop-color="#ff9800"/><stop offset="66%" stop-color="#f57c00"/><stop offset="100%" stop-color="#e65100"/></linearGradient>
    <linearGradient id="g-bijoux" x1="0" y1="0" x2="1" y2="1"><stop offset="0%" stop-color="#ffd54f"/><stop offset="33%" stop-color="#ffc107"/><stop offset="66%" stop-color="#ffa000"/><stop offset="100%" stop-color="#ff8f00"/></linearGradient>
    <linearGradient id="g-techno" x1="0" y1="0" x2="1" y2="1"><stop offset="0%" stop-color="#42a5f5"/><stop offset="33%" stop-color="#2196f3"/><stop offset="66%" stop-color="#1976d2"/><stop offset="100%" stop-color="#1565c0"/></linearGradient>
    <linearGradient id="g-livre" x1="0" y1="0" x2="1" y2="1"><stop offset="0%" stop-color="#8d6e63"/><stop offset="33%" stop-color="#795548"/><stop offset="66%" stop-color="#5d4037"/><stop offset="100%" stop-color="#4e342e"/></linearGradient>
    <linearGradient id="g-super" x1="0" y1="0" x2="1" y2="1"><stop offset="0%" stop-color="#aed581"/><stop offset="33%" stop-color="#8bc34a"/><stop offset="66%" stop-color="#689f38"/><stop offset="100%" stop-color="#558b2f"/></linearGradient>
    <linearGradient id="g-sport" x1="0" y1="0" x2="1" y2="1"><stop offset="0%" stop-color="#ff8a65"/><stop offset="33%" stop-color="#ff5722"/><stop offset="66%" stop-color="#e64a19"/><stop offset="100%" stop-color="#d84315"/></linearGradient>
    <linearGradient id="g-cinema" x1="0" y1="0" x2="1" y2="1"><stop offset="0%" stop-color="#ba68c8"/><stop offset="33%" stop-color="#9c27b0"/><stop offset="66%" stop-color="#7b1fa2"/><stop offset="100%" stop-color="#6a1b9a"/></linearGradient>
    <linearGradient id="g-wc" x1="0" y1="0" x2="1" y2="1"><stop offset="0%" stop-color="#78909c"/><stop offset="33%" stop-color="#607d8b"/><stop offset="66%" stop-color="#455a64"/><stop offset="100%" stop-color="#37474f"/></linearGradient>
    <linearGradient id="g-secu" x1="0" y1="0" x2="1" y2="1"><stop offset="0%" stop-color="#ef5350"/><stop offset="33%" stop-color="#f44336"/><stop offset="66%" stop-color="#d32f2f"/><stop offset="100%" stop-color="#c62828"/></linearGradient>
    <linearGradient id="g-food" x1="0" y1="0" x2="1" y2="1"><stop offset="0%" stop-color="#ff6e40"/><stop offset="33%" stop-color="#e65100"/><stop offset="66%" stop-color="#bf360c"/><stop offset="100%" stop-color="#a33000"/></linearGradient>
    <linearGradient id="g-jeux" x1="0" y1="0" x2="1" y2="1"><stop offset="0%" stop-color="#7986cb"/><stop offset="100%" stop-color="#3949ab"/></linearGradient>
    <linearGradient id="g-jardin" x1="0" y1="0" x2="1" y2="1"><stop offset="0%" stop-color="#26a69a"/><stop offset="100%" stop-color="#00695c"/></linearGradient>
    <linearGradient id="g-meuble" x1="0" y1="0" x2="1" y2="1"><stop offset="0%" stop-color="#8d6e63"/><stop offset="100%" stop-color="#4e342e"/></linearGradient>
    <linearGradient id="g-anime" x1="0" y1="0" x2="1" y2="1"><stop offset="0%" stop-color="#fdd835"/><stop offset="100%" stop-color="#f57f17"/></linearGradient>
    <linearGradient id="g-patiss" x1="0" y1="0" x2="1" y2="1"><stop offset="0%" stop-color="#f48fb1"/><stop offset="100%" stop-color="#c2185b"/></linearGradient>
    <linearGradient id="g-bio" x1="0" y1="0" x2="1" y2="1"><stop offset="0%" stop-color="#9ccc65"/><stop offset="100%" stop-color="#558b2f"/></linearGradient>
    <linearGradient id="g-the" x1="0" y1="0" x2="1" y2="1"><stop offset="0%" stop-color="#a1887f"/><stop offset="100%" stop-color="#5d4037"/></linearGradient>
    <linearGradient id="g-kiosque" x1="0" y1="0" x2="1" y2="1"><stop offset="0%" stop-color="#90a4ae"/><stop offset="100%" stop-color="#546e7a"/></linearGradient>
    <linearGradient id="g-optic" x1="0" y1="0" x2="1" y2="1"><stop offset="0%" stop-color="#7986cb"/><stop offset="100%" stop-color="#3f51b5"/></linearGradient>
    <linearGradient id="g-arcade" x1="0" y1="0" x2="1" y2="1"><stop offset="0%" stop-color="#90a4ae"/><stop offset="100%" stop-color="#546e7a"/></linearGradient>
    <linearGradient id="g-bowl" x1="0" y1="0" x2="1" y2="1"><stop offset="0%" stop-color="#ff6e40"/><stop offset="100%" stop-color="#bf360c"/></linearGradient>
    <linearGradient id="g-sporta" x1="0" y1="0" x2="1" y2="1"><stop offset="0%" stop-color="#ff7043"/><stop offset="100%" stop-color="#bf360c"/></linearGradient>
    <linearGradient id="g-parfum" x1="0" y1="0" x2="1" y2="1"><stop offset="0%" stop-color="#ec407a"/><stop offset="100%" stop-color="#880e4f"/></linearGradient>
    <linearGradient id="g-voyage" x1="0" y1="0" x2="1" y2="1"><stop offset="0%" stop-color="#29b6f6"/><stop offset="100%" stop-color="#01579b"/></linearGradient>
    <linearGradient id="g-cafe" x1="0" y1="0" x2="1" y2="1"><stop offset="0%" stop-color="#90a4ae"/><stop offset="100%" stop-color="#546e7a"/></linearGradient>
    <!-- Fontaine gradient -->
    <radialGradient id="g-fontaine" cx="40%" cy="40%"><stop offset="0%" stop-color="#b3e5fc"/><stop offset="30%" stop-color="#81d4fa"/><stop offset="60%" stop-color="#4fc3f7"/><stop offset="100%" stop-color="#0288d1"/></radialGradient>
    <!-- Sol gradient -->
    <linearGradient id="g-mur" x1="0" y1="0" x2="0" y2="1"><stop offset="0%" stop-color="#3d3027"/><stop offset="50%" stop-color="#4a3c2e"/><stop offset="100%" stop-color="#554636"/></linearGradient>
    <!-- Entree gradient -->
    <linearGradient id="g-entree" x1="0" y1="0" x2="1" y2="1"><stop offset="0%" stop-color="#c8e6c9"/><stop offset="50%" stop-color="#a5d6a7"/><stop offset="100%" stop-color="#81c784"/></linearGradient>
    <!-- Ombres -->
    <filter id="shop-shadow" x="-5%" y="-5%" width="115%" height="115%">
      <feDropShadow dx="0.5" dy="1" stdDeviation="1" flood-color="#000" flood-opacity="0.35"/>
    </filter>
    <filter id="fontaine-glow" x="-30%" y="-30%" width="160%" height="160%">
      <feGaussianBlur in="SourceGraphic" stdDeviation="3" result="blur"/>
      <feMerge><feMergeNode in="blur"/><feMergeNode in="SourceGraphic"/></feMerge>
    </filter>
    <filter id="ecran-glow" x="-20%" y="-20%" width="140%" height="140%">
      <feGaussianBlur in="SourceGraphic" stdDeviation="0.5" result="blur"/>
      <feMerge><feMergeNode in="blur"/><feMergeNode in="SourceGraphic"/></feMerge>
    </filter>
  </defs>

  <!-- Fond -->
  <rect class="bg" width="800" height="600"/>

  <!-- Titre -->
  <text class="title" x="400" y="22">VIRUS - CENTRE COMMERCIAL</text>
  <text class="subtitle" x="400" y="30">Plan du centre commercial (8000x6000) - 29 boutiques</text>

  <!-- Sol du mall - carrelage -->
  <rect x="40" y="40" width="720" height="540" fill="#c9c1b3" rx="3"/>
  <!-- Grille carrelage -->
  <g opacity="0.08">
    <line x1="40" y1="40" x2="40" y2="580" stroke="#000" stroke-width="0.2"/>
    <line x1="100" y1="40" x2="100" y2="580" stroke="#000" stroke-width="0.15"/>
    <line x1="160" y1="40" x2="160" y2="580" stroke="#000" stroke-width="0.15"/>
    <line x1="220" y1="40" x2="220" y2="580" stroke="#000" stroke-width="0.15"/>
    <line x1="280" y1="40" x2="280" y2="580" stroke="#000" stroke-width="0.15"/>
    <line x1="340" y1="40" x2="340" y2="580" stroke="#000" stroke-width="0.15"/>
    <line x1="400" y1="40" x2="400" y2="580" stroke="#000" stroke-width="0.15"/>
    <line x1="460" y1="40" x2="460" y2="580" stroke="#000" stroke-width="0.15"/>
    <line x1="520" y1="40" x2="520" y2="580" stroke="#000" stroke-width="0.15"/>
    <line x1="580" y1="40" x2="580" y2="580" stroke="#000" stroke-width="0.15"/>
    <line x1="640" y1="40" x2="640" y2="580" stroke="#000" stroke-width="0.15"/>
    <line x1="700" y1="40" x2="700" y2="580" stroke="#000" stroke-width="0.15"/>
    <line x1="760" y1="40" x2="760" y2="580" stroke="#000" stroke-width="0.15"/>
    <line x1="40" y1="100" x2="760" y2="100" stroke="#000" stroke-width="0.15"/>
    <line x1="40" y1="160" x2="760" y2="160" stroke="#000" stroke-width="0.15"/>
    <line x1="40" y1="220" x2="760" y2="220" stroke="#000" stroke-width="0.15"/>
    <line x1="40" y1="280" x2="760" y2="280" stroke="#000" stroke-width="0.15"/>
    <line x1="40" y1="340" x2="760" y2="340" stroke="#000" stroke-width="0.15"/>
    <line x1="40" y1="400" x2="760" y2="400" stroke="#000" stroke-width="0.15"/>
    <line x1="40" y1="460" x2="760" y2="460" stroke="#000" stroke-width="0.15"/>
    <line x1="40" y1="520" x2="760" y2="520" stroke="#000" stroke-width="0.15"/>
  </g>

  <!-- Murs exterieurs -->
  <rect x="40" y="40" width="720" height="2.5" fill="url(#g-mur)"/>
  <rect x="40" y="577.5" width="720" height="2.5" fill="url(#g-mur)"/>
  <rect x="40" y="40" width="2.5" height="540" fill="url(#g-mur)"/>
  <rect x="757.5" y="40" width="2.5" height="540" fill="url(#g-mur)"/>

  <!-- ==================== -->
  <!-- ALLEES PRINCIPALES -->
  <!-- ==================== -->
  <rect x="373" y="49" width="18" height="525" fill="rgba(255,248,225,0.06)" stroke="rgba(139,119,101,0.12)" stroke-width="0.3"/>
  <rect x="49" y="283" width="702" height="18" fill="rgba(255,248,225,0.06)" stroke="rgba(139,119,101,0.12)" stroke-width="0.3"/>
  <!-- Allees secondaires -->
  <rect x="49" y="157" width="315" height="9" fill="rgba(255,248,225,0.04)"/>
  <rect x="400" y="157" width="351" height="9" fill="rgba(255,248,225,0.04)"/>
  <rect x="49" y="427" width="315" height="9" fill="rgba(255,248,225,0.04)"/>
  <rect x="400" y="427" width="351" height="9" fill="rgba(255,248,225,0.04)"/>

  <!-- ==================== -->
  <!-- ENTREES -->
  <!-- ==================== -->
  <rect class="entree" x="373" y="576" width="18" height="4" fill="url(#g-entree)"/>
  <text class="entree-text" x="382" y="586">ENTREE SUD</text>
  <rect class="entree" x="373" y="40" width="18" height="4" fill="url(#g-entree)"/>
  <text class="entree-text" x="382" y="38">ENTREE NORD</text>
  <rect class="entree" x="40" y="292" width="4" height="11" fill="url(#g-entree)"/>
  <text class="entree-text" x="32" y="299" transform="rotate(-90,32,299)">OUEST</text>
  <rect class="entree" x="756" y="292" width="4" height="11" fill="url(#g-entree)"/>
  <text class="entree-text" x="770" y="299" transform="rotate(90,770,299)">EST</text>
  <rect class="entree" x="40" y="112" width="4" height="9" fill="url(#g-entree)"/>
  <text class="entree-text" x="32" y="118" transform="rotate(-90,32,118)">PARK A</text>
  <rect class="entree" x="756" y="112" width="4" height="9" fill="url(#g-entree)"/>
  <text class="entree-text" x="770" y="118" transform="rotate(90,770,118)">PARK B</text>

  <!-- Tapis rouge entree sud -->
  <rect x="373" y="558" width="18" height="18" fill="#c62828" opacity="0.6" rx="1"/>

  <!-- ==================== -->
  <!-- AILE NORD-OUEST -->
  <!-- ==================== -->

  <!-- BOUTIQUE MODE -->
  <rect class="shop" x="45" y="45" width="45" height="36" fill="url(#g-mode)" stroke="#ad1457" filter="url(#shop-shadow)"/>
  <text class="shop-icon" x="68" y="60">&#128087;</text>
  <text class="shop-text" x="68" y="72">MODE</text>
  <g class="obj">
    <rect class="obj-portant" x="48" y="48" width="6" height="1.2"/>
    <rect class="obj-portant" x="48" y="55" width="6" height="1.2"/>
    <rect class="obj-portant" x="48" y="62" width="6" height="1.2"/>
    <rect class="obj-miroir" x="56" y="49" width="0.8" height="3"/>
    <rect class="obj-miroir" x="56" y="57" width="0.8" height="3"/>
    <rect class="obj-cabine" x="82" y="48" width="4" height="5"/>
    <rect class="obj-cabine" x="82" y="56" width="4" height="5"/>
    <rect class="obj-comptoir" x="62" y="73" width="12" height="2"/>
    <rect class="obj-caisse" x="66" y="71" width="3" height="2.5"/>
  </g>

  <!-- PHARMACIE -->
  <rect class="shop" x="45" y="90" width="45" height="32" fill="url(#g-pharma)" stroke="#2e7d32" filter="url(#shop-shadow)"/>
  <text class="shop-icon" x="68" y="103">&#128138;</text>
  <text class="shop-text" x="68" y="114">PHARMACIE</text>
  <g class="obj">
    <rect class="obj-etagere" x="48" y="93" width="8" height="1.4"/>
    <rect class="obj-etagere" x="48" y="97" width="8" height="1.4"/>
    <rect class="obj-etagere" x="48" y="101" width="8" height="1.4"/>
    <rect class="obj-etagere" x="48" y="105" width="8" height="1.4"/>
    <rect class="obj-vitrine" x="80" y="95" width="6" height="3"/>
    <rect class="obj-comptoir" x="60" y="115" width="12" height="2"/>
    <rect class="obj-caisse" x="64" y="113" width="3" height="2.5"/>
  </g>

  <!-- LIBRAIRIE -->
  <rect class="shop" x="45" y="130" width="45" height="32" fill="url(#g-livre)" stroke="#4e342e" filter="url(#shop-shadow)"/>
  <text class="shop-icon" x="68" y="143">&#128218;</text>
  <text class="shop-text" x="68" y="154">LIBRAIRIE</text>
  <g class="obj">
    <rect class="obj-etagere" x="48" y="133" width="8" height="1.4"/>
    <rect class="obj-etagere" x="48" y="137" width="8" height="1.4"/>
    <rect class="obj-etagere" x="48" y="141" width="8" height="1.4"/>
    <rect class="obj-etagere" x="82" y="133" width="5" height="1.4"/>
    <rect class="obj-etagere" x="82" y="137" width="5" height="1.4"/>
    <circle class="obj-table" cx="68" cy="149" r="2.5"/>
    <circle class="obj-table" cx="76" cy="149" r="2.5"/>
    <rect class="obj-comptoir" x="60" y="155" width="12" height="2"/>
  </g>

  <!-- SALLE DE SPORT -->
  <rect class="shop" x="45" y="171" width="45" height="36" fill="url(#g-sport)" stroke="#d84315" filter="url(#shop-shadow)"/>
  <text class="shop-icon" x="68" y="186">&#127947;</text>
  <text class="shop-text" x="68" y="198">SPORT</text>
  <g class="obj">
    <rect class="obj-machine" x="50" y="175" width="4" height="5"/>
    <rect class="obj-machine" x="56" y="175" width="4" height="5"/>
    <rect class="obj-machine" x="62" y="175" width="4" height="5"/>
    <rect class="obj-miroir" x="83" y="175" width="0.8" height="6"/>
    <rect class="obj-miroir" x="83" y="185" width="0.8" height="6"/>
    <rect class="obj-comptoir" x="60" y="199" width="12" height="2"/>
  </g>

  <!-- ==================== -->
  <!-- AILE NORD-EST -->
  <!-- ==================== -->

  <!-- BIJOUTERIE -->
  <rect class="shop" x="710" y="45" width="45" height="36" fill="url(#g-bijoux)" stroke="#ff8f00" filter="url(#shop-shadow)"/>
  <text class="shop-icon" x="732" y="60">&#128142;</text>
  <text class="shop-text" x="732" y="72">BIJOUTERIE</text>
  <g class="obj">
    <rect class="obj-vitrine" x="714" y="48" width="6" height="3"/>
    <rect class="obj-vitrine" x="714" y="55" width="6" height="3"/>
    <rect class="obj-vitrine" x="714" y="62" width="6" height="3"/>
    <rect class="obj-miroir" x="748" y="50" width="0.8" height="3.5"/>
    <rect class="obj-comptoir" x="725" y="73" width="12" height="2"/>
    <rect class="obj-caisse" x="729" y="71" width="3" height="2.5"/>
  </g>

  <!-- TECH -->
  <rect class="shop" x="710" y="90" width="45" height="32" fill="url(#g-techno)" stroke="#1565c0" filter="url(#shop-shadow)"/>
  <text class="shop-icon" x="732" y="103">&#128241;</text>
  <text class="shop-text" x="732" y="114">TECH</text>
  <g class="obj">
    <circle class="obj-table" cx="720" cy="98" r="2.5"/>
    <circle class="obj-table" cx="728" cy="98" r="2.5"/>
    <circle class="obj-table" cx="736" cy="98" r="2.5"/>
    <rect class="obj-ecran" x="745" y="94" width="5" height="3" filter="url(#ecran-glow)"/>
    <rect class="obj-ecran" x="745" y="100" width="5" height="3" filter="url(#ecran-glow)"/>
    <rect class="obj-etagere" x="714" y="106" width="8" height="1.4"/>
    <rect class="obj-etagere" x="714" y="110" width="8" height="1.4"/>
    <rect class="obj-comptoir" x="725" y="115" width="12" height="2"/>
  </g>

  <!-- CINEMA -->
  <rect class="shop" x="710" y="130" width="45" height="41" fill="url(#g-cinema)" stroke="#6a1b9a" filter="url(#shop-shadow)"/>
  <text class="shop-icon" x="732" y="147">&#127916;</text>
  <text class="shop-text" x="732" y="160">CINEMA</text>
  <g class="obj">
    <rect class="obj-ecran" x="714" y="133" width="38" height="4" filter="url(#ecran-glow)"/>
    <rect x="717" y="142" width="32" height="1.5" fill="#546e7a" stroke="#455a64" stroke-width="0.2"/>
    <rect x="717" y="147" width="32" height="1.5" fill="#546e7a" stroke="#455a64" stroke-width="0.2"/>
    <rect x="717" y="152" width="32" height="1.5" fill="#546e7a" stroke="#455a64" stroke-width="0.2"/>
    <rect x="717" y="157" width="32" height="1.5" fill="#546e7a" stroke="#455a64" stroke-width="0.2"/>
    <rect class="obj-comptoir" x="725" y="163" width="12" height="2"/>
  </g>

  <!-- RESTAURANT -->
  <rect class="shop" x="710" y="180" width="45" height="32" fill="url(#g-resto)" stroke="#e65100" filter="url(#shop-shadow)"/>
  <text class="shop-icon" x="732" y="193">&#127860;</text>
  <text class="shop-text" x="732" y="204">RESTAURANT</text>
  <g class="obj">
    <circle class="obj-table" cx="718" cy="186" r="2.5"/>
    <circle class="obj-table" cx="728" cy="186" r="2.5"/>
    <circle class="obj-table" cx="738" cy="186" r="2.5"/>
    <circle class="obj-table" cx="718" cy="196" r="2.5"/>
    <circle class="obj-table" cx="728" cy="196" r="2.5"/>
    <rect class="obj-comptoir" x="743" y="185" width="8" height="12"/>
    <rect class="obj-caisse" x="744" y="200" width="3" height="2.5"/>
  </g>

  <!-- ==================== -->
  <!-- AILE GAUCHE CENTRE -->
  <!-- ==================== -->

  <!-- ANIMALERIE -->
  <rect class="shop" x="45" y="229" width="45" height="36" fill="url(#g-anime)" stroke="#f57f17" filter="url(#shop-shadow)"/>
  <text class="shop-icon" x="68" y="244">&#128058;</text>
  <text class="shop-text" x="68" y="256">ANIMALERIE</text>
  <g class="obj">
    <rect class="obj-vitrine" x="48" y="232" width="8" height="5" style="fill:rgba(33,150,243,0.2); stroke:#42a5f5;"/>
    <rect class="obj-vitrine" x="48" y="240" width="7" height="5"/>
    <rect class="obj-vitrine" x="48" y="248" width="7" height="5"/>
    <rect class="obj-etagere" x="80" y="234" width="7" height="1.4"/>
    <rect class="obj-etagere" x="80" y="238" width="7" height="1.4"/>
    <rect class="obj-comptoir" x="62" y="257" width="10" height="2"/>
  </g>

  <!-- PATISSERIE -->
  <rect class="shop" x="45" y="274" width="45" height="36" fill="url(#g-patiss)" stroke="#c2185b" filter="url(#shop-shadow)"/>
  <text class="shop-icon" x="68" y="289">&#127874;</text>
  <text class="shop-text" x="68" y="301">PATISSERIE</text>
  <g class="obj">
    <rect class="obj-vitrine" x="48" y="277" width="8" height="4"/>
    <rect class="obj-vitrine" x="48" y="284" width="8" height="4"/>
    <circle class="obj-table" cx="70" cy="282" r="2.5"/>
    <circle class="obj-table" cx="78" cy="282" r="2.5"/>
    <circle class="obj-table" cx="74" cy="292" r="2.5"/>
    <rect class="obj-comptoir" x="62" y="302" width="10" height="2"/>
  </g>

  <!-- ==================== -->
  <!-- AILE DROITE CENTRE -->
  <!-- ==================== -->

  <!-- BIO & NATURE -->
  <rect class="shop" x="710" y="229" width="45" height="36" fill="url(#g-bio)" stroke="#558b2f" filter="url(#shop-shadow)"/>
  <text class="shop-icon" x="732" y="244">&#127811;</text>
  <text class="shop-text" x="732" y="256">BIO</text>
  <g class="obj">
    <rect class="obj-etagere" x="714" y="233" width="7" height="1.4"/>
    <rect class="obj-etagere" x="714" y="237" width="7" height="1.4"/>
    <rect class="obj-etagere" x="714" y="241" width="7" height="1.4"/>
    <rect class="obj-etagere" x="714" y="245" width="7" height="1.4"/>
    <circle class="obj-table" cx="738" cy="240" r="2.5"/>
    <circle class="obj-table" cx="746" cy="240" r="2.5"/>
    <rect class="obj-comptoir" x="725" y="257" width="12" height="2"/>
  </g>

  <!-- SALON DE THE -->
  <rect class="shop" x="710" y="274" width="45" height="36" fill="url(#g-the)" stroke="#5d4037" filter="url(#shop-shadow)"/>
  <text class="shop-icon" x="732" y="289">&#9749;</text>
  <text class="shop-text" x="732" y="301">SALON DE THE</text>
  <g class="obj">
    <circle class="obj-table" cx="720" cy="282" r="2.5"/>
    <circle class="obj-table" cx="730" cy="282" r="2.5"/>
    <circle class="obj-table" cx="720" cy="294" r="2.5"/>
    <circle class="obj-table" cx="730" cy="294" r="2.5"/>
    <rect class="obj-comptoir" x="742" y="280" width="8" height="12"/>
    <rect class="obj-caisse" x="743" y="296" width="3" height="2.5"/>
  </g>

  <!-- ==================== -->
  <!-- AILE SUD-OUEST -->
  <!-- ==================== -->

  <!-- SUPERMARCHE -->
  <rect class="shop" x="45" y="328" width="63" height="45" fill="url(#g-super)" stroke="#558b2f" filter="url(#shop-shadow)"/>
  <text class="shop-icon" x="77" y="347">&#128722;</text>
  <text class="shop-text" x="77" y="362">SUPERMARCHE</text>
  <g class="obj">
    <rect class="obj-rayon" x="50" y="332" width="14" height="2.5"/>
    <rect class="obj-rayon" x="50" y="338" width="14" height="2.5"/>
    <rect class="obj-rayon" x="50" y="344" width="14" height="2.5"/>
    <rect class="obj-rayon" x="50" y="350" width="14" height="2.5"/>
    <rect class="obj-rayon" x="50" y="356" width="14" height="2.5"/>
    <rect class="obj-rayon" x="50" y="362" width="14" height="2.5"/>
    <rect class="obj-vitrine" x="72" y="332" width="8" height="5" style="fill:rgba(33,150,243,0.25);"/>
    <rect class="obj-comptoir" x="82" y="360" width="10" height="2"/>
    <rect class="obj-caisse" x="84" y="356" width="3" height="2.5"/>
    <rect class="obj-caisse" x="92" y="356" width="3" height="2.5"/>
  </g>

  <!-- JEUX VIDEO -->
  <rect class="shop" x="45" y="382" width="45" height="32" fill="url(#g-jeux)" stroke="#3949ab" filter="url(#shop-shadow)"/>
  <text class="shop-icon" x="68" y="395">&#127918;</text>
  <text class="shop-text" x="68" y="406">JEUX VIDEO</text>
  <g class="obj">
    <rect class="obj-etagere" x="48" y="385" width="8" height="1.4"/>
    <rect class="obj-etagere" x="48" y="389" width="8" height="1.4"/>
    <rect class="obj-etagere" x="48" y="393" width="8" height="1.4"/>
    <rect class="obj-ecran" x="80" y="386" width="5" height="3" filter="url(#ecran-glow)"/>
    <rect class="obj-ecran" x="80" y="393" width="5" height="3" filter="url(#ecran-glow)"/>
    <rect class="obj-comptoir" x="60" y="407" width="12" height="2"/>
  </g>

  <!-- JARDINERIE -->
  <rect class="shop" x="45" y="423" width="45" height="32" fill="url(#g-jardin)" stroke="#00695c" filter="url(#shop-shadow)"/>
  <text class="shop-icon" x="68" y="436">&#127808;</text>
  <text class="shop-text" x="68" y="447">JARDINERIE</text>
  <g class="obj">
    <circle class="obj-table" cx="55" cy="430" r="2.5" style="fill:#4caf50;"/>
    <circle class="obj-table" cx="63" cy="430" r="2.5" style="fill:#4caf50;"/>
    <circle class="obj-table" cx="55" cy="440" r="2.5" style="fill:#4caf50;"/>
    <circle class="obj-table" cx="63" cy="440" r="2.5" style="fill:#4caf50;"/>
    <rect class="obj-etagere" x="78" y="428" width="7" height="1.4"/>
    <rect class="obj-etagere" x="78" y="433" width="7" height="1.4"/>
    <rect class="obj-comptoir" x="60" y="448" width="10" height="2"/>
    <circle class="obj-plante" cx="82" cy="445" r="1.8"/>
    <circle class="obj-plante" cx="50" cy="448" r="1.8"/>
  </g>

  <!-- MEUBLES -->
  <rect class="shop" x="45" y="463" width="45" height="36" fill="url(#g-meuble)" stroke="#4e342e" filter="url(#shop-shadow)"/>
  <text class="shop-icon" x="68" y="478">&#128186;</text>
  <text class="shop-text" x="68" y="490">MEUBLES</text>
  <g class="obj">
    <rect class="obj-canape" x="50" y="468" width="8" height="3" rx="1"/>
    <rect class="obj-canape" x="50" y="480" width="8" height="3" rx="1" style="fill:#e91e63; stroke:#c2185b;"/>
    <circle class="obj-table" cx="70" cy="475" r="3"/>
    <rect class="obj-table" x="75" y="480" width="7" height="4" rx="1"/>
    <rect class="obj-comptoir" x="60" y="492" width="12" height="2"/>
  </g>

  <!-- TOILETTES SUD -->
  <rect class="shop" x="45" y="508" width="36" height="25" fill="url(#g-wc)" stroke="#37474f" filter="url(#shop-shadow)"/>
  <text class="shop-icon" x="63" y="518">&#128701;</text>
  <text class="shop-text" x="63" y="528">WC SUD</text>
  <g class="obj">
    <rect class="obj-cabine" x="68" y="510" width="4" height="5"/>
    <rect class="obj-cabine" x="68" y="517" width="4" height="5"/>
    <rect class="obj-cabine" x="68" y="524" width="4" height="5"/>
    <rect class="obj-lavabo" x="50" y="512" width="3" height="2"/>
    <rect class="obj-lavabo" x="50" y="518" width="3" height="2"/>
  </g>

  <!-- ==================== -->
  <!-- AILE SUD-EST -->
  <!-- ==================== -->

  <!-- FOOD COURT -->
  <rect class="shop" x="692" y="328" width="63" height="45" fill="url(#g-food)" stroke="#a33000" filter="url(#shop-shadow)"/>
  <text class="shop-icon" x="724" y="347">&#127828;</text>
  <text class="shop-text" x="724" y="362">FOOD COURT</text>
  <g class="obj">
    <rect x="696" y="332" width="10" height="3" fill="#e74c3c" stroke="#c62828" stroke-width="0.2"/>
    <rect x="696" y="338" width="10" height="3" fill="#f39c12" stroke="#e67e22" stroke-width="0.2"/>
    <rect x="696" y="344" width="10" height="3" fill="#2196f3" stroke="#1976d2" stroke-width="0.2"/>
    <circle class="obj-table" cx="720" cy="335" r="2.5"/>
    <circle class="obj-table" cx="730" cy="335" r="2.5"/>
    <circle class="obj-table" cx="740" cy="335" r="2.5"/>
    <circle class="obj-table" cx="720" cy="348" r="2.5"/>
    <circle class="obj-table" cx="730" cy="348" r="2.5"/>
    <circle class="obj-table" cx="740" cy="348" r="2.5"/>
  </g>

  <!-- ARTICLES SPORT -->
  <rect class="shop" x="710" y="382" width="45" height="32" fill="url(#g-sporta)" stroke="#bf360c" filter="url(#shop-shadow)"/>
  <text class="shop-icon" x="732" y="395">&#127936;</text>
  <text class="shop-text" x="732" y="406">SPORT</text>
  <g class="obj">
    <rect class="obj-etagere" x="714" y="385" width="7" height="1.4"/>
    <rect class="obj-etagere" x="714" y="389" width="7" height="1.4"/>
    <rect class="obj-etagere" x="714" y="393" width="7" height="1.4"/>
    <rect class="obj-portant" x="738" y="387" width="6" height="1.2"/>
    <rect class="obj-portant" x="738" y="393" width="6" height="1.2"/>
    <rect class="obj-comptoir" x="725" y="407" width="12" height="2"/>
  </g>

  <!-- PARFUMERIE -->
  <rect class="shop" x="710" y="423" width="45" height="32" fill="url(#g-parfum)" stroke="#880e4f" filter="url(#shop-shadow)"/>
  <text class="shop-icon" x="732" y="436">&#128132;</text>
  <text class="shop-text" x="732" y="447">PARFUMERIE</text>
  <g class="obj">
    <rect class="obj-vitrine" x="714" y="426" width="7" height="3"/>
    <rect class="obj-vitrine" x="714" y="433" width="7" height="3"/>
    <rect class="obj-vitrine" x="714" y="440" width="7" height="3"/>
    <rect class="obj-miroir" x="747" y="428" width="0.8" height="4"/>
    <rect class="obj-miroir" x="747" y="436" width="0.8" height="4"/>
    <rect class="obj-comptoir" x="725" y="448" width="12" height="2"/>
  </g>

  <!-- AGENCE VOYAGE -->
  <rect class="shop" x="710" y="463" width="45" height="36" fill="url(#g-voyage)" stroke="#01579b" filter="url(#shop-shadow)"/>
  <text class="shop-icon" x="732" y="478">&#9992;</text>
  <text class="shop-text" x="732" y="490">VOYAGE</text>
  <g class="obj">
    <rect class="obj-table" x="716" y="468" width="7" height="4" rx="1"/>
    <rect class="obj-table" x="716" y="478" width="7" height="4" rx="1"/>
    <rect class="obj-table" x="716" y="488" width="7" height="4" rx="1"/>
    <rect class="obj-ecran" x="740" y="470" width="5" height="3" filter="url(#ecran-glow)"/>
    <rect class="obj-comptoir" x="730" y="492" width="12" height="2"/>
  </g>

  <!-- TOILETTES SUD-EST -->
  <rect class="shop" x="719" y="508" width="36" height="25" fill="url(#g-wc)" stroke="#37474f" filter="url(#shop-shadow)"/>
  <text class="shop-icon" x="737" y="518">&#128701;</text>
  <text class="shop-text" x="737" y="528">WC SE</text>
  <g class="obj">
    <rect class="obj-cabine" x="722" y="510" width="4" height="5"/>
    <rect class="obj-cabine" x="722" y="517" width="4" height="5"/>
    <rect class="obj-cabine" x="722" y="524" width="4" height="5"/>
    <rect class="obj-lavabo" x="740" y="512" width="3" height="2"/>
    <rect class="obj-lavabo" x="740" y="518" width="3" height="2"/>
  </g>

  <!-- ==================== -->
  <!-- ZONE CENTRALE HAUT -->
  <!-- ==================== -->

  <!-- POSTE SECURITE -->
  <rect class="shop" x="292" y="45" width="41" height="27" fill="url(#g-secu)" stroke="#c62828" filter="url(#shop-shadow)"/>
  <text class="shop-icon" x="312" y="56">&#128225;</text>
  <text class="shop-text" x="312" y="66">SECURITE</text>
  <g class="obj">
    <rect class="obj-table" x="296" y="48" width="6" height="3.5" rx="1"/>
    <rect class="obj-table" x="296" y="55" width="6" height="3.5" rx="1"/>
    <rect class="obj-ecran" x="322" y="48" width="5" height="3" filter="url(#ecran-glow)"/>
    <rect class="obj-ecran" x="322" y="53" width="5" height="3" filter="url(#ecran-glow)"/>
    <rect class="obj-ecran" x="322" y="58" width="5" height="3" filter="url(#ecran-glow)"/>
    <rect class="obj-comptoir" x="304" y="66" width="13" height="2"/>
  </g>

  <!-- TOILETTES NORD -->
  <rect class="shop" x="342" y="45" width="32" height="23" fill="url(#g-wc)" stroke="#37474f" filter="url(#shop-shadow)"/>
  <text class="shop-icon" x="358" y="54">&#128701;</text>
  <text class="shop-text" x="358" y="62">WC NORD</text>
  <g class="obj">
    <rect class="obj-cabine" x="362" y="47" width="4" height="5"/>
    <rect class="obj-cabine" x="362" y="53" width="4" height="5"/>
    <rect class="obj-cabine" x="362" y="59" width="4" height="5"/>
    <rect class="obj-lavabo" x="346" y="49" width="3" height="2"/>
    <rect class="obj-lavabo" x="346" y="55" width="3" height="2"/>
  </g>

  <!-- CAFE DU CENTRE -->
  <rect class="shop" x="382" y="45" width="41" height="27" fill="url(#g-cafe)" stroke="#546e7a" filter="url(#shop-shadow)"/>
  <text class="shop-icon" x="402" y="56">&#127863;</text>
  <text class="shop-text" x="402" y="66">CAFE</text>
  <g class="obj">
    <rect class="obj-comptoir" x="385" y="48" width="13" height="2.2" style="fill:#4e342e;"/>
    <rect class="obj-caisse" x="386" y="52" width="3" height="2.5"/>
    <circle class="obj-table" cx="404" cy="50" r="2.5"/>
    <circle class="obj-table" cx="414" cy="50" r="2.5"/>
    <circle class="obj-table" cx="404" cy="60" r="2.5"/>
    <circle class="obj-table" cx="414" cy="60" r="2.5"/>
  </g>

  <!-- ==================== -->
  <!-- ILOTS CENTRAUX -->
  <!-- ==================== -->

  <!-- KIOSQUE -->
  <rect class="shop" x="265" y="148" width="54" height="32" fill="url(#g-kiosque)" stroke="#546e7a" stroke-dasharray="2,1" filter="url(#shop-shadow)"/>
  <text class="shop-icon" x="292" y="161">&#128240;</text>
  <text class="shop-text" x="292" y="172">KIOSQUE</text>
  <g class="obj">
    <rect class="obj-etagere" x="268" y="151" width="10" height="1.4"/>
    <rect class="obj-etagere" x="268" y="155" width="10" height="1.4"/>
    <rect class="obj-etagere" x="302" y="151" width="10" height="1.4"/>
    <rect class="obj-etagere" x="302" y="155" width="10" height="1.4"/>
    <rect class="obj-comptoir" x="282" y="172" width="12" height="2"/>
    <rect class="obj-caisse" x="285" y="169" width="3" height="2.5"/>
  </g>

  <!-- OPTICIEN -->
  <rect class="shop" x="445" y="148" width="54" height="32" fill="url(#g-optic)" stroke="#3f51b5" stroke-dasharray="2,1" filter="url(#shop-shadow)"/>
  <text class="shop-icon" x="472" y="161">&#128083;</text>
  <text class="shop-text" x="472" y="172">OPTICIEN</text>
  <g class="obj">
    <rect class="obj-vitrine" x="448" y="151" width="8" height="4"/>
    <rect class="obj-vitrine" x="448" y="158" width="8" height="4"/>
    <rect class="obj-vitrine" x="488" y="151" width="8" height="4"/>
    <rect class="obj-miroir" x="490" y="158" width="0.8" height="4"/>
    <rect class="obj-comptoir" x="462" y="172" width="12" height="2"/>
  </g>

  <!-- FONTAINE CENTRALE -->
  <g filter="url(#fontaine-glow)">
    <circle cx="382" cy="283" r="16" fill="url(#g-fontaine)" stroke="#78909c" stroke-width="1.2"/>
    <circle cx="382" cy="283" r="10" fill="none" stroke="rgba(255,255,255,0.15)" stroke-width="0.5"/>
    <circle cx="379" cy="280" r="5" fill="rgba(255,255,255,0.2)"/>
    <circle cx="382" cy="283" r="3" fill="rgba(255,255,255,0.15)"/>
  </g>
  <text class="fontaine-text" x="382" y="304">FONTAINE</text>

  <!-- SALLE D'ARCADE -->
  <rect class="shop" x="265" y="382" width="54" height="36" fill="url(#g-arcade)" stroke="#546e7a" stroke-dasharray="2,1" filter="url(#shop-shadow)"/>
  <text class="shop-icon" x="292" y="397">&#127922;</text>
  <text class="shop-text" x="292" y="409">ARCADE</text>
  <g class="obj">
    <rect class="obj-machine" x="270" y="386" width="4" height="5"/>
    <rect class="obj-machine" x="276" y="386" width="4" height="5"/>
    <rect class="obj-machine" x="282" y="386" width="4" height="5"/>
    <rect class="obj-machine" x="302" y="386" width="4" height="5"/>
    <rect class="obj-machine" x="308" y="386" width="4" height="5"/>
    <rect class="obj-machine" x="270" y="398" width="4" height="5"/>
    <rect class="obj-machine" x="276" y="398" width="4" height="5"/>
    <rect class="obj-comptoir" x="300" y="408" width="12" height="2"/>
  </g>

  <!-- BOWLING -->
  <rect class="shop" x="445" y="382" width="54" height="36" fill="url(#g-bowl)" stroke="#bf360c" stroke-dasharray="2,1" filter="url(#shop-shadow)"/>
  <text class="shop-icon" x="472" y="397">&#127923;</text>
  <text class="shop-text" x="472" y="409">BOWLING</text>
  <g class="obj">
    <rect class="obj-piste" x="450" y="387" width="22" height="3"/>
    <rect class="obj-piste" x="450" y="394" width="22" height="3"/>
    <rect class="obj-piste" x="450" y="401" width="22" height="3"/>
    <rect class="obj-comptoir" x="482" y="408" width="12" height="2"/>
    <rect class="obj-canape" x="482" y="388" width="8" height="3" rx="1"/>
    <rect class="obj-canape" x="482" y="396" width="8" height="3" rx="1"/>
  </g>

  <!-- ==================== -->
  <!-- DECORATIONS -->
  <!-- ==================== -->

  <!-- Plantes decoratives -->
  <g opacity="0.7">
    <circle class="obj-plante" cx="103" cy="47" r="2.2"/>
    <circle class="obj-plante" cx="103" cy="126" r="2.2"/>
    <circle class="obj-plante" cx="103" cy="211" r="2.2"/>
    <circle class="obj-plante" cx="103" cy="319" r="2.2"/>
    <circle class="obj-plante" cx="103" cy="418" r="2.2"/>
    <circle class="obj-plante" cx="103" cy="499" r="2.2"/>
    <circle class="obj-plante" cx="688" cy="47" r="2.2"/>
    <circle class="obj-plante" cx="688" cy="126" r="2.2"/>
    <circle class="obj-plante" cx="688" cy="211" r="2.2"/>
    <circle class="obj-plante" cx="688" cy="319" r="2.2"/>
    <circle class="obj-plante" cx="688" cy="418" r="2.2"/>
    <circle class="obj-plante" cx="688" cy="499" r="2.2"/>
    <!-- Autour fontaine -->
    <circle class="obj-plante" cx="355" cy="279" r="2"/>
    <circle class="obj-plante" cx="409" cy="279" r="2"/>
    <circle class="obj-plante" cx="355" cy="306" r="2"/>
    <circle class="obj-plante" cx="409" cy="306" r="2"/>
  </g>

  <!-- Bancs -->
  <g fill="#8d6e63" stroke="#5d4037" stroke-width="0.2" opacity="0.6">
    <rect x="112" y="85" width="5" height="1.5" rx="0.5"/>
    <rect x="112" y="166" width="5" height="1.5" rx="0.5"/>
    <rect x="112" y="265" width="5" height="1.5" rx="0.5"/>
    <rect x="112" y="364" width="5" height="1.5" rx="0.5"/>
    <rect x="112" y="454" width="5" height="1.5" rx="0.5"/>
    <rect x="643" y="85" width="5" height="1.5" rx="0.5"/>
    <rect x="643" y="166" width="5" height="1.5" rx="0.5"/>
    <rect x="643" y="265" width="5" height="1.5" rx="0.5"/>
    <rect x="643" y="364" width="5" height="1.5" rx="0.5"/>
    <rect x="643" y="454" width="5" height="1.5" rx="0.5"/>
    <!-- Autour fontaine -->
    <rect x="364" y="279" width="5" height="1.5" rx="0.5"/>
    <rect x="396" y="279" width="5" height="1.5" rx="0.5"/>
    <rect x="364" y="306" width="5" height="1.5" rx="0.5"/>
    <rect x="396" y="306" width="5" height="1.5" rx="0.5"/>
  </g>

  <!-- Escalators -->
  <g>
    <rect x="202" y="45" width="7" height="3" fill="#78909c" stroke="#455a64" stroke-width="0.3" rx="1"/>
    <rect x="562" y="45" width="7" height="3" fill="#78909c" stroke="#455a64" stroke-width="0.3" rx="1"/>
    <rect x="202" y="573" width="7" height="3" fill="#78909c" stroke="#455a64" stroke-width="0.3" rx="1"/>
    <rect x="562" y="573" width="7" height="3" fill="#78909c" stroke="#455a64" stroke-width="0.3" rx="1"/>
    <rect x="373" y="220" width="7" height="3" fill="#78909c" stroke="#455a64" stroke-width="0.3" rx="1"/>
    <rect x="373" y="445" width="7" height="3" fill="#78909c" stroke="#455a64" stroke-width="0.3" rx="1"/>
  </g>

  <!-- Panneaux pub (neon style) -->
  <g>
    <rect x="175" y="44" width="10" height="6" fill="#1a1a2e" stroke="#37474f" stroke-width="0.3" rx="1"/>
    <text x="180" y="48.5" font-family="Arial" font-size="2.5" fill="#e0f7fa" text-anchor="middle" font-weight="bold">SOLDES</text>
    <rect x="562" y="44" width="10" height="6" fill="#1a1a2e" stroke="#37474f" stroke-width="0.3" rx="1"/>
    <text x="567" y="48.5" font-family="Arial" font-size="2.5" fill="#e0f7fa" text-anchor="middle" font-weight="bold">NOUVEAU</text>
  </g>

  <!-- Panneau directionnels -->
  <g opacity="0.8">
    <rect x="122" y="82" width="18" height="4" fill="#2c3e50" rx="1" stroke="#3d566e" stroke-width="0.3"/>
    <text x="131" y="85" font-family="Arial" font-size="2.5" fill="#f1c40f" text-anchor="middle" font-weight="bold">&#8592; BOUTIQUES NORD</text>
    <rect x="630" y="82" width="18" height="4" fill="#2c3e50" rx="1" stroke="#3d566e" stroke-width="0.3"/>
    <text x="639" y="85" font-family="Arial" font-size="2.5" fill="#f1c40f" text-anchor="middle" font-weight="bold">BOUTIQUES NORD &#8594;</text>
    <rect x="122" y="319" width="18" height="4" fill="#2c3e50" rx="1" stroke="#3d566e" stroke-width="0.3"/>
    <text x="131" y="322" font-family="Arial" font-size="2.5" fill="#f1c40f" text-anchor="middle" font-weight="bold">&#8592; BOUTIQUES SUD</text>
    <rect x="630" y="319" width="18" height="4" fill="#2c3e50" rx="1" stroke="#3d566e" stroke-width="0.3"/>
    <text x="639" y="322" font-family="Arial" font-size="2.5" fill="#f1c40f" text-anchor="middle" font-weight="bold">BOUTIQUES SUD &#8594;</text>
  </g>

  <!-- Distributeurs -->
  <g opacity="0.7">
    <rect x="148" y="158" width="3" height="4.5" fill="#455a64" stroke="#263238" stroke-width="0.2" rx="0.5"/>
    <rect x="149" y="159" width="1.5" height="1.5" fill="#1565c0" rx="0.3"/>
    <rect x="598" y="158" width="3" height="4.5" fill="#455a64" stroke="#263238" stroke-width="0.2" rx="0.5"/>
    <rect x="599" y="159" width="1.5" height="1.5" fill="#1565c0" rx="0.3"/>
    <rect x="148" y="428" width="3" height="4.5" fill="#455a64" stroke="#263238" stroke-width="0.2" rx="0.5"/>
    <rect x="149" y="429" width="1.5" height="1.5" fill="#1565c0" rx="0.3"/>
    <rect x="598" y="428" width="3" height="4.5" fill="#455a64" stroke="#263238" stroke-width="0.2" rx="0.5"/>
    <rect x="599" y="429" width="1.5" height="1.5" fill="#1565c0" rx="0.3"/>
  </g>

  <!-- ==================== -->
  <!-- LEGENDE -->
  <!-- ==================== -->
  <rect x="10" y="555" width="130" height="45" fill="#1a1a2e" rx="4" stroke="#34495e" stroke-width="0.5"/>
  <text class="legend-title" x="15" y="565">LEGENDE</text>

  <rect x="15" y="569" width="6" height="4" fill="url(#g-mode)" rx="0.5"/>
  <text class="legend-text" x="24" y="572">Boutiques mode/beaute</text>

  <rect x="15" y="576" width="6" height="4" fill="url(#g-super)" rx="0.5"/>
  <text class="legend-text" x="24" y="579">Alimentation</text>

  <rect x="15" y="583" width="6" height="4" fill="url(#g-kiosque)" rx="0.5"/>
  <text class="legend-text" x="24" y="586">Loisirs/Services</text>

  <rect x="75" y="569" width="6" height="4" fill="url(#g-wc)" rx="0.5"/>
  <text class="legend-text" x="84" y="572">Toilettes</text>

  <circle cx="78" cy="580" r="3" fill="url(#g-fontaine)" stroke="#78909c" stroke-width="0.5"/>
  <text class="legend-text" x="84" y="582">Fontaine</text>

  <rect x="75" y="585" width="6" height="2" fill="url(#g-entree)"/>
  <text class="legend-text" x="84" y="589">Entrees/Sorties</text>

  <!-- Dimensions -->
  <text class="subtitle" x="400" y="596">8000 x 6000 px | 29 boutiques | VIRUS v0.1 ALPHA</text>
</svg>