<svg version="1.1" xmlns="http://www.w3.org/2000/svg" xmlns:xlink="http://www.w3.org/1999/xlink" width="177.25" height="159.47131" viewBox="0,0,177.25,159.47131"><g transform="translate(-146.25,-100.26434)"><g data-paper-data="{&quot;isPaintingLayer&quot;:true}" fill-rule="nonzero" stroke-linejoin="miter" stroke-miterlimit="10" stroke-dasharray="" stroke-dashoffset="0" style="mix-blend-mode: normal"><path d="M146.25,259.73566v-159.47131h177.25v159.47131z" fill="#000752" stroke="none" stroke-width="0" stroke-linecap="butt"/><path d="M265.93987,195.96299c0.91152,4.09148 -1.86991,8.10448 -6.21252,8.96329c-4.3426,0.85881 -8.60191,-1.76178 -9.51344,-5.85326c-0.91152,-4.09148 1.86991,-8.10448 6.21252,-8.96329c4.3426,-0.85881 8.60191,1.76178 9.51344,5.85326z" fill="#ff0000" stroke="#ff0000" stroke-width="5" stroke-linecap="butt"/><path d="M263.58214,195.47568c0.77417,3.47496 -1.58815,6.88326 -5.27638,7.61266c-3.68824,0.7294 -7.30574,-1.49631 -8.0799,-4.97126c-0.77417,-3.47496 1.58815,-6.88326 5.27638,-7.61266c3.68824,-0.7294 7.30574,1.49631 8.0799,4.97126z" fill="#ff0000" stroke="#ff0000" stroke-width="5" stroke-linecap="butt"/><path d="M219.89086,204.1291c0.12487,0.56047 -0.25616,1.1102 -0.85103,1.22785c-0.59487,0.11765 -1.17834,-0.24134 -1.30321,-0.80182c-0.12487,-0.56047 0.25616,-1.1102 0.85103,-1.22785c0.59487,-0.11765 1.17834,0.24134 1.30321,0.80182z" fill="#ff0000" stroke="#ff0000" stroke-width="5" stroke-linecap="butt"/><path d="M218.72586,199.90942c0.12487,0.56047 -0.25616,1.1102 -0.85103,1.22785c-0.59487,0.11765 -1.17834,-0.24134 -1.30321,-0.80182c-0.12487,-0.56047 0.25616,-1.1102 0.85103,-1.22785c0.59487,-0.11765 1.17834,0.24134 1.30321,0.80182z" fill="#ff0000" stroke="#ff0000" stroke-width="5" stroke-linecap="butt"/><path d="M217.64062,195.03821c0.12487,0.56047 -0.25616,1.1102 -0.85103,1.22785c-0.59487,0.11765 -1.17834,-0.24134 -1.30321,-0.80182c-0.12487,-0.56047 0.25616,-1.1102 0.85103,-1.22785c0.59487,-0.11765 1.17834,0.24134 1.30321,0.80182z" fill="#ff0000" stroke="#ff0000" stroke-width="5" stroke-linecap="butt"/><path d="M224.20182,196.44923c1.63381,-0.74715 2.42681,0.79218 2.42681,0.79218l1.02092,2.0111c0.45499,1.98389 0.89832,3.96983 1.34086,5.95621c0,0 0.37307,1.67457 -1.40428,2.02607c-1.77735,0.35149 -2.15043,-1.32308 -2.15043,-1.32308c-0.41215,-1.84998 -0.8253,-3.69949 -1.22307,-5.55228l-0.85162,-1.62375c0,0 -0.793,-1.53932 0.8408,-2.28647z" fill="#ff0000" stroke="#ff0000" stroke-width="0.5" stroke-linecap="butt"/><path d="M218.62116,198.00133c1.77735,-0.35149 2.15043,1.32308 2.15043,1.32308l0.10683,0.47952c0.47578,2.18801 0.3834,4.18451 0.87984,6.33442c0,0 0.37307,1.67457 -1.40428,2.02607c-1.77735,0.35149 -2.15043,-1.32308 -2.15043,-1.32308c-0.47032,-2.17492 -0.38194,-4.16144 -0.87984,-6.33442l-0.10683,-0.47952c0,0 -0.37307,-1.67457 1.40428,-2.02607z" fill="#ff0000" stroke="#ff0000" stroke-width="0.5" stroke-linecap="butt"/><path d="M299.69611,206.6357c4.57054,1.19753 7.18236,3.35232 8.05789,6.47394c0.49154,1.75257 0.97699,1.93975 -1.61734,3.2944c-0.61782,0.3226 -1.48038,0.39892 -2.23169,0.58122c-2.519,0.61123 -6.3272,1.38578 -9.04592,1.36753c-3.24346,-0.02177 -6.22292,-1.4327 -9.48659,-1.58021c-1.44108,0.19823 -3.44079,0.24622 -4.71038,0.75834c-4.93114,1.98911 -10.22833,3.94728 -16.24572,4.42109c-2.11703,0.16669 -4.02765,-0.28749 -6.08629,-0.22982c-2.09785,0.05877 -3.01324,0.88493 -5.0756,-0.51637c-1.13285,-0.76973 -1.41187,-3.45314 -1.38554,-4.49583c0.04391,-1.73851 0.07578,-2.806 1.3007,-4.38361c1.53436,-1.17107 2.97804,-2.49094 5.03078,-3.34632c4.76381,-1.9851 11.12591,-2.3484 16.60101,-3.06383c3.18432,-0.41609 6.64719,-1.15047 9.89391,-1.28418c3.93745,-0.16215 7.82126,0.47794 11.6919,0.75393l1.7969,0.19419c0,0 1.51023,0.16487 1.512,1.05549z" fill="#ff0000" stroke="#ff0000" stroke-width="0.5" stroke-linecap="butt"/><path d="M268.91587,191.95582c1.53378,4.54883 9.90419,29.37349 13.66268,40.5203c1.11842,3.31696 -2.02711,5.92658 -5.82674,6.42307c-8.44088,1.10296 -41.79169,5.46087 -57.16952,7.47027c-4.79502,0.62656 -8.64619,-1.35859 -9.88789,-5.04118c-0.22706,-0.67341 -11.78668,-34.95652 -13.22894,-39.23393c-0.88727,-2.63143 0.97067,-5.6571 5.36777,-6.23166c15.1426,-1.97867 49.7399,-6.49946 58.2027,-7.60528c3.65232,-0.47724 8.08641,1.34496 8.87994,3.69841z" fill="#ff0000" stroke="#ff0000" stroke-width="5" stroke-linecap="butt"/><path d="M241.34175,212.7945c0.85316,2.53029 2.77025,8.21591 4.26507,12.64919c1.13344,3.36151 -2.1543,6.54899 -5.55258,6.99304c-6.98699,0.91298 -32.0287,4.18515 -32.0287,4.18515l-8.24098,-24.44081c0,0 22.0004,-2.87476 29.27355,-3.82514c4.3209,-0.5646 11.44799,1.96017 12.28366,4.43857z" fill="#ff0000" stroke="#ff0000" stroke-width="5" stroke-linecap="butt"/><path d="M274.94872,213.57104c1.13897,3.3779 3.69826,10.96817 5.69383,16.88655c1.51313,4.48758 -4.84572,9.00024 -10.9844,9.80237c-12.62133,1.64921 -57.8568,7.56008 -57.8568,7.56008l-11.00164,-32.62827c0,0 39.74161,-5.19299 52.87986,-6.90976c7.80528,-1.0199 20.15351,1.98037 21.26912,5.28901z" fill="#ff0000" stroke="#ff0000" stroke-width="5" stroke-linecap="butt"/><path d="M223.61189,223.86822l-2.21568,-6.57119" fill="#ff0000" stroke="#ff0000" stroke-width="5" stroke-linecap="round"/><path d="M214.7795,225.02234l-2.21568,-6.57119" fill="#ff0000" stroke="#ff0000" stroke-width="5" stroke-linecap="round"/><g fill="#ff0000" stroke="#ff0000" stroke-width="0.5" stroke-linecap="butt"><path d="M199.30296,242.90127c-2.8434,-0.53292 -1.9873,-2.30301 -1.9873,-2.30301l1.30441,-2.40104c-1.08167,-1.76805 -3.71074,-6.15466 -1.00661,-7.73529c1.35995,-0.79492 3.72558,0.13639 5.58181,0.25186c4.74527,0.29518 9.0686,1.20267 13.72493,1.68118c1.04941,0.10785 2.31816,0.15904 3.26465,0.45544c-2.04318,-1.67376 -2.63617,-6.31274 -0.93122,-7.5398c1.22569,-0.88214 3.494,-0.93159 5.35595,-1.06132c4.1315,-0.28786 11.27245,1.84551 14.66119,3.09834c1.71866,0.63539 3.39748,2.55547 5.59695,1.80993c1.40756,-0.47711 2.28644,-1.39974 3.37013,-2.13479c2.44375,-1.65763 4.8053,-3.06416 6.83473,-4.96397c0.96162,-0.90019 3.45623,-4.50899 3.91335,-4.59401c3.51745,-0.65439 6.03636,2.12302 7.52908,3.42238c0.58285,0.52037 1.97597,1.67515 2.81106,2.63967c0.48924,-0.2332 1.02671,-0.44011 1.51589,-0.65952c2.54428,-1.1412 10.29715,-4.38833 13.59113,-2.95027c1.41782,0.61897 0.19381,2.15474 0.42104,3.22345c0.12052,0.56683 0.49,1.10532 0.61966,1.67137c0.65754,2.87092 -0.31532,5.96659 -2.13908,8.89833c0.8739,-0.00927 1.99103,0.19065 2.63436,1.12669c1.16809,1.69953 -1.56197,2.42669 -1.56197,2.42669l-0.66975,-0.07868c-2.71154,2.19352 -4.4207,4.55176 -6.8283,6.83804c-4.11606,3.90864 -9.76653,8.03419 -15.83932,10.75477c-2.5317,1.1342 -6.63962,2.89688 -10.04174,1.04586c-0.45926,-0.24987 -0.84609,-0.48022 -1.16831,-0.69263c-6.00239,2.09254 -12.37162,3.14219 -19.43461,3.56674c-3.84377,0.21707 -8.25714,0.19868 -12.04845,-0.36988c-1.89793,-0.28461 -4.47988,-1.34909 -6.40008,-1.73203c-2.44928,-0.48844 -6.71072,-0.26032 -7.63334,-2.49243c-1.52786,-3.69635 2.79256,-3.31151 5.36593,-4.57108c0.98392,-0.48159 1.6224,-1.22267 2.39581,-1.8495c-0.56249,-0.047 -1.09958,-0.12138 -1.5001,-0.19829c-1.5189,-0.29165 -3.14215,-0.51125 -4.44042,-1.08215c-1.8657,-0.82041 -3.32821,-2.20881 -4.50775,-3.63185c-0.56153,0.21574 -1.32842,0.32299 -2.35368,0.13083zM271.76738,242.04988c-2.3291,-1.14672 -0.48704,-2.59661 -0.48704,-2.59661c4.06035,-3.13793 6.41916,-6.89081 8.13059,-10.77338c0.63724,-1.44564 -0.27633,-2.81924 -0.54524,-4.14497c-2.05934,0.84153 -4.76731,1.57841 -6.50911,2.41765c-1.48928,0.71757 -2.72624,2.28234 -4.57615,2.06269c-1.45368,-0.1726 -4.90807,-4.93088 -6.12715,-6.00477c-0.08623,-0.07851 -0.18141,-0.15454 -0.28081,-0.2294c-0.49762,0.63955 -1.23112,1.20612 -1.28856,1.26169c-2.15739,2.08664 -4.78953,3.6689 -7.44926,5.46527c-2.07316,1.40019 -2.20034,2.27303 -5.40318,3.04112c-5.59941,1.34282 -6.84458,-0.46889 -11.07951,-2.05529c-1.56362,-0.58573 -4.80456,-1.30185 -6.50284,-1.66882c-1.64004,-0.35437 -3.3487,-0.57156 -5.01313,-0.87877c-0.29893,-0.05516 -0.72762,-0.43132 -0.84382,-0.2512c-0.15331,0.23763 0.44909,0.43725 0.56533,0.68289c0.30147,0.63707 0.45645,1.29756 0.67925,1.94706c0.60916,1.7757 0.65732,3.61576 0.66449,5.4315c-1.91956,0.19117 -3.81688,0.51643 -5.75867,0.57351c-4.83212,0.142 -9.73833,-1.27129 -14.48119,-1.66656c-0.77172,-0.06432 -1.58934,-0.04807 -2.3625,-0.1172c0.08151,0.34119 0.10028,0.69732 0.23887,1.02814c0.3464,0.82681 0.77285,1.63978 1.16475,2.4587c0.41628,0.28579 0.61102,0.56913 0.61102,0.56913c0.9248,1.36162 2.42268,3.85807 4.53042,4.80386c2.14074,0.96061 9.49975,0.51697 10.55909,1.82326c1.68104,2.07294 -4.49556,6.05058 -6.77455,7.18507c-0.2174,0.10821 -0.53986,0.23822 -0.90154,0.36452c1.99743,0.33531 4.47054,1.16176 4.65507,1.21262c3.97063,1.09433 8.36253,1.30422 12.67239,1.026c7.16434,-0.43047 13.66743,-1.43898 19.67546,-4.04016l1.7043,-1.34148c0.41631,-0.33248 1.01655,-0.57857 1.73118,-0.67194c1.60501,-0.20972 3.17925,0.43023 3.51615,1.42939c0.02892,0.08576 0.04777,0.17138 0.05707,0.25637l0.20444,1.53827c0.28734,-0.14 0.55773,-0.26687 0.75223,-0.3629c2.22064,-1.09617 4.86938,-2.20516 6.60456,-3.61661c2.46889,-2.00831 5.5197,-4.01288 7.7462,-6.12092c-0.02612,-0.01225 -0.05232,-0.02486 -0.07855,-0.03777z"/><path d="M271.90459,242.09337c-2.22647,2.10805 -5.28761,4.12838 -7.75648,6.13668c-1.73517,1.41146 -4.39945,2.52978 -6.62008,3.62595c-0.1945,0.09602 -0.5286,0.1605 -0.81593,0.3005l-0.20695,-1.53723c-0.0093,-0.085 0.03905,-0.10967 0.01013,-0.19543c-0.3369,-0.99915 -1.91564,-1.63736 -3.52066,-1.42763c-0.71462,0.09338 -1.32094,0.34133 -1.73724,0.67381l-1.71128,1.34302c-6.00803,2.60118 -12.55693,3.60619 -19.72125,4.03667c-4.30985,0.27823 -8.7171,0.06047 -12.68773,-1.03385c-0.1845,-0.05085 -2.6619,-0.88077 -4.65931,-1.21607c0.36167,-0.12628 0.68418,-0.25628 0.90157,-0.3645c2.27901,-1.13449 8.44941,-5.11948 6.76833,-7.1924c-1.05936,-1.3063 -8.42139,-0.86932 -10.56214,-1.82992c-2.10772,-0.94579 -3.60658,-3.45021 -4.5314,-4.81184c0,0 -0.1947,-0.28415 -0.61095,-0.56994c-0.3919,-0.81892 -0.81778,-1.63535 -1.16418,-2.46216c-0.13858,-0.33081 -0.15697,-0.68834 -0.23849,-1.02952c0.77314,0.06911 1.70739,0.06688 2.47912,0.1312c4.74283,0.39527 9.53258,1.79411 14.3647,1.65209c1.94182,-0.05707 3.84067,-0.38611 5.76023,-0.57727c-0.00716,-1.81574 -0.04601,-3.66703 -0.65517,-5.44273c-0.22281,-0.64951 -0.3748,-1.31221 -0.67629,-1.94929c-0.11623,-0.24564 -0.718,-0.44569 -0.56469,-0.68332c0.1162,-0.18011 0.54532,0.19577 0.84425,0.25094c1.66442,0.3072 3.37767,0.52164 5.01772,0.87602c1.69829,0.36696 4.94865,1.07894 6.5123,1.66467c4.23493,1.58639 5.52488,3.39458 11.12425,2.05177c3.20284,-0.76807 3.34221,-1.63796 5.41537,-3.03815c2.65974,-1.79638 5.29623,-3.37705 7.45364,-5.46369c0.05745,-0.05557 0.79093,-0.62214 1.28853,-1.26169c0.09938,0.07486 0.19529,0.15118 0.2815,0.22967c1.21909,1.07388 4.68919,5.84163 6.14286,6.01422c1.84992,0.21963 2.99003,-1.30229 4.4793,-2.01987c1.74179,-0.83923 4.54704,-1.61854 6.60638,-2.46009c0.26893,1.32574 1.18694,2.70406 0.54971,4.14972c-1.71144,3.88256 -4.06419,7.65182 -8.12455,10.78973c0,0 -1.84275,1.45544 0.48633,2.60216c0.02623,0.01292 0.05241,0.02558 0.07851,0.03783z" data-paper-data="{&quot;noHover&quot;:false,&quot;origItem&quot;:[&quot;Path&quot;,{&quot;applyMatrix&quot;:true,&quot;segments&quot;:[[[425.50777,338.13241],[-0.03606,-0.04328],[3.20092,3.84111]],[[424.86759,345.17444],[0,0],[-8.43459,6.90201]],[[405.48318,370.88051],[4.97755,-9.68563],[-1.85335,3.60637]],[[404.07859,382.04136],[0.29349,-3.6024],[3.86115,-1.51532]],[[416.14821,377.89302],[-3.33659,1.61909],[2.8529,-1.38438]],[[424.83532,374.01569],[-2.92643,-1.22129],[2.2996,0.9597]],[[431.59573,392.0304],[-1.41224,-3.26439],[0.09847,0.23763]],[[431.93102,392.73477],[-0.12219,-0.23256],[1.17537,-1.52085]],[[434.75547,389.84064],[-0.12554,0.12722],[4.71456,-4.77737]],[[450.06775,377.95007],[-5.38109,3.83522],[4.19433,-2.98938]],[[460.66134,371.76878],[-5.70469,0.92536],[9.97329,-1.61778]],[[477.77714,381.04173],[-6.09724,-5.6642],[2.25123,2.09134]],[[487.56584,387.70856],[-2.5947,-1.55881],[2.50571,1.50535]],[[495.33866,391.76878],[-2.5721,-1.38888],[0.46194,0.24944]],[[496.58961,392.72564],[-0.29156,0.43657],[0.38467,-0.576]],[[496.03746,390.72242],[0.05507,0.69045],[-0.14283,-1.79072]],[[496,385.33333],[0.00628,1.79639],[-0.01716,-4.91121]],[[497.92294,370.72564],[-0.99709,4.80896],[3.26944,0.15792]],[[507.73127,371.1994],[-3.23159,-0.52059],[8.04173,1.29548]],[[530.66866,380.61999],[-7.59605,-2.68685],[1.23598,0.43719]],[[534.49666,381.74739],[-1.23565,-0.45041],[0.05526,-0.93135]],[[534.67432,378.94317],[0.04457,0.92363],[-0.1114,-2.30848]],[[534.12109,372.03179],[0.19079,2.30338],[-0.52718,-0.90052]],[[533.43043,370.31391],[0,0],[-0.7674,-3.9243]],[[528.63399,356.03043],[2.94779,3.2327],[-2.99396,-3.28333]],[[512.24685,347.55165],[1.01986,3.82438],[-1.61839,-6.06879]],[[527.40287,330.87517],[-4.38591,2.21482],[0.41836,-0.21126]],[[529.09106,330.22211],[-0.66616,0.20919],[-3.10521,-1.57849]],[[522.09381,325.402],[0.2758,0.19844],[-5.93511,-4.27024]],[[501.78118,318.30275],[7.25675,0.75425],[-12.0452,-1.33859]],[[467.11332,322.19188],[11.34587,-4.80747],[0,0]],[[463.55947,325.15343],[0,0],[-0.87077,0.73612]],[[460.33333,326.33333],[1.22951,0],[-2.76142,0]],[[455.33333,321.33333],[0,2.76142],[0,-0.23702]],[[455.38172,320.63492],[-0.0319,0.22823],[0,0]],[[455.89956,316.49223],[0,0],[-0.55129,0.2712]],[[454.45832,317.19264],[0.37387,-0.18688],[-4.26845,2.13361]],[[441.56521,324.48177],[3.64362,-3.13612],[-5.18434,4.46224]],[[425.39934,338.00525],[4.8403,-4.81013],[0.03622,0.0415]]],&quot;closed&quot;:true}]}"/></g><path d="M265.86227,240.7669c-0.22185,-0.65795 0.31673,-1.00678 0.7898,-1.18146c0.15889,-0.29076 0.37196,-0.57394 0.6581,-0.8467c1.09266,-1.04161 3.75969,-1.19627 4.49661,-2.1892c0.66757,-0.89949 1.41968,-2.50376 1.66153,-3.49211c0.12206,-0.49879 -0.09903,-1.0302 0.14755,-1.51082c0.24346,-0.47453 0.95572,-0.80924 1.27683,-1.26551c0.46676,-0.66324 0.54122,-2.17452 1.49206,-2.70109c3.6986,-2.04822 4.91721,-1.80468 5.62764,1.32916c0.3261,1.43849 -0.9397,3.62943 -1.81391,4.99842c-1.77529,2.36421 -2.64595,5.05994 -5.57247,6.97638l-1.07885,0.54382c0,0 -1.42287,0.70254 -2.55141,-0.18323v0c-0.14357,-0.11268 -0.24585,-0.2224 -0.31502,-0.3281c-0.29751,0.12164 -0.59844,0.23995 -0.9027,0.35466c-0.06894,0.65046 0.03972,1.34227 0.00681,1.87998c0,0 -0.06914,1.12973 -1.88391,1.08669c-1.81477,-0.04304 -1.74563,-1.17278 -1.74563,-1.17278c0.0364,-0.59479 0.00806,-1.20173 0.05176,-1.80012c-0.15132,-0.12455 -0.27361,-0.28691 -0.34479,-0.49801zM277.02457,232.75821c0.20528,-0.33198 0.39182,-0.66949 0.54695,-1.01192c-0.20575,0.14953 -0.39825,0.30278 -0.49473,0.48638c-0.08853,0.16845 -0.07911,0.34592 -0.05222,0.52554z" fill="#ff0000" stroke="#ff0000" stroke-width="0.5" stroke-linecap="butt"/><path d="M253.12448,230.04978c-0.41981,1.27778 -0.75927,2.90852 -1.62336,3.4188c-0.70773,0.41795 -1.95372,0.02355 -2.92265,0.09399c-0.31089,0.02261 -2.84775,0.41508 -3.68902,0.51038c-0.50097,0.11014 -1.01973,0.21111 -1.43838,0.36377l-0.41605,-0.13285l-0.02497,0.13474l-1.86259,-0.13376c-0.77315,-0.04415 -1.44301,-0.39613 -1.61083,-0.89385c-0.0871,-0.25832 -0.02503,-0.51455 0.14983,-0.73399c-0.82034,-0.10306 -1.59218,-0.26315 -2.13615,-0.3468l-0.14374,-0.08702l-0.03159,0.03892l-1.71712,-0.54009c-0.48229,-0.14849 -0.85424,-0.42831 -0.97335,-0.78153c-0.07437,-0.22057 -0.03998,-0.4396 0.0805,-0.63551c-0.61251,0.05514 -1.27918,0.27736 -1.77389,0.07254l-0.03343,0.00136c-0.01887,0.0072 -0.03776,0.0144 -0.05663,0.02159l-0.06591,-0.01663l-0.18457,0.00748l0.00177,0.02636l-1.8121,0.04712c-0.88342,0.03272 -1.69572,-0.34118 -1.88298,-0.89654c-0.12485,-0.37025 0.05677,-0.7362 0.43766,-0.99566c-1.50105,-0.227 -3.00477,-0.26867 -3.77819,0.35785c-0.19316,1.97441 1.27778,3.70991 1.29549,5.6271c0.00658,0.71223 0.34009,1.62396 -0.48875,2.11493c-0.81096,0.48039 -2.22927,0.15367 -3.3487,0.15825c-2.92164,0.01196 -5.94351,-0.39606 -8.82544,-0.57401c-0.92033,-0.05683 -1.85422,0.03856 -2.77437,-0.0194c-0.15998,-0.01008 -0.31999,-0.02283 -0.47945,-0.03847c0.3734,0.27693 0.65979,0.60898 0.87357,0.83575c1.20992,1.28342 1.26797,2.77923 2.01827,4.12896l0.17526,0.12288l1.31944,0.16479c0.68703,0.07574 1.26787,0.3957 1.4456,0.83917c0.90078,0.21043 1.78436,0.4459 2.63678,0.72141c0.90164,0.29141 2.07345,0.42476 2.63743,0.95078c0.7212,0.67265 1.45892,1.62561 0.91114,2.35892c-0.50114,0.6709 -2.20034,0.55985 -3.30051,0.83978c0,0 -1.77735,0.23225 -2.15043,-0.8742c-0.20945,-0.62119 0.25892,-0.96683 0.71003,-1.15052c-0.18203,-0.03844 -0.33582,-0.07466 -0.42739,-0.10093c-1.32155,-0.37909 -2.68003,-0.71122 -4.06017,-1.00166l-1.4391,-0.01055c-0.39564,0.08335 -0.79775,0.15308 -1.20696,0.20582l-0.15239,-0.03677l0.00299,0.04452l-1.8121,0.04713c-0.88342,0.03272 -1.69572,-0.34119 -1.88298,-0.89655c-0.20199,-0.59904 0.39826,-1.18684 1.34676,-1.33057c0.19526,-0.37154 0.69507,-0.66977 1.3538,-0.75585c0.01163,-0.00152 0.02327,-0.00296 0.03489,-0.00434c-0.43446,-1.01613 -0.51896,-2.28723 -1.31011,-3.13617c-0.59802,-0.6417 -3.19691,-2.0396 -3.0621,-2.567c0.21718,-0.84972 1.66778,-1.48456 2.94074,-1.8197c0.97987,-0.25799 2.11197,0.16881 3.17382,0.20985c1.99945,0.07728 3.98645,0.24984 5.98041,0.37016c1.69033,0.102 3.75513,-0.15628 5.44513,0.16737c-0.21874,-0.63917 -0.68873,-2.03473 -0.7362,-2.17639c-0.51548,-1.53808 -0.54212,-2.73831 -0.18705,-4.29916c0.65499,-0.48574 1.10944,-1.1129 1.96497,-1.45723c2.71098,-1.09108 7.24261,0.03931 9.90313,0.57568l0.10709,0.06289l0.02136,-0.02632l1.71712,0.54009c0.18337,0.05646 0.35078,0.13189 0.49443,0.22314c2.33546,0.15937 4.82871,0.70503 5.80686,1.56828c0.13713,0.12103 0.28547,0.24939 0.43303,0.3829c1.24133,0.38205 2.61237,0.96322 3.4068,1.65186c0.75915,-0.10413 1.50716,-0.30065 2.28246,-0.28318c0.35457,0.00799 0.68779,0.55079 0.88573,0.36748c0.28112,-0.26033 -0.32188,-0.6114 -0.28454,-0.92421c0.05382,-0.45085 0.34356,-0.87894 0.55151,-1.3121c0.87854,-1.83003 2.57251,-3.91847 5.07156,-5.12723c1.00083,-0.48409 1.98559,-1.53037 3.19117,-1.28693c0.58738,0.1186 1.05418,0.24905 1.41942,0.38841c0.15767,-0.27934 0.52167,-0.56301 1.32521,-0.66801c1.57774,-0.20616 2.04892,0.64255 2.13485,0.83579c2.15949,1.28659 3.42791,2.73729 4.95428,4.26297l0.57967,-0.01528c0.48378,-0.59402 0.73009,-1.29016 1.45133,-1.78207c0.57423,-0.39165 1.54168,-0.4582 2.25637,-0.7467c1.2981,-0.52401 2.53597,-1.11792 3.92466,-1.54248c0,0 1.63381,-0.49366 2.42681,0.52342c0.793,1.01708 -0.8408,1.51074 -0.8408,1.51074c-2.41733,0.72007 -4.94111,1.47495 -5.92692,2.99322l-2.14977,1.0145c0,0 -0.33035,0.12012 -0.77638,0.15571c-0.12782,0.11321 -0.30714,0.22351 -0.55314,0.32547c-1.51167,0.62656 -2.51816,-0.31449 -2.51816,-0.31449c-1.83257,-1.71874 -2.97969,-3.41735 -5.42585,-4.8067c-0.43904,0.59093 -1.28364,1.16059 -1.67373,1.57788c-0.58667,0.62758 -0.76672,1.42639 -1.59093,1.94017c-0.66928,0.4172 -1.74661,0.45646 -2.61991,0.6847l-0.68261,0.51453c0,0 -0.15844,0.0914 -0.41668,0.17713z" fill="#ff0000" stroke="#ff0000" stroke-width="0.5" stroke-linecap="butt"/><path d="M169.27097,167.36582c-4.07789,-2.65839 -5.92295,-6.35558 -5.7497,-11.14877c0.09727,-2.69104 -0.31605,-3.06225 2.66997,-4.56664c0.7111,-0.35826 1.58045,-0.30436 2.3759,-0.42897c2.66697,-0.41781 6.64955,-0.82801 9.30427,-0.27478c3.1671,0.66001 5.61743,3.32653 8.76281,4.1767c1.47576,-0.01469 3.44865,0.30125 4.86017,-0.21158c5.48236,-1.99187 11.31275,-3.86706 17.35816,-3.40421c2.12688,0.16284 3.84688,1.20537 5.88065,1.51839c2.0725,0.31898 3.24099,-0.72755 4.79695,1.7472c0.85469,1.35938 0.24226,5.38804 -0.12759,6.92738c-0.61666,2.56658 -1.00012,4.14159 -2.7195,6.24126c-1.88808,1.43762 -3.73651,3.11318 -6.02774,3.98287c-5.31727,2.0183 -11.66357,1.32507 -17.25799,1.32507c-3.25371,0 -6.88507,0.41753 -10.10666,-0.01282c-3.90698,-0.52191 -7.49674,-2.2217 -11.19375,-3.37965l-1.6945,-0.63542c0,0 -1.42361,-0.53651 -1.13145,-1.85603z" fill="#000dff" stroke="none" stroke-width="0.5" stroke-linecap="butt"/><path d="M194.55053,195.06707c0,-7.03457 0,-45.4249 0,-62.66298c0,-5.12954 3.93958,-8.3861 7.82202,-8.3861c8.62483,0 42.70242,0 58.41537,0c4.89951,0 8.01347,3.68577 8.01347,9.38075c0,1.0414 0,54.05884 0,60.67367c0,4.06941 -2.81675,8.19141 -7.30967,8.19141c-15.47259,0 -50.82384,0 -59.47106,0c-3.73192,0 -7.47012,-3.55725 -7.47012,-7.19676z" fill="#000dff" stroke="none" stroke-width="5" stroke-linecap="butt"/><path d="M194.90736,190.14726v-6.63646h73.5196v6.63646z" fill="#000dff" stroke="none" stroke-width="5" stroke-linecap="butt"/><path d="M198.20914,186.4775c0,-0.84714 0,-2.75932 0,-2.75932h70.65806v4.76996c0,0 -57.98237,0 -66.69593,0c-2.12378,0 -3.96213,-1.2875 -3.96213,-2.01064z" fill="#000dff" stroke="none" stroke-width="5" stroke-linecap="butt"/><path d="M228.41314,169.5377c0,-3.91298 0,-12.70557 0,-19.56146c0,-5.19844 4.26946,-9.28341 7.74179,-9.28341c7.13925,0 32.72668,0 32.72668,0v37.79672c0,0 -22.47983,0 -29.91148,0c-4.41506,0 -10.557,-5.11912 -10.557,-8.95186z" fill="#ffd797" stroke="none" stroke-width="5" stroke-linecap="butt"/><path d="M195.77917,161.88297c0,-5.22379 0,-16.96182 0,-26.11437c0,-6.93986 7.71236,-12.39327 13.98481,-12.39327c12.89637,0 59.11762,0 59.11762,0v50.45829c0,0 -40.60766,0 -54.03223,0c-7.97537,0 -19.07019,-6.83398 -19.07019,-11.95064z" fill="#ffdca3" stroke="none" stroke-width="5" stroke-linecap="butt"/><path d="M211.71208,181.66085c0,-4.18064 3.59709,-7.56972 8.03433,-7.56972c4.43724,0 8.03433,3.38908 8.03433,7.56972c0,4.18064 -3.59709,7.56972 -8.03433,7.56972c-4.43724,0 -8.03433,-3.38908 -8.03433,-7.56972z" fill="#ffd797" stroke="none" stroke-width="5" stroke-linecap="butt"/><path d="M213.91327,182.5941c0,-3.55068 3.05506,-6.42908 6.82367,-6.42908c3.76861,0 6.82367,2.8784 6.82367,6.42908c0,3.55068 -3.05506,6.42908 -6.82367,6.42908c-3.76861,0 -6.82367,-2.8784 -6.82367,-6.42908z" fill="#ffdca3" stroke="none" stroke-width="5" stroke-linecap="butt"/><path d="M258.55948,182.58153c0,-0.57269 0.49276,-1.03695 1.10059,-1.03695c0.60784,0 1.10059,0.46426 1.10059,1.03695c0,0.57269 -0.49276,1.03695 -1.10059,1.03695c-0.60784,0 -1.10059,-0.46426 -1.10059,-1.03695z" fill="#000dff" stroke="none" stroke-width="5" stroke-linecap="butt"/><path d="M258.7796,186.93671c0,-0.57269 0.49275,-1.03695 1.10059,-1.03695c0.60784,0 1.10059,0.46426 1.10059,1.03695c0,0.57269 -0.49275,1.03695 -1.10059,1.03695c-0.60784,0 -1.10059,-0.46426 -1.10059,-1.03695z" fill="#000dff" stroke="none" stroke-width="5" stroke-linecap="butt"/><path d="M258.7796,191.91406c0,-0.57269 0.49275,-1.03695 1.10059,-1.03695c0.60784,0 1.10059,0.46426 1.10059,1.03695c0,0.57269 -0.49275,1.03695 -1.10059,1.03695c-0.60784,0 -1.10059,-0.46426 -1.10059,-1.03695z" fill="#000dff" stroke="none" stroke-width="5" stroke-linecap="butt"/><path d="M249.41908,166.72896v-10.16209" fill="none" stroke="#000000" stroke-width="5" stroke-linecap="round"/><path d="M258.44394,156.56687v10.16209" fill="none" stroke="#000000" stroke-width="5" stroke-linecap="round"/><g fill="#000000" stroke="none" stroke-width="0.5" stroke-linecap="butt"><path d="M279.49028,133.08005c2.60689,1.3397 1.18495,3.79586 1.18495,3.79586l-2.06891,3.30396c0.47516,2.82819 1.60063,9.83448 -1.56743,11.65233c-1.59326,0.91422 -3.60111,-0.92309 -5.37966,-1.45339c-4.54667,-1.35565 -8.47832,-3.5366 -12.87744,-5.14657c-0.99144,-0.36286 -2.21624,-0.68424 -3.04473,-1.30645c1.44728,2.87462 0.4968,9.86065 -1.5767,11.34817c-1.49065,1.0694 -3.7269,0.70362 -5.59195,0.53541c-4.13838,-0.37326 -10.42304,-4.91532 -13.32608,-7.42689c-1.47234,-1.27378 -2.48175,-4.44273 -4.88032,-3.76413c-1.53498,0.43426 -2.69958,1.63076 -4.00271,2.50978c-2.93864,1.98229 -5.71396,3.60858 -8.32702,6.02977c-1.23816,1.14724 -4.87044,6.00976 -5.34587,6.04723c-3.65837,0.28849 -5.20705,-4.31293 -6.23916,-6.52645c-0.3987,-0.88358 -1.38104,-2.86367 -1.88004,-4.45395c-0.55576,0.25073 -1.15005,0.45317 -1.7012,0.68347c-2.8666,1.1979 -11.52564,4.50702 -14.27483,1.73943c-1.18333,-1.19124 0.52136,-3.22912 0.65164,-4.85606c0.06911,-0.86291 -0.11481,-1.73204 -0.05491,-2.59557c0.30386,-4.37967 2.27752,-8.77669 5.02982,-12.76618c-0.85832,-0.15541 -1.88566,-0.66775 -2.20638,-2.17871c-0.58235,-2.74341 2.32944,-3.29209 2.32944,-3.29209l0.62951,0.24617c3.37755,-2.72422 5.82845,-5.88644 8.93916,-8.80691c5.31809,-4.99283 12.20944,-10.00995 19.05048,-12.86431c2.85198,-1.18996 7.45395,-3.00578 10.1727,0.39441c0.36701,0.459 0.66958,0.87505 0.91483,1.25205c6.56489,-1.93773 13.14466,-2.25972 20.19711,-1.52155c3.83342,0.42243 8.1466,1.30387 11.66943,2.87981c1.76353,0.78891 3.93916,2.86533 5.69204,3.80419c2.23586,1.19753 6.4817,1.68443 6.64807,5.16919c0.27551,5.77075 -3.82577,4.36452 -6.7599,5.73212c-1.12185,0.52289 -1.99127,1.49701 -2.95503,2.27579c0.53499,0.17848 1.03608,0.39259 1.40268,0.58404c1.39026,0.72598 2.90643,1.36542 3.98862,2.46232c1.55518,1.5763 2.52834,3.91586 3.21314,6.25195c0.62075,-0.21088 1.40667,-0.22132 2.34666,0.26175zM208.29039,120.31588c1.90102,2.1493 -0.3802,3.94036 -0.3802,3.94036c-5.00924,3.86203 -8.55616,8.96425 -11.51229,14.38386c-1.10069,2.01795 -0.65989,4.22934 -0.83419,6.24507c2.29311,-0.84789 5.18649,-1.41524 7.16808,-2.3212c1.69431,-0.77462 3.42125,-2.85295 5.15922,-2.16956c1.36573,0.537 3.17625,8.25356 4.01496,10.08014c0.05848,0.13298 0.12654,0.26401 0.19912,0.39413c0.69805,-0.85099 1.60287,-1.54823 1.67743,-1.61942c2.79995,-2.67318 5.89808,-4.50738 9.09387,-6.65338c2.491,-1.67271 2.90349,-2.94095 6.29148,-3.45873c5.9231,-0.90523 6.54387,2.01926 10.16498,5.18869c1.33699,1.17023 4.27249,2.85821 5.81346,3.73044c1.48813,0.84231 3.08868,1.49473 4.61623,2.2719c0.27435,0.13956 0.56977,0.7797 0.74292,0.53541c0.22846,-0.3223 -0.29522,-0.73456 -0.32793,-1.12091c-0.08481,-1.00199 -0.01853,-2.01029 -0.02225,-3.01546c-0.01021,-2.74806 0.54986,-5.48288 1.14202,-8.17374c1.9417,0.08837 3.90589,-0.02619 5.8251,0.2651c4.77592,0.7249 9.11113,3.76786 13.6224,5.27129c0.73404,0.24463 1.53958,0.37881 2.27343,0.63084c0.03281,-0.52115 0.13196,-1.05228 0.1055,-1.56912c-0.06617,-1.29171 -0.21526,-2.57842 -0.32856,-3.86726c-0.3131,-0.50388 -0.41018,-0.96125 -0.41018,-0.96125c-0.45576,-2.19583 -1.09789,-6.18347 -2.84857,-7.99233c-1.77809,-1.8372 -9.12655,-2.60438 -9.73224,-4.74429c-0.96115,-3.39579 6.39631,-8.09202 9.00107,-9.33133c0.24847,-0.11821 0.60696,-0.24836 1.0026,-0.36543c-1.84418,-0.88325 -3.99183,-2.58606 -4.15564,-2.6971c-3.52483,-2.38941 -7.7538,-3.55035 -12.06355,-3.9724c-7.15359,-0.74902 -13.85079,-0.51387 -20.58905,2.17617l-2.11062,1.65714c-0.51714,0.41189 -1.18579,0.66022 -1.91599,0.66022c-1.63999,0 -2.96948,-1.25259 -2.96948,-2.79775c0,-0.13262 0.00981,-0.2631 0.02875,-0.39079l0.30754,-2.31805c-0.32741,0.15175 -0.63389,0.28734 -0.85594,0.39193c-2.535,1.19386 -5.49322,2.32383 -7.65715,4.07864c-3.07896,2.49686 -6.72619,4.87556 -9.60083,7.56705c0.02152,0.02321 0.043,0.04694 0.06441,0.07115z"/><path d="M208.17045,120.22491c2.87462,-2.69151 6.53716,-5.09156 9.6161,-7.5884c2.16393,-1.75481 5.14042,-2.89561 7.67542,-4.08947c0.22204,-0.10458 0.57029,-0.13542 0.89769,-0.28718l-0.30473,2.31702c-0.01895,0.1277 -0.0744,0.15488 -0.0744,0.28751c0,1.54515 1.33447,2.79602 2.97447,2.79602c0.73019,0 1.4054,-0.2499 1.92254,-0.6618l2.11797,-1.65806c6.73826,-2.69001 13.47913,-2.91113 20.63271,-2.16213c4.30975,0.42204 8.55114,1.59759 12.07597,3.98701c0.16378,0.11103 2.31449,1.8198 4.15865,2.70304c-0.39563,0.11705 -0.75416,0.24719 -1.00262,0.3654c-2.60478,1.23931 -9.95859,5.94762 -8.99741,9.34339c0.6057,2.13993 7.95491,2.91757 9.73302,4.75475c1.75066,1.80885 2.39113,5.80848 2.8469,8.00434c0,0 0.09678,0.45857 0.40985,0.96245c0.1133,1.28884 0.26069,2.58055 0.32687,3.87228c0.02646,0.51682 -0.07352,1.04995 -0.10633,1.57108c-0.73385,-0.25201 -1.6489,-0.42953 -2.38295,-0.67416c-4.51124,-1.50343 -8.73724,-4.50242 -13.51317,-5.22731c-1.91924,-0.29129 -3.88618,-0.17144 -5.82788,-0.25982c-0.59217,2.69086 -1.16506,5.4405 -1.15485,8.18856c0.00373,1.00517 -0.06621,2.01618 0.01862,3.01819c0.03269,0.38634 0.55561,0.79912 0.32715,1.12143c-0.17315,0.24429 -0.46909,-0.39551 -0.74343,-0.53508c-1.52755,-0.77717 -3.1335,-1.4264 -4.62163,-2.26872c-1.54097,-0.87224 -4.48707,-2.55591 -5.82408,-3.72614c-3.62112,-3.16941 -4.28687,-6.09738 -10.20994,-5.19215c-3.38799,0.51778 -3.81143,1.77925 -6.30243,3.45197c-3.1958,2.14601 -6.29766,3.97701 -9.09764,6.65019c-0.07456,0.07119 -0.97936,0.76843 -1.6774,1.61943c-0.07256,-0.13012 -0.14124,-0.26172 -0.19971,-0.39467c-0.83873,-1.82658 -2.6615,-9.56019 -4.02721,-10.09718c-1.73799,-0.68337 -3.356,1.35024 -5.0503,2.12488c-1.98158,0.90595 -4.98418,1.51733 -7.27729,2.36524c0.17429,-2.01573 -0.26932,-4.23498 0.83138,-6.25295c2.95614,-5.41959 6.50253,-10.54725 11.51178,-14.40925c0,0 2.28373,-1.79914 0.38273,-3.94845c-0.02141,-0.02422 -0.04285,-0.04803 -0.06435,-0.07124z" data-paper-data="{&quot;noHover&quot;:false,&quot;origItem&quot;:[&quot;Path&quot;,{&quot;applyMatrix&quot;:true,&quot;segments&quot;:[[[425.50777,338.13241],[-0.03606,-0.04328],[3.20092,3.84111]],[[424.86759,345.17444],[0,0],[-8.43459,6.90201]],[[405.48318,370.88051],[4.97755,-9.68563],[-1.85335,3.60637]],[[404.07859,382.04136],[0.29349,-3.6024],[3.86115,-1.51532]],[[416.14821,377.89302],[-3.33659,1.61909],[2.8529,-1.38438]],[[424.83532,374.01569],[-2.92643,-1.22129],[2.2996,0.9597]],[[431.59573,392.0304],[-1.41224,-3.26439],[0.09847,0.23763]],[[431.93102,392.73477],[-0.12219,-0.23256],[1.17537,-1.52085]],[[434.75547,389.84064],[-0.12554,0.12722],[4.71456,-4.77737]],[[450.06775,377.95007],[-5.38109,3.83522],[4.19433,-2.98938]],[[460.66134,371.76878],[-5.70469,0.92536],[9.97329,-1.61778]],[[477.77714,381.04173],[-6.09724,-5.6642],[2.25123,2.09134]],[[487.56584,387.70856],[-2.5947,-1.55881],[2.50571,1.50535]],[[495.33866,391.76878],[-2.5721,-1.38888],[0.46194,0.24944]],[[496.58961,392.72564],[-0.29156,0.43657],[0.38467,-0.576]],[[496.03746,390.72242],[0.05507,0.69045],[-0.14283,-1.79072]],[[496,385.33333],[0.00628,1.79639],[-0.01716,-4.91121]],[[497.92294,370.72564],[-0.99709,4.80896],[3.26944,0.15792]],[[507.73127,371.1994],[-3.23159,-0.52059],[8.04173,1.29548]],[[530.66866,380.61999],[-7.59605,-2.68685],[1.23598,0.43719]],[[534.49666,381.74739],[-1.23565,-0.45041],[0.05526,-0.93135]],[[534.67432,378.94317],[0.04457,0.92363],[-0.1114,-2.30848]],[[534.12109,372.03179],[0.19079,2.30338],[-0.52718,-0.90052]],[[533.43043,370.31391],[0,0],[-0.7674,-3.9243]],[[528.63399,356.03043],[2.94779,3.2327],[-2.99396,-3.28333]],[[512.24685,347.55165],[1.01986,3.82438],[-1.61839,-6.06879]],[[527.40287,330.87517],[-4.38591,2.21482],[0.41836,-0.21126]],[[529.09106,330.22211],[-0.66616,0.20919],[-3.10521,-1.57849]],[[522.09381,325.402],[0.2758,0.19844],[-5.93511,-4.27024]],[[501.78118,318.30275],[7.25675,0.75425],[-12.0452,-1.33859]],[[467.11332,322.19188],[11.34587,-4.80747],[0,0]],[[463.55947,325.15343],[0,0],[-0.87077,0.73612]],[[460.33333,326.33333],[1.22951,0],[-2.76142,0]],[[455.33333,321.33333],[0,2.76142],[0,-0.23702]],[[455.38172,320.63492],[-0.0319,0.22823],[0,0]],[[455.89956,316.49223],[0,0],[-0.55129,0.2712]],[[454.45832,317.19264],[0.37387,-0.18688],[-4.26845,2.13361]],[[441.56521,324.48177],[3.64362,-3.13612],[-5.18434,4.46224]],[[425.39934,338.00525],[4.8403,-4.81013],[0.03622,0.0415]]],&quot;closed&quot;:true}]}"/></g><path d="M252.66599,189.26324c-1.76187,0.41499 -2.20232,-1.24499 -2.20232,-1.24499l-0.56066,-2.16581c-0.01273,-2.02965 -0.01361,-4.05903 -0.01361,-6.0887c0,0 0,-1.71107 1.81609,-1.71107c1.81609,0 1.81609,1.71107 1.81609,1.71107c0,1.8903 0.00108,3.78033 -0.01361,5.67058l0.47942,1.75395c0,0 0.44047,1.65997 -1.3214,2.07497z" fill="#ff0000" stroke="none" stroke-width="0.5" stroke-linecap="butt"/><path d="M258.46603,188.82436c-1.81609,0 -1.81609,-1.71107 -1.81609,-1.71107v-0.48997c0.01143,-2.23343 0.53714,-4.16947 0.52004,-6.36961c0,0 0,-1.71107 1.81609,-1.71107c1.81609,0 1.81609,1.71107 1.81609,1.71107c-0.01393,2.21957 -0.53354,4.14662 -0.52004,6.36961v0.48997c0,0 0,1.71107 -1.81609,1.71107z" fill="#ff0000" stroke="none" stroke-width="0.5" stroke-linecap="butt"/><path d="M213.64619,123.35916c0,1.0175 -0.6422,1.42994 -1.16283,1.59711c-0.25144,0.39992 -0.55343,0.77813 -0.92347,1.12677c-1.41307,1.33136 -4.07426,1.04423 -5.12312,2.37233c-0.95016,1.20313 -2.21562,3.43379 -2.77846,4.85093c-0.28404,0.71518 -0.24304,1.54511 -0.64297,2.20927c-0.39485,0.65575 -1.20237,1.01366 -1.6672,1.62735c-0.67567,0.89204 -1.24724,3.11615 -2.35157,3.71206c-4.29561,2.31797 -5.40787,1.72139 -5.06901,-3.05795c0.15554,-2.1938 2.11734,-5.19404 3.42466,-7.05258c2.51759,-3.15826 4.25924,-6.98266 7.75576,-9.25489l1.23529,-0.5967c0,0 1.62436,-0.76521 2.43653,0.76521v0.00001c0.10333,0.1947 0.16722,0.37702 0.20003,0.54695c0.3313,-0.1226 0.66486,-0.23958 1.00048,-0.3506c0.28212,-0.95013 0.40406,-1.99586 0.61371,-2.78595c0,0 0.44047,-1.65998 2.20233,-1.24498c1.76186,0.415 1.3214,2.07498 1.3214,2.07498c-0.2319,0.87396 -0.40444,1.77844 -0.64467,2.65631c0.10699,0.21377 0.17309,0.47793 0.17309,0.80439zM200.07916,133.06119c-0.31045,0.452 -0.60439,0.91581 -0.86921,1.39299c0.25071,-0.18167 0.48967,-0.3714 0.64468,-0.62468c0.14223,-0.23238 0.19157,-0.49706 0.22453,-0.76832z" fill="#000000" stroke="none" stroke-width="0.5" stroke-linecap="butt"/><path d="M222.57578,141.69869c0.83252,-1.8114 1.70286,-4.16114 2.71691,-4.74973c0.83055,-0.48208 1.91982,0.34326 2.89133,0.42645c0.31172,0.02669 2.92399,-0.06365 3.77877,-0.04198c0.52664,-0.06619 1.06764,-0.11534 1.52775,-0.26042l0.36334,0.2773l0.0689,-0.19474l1.77873,0.55862c0.7421,0.21503 1.28152,0.86603 1.28152,1.63574c0,0.39949 -0.14531,0.767 -0.38884,1.05818c0.76884,0.31143 1.47139,0.69794 1.97615,0.92712l0.11196,0.15671l0.04376,-0.05154l1.50228,1.13232c0.423,0.31328 0.69469,0.79974 0.69469,1.34599c0,0.3411 -0.10594,0.65888 -0.2885,0.92574c0.61765,0.03688 1.34342,-0.16324 1.76,0.23589l0.03316,0.00446c0.02085,-0.00701 0.0417,-0.01402 0.06255,-0.02103l0.05902,0.03739l0.18311,0.02465l0.00697,-0.03939l1.789,0.28092c0.87538,0.12251 1.54697,0.83357 1.54697,1.69241c0,0.57258 -0.2985,1.07946 -0.75689,1.39006c1.39413,0.62675 2.85203,0.97952 3.8157,0.20121c0.84057,-2.88711 -0.02629,-5.74243 0.58902,-8.58559c0.22859,-1.05622 0.20305,-2.47123 1.17623,-3.03804c0.95219,-0.5546 2.23244,0.20385 3.3295,0.41372c2.86328,0.54775 5.68606,1.737 8.4478,2.55835c0.88195,0.2623 1.8274,0.30176 2.70879,0.56571c0.15324,0.04589 0.30564,0.09574 0.45653,0.14978c-0.27405,-0.48245 -0.44476,-1.02973 -0.57915,-1.407c-0.7606,-2.13517 -0.32381,-4.36199 -0.61272,-6.50643l-0.13097,-0.21594l-1.23693,-0.49946c-0.64738,-0.24516 -1.11025,-0.8315 -1.13786,-1.52277c-0.81212,-0.48603 -1.59917,-1.00582 -2.34249,-1.57888c-0.78625,-0.60614 -1.88906,-1.03047 -2.26743,-1.91876c-0.48385,-1.13591 -0.89137,-2.69022 -0.11329,-3.67038c0.71184,-0.89673 2.33816,-0.40339 3.50724,-0.60507c0,0 1.81609,0 1.81609,1.71107c0,0.96065 -0.57244,1.38196 -1.07455,1.56673c0.16546,0.09217 0.30403,0.17558 0.38497,0.23221c1.16827,0.81729 2.38818,1.57217 3.64305,2.26948l1.40492,0.29415c0.41471,-0.04689 0.83125,-0.07234 1.24913,-0.07126l0.13701,0.08397l0.01177,-0.06651l1.789,0.28092c0.87538,0.12251 1.54697,0.83357 1.54697,1.69241c0,0.92641 -0.78141,1.68086 -1.75711,1.71018c-0.3137,0.51254 -0.90127,0.85753 -1.57435,0.85753c-0.01188,0 -0.02375,-0.00011 -0.03558,-0.00032c0.08988,1.58917 -0.24686,3.48828 0.24726,4.89886c0.3735,1.06623 2.45568,3.6398 2.14971,4.39491c-0.49295,1.21657 -2.1221,1.87614 -3.47851,2.12618c-1.0441,0.19247 -2.01122,-0.65881 -3.03688,-0.92512c-1.93131,-0.50144 -3.81899,-1.14163 -5.73071,-1.70576c-1.62062,-0.47824 -3.72661,-0.49531 -5.27377,-1.30179c0.00315,0.98906 0.00259,3.14714 0.00231,3.36616c-0.00307,2.37796 -0.37305,4.16091 -1.23562,6.40411c-0.80131,0.59271 -1.45303,1.43371 -2.40393,1.77813c-3.01321,1.09141 -7.07517,-1.46 -9.50196,-2.76941l-0.08405,-0.11389l-0.02959,0.03486l-1.50228,-1.13232c-0.16083,-0.11911 -0.29978,-0.26325 -0.41025,-0.4262c-2.23306,-0.68807 -4.49308,-1.97887 -5.1655,-3.44683c-0.09427,-0.20581 -0.19708,-0.42465 -0.29745,-0.65096c-1.08879,-0.80614 -2.2388,-1.93234 -2.78904,-3.10611c-0.77732,0.0073 -1.57423,0.15362 -2.32723,-0.02231c-0.34437,-0.08046 -0.49136,-0.94895 -0.74558,-0.71575c-0.36102,0.33119 0.11327,0.9679 -0.02651,1.42402c-0.20145,0.65738 -0.62627,1.23538 -0.97272,1.83673c-1.46369,2.5406 -3.8107,5.30613 -6.65533,6.61285c-1.13923,0.52333 -2.44824,1.88248 -3.54778,1.28856c-0.53572,-0.28937 -0.94952,-0.57292 -1.26097,-0.85004c-0.24648,0.38324 -0.69633,0.73297 -1.51738,0.73297c-1.61212,0 -1.79318,-1.34831 -1.81351,-1.65116c-1.68887,-2.32366 -2.45153,-4.71793 -3.44188,-7.27319l-0.57234,-0.08956c-0.66948,0.78623 -1.14026,1.76968 -2.00844,2.3587c-0.69122,0.46896 -1.66,0.38029 -2.45465,0.66929c-1.44333,0.52491 -2.85078,1.16503 -4.34996,1.52511c0,0 -1.76187,0.415 -2.20233,-1.24498c-0.44047,-1.65998 1.3214,-2.07497 1.3214,-2.07497c2.6034,-0.59871 5.32244,-1.22835 6.78825,-3.28642l2.4387,-1.08659c0,0 0.36295,-0.11398 0.8112,-0.08037c0.16245,-0.14295 0.37434,-0.27161 0.64875,-0.37503c1.68619,-0.63548 2.36067,0.95321 2.36067,0.95321c1.22632,2.90049 1.78845,5.63847 3.72396,8.16984c0.62468,-0.79032 1.63924,-1.47061 2.15872,-2.01321c0.78125,-0.81603 1.22106,-1.96437 2.19724,-2.56587c0.79268,-0.48842 1.85998,-0.33806 2.78998,-0.50709l0.83784,-0.63001c0,0 0.18523,-0.10471 0.46625,-0.18172z" fill="#000000" stroke="none" stroke-width="0.5" stroke-linecap="butt"/></g></g></svg>