<svg version="1.1" xmlns="http://www.w3.org/2000/svg" xmlns:xlink="http://www.w3.org/1999/xlink" width="485" height="365" viewBox="0,0,485,365"><g transform="translate(2.5,-0.70328)"><g data-paper-data="{&quot;isPaintingLayer&quot;:true}" fill-rule="nonzero" stroke-linejoin="miter" stroke-miterlimit="10" stroke-dasharray="" stroke-dashoffset="0" style="mix-blend-mode: normal"><path d="M-2.5,365.70328v-364h485v364z" fill="#ffc76c" stroke="#562100" stroke-width="0" stroke-linecap="butt"/><path d="M381.5,244.70327v-122h101v122z" fill="#553520" stroke="#351400" stroke-width="0" stroke-linecap="butt"/><path d="M255.5,363.70327v-122h127v122z" fill="#553520" stroke="#351400" stroke-width="0" stroke-linecap="butt"/><path d="M255.5,122.70328v-122h127v122z" fill="#553520" stroke="#351400" stroke-width="0" stroke-linecap="butt"/><path d="M0.5,122.70328v-122h127v122z" fill="#553520" stroke="#351400" stroke-width="0" stroke-linecap="butt"/><path d="M128.5,242.70328v-122h127v122z" fill="#553520" stroke="#351400" stroke-width="0" stroke-linecap="butt"/><path d="M0.5,363.70328v-122h127v122z" fill="#553520" stroke="#351400" stroke-width="0" stroke-linecap="butt"/><path d="M452.52987,314.76045l0.18246,40.78117" data-paper-data="{&quot;index&quot;:null}" fill="none" stroke="#562100" stroke-width="2.5" stroke-linecap="round"/><path d="M436.19915,316.12894l0.5474,28.64718" data-paper-data="{&quot;index&quot;:null}" fill="none" stroke="#562100" stroke-width="2.5" stroke-linecap="round"/><path d="M416.12788,316.12894l-0.5474,28.64718" fill="none" stroke="#562100" stroke-width="2.5" stroke-linecap="round"/><path d="M399.79716,315.12538l-0.18247,40.78117" fill="none" stroke="#562100" stroke-width="2.5" stroke-linecap="round"/><path d="M396.74542,333.55446v-41.9672h57.84175v41.9672z" fill="#8e5835" stroke="#562100" stroke-width="2.5" stroke-linecap="butt"/><path d="M324.75684,267.43579l5.48539,3.55809" fill="none" stroke="#848484" stroke-width="2" stroke-linecap="round"/><path d="M17.90936,236.70455c0,-6.19895 0,-40.02896 0,-55.21936c0,-4.52022 3.20685,-7.38993 6.36719,-7.38993c7.02068,0 34.7601,0 47.55055,0c3.98824,0 6.52303,3.24795 6.52303,8.26642c0,0.91769 0,47.63728 0,53.46636c0,3.58602 -2.29286,7.21837 -5.95013,7.21837c-12.5948,0 -41.37099,0 -48.4099,0c-3.03781,0 -6.08074,-3.13469 -6.08074,-6.34187z" fill="#3055ff" stroke="none" stroke-width="5" stroke-linecap="butt"/><path d="M17.80353,232.36916v-5.84813h60.23573v5.84813z" fill="#a2a2a2" stroke="none" stroke-width="5" stroke-linecap="butt"/><path d="M19.74069,229.13532c0,-0.74651 0,-2.43155 0,-2.43155h58.66409v4.20335c0,0 -48.14005,0 -55.3745,0c-1.76328,0 -3.28957,-1.13456 -3.28957,-1.7718z" fill="#a2a2a2" stroke="none" stroke-width="5" stroke-linecap="butt"/><path d="M44.81765,214.20776c0,-3.44817 0,-11.19629 0,-17.23778c0,-4.58092 3.54472,-8.18065 6.42764,-8.18065c5.92738,0 27.17143,0 27.17143,0v33.30693c0,0 -18.66396,0 -24.83411,0c-3.66561,0 -8.76498,-4.51103 -8.76498,-7.88848z" fill="#ffd797" stroke="none" stroke-width="5" stroke-linecap="butt"/><path d="M17.72319,207.46233c0,-4.60328 0,-14.94696 0,-23.0123c0,-6.11549 6.40322,-10.92109 11.61095,-10.92109c10.70725,0 49.08259,0 49.08259,0v44.46445c0,0 -33.71465,0 -44.86043,0c-6.62158,0 -15.83309,-6.02218 -15.83309,-10.53105z" fill="#ffdca3" stroke="none" stroke-width="5" stroke-linecap="butt"/><path d="M78.09623,220.44322c0,-3.68403 2.98649,-6.67053 6.67053,-6.67053c3.68402,0 6.67053,2.98651 6.67053,6.67053c0,3.68403 -2.98649,6.67053 -6.67053,6.67053c-3.68402,0 -6.67053,-2.98649 -6.67053,-6.67053z" fill="#ffd797" stroke="none" stroke-width="5" stroke-linecap="butt"/><path d="M80.22028,221.26561c0,-3.1289 2.53648,-5.66538 5.66538,-5.66538c3.1289,0 5.66538,2.53648 5.66538,5.66538c0,3.1289 -2.53648,5.66538 -5.66538,5.66538c-3.1289,0 -5.66538,-2.53648 -5.66538,-5.66538z" fill="#ffdca3" stroke="none" stroke-width="5" stroke-linecap="butt"/><path d="M70.02951,229.53998c0,-0.50466 0.40911,-0.91376 0.91376,-0.91376c0.50466,0 0.91376,0.40911 0.91376,0.91376c0,0.50466 -0.40911,0.91376 -0.91376,0.91376c-0.50466,0 -0.91376,-0.40911 -0.91376,-0.91376z" fill="#a2a2a2" stroke="none" stroke-width="5" stroke-linecap="butt"/><path d="M70.02951,233.92608c0,-0.50466 0.40911,-0.91376 0.91376,-0.91376c0.50466,0 0.91376,0.40911 0.91376,0.91376c0,0.50466 -0.40911,0.91376 -0.91376,0.91376c-0.50466,0 -0.91376,-0.40911 -0.91376,-0.91376z" fill="#3055ff" stroke="none" stroke-width="5" stroke-linecap="butt"/><path d="M62.25789,211.73267v-8.95495" fill="none" stroke="#000000" stroke-width="2.5" stroke-linecap="round"/><path d="M69.75083,211.73267v-8.95495" fill="none" stroke="#000000" stroke-width="2.5" stroke-linecap="round"/><g fill="#000000" stroke="none" stroke-width="0.5" stroke-linecap="butt"><path d="M87.2246,182.08085c2.16437,1.18055 0.98381,3.34495 0.98381,3.34495l-1.71771,2.91149c0.3945,2.49224 1.32893,8.66626 -1.30137,10.26817c-1.3228,0.80562 -2.98984,-0.81344 -4.46648,-1.28075c-3.77488,-1.19462 -7.03916,-3.11651 -10.69154,-4.53522c-0.82314,-0.31975 -1.84004,-0.60297 -2.5279,-1.15127c1.2016,2.53316 0.41247,8.68933 -1.30906,10.00014c-1.23761,0.94237 -3.09427,0.62003 -4.64272,0.4718c-3.4359,-0.32892 -8.65377,-4.33144 -11.06403,-6.54465c-1.22242,-1.12247 -2.06048,-3.91498 -4.0519,-3.31699c-1.27442,0.38267 -2.24134,1.43705 -3.32327,2.21166c-2.43981,1.74682 -4.74404,3.17991 -6.91354,5.31351c-1.02799,1.01097 -4.0437,5.29587 -4.43843,5.32889c-3.03736,0.25423 -4.32317,-3.80061 -5.18008,-5.75119c-0.33102,-0.77863 -1.14661,-2.5235 -1.56091,-3.92488c-0.46141,0.22095 -0.95483,0.39934 -1.41242,0.60229c-2.38001,1.05561 -9.56921,3.97165 -11.85173,1.5328c-0.98246,-1.04973 0.43287,-2.84553 0.54103,-4.27922c0.05738,-0.7604 -0.09532,-1.5263 -0.04559,-2.28725c0.25228,-3.85941 1.89092,-7.73412 4.17602,-11.24972c-0.71261,-0.13695 -1.56557,-0.58842 -1.83186,-1.91991c-0.48351,-2.41752 1.93403,-2.90103 1.93403,-2.90103l0.52265,0.21692c2.80421,-2.40062 4.8391,-5.1872 7.42177,-7.76075c4.41536,-4.39973 10.13694,-8.82089 15.81673,-11.33619c2.36787,-1.0486 6.18867,-2.64872 8.44592,0.34757c0.3047,0.40447 0.55592,0.77111 0.75953,1.10332c5.45052,-1.70755 10.91339,-1.9913 16.76872,-1.34081c3.18271,0.37225 6.76375,1.14899 9.68858,2.53772c1.46418,0.69519 3.27049,2.52496 4.72583,3.3523c1.85633,1.05528 5.38144,1.48434 5.51957,4.55515c0.22875,5.08524 -3.17635,3.84607 -5.61242,5.05122c-0.93142,0.46078 -1.65325,1.31919 -2.45343,2.00545c0.44418,0.15728 0.8602,0.34595 1.16459,0.51467c1.15427,0.63974 2.41307,1.20323 3.31157,2.16983c1.29119,1.38905 2.09915,3.45069 2.66772,5.50929c0.51538,-0.18583 1.1679,-0.19502 1.94831,0.23066zM28.11068,170.83292c1.57833,1.89399 -0.31566,3.47229 -0.31566,3.47229c-4.15894,3.40326 -7.10377,7.89941 -9.55812,12.67523c-0.91385,1.77824 -0.54787,3.72694 -0.69258,5.50322c1.90386,-0.74717 4.30611,-1.24712 5.95132,-2.04547c1.4067,-0.68261 2.84051,-2.51405 4.28346,-1.91183c1.1339,0.47321 2.6371,7.27314 3.33344,8.88273c0.04854,0.11718 0.10507,0.23265 0.16532,0.34732c0.57957,-0.7499 1.33078,-1.36433 1.39268,-1.42705c2.32467,-2.35563 4.8969,-3.97195 7.55022,-5.86303c2.06816,-1.47401 2.41063,-2.59161 5.22352,-3.04788c4.91767,-0.7977 5.43307,1.7794 8.4395,4.57233c1.11004,1.03122 3.54725,2.51869 4.82664,3.28731c1.23552,0.74225 2.56437,1.31718 3.83263,2.00203c0.22779,0.12298 0.47306,0.68707 0.61682,0.4718c0.18968,-0.28402 -0.24512,-0.6473 -0.27226,-0.98775c-0.07041,-0.88296 -0.01538,-1.77149 -0.01848,-2.65726c-0.00848,-2.42162 0.45653,-4.83159 0.94817,-7.20279c1.61211,0.07786 3.24288,-0.02308 4.83631,0.23361c3.96523,0.63878 7.56454,3.32028 11.31004,4.64512c0.60944,0.21557 1.27824,0.33381 1.88752,0.5559c0.02724,-0.45924 0.10955,-0.92729 0.08759,-1.38272c-0.05494,-1.13827 -0.17872,-2.27214 -0.27279,-3.40788c-0.25995,-0.44403 -0.34056,-0.84706 -0.34056,-0.84706c-0.3784,-1.93498 -0.91152,-5.44895 -2.36504,-7.04294c-1.47626,-1.61897 -7.57735,-2.295 -8.08023,-4.18073c-0.798,-2.9924 5.31055,-7.13078 7.47317,-8.22287c0.2063,-0.10417 0.50393,-0.21886 0.83241,-0.32202c-1.53114,-0.77833 -3.31423,-2.27886 -3.45023,-2.37672c-2.92649,-2.10558 -6.43761,-3.12862 -10.0158,-3.50052c-5.93929,-0.66005 -11.49966,-0.45281 -17.09413,1.91767l-1.75235,1.46029c-0.42935,0.36297 -0.9845,0.58179 -1.59076,0.58179c-1.36161,0 -2.46541,-1.1038 -2.46541,-2.46541c0,-0.11686 0.00814,-0.23185 0.02387,-0.34436l0.25533,-2.0427c-0.27183,0.13372 -0.52629,0.25321 -0.71065,0.34537c-2.10469,1.05204 -4.56076,2.04779 -6.35737,3.59414c-2.55631,2.20025 -5.58444,4.2964 -7.97113,6.66818c0.01786,0.02046 0.0357,0.04136 0.05348,0.06269z"/><path d="M28.0111,170.75274c2.38666,-2.37179 5.4275,-4.48674 7.98379,-6.68699c1.79661,-1.54636 4.26786,-2.55165 6.37254,-3.60369c0.18434,-0.09215 0.4735,-0.11934 0.74531,-0.25306l-0.253,2.04179c-0.01573,0.11253 -0.06177,0.13648 -0.06177,0.25335c0,1.36161 1.10795,2.46389 2.46956,2.46389c0.60625,0 1.16684,-0.22022 1.59619,-0.58318l1.75845,-1.46111c5.59447,-2.37047 11.19109,-2.56532 17.13037,-1.9053c3.57818,0.3719 7.09962,1.40782 10.02611,3.5134c0.13598,0.09785 1.92161,1.60363 3.45273,2.38195c-0.32847,0.10315 -0.62614,0.21783 -0.83243,0.322c-2.16262,1.0921 -8.26814,5.24111 -7.47012,8.2335c0.50288,1.88574 6.60458,2.57099 8.08086,4.18995c1.45349,1.59398 1.98525,5.1185 2.36365,7.05352c0,0 0.08035,0.40409 0.34027,0.84812c0.09406,1.13574 0.21644,2.27401 0.27139,3.41229c0.02197,0.45542 -0.06104,0.92523 -0.08828,1.38445c-0.60929,-0.22207 -1.36901,-0.37851 -1.97845,-0.59408c-3.74547,-1.32484 -7.25411,-3.96758 -11.21935,-4.60636c-1.59345,-0.25669 -3.22651,-0.15108 -4.83862,-0.22895c-0.49166,2.37121 -0.96729,4.79424 -0.95881,7.21586c0.0031,0.88577 -0.05497,1.77668 0.01545,2.65966c0.02715,0.34045 0.46129,0.70419 0.27161,0.98821c-0.14376,0.21526 -0.38946,-0.34853 -0.61723,-0.47152c-1.26826,-0.68485 -2.6016,-1.25695 -3.83713,-1.99922c-1.27939,-0.76863 -3.7254,-2.25231 -4.83545,-3.28352c-3.00644,-2.79292 -3.55919,-5.37308 -8.47684,-4.57538c-2.81288,0.45627 -3.16446,1.56791 -5.23262,3.04192c-2.65333,1.89109 -5.22866,3.50459 -7.55334,5.86022c-0.0619,0.06273 -0.81312,0.67715 -1.39267,1.42707c-0.06025,-0.11467 -0.11726,-0.23064 -0.16582,-0.34779c-0.69635,-1.60961 -2.20972,-8.42455 -3.34361,-8.89776c-1.44297,-0.60218 -2.78634,1.18984 -4.19303,1.87247c-1.6452,0.79834 -4.13813,1.33709 -6.04199,2.08428c0.14471,-1.77628 -0.2236,-3.73193 0.69026,-5.51016c2.45435,-4.77581 5.39875,-9.29436 9.55769,-12.6976c0,0 1.89607,-1.58543 0.31776,-3.47942c-0.01777,-0.02134 -0.03558,-0.04233 -0.05343,-0.06278z" data-paper-data="{&quot;noHover&quot;:false,&quot;origItem&quot;:[&quot;Path&quot;,{&quot;applyMatrix&quot;:true,&quot;segments&quot;:[[[425.50777,338.13241],[-0.03606,-0.04328],[3.20092,3.84111]],[[424.86759,345.17444],[0,0],[-8.43459,6.90201]],[[405.48318,370.88051],[4.97755,-9.68563],[-1.85335,3.60637]],[[404.07859,382.04136],[0.29349,-3.6024],[3.86115,-1.51532]],[[416.14821,377.89302],[-3.33659,1.61909],[2.8529,-1.38438]],[[424.83532,374.01569],[-2.92643,-1.22129],[2.2996,0.9597]],[[431.59573,392.0304],[-1.41224,-3.26439],[0.09847,0.23763]],[[431.93102,392.73477],[-0.12219,-0.23256],[1.17537,-1.52085]],[[434.75547,389.84064],[-0.12554,0.12722],[4.71456,-4.77737]],[[450.06775,377.95007],[-5.38109,3.83522],[4.19433,-2.98938]],[[460.66134,371.76878],[-5.70469,0.92536],[9.97329,-1.61778]],[[477.77714,381.04173],[-6.09724,-5.6642],[2.25123,2.09134]],[[487.56584,387.70856],[-2.5947,-1.55881],[2.50571,1.50535]],[[495.33866,391.76878],[-2.5721,-1.38888],[0.46194,0.24944]],[[496.58961,392.72564],[-0.29156,0.43657],[0.38467,-0.576]],[[496.03746,390.72242],[0.05507,0.69045],[-0.14283,-1.79072]],[[496,385.33333],[0.00628,1.79639],[-0.01716,-4.91121]],[[497.92294,370.72564],[-0.99709,4.80896],[3.26944,0.15792]],[[507.73127,371.1994],[-3.23159,-0.52059],[8.04173,1.29548]],[[530.66866,380.61999],[-7.59605,-2.68685],[1.23598,0.43719]],[[534.49666,381.74739],[-1.23565,-0.45041],[0.05526,-0.93135]],[[534.67432,378.94317],[0.04457,0.92363],[-0.1114,-2.30848]],[[534.12109,372.03179],[0.19079,2.30338],[-0.52718,-0.90052]],[[533.43043,370.31391],[0,0],[-0.7674,-3.9243]],[[528.63399,356.03043],[2.94779,3.2327],[-2.99396,-3.28333]],[[512.24685,347.55165],[1.01986,3.82438],[-1.61839,-6.06879]],[[527.40287,330.87517],[-4.38591,2.21482],[0.41836,-0.21126]],[[529.09106,330.22211],[-0.66616,0.20919],[-3.10521,-1.57849]],[[522.09381,325.402],[0.2758,0.19844],[-5.93511,-4.27024]],[[501.78118,318.30275],[7.25675,0.75425],[-12.0452,-1.33859]],[[467.11332,322.19188],[11.34587,-4.80747],[0,0]],[[463.55947,325.15343],[0,0],[-0.87077,0.73612]],[[460.33333,326.33333],[1.22951,0],[-2.76142,0]],[[455.33333,321.33333],[0,2.76142],[0,-0.23702]],[[455.38172,320.63492],[-0.0319,0.22823],[0,0]],[[455.89956,316.49223],[0,0],[-0.55129,0.2712]],[[454.45832,317.19264],[0.37387,-0.18688],[-4.26845,2.13361]],[[441.56521,324.48177],[3.64362,-3.13612],[-5.18434,4.46224]],[[425.39934,338.00525],[4.8403,-4.81013],[0.03622,0.0415]]],&quot;closed&quot;:true}]}"/></g><path d="M32.55734,173.51468c0,0.89664 -0.53319,1.26009 -0.96544,1.40739c-0.20875,0.3524 -0.45949,0.6857 -0.76672,0.99292c-1.17321,1.17321 -3.38266,0.92019 -4.25348,2.09053c-0.78888,1.0602 -1.83952,3.02591 -2.30683,4.2747c-0.23583,0.63022 -0.20178,1.36157 -0.53382,1.94684c-0.32783,0.57785 -0.99828,0.89325 -1.3842,1.43403c-0.56098,0.78608 -1.03552,2.74599 -1.95239,3.27112c-3.56645,2.04263 -4.4899,1.51692 -4.20857,-2.69471c0.12915,-1.9332 1.75793,-4.57704 2.84334,-6.21481c2.09023,-2.78309 3.53624,-6.1532 6.43924,-8.15552l1.02561,-0.52581c0,0 1.34862,-0.67432 2.02294,0.67432v0.00001c0.08579,0.17157 0.13884,0.33223 0.16608,0.48197c0.27506,-0.10804 0.552,-0.21113 0.83065,-0.30896c0.23423,-0.83727 0.33548,-1.75878 0.50953,-2.45501c0,0 0.36569,-1.46279 1.82849,-1.09709c1.4628,0.3657 1.09709,1.82849 1.09709,1.82849c-0.19253,0.77015 -0.33579,1.56718 -0.53524,2.34077c0.08882,0.18838 0.14372,0.42116 0.14372,0.70883zM21.29327,182.06423c-0.25775,0.3983 -0.5018,0.80702 -0.72166,1.22753c0.20815,-0.16009 0.40654,-0.32728 0.53524,-0.55047c0.11808,-0.20477 0.15906,-0.43802 0.18642,-0.67705z" fill="#000000" stroke="none" stroke-width="0.5" stroke-linecap="butt"/><path d="M39.97116,189.6757c0.69121,-1.59623 1.41381,-3.66685 2.25572,-4.18552c0.68957,-0.42481 1.59394,0.30249 2.40054,0.37579c0.25882,0.02352 2.42765,-0.05609 3.13733,-0.03699c0.43724,-0.05833 0.8864,-0.10164 1.26842,-0.22948l0.30167,0.24436l0.0572,-0.17161l1.4768,0.49226c0.61613,0.18948 1.06399,0.76315 1.06399,1.44143c0,0.35204 -0.12064,0.67589 -0.32284,0.93248c0.63832,0.27444 1.22162,0.61503 1.64071,0.817l0.09296,0.13809l0.03633,-0.04541l1.24728,0.99782c0.35121,0.27606 0.57678,0.70474 0.57678,1.1861c0,0.30058 -0.08796,0.5806 -0.23953,0.81577c0.51282,0.0325 1.11538,-0.14384 1.46124,0.20786l0.02754,0.00394c0.0173,-0.00617 0.03463,-0.01236 0.05194,-0.01853l0.04899,0.03295l0.15203,0.02172l0.00578,-0.03472l1.48534,0.24755c0.72679,0.10796 1.28438,0.73456 1.28438,1.49137c0,0.50456 -0.24783,0.95123 -0.62841,1.22494c1.15748,0.5523 2.36791,0.86317 3.16799,0.17731c0.6979,-2.54415 -0.02182,-5.06029 0.48904,-7.56572c0.18979,-0.93075 0.16858,-2.17768 0.97656,-2.67717c0.79056,-0.48872 1.85349,0.17964 2.76434,0.36457c2.37724,0.48268 4.72087,1.53065 7.01381,2.25445c0.73224,0.23113 1.5172,0.26592 2.24898,0.49851c0.12724,0.04044 0.25376,0.08437 0.37903,0.13199c-0.22754,-0.42514 -0.36927,-0.90741 -0.48084,-1.23986c-0.63149,-1.88153 -0.26884,-3.84385 -0.50871,-5.73355l-0.10874,-0.19029l-1.02696,-0.44012c-0.5375,-0.21604 -0.92179,-0.73273 -0.94471,-1.34189c-0.67427,-0.4283 -1.32771,-0.88634 -1.94485,-1.39132c-0.65278,-0.53414 -1.56841,-0.90806 -1.88255,-1.69084c-0.40172,-1.00099 -0.74006,-2.37065 -0.09406,-3.23437c0.59101,-0.79022 1.94126,-0.35548 2.91189,-0.5332c0,0 1.50781,0 1.50781,1.50781c0,0.84653 -0.47528,1.21779 -0.89214,1.38061c0.13738,0.08123 0.25242,0.15473 0.31962,0.20464c0.96996,0.72022 1.9828,1.38542 3.02466,1.9999l1.16645,0.25921c0.34432,-0.04132 0.69014,-0.06374 1.03709,-0.06279l0.11375,0.074l0.00976,-0.05861l1.48534,0.24755c0.72679,0.10796 1.28438,0.73456 1.28438,1.49137c0,0.81636 -0.64877,1.48118 -1.45885,1.50704c-0.26045,0.45166 -0.74828,0.75567 -1.30711,0.75567c-0.00987,0 -0.01972,-0.00009 -0.02954,-0.00028c0.07462,1.40039 -0.20496,3.07392 0.2053,4.31692c0.31011,0.93957 2.03883,3.20744 1.7848,3.87285c-0.40928,1.07205 -1.76188,1.65328 -2.88804,1.87362c-0.86687,0.1696 -1.66982,-0.58056 -2.52138,-0.81522c-1.60348,-0.44188 -3.17073,-1.00603 -4.75795,-1.50314c-1.34553,-0.42142 -3.09402,-0.43647 -4.37856,-1.14715c0.00261,0.87158 0.00215,2.77329 0.00191,2.9663c-0.00254,2.09549 -0.30972,3.66665 -1.02587,5.64338c-0.66529,0.5223 -1.20638,1.26341 -1.99587,1.56692c-2.50173,0.96176 -5.87418,-1.28658 -7.88903,-2.44045l-0.06979,-0.10035l-0.02457,0.03072l-1.24728,-0.99782c-0.13352,-0.10496 -0.24889,-0.23198 -0.34062,-0.37558c-1.85401,-0.60633 -3.7304,-1.74381 -4.28867,-3.03739c-0.07827,-0.18137 -0.16362,-0.3742 -0.24696,-0.57362c-0.90397,-0.71037 -1.85877,-1.70279 -2.3156,-2.73714c-0.64538,0.00644 -1.307,0.13537 -1.93218,-0.01966c-0.28592,-0.0709 -0.40796,-0.83622 -0.61902,-0.63072c-0.29973,0.29185 0.09404,0.85292 -0.022,1.25485c-0.16725,0.57929 -0.51997,1.08863 -0.8076,1.61855c-1.21524,2.23881 -3.16384,4.67583 -5.52562,5.82733c-0.94585,0.46116 -2.03267,1.65886 -2.94555,1.13549c-0.44477,-0.255 -0.78834,-0.50487 -1.04693,-0.74906c-0.20464,0.33771 -0.57813,0.6459 -1.25981,0.6459c-1.33847,0 -1.48879,-1.18814 -1.50568,-1.45502c-1.40218,-2.04763 -2.03539,-4.1575 -2.85762,-6.40922l-0.47519,-0.07892c-0.55583,0.69284 -0.9467,1.55946 -1.66751,2.07852c-0.5739,0.41325 -1.37823,0.33512 -2.03798,0.58979c-1.19833,0.46256 -2.36686,1.02664 -3.61157,1.34395c0,0 -1.46279,0.3657 -1.8285,-1.0971c-0.3657,-1.46279 1.0971,-1.8285 1.0971,-1.8285c2.16148,-0.52759 4.41897,-1.08244 5.63597,-2.89604l2.02474,-0.95751c0,0 0.30135,-0.10044 0.67351,-0.07083c0.13488,-0.12597 0.3108,-0.23935 0.53864,-0.33049c1.39997,-0.55998 1.95996,0.83999 1.95996,0.83999c1.01815,2.55595 1.48487,4.96869 3.09184,7.19935c0.51864,-0.69645 1.36098,-1.29592 1.79228,-1.77406c0.64863,-0.71909 1.01379,-1.73103 1.82427,-2.26107c0.65813,-0.43041 1.54426,-0.29791 2.31639,-0.44686l0.69562,-0.55518c0,0 0.15378,-0.09226 0.38711,-0.16013z" fill="#000000" stroke="none" stroke-width="0.5" stroke-linecap="butt"/><path d="M88.08151,222.90022c-1.59139,-0.87251 -1.07874,-3.49797 -0.60788,-5.22381c-0.06714,-0.19471 -0.09682,-0.42909 -0.06807,-0.71107c0.10622,-1.04225 0.86281,-1.28653 1.31471,-1.33855c0.24538,-0.07954 0.54702,-0.09271 0.91475,0.0149c0.04497,0.01316 0.08815,0.02731 0.12959,0.04239c1.89302,0.1616 3.77791,0.21184 5.66885,0.40206l1.0021,0.04388c0,0 1.50622,0.06943 1.43677,1.57564c-0.06943,1.50622 -1.57564,1.43677 -1.57564,1.43677l-1.169,-0.05621c-1.23277,-0.12744 -2.46528,-0.19147 -3.69916,-0.26528c0.66705,2.41557 1.39995,6.68192 -3.34702,4.07929z" fill="#ffa000" stroke="none" stroke-width="0.5" stroke-linecap="butt"/><g stroke="none" stroke-width="5" stroke-linecap="butt"><path d="M72.16754,157.07146c1.60029,7.70781 -8.97988,11.56959 -22.43997,14.36415c-13.4601,2.79456 -23.64345,3.24367 -25.24375,-4.46413c-1.60027,-7.70781 5.98852,-20.65371 19.44861,-23.44828c13.4601,-2.79456 26.63482,5.84047 28.23511,13.54829z" fill="#4b6cff"/><path d="M55.21021,172.16664c-13.4601,2.79456 -23.64345,3.24366 -25.24375,-4.46414c-1.60027,-7.70781 5.98852,-20.65371 19.44862,-23.44828c13.4601,-2.79456 23.34525,9.13004 24.94554,16.83786c0,0 -5.69032,8.27999 -19.15041,11.07456z" fill="#3055ff"/><path d="M18.80163,186.34845c0,0 -2.97106,-4.84614 -3.62023,-7.09111c-0.76558,-2.64757 -0.68182,-7.78664 -0.68182,-7.78664l69.78106,-14.48781c0,0 1.64022,4.05514 2.00712,6.8478c0.34309,2.61145 0.1276,9.40098 0.1276,9.40098z" fill="#4b6cff"/><path d="M22.27395,185.25193c0,0 -2.97108,-4.69535 -3.62024,-6.87046c-0.76558,-2.56519 -0.68181,-7.54435 -0.68181,-7.54435l66.12598,-13.12323c0,0 2.37124,4.29447 2.73814,7.00022c0.34309,2.53019 -1.15168,7.28091 -1.15168,7.28091z" fill="#3055ff"/><path d="M23.88296,174.45595l0.18927,-9.19813l49.00281,-7.8398l4.09242,7.51662z" fill="#4264ff"/><path d="M25.7105,174.09044c0,0 1.39717,-3.84059 1.90447,-5.23509c0.33759,-0.92797 3.95855,-2.95441 4.78678,-3.12354c6.61553,-1.35098 42.50083,-8.67929 42.50083,-8.67929l4.09242,7.51661z" fill="#3055ff"/></g><path d="M56.49196,164.82611c0.33716,0.67432 -0.33716,1.01147 -0.33716,1.01147l-0.35364,0.17031c-0.11259,0.07506 -0.22518,0.15012 -0.33777,0.22518c0.17672,0.72338 -0.3967,1.31762 -0.7324,1.91667c-0.03931,0.07013 -0.07823,0.14003 -0.11681,0.20971c1.16971,1.32107 2.54352,2.18245 3.02155,4.01049l0.02251,0.40018c0,0 0,0.72889 -0.71669,0.75328c-0.21878,0.54433 -0.83708,0.42066 -0.83708,0.42066c-1.36121,-0.2725 -2.64277,-0.72691 -3.88048,-1.28595c-0.11075,0.17615 -0.22491,0.3528 -0.34318,0.53019c-0.48881,0.70883 -1.07467,1.03405 -1.52137,1.73871l-0.42819,0.64228c-0.13423,0.20785 -0.36794,0.34544 -0.63378,0.34544c-0.41637,0 -0.7539,-0.33753 -0.7539,-0.75391v-0.86935h0.12471c-0.22409,-1.17877 -0.30694,-2.42894 -0.31959,-3.69815c-1.31316,-0.77003 -2.6196,-1.5669 -3.96798,-2.28546h-0.73403c-0.41637,0 -0.7539,-0.33753 -0.7539,-0.7539c0,-0.41638 0.33753,-0.75391 0.7539,-0.75391h1.08669v0.04143c0.06992,0.03377 0.13968,0.06782 0.20927,0.10216c0.75327,-0.17154 1.42581,-0.01321 2.52401,-0.13795c0.3314,-0.03763 0.66078,-0.08433 0.98883,-0.13823c0.04509,-0.99775 0.0883,-1.97336 0.09374,-2.90038l0.04595,-0.08345l-0.02909,-0.00728l0.21351,-0.85406c0.07618,-0.33573 0.37643,-0.58635 0.73522,-0.58635c0.26584,0 0.49954,0.13759 0.63378,0.34544l0.42819,0.64228l-0.05272,0.03515c0.78411,0.78439 1.42665,1.61822 2.06405,2.47804c0.00132,-0.00033 0.00263,-0.00065 0.00395,-0.00098c0.24608,-0.06152 0.8419,-0.22768 1.38149,-0.32176c0.3304,-0.22027 0.66083,-0.44055 0.99124,-0.66083l0.51571,-0.26437c0,0 0.67432,-0.33715 1.01147,0.33716zM53.62801,167.01022c-0.02357,0.01007 -0.04783,0.0201 -0.07279,0.03009c0.01127,0.01488 0.02256,0.02977 0.03386,0.04467c0.01279,-0.02478 0.0258,-0.0498 0.03894,-0.07476z" fill="#fff500" stroke="none" stroke-width="0.5" stroke-linecap="butt"/><path d="M320.44792,223.25257l-1.41593,0.56355c-3.08926,1.02698 -6.0889,2.53451 -9.35362,2.99739c-2.69199,0.38168 -5.72639,0.01137 -8.44523,0.01137c-4.67475,0 -9.97778,0.61483 -14.42096,-1.1752c-1.91458,-0.77132 -3.45915,-2.25737 -5.03685,-3.5324c-1.43673,-1.86219 -1.75716,-3.25907 -2.27244,-5.53537c-0.30904,-1.36524 -0.8208,-4.93825 -0.10661,-6.14388c1.30017,-2.19485 2.27657,-1.26668 4.00838,-1.54958c1.69944,-0.27761 3.13669,-1.20223 4.91395,-1.34665c5.05161,-0.4105 9.92355,1.25261 14.50467,3.01919c1.17947,0.45483 2.82804,0.17462 4.0612,0.18765c2.62831,-0.75402 4.67583,-3.11895 7.3223,-3.70431c2.21831,-0.49065 5.54619,-0.12685 7.77474,0.24371c0.66469,0.11051 1.39113,0.06271 1.98533,0.38044c2.49515,1.33422 2.14977,1.66345 2.23105,4.05014c0.14477,4.25109 -1.39699,7.53011 -4.80451,9.88783c0.24413,1.17028 -0.94546,1.64611 -0.94546,1.64611z" data-paper-data="{&quot;index&quot;:null}" fill="#000dff" stroke="none" stroke-width="0.5" stroke-linecap="butt"/><path d="M300.26949,246.17464c0,3.22787 -3.12369,6.3828 -6.24212,6.3828c-7.22571,0 -36.76559,0 -49.69465,0c-3.75433,0 -6.10804,-3.65579 -6.10804,-7.26495c0,-5.86668 0,-52.88777 0,-53.81137c0,-5.05086 2.60205,-8.31976 6.69615,-8.31976c13.12992,0 41.60552,0 48.81252,0c3.24419,0 6.53616,2.88823 6.53616,7.43762c0,15.28842 0,49.33675 0,55.5757z" data-paper-data="{&quot;index&quot;:null}" fill="#000dff" stroke="none" stroke-width="5" stroke-linecap="butt"/><path d="M238.53755,241.81129v-5.88587h61.43377v5.88587z" data-paper-data="{&quot;index&quot;:null}" fill="#000dff" stroke="none" stroke-width="5" stroke-linecap="butt"/><path d="M297.21232,238.55658c0,0.64136 -1.53615,1.78323 -3.3108,1.78323c-7.28114,0 -55.73184,0 -55.73184,0v-4.23046h59.04264c0,0 0,1.69592 0,2.44724z" data-paper-data="{&quot;index&quot;:null}" fill="#000dff" stroke="none" stroke-width="5" stroke-linecap="butt"/><path d="M271.97355,223.53271c0,3.39924 -5.13227,7.93939 -8.82155,7.93939c-6.20997,0 -24.99437,0 -24.99437,0v-33.52185c0,0 21.38114,0 27.34677,0c2.90153,0 6.46913,3.62294 6.46913,8.23343c0,6.08047 0,13.8786 0,17.34902z" data-paper-data="{&quot;index&quot;:null}" fill="#ffd797" stroke="none" stroke-width="5" stroke-linecap="butt"/><path d="M299.24282,216.74374c0,4.53795 -9.27094,10.599 -15.93526,10.599c-11.21772,0 -45.14992,0 -45.14992,0v-44.75137c0,0 38.62297,0 49.39932,0c5.24134,0 11.68587,4.83661 11.68587,10.99157c0,8.11739 0,18.52782 0,23.1608z" data-paper-data="{&quot;index&quot;:null}" fill="#ffdca3" stroke="none" stroke-width="5" stroke-linecap="butt"/><path d="M303.52915,257.8992c-3.70781,0 -6.71358,-3.00578 -6.71358,-6.71358c0,-3.7078 3.00578,-6.71357 6.71358,-6.71357c3.7078,0 6.71357,3.00577 6.71357,6.71357c0,3.7078 -3.00577,6.71358 -6.71357,6.71358z" data-paper-data="{&quot;index&quot;:null}" fill="#ffd797" stroke="none" stroke-width="5" stroke-linecap="butt"/><path d="M304.77701,257.12224c-3.1491,0 -5.70194,-2.55285 -5.70194,-5.70193c0,-3.1491 2.55286,-5.70193 5.70194,-5.70193c3.14909,0 5.70193,2.55283 5.70193,5.70193c0,3.14909 -2.55285,5.70193 -5.70193,5.70193z" data-paper-data="{&quot;index&quot;:null}" fill="#ffdca3" stroke="none" stroke-width="5" stroke-linecap="butt"/><path d="M245.86325,236.02092c-0.50792,0 -0.91967,-0.41174 -0.91967,-0.91966c0,-0.50792 0.41175,-0.91967 0.91967,-0.91967c0.50792,0 0.91967,0.41175 0.91967,0.91967c0,0.50792 -0.41175,0.91966 -0.91967,0.91966z" data-paper-data="{&quot;index&quot;:null}" fill="#000dff" stroke="none" stroke-width="5" stroke-linecap="butt"/><path d="M245.67932,239.88352c-0.50792,0 -0.91967,-0.41175 -0.91967,-0.91967c0,-0.50792 0.41175,-0.91967 0.91967,-0.91967c0.50792,0 0.91967,0.41175 0.91967,0.91967c0,0.50792 -0.41175,0.91967 -0.91967,0.91967z" data-paper-data="{&quot;index&quot;:null}" fill="#000dff" stroke="none" stroke-width="5" stroke-linecap="butt"/><path d="M245.67932,244.29792c-0.50792,0 -0.91967,-0.41174 -0.91967,-0.91966c0,-0.50792 0.41175,-0.91966 0.91967,-0.91966c0.50792,0 0.91967,0.41174 0.91967,0.91966c0,0.50792 -0.41175,0.91966 -0.91967,0.91966z" data-paper-data="{&quot;index&quot;:null}" fill="#000dff" stroke="none" stroke-width="5" stroke-linecap="butt"/><path d="M254.42074,221.04165v-9.01275" data-paper-data="{&quot;index&quot;:null}" fill="none" stroke="#ffffff" stroke-width="2.5" stroke-linecap="round"/><path d="M246.87948,212.0289v9.01275" data-paper-data="{&quot;index&quot;:null}" fill="none" stroke="#ffffff" stroke-width="2.5" stroke-linecap="round"/><g data-paper-data="{&quot;index&quot;:null}" fill="#000000" stroke="none" stroke-width="0.5" stroke-linecap="butt"><path d="M229.29296,191.19844c0.78546,-0.42843 1.44218,-0.41917 1.96089,-0.23214c0.57222,-2.07189 1.38541,-4.14683 2.68493,-5.54484c0.90429,-0.97284 2.17121,-1.53996 3.33293,-2.18384c0.30634,-0.16978 0.72504,-0.35968 1.17209,-0.51797c-0.80533,-0.6907 -1.53183,-1.55462 -2.46925,-2.01839c-2.4518,-1.21294 -5.87886,0.03424 -5.64864,-5.08382c0.13903,-3.09063 3.68688,-3.52245 5.5552,-4.58454c1.46472,-0.83268 3.2827,-2.67425 4.75632,-3.37393c2.94371,-1.3977 6.54784,-2.17945 9.7511,-2.5541c5.8931,-0.65468 11.39122,-0.3691 16.87692,1.34946c0.20495,-0.33435 0.45776,-0.70336 0.76444,-1.11044c2.27182,-3.01563 6.11727,-1.40518 8.50042,-0.34981c5.71645,2.53152 11.47494,6.9812 15.9188,11.40933c2.59934,2.59016 4.64733,5.39473 7.46965,7.81084l0.52603,-0.21832c0,0 2.43313,0.48663 1.9465,2.91976c-0.268,1.34006 -1.12646,1.79445 -1.84367,1.93229c2.29985,3.53828 3.94905,7.43798 4.20297,11.32231c0.05005,0.76585 -0.10364,1.53669 -0.04589,2.302c0.10887,1.44294 1.53332,3.25033 0.54452,4.30683c-2.29724,2.45458 -9.53283,-0.48028 -11.9282,-1.54269c-0.46055,-0.20427 -0.95715,-0.3838 -1.42154,-0.60617c-0.41697,1.41041 -1.23784,3.16656 -1.57099,3.9502c-0.86245,1.96315 -2.15652,6.04414 -5.2135,5.78829c-0.39728,-0.03323 -3.43245,-4.34578 -4.46707,-5.36327c-2.1835,-2.14735 -4.5026,-3.58971 -6.95815,-5.3478c-1.08892,-0.7796 -2.06207,-1.84077 -3.34471,-2.22592c-2.00427,-0.60184 -2.84774,2.20868 -4.07804,3.3384c-2.42581,2.22751 -7.67734,6.25586 -11.13542,6.5869c-1.55844,0.14919 -3.42708,0.47359 -4.67268,-0.47485c-1.73264,-1.31928 -2.52687,-7.51517 -1.31751,-10.06467c-0.6923,0.55184 -1.71576,0.83687 -2.54421,1.15869c-3.67596,1.42788 -6.96128,3.36217 -10.76053,4.56449c-1.48617,0.47032 -3.16396,2.09984 -4.4953,1.28901c-2.64727,-1.61224 -1.70682,-7.82612 -1.30977,-10.33443l-1.7288,-2.93028c0,0 -1.18819,-2.17837 0.99016,-3.36655zM288.78838,179.87797c0.01789,-0.02148 0.03583,-0.04251 0.05381,-0.0631c-2.40208,-2.38709 -5.44975,-4.49675 -8.02255,-6.71121c-1.80821,-1.55634 -4.28013,-2.55852 -6.3984,-3.61734c-0.18554,-0.09276 -0.44164,-0.21301 -0.71524,-0.3476l0.25699,2.05588c0.01583,0.11324 0.02403,0.22895 0.02403,0.34658c0,1.3704 -1.11094,2.48132 -2.48133,2.48132c-0.61016,0 -1.16889,-0.22023 -1.60102,-0.58554l-1.76366,-1.46972c-5.63057,-2.38578 -11.2268,-2.59434 -17.20443,-1.93004c-3.60127,0.37431 -7.13505,1.40394 -10.08043,3.52311c-0.13688,0.09848 -1.93148,1.6087 -3.47251,2.39204c0.33061,0.10383 0.63016,0.21927 0.83779,0.32411c2.17657,1.09914 8.32454,5.26422 7.5214,8.27594c-0.50613,1.89788 -6.64658,2.5783 -8.13237,4.20771c-1.4629,1.60428 -1.99947,5.14092 -2.3803,7.08839c0,0 -0.08111,0.40565 -0.34275,0.85253c-0.09467,1.14307 -0.21925,2.28426 -0.27454,3.42987c-0.02211,0.45838 0.06074,0.92943 0.08816,1.39164c0.61321,-0.22353 1.28634,-0.34254 1.89971,-0.5595c3.76965,-1.33339 7.3922,-4.03218 11.38301,-4.67509c1.60371,-0.25834 3.24501,-0.15675 4.86752,-0.23512c0.49481,2.38652 0.96281,4.81202 0.95428,7.24927c-0.0031,0.89149 0.05228,1.78573 -0.01859,2.6744c-0.02733,0.34264 -0.46492,0.70827 -0.27402,0.99413c0.14468,0.21666 0.39154,-0.35108 0.62079,-0.47485c1.27644,-0.68926 2.61388,-1.26789 3.85737,-2.01493c1.28765,-0.77359 3.74058,-2.27067 4.85779,-3.30854c3.02583,-2.81096 3.54456,-5.40468 8.49396,-4.60183c2.83104,0.45922 3.17572,1.58403 5.25723,3.06755c2.67044,1.90328 5.25927,3.53003 7.59894,5.90087c0.0623,0.06314 0.81838,0.68153 1.40169,1.43627c0.06064,-0.1154 0.11752,-0.23162 0.16639,-0.34956c0.70084,-1.61999 2.21372,-8.46378 3.35495,-8.94005c1.45228,-0.6061 2.89534,1.23717 4.31111,1.92418c1.65584,0.8035 4.07358,1.30668 5.98973,2.05867c-0.14566,-1.78774 0.22269,-3.74903 -0.69707,-5.53873c-2.47019,-4.80665 -5.43403,-9.3318 -9.6198,-12.75703c0,0 -1.90621,-1.58849 -0.31769,-3.4947z"/><path d="M288.88852,179.79725c-0.01797,0.02059 -0.03589,0.0417 -0.05377,0.06318c-1.5885,1.90622 0.31981,3.50187 0.31981,3.50187c4.18578,3.42521 7.14919,7.97292 9.61936,12.77955c0.91975,1.78972 0.54908,3.75797 0.69472,5.54572c-1.91615,-0.752 -4.42516,-1.29424 -6.08099,-2.09773c-1.41578,-0.68702 -2.7678,-2.49061 -4.22008,-1.88454c-1.14121,0.47626 -2.66434,7.33519 -3.36519,8.95518c-0.04886,0.11792 -0.10624,0.23463 -0.16689,0.35003c-0.58329,-0.75474 -1.33935,-1.37311 -1.40165,-1.43626c-2.33969,-2.37084 -4.93164,-3.99475 -7.60208,-5.89804c-2.08151,-1.48352 -2.43535,-2.60233 -5.26639,-3.06153c-4.94938,-0.80285 -5.50569,1.79395 -8.53154,4.6049c-1.11722,1.03787 -3.579,2.53112 -4.86666,3.30471c-1.24349,0.74706 -2.58544,1.32286 -3.86188,2.01212c-0.22925,0.12379 -0.47652,0.69122 -0.62122,0.47457c-0.1909,-0.28585 0.24605,-0.65195 0.27337,-0.99459c0.07089,-0.88868 0.01244,-1.78535 0.01556,-2.67683c0.00853,-2.43724 -0.47018,-4.8759 -0.965,-7.26242c-1.62251,0.07838 -3.2661,-0.02792 -4.86984,0.23043c-3.99082,0.6429 -7.52211,3.30269 -11.29176,4.63608c-0.61338,0.21696 -1.378,0.37441 -1.99121,0.59791c-0.02741,-0.4622 -0.11095,-0.93503 -0.08885,-1.3934c0.05529,-1.14563 0.17845,-2.29126 0.27313,-3.43433c0.2616,-0.44688 0.34247,-0.85359 0.34247,-0.85359c0.38083,-1.94751 0.91602,-5.49478 2.37889,-7.09904c1.4858,-1.6294 7.62689,-2.31908 8.13302,-4.21698c0.80318,-3.01171 -5.34175,-7.18749 -7.51832,-8.28663c-0.20761,-0.10485 -0.50721,-0.22026 -0.8378,-0.32407c1.541,-0.78334 3.33815,-2.29885 3.47501,-2.39732c2.94539,-2.11917 6.48954,-3.16177 10.09081,-3.53608c5.97761,-0.66428 11.61035,-0.46817 17.24092,1.9176l1.76981,1.47053c0.43213,0.36531 0.99634,0.58694 1.60649,0.58694c1.37039,0 2.48549,-1.1094 2.48549,-2.47979c0,-0.11763 -0.04634,-0.14174 -0.06217,-0.255l-0.25464,-2.05495c0.27357,0.13459 0.56457,0.16195 0.75012,0.2547c2.11827,1.05884 4.60545,2.07059 6.41366,3.62694c2.57279,2.21446 5.63326,4.34305 8.03533,6.73015z" data-paper-data="{&quot;noHover&quot;:false,&quot;origItem&quot;:[&quot;Path&quot;,{&quot;applyMatrix&quot;:true,&quot;segments&quot;:[[[425.50777,338.13241],[-0.03606,-0.04328],[3.20092,3.84111]],[[424.86759,345.17444],[0,0],[-8.43459,6.90201]],[[405.48318,370.88051],[4.97755,-9.68563],[-1.85335,3.60637]],[[404.07859,382.04136],[0.29349,-3.6024],[3.86115,-1.51532]],[[416.14821,377.89302],[-3.33659,1.61909],[2.8529,-1.38438]],[[424.83532,374.01569],[-2.92643,-1.22129],[2.2996,0.9597]],[[431.59573,392.0304],[-1.41224,-3.26439],[0.09847,0.23763]],[[431.93102,392.73477],[-0.12219,-0.23256],[1.17537,-1.52085]],[[434.75547,389.84064],[-0.12554,0.12722],[4.71456,-4.77737]],[[450.06775,377.95007],[-5.38109,3.83522],[4.19433,-2.98938]],[[460.66134,371.76878],[-5.70469,0.92536],[9.97329,-1.61778]],[[477.77714,381.04173],[-6.09724,-5.6642],[2.25123,2.09134]],[[487.56584,387.70856],[-2.5947,-1.55881],[2.50571,1.50535]],[[495.33866,391.76878],[-2.5721,-1.38888],[0.46194,0.24944]],[[496.58961,392.72564],[-0.29156,0.43657],[0.38467,-0.576]],[[496.03746,390.72242],[0.05507,0.69045],[-0.14283,-1.79072]],[[496,385.33333],[0.00628,1.79639],[-0.01716,-4.91121]],[[497.92294,370.72564],[-0.99709,4.80896],[3.26944,0.15792]],[[507.73127,371.1994],[-3.23159,-0.52059],[8.04173,1.29548]],[[530.66866,380.61999],[-7.59605,-2.68685],[1.23598,0.43719]],[[534.49666,381.74739],[-1.23565,-0.45041],[0.05526,-0.93135]],[[534.67432,378.94317],[0.04457,0.92363],[-0.1114,-2.30848]],[[534.12109,372.03179],[0.19079,2.30338],[-0.52718,-0.90052]],[[533.43043,370.31391],[0,0],[-0.7674,-3.9243]],[[528.63399,356.03043],[2.94779,3.2327],[-2.99396,-3.28333]],[[512.24685,347.55165],[1.01986,3.82438],[-1.61839,-6.06879]],[[527.40287,330.87517],[-4.38591,2.21482],[0.41836,-0.21126]],[[529.09106,330.22211],[-0.66616,0.20919],[-3.10521,-1.57849]],[[522.09381,325.402],[0.2758,0.19844],[-5.93511,-4.27024]],[[501.78118,318.30275],[7.25675,0.75425],[-12.0452,-1.33859]],[[467.11332,322.19188],[11.34587,-4.80747],[0,0]],[[463.55947,325.15343],[0,0],[-0.87077,0.73612]],[[460.33333,326.33333],[1.22951,0],[-2.76142,0]],[[455.33333,321.33333],[0,2.76142],[0,-0.23702]],[[455.38172,320.63492],[-0.0319,0.22823],[0,0]],[[455.89956,316.49223],[0,0],[-0.55129,0.2712]],[[454.45832,317.19264],[0.37387,-0.18688],[-4.26845,2.13361]],[[441.56521,324.48177],[3.64362,-3.13612],[-5.18434,4.46224]],[[425.39934,338.00525],[4.8403,-4.81013],[0.03622,0.0415]]],&quot;closed&quot;:true}]}"/></g><path d="M251.7076,241.02727c-1.47224,-0.36806 -1.10418,-1.84028 -1.10418,-1.84028l0.40062,-1.55558c-0.01229,-1.67646 -0.01137,-3.35273 -0.01137,-5.02923c0,0 0,-1.51754 1.51755,-1.51754c1.51754,0 1.51754,1.51754 1.51754,1.51754c0,1.80012 -0.00074,3.59998 -0.01137,5.40006l-0.46849,1.92085c0,0 -0.36805,1.47223 -1.84028,1.10417z" data-paper-data="{&quot;index&quot;:null}" fill="#ff0000" stroke="none" stroke-width="0.5" stroke-linecap="butt"/><path d="M245.34346,239.12046v-0.43455c0.01128,-1.97157 -0.42291,-3.68067 -0.43455,-5.64919c0,0 0,-1.51755 1.51755,-1.51755c1.51755,0 1.51754,1.51755 1.51754,1.51755c-0.01428,1.9513 0.425,3.66837 0.43456,5.64919v0.43455c0,0 0,1.51755 -1.51755,1.51755c-1.51755,0 -1.51755,-1.51755 -1.51755,-1.51755z" data-paper-data="{&quot;index&quot;:null}" fill="#ff0000" stroke="none" stroke-width="0.5" stroke-linecap="butt"/><path d="M284.31296,182.57705c0,-0.28953 0.05525,-0.52382 0.14465,-0.71341c-0.20075,-0.77858 -0.34492,-1.58076 -0.53871,-2.35588c0,0 -0.36805,-1.47223 1.10418,-1.84029c1.47224,-0.36806 1.84029,1.10417 1.84029,1.10417c0.17518,0.70073 0.27709,1.62818 0.51283,2.47086c0.28045,0.09846 0.55917,0.20221 0.83601,0.31094c0.02742,-0.15071 0.0808,-0.31241 0.16715,-0.48509v0c0.67866,-1.35733 2.03599,-0.67866 2.03599,-0.67866l1.03223,0.52921c2.92172,2.01523 4.37708,5.40709 6.4808,8.20814c1.0924,1.64834 2.7317,4.30925 2.86168,6.25492c0.28315,4.2388 -0.64627,4.76789 -4.23573,2.71209c-0.92278,-0.52852 -1.40039,-2.50108 -1.96499,-3.29223c-0.38841,-0.54427 -1.06319,-0.86171 -1.39313,-1.44329c-0.33418,-0.58904 -0.29992,-1.3251 -0.53727,-1.95939c-0.47032,-1.25686 -1.52775,-3.23524 -2.32171,-4.30229c-0.87643,-1.17789 -3.10015,-0.92323 -4.28093,-2.10402c-0.30921,-0.30921 -0.56155,-0.64463 -0.77165,-0.99932c-0.43504,-0.14827 -0.97167,-0.51406 -0.97167,-1.41648zM295.6497,191.18174c0.02754,0.24057 0.06877,0.47533 0.18762,0.68142c0.12954,0.22463 0.32922,0.39291 0.53871,0.55403c-0.22128,-0.42321 -0.46689,-0.83457 -0.72631,-1.23545z" data-paper-data="{&quot;index&quot;:null}" fill="#000000" stroke="none" stroke-width="0.5" stroke-linecap="butt"/><path d="M276.85126,198.84235c0.23482,0.0683 0.3896,0.16117 0.3896,0.16117l0.7001,0.55875c0.77712,0.14991 1.66898,0.01655 2.33134,0.44973c0.81572,0.53346 1.18322,1.55193 1.83605,2.27567c0.43407,0.48123 1.28186,1.08458 1.80384,1.78551c1.61734,-2.24508 2.08707,-4.67338 3.11179,-7.24582c0,0 0.5636,-1.409 1.9726,-0.8454c0.22931,0.09172 0.40636,0.20582 0.54211,0.33261c0.37456,-0.02982 0.67784,0.07128 0.67784,0.07128l2.03781,0.9637c1.22485,1.8253 3.4969,2.38373 5.67233,2.91473c0,0 1.47223,0.36806 1.10417,1.84029c-0.36806,1.47224 -1.84029,1.10418 -1.84029,1.10418c-1.25273,-0.31935 -2.42882,-0.88707 -3.63488,-1.35262c-0.66402,-0.25631 -1.47354,-0.17768 -2.05113,-0.5936c-0.72547,-0.5224 -1.11885,-1.39463 -1.67828,-2.09193l-0.47825,0.07943c-0.82755,2.26625 -1.46484,4.38973 -2.87607,6.45059c-0.017,0.2686 -0.16829,1.46441 -1.51539,1.46441c-0.68608,0 -1.06199,-0.31017 -1.26795,-0.65006c-0.26025,0.24577 -0.60604,0.49725 -1.05368,0.7539c-0.91878,0.52675 -2.01261,-0.67869 -2.96456,-1.14282c-2.37701,-1.15893 -4.3382,-3.61167 -5.56127,-5.86493c-0.2895,-0.53335 -0.64448,-1.04597 -0.81281,-1.629c-0.1168,-0.40452 0.27951,-0.96922 -0.02216,-1.26296c-0.21242,-0.20683 -0.33525,0.56342 -0.62301,0.63479c-0.62921,0.15603 -1.29511,0.02627 -1.94465,0.01979c-0.45979,1.04101 -1.42076,2.03984 -2.33056,2.7548c-0.08386,0.20071 -0.16977,0.39479 -0.24854,0.57732c-0.56188,1.30193 -2.45037,2.44674 -4.31634,3.05699c-0.09231,0.14452 -0.20842,0.27235 -0.34281,0.37799l-1.25532,1.00425l-0.02473,-0.03091l-0.07022,0.101c-2.02785,1.1613 -5.42206,3.42416 -7.93995,2.45618c-0.79459,-0.30547 -1.33918,-1.05134 -2.00875,-1.57703c-0.72077,-1.98951 -1.02994,-3.57079 -1.0325,-5.6798c-0.00024,-0.19425 -0.0007,-2.10824 0.00193,-2.98544c-1.29283,0.71526 -3.05261,0.7304 -4.40682,1.15455c-1.59745,0.50033 -3.17482,1.0681 -4.78864,1.51284c-0.85705,0.23619 -1.66519,0.99119 -2.53764,0.82048c-1.13343,-0.22176 -2.49475,-0.80673 -2.90667,-1.8857c-0.25567,-0.6697 1.48421,-2.95221 1.79631,-3.89784c0.4129,-1.25104 0.13151,-2.93536 0.20662,-4.34479c-0.00988,0.00019 -0.01978,0.0003 -0.02972,0.0003c-0.56244,0 -1.05341,-0.30598 -1.31554,-0.76055c-0.8153,-0.02601 -1.46826,-0.69512 -1.46826,-1.51675c0,-0.7617 0.56119,-1.39234 1.29267,-1.50099l1.49492,-0.24915l0.00983,0.05899l0.11448,-0.07447c0.34918,-0.00095 0.69725,0.02161 1.04379,0.0632l1.17397,-0.26088c1.04858,-0.61844 2.06795,-1.28795 3.04417,-2.0128c0.06764,-0.05023 0.18342,-0.1242 0.32169,-0.20595c-0.41956,-0.16387 -0.89791,-0.53753 -0.89791,-1.38953c0,-1.51755 1.51755,-1.51755 1.51755,-1.51755c0.9769,0.17888 2.33585,-0.25866 2.93068,0.53664c0.65017,0.8693 0.30964,2.24781 -0.09467,3.25525c-0.31618,0.78782 -1.23769,1.16417 -1.89469,1.70175c-0.62112,0.50825 -1.27879,0.96924 -1.95741,1.4003c-0.02307,0.61308 -0.40984,1.13311 -0.9508,1.35054l-1.03359,0.44297l-0.10943,0.19151c-0.24142,1.90191 0.12356,3.87687 -0.512,5.77054c-0.11229,0.33459 -0.25495,0.81997 -0.48395,1.24786c0.12609,-0.04793 0.25344,-0.09215 0.38149,-0.13285c0.7365,-0.23409 1.52652,-0.26907 2.26349,-0.50171c2.30774,-0.72846 4.66648,-1.78321 7.05907,-2.26901c0.91672,-0.18614 1.98652,-0.85879 2.78218,-0.36692c0.8132,0.50271 0.79186,1.75767 0.98287,2.69443c0.51417,2.52159 -0.2102,5.05398 0.49219,7.61455c0.80524,0.69028 2.02349,0.37741 3.18844,-0.17845c-0.38303,-0.27547 -0.63246,-0.72502 -0.63246,-1.23284c0,-0.76172 0.56119,-1.39235 1.29267,-1.501l1.49491,-0.24915l0.00582,0.03494l0.15301,-0.02186l0.04932,-0.03316c0.01742,0.00621 0.03486,0.01244 0.05228,0.01866l0.02771,-0.00396c0.3481,-0.35398 0.95456,-0.17649 1.47068,-0.2092c-0.15255,-0.23668 -0.24107,-0.51852 -0.24107,-0.82104c0,-0.48447 0.22703,-0.91592 0.58049,-1.19376l1.25532,-1.00426l0.03657,0.04571l0.09355,-0.13898c0.4218,-0.20327 1.00885,-0.54607 1.6513,-0.82227c-0.20351,-0.25825 -0.32492,-0.58419 -0.32492,-0.93849c0,-0.68265 0.45075,-1.26003 1.07085,-1.45074l1.48632,-0.49544l0.05757,0.17272l0.30361,-0.24595c0.38448,0.12868 0.83654,0.17226 1.27661,0.23097c0.71425,-0.01923 2.8971,0.0609 3.15758,0.03723c0.81181,-0.07378 1.72201,-0.80578 2.41604,-0.37822c0.84735,0.52202 1.57461,2.60599 2.27027,4.21253z" data-paper-data="{&quot;index&quot;:null}" fill="#000000" stroke="none" stroke-width="0.5" stroke-linecap="butt"/><path d="M338.01622,292.50664c0,-5.98394 0,-38.64058 0,-53.30411c0,-4.36343 3.09561,-7.13361 6.14634,-7.13361c6.77717,0 33.55446,0 45.90129,0c3.84991,0 6.29678,3.13529 6.29678,7.97971c0,0.88586 0,45.98501 0,51.61191c0,3.46164 -2.21333,6.96801 -5.74375,6.96801c-12.15796,0 -39.93606,0 -46.73083,0c-2.93245,0 -5.86983,-3.02596 -5.86983,-6.12191z" fill="#00449c" stroke="none" stroke-width="5" stroke-linecap="butt"/><path d="M337.91406,288.32162v-5.64529h58.14649v5.64529z" fill="#00449c" stroke="none" stroke-width="5" stroke-linecap="butt"/><path d="M339.78402,285.19995c0,-0.72062 0,-2.34721 0,-2.34721h56.62935v4.05756c0,0 -46.47034,0 -53.45388,0c-1.70212,0 -3.17548,-1.09522 -3.17548,-1.71035z" fill="#00449c" stroke="none" stroke-width="5" stroke-linecap="butt"/><path d="M363.9912,266.84967c0,-3.32857 0,-10.80796 0,-16.63991c0,-4.42203 3.42178,-7.89691 6.20471,-7.89691c5.7218,0 26.229,0 26.229,0v32.15169c0,0 -18.01661,0 -23.97275,0c-3.53848,0 -8.46097,-4.35456 -8.46097,-7.61487z" fill="#ffd797" stroke="none" stroke-width="5" stroke-linecap="butt"/><path d="M337.8365,264.27867c0,-4.44361 0,-14.42853 0,-22.21413c0,-5.90338 6.18112,-10.5423 11.20822,-10.5423c10.33587,0 47.38019,0 47.38019,0v42.92222c0,0 -32.54527,0 -43.30447,0c-6.39191,0 -15.28393,-5.81331 -15.28393,-10.16579z" fill="#ffdca3" stroke="none" stroke-width="5" stroke-linecap="butt"/><path d="M350.60604,281.10267c0,-3.55625 2.88291,-6.43916 6.43916,-6.43916c3.55625,0 6.43917,2.88291 6.43917,6.43916c0,3.55625 -2.88292,6.43916 -6.43917,6.43916c-3.55625,0 -6.43916,-2.88291 -6.43916,-6.43916z" fill="#ffd797" stroke="none" stroke-width="5" stroke-linecap="butt"/><path d="M388.3286,285.59056c0,-0.48716 0.39492,-0.88207 0.88207,-0.88207c0.48716,0 0.88208,0.39492 0.88208,0.88207c0,0.48716 -0.39492,0.88208 -0.88208,0.88208c-0.48716,0 -0.88207,-0.39492 -0.88207,-0.88208z" fill="#00449c" stroke="none" stroke-width="5" stroke-linecap="butt"/><path d="M388.3286,289.82454c0,-0.48716 0.39492,-0.88208 0.88207,-0.88208c0.48716,0 0.88208,0.39492 0.88208,0.88208c0,0.48716 -0.39492,0.88207 -0.88208,0.88207c-0.48716,0 -0.88207,-0.39492 -0.88207,-0.88207z" fill="#00449c" stroke="none" stroke-width="5" stroke-linecap="butt"/><path d="M380.75932,268.4009v-9.36472" fill="none" stroke="#000000" stroke-width="2.5" stroke-linecap="round"/><path d="M388.05958,268.4009v-8.64435" fill="none" stroke="#000000" stroke-width="2.5" stroke-linecap="round"/><g fill="#000000" stroke="none" stroke-width="0.5" stroke-linecap="butt"><path d="M404.92731,239.77753c2.08931,1.13961 0.94968,3.22894 0.94968,3.22894l-1.65813,2.8105c0.38082,2.40579 1.28283,8.36567 -1.25623,9.91202c-1.27693,0.77768 -2.88614,-0.78522 -4.31157,-1.23632c-3.64395,-1.15318 -6.795,-3.00841 -10.3207,-4.37792c-0.79459,-0.30866 -1.77623,-0.58204 -2.44023,-1.11133c1.15993,2.44529 0.39817,8.38794 -1.26365,9.65329c-1.19469,0.90968 -2.98695,0.59853 -4.4817,0.45544c-3.31673,-0.31751 -8.35361,-4.18121 -10.68027,-6.31766c-1.18002,-1.08354 -1.98901,-3.7792 -3.91137,-3.20195c-1.23022,0.3694 -2.1636,1.3872 -3.208,2.13494c-2.35519,1.68623 -4.57949,3.06963 -6.67374,5.12922c-0.99233,0.9759 -3.90345,5.11219 -4.28449,5.14407c-2.93202,0.2454 -4.17322,-3.66879 -5.00041,-5.55171c-0.31954,-0.75162 -1.10684,-2.43597 -1.50677,-3.78874c-0.44541,0.21328 -0.92171,0.38548 -1.36344,0.5814c-2.29745,1.019 -9.2373,3.83388 -11.44066,1.47964c-0.94838,-1.01332 0.41785,-2.74684 0.52226,-4.13079c0.05539,-0.73403 -0.09201,-1.47336 -0.04401,-2.20792c0.24353,-3.72556 1.82533,-7.46587 4.03118,-10.85952c-0.6879,-0.1322 -1.51127,-0.56802 -1.76832,-1.85331c-0.46673,-2.33368 1.86695,-2.80041 1.86695,-2.80041l0.50453,0.20941c2.70696,-2.31735 4.67125,-5.00729 7.16435,-7.49158c4.26222,-4.24714 9.78534,-8.51494 15.26813,-10.94299c2.28574,-1.01224 5.97402,-2.55687 8.15298,0.3355c0.29414,0.39045 0.53663,0.74436 0.73319,1.06505c5.26147,-1.64832 10.53487,-1.92222 16.1871,-1.2943c3.07232,0.35934 6.52915,1.10914 9.35254,2.44971c1.41339,0.67109 3.15706,2.43738 4.56192,3.23602c1.79195,1.01867 5.19479,1.43286 5.32813,4.39716c0.22081,4.90887 -3.06618,3.71266 -5.41777,4.87602c-0.89912,0.4448 -1.59591,1.27343 -2.36833,1.93589c0.42877,0.15183 0.83037,0.33396 1.12419,0.49681c1.11424,0.61755 2.32937,1.16149 3.1967,2.09457c1.24641,1.34087 2.02636,3.33101 2.5752,5.3182c0.4975,-0.17938 1.12739,-0.18826 1.88075,0.22266zM347.8637,228.91973c1.52359,1.8283 -0.30471,3.35186 -0.30471,3.35186c-4.01469,3.28523 -6.85739,7.62542 -9.2266,12.2356c-0.88216,1.71656 -0.52887,3.59768 -0.66857,5.31235c1.83783,-0.72126 4.15675,-1.20387 5.74491,-1.97453c1.35791,-0.65893 2.74198,-2.42685 4.13489,-1.84553c1.09457,0.4568 2.54563,7.02087 3.21782,8.57464c0.04687,0.11312 0.10142,0.22458 0.15959,0.33527c0.55946,-0.72389 1.28463,-1.317 1.34439,-1.37756c2.24403,-2.27393 4.72706,-3.83419 7.28834,-5.65968c1.99643,-1.42289 2.32702,-2.50172 5.04235,-2.94217c4.74711,-0.77003 5.24463,1.71768 8.14679,4.41374c1.07154,0.99545 3.42422,2.43133 4.65923,3.17329c1.19267,0.71651 2.47544,1.27149 3.69971,1.93259c0.21988,0.11872 0.45665,0.66325 0.59542,0.45544c0.1831,-0.27417 -0.23661,-0.62485 -0.26282,-0.9535c-0.06797,-0.85233 -0.01485,-1.71005 -0.01783,-2.56509c-0.00818,-2.33763 0.44069,-4.664 0.91528,-6.95297c1.55619,0.07517 3.1304,-0.02227 4.66856,0.22551c3.82769,0.61663 7.30218,3.20512 10.91776,4.48401c0.5883,0.20809 1.2339,0.32223 1.82206,0.53663c0.0263,-0.44331 0.10577,-0.89511 0.08456,-1.33476c-0.05303,-1.09879 -0.17253,-2.19332 -0.26333,-3.28968c-0.25093,-0.42863 -0.32874,-0.81768 -0.32874,-0.81768c-0.36527,-1.86788 -0.87991,-5.25995 -2.28301,-6.79866c-1.42506,-1.56281 -7.31454,-2.21541 -7.79997,-4.03572c-0.77031,-2.88862 5.12637,-6.88346 7.21397,-7.93767c0.19914,-0.10055 0.48645,-0.21127 0.80354,-0.31085c-1.47803,-0.75133 -3.19928,-2.19982 -3.33057,-2.29428c-2.82499,-2.03255 -6.21433,-3.0201 -9.66841,-3.37911c-5.73329,-0.63715 -11.1008,-0.43712 -16.50122,1.85116l-1.69157,1.40964c-0.41446,0.35038 -0.95035,0.56161 -1.53558,0.56161c-1.31438,0 -2.3799,-1.06551 -2.3799,-2.3799c0,-0.11282 0.00786,-0.2238 0.02304,-0.33242l0.24647,-1.97185c-0.2624,0.12909 -0.50804,0.24443 -0.68599,0.33339c-2.03169,1.01555 -4.40258,1.97676 -6.13687,3.46949c-2.46765,2.12394 -5.39074,4.14738 -7.69465,6.43689c0.01724,0.01974 0.03446,0.03993 0.05162,0.06053z"/><path d="M347.76758,228.84234c2.30388,-2.28952 5.23925,-4.33112 7.70689,-6.45506c1.7343,-1.49273 4.11982,-2.46315 6.15151,-3.4787c0.17796,-0.08896 0.45707,-0.11519 0.71946,-0.24429l-0.24423,1.97096c-0.01518,0.10863 -0.05963,0.13174 -0.05963,0.24457c0,1.31438 1.06952,2.37843 2.3839,2.37843c0.58522,0 1.12637,-0.21258 1.54083,-0.56295l1.69746,-1.41043c5.40042,-2.28825 10.80293,-2.47634 16.53621,-1.83921c3.45407,0.35901 6.85337,1.35899 9.67836,3.39153c0.13126,0.09445 1.85496,1.54801 3.33297,2.29933c-0.31708,0.09957 -0.60442,0.21027 -0.80356,0.31083c-2.08761,1.05421 -7.98137,5.05933 -7.21103,7.94793c0.48544,1.82033 6.37552,2.48182 7.80059,4.04462c1.40308,1.5387 1.91639,4.94097 2.28166,6.80887c0,0 0.07757,0.39007 0.32848,0.8187c0.09081,1.09635 0.20893,2.19515 0.26197,3.29395c0.02121,0.43964 -0.05892,0.89314 -0.08522,1.33644c-0.58815,-0.21437 -1.32153,-0.36538 -1.90983,-0.57347c-3.61556,-1.27889 -7.00252,-3.82998 -10.83022,-4.4466c-1.53819,-0.24779 -3.1146,-0.14583 -4.67079,-0.22101c-0.4746,2.28897 -0.93374,4.62796 -0.92557,6.96559c0.00299,0.85504 -0.05306,1.71506 0.01493,2.56741c0.0262,0.32864 0.4453,0.67977 0.2622,0.95395c-0.13878,0.2078 -0.37595,-0.33644 -0.59583,-0.45517c-1.22427,-0.66109 -2.51136,-1.21336 -3.70403,-1.92988c-1.23502,-0.74197 -3.59619,-2.17419 -4.66774,-3.16963c-2.90217,-2.69605 -3.43574,-5.18672 -8.18282,-4.41669c-2.71533,0.44044 -3.0547,1.51352 -5.05112,2.93641c-2.5613,1.8255 -5.0473,3.38303 -7.29136,5.65696c-0.05976,0.06055 -0.78493,0.65366 -1.34437,1.37756c-0.05816,-0.11068 -0.11319,-0.22263 -0.16005,-0.33572c-0.6722,-1.55378 -2.13308,-8.13235 -3.22764,-8.58914c-1.39292,-0.5813 -2.68969,1.14857 -4.0476,1.80752c-1.58815,0.77065 -3.9946,1.29071 -5.83243,2.01199c0.13969,-1.71468 -0.21585,-3.60248 0.66632,-5.31905c2.36921,-4.61016 5.2115,-8.97199 9.22619,-12.2572c0,0 1.8303,-1.53043 0.30674,-3.35874c-0.01716,-0.0206 -0.03434,-0.04086 -0.05157,-0.0606z" data-paper-data="{&quot;noHover&quot;:false,&quot;origItem&quot;:[&quot;Path&quot;,{&quot;applyMatrix&quot;:true,&quot;segments&quot;:[[[425.50777,338.13241],[-0.03606,-0.04328],[3.20092,3.84111]],[[424.86759,345.17444],[0,0],[-8.43459,6.90201]],[[405.48318,370.88051],[4.97755,-9.68563],[-1.85335,3.60637]],[[404.07859,382.04136],[0.29349,-3.6024],[3.86115,-1.51532]],[[416.14821,377.89302],[-3.33659,1.61909],[2.8529,-1.38438]],[[424.83532,374.01569],[-2.92643,-1.22129],[2.2996,0.9597]],[[431.59573,392.0304],[-1.41224,-3.26439],[0.09847,0.23763]],[[431.93102,392.73477],[-0.12219,-0.23256],[1.17537,-1.52085]],[[434.75547,389.84064],[-0.12554,0.12722],[4.71456,-4.77737]],[[450.06775,377.95007],[-5.38109,3.83522],[4.19433,-2.98938]],[[460.66134,371.76878],[-5.70469,0.92536],[9.97329,-1.61778]],[[477.77714,381.04173],[-6.09724,-5.6642],[2.25123,2.09134]],[[487.56584,387.70856],[-2.5947,-1.55881],[2.50571,1.50535]],[[495.33866,391.76878],[-2.5721,-1.38888],[0.46194,0.24944]],[[496.58961,392.72564],[-0.29156,0.43657],[0.38467,-0.576]],[[496.03746,390.72242],[0.05507,0.69045],[-0.14283,-1.79072]],[[496,385.33333],[0.00628,1.79639],[-0.01716,-4.91121]],[[497.92294,370.72564],[-0.99709,4.80896],[3.26944,0.15792]],[[507.73127,371.1994],[-3.23159,-0.52059],[8.04173,1.29548]],[[530.66866,380.61999],[-7.59605,-2.68685],[1.23598,0.43719]],[[534.49666,381.74739],[-1.23565,-0.45041],[0.05526,-0.93135]],[[534.67432,378.94317],[0.04457,0.92363],[-0.1114,-2.30848]],[[534.12109,372.03179],[0.19079,2.30338],[-0.52718,-0.90052]],[[533.43043,370.31391],[0,0],[-0.7674,-3.9243]],[[528.63399,356.03043],[2.94779,3.2327],[-2.99396,-3.28333]],[[512.24685,347.55165],[1.01986,3.82438],[-1.61839,-6.06879]],[[527.40287,330.87517],[-4.38591,2.21482],[0.41836,-0.21126]],[[529.09106,330.22211],[-0.66616,0.20919],[-3.10521,-1.57849]],[[522.09381,325.402],[0.2758,0.19844],[-5.93511,-4.27024]],[[501.78118,318.30275],[7.25675,0.75425],[-12.0452,-1.33859]],[[467.11332,322.19188],[11.34587,-4.80747],[0,0]],[[463.55947,325.15343],[0,0],[-0.87077,0.73612]],[[460.33333,326.33333],[1.22951,0],[-2.76142,0]],[[455.33333,321.33333],[0,2.76142],[0,-0.23702]],[[455.38172,320.63492],[-0.0319,0.22823],[0,0]],[[455.89956,316.49223],[0,0],[-0.55129,0.2712]],[[454.45832,317.19264],[0.37387,-0.18688],[-4.26845,2.13361]],[[441.56521,324.48177],[3.64362,-3.13612],[-5.18434,4.46224]],[[425.39934,338.00525],[4.8403,-4.81013],[0.03622,0.0415]]],&quot;closed&quot;:true}]}"/></g><path d="M352.15613,231.50848c0,0.86553 -0.5147,1.21637 -0.93195,1.35858c-0.20152,0.34019 -0.44355,0.66192 -0.74012,0.95848c-1.13252,1.13252 -3.26534,0.88827 -4.10596,2.01802c-0.76151,1.02344 -1.77572,2.92095 -2.22681,4.12643c-0.22765,0.60836 -0.19479,1.31434 -0.51531,1.87931c-0.31646,0.55781 -0.96365,0.86227 -1.33619,1.3843c-0.54152,0.75881 -0.99961,2.65075 -1.88468,3.15766c-3.44274,1.97177 -4.33417,1.4643 -4.06259,-2.60124c0.12466,-1.86615 1.69695,-4.41829 2.74472,-5.99926c2.01774,-2.68656 3.41359,-5.93978 6.2159,-7.87265l0.99004,-0.50759c0,0 1.30185,-0.65092 1.95277,0.65093v0c0.08281,0.16562 0.13402,0.32071 0.16032,0.46526c0.26553,-0.10429 0.53286,-0.2038 0.80184,-0.29824c0.2261,-0.80823 0.32384,-1.69778 0.49186,-2.36987c0,0 0.35301,-1.41206 1.76507,-1.05904c1.41206,0.35302 1.05905,1.76507 1.05905,1.76507c-0.18586,0.74343 -0.32415,1.51282 -0.51668,2.25958c0.08575,0.18184 0.13873,0.40655 0.13873,0.68425zM341.28276,239.76149c-0.24881,0.38449 -0.48439,0.77903 -0.69663,1.18494c0.20093,-0.15453 0.39245,-0.31593 0.51668,-0.53138c0.11399,-0.19767 0.15354,-0.42282 0.17995,-0.65356z" fill="#000000" stroke="none" stroke-width="0.5" stroke-linecap="butt"/><path d="M359.31282,247.10895c0.66722,-1.54087 1.36476,-3.53966 2.17749,-4.04034c0.66565,-0.41008 1.53865,0.29199 2.31728,0.36276c0.24983,0.02271 2.34345,-0.05414 3.02851,-0.03571c0.42208,-0.05631 0.85567,-0.09811 1.22443,-0.22153l0.2912,0.23589l0.05522,-0.16566l1.42557,0.47519c0.59476,0.18291 1.02708,0.73668 1.02708,1.39143c0,0.33982 -0.11646,0.65245 -0.31164,0.90014c0.61619,0.26492 1.17925,0.5937 1.58379,0.78866l0.08973,0.1333l0.03508,-0.04384l1.20401,0.9632c0.33902,0.26649 0.55676,0.6803 0.55676,1.14497c0,0.29016 -0.0849,0.56047 -0.23122,0.78748c0.49502,0.03137 1.0767,-0.13885 1.41056,0.20066l0.02657,0.0038c0.01671,-0.00596 0.03342,-0.01193 0.05013,-0.01789l0.0473,0.0318l0.14675,0.02097l0.00558,-0.03351l1.43381,0.23897c0.70158,0.10422 1.23983,0.70907 1.23983,1.43964c0,0.48706 -0.23923,0.91824 -0.60661,1.18245c1.11733,0.53314 2.28578,0.83323 3.05812,0.17116c0.67368,-2.45591 -0.02107,-4.88478 0.47208,-7.30331c0.1832,-0.89847 0.16274,-2.10215 0.94269,-2.58431c0.76314,-0.47177 1.78921,0.1734 2.66845,0.35193c2.29479,0.46594 4.55712,1.47757 6.77054,2.17625c0.70684,0.22312 1.46459,0.2567 2.17099,0.48122c0.12281,0.03904 0.24496,0.08144 0.36588,0.12741c-0.21964,-0.4104 -0.35646,-0.87594 -0.46416,-1.19686c-0.60959,-1.81628 -0.25952,-3.71052 -0.49106,-5.53468l-0.10497,-0.18369l-0.99134,-0.42487c-0.51885,-0.20855 -0.88982,-0.70731 -0.91194,-1.29533c-0.65088,-0.41344 -1.28166,-0.8556 -1.8774,-1.34307c-0.63014,-0.51561 -1.514,-0.87656 -1.81725,-1.63219c-0.38778,-0.96626 -0.71439,-2.28843 -0.0908,-3.1222c0.57051,-0.7628 1.87393,-0.34314 2.8109,-0.51471c0,0 1.45551,0 1.45551,1.45551c0,0.81717 -0.45879,1.17556 -0.8612,1.33274c0.13261,0.07841 0.24366,0.14936 0.30854,0.19753c0.93632,0.69523 1.91402,1.33737 2.91974,1.93053l1.12599,0.25022c0.33237,-0.03989 0.66622,-0.06153 1.00113,-0.06062l0.1098,0.07142l0.00943,-0.05658l1.43381,0.23897c0.70158,0.10422 1.23983,0.70907 1.23983,1.43964c0,0.78805 -0.62627,1.42981 -1.40825,1.45476c-0.25142,0.43599 -0.72233,0.72946 -1.26178,0.72946c-0.00952,0 -0.01903,-0.00009 -0.02851,-0.00027c0.07203,1.35182 -0.19785,2.9673 0.19817,4.1672c0.29935,0.90698 1.96812,3.09619 1.7229,3.73852c-0.39508,1.03487 -1.70077,1.59593 -2.78788,1.80863c-0.8368,0.16373 -1.6119,-0.56042 -2.43392,-0.78695c-1.54786,-0.42656 -3.06076,-0.97112 -4.59292,-1.451c-1.29886,-0.40681 -2.98671,-0.42134 -4.2267,-1.10737c0.00253,0.84135 0.00208,2.67711 0.00185,2.86341c-0.00246,2.02281 -0.29898,3.53947 -0.99029,5.44765c-0.64221,0.50419 -1.16454,1.21958 -1.92665,1.51256c-2.41496,0.92841 -5.67044,-1.24195 -7.61541,-2.35579l-0.06736,-0.09688l-0.02372,0.02965l-1.20401,-0.9632c-0.12889,-0.10132 -0.24026,-0.22393 -0.3288,-0.36255c-1.7897,-0.58531 -3.60101,-1.68333 -4.13993,-2.93204c-0.07555,-0.17507 -0.15795,-0.36122 -0.23839,-0.55373c-0.87262,-0.68574 -1.7943,-1.64374 -2.2353,-2.64221c-0.62299,0.00621 -1.26167,0.13068 -1.86517,-0.01898c-0.276,-0.06845 -0.39381,-0.80722 -0.59755,-0.60885c-0.28934,0.28172 0.09078,0.82334 -0.02124,1.21133c-0.16145,0.5592 -0.50193,1.05088 -0.7796,1.56242c-1.17308,2.16116 -3.05412,4.51364 -5.33396,5.6252c-0.91304,0.44516 -1.96216,1.60133 -2.84339,1.09612c-0.42935,-0.24615 -0.761,-0.48736 -1.01062,-0.72309c-0.19755,0.326 -0.55807,0.6235 -1.21611,0.6235c-1.29204,0 -1.43716,-1.14693 -1.45346,-1.40456c-1.35355,-1.97662 -1.96479,-4.0133 -2.75851,-6.18692l-0.45871,-0.07618c-0.53656,0.66881 -0.91387,1.50538 -1.60968,2.00643c-0.55399,0.39892 -1.33042,0.3235 -1.96729,0.56933c-1.15676,0.44652 -2.28478,0.99103 -3.4863,1.29733c0,0 -1.41206,0.35301 -1.76507,-1.05905c-0.35302,-1.41206 1.05904,-1.76507 1.05904,-1.76507c2.08651,-0.50929 4.2657,-1.04489 5.44048,-2.79558l1.95451,-0.9243c0,0 0.29089,-0.09696 0.65014,-0.06837c0.1302,-0.1216 0.30002,-0.23105 0.51994,-0.31902c1.35141,-0.54057 1.89198,0.81085 1.89198,0.81085c0.98284,2.46729 1.43337,4.79635 2.9846,6.94965c0.50066,-0.67228 1.31378,-1.25098 1.73011,-1.71254c0.62614,-0.69415 0.97862,-1.67099 1.76099,-2.18264c0.6353,-0.41547 1.4907,-0.28757 2.23605,-0.43136l0.67149,-0.53591c0,0 0.14845,-0.08907 0.37368,-0.15458z" fill="#000000" stroke="none" stroke-width="0.5" stroke-linecap="butt"/><path d="M389.30196,285.49351c-1.87212,0.24932 -3.82948,-0.39887 -5.63892,0.31858c-1.11711,0.44293 -2.27088,0.79247 -3.37688,1.26246c-0.56439,0.23984 -0.97418,0.80103 -1.56406,0.96862c-0.67933,0.19301 -1.4172,-0.0159 -2.11724,0.07732c-1.9029,0.2534 -3.56955,0.45419 -5.52073,0.45419h-1.3135c0,0 -1.29602,0 -1.89099,-0.99854c-0.30997,0.19204 -0.63536,0.35407 -0.97898,0.46703c-1.81619,0.59709 -4.85122,0.09367 -6.76231,0.09367c-3.35278,0 -6.70556,0 -10.05834,0c-2.40271,0 -4.03578,0.15064 -6.20518,-0.93406c-0.77341,-0.01176 -1.57072,0.15589 -2.32022,-0.03528c-0.56644,-0.14448 -0.92977,-0.74815 -1.48368,-0.93496c-1.91183,-0.6448 -2.9922,0.1114 -4.83311,-1.12131c-3.80797,-2.54987 -2.67692,-8.44332 -2.67692,-12.29258c0,-0.78359 -0.03743,-3.88001 0.16619,-4.33815c0.65221,-1.46743 2.18513,-2.32761 3.43301,-3.17025l2.52455,-0.36668c0,0 1.10675,0 1.74427,0.78799c0.27058,0.05896 0.53673,0.13265 0.79433,0.23456c1.30663,0.51692 2.28448,1.78973 3.65481,2.10067c0.61202,0.13887 1.28194,-0.14723 1.88239,0.03528c0.66259,0.20139 1.173,0.73753 1.77666,1.07692c1.71685,0.96524 3.51059,1.20687 5.25397,2.18916c0.84812,0.47786 1.51967,1.25947 2.41439,1.64302c1.10699,0.47455 2.36052,0.48072 3.53621,0.74221c3.62801,0.80693 6.89654,1.35683 10.50695,0.11301c1.11735,-0.55353 2.3634,-0.80658 3.50265,-1.3135c0.79312,-0.3529 1.42329,-1.03141 2.23737,-1.3328c1.80843,-0.66953 3.86451,-0.32969 5.7835,-0.13945c2.8993,0.28743 5.89349,-0.31882 8.79168,0.00318c1.39098,0.15454 6.69139,1.0443 7.34881,2.36286c0.74583,1.4959 0.36656,2.81809 -0.39291,3.92538c-0.91875,3.90604 -4.07147,7.56924 -8.21776,8.12143z" fill="#006eff" stroke="none" stroke-width="0.5" stroke-linecap="butt"/><path d="M336.49548,279.38612l-0.43783,-11.82144" fill="none" stroke="#00488c" stroke-width="2.5" stroke-linecap="round"/><path d="M339.99813,271.50516v10.07012" fill="none" stroke="#00488c" stroke-width="2.5" stroke-linecap="round"/><path d="M347.87909,278.07263v-7.88096" fill="none" stroke="#00488c" stroke-width="2.5" stroke-linecap="round"/><path d="M357.07354,273.69432v10.94578" fill="none" stroke="#00488c" stroke-width="2.5" stroke-linecap="round"/><path d="M363.64101,285.07792v-6.56746" fill="none" stroke="#00488c" stroke-width="2.5" stroke-linecap="round"/><path d="M370.20847,275.88347v9.63229" fill="none" stroke="#00488c" stroke-width="2.5" stroke-linecap="round"/><path d="M375.90028,275.00781l0.43783,7.88095" fill="none" stroke="#00488c" stroke-width="2.5" stroke-linecap="round"/><path d="M381.15425,274.13215l-0.43783,8.31879" fill="none" stroke="#00488c" stroke-width="2.5" stroke-linecap="round"/><path d="M387.28388,283.3266l-0.87567,-9.63228" fill="none" stroke="#00488c" stroke-width="2.5" stroke-linecap="round"/><path d="M393.41351,273.69432l1.31349,5.25397" fill="none" stroke="#00488c" stroke-width="2.5" stroke-linecap="round"/><path d="M398.35291,251.26331c-4.52712,0.06169 -9.22105,0.65434 -13.76179,0.67234c-6.16186,0.02443 -12.40246,-0.80322 -18.4848,0.18381c-5.05567,0.82042 -10.39856,6.43938 -12.10698,11.12209c-0.57952,1.58843 -1.95174,5.15693 -3.04983,6.32061c-0.08261,0.08755 -0.1854,0.16909 -0.30352,0.24285c-0.36053,0.26291 -0.80467,0.41805 -1.28505,0.41805c-0.05823,0 -0.11593,-0.00228 -0.17302,-0.00675c-0.59686,0.01869 -1.19131,-0.13505 -1.56297,-0.54224c-1.27142,-0.54404 -2.41956,-1.42823 -2.68471,-1.34673c-1.05726,0.32495 -2.49791,0.01283 -3.86249,-0.66779c-0.26136,0.38109 -0.64047,0.67507 -1.08489,0.8295c-0.48992,0.23254 -1.07748,0.24831 -1.69768,-0.08614c-1.48698,2.31775 -6.42693,-0.68531 -7.29191,-2.74838c-3.64235,-8.68747 -4.73931,-21.73452 -2.40438,-30.44259c0.61709,-2.30144 2.61728,-4.41201 3.58096,-6.53863c2.41384,-5.32681 4.08467,-7.51932 8.63835,-11.11635c1.41293,-1.11611 2.63651,-2.63927 4.23896,-3.50668c3.89267,-2.10709 9.64494,-3.36285 14.08,-3.84086c5.24439,-0.56524 9.27918,0.19965 14.10605,0.24699c8.05856,0.07904 14.75376,0.50813 22.13603,3.11936c2.21197,0.78241 4.796,1.14952 6.69337,2.4915c4.77088,3.37439 10.81166,6.55252 12.15535,12.82475c0.0658,0.30716 0.08284,1.19855 -0.0404,2.1404c0.00467,0.00439 0.00933,0.00881 0.014,0.01324c2.71114,2.57426 1.90948,13.65454 1.8865,14.53827c-0.00974,0.37495 -0.08682,0.76598 -0.27291,1.09163c-0.86229,1.50902 -4.54762,1.85578 -6.88669,2.04688c-0.38583,3.8519 -8.56619,2.51349 -10.57554,2.54088z" fill="#006eff" stroke="none" stroke-width="0.5" stroke-linecap="butt"/><path d="M305.55798,252.23979l4.44761,3.55809" fill="none" stroke="#ffffff" stroke-width="2.5" stroke-linecap="round"/><path d="M315.04622,251.35027l-8.0057,10.08125l13.63934,10.37776l7.70919,-10.37776z" fill="#39ff00" stroke="#ffffff" stroke-width="2.5" stroke-linecap="round"/><path d="M309.78322,261.35739l2.37206,-2.81682" fill="none" stroke="#000000" stroke-width="1" stroke-linecap="round"/><path d="M317.64066,267.28754l1.9273,-2.22381" fill="none" stroke="#000000" stroke-width="1" stroke-linecap="round"/><path d="M313.63781,264.47072l1.9273,-2.22381" fill="none" stroke="#000000" stroke-width="1" stroke-linecap="round"/><path d="M452.26985,298.3385l5.93015,3.32088l-3.08368,4.50691l-5.69294,-4.26971" fill="#ffffff" stroke="#000000" stroke-width="1.5" stroke-linecap="round"/><path d="M424.75396,295.72924l6.87897,-13.04633l23.00898,11.62309l-7.35338,8.065z" fill="#ffffff" stroke="#000000" stroke-width="1.5" stroke-linecap="round"/><path d="M439.41212,285.8638c0.51609,0.25804 0.73089,0.61652 0.80074,0.95816c0.06657,-0.03182 0.134,-0.06177 0.20228,-0.08978c0,0 1.40646,-0.46882 1.87528,0.93764c0.46882,1.40646 -0.93764,1.87527 -0.93764,1.87527c-0.52514,0.08242 -0.95895,0.62762 -1.12114,1.14666v1.47939c0,0.81878 -0.66376,1.48254 -1.48254,1.48254c-0.59183,0 -1.10267,-0.3468 -1.34039,-0.84825l-0.69725,-1.39451l0.28267,-0.14133c-0.64733,-1.03632 -0.56159,-1.97881 0.11131,-4.07417l0.31764,-0.66861c0,0 0.66301,-1.32602 1.98903,-0.66301z" fill="#000000" stroke="none" stroke-width="0.5" stroke-linecap="butt"/><path d="M440.87995,289.81519c-0.14383,0.57531 -0.71914,0.43148 -0.71914,0.43148l-0.48631,-0.13613c-1.04003,-0.52058 -1.9263,-1.03729 -2.89197,-1.67919c0,0 -0.49342,-0.32895 -0.16447,-0.82236c0.32895,-0.49342 0.82236,-0.16447 0.82236,-0.16447c0.92917,0.62109 1.76109,1.10402 2.76449,1.60521l0.24355,0.04633c0,0 0.57531,0.14383 0.43148,0.71914z" fill="#ff0000" stroke="none" stroke-width="0.5" stroke-linecap="butt"/><path d="M439.57477,290.903c0.32751,0 0.59301,0.2655 0.59301,0.59301c0,0.32751 -0.2655,0.59301 -0.59301,0.59301c-0.0487,0 -0.09603,-0.00587 -0.14132,-0.01694c-0.07696,0.01694 -0.13238,0.01694 -0.13238,0.01694c-0.42575,0 -0.85151,0 -1.27726,0h-0.63863c0,0 -0.59301,0 -0.59301,-0.59301c0,-0.59301 0.59301,-0.59301 0.59301,-0.59301c0.42575,0 1.49014,0 1.91589,0c0,0 0.05542,0 0.13238,0.01694c0.04529,-0.01107 0.09262,-0.01694 0.14132,-0.01694z" fill="#00a9ff" stroke="none" stroke-width="0.5" stroke-linecap="butt"/><path d="M441.15617,282.64756c0.22669,-0.05667 0.28336,0.17002 0.28336,0.17002l0.03595,0.1438c0.1573,0.63289 0.61589,1.93701 0.24745,2.53406c-0.06499,0.10531 -0.72226,0.31092 -0.8544,0.36372c-0.06633,0.0265 -0.19555,0.0873 -0.27146,0.09914c0.18475,0.16287 0.75696,0.75296 0.81695,0.81295c0,0 0.16523,0.16523 0,0.33046c-0.16523,0.16523 -0.33046,0 -0.33046,0c-0.22358,-0.22358 -1.07537,-0.94877 -0.99528,-1.30367c0.09857,-0.43679 1.14754,-0.34685 1.26155,-0.58402c0.22033,-0.45834 -0.20495,-1.65129 -0.32773,-2.13929l-0.03595,-0.1438c0,0 -0.05667,-0.22669 0.17002,-0.28336z" fill="#d7ff00" stroke="none" stroke-width="0.5" stroke-linecap="butt"/><g stroke="none" stroke-width="5" stroke-linecap="butt"><path d="M425.47124,292.81181c-3.70781,0 -6.71358,-3.00578 -6.71358,-6.71358c0,-3.7078 3.00578,-6.71357 6.71358,-6.71357c3.7078,0 6.71357,3.00577 6.71357,6.71357c0,3.7078 -3.00577,6.71358 -6.71357,6.71358z" data-paper-data="{&quot;index&quot;:null}" fill="#ffd797"/><path d="M420.92437,286.64434c0,-3.02038 2.4485,-5.46888 5.46888,-5.46888c3.02038,0 5.46888,2.4485 5.46888,5.46888c0,3.02038 -2.4485,5.46888 -5.46888,5.46888c-3.02038,0 -5.46888,-2.4485 -5.46888,-5.46888z" fill="#ffdca3"/></g></g></g></svg>