<svg version="1.1" xmlns="http://www.w3.org/2000/svg" xmlns:xlink="http://www.w3.org/1999/xlink" width="59.85882" height="58.80024" viewBox="0,0,59.85882,58.80024"><g transform="translate(-210.0706,-150.59988)"><g data-paper-data="{&quot;isPaintingLayer&quot;:true}" fill-rule="nonzero" stroke="none" stroke-linecap="butt" stroke-linejoin="miter" stroke-miterlimit="10" stroke-dasharray="" stroke-dashoffset="0" style="mix-blend-mode: normal"><path d="M269.92942,180c0,16.23724 -13.16288,29.40012 -29.40012,29.40012c-16.23724,0 -29.40012,-13.16288 -29.40012,-29.40012c0,-16.23724 13.16288,-29.40012 29.40012,-29.40012c16.23724,0 29.40012,13.16288 29.40012,29.40012z" fill="#f0faff" stroke-width="0"/><path d="M210.75437,185.13056c-0.26584,-0.12107 -0.51815,-0.36329 -0.63511,-0.83112c-0.1744,-0.6976 0.15282,-1.09422 0.46225,-1.30531c0.13211,-0.23435 0.37014,-0.44766 0.78912,-0.5524c0.36975,-0.09244 0.65496,-0.04395 0.87278,0.06812c8.52478,-1.71836 17.38766,0.61889 25.85047,-1.10675c1.60373,-0.31531 2.93957,-0.24523 4.53662,-0.35677c0.68373,-0.04775 1.44925,-0.58011 2.0425,-0.23687c1.86919,1.08149 1.41689,3.54744 1.41141,5.23798c-0.01261,3.88773 -2.07832,7.55294 -3.91473,10.85737c-0.84073,1.51281 -1.35205,3.11819 -2.60491,4.38472c-1.59035,1.6077 -3.56453,2.883 -5.1928,4.50464c-4.2661,3.01796 -9.54493,0.87315 -12.71828,-2.87828c-1.98132,-2.34226 -3.02868,-5.46055 -5.11256,-7.84476c-2.49149,-2.85058 -4.77493,-5.97079 -5.73815,-9.7461z" fill="#ffffff" stroke-width="0.5"/><path d="M211.47364,181.40307c0.88388,-0.88388 1.76777,0 1.76777,0l0.57601,0.66673c0.65037,1.31544 0.73988,2.8767 1.37809,4.12414c1.379,2.69543 3.48452,4.86253 5.04281,7.37006c1.11406,1.79271 1.74892,4.031 2.7871,5.89825c0.54537,0.98089 0.9782,2.03204 1.6276,2.94738c0.56743,0.79981 1.49606,1.34295 2.14306,2.03063c-0.367,-6.32907 -3.29096,-12.42106 -3.3654,-18.75373c-0.02606,-0.05378 -0.05216,-0.10749 -0.07828,-0.16112l-0.2627,0.04378l-0.33799,-2.02794c-0.01371,-0.07415 -0.02088,-0.1506 -0.02088,-0.22873c0,-0.69036 0.55964,-1.25 1.25,-1.25c0.59488,0 1.0927,0.41555 1.21902,0.9722l0.31039,1.24155c2.52491,4.98496 4.75468,9.90856 7.42917,14.84411c0.09265,0.17097 0.19835,0.33504 0.31086,0.49377c-0.21935,-5.19497 -0.75765,-11.02829 0.29824,-15.95977h-0.21996v-1.36745c0,-0.69036 0.55964,-1.25 1.25,-1.25c0.499,0 0.92971,0.2924 1.13014,0.7152l0.67161,1.34323c0.94535,1.89394 1.96158,3.93251 2.75989,5.98969c0,-2.26604 0,-4.53208 0,-6.79812c0,0 0,-1.25 1.25,-1.25c1.25,0 1.25,1.25 1.25,1.25c0,4.4442 0,8.88841 0,13.33261v1.36745c0,0.69036 -0.55964,1.25 -1.25,1.25c-0.59488,0 -1.0927,-0.41555 -1.21902,-0.9722l-0.33552,-1.34208l0.18342,-0.04585c-1.33466,-2.42333 -2.20214,-5.08061 -3.19053,-7.70639c0,4.87606 0,9.75212 0,14.62818v1.36745c0,0.69036 -0.55964,1.25 -1.25,1.25c-0.499,0 -0.92971,-0.2924 -1.13014,-0.7152l-0.67161,-1.34323l0.13428,-0.06714c-2.12584,-2.55425 -3.80429,-5.53783 -5.30954,-8.61716c0.86995,3.72395 1.70972,7.6434 1.73165,11.20204v1.36745c0,0.69036 -0.55964,1.25 -1.25,1.25c-0.28595,0 -0.54948,-0.09602 -0.7601,-0.25758l-1.35735,-1.01801l0.18801,-0.25068c-4.15321,-2.95197 -5.1268,-7.45576 -8.00252,-12.02637c-1.62334,-2.5801 -3.83027,-4.85592 -5.21305,-7.67186c-0.63815,-1.29955 -0.68452,-2.75378 -1.35681,-4.08054l-0.10771,-0.017c0,0 -0.88388,-0.88388 0,-1.76777z" fill="#f3f3f3" stroke-width="0.5"/><path d="M249.96233,165.19385c0,2.83208 -1.98974,5.12793 -4.4442,5.12793c-2.45447,0 -4.4442,-2.29585 -4.4442,-5.12793c0,-2.83208 1.98974,-5.12793 4.4442,-5.12793c2.45447,0 4.4442,2.29585 4.4442,5.12793z" fill="#000000" stroke-width="0"/></g></g></svg>