<svg xmlns="http://www.w3.org/2000/svg" xmlns:xlink="http://www.w3.org/1999/xlink" version="1.1" width="103.33618927001953" height="138.6303253173828" viewBox="-0.49997323751449585 -0.5000448226928711 103.33618927001953 138.6303253173828"><g><g data-paper-data="{&quot;isPaintingLayer&quot;:true}" fill-rule="none" stroke-linecap="butt" stroke-linejoin="miter" stroke-miterlimit="10" stroke-dasharray="" stroke-dashoffset="0" font-family="none" font-weight="none" font-size="none" text-anchor="none" style="mix-blend-mode: normal"><g id="Group-2"><path d="M 56.1461 30.2676 L 71.2991 32.6676 L 85.2731 37.7676 L 96.7501 48.0676 L 100.3431 56.3676 L 100.3431 65.6676 L 96.7501 77.3676 L 87.9671 85.9676 L 76.8891 91.3676 L 67.3871 92.6676 L 48.6441 91.8676 L 40.2601 89.3676 L 30.4791 85.4676 L 23.8921 80.6676 L 18.3021 73.7676 L 16.2061 65.6676 L 16.7061 57.0676 L 20.8981 47.8676 L 26.4871 40.4676 L 35.5691 33.8676 L 43.3541 31.2676 L 56.1461 30.2676 " id="Shape" fill="#ffffff" fill-rule="evenodd" stroke-width="1" stroke="none"/><path d="M 93.4561 51.7676 L 96.4511 66.4676 L 95.2531 72.3676 L 93.6561 73.6676 L 89.9631 71.9666 L 85.8721 66.9676 L 84.5741 75.3676 L 80.9811 82.6676 L 74.0941 88.3676 L 72.1981 90.9676 L 73.9941 92.1676 L 73.3951 98.9666 L 74.6931 100.4666 L 78.4861 106.1666 L 81.5801 109.3676 L 86.4701 117.2666 L 87.2681 120.2666 L 86.1701 123.6676 L 82.9761 125.3666 L 77.9861 125.3666 L 74.4931 124.3676 L 67.3861 117.2666 L 63.7551 112.8676 L 62.7161 116.1676 L 61.8181 129.3676 L 59.1231 133.9676 L 53.3341 136.2676 C 53.3341 136.2676 50.1411 135.5666 49.7411 135.1676 C 49.3421 134.7676 46.9471 131.8676 46.9471 131.8676 L 46.4761 126.7676 L 46.4761 119.6666 L 47.5461 114.2666 L 40.2601 114.8666 L 35.1701 115.5676 L 37.0661 118.5676 L 38.8631 123.3676 L 39.0621 126.9676 L 37.2661 129.0676 L 32.8741 129.8666 L 26.9861 127.2676 L 22.9941 122.4676 L 20.0991 116.5676 L 18.6021 118.5676 L 14.7101 126.6676 L 10.5181 130.2676 L 6.8251 130.9676 L 2.9331 129.0676 C 2.9331 129.0676 1.4361 125.3666 1.3361 125.0666 C 1.2361 124.7666 1.3361 121.9676 1.3361 121.9676 L 3.7311 116.9666 L 5.6271 112.8676 L 6.3261 108.3676 L 7.2241 101.6666 L 9.1201 96.7676 L 7.5231 94.9676 L 3.4311 90.2666 L 1.3361 84.4676 L 1.3361 79.5676 L 2.6331 75.4676 L 5.2281 73.1866 L 8.0171 73.1866 L 9.9191 74.2676 L 8.0171 79.5676 C 8.0171 79.5676 8.1221 84.3676 8.0221 84.6676 C 7.9221 84.9676 9.3201 87.8676 9.3201 87.8676 L 13.5121 90.8676 L 18.2021 88.7676 L 20.2981 89.4676 L 24.4901 91.2676 L 38.2631 92.6686 L 47.6451 92.2676 L 52.3371 91.0676 L 46.5481 87.0676 L 41.9561 82.8676 L 37.0661 74.9676 L 36.6661 70.5676 L 27.6841 76.8676 L 25.6881 75.1676 L 24.4901 70.5676 L 24.4901 58.6036 L 25.6881 54.5676 L 28.9811 52.2176 L 44.0521 53.9676 L 51.1681 50.9676 L 58.2751 50.4676 L 66.0101 50.4676 L 73.8951 53.9666 L 81.9791 51.9676 L 91.6601 50.4676 Z " id="Shape" fill="#fcb322" fill-rule="evenodd" stroke-width="1" stroke="none"/><path d="M 39.7611 81.0676 L 47.8451 87.7676 L 52.1371 91.7666 L 45.7491 92.3486 L 43.2541 93.3676 C 43.2541 93.3676 42.0561 102.8666 41.9561 103.1666 C 41.8561 103.4666 43.1541 110.3666 43.1541 110.3666 L 45.7491 114.7676 L 35.0701 115.2676 L 30.5791 108.6676 L 29.6801 103.6676 L 29.9801 98.8676 L 31.2771 94.8676 L 31.9761 92.6676 L 22.8941 91.2676 L 18.6021 88.3676 L 17.1051 85.3676 L 17.1051 82.3676 C 17.1051 82.3676 18.1551 78.9196 20.2981 78.4676 C 22.4421 78.0156 38.0641 79.3676 38.0641 79.3676 Z " id="Shape" fill="#71cbd2" fill-rule="evenodd" stroke-width="1" stroke="none"/><path d="M 54.7941 1.1676 L 59.1231 1.6676 L 61.9181 4.3676 L 63.7551 8.5676 L 62.2171 12.7676 L 57.4991 16.0676 L 51.7381 16.6676 L 47.4461 13.6676 L 46.5481 8.6676 L 47.7451 4.7676 L 51.1681 1.7676 L 54.7941 1.1676 " id="Shape" fill="#ef463c" fill-rule="evenodd" stroke-width="1" stroke="none"/><path d="M 75.1471 93.0716 C 75.0341 95.0926 74.9091 96.8466 74.8551 98.6026 C 74.8401 99.0736 74.8951 99.6656 75.1641 100.0106 C 77.8791 103.4986 80.6591 106.9346 83.3911 110.4086 C 84.9861 112.4376 86.5111 114.5186 87.3721 116.9996 C 87.7361 118.0496 88.3381 119.0596 88.4841 120.1346 C 88.8471 122.8316 87.1291 124.5716 85.2771 126.1036 C 83.5711 127.5156 81.4221 127.4716 79.4261 127.1876 C 77.5051 126.9146 75.4591 126.6656 73.9151 125.2196 C 71.6821 123.1316 69.0151 121.5126 67.4031 118.7476 C 66.5641 117.3076 65.3261 116.1006 64.2691 114.7886 C 64.1361 114.7916 64.0041 114.7946 63.8711 114.7986 C 63.8131 115.9526 63.7131 117.1076 63.7051 118.2616 C 63.6891 120.5566 64.0341 122.9036 63.6701 125.1376 C 62.9701 129.4406 62.2891 133.9126 57.8441 136.2916 C 54.7641 137.9396 51.6531 138.2376 48.5921 136.2096 C 46.2701 134.6726 45.2601 132.3246 45.1331 129.7076 C 44.9981 126.9326 45.1491 124.1296 45.3881 121.3576 C 45.5361 119.6506 46.0821 117.9786 46.5331 115.9096 C 44.6181 116.0036 42.7021 116.0626 40.7881 116.1826 C 39.3011 116.2756 37.8031 115.8236 36.3271 115.9996 C 39.0461 120.1366 42.8551 125.7496 38.1241 130.0906 C 37.4951 130.6686 36.5211 131.0426 35.6561 131.1616 C 31.5131 131.7346 27.9461 130.6376 25.2681 127.2346 C 24.5241 126.2896 23.6631 125.4286 22.9891 124.4366 C 22.0281 123.0236 21.1921 121.5256 20.2141 119.9196 C 19.8811 120.4396 19.4831 120.9686 19.1801 121.5486 C 17.2361 125.2556 15.0551 128.7796 11.5181 131.2026 C 8.1231 133.5286 2.7831 132.5756 0.8971 128.2276 C -0.4369 125.1506 -0.3189 122.0396 1.4921 119.0496 C 2.4401 117.4846 3.1411 115.7696 3.9551 114.1246 C 5.2081 111.5926 5.3001 108.8566 5.3201 106.1186 C 5.3411 103.2686 6.2891 100.7056 7.6191 98.2496 C 7.7771 97.9576 8.0411 97.7216 8.1541 97.5846 C 7.1421 96.5536 6.0501 95.5876 5.1391 94.4716 C 4.1081 93.2086 3.0371 91.9096 2.3421 90.4526 C 1.0191 87.6786 -0.0809 84.6916 0.1531 81.6166 C 0.4061 78.3136 1.4101 75.1116 3.8331 72.5846 C 4.8691 71.5046 7.8691 71.1496 9.4551 72.2936 C 10.7231 73.2086 11.0371 74.8926 10.3401 76.7736 C 9.7731 78.3006 9.1881 79.8446 8.8611 81.4336 C 8.1771 84.7516 10.1991 88.3386 13.3391 89.5466 C 13.6941 89.6836 14.2271 89.5266 14.6131 89.3566 C 14.9961 89.1886 15.2711 88.7896 15.6381 88.5646 C 17.1061 87.6616 17.0731 87.6906 16.3291 86.0176 C 15.4641 84.0736 15.6211 82.4866 16.6351 80.6626 C 16.8401 80.2936 19.4941 77.2026 19.9911 77.8236 C 17.8541 75.1556 16.3751 72.7076 15.6391 69.3036 C 15.0641 66.6466 15.0941 63.7166 15.0161 61.0036 C 14.9341 58.1506 16.1211 55.3676 17.0921 52.7446 C 17.8481 50.6986 18.8471 48.7476 19.9641 46.8776 C 23.5431 40.8796 28.5771 36.3896 34.6571 33.0856 C 37.8751 31.3376 41.3491 30.3776 45.0601 30.1726 C 48.9871 29.9546 52.9011 29.4796 57.0241 29.0986 C 56.8751 28.1166 56.6501 26.9006 56.5151 25.6756 C 56.2701 23.4476 56.0601 21.2176 55.8751 18.9846 C 55.8061 18.1476 55.3641 18.0496 54.6411 18.0596 C 49.5441 18.1286 46.5091 15.6086 45.7181 10.4636 C 45.3131 7.8316 46.2031 4.8906 47.9681 2.8936 C 51.7811 -1.4244 60.1651 -0.8934 62.8751 4.3766 C 64.4251 7.3906 64.7341 10.6056 63.2661 13.7506 C 62.5921 15.1936 61.2471 16.0966 59.7001 16.5776 C 58.4451 16.9676 57.8771 16.8086 57.9261 18.2696 C 57.9761 19.7096 58.5841 21.0856 58.7261 22.5156 C 58.8391 23.6566 58.8651 24.8426 59.0131 25.9736 C 59.1231 26.8186 58.9631 27.7686 59.2501 28.5836 C 59.6401 29.6976 60.1861 29.5276 61.2441 29.5796 C 63.5481 29.6956 65.8071 30.2196 68.0821 30.5636 C 72.2371 31.1906 76.3961 32.7046 80.4041 33.9506 C 81.6041 34.3246 82.7041 35.1966 83.8581 35.7406 C 85.1841 36.3666 86.5421 36.9396 87.7691 37.7536 C 89.3781 38.8196 90.5631 40.2186 91.9651 41.4756 C 98.4371 47.2766 103.4041 55.3936 102.1381 64.3906 C 101.6871 67.5956 101.1951 70.8526 99.9291 73.8536 C 98.6911 76.7916 97.0841 79.1306 95.0701 81.5906 C 91.8031 85.5806 87.0021 88.8946 82.3071 90.9866 C 80.1961 91.9276 77.8381 92.3086 75.5891 92.9386 C 75.3441 93.0056 75.1021 93.0856 75.1471 93.0716 Z M 30.0651 77.8856 C 26.8651 78.9566 26.1021 77.7086 24.8141 75.5346 C 24.1131 74.3516 23.8291 72.8256 23.6911 71.4216 C 23.1461 65.9176 23.5191 60.4196 24.3361 54.9716 C 24.5211 53.7396 25.4411 52.5406 26.2631 51.5206 C 26.5851 51.1216 27.5681 51.1666 28.2511 51.1636 C 30.6071 51.1546 32.9661 51.1496 35.3181 51.2696 C 36.6541 51.3386 37.9951 51.5206 39.3091 51.7696 C 40.4701 51.9886 41.8731 51.8146 42.9611 52.2476 C 43.7881 52.5776 43.8181 53.3656 44.7271 52.9896 C 45.4821 52.6786 46.2571 51.6656 46.9991 51.2176 C 48.6811 50.2006 50.5771 49.5836 52.5001 49.2256 C 56.1851 48.5386 60.6791 48.5556 64.3991 49.0406 C 67.4931 49.4426 70.7891 50.5556 73.4631 52.2226 C 73.9091 52.4996 74.5611 52.8226 74.9891 52.6946 C 78.1271 51.7496 81.1951 50.5486 84.3621 49.7276 C 86.4091 49.1976 88.6331 48.7786 90.6931 49.0216 C 93.3621 49.3346 94.6411 51.5246 95.0931 54.0586 C 95.7491 57.7326 96.1741 61.4526 96.9511 65.0986 C 97.4631 67.5016 97.0881 69.7846 96.6911 72.0876 C 96.3881 73.8416 95.3301 74.6786 93.5971 74.5316 C 92.5611 74.4436 91.4011 74.1886 90.5751 73.6086 C 89.0171 72.5126 87.6601 71.1276 86.3271 69.9586 C 86.0561 71.7636 85.8761 73.7776 85.4211 75.7276 C 85.0361 77.3786 84.6451 79.1776 83.6971 80.5126 C 82.1291 82.7246 80.5741 85.0166 78.3211 86.6836 C 76.4221 88.0886 74.6151 89.6196 72.6261 91.2056 C 74.2331 90.9206 75.7771 90.8426 77.1801 90.3566 C 79.4971 89.5546 81.7821 88.6046 83.9681 87.4966 C 85.5671 86.6856 87.0321 85.5826 88.4731 84.4996 C 90.8281 82.7296 92.9501 80.8246 94.5741 78.3306 C 96.0461 76.0706 97.7721 73.6396 98.6971 71.0936 C 99.6321 68.5216 99.8261 65.7466 99.7201 63.0306 C 99.6061 60.1316 98.8831 57.2416 98.2761 54.3806 C 97.3261 49.9006 94.7581 46.3756 91.2381 43.6036 C 89.9031 42.5516 88.7121 41.0156 87.2711 40.1546 C 86.3151 39.5826 85.1791 39.0876 84.1691 38.5836 C 81.9871 37.4946 79.8201 36.1636 77.5121 35.3336 C 75.1941 34.5006 72.7431 33.8476 70.3531 33.3446 C 67.5711 32.7596 65.1431 32.0666 62.2951 32.0666 C 56.8051 32.0666 51.4051 32.0986 45.9351 32.3276 C 42.3861 32.4766 39.0231 33.4106 35.8861 34.9656 C 30.4651 37.6506 25.9901 41.5106 22.7711 46.6816 C 21.6591 48.4676 20.8821 50.4376 19.7551 52.1956 C 16.8891 56.6666 16.5211 63.4786 17.6871 68.5916 C 18.7451 73.2336 21.3861 77.0106 25.0271 80.1036 C 26.3031 81.1886 27.5221 82.2966 29.0161 83.1126 C 30.9041 84.1456 32.5891 85.6006 34.5461 86.4476 C 37.3751 87.6726 40.3501 88.3936 43.2661 89.3626 C 45.4491 90.0866 47.1221 91.0556 49.4981 90.4906 C 48.4211 90.0546 47.3421 89.5506 46.3741 88.9466 C 44.8161 87.9756 43.4131 86.7686 42.1551 85.4356 C 41.0581 84.2746 39.7401 83.0776 38.8541 81.7636 C 38.6451 81.4526 38.4871 80.6766 38.2621 80.4866 C 37.7331 80.0386 36.6721 80.3446 35.9421 80.3686 C 34.7811 80.4076 33.8251 80.2756 32.7151 80.0496 C 32.0511 79.9136 30.0651 80.1306 29.7631 79.2906 C 29.6311 78.9236 29.9351 78.3986 30.0651 77.8856 Z M 38.0341 72.8596 C 38.2411 73.7886 38.6261 74.6906 38.8891 75.6206 C 39.2431 76.8696 39.5301 78.0746 40.2601 79.1696 C 41.8991 81.6266 43.9141 83.7656 46.2471 85.6046 C 49.1541 87.8956 52.5791 89.5496 56.2171 90.4626 C 58.3911 91.0076 60.5321 91.7246 62.9021 91.5016 C 68.8501 90.9386 73.7591 88.4536 77.9181 84.2096 C 80.9361 81.1296 83.3401 77.7526 83.8131 73.3556 C 84.1201 70.5076 84.5301 67.4936 83.0251 64.9186 C 81.7251 62.6956 79.9201 60.7506 78.2201 58.7856 C 77.2931 57.7136 76.2141 56.7146 75.0381 55.9316 C 71.2551 53.4146 66.5031 51.4726 61.9511 51.2626 C 58.4451 51.1006 54.8641 50.9576 51.4661 51.9146 C 50.2991 52.2436 49.0451 52.6166 48.0211 53.2646 C 45.9731 54.5596 43.5211 55.9516 42.3131 58.1426 C 40.7761 60.9316 39.2771 63.8196 38.5691 66.9506 C 38.2611 68.3126 38.0881 69.7706 37.9231 71.1496 C 37.8521 71.7366 37.9111 72.3036 38.0341 72.8596 Z M 49.6241 112.5276 C 50.0781 113.4896 49.2631 114.4916 48.8881 115.2886 C 48.2241 116.6966 47.9701 118.4856 47.6811 120.0076 C 47.0311 123.4306 46.8731 126.9496 47.4541 130.3946 C 47.5241 130.8076 47.7051 131.2116 47.8921 131.5906 C 49.1891 134.2166 51.1671 135.3706 54.1951 134.9556 C 57.6711 134.4806 60.2741 132.3416 60.8581 128.8456 C 61.2491 126.4996 61.4491 124.1196 61.6851 121.7506 C 61.7691 120.8996 61.8981 119.9816 61.6741 119.1886 C 61.1591 117.3676 61.7281 115.6596 61.9671 113.9176 C 62.0141 113.5706 62.3151 113.1876 62.6071 112.9586 C 64.0271 111.8466 65.4971 110.7976 66.9251 109.6936 C 69.2361 107.9066 70.9671 105.6706 71.8341 102.8566 C 72.2651 101.4546 72.6251 100.0106 72.8131 98.5596 C 73.0271 96.9116 73.0131 95.2346 73.1001 93.5576 C 68.5361 93.7496 64.2791 93.9296 60.0231 94.1096 C 56.5151 94.2586 53.0031 93.7046 49.4901 94.2606 C 48.3051 94.4476 47.0581 94.2116 45.8451 94.2756 C 43.8141 94.3846 43.5401 95.9116 43.1951 97.7026 C 42.7681 99.9166 42.7771 102.4706 43.0211 104.7056 C 43.2851 107.1256 43.6631 109.6196 44.9311 111.7436 C 45.4571 112.6236 46.1211 113.5856 47.2501 113.1256 C 47.9541 112.8386 48.7051 111.1456 49.5011 112.3146 C 49.5501 112.3856 49.5901 112.4566 49.6241 112.5276 Z M 20.0701 115.3686 C 18.7751 115.0426 17.6411 114.7776 16.5181 114.4696 C 15.7411 114.2556 15.2951 113.7256 15.5461 112.9086 C 15.7931 112.1066 16.4381 111.9206 17.2141 112.1386 C 18.5921 112.5256 19.9591 112.9596 21.3521 113.2826 C 25.1201 114.1576 28.9281 114.7076 33.0451 114.6626 C 30.4021 111.5216 28.8811 108.0756 28.6711 104.2436 C 28.4661 100.5186 28.5321 96.7366 31.0081 93.4166 C 29.3101 93.2386 27.8531 93.0086 26.3901 92.9486 C 23.6551 92.8356 21.2591 91.9066 19.0881 90.2686 C 18.7811 90.0366 18.1661 89.8796 17.8681 90.0306 C 16.3581 90.7936 14.5911 91.3796 13.4971 92.5666 C 10.9821 95.2946 9.0141 98.4816 8.3001 102.2046 C 7.8871 104.3566 7.9481 106.5946 7.6381 108.7706 C 7.2431 111.5386 6.6081 114.2086 4.9461 116.6086 C 3.5951 118.5606 2.5941 120.7776 2.4071 123.2236 C 2.2071 125.8286 2.9421 128.0596 5.3821 129.3646 C 7.2001 130.3366 9.1751 130.3966 10.7891 129.1096 C 12.3911 127.8316 13.9941 126.3766 15.0791 124.6706 C 16.9211 121.7756 18.3551 118.6216 20.0701 115.3686 Z M 65.7541 113.1386 C 67.2191 115.1476 68.4481 116.9696 69.8171 118.6796 C 72.9981 122.6546 76.8121 125.3666 82.2651 124.6876 C 84.2041 124.4466 85.4011 123.2216 86.1961 121.6596 C 86.8421 120.3906 86.4751 118.9086 85.8551 117.7106 C 85.1761 116.3966 84.5321 114.7226 83.5621 113.6036 C 82.1281 111.9496 80.4891 110.4186 79.2421 108.5696 C 78.7311 107.8126 77.9121 107.2716 77.3151 106.5636 C 76.2221 105.2686 75.1881 103.9226 73.9481 102.3696 C 72.6881 107.1196 69.8641 110.4686 65.7541 113.1386 Z M 41.9731 54.7496 C 41.4441 54.5816 41.0391 54.3706 40.6191 54.3346 C 36.8481 54.0106 33.0781 53.6606 29.3011 53.4386 C 27.4391 53.3286 26.6451 54.0446 26.3221 55.9526 C 25.3161 61.8866 25.0711 67.8296 26.2771 73.7756 C 26.6971 75.8446 27.6051 76.3626 29.5001 75.3296 C 32.4341 73.7306 34.4811 71.2016 36.1541 68.3746 C 36.6021 67.6186 36.7761 66.6976 37.0581 65.8466 C 37.8811 63.3626 38.5761 60.8276 39.5601 58.4096 C 40.0841 57.1236 41.1021 56.0386 41.9731 54.7496 Z M 77.4901 54.4136 C 78.8211 55.8976 80.0381 57.1226 81.1011 58.4686 C 82.6771 60.4666 84.1361 62.5566 85.6601 64.5966 C 87.2811 66.7666 88.8781 68.9566 90.5811 71.0596 C 90.9821 71.5546 91.7471 71.7736 92.3711 72.0616 C 93.4521 72.5566 94.1501 72.0836 94.4721 71.0476 C 95.1331 68.9206 95.4691 66.7646 94.8241 64.5586 C 94.7281 64.2296 94.7011 63.8806 94.6391 63.5426 C 94.0411 60.2696 93.4211 56.9996 92.8531 53.7206 C 92.5171 51.7786 91.1441 51.1376 89.2131 51.4096 C 87.2521 51.6856 85.2951 52.0686 83.3781 52.5636 C 81.4241 53.0686 79.5211 53.7676 77.4901 54.4136 Z M 33.0751 128.6426 C 33.3361 128.6556 33.6001 128.7056 33.8561 128.6786 C 35.4731 128.5026 37.2801 128.3156 37.9641 126.6736 C 38.5961 125.1556 38.6501 123.3586 37.6171 121.8646 C 36.4591 120.1886 35.1801 118.5956 33.9221 116.9906 C 33.8001 116.8366 33.4551 116.8256 33.2091 116.8046 C 29.9081 116.5336 26.6031 116.3126 23.3071 115.9836 C 22.2531 115.8776 21.6451 116.3356 21.6031 117.2186 C 21.5651 118.0036 21.7691 118.9346 22.1981 119.5806 C 23.5191 121.5666 24.9011 123.5296 26.4421 125.3456 C 28.1471 127.3536 30.3221 128.6426 33.0751 128.6426 Z M 54.3371 15.7576 C 54.0321 14.1356 54.3001 13.8896 55.8471 14.2646 C 57.7121 14.7176 60.3371 14.0616 60.9341 12.8186 C 61.7361 11.1476 62.4951 9.4076 61.8041 7.4716 C 61.4561 6.4966 61.3171 5.3156 60.6711 4.6036 C 57.5551 1.1666 51.2211 1.8356 48.9961 5.7476 C 47.6681 8.0836 47.3001 10.2986 48.4951 12.7826 C 49.6891 15.2666 51.7931 15.7776 54.3371 15.7576 Z M 42.7941 91.9156 C 42.8051 91.7746 42.8151 91.6316 42.8261 91.4906 C 42.8341 91.3806 37.3301 89.6696 36.8071 89.4686 C 34.7251 88.6666 32.6821 87.7556 30.7181 86.6956 C 28.7501 85.6336 26.8611 84.4236 25.0971 83.0476 C 24.2961 82.4216 23.6211 81.7786 22.9461 81.0346 C 22.5721 80.6216 21.6981 79.3816 21.0941 79.3556 C 20.3861 79.3256 19.0801 80.6716 18.7221 81.1976 C 18.1951 81.9746 18.0561 83.1546 17.9801 84.0826 C 17.7851 86.4686 20.9131 90.0046 23.6751 90.3356 C 25.5261 90.5576 27.3821 90.7426 29.2391 90.9116 C 30.7931 91.0546 32.3501 91.1506 33.9071 91.2646 C 36.8691 91.4816 39.8321 91.6986 42.7941 91.9156 Z M 12.0311 91.1126 C 11.8971 91.0086 11.7941 90.9376 11.7001 90.8536 C 10.3561 89.6666 8.5431 88.7226 7.7731 87.2366 C 6.3751 84.5376 5.9541 81.4936 7.0991 78.4636 C 7.4761 77.4666 7.8891 76.4806 8.2141 75.4666 C 8.5771 74.3316 8.2161 73.8196 7.0261 73.8526 C 6.4891 73.8676 5.8521 74.0266 5.4431 74.3506 C 2.9751 76.3096 2.0421 79.0426 2.2311 82.0446 C 2.3491 83.9096 2.8821 85.8056 3.5481 87.5656 C 4.6861 90.5696 6.0741 93.4796 9.3901 94.7306 C 10.2521 93.5516 11.1101 92.3756 12.0311 91.1126 Z M 42.2631 94.1126 C 39.4221 93.8896 36.5781 93.6656 33.7341 93.4486 C 33.5661 93.4366 33.3031 93.4246 33.2361 93.5196 C 32.3421 94.7976 31.2261 95.9806 31.2211 97.8386 C 34.4451 97.6146 37.5751 97.4206 40.7001 97.1496 C 41.0471 97.1196 41.5101 96.7246 41.6531 96.3856 C 41.9461 95.6866 42.0601 94.9126 42.2631 94.1126 Z M 32.2171 109.5826 C 33.4211 111.3906 34.3581 112.8436 35.3571 114.2506 C 35.5051 114.4576 35.9521 114.5476 36.2541 114.5326 C 38.5041 114.4226 40.7531 114.2746 43.0021 114.1306 C 43.0641 114.1266 43.1201 114.0286 43.2171 113.9396 C 42.8211 113.0026 42.4711 112.0256 41.9911 111.1166 C 41.8041 110.7656 41.3461 110.3836 40.9731 110.3386 C 39.0961 110.1096 37.2061 109.9866 35.3201 109.8296 C 34.3921 109.7526 33.4631 109.6816 32.2171 109.5826 Z M 41.3231 108.1436 C 41.1801 107.0386 41.1191 106.2236 40.9471 105.4336 C 40.8881 105.1626 40.5691 104.7626 40.3411 104.7436 C 37.1441 104.4686 33.9421 104.2496 30.4651 103.9976 C 30.6861 104.9786 30.8641 105.5466 30.9341 106.1276 C 31.0651 107.2186 31.5641 107.6476 32.7261 107.6736 C 35.5091 107.7346 38.2881 107.9656 41.3231 108.1436 Z M 40.9561 102.2626 C 40.9561 101.5776 40.8681 101.0006 40.9741 100.4626 C 41.1621 99.5076 40.9601 99.2976 39.9221 99.3686 C 37.7751 99.5146 35.6061 99.5106 33.4551 99.3976 C 31.0801 99.2716 30.4281 99.8846 30.8591 102.5796 C 32.4281 102.5796 34.0531 102.6186 35.6761 102.5686 C 37.3591 102.5156 39.0401 102.3776 40.9561 102.2626 Z M 30.7081 77.9246 C 32.8881 78.0576 34.8081 78.1736 36.8041 78.2936 C 36.5471 76.4326 36.3151 74.7466 36.0921 73.1306 C 34.3541 74.6786 32.6181 76.2246 30.7081 77.9246 Z " id="Shape" fill="#2a3d98" fill-rule="nonzero" stroke-width="1" stroke="none"/></g><g id="Group" fill-rule="evenodd"><path d="M 61.8711 66.2576 C 60.4831 66.8596 59.6991 66.8096 59.2201 65.6136 C 58.8241 64.6266 59.1901 64.1716 60.0811 64.0586 C 61.6101 63.8666 63.1541 63.6426 64.6831 63.6946 C 65.3121 63.7156 66.0391 64.3186 66.4681 64.8596 C 66.6211 65.0536 66.1351 65.9576 65.7411 66.3186 C 65.4601 66.5756 64.8431 66.4656 64.1321 66.5476 C 64.6671 67.1336 65.0371 67.8236 65.6091 68.1116 C 66.9841 68.8016 68.4171 69.4376 69.8961 69.8486 C 72.0001 70.4346 74.0001 68.3446 74.4951 66.2606 C 74.6641 65.5496 74.6421 64.5856 75.7961 64.7816 C 76.5551 64.9096 77.6031 66.7986 77.2141 67.3986 C 75.9791 69.3076 74.9221 71.3206 72.4211 72.0636 C 70.1521 72.7366 68.2711 72.0496 66.3731 71.0666 C 65.6871 70.7106 65.0701 70.2196 64.3251 69.7266 C 63.0611 71.6486 61.2531 72.6226 59.1291 73.0496 C 57.0931 73.4586 55.2011 72.8996 53.4031 72.0196 C 52.3921 71.5256 49.4781 69.2936 50.3811 67.8916 C 51.2791 66.4986 53.0111 69.2056 53.6481 69.6746 C 54.8061 70.5266 56.2601 70.7996 57.6691 70.8376 C 59.2701 70.8796 60.7841 70.2266 61.6521 68.8206 C 62.0171 68.2286 61.8051 67.2806 61.8711 66.2576 Z " id="Shape" stroke-width="1" fill="#2a3d98" stroke="none"/><path d="M 68.2181 58.3346 C 68.6721 58.0306 69.2291 58.1126 69.6801 58.9656 C 71.0461 61.5466 67.3821 62.4826 67.3871 60.1076 C 67.3881 59.3876 67.7451 58.6516 68.2181 58.3346 Z " id="Shape" stroke-width="1" fill="#2a3d98" stroke="none"/><path d="M 55.7691 61.8106 C 54.2801 61.4696 54.6301 59.0676 55.9121 58.6626 C 57.5711 58.1386 58.2391 61.2286 56.3781 61.7776 C 56.1511 61.8446 55.9491 61.8516 55.7691 61.8106 Z " id="Shape" stroke-width="1" fill="#2a3d98" stroke="none"/></g></g></g></svg>