<svg version="1.1" xmlns="http://www.w3.org/2000/svg" xmlns:xlink="http://www.w3.org/1999/xlink" width="448.04849" height="187.92097" viewBox="0,0,448.04849,187.92097"><g transform="translate(-23.45151,-66.72993)"><g data-paper-data="{&quot;isPaintingLayer&quot;:true}" fill-rule="nonzero" stroke="none" stroke-width="0.5" stroke-linecap="butt" stroke-linejoin="miter" stroke-miterlimit="10" stroke-dasharray="" stroke-dashoffset="0" style="mix-blend-mode: normal"><path d="M141.94686,160.71206c-1.68659,-3.0434 1.01761,-5.7476 1.01761,-5.7476c3.59399,-3.57631 7.77941,-7.38777 12.215,-9.89336c2.95351,-1.66839 6.53135,-1.6724 9.39699,-3.62731c0.95817,-0.65365 1.50145,-1.88765 2.56426,-2.35217c3.01978,-1.31982 6.30433,-2.00545 9.55838,-2.52706c3.33581,-0.53472 7.43173,-0.06456 10.80091,-0.06456c7.33334,0 14.66666,0 22,0c2.06647,0 4.15575,0.3729 6.19909,0.06456c1.04229,-0.15728 1.95559,-0.85747 3,-1c4.69957,-0.64133 10.05002,-0.06456 14.80091,-0.06456c8,0 16,0 24,0c8.16474,0 16.05048,-0.75653 23.80091,2.06456c4.85532,0 9.04035,2.31027 13.81,2.9729c3.77568,0.52454 7.53388,0.65945 11.01774,2.70928c2.94294,1.73156 5.20902,5.15248 8,7c0.87896,0.58184 2.10789,0.43852 3,1c2.91703,1.83594 6.39331,6.03364 7.86292,9.0565c1.82545,3.75478 1.50842,7.20243 1.50842,11.19675c0,4.70666 0.43742,9.29496 -1.06457,13.80091c0,4.85023 -2.27177,9.04732 -2.97289,13.81001c-0.18652,1.26704 0.21145,2.61766 -0.17708,3.838c-0.36461,1.14521 -1.58778,1.87106 -2,3c-0.51833,1.41955 0.2695,3.34049 -0.72925,4.47463c-3.69232,4.19287 -8.44229,1.85971 -12.42756,4.3297c-1.82074,1.12846 -2.74912,3.5159 -4.71524,4.36615c-1.32053,0.57107 -2.88123,0.11976 -4.3025,0.34314c-2.33468,0.36694 -4.47713,1.59468 -6.81,1.9729c-6.57477,1.06594 -14.1294,0.06456 -20.80091,0.06456c-5.71168,0 -10.99911,-0.19202 -16.61092,-1.03746c-3.58426,-0.53998 -7.75556,0.03746 -11.38908,0.03746c-4.10766,0 -7.59824,-0.43294 -11.61092,-1.03746c-2.36994,-0.35704 -4.81739,0.31175 -7.18999,-0.0271c-2.8229,-0.40317 -5.59997,-1.24169 -8.22186,-2.36286c-0.92354,-0.39493 -1.49208,-1.41779 -2.42615,-1.78711c-1.41232,-0.55842 -3.0324,0.22314 -4.55108,0.21454c-3.83347,-0.02173 -7.17255,-1.04231 -11,-1c-8.29183,0 -17.28058,1.00844 -25.49269,-0.02434c-2.8294,-0.35584 -5.48316,-1.65139 -8.30822,-2.04023c-1.32088,-0.1818 -2.68204,0.20192 -4,0c-0.42095,-0.06449 -6.94859,-2.2184 -7.39585,-2.44386c-0.84099,-0.42395 -1.35713,-1.413 -2.25216,-1.70612c-1.09874,-0.35983 -2.43204,0.35428 -3.46449,-0.16606c-1.65376,-0.83346 -2.66709,-2.58753 -4.16365,-3.67838c-3.71123,-2.70514 -11.63587,-5.53077 -12.78919,-10.79226c-0.70334,-3.20865 1.5704,-6.65929 3,-9.29753c-0.07367,-3.88853 0.59904,-8.01567 2.61299,-11.47989c0.53225,-0.91554 1.59702,-1.42227 2.19705,-2.29489c1.27997,-1.86147 1.55791,-4.25086 2.56463,-6.2732c0.60488,-1.21513 1.30066,-2.39071 1.93843,-3.59118z" fill="#fff700"/><path d="M179.30091,195.56457c1.35193,0.25015 2.91778,-0.36435 4.1125,0.31603c1.92774,1.09783 3.66898,2.74487 4.70599,4.70599c0.61785,1.16843 0.43675,2.57525 0.3835,3.9351c0.34011,0.25027 0.53263,0.44278 0.53263,0.44278l1,8.07107c-0.65496,0.55835 -1.14527,1.2497 -1.53463,2.02017c-0.0006,0.14823 -0.00091,0.29633 -0.00091,0.44429v2c0,0 0,2.80912 -2.10558,4.21622c-0.08569,0.23799 -0.17684,0.47083 -0.27502,0.6972c-1.28507,2.96307 -3.66481,5.34445 -5.10471,8.23545c-0.66411,1.33337 -0.45723,3.00321 -1.16369,4.31463c-0.62922,1.16806 -4.74452,4.87557 -5.72234,5.78976c-0.99268,0.36548 -6.62317,2.51088 -7.82775,2.68218c-3.94637,0.56122 -4.84149,-0.02209 -8.38205,-1.19202c-3.20533,-1.05916 -6.97119,-2.05526 -8.82724,-5.38413c-2.57088,-4.61094 -0.17938,-5.53463 0.47294,-9.1602c0.35416,-1.96839 -0.3093,-4.02406 0,-6c0.16302,-1.04141 0.82033,-1.96133 1,-3c0.20744,-1.19922 -0.24044,-2.4953 0.14998,-3.64801c0.50773,-1.49909 1.68956,-2.67866 2.46091,-4.06072c1.17979,-2.11388 1.72095,-4.53682 2.83297,-6.68712c1.18515,-2.29171 2.86392,-3.60416 3.94699,-5.46164c0.30768,-1.03524 0.51372,-1.87418 1.13423,-2.66156c0.59534,-1.11417 2.04544,-3.05903 4.79765,-2.70332c4.10509,-0.85727 9.68749,1.39838 13.41362,2.08783z" fill="#fff708"/><path d="M275.0749,204.47673c2.75221,-0.35572 4.20231,1.58915 4.79764,2.70332c0.62052,0.78738 0.82655,1.62632 1.13423,2.66156c1.08306,1.85747 2.76184,3.16993 3.94698,5.46164c1.11202,2.1503 1.65319,4.57324 2.83298,6.68712c0.77135,1.38206 1.95318,2.56163 2.46091,4.06072c0.39042,1.15271 -0.05746,2.44879 0.14998,3.64801c0.17967,1.03867 0.83699,1.95859 1,3c0.3093,1.97594 -0.35416,4.03161 0,6c0.65233,3.62556 3.04381,4.54926 0.47294,9.1602c-1.85604,3.32887 -5.62191,4.32497 -8.82724,5.38413c-3.54056,1.16993 -4.43568,1.75324 -8.38205,1.19202c-1.20458,-0.1713 -6.83506,-2.31671 -7.82774,-2.68218c-0.97782,-0.91419 -5.09312,-4.6217 -5.72235,-5.78976c-0.70646,-1.31143 -0.49958,-2.98126 -1.16369,-4.31463c-1.4399,-2.891 -3.81965,-5.27238 -5.10471,-8.23545c-0.09817,-0.22637 -0.18932,-0.45921 -0.27502,-0.6972c-2.10558,-1.40709 -2.10558,-4.21622 -2.10558,-4.21622v-2c0,-0.14795 -0.00032,-0.29605 -0.00091,-0.44429c-0.38935,-0.77048 -0.87967,-1.46183 -1.53463,-2.02017l1,-8.07107c0,0 0.19252,-0.19251 0.53263,-0.44278c-0.05325,-1.35985 -0.23435,-2.76666 0.3835,-3.9351c1.03701,-1.96112 2.77824,-3.60816 4.70598,-4.70599c1.19473,-0.68038 2.76058,-0.06589 4.1125,-0.31603c3.72613,-0.68945 9.30854,-2.9451 13.41362,-2.08783z" data-paper-data="{&quot;index&quot;:null}" fill="#fff708"/><path d="M379.44379,125.57645c1.637,-2.40163 4.39497,-3.97956 6.1895,-6.24639c0.74598,-0.94231 1.24511,-2.06481 2,-3c1.04726,-1.29739 2.7006,-2.06347 3.61345,-3.45871c0.91305,-1.39554 0.78792,-3.79188 2.32971,-4.42755c8.93824,-3.68518 9.5451,-0.68252 16.01283,2.51364c1.8329,0.90576 3.94412,1.11975 5.82413,1.92316c4.8657,2.07932 9.2676,4.39122 14.28334,6.12783c0.75072,0.5687 1.35732,1.41241 2.25216,1.70611c0.85545,0.28078 1.83793,-0.34102 2.69985,-0.08079c3.5373,1.06799 6.39289,3.73543 9.76465,5.24685c4.03168,1.80724 8.68665,1.94922 12.8875,2.68396c2.60143,0.455 9.2775,3.21811 9.92845,5.31276c0.77454,2.49231 -1.49701,5.01666 -2.56911,7.39618c-0.91447,2.02966 -3.71873,5.29309 -5.5316,6.47975c-0.88194,0.5773 -2.11627,0.42541 -3,1c-1.40103,0.91092 -2.15859,2.75829 -3.71524,3.36615c-1.77701,0.69391 -3.81726,0.51707 -5.71432,0.31603c-7.64064,-0.80969 -12.77599,-7.99427 -19.78023,-10.19202c-1.2052,-0.41728 -2.47674,-0.67773 -3.61561,-1.25184c-0.841,-0.42395 -1.37537,-1.36225 -2.25216,-1.70612c-1.41386,-0.5545 -3.03237,0.21454 -4.55108,0.21454c-3.33333,0 -6.66667,0 -10,0c-1.95434,0 -5.02069,-0.71656 -6.69099,0.74839c-1.06901,0.93759 -1.47717,1.94582 -1.68017,2.96563c0.39801,0.45053 0.81003,0.88448 1.2947,1.22977c3.31188,2.35945 7.95198,3.84635 9.69585,8.1428c1.19313,2.93955 0.3806,9.82563 0.3806,12.91341c0,0.87546 0.01698,6.29793 -0.06457,6.80091c-0.57087,3.52113 -2.2379,7.01809 -3.10294,10.48243c-0.72381,2.89876 -1.07583,6.62454 -2.14307,9.45139c-1.5402,4.0796 -4.21314,7.56524 -6.60773,11.15313c-3.73242,4.82437 -4.18723,6.65339 -10.74703,8.93072c-1.68084,0.58353 -3.5557,0.15019 -5.33467,0.18142c-4.99565,0.0877 -10.00335,0 -15,0c-4.66667,0 -9.33333,0 -14,0c-2.53082,0 -5.71375,-0.51173 -8.19909,-0.06456c-2.25831,0.40633 -4.50633,1.06456 -6.80091,1.06456c-2.62441,0 -5.21798,-0.59983 -7.80091,-1.06456c-2.48534,-0.44717 -5.66827,0.06456 -8.19909,0.06456h-2c0,0 -0.14909,0 -0.39579,-0.02575c-0.19282,0.01692 -0.3941,0.02575 -0.60421,0.02575c-5,0 -5,-5 -5,-5v-3c0,-10.26248 -0.48212,-20.5243 1.03746,-30.61092c0.3605,-2.39293 -0.15199,-4.92307 -0.11937,-7.37943c-0.91809,-1.39437 -0.91809,-3.00966 -0.91809,-3.00966c0.0765,-4.50379 1.38689,-8.95208 3.54462,-13.03226c-1.23305,-0.14104 -4.54462,-0.89861 -4.54462,-4.96774c0,-1.70939 0.58441,-2.83438 1.35362,-3.57476c-5.578,-5.54307 -11.66011,-10.53124 -17.62963,-15.64797c-3.42138,-2.9326 -3.97115,-2.40766 -6.5907,-5.60733c-2.08673,-2.54883 -4.48764,-4.84961 -6.38655,-7.54129c-0.70107,-0.99375 -0.71315,-2.33498 -1.23832,-3.4319c-0.829,-1.73153 -2.03978,-2.69146 -3.37513,-4.02681c-1.50155,-2.25232 -3.68371,-3.99691 -5.1895,-6.24639c-1.24385,-1.85818 -1.82115,-4.09992 -3,-6c-0.44294,-0.71393 -1.48302,-0.97988 -1.8105,-1.75361c-1.1563,-2.732 -4.41848,-6.23175 -2.54166,-8.52923c6.75558,-8.26976 15.76202,-0.04884 21.49766,2.81673c1.01914,0.50917 2.24172,0.54909 3.23125,1.11367c1.39299,0.79478 2.39426,2.1962 3.82833,2.9142c1.18832,0.59497 2.65456,0.41366 3.87391,0.94212c2.78335,1.20629 5.37536,2.83575 7.90078,4.51636c0.7849,0.52233 1.21553,1.47702 2,2c1.24034,0.8269 2.75961,1.17317 4,2c0.68828,0.4588 1.0044,1.36337 1.70511,1.80295c1.2051,0.75602 2.98788,0.63179 3.90688,1.71772c1.33863,1.58177 1.85343,3.7358 2.3999,5.73462c0.16823,0.61534 -0.47938,1.27084 -0.31603,1.8875c0.08459,0.31933 0.66012,0.16912 0.91613,0.37788c0.73068,0.59582 1.33333,1.33334 2,2c5.33186,5.33186 13.55328,8.29023 17.71772,14.90688c0.56148,0.89211 0.51249,2.06542 1,3c0.12898,0.24724 0.29732,0.48219 0.48716,0.70983c2.96862,-0.65842 5.98379,-1.1701 8.97624,-1.91368c4.7147,-1.17154 11.42838,-2.35026 16.28867,-1.06539c2.28151,0.60314 5.30969,1.99116 8.11854,3.3719c1.24518,-2.17459 2.44671,-4.38294 3.81991,-6.39756z" fill="#fff708"/><path d="M133.96446,189.03554c-0.77609,-0.77609 -1.21146,-1.55219 -1.4183,-2.29088c-0.61544,-0.10937 -1.23088,-0.21623 -1.84708,-0.30922c-2.24461,-0.33871 -4.56079,0.3337 -6.81001,0.0271c-5.05054,-0.68845 -10.02714,-1.70028 -15,-3c-4.53388,0.05012 -9.71688,0.62792 -14.18999,-0.0271c-2.08594,-0.30545 -3.91936,-1.66032 -6,-2c-1.20113,-0.1961 -2.49003,0.22452 -3.64801,-0.14998c-1.14353,-0.36982 -1.86042,-1.61816 -3,-2c-1.09625,-0.36732 -2.44406,0.37746 -3.46449,-0.16606c-1.73456,-0.92388 -3.186,-2.39987 -4.33984,-3.99075c-1.23775,-1.70658 -0.87695,-4.21585 -2,-6c-0.56951,-0.90476 -1.82596,-1.33649 -2.19259,-2.34074c-2.67251,-7.3204 -1.64574,-16.6544 -1.55416,-24.28791c0.0202,-1.68359 -0.28486,-3.61119 0.4806,-5.11926c-0.49815,0.02653 -1.00045,0.04123 -1.4806,0.11926c-4.27172,0 -9.5232,0.61199 -13.80091,-0.06456c-1.14271,-0.18072 -2.17007,-0.83552 -3.30513,-1.0593c-3.00729,-0.59289 -6.28677,-0.14632 -9.09072,-1.38456c-6.46543,-2.85516 -4.32027,-6.42202 -7.0565,-10.86292c-0.62975,-1.02209 -1.97972,-1.57861 -2.36614,-2.71524c-0.56155,-1.65175 -0.09445,-3.49495 -0.33273,-5.22319c-0.55689,-4.03906 -2.13363,-7.87371 -3.38771,-11.75333c-1.90648,-5.89792 -4.53934,-10.31052 -4.64313,-16.5245c-0.03564,-2.13416 -0.37367,-4.64338 0.92676,-6.33596c3.74011,-4.86796 5.41726,-2.39731 9.2553,-3.01188c4.04767,-0.64814 8.30825,-2.50414 12.21977,-3.80798c3.64328,-1.17764 6.6856,-3.81927 10.2978,-5.08908c1.50718,-0.52983 3.20364,0.04046 4.79065,-0.14317c3.52614,-0.40801 6.93435,-1.6605 10.47454,-1.91957c2.69125,-0.19694 6.07739,-1.83743 8.09521,-0.04578c2.27957,2.02406 1.53381,5.91747 1.92294,8.94102c1.02589,7.97106 0.01416,17.03466 0,25c-0.00167,0.93902 0.31897,4.50672 -0.21673,6.80308c2.32663,-0.44859 4.82124,0.19692 7.21674,0.19692c6.93404,0 13.86746,-0.02867 20.80091,0.06457c1.60925,0.56073 3.44162,0.69084 4.82774,1.68218c6.83537,4.88855 6.44904,12.30689 4.14392,19.74409c-0.78535,2.53384 -2.13253,4.87642 -3.51932,7.13782c-0.59829,0.97563 -1.89898,1.43758 -2.37712,2.47738c-0.55888,1.21539 1.61483,2.24895 1.99057,2.72401c0.98469,1.24498 1.89508,2.56359 2.62487,3.97319c0.41052,0.79293 0.32644,1.78847 0.76168,2.5681c0.73282,1.31266 2.22716,2.02222 3.28228,3.09312c4.19931,4.26213 10.0236,5.26676 15.09312,8.28228c0.9294,0.55284 1.68577,1.37019 2.52835,2.05053c0.92041,-1.19941 2.61952,-2.47557 5.42414,-1.54069c3.55283,1.18428 3.55755,4.14261 3.3361,5.55307c0.90885,0.99609 1.57299,2.53105 0.82618,4.77149c-0.6288,1.8864 -1.75773,2.77254 -2.88956,3.15565c0.06534,1.35737 0.29072,2.72808 0.08158,4.06412c-0.04082,0.26078 -0.08626,0.52089 -0.13507,0.78052c0.69189,0.73965 1.19963,1.82524 1.19963,3.41858c0,3.62001 -2.62089,4.61912 -4.06761,4.89488l-1.39685,1.64066c0,0 -3.53554,3.53554 -7.07107,0z" fill="#fff708"/><path d="M131.1519,190.54972c-1.13441,2.95028 -4.65189,2.95028 -4.65189,2.95028l-4.91342,-0.3806c-0.90508,-0.78871 -1.69315,-1.7364 -2.71524,-2.36615c-4.63069,-2.85316 -10.31597,-1.22877 -13.77972,-6.89397c-0.93752,-1.53339 -0.48838,-3.56497 -0.59162,-5.35929c-0.13181,-2.29078 0.68734,-4.53755 1.06457,-6.80091c0.33334,-2 0.6311,-4.00626 1,-6c0.25015,-1.35193 -0.18667,-2.83282 0.31603,-4.1125c0.43895,-1.11739 1.57743,-1.81016 2.36615,-2.71524c1.17099,-3.51298 4.88913,-9.23634 9.25325,-9.37134c0.20266,-0.00627 6.49938,3.92227 7.7735,4.83975c0.58625,0.42215 0.98234,1.17099 1.67542,1.37479c0.95939,0.28211 2.0646,-0.3536 3,0c2.38949,0.90329 3.97945,3.23441 6.17974,4.53221c2.83245,1.67066 7.05701,2.51215 8.10071,5.63057c2.36651,7.0708 -3.11252,7.23454 -5.47611,11.25134c-1.06915,1.81697 -0.94622,4.17408 -2,6c-0.78011,1.35172 -2.11553,2.44244 -2.50984,3.95248c0,0 -1.0703,3.21093 -4.09152,3.46858z" fill="#8e4d04"/><path d="M291.57275,84.85704c2.92725,1.14381 2.92725,4.64297 2.92725,4.64297c-0.24781,5.13881 -1.97543,10.08381 -7.08659,12.6194c-0.89583,0.44441 -2.07153,-0.37139 -3,0c-0.87538,0.35015 -1.08146,1.78749 -2,2c-7.49179,1.73329 -16.24108,-2.94683 -16.91972,-10.64133c-0.08435,-0.11538 -0.16669,-0.23189 -0.24695,-0.34941c-2.44658,-3.58271 -2.95844,-12.04113 0.71772,-15.16419c1.92944,-1.63914 4.66814,-2.36263 7.1992,-2.42023c1.45405,-0.03308 2.40811,1.70249 3.78526,2.1703c0.64784,0.22007 1.36597,-0.28358 2.04377,-0.19021c2.16701,0.29852 4.28048,0.90418 6.42073,1.35627l3.86009,2.45915c0,0 1.98762,1.32507 2.29925,3.51729z" fill="#000000"/><path d="M468.9502,139.10043c1.26637,0.61659 2.5498,1.86637 2.5498,4.39957c0,4.63495 -4.29656,4.97335 -4.92393,4.99805c-1.33783,1.33421 -3.08259,3.04767 -3.44741,3.2552c-1.48125,0.84262 -3.15781,1.34245 -4.82774,1.68218c-0.62512,0.12717 -1.29307,-0.54757 -1.8875,-0.31603c-0.54194,0.21109 -0.4973,1.12757 -0.98987,1.43681c-2.42961,1.52531 -7.35633,4.32686 -10.72446,2.87923c-0.2481,-0.10664 -0.49061,-0.22304 -0.72828,-0.34786l-0.05195,0.15584l-2.89062,-0.96354c-1.81858,-0.55929 -3.19506,-2.12793 -3.47565,-4.0521c-0.92323,-0.36345 -1.83145,-1.10516 -2.52472,-2.49171c-2.23607,-4.47214 2.23606,-6.70821 2.23606,-6.70821c7.5325,-3.60211 12.33805,-11.37273 20.03931,-15.01944c2.64847,-1.2541 8.57559,-2.95589 11.1203,-0.56463c2.1174,1.98971 3.03219,5.30078 2.9427,8.20497c-0.04364,1.4161 -1.30275,2.41956 -2.41604,3.45166z" fill="#000000"/><path d="M337.5,175.5c-5,0 -5,-5 -5,-5c0,-6 0,-15 0,-21c0,0 0,-5 5,-5c5,0 5,5 5,5c0,6 0,12 0,18v3c0,0 0,5 -5,5z" fill="#000000"/><path d="M383.5,175.5c-5,0 -5,-5 -5,-5c0,-6 0,-15 0,-21c0,0 0,-5 5,-5c5,0 5,5 5,5c0,6 0,12 0,18v3c0,0 0,5 -5,5z" fill="#000000"/><path d="M389.5,189.5c0,5 -5,5 -5,5l0.7735,-0.83975c-1.44153,0.87507 -2.72039,2.10529 -4.32458,2.62521c-0.53612,0.17376 -1.10951,-1.10961 -1.52537,-0.72925c-0.61725,0.56457 0.26616,1.958 -0.38802,2.47932c-1.62054,1.29143 -3.72836,1.88138 -5.73462,2.3999c-2.75358,0.71166 -6.9237,0.06456 -9.80091,0.06456c-5.94847,0 -12.95897,1.01051 -18.80091,-0.06456c-2.67454,-0.49219 -4.96688,-2.22093 -7.39585,-3.44386c-1.08625,-0.5469 -2.41639,-0.56915 -3.4319,-1.23832c-1.68953,-1.11332 -2.99476,-2.99863 -4.95248,-3.50984c0,0 -4.74342,-1.58114 -3.16228,-6.32456c1.58114,-4.74342 6.32456,-3.16228 6.32456,-3.16228c1.34917,0.49672 2.835,0.71763 4.04752,1.49016c1.19271,0.7599 1.82814,2.20832 3,3c0.73987,0.49984 1.76819,0.36494 2.5681,0.76168c1.63675,0.8118 2.72813,2.31366 4.60415,2.55614c6.45072,0.83377 13.67718,-0.06456 20.19909,-0.06456c1,0 2.00008,-0.01242 3,0c0.73329,0.00911 1.47843,-0.07126 2.19909,0.06456c0.15721,0.02963 0.18291,0.53699 0.26538,0.3999c0.66535,-1.10602 0.55371,-2.78175 1.61198,-3.52068c1.23906,-0.86517 3.04477,-0.24007 4.47463,-0.72925c0.68353,-0.23385 1.11695,-0.91653 1.67542,-1.37479l4.7735,-0.83975c0,0 5,0 5,5z" fill="#000000"/></g></g></svg>